<svg width="72" height="72" viewBox="0 0 72 72" fill="none" xmlns="http://www.w3.org/2000/svg"><path d="M36 46.45c9.62 0 17.419-7.798 17.419-17.418s-7.799-17.42-17.42-17.42c-9.62 0-17.418 7.8-17.418 17.42 0 9.62 7.799 17.419 17.419 17.419z" fill="#FFD452"/><path d="M69.677 35.052v-9.719A3.479 3.479 0 0 0 72 22.063a3.488 3.488 0 0 0-3.484-3.484c-.4 0-.778.081-1.136.206l-5.204-6.506c.332-.53.533-1.154.533-1.828a3.488 3.488 0 0 0-3.483-3.483c-.977 0-1.857.406-2.491 1.055L47.58 3.8c.01-.106.033-.207.033-.315A3.488 3.488 0 0 0 44.129 0a3.48 3.48 0 0 0-3.27 2.323H27.658A3.48 3.48 0 0 0 24.388 0a3.488 3.488 0 0 0-3.484 3.484c0 .144.025.282.043.421l-5.76 2.88a3.471 3.471 0 0 0-2.412-.979A3.488 3.488 0 0 0 9.29 9.29c0 .674.2 1.297.532 1.83l-5.204 6.505a3.442 3.442 0 0 0-1.134-.206A3.488 3.488 0 0 0 0 20.903c0 1.512.974 2.79 2.322 3.27v7.396A3.476 3.476 0 0 0 0 34.839a3.488 3.488 0 0 0 3.484 3.483c1.29 0 2.405-.713 3.007-1.757l6.34 1.153a3.48 3.48 0 0 0 3.427 2.926c.047 0 .09-.011.137-.013l2.215 5.539a3.464 3.464 0 0 0-1.191 2.603 3.488 3.488 0 0 0 3.484 3.484 3.474 3.474 0 0 0 2.83-1.468l9.966 2.848a3.472 3.472 0 0 0 2.3 3.052v8.557a3.48 3.48 0 0 0-2.322 3.27A3.488 3.488 0 0 0 37.16 72a3.488 3.488 0 0 0 3.484-3.484 3.48 3.48 0 0 0-2.322-3.27v-8.557a3.479 3.479 0 0 0 2.322-3.27 3.465 3.465 0 0 0-1.35-2.733l1.387-4.16L51.102 50a3.474 3.474 0 0 0 2.316 3.204v12.04a3.479 3.479 0 0 0-2.322 3.271 3.488 3.488 0 0 0 3.483 3.484 3.488 3.488 0 0 0 3.484-3.484c0-1.512-.974-2.79-2.322-3.27v-12.04a3.479 3.479 0 0 0 2.322-3.27c0-.424-.087-.826-.226-1.202l8.91-7.425c.52.309 1.12.498 1.769.498A3.488 3.488 0 0 0 72 38.322a3.48 3.48 0 0 0-2.323-3.27zm-49.942 2.044c-.002-.14-.023-.273-.041-.408l9.526-4.939 2.946 9.491-12.43-4.144zm-2.592-3.291l-1.61-12.342 7.96-.399a3.48 3.48 0 0 0 3.079 2.146l1.95 6.284-9.891 5.128a3.49 3.49 0 0 0-1.488-.817zM6.703 19.579a3.403 3.403 0 0 0-.268-.506l5.204-6.505c.135.047.267.097.408.127l.858 6.574-6.201.31zm7.645-7.197a3.475 3.475 0 0 0 1.91-3.092c0-.144-.025-.282-.042-.421l5.76-2.88a3.462 3.462 0 0 0 4.34.393l7.212 5.407-5.221 4.873a3.463 3.463 0 0 0-1.597-.404c-1.572 0-2.89 1.053-3.321 2.487l-8.157.408-.884-6.771zM40.94 4.874l-5.687 5.307-7.382-5.536H40.86c.028.077.047.155.08.229zm3.238 16.503l-9.345 4.846-4.988-4.988c.217-.455.35-.957.35-1.493 0-.495-.107-.963-.293-1.39l5.514-5.146 8.887 6.666c-.102.327-.173.67-.173 1.03 0 .163.027.318.048.475zM27.87 19.742a1.162 1.162 0 0 1-2.322 0 1.163 1.163 0 0 1 2.322 0zm4.799 7.601l-2.055 1.065-1.404-4.523 3.459 3.458zm-1.356 3.32l3.078-1.596 5.44 5.44A3.459 3.459 0 0 0 39.484 36c0 1.114.534 2.095 1.35 2.733l-1.62 4.856-4.336-1.446-3.564-11.48zm11.654 6.498a1.162 1.162 0 0 1 0-2.323 1.163 1.163 0 0 1 0 2.323zm0-4.645a3.4 3.4 0 0 0-1.492.35l-4.92-4.921 8.686-4.505a3.458 3.458 0 0 0 2.37.947c.649 0 1.25-.19 1.77-.5l5.287 4.406-9.387 5.12a3.463 3.463 0 0 0-2.314-.897zM57.574 13.5c.494.27 1.051.435 1.652.435.4 0 .776-.081 1.134-.205l5.204 6.505a3.453 3.453 0 0 0-.532 1.83c0 .186.027.367.056.546l-8.226 4.487-5.992-4.993c.14-.376.227-.778.227-1.202 0-.473-.097-.922-.267-1.333l6.744-6.07zm9.174 21.836l-7.967-6.64 7.422-4.048c.333.3.722.532 1.153.685v9.719c-.214.077-.416.17-.608.284zM48.774 20.903a1.162 1.162 0 0 1-2.322 0 1.162 1.162 0 0 1 2.322 0zm7.813 8.99l8.322 6.936-18.03-1.64 9.708-5.296zm13.09-7.829a1.162 1.162 0 0 1-2.323 0 1.162 1.162 0 0 1 2.323 0zM59.226 9.29a1.162 1.162 0 0 1 0 2.323 1.162 1.162 0 0 1 0-2.323zm-3.453.847c-.01.105-.031.206-.031.314 0 .473.096.922.267 1.334l-6.746 6.07a3.423 3.423 0 0 0-1.65-.436c-.713 0-1.376.217-1.929.587l-8.545-6.41 5.394-5.034a3.43 3.43 0 0 0 1.596.406 3.47 3.47 0 0 0 2.491-1.056l9.153 4.225zM44.13 2.323a1.162 1.162 0 0 1 0 2.322 1.162 1.162 0 0 1 0-2.322zm-19.742 0a1.162 1.162 0 0 1 0 2.322 1.162 1.162 0 0 1 0-2.322zM12.775 8.129a1.162 1.162 0 0 1 0 2.322 1.162 1.162 0 0 1 0-2.322zm-9.29 11.613a1.162 1.162 0 0 1 0 2.322 1.163 1.163 0 0 1 0-2.322zm0 16.257a1.162 1.162 0 0 1 0-2.322 1.162 1.162 0 0 1 0 2.322zm1.16-4.431v-7.396a3.475 3.475 0 0 0 2.16-2.274l6.402-.32 1.618 12.414a3.485 3.485 0 0 0-1.574 1.44L6.913 34.28a3.477 3.477 0 0 0-2.267-2.713zm10.452 5.593a1.162 1.162 0 0 1 2.323 0 1.162 1.162 0 0 1-2.323 0zm3.454 2.602a3.42 3.42 0 0 0 .44-.468l14.022 4.674 2.07 6.67c-.287.215-.543.47-.752.762l-9.966-2.847c-.115-1.816-1.615-3.264-3.461-3.264-.047 0-.091.011-.136.014l-2.217-5.54zm2.353 10.172a1.162 1.162 0 0 1 0-2.323 1.162 1.162 0 0 1 0 2.323zM37.16 69.676a1.162 1.162 0 0 1 0-2.322 1.162 1.162 0 0 1 0 2.322zm0-15.096a1.162 1.162 0 0 1 0-2.323 1.162 1.162 0 0 1 0 2.323zm.04-4.952l-1.476-4.754 2.755.918-1.28 3.836zm5.832-10.152a3.477 3.477 0 0 0 3.091-2.024l19.029 1.73c.03.117.065.23.105.342l-8.91 7.425a3.448 3.448 0 0 0-1.767-.498 3.465 3.465 0 0 0-2.733 1.35l-10.43-3.478 1.615-4.847zm11.547 30.2a1.162 1.162 0 0 1 0-2.322 1.162 1.162 0 0 1 0 2.322zm0-18.58a1.162 1.162 0 0 1 0-2.323 1.162 1.162 0 0 1 0 2.323zm13.936-11.613a1.162 1.162 0 0 1 0-2.322 1.162 1.162 0 0 1 0 2.322z" fill="#333"/></svg>