<svg width="506" height="508" viewBox="0 0 506 508" fill="none" xmlns="http://www.w3.org/2000/svg">
<mask id="mask0" mask-type="alpha" maskUnits="userSpaceOnUse" x="0" y="-198" width="1082" height="1082">
<circle cx="540.972" cy="342.867" r="490" transform="rotate(173.717 540.972 342.867)" fill="#C4C4C4"/>
</mask>
<g mask="url(#mask0)">
<path d="M-898.784 300.088C-893.749 297.141 -887.299 299.135 -884.329 304.157C-877.135 316.32 -868.008 327.192 -857.309 336.301C-832.603 356.689 -804.678 361.9 -775.148 367.183C-744.113 372.949 -711.992 378.896 -682.802 403.082C-653.611 427.269 -640.989 458.37 -628.79 488.271C-617.114 516.931 -606.166 543.825 -581.699 564.239C-557.232 584.653 -529.068 589.837 -499.538 595.121C-468.502 600.887 -436.382 606.834 -407.197 630.971C-378.011 655.108 -365.384 686.259 -353.179 716.208C-341.504 744.869 -330.555 771.762 -306.088 792.177C-281.621 812.591 -253.505 817.78 -223.927 823.059C-192.428 829.523 -160.18 835.305 -131.138 859.458C-102.096 883.611 -89.3256 914.746 -77.121 944.696C-65.4934 973.361 -54.4972 1000.25 -30.03 1020.66C-18.96 1029.58 -6.51922 1036.47 6.74086 1041.06C11.9891 1042.87 15.2422 1048.33 13.8309 1053.7L13.0283 1056.75C11.626 1062.09 6.15178 1065.32 0.924494 1063.55C-15.2807 1058.07 -30.4653 1049.69 -43.9154 1038.76C-73.1009 1014.63 -85.7282 983.475 -97.9328 953.525C-109.56 924.86 -120.557 897.971 -145.024 877.557C-169.491 857.143 -197.607 851.953 -227.137 846.67C-258.22 840.909 -290.293 834.957 -319.478 810.82C-348.664 786.683 -361.339 755.537 -373.543 725.587C-385.171 696.922 -396.167 670.033 -420.634 649.619C-445.101 629.205 -473.217 624.015 -502.747 618.732C-533.831 612.971 -565.903 607.019 -595.089 582.882C-624.274 558.745 -636.949 527.599 -649.148 497.699C-660.776 469.033 -671.73 442.09 -696.245 421.681C-720.759 401.272 -748.828 396.078 -778.358 390.794C-809.441 385.033 -841.514 379.081 -870.699 354.944C-884.254 343.514 -895.687 329.682 -904.466 314.132C-907.035 309.581 -905.287 303.893 -900.777 301.254L-898.784 300.088Z" fill="#FFDD74"/>
<path d="M-916.527 137.215C-912.774 132.841 -906.079 132.52 -902.268 136.844C-883.383 158.275 -873.254 183.138 -863.427 207.361C-851.751 236.021 -840.803 262.915 -816.336 283.329C-791.869 303.744 -763.705 308.928 -734.175 314.211C-703.139 319.978 -671.019 325.924 -641.834 350.061C-612.648 374.198 -600.021 405.349 -587.816 435.299C-576.141 463.959 -565.193 490.853 -540.725 511.267C-516.258 531.681 -488.095 536.865 -458.564 542.149C-427.529 547.915 -395.409 553.862 -366.223 577.999C-337.038 602.136 -324.411 633.287 -312.206 663.236C-300.531 691.897 -289.582 718.79 -265.115 739.205C-240.648 759.619 -212.484 764.803 -182.954 770.086C-151.919 775.853 -119.798 781.799 -90.6129 805.936C-61.4275 830.074 -48.8002 861.224 -36.5956 891.174C-24.9202 919.834 -13.9718 946.728 10.4953 967.142C34.9625 987.557 63.0783 992.746 92.6562 998.024C118.004 1002.73 144.162 1007.59 168.881 1022.46C173.36 1025.15 174.59 1030.98 171.926 1035.48L170.357 1038.13C167.387 1043.14 160.789 1044.52 155.717 1041.66C135.244 1030.08 112.999 1025.94 89.638 1021.61C58.5547 1015.85 26.4344 1009.91 -2.75097 985.77C-31.9364 961.632 -44.5637 930.482 -56.7683 900.532C-68.3958 871.866 -79.392 844.978 -103.859 824.564C-128.326 804.149 -156.442 798.96 -185.972 793.677C-217.056 787.915 -249.128 781.964 -278.314 757.827C-307.499 733.689 -320.174 702.544 -332.379 672.594C-344.006 643.929 -355.002 617.04 -379.47 596.626C-403.937 576.212 -432.053 571.022 -461.583 565.739C-492.666 559.978 -524.739 554.026 -553.924 529.889C-583.109 505.752 -595.784 474.606 -607.984 444.706C-619.611 416.04 -630.565 389.098 -655.08 368.688C-679.595 348.279 -707.663 343.085 -737.193 337.801C-768.229 332.035 -800.349 326.088 -829.534 301.951C-858.72 277.814 -871.395 246.669 -883.594 216.768C-892.975 193.646 -901.922 171.695 -917.978 153.216C-921.435 149.237 -921.735 143.286 -918.303 139.286L-916.527 137.215Z" fill="#FFDD74"/>
<path d="M-954.158 -276.854C-941.948 -246.855 -929.331 -215.802 -900.146 -191.665C-870.961 -167.528 -838.745 -161.592 -807.805 -155.815C-778.157 -150.345 -750.329 -145.124 -725.644 -124.933C-700.959 -104.743 -690.026 -77.5478 -678.553 -48.9651C-666.338 -18.9169 -653.721 12.1352 -624.536 36.2724C-595.35 60.4096 -563.134 66.3455 -532.195 72.1224C-502.547 77.5925 -474.718 82.8135 -450.034 103.004C-425.349 123.195 -414.416 150.39 -402.943 178.973C-390.68 209.016 -378.063 240.068 -348.878 264.205C-319.692 288.342 -287.477 294.278 -256.537 300.055C-226.889 305.525 -199.06 310.746 -174.376 330.937C-149.691 351.127 -138.758 378.322 -127.285 406.905C-115.069 436.953 -102.411 467.951 -73.2253 492.088C-44.0399 516.225 -11.8185 522.21 19.1213 527.987C48.7687 533.457 76.5977 538.678 101.234 558.874C125.871 579.07 136.9 606.255 148.325 634.843C160.541 664.891 173.199 695.889 202.385 720.026C203.243 720.736 204.1 721.429 204.958 722.104C206.944 723.669 209.799 723.172 211.364 721.187C212.458 719.8 212.712 717.914 212.017 716.29C209.289 709.919 207.37 703.212 206.312 696.336C206.271 695.967 206.231 695.599 206.19 695.232C205.955 693.098 205.029 691.106 203.615 689.491C187.498 671.08 178.475 648.968 169.148 626.112C156.89 596.118 144.274 565.066 115.088 540.929C85.9028 516.792 53.6868 510.856 22.747 505.079C-6.90585 499.56 -34.7292 494.388 -59.4138 474.197C-84.0984 454.006 -95.0315 426.811 -106.51 398.179C-118.72 368.181 -131.384 337.134 -160.57 312.997C-189.755 288.859 -221.971 282.923 -252.911 277.147C-282.558 271.676 -310.387 266.455 -335.024 246.259C-359.661 226.063 -370.69 198.879 -382.12 170.242C-394.33 140.243 -406.995 109.196 -436.18 85.0588C-465.365 60.9217 -497.581 54.9858 -528.521 49.2088C-558.169 43.7388 -585.997 38.5177 -610.634 18.3217C-635.271 -1.87427 -646.3 -29.0586 -657.725 -57.6466C-669.94 -87.6948 -682.605 -118.742 -711.79 -142.879C-740.976 -167.016 -773.191 -172.952 -804.131 -178.729C-833.779 -184.199 -861.608 -189.42 -886.244 -209.616C-910.881 -229.812 -921.91 -256.996 -933.335 -285.584C-934.727 -289.031 -936.131 -292.476 -937.562 -295.911C-939.714 -301.08 -945.733 -303.371 -950.819 -301.032L-953.18 -299.947C-958.135 -297.668 -960.354 -291.838 -958.26 -286.802C-956.89 -283.505 -955.53 -280.178 -954.158 -276.854Z" fill="#FFDD74"/>
<path d="M-858.972 -244.661C-829.787 -220.523 -797.571 -214.588 -766.631 -208.811C-736.984 -203.341 -709.155 -198.12 -684.47 -177.929C-659.786 -157.738 -648.853 -130.543 -637.379 -101.961C-625.164 -71.9123 -612.547 -40.8602 -583.362 -16.723C-554.177 7.41414 -521.961 13.3499 -491.021 19.1268C-461.373 24.5969 -433.545 29.8179 -408.86 50.0087C-384.175 70.1994 -373.242 97.3943 -361.769 125.977C-349.506 156.02 -336.895 187.023 -307.709 211.16C-278.524 235.297 -246.303 241.282 -215.363 247.059C-185.715 252.529 -157.886 257.75 -133.202 277.941C-108.517 298.132 -97.5841 325.327 -86.1109 353.909C-73.8955 383.958 -61.2366 414.955 -32.0512 439.092C-2.86581 463.229 29.3555 469.215 60.2953 474.991C89.9427 480.462 117.772 485.683 142.408 505.879C150.694 512.705 158.362 518.463 164.917 525.088C167.933 528.136 175.69 525.394 177.187 521.377C177.262 521.176 177.351 520.894 177.396 520.684C177.604 519.695 177.839 518.711 178.098 517.735C178.955 514.515 178.548 511.019 176.487 508.4C170.547 500.852 163.846 493.965 156.496 487.857C127.311 463.72 95.0946 457.784 64.1548 452.007C34.5019 446.488 6.67843 441.316 -17.9583 421.12C-42.5951 400.924 -53.6293 373.691 -65.0547 345.103C-77.2647 315.104 -89.9288 284.057 -119.114 259.92C-148.3 235.783 -180.516 229.847 -211.455 224.07C-241.108 218.551 -268.932 213.379 -293.569 193.183C-318.205 172.987 -329.234 145.803 -340.665 117.165C-352.875 87.1663 -365.539 56.1195 -394.725 31.9823C-423.91 7.84514 -456.126 1.90928 -487.066 -3.86763C-516.713 -9.33765 -544.542 -14.5587 -569.179 -34.7547C-593.816 -54.9507 -604.844 -82.1351 -616.275 -110.772C-628.485 -140.771 -641.149 -171.818 -670.335 -195.955C-699.52 -220.092 -731.736 -226.028 -762.676 -231.805C-792.323 -237.275 -820.152 -242.496 -844.789 -262.692C-857.738 -273.955 -868.475 -287.624 -876.452 -302.945C-879.097 -308.024 -885.274 -310.343 -890.414 -307.819L-892.726 -306.683C-897.507 -304.335 -899.637 -298.635 -897.25 -293.873C-887.811 -275.048 -874.804 -258.305 -858.972 -244.661Z" fill="#FFDD74"/>
<path d="M-817.797 -297.656C-788.612 -273.519 -756.396 -267.583 -725.456 -261.806C-695.809 -256.336 -667.98 -251.115 -643.295 -230.924C-618.61 -210.734 -607.677 -183.539 -596.204 -154.956C-583.989 -124.908 -571.378 -93.905 -542.192 -69.7679C-513.007 -45.6307 -480.786 -39.6455 -449.846 -33.8686C-420.198 -28.3985 -392.369 -23.1775 -367.685 -2.98672C-343 17.204 -332.067 44.3988 -320.594 72.9815C-308.378 103.03 -295.767 134.033 -266.582 158.17C-237.396 182.307 -205.175 188.292 -174.235 194.069C-144.588 199.539 -116.759 204.76 -92.0743 224.951C-67.3898 245.142 -56.4566 272.336 -44.9834 300.919C-32.7202 330.962 -20.1092 361.965 9.07617 386.102C34.953 408.024 65.9652 422.52 98.9492 428.113C128.597 433.583 145.211 434.998 179.495 450.039C180.142 450.311 180.785 450.594 181.423 450.888C187.459 453.672 196.458 449.375 198.491 443.046C198.517 442.965 198.543 442.884 198.569 442.804C199.587 439.691 199.893 435.06 197.115 433.326C161.897 411.999 134.884 407.587 103.848 401.82C74.2007 396.35 48.4243 389.107 23.7658 368.713C-0.892645 348.32 -11.9051 321.284 -23.3305 292.696C-35.5405 262.697 -48.2047 231.65 -77.3901 207.513C-106.576 183.376 -138.792 177.44 -169.731 171.663C-199.384 166.144 -227.208 160.972 -251.845 140.776C-276.481 120.58 -287.515 93.3462 -298.941 64.7582C-311.151 34.7593 -323.815 3.71238 -353 -20.4248C-382.186 -44.5619 -414.402 -50.4978 -445.342 -56.2748C-474.989 -61.7448 -502.818 -66.9659 -527.455 -87.1619C-552.092 -107.358 -563.12 -134.542 -574.551 -163.179C-586.761 -193.178 -599.425 -224.225 -628.611 -248.362C-657.796 -272.5 -690.012 -278.435 -720.952 -284.212C-750.6 -289.682 -778.428 -294.903 -803.065 -315.099C-803.333 -315.321 -803.599 -315.545 -803.865 -315.769C-808.19 -319.424 -814.693 -319.391 -818.581 -315.274L-820.403 -313.346C-824.186 -309.339 -824.044 -302.993 -819.866 -299.401C-819.185 -298.816 -818.493 -298.232 -817.797 -297.656Z" fill="#FFDD74"/>
<path d="M-684.241 -314.806C-654.594 -309.336 -626.765 -304.115 -602.128 -283.919C-577.491 -263.722 -566.51 -236.533 -555.037 -207.95C-542.822 -177.902 -530.211 -146.899 -501.025 -122.762C-471.84 -98.6248 -439.619 -92.6397 -408.679 -86.8627C-379.031 -81.3927 -351.203 -76.1716 -326.518 -55.9808C-301.833 -35.7901 -290.655 -8.12318 -278.931 20.5318C-266.716 50.5801 -254.105 81.5829 -224.92 105.72C-195.734 129.857 -163.513 135.842 -132.573 141.619C-102.926 147.089 -75.1022 152.261 -50.4122 172.501C-25.7222 192.741 -14.7945 219.887 -3.32134 248.47C9.01587 278.305 21.6486 309.505 50.8286 333.593C80.0085 357.681 112.235 363.715 143.175 369.492C161.732 372.921 179.631 376.274 196.508 383.315C200.812 385.111 205.85 383.102 207.972 378.949C210.316 374.362 208.433 368.496 203.897 366.055C199.668 363.78 195.666 361.067 191.955 357.953C190.815 356.997 189.507 356.254 188.077 355.844C174.57 351.972 160.87 348.872 147.04 346.557C117.393 341.087 89.5692 335.915 64.927 315.67C40.2848 295.425 29.2561 268.24 17.8307 239.652C5.62068 209.654 -7.04364 178.607 -36.229 154.47C-65.4144 130.332 -97.6304 124.396 -128.57 118.62C-158.223 113.1 -186.046 107.928 -210.683 87.7324C-235.32 67.5364 -246.354 40.3028 -257.779 11.7148C-269.989 -18.2841 -282.654 -49.331 -311.839 -73.4682C-341.025 -97.6053 -373.241 -103.541 -404.18 -109.318C-433.833 -114.838 -461.657 -120.009 -486.293 -140.205C-510.93 -160.401 -521.959 -187.586 -533.39 -216.223C-545.6 -246.222 -558.216 -277.274 -587.401 -301.411C-616.587 -325.548 -648.803 -331.484 -679.79 -337.256L-683.426 -337.954C-688.886 -339.002 -694.153 -335.394 -695.149 -329.924L-695.682 -326.995C-696.683 -321.496 -692.983 -316.245 -687.468 -315.337L-684.241 -314.806Z" fill="#FFDD74"/>
<path d="M-513.651 -260.77C-501.436 -230.722 -488.825 -199.719 -459.639 -175.582C-430.454 -151.444 -398.233 -145.459 -367.293 -139.682C-337.645 -134.212 -309.769 -128.997 -285.132 -108.8C-260.495 -88.6045 -249.514 -61.4149 -238.041 -32.8322C-225.831 -2.83328 -213.215 28.2188 -184.029 52.356C-154.844 76.4932 -122.622 82.4783 -91.6825 88.2553C-62.035 93.7253 -34.2116 98.897 -9.52162 119.137C15.1684 139.377 26.0961 166.523 37.5693 195.105C49.7793 225.104 62.3957 256.156 91.5812 280.294C108.342 295.2 128.219 305.824 149.581 311.354C153.654 312.409 164.389 311.745 163.809 307.578C163.327 304.466 162.55 302.424 161.971 300.433C160.709 296.097 158.525 291.639 154.371 289.864C134.555 281.399 121.691 275.546 105.647 262.075C80.9353 241.638 69.9761 214.646 58.5507 186.058C46.3407 156.059 33.6764 125.012 4.49096 100.875C-24.6944 76.7375 -56.9104 70.8016 -87.8503 65.0247C-117.503 59.5054 -145.326 54.3336 -169.963 34.1376C-194.6 13.9416 -205.634 -13.292 -217.06 -41.88C-229.27 -71.8789 -241.934 -102.926 -271.119 -127.063C-300.305 -151.2 -332.521 -157.136 -363.461 -162.913C-393.113 -168.432 -420.937 -173.604 -445.574 -193.8C-470.21 -213.996 -481.239 -241.18 -492.67 -269.818C-503.549 -296.522 -514.762 -324.09 -537.896 -346.904C-541.907 -350.859 -548.392 -350.205 -551.908 -345.804L-553.747 -343.501C-557.113 -339.288 -556.493 -333.194 -552.713 -329.347C-533.637 -309.933 -523.921 -285.921 -513.651 -260.77Z" fill="#FFDD74"/>
<path d="M-472.478 -313.766C-460.263 -283.718 -447.651 -252.715 -418.466 -228.578C-389.281 -204.441 -357.059 -198.456 -326.119 -192.679C-296.472 -187.209 -268.601 -182.042 -243.958 -161.797C-219.316 -141.552 -208.341 -114.411 -196.868 -85.8285C-184.658 -55.8296 -172.041 -24.7775 -142.856 -0.640264C-113.67 23.4969 -81.4489 29.4822 -50.509 35.2591C-20.8616 40.7291 7.00968 45.8956 31.6519 66.141C56.2941 86.3863 67.2696 113.527 78.7428 142.109C90.9528 172.108 103.569 203.16 132.755 227.298C146.166 238.389 159.097 247.913 173.102 253.554C176.228 254.813 179.745 253.679 182.066 251.236C187.158 245.88 185.567 234.707 178.964 231.389C167.869 225.814 157.552 218.169 146.704 209.342C122.046 188.948 111.039 161.961 99.6133 133.373C87.4033 103.374 74.739 72.3273 45.5535 48.1901C16.3681 24.053 -15.8477 18.117 -46.7876 12.3401C-76.4404 6.82076 -104.264 1.64899 -128.901 -18.547C-153.537 -38.7431 -164.572 -65.9766 -175.997 -94.5647C-188.207 -124.564 -200.824 -155.616 -230.009 -179.753C-259.194 -203.89 -291.41 -209.826 -322.398 -215.598C-352.051 -221.117 -379.874 -226.289 -404.511 -246.485C-429.148 -266.681 -440.182 -293.915 -451.607 -322.503C-455.149 -331.212 -458.794 -340.129 -462.883 -348.953C-465.241 -354.043 -471.409 -355.968 -476.351 -353.312L-478.671 -352.065C-483.472 -349.485 -485.312 -343.539 -483.029 -338.59C-479.349 -330.613 -475.996 -322.353 -472.478 -313.766Z" fill="#FFDD74"/>
<path d="M-373.277 -284.61C-344.092 -260.473 -311.871 -254.488 -280.931 -248.711C-251.283 -243.241 -223.412 -238.074 -198.77 -217.829C-174.128 -197.584 -163.104 -170.449 -151.679 -141.861C-139.469 -111.862 -126.852 -80.8098 -97.667 -56.6726C-68.4816 -32.5354 -36.2658 -26.5996 -5.32051 -20.7733C24.3269 -15.3033 51.8251 -8.24903 76.4836 12.1442C101.142 32.5375 119.731 53.1998 131.204 81.7825C143.414 111.781 148.971 147.304 178.156 171.441C182.64 175.149 188.254 170 185.808 164.72C181.504 155.425 177.776 145.854 174.651 136.064C174.3 134.966 173.768 133.935 173.086 133.005C160.884 116.377 153.133 97.3568 145.084 77.7088C132.874 47.7099 120.258 16.6578 91.0247 -7.47407C61.7915 -31.606 29.6179 -37.5964 -1.32199 -43.3733C-30.9694 -48.8433 -58.7928 -54.0151 -83.435 -74.2604C-108.077 -94.5058 -119.1 -121.641 -130.526 -150.229C-142.736 -180.228 -155.352 -211.28 -184.538 -235.417C-213.723 -259.554 -245.945 -265.539 -276.932 -271.311C-306.58 -276.781 -334.403 -281.953 -359.045 -302.198C-378.076 -317.937 -388.935 -337.737 -397.638 -357.436C-399.896 -362.548 -405.836 -364.947 -410.956 -362.708L-413.335 -361.667C-418.347 -359.474 -420.687 -353.652 -418.466 -348.651C-408.943 -327.205 -396.102 -303.487 -373.277 -284.61Z" fill="#FFDD74"/>
<path d="M-890.346 87.249C-865.64 107.637 -854.681 134.629 -843.25 163.267C-831.04 193.265 -818.376 224.313 -789.19 248.45C-760.005 272.587 -727.789 278.523 -696.849 284.3C-667.202 289.77 -639.373 294.991 -614.736 315.187C-590.099 335.383 -579.071 362.567 -567.64 391.204C-555.43 421.203 -542.765 452.25 -513.58 476.387C-484.395 500.525 -452.179 506.46 -421.239 512.237C-391.591 517.707 -363.763 522.928 -339.126 543.125C-314.489 563.321 -303.46 590.505 -292.035 619.093C-279.208 649.423 -266.538 680.519 -237.491 704.722C-208.443 728.924 -176.089 734.795 -145.149 740.572C-115.502 746.042 -87.6732 751.263 -63.0364 771.459C-38.3997 791.655 -27.3709 818.839 -15.9456 847.427C-3.73011 877.475 8.9342 908.522 38.1196 932.659C67.305 956.797 99.521 962.732 130.461 968.509C154.417 972.968 177.282 977.236 198.237 989.552C204.231 993.075 213.927 990.655 218.474 985.396C221.647 981.725 220.725 976.309 216.607 973.743C190.813 957.67 160.355 950.47 134.331 945.624C104.684 940.154 76.8069 934.938 52.1702 914.742C27.5334 894.546 16.5525 867.356 5.07927 838.774C-7.13618 808.726 -19.7526 777.673 -48.938 753.536C-78.1234 729.399 -110.339 723.463 -141.279 717.686C-170.927 712.216 -198.755 706.995 -223.44 686.804C-248.125 666.614 -259.058 639.419 -270.531 610.836C-282.746 580.788 -295.363 549.736 -324.548 525.598C-353.734 501.461 -385.95 495.525 -416.889 489.748C-446.537 484.278 -474.366 479.057 -499.05 458.867C-523.735 438.676 -534.668 411.481 -546.141 382.898C-558.357 352.85 -570.973 321.798 -600.158 297.661C-629.344 273.523 -661.56 267.588 -692.499 261.811C-722.147 256.341 -749.976 251.12 -774.66 230.929C-799.345 210.738 -810.278 183.543 -821.751 154.96C-833.967 124.912 -846.631 93.8653 -875.816 69.7281C-887.117 60.5392 -899.68 53.1741 -913.067 47.8685C-918.244 45.8169 -923.914 48.8385 -925.524 54.1691L-926.414 57.1148C-928.01 62.4 -925 67.9383 -919.875 69.991C-909.294 74.2286 -899.344 80.0382 -890.346 87.249Z" fill="#FFDD74"/>
<path d="M210.76 972.622C212.323 972.53 213.888 972.819 215.298 973.5C224.93 978.156 234.001 983.973 242.318 990.83C248.781 996.174 254.742 1002.12 260.126 1008.6C263.567 1012.73 262.66 1018.83 258.409 1022.13L256.377 1023.71C251.902 1027.18 245.47 1026.21 241.76 1021.93C237.689 1017.23 233.248 1012.88 228.481 1008.92C225.245 1006.26 215.921 1000.22 205.706 993.917C197.279 988.72 200.877 973.208 210.76 972.622Z" fill="#FFDD74"/>
<path d="M-931.313 3.16887C-901.666 8.63895 -873.837 13.86 -849.152 34.0509C-824.468 54.2416 -813.534 81.4364 -802.056 110.068C-789.846 140.067 -777.182 171.114 -747.996 195.251C-718.811 219.389 -686.595 225.325 -655.655 231.101C-626.007 236.571 -598.179 241.793 -573.542 261.989C-548.905 282.185 -537.876 309.369 -526.451 337.957C-514.236 368.005 -501.571 399.052 -472.386 423.189C-443.201 447.326 -410.984 453.262 -380.045 459.039C-350.397 464.509 -322.569 469.73 -297.932 489.926C-273.295 510.122 -262.266 537.307 -250.841 565.895C-238.625 595.943 -225.961 626.99 -196.776 651.127C-167.59 675.264 -135.374 681.2 -104.434 686.977C-74.787 692.447 -46.9582 697.668 -22.3215 717.864C2.31523 738.06 13.344 765.245 24.7694 793.833C36.9848 823.881 49.6437 854.878 78.8291 879.016C108.014 903.153 140.236 909.138 171.176 914.915C181.845 916.54 192.412 918.8 202.824 921.683C210.097 923.697 217.374 916.264 216.201 908.81C216.167 908.604 216.133 908.398 216.101 908.192C215.433 903.96 212.577 900.277 208.43 899.198C197.358 896.316 186.172 893.929 174.902 892.045C145.255 886.575 117.426 881.354 92.7416 861.163C68.057 840.973 57.1239 813.778 45.6453 785.146C33.4353 755.147 20.8188 724.095 -8.36655 699.957C-37.5519 675.82 -69.7679 669.884 -100.708 664.107C-130.355 658.637 -158.184 653.416 -182.869 633.226C-207.553 613.035 -218.486 585.84 -229.959 557.257C-242.175 527.209 -254.791 496.157 -283.977 472.02C-313.162 447.882 -345.378 441.947 -376.318 436.17C-405.965 430.7 -433.794 425.479 -458.479 405.288C-483.163 385.097 -494.096 357.902 -505.57 329.319C-517.833 299.276 -530.449 268.224 -559.635 244.087C-588.82 219.95 -621.036 214.014 -651.976 208.237C-681.623 202.767 -709.452 197.546 -734.089 177.35C-758.726 157.154 -769.755 129.97 -781.18 101.382C-793.395 71.3334 -806.06 40.2865 -835.245 16.1493C-864.43 -7.98784 -896.646 -13.9238 -927.586 -19.7007C-929.815 -20.1142 -931.951 -18.6245 -932.334 -16.3901L-934.83 -1.80607C-935.232 0.53869 -933.657 2.76529 -931.313 3.16887Z" fill="#FFDD74"/>
<path d="M190.65 906.065C191.629 900.563 196.93 896.908 202.39 898.098C225.084 903.045 250.042 910.851 272.765 929.683C295.69 948.682 308.67 972.319 318.252 994.224C320.427 999.198 318.09 1004.96 313.12 1007.14L310.652 1008.23C305.529 1010.48 299.576 1008.09 297.345 1002.95C288.729 983.143 278.163 962.968 258.731 947.748C239.168 932.426 218.002 926.097 197.563 921.106C192.408 919.848 189.092 914.825 190.021 909.6L190.65 906.065Z" fill="#FFDD74"/>
<path d="M-890.139 -49.8261C-860.492 -44.356 -832.663 -39.1349 -807.978 -18.9442C-783.294 1.24656 -772.36 28.4414 -760.887 57.0241C-748.624 87.0671 -736.007 118.119 -706.822 142.256C-677.637 166.394 -645.421 172.329 -614.481 178.106C-584.833 183.576 -557.005 188.797 -532.368 208.993C-507.731 229.189 -496.702 256.374 -485.277 284.962C-473.061 315.01 -460.397 346.057 -431.212 370.194C-402.026 394.331 -369.81 400.267 -338.87 406.044C-309.223 411.514 -281.394 416.735 -256.757 436.931C-232.121 457.127 -221.092 484.311 -209.666 512.899C-197.451 542.948 -184.787 573.994 -155.601 598.132C-126.416 622.269 -94.1999 628.205 -63.26 633.982C-33.6126 639.452 -5.78383 644.673 18.8529 664.869C43.4897 685.065 54.5185 712.249 65.9438 740.837C78.1593 770.885 90.8182 801.883 120.004 826.02C149.189 850.157 181.41 856.142 212.35 861.919C214.267 862.271 216.183 862.623 218.091 862.98C222.228 863.754 226.391 861.799 228.806 858.353C233.399 851.8 230.648 841.745 222.784 840.262C220.591 839.849 218.403 839.442 216.221 839.034C186.568 833.514 158.744 828.343 134.06 808.152C109.375 787.961 98.4419 760.766 86.9633 732.134C74.7532 702.135 62.1368 671.083 32.9514 646.946C3.766 622.809 -28.4499 616.873 -59.3898 611.096C-89.0372 605.626 -116.866 600.405 -141.551 580.214C-166.235 560.024 -177.169 532.829 -188.642 504.246C-200.905 474.203 -213.521 443.151 -242.707 419.014C-271.892 394.877 -304.108 388.941 -335.048 383.164C-364.695 377.694 -392.524 372.473 -417.209 352.282C-441.893 332.091 -452.826 304.896 -464.3 276.314C-476.515 246.266 -489.18 215.219 -518.365 191.081C-547.55 166.944 -579.766 161.008 -610.706 155.231C-640.354 149.761 -668.183 144.54 -692.819 124.344C-717.456 104.148 -728.485 76.9642 -739.91 48.3761C-752.126 18.328 -764.79 -12.719 -793.975 -36.8562C-823.161 -60.9933 -855.377 -66.9293 -886.317 -72.7062C-900.203 -74.8189 -913.919 -78.0018 -927.347 -82.2262C-932.583 -83.8734 -938.264 -81.2131 -940.143 -76.0556L-941.223 -73.0912C-943.121 -67.8791 -940.42 -62.1005 -935.136 -60.4121C-920.418 -55.7093 -905.375 -52.1696 -890.139 -49.8261Z" fill="#FFDD74"/>
<path d="M191.528 845.036C192.881 839.564 198.486 836.301 203.976 837.578C212.185 839.488 220.535 841.046 229.206 842.645C260.29 848.406 292.368 854.407 321.553 878.544C350.738 902.681 363.414 933.827 375.613 963.727C379.113 972.36 382.498 980.658 386.217 988.728C388.491 993.663 386.646 999.581 381.86 1002.15L379.398 1003.48C374.497 1006.11 368.376 1004.24 366.025 999.197C361.92 990.386 358.372 981.454 354.806 972.606C343.131 943.945 332.183 917.052 307.71 896.588C283.237 876.125 255.132 871.034 225.549 865.706C216.45 864.019 207.131 862.299 197.805 860.085C192.544 858.837 189.437 853.494 190.735 848.246L191.528 845.036Z" fill="#FFDD74"/>
<path d="M-941.315 -138.672C-912.13 -114.534 -879.914 -108.598 -848.974 -102.821C-819.326 -97.3514 -791.497 -92.1303 -766.813 -71.9396C-742.128 -51.7488 -731.195 -24.5541 -719.722 4.02862C-707.507 34.0769 -694.89 65.129 -665.705 89.2662C-636.519 113.403 -604.303 119.339 -573.364 125.116C-543.716 130.586 -515.887 135.807 -491.251 156.003C-466.614 176.199 -455.585 203.384 -444.16 231.972C-431.944 262.02 -419.28 293.067 -390.094 317.204C-360.909 341.341 -328.693 347.277 -297.753 353.054C-268.106 358.524 -240.277 363.745 -215.64 383.941C-191.004 404.137 -179.975 431.321 -168.549 459.909C-156.334 489.958 -143.675 520.955 -114.484 545.142C-85.2934 569.328 -53.083 575.215 -22.1432 580.992C7.50425 586.462 35.3332 591.683 59.9699 611.879C84.6067 632.075 95.6355 659.259 107.061 687.847C119.276 717.895 131.935 748.893 161.121 773.03C167.73 778.436 174.789 783.202 182.205 787.274C189.583 791.326 197.539 783.419 196.251 775.101C196.187 774.743 196.128 774.385 196.074 774.025C195.664 771.299 194.494 768.68 192.312 766.994C186.277 762.333 180.888 759.489 175.346 754.944C150.688 734.55 139.729 707.558 128.25 678.926C116.04 648.927 103.423 617.875 74.238 593.738C45.0527 569.601 12.8367 563.665 -18.1032 557.888C-47.756 552.368 -75.5794 547.197 -100.264 527.006C-124.949 506.815 -135.882 479.62 -147.36 450.988C-159.618 420.995 -172.235 389.943 -201.42 365.805C-230.605 341.668 -262.821 335.732 -293.761 329.955C-323.409 324.485 -351.237 319.264 -375.874 299.068C-400.511 278.872 -411.54 251.688 -422.965 223.1C-435.181 193.052 -447.845 162.005 -477.03 137.868C-506.216 113.731 -538.432 107.795 -569.372 102.018C-599.019 96.5476 -626.848 91.3266 -651.484 71.1306C-676.121 50.9346 -687.15 23.7503 -698.575 -4.83764C-710.791 -34.8859 -723.455 -65.9328 -752.641 -90.0699C-781.826 -114.207 -814.042 -120.143 -844.982 -125.92C-874.629 -131.39 -902.458 -136.611 -927.095 -156.807C-929.8 -159.05 -932.401 -161.419 -934.89 -163.908C-938.876 -167.893 -945.32 -168.418 -949.541 -164.683L-951.673 -162.797C-955.706 -159.228 -956.216 -153.076 -952.505 -149.173C-948.973 -145.459 -945.237 -141.952 -941.315 -138.672Z" fill="#FFDD74"/>
<path d="M186.426 775.571C189.862 771.19 196.196 770.503 200.84 773.576C223.119 788.316 247.709 792.891 273.435 797.697C304.519 803.458 336.597 809.459 365.782 833.596C394.968 857.734 407.643 888.879 419.842 918.779C430.052 943.897 439.78 967.79 458.745 986.963C462.552 990.812 463.193 996.933 459.814 1001.16L458.026 1003.4C454.503 1007.81 448.001 1008.46 443.995 1004.48C421.08 981.733 409.821 954.188 398.769 927.438C387.094 898.778 376.145 871.884 351.673 851.42C327.2 830.957 299.047 825.871 269.512 820.539C241.769 815.374 213.129 810.061 186.418 791.545C181.927 788.432 181.241 782.184 184.613 777.883L186.426 775.571Z" fill="#FFDD74"/>
<path d="M146.582 493.12C149.623 488.435 155.829 487.271 160.177 490.779C163.374 493.359 166.561 496.006 168.346 497.482C197.532 521.619 210.207 552.765 222.406 582.665C234.034 611.33 244.982 638.224 269.502 658.682C294.023 679.141 322.08 684.237 351.615 689.57C382.651 695.336 414.771 701.282 443.957 725.42C473.142 749.557 485.769 780.708 498.016 810.603C509.644 839.268 520.592 866.162 545.113 886.62C569.633 907.079 597.738 912.169 627.274 917.502C658.315 923.318 690.435 929.264 719.62 953.401C720.658 954.26 721.686 955.137 722.701 956.031C726.752 959.594 726.801 965.782 723.097 969.704L721.088 971.832C717.195 975.953 710.685 975.977 706.329 972.348C706.075 972.137 705.821 971.927 705.565 971.718C680.901 951.276 652.982 946.115 623.452 940.831C592.417 935.065 560.291 929.069 531.106 904.932C501.92 880.795 489.245 849.649 477.046 819.749C465.418 791.083 454.47 764.19 429.955 743.781C405.44 723.372 377.372 718.177 347.842 712.894C316.806 707.127 284.681 701.131 255.495 676.994C226.31 652.857 213.635 621.712 201.435 591.811C189.808 563.146 178.859 536.252 154.345 515.843C152.976 514.711 150.546 512.105 148.034 509.46C144.15 505.37 143.106 498.475 146.177 493.744L146.582 493.12Z" fill="#FFDD74"/>
<path d="M147.487 424.309C148.688 418.976 153.959 415.563 159.224 417.031C178.847 422.505 197.288 431.913 213.472 444.751C242.657 468.888 255.284 500.039 267.483 529.939C279.111 558.604 290.107 585.493 314.58 605.957C339.052 626.42 367.157 631.511 396.693 636.844C427.776 642.605 459.902 648.601 489.087 672.738C518.273 696.875 530.9 728.026 543.099 757.926C554.727 786.591 565.723 813.48 590.19 833.894C614.657 854.309 642.773 859.498 672.303 864.781C703.78 870.599 735.907 877.044 765.07 900.984C780.899 914.577 793.912 931.27 803.366 950.048C805.761 954.806 803.638 960.51 798.86 962.865L796.506 964.025C791.365 966.559 785.18 964.243 782.532 959.16C774.586 943.906 763.908 930.289 751.036 919.049C726.33 898.661 698.411 893.5 668.875 888.167C637.834 882.351 605.714 876.405 576.529 852.268C547.343 828.131 534.716 796.98 522.517 767.08C510.889 738.414 499.893 711.526 475.426 691.111C450.959 670.697 422.843 665.507 393.265 660.229C362.048 654.134 329.874 648.143 300.641 624.011C271.408 599.879 258.828 568.723 246.629 538.823C235.002 510.157 224.005 483.269 199.538 462.855C186.028 452.276 170.723 444.46 154.459 439.794C149.073 438.249 145.559 432.875 146.789 427.408L147.487 424.309Z" fill="#FFDD74"/>
<path d="M140.763 355.517C141.971 350.168 147.266 346.769 152.653 347.792C157.383 348.691 162.282 349.592 166.094 350.348C198.585 355.893 229.132 370.178 254.642 391.757C283.827 415.894 296.454 447.045 308.653 476.945C320.281 505.61 331.277 532.499 355.744 552.913C380.211 573.327 408.327 578.517 437.857 583.8C468.941 589.561 501.066 595.557 530.252 619.694C559.437 643.832 572.064 674.982 584.263 704.883C595.891 733.548 606.887 760.437 631.354 780.851C655.821 801.265 683.937 806.455 713.467 811.738C744.551 817.499 776.628 823.5 805.814 847.637C834.999 871.775 847.674 902.92 859.873 932.82C861.234 936.18 862.593 939.525 863.979 942.861C866.072 947.901 863.855 953.733 858.896 956.01L856.495 957.112C851.409 959.447 845.396 957.154 843.257 951.983C841.843 948.566 840.456 945.139 839.067 941.699C827.392 913.039 816.443 886.145 791.971 865.682C767.498 845.218 739.393 840.127 709.81 834.8C678.769 828.984 646.649 823.038 617.464 798.9C588.278 774.763 575.651 743.612 563.452 713.712C551.824 685.047 540.828 658.158 516.355 637.694C491.883 617.231 463.965 612.519 434.301 606.901C403.218 601.14 371.092 595.144 341.907 571.007C312.721 546.869 300.094 515.719 287.895 485.818C276.267 457.153 265.271 430.264 240.804 409.85C217.871 390.598 190.456 377.881 161.324 372.983C157.461 372.25 152.615 371.337 147.906 370.437C142.383 369.382 138.856 363.96 140.095 358.475L140.763 355.517Z" fill="#FFDD74"/>
<path d="M133.293 292.741C135.776 287.533 142.132 285.534 147.405 287.874C165.037 295.698 183.758 299.119 203.416 302.865C234.472 308.38 266.599 314.824 295.81 338.759C325.022 362.694 337.623 394.047 349.822 423.947C361.45 452.613 372.446 479.501 396.913 499.916C421.38 520.33 449.544 525.514 479.191 530.984C510.275 536.745 542.4 542.741 571.586 566.878C600.771 591.015 613.398 622.166 625.598 652.066C637.225 680.732 648.221 707.62 672.689 728.035C697.156 748.449 725.272 753.639 754.802 758.922C785.885 764.683 818.011 770.679 847.196 794.816C876.381 818.953 889.009 850.104 901.208 880.004C909.099 899.362 916.606 917.834 928.239 934.125C931.369 938.509 930.977 944.617 926.975 948.224L925.059 949.952C920.855 953.74 914.322 953.304 911 948.723C897.333 929.881 888.884 909.058 880.832 888.836C869.204 860.17 858.208 833.282 833.736 812.818C809.263 792.354 781.158 787.263 751.575 781.936C720.539 776.17 688.419 770.223 659.234 746.086C630.048 721.949 617.421 690.798 605.222 660.898C593.594 632.232 582.598 605.344 558.125 584.88C533.653 564.417 505.548 559.326 476.012 553.993C444.924 548.183 412.803 542.236 383.618 518.099C354.433 493.962 341.805 462.811 329.606 432.911C317.978 404.245 306.982 377.357 282.515 356.942C258.048 336.528 229.932 331.339 200.402 326.055C179.202 322.09 157.389 318.038 136.356 308.116C131.583 305.865 129.774 300.122 132.045 295.358L133.293 292.741Z" fill="#FFDD74"/>
<path d="M113.365 187.344C118.343 184.089 125.027 185.908 128.519 190.722C137.635 203.291 149.888 212.021 160.819 219.718C189.251 239.646 214.995 244.397 244.594 249.873C275.63 255.639 307.756 261.635 336.941 285.772C366.127 309.909 378.754 341.06 390.953 370.96C402.581 399.626 413.577 426.514 438.044 446.929C462.511 467.343 490.627 472.532 520.205 477.81C551.453 483.753 583.605 489.546 612.86 513.875C642.115 538.205 654.673 569.163 666.872 599.064C678.5 627.729 689.496 654.618 713.963 675.032C738.43 695.446 766.546 700.636 796.076 705.919C827.159 711.68 859.285 717.676 888.471 741.813C917.656 765.95 930.283 797.101 942.483 827.001C954.11 855.667 965.106 882.555 989.573 902.97C1000.66 911.895 1013.11 918.8 1026.39 923.408C1031.62 925.226 1034.86 930.665 1033.46 936.025L1032.66 939.067C1031.27 944.399 1025.81 947.631 1020.58 945.883C1004.29 940.431 989.021 932.045 975.497 921.089C946.311 896.952 933.684 865.801 921.485 835.901C909.857 807.236 898.861 780.347 874.388 759.884C849.916 739.42 821.811 734.329 792.275 728.996C761.192 723.235 729.072 717.289 699.886 693.152C670.701 669.015 658.074 637.864 645.874 607.963C634.247 579.298 623.251 552.41 598.778 531.946C574.305 511.482 546.2 506.391 516.665 501.059C485.576 495.248 453.456 489.302 424.27 465.165C395.085 441.028 382.458 409.877 370.259 379.976C358.631 351.311 347.635 324.423 323.162 303.959C298.69 283.495 270.585 278.404 241.049 273.072C209.966 267.311 177.84 261.315 148.655 237.178C135.391 226.208 120.949 216.121 110.362 200.066C107.542 195.788 109.077 190.148 113.365 187.344Z" fill="#FFDD74"/>
<path d="M103.244 19.6936C107 15.3436 113.672 15.0308 117.475 19.3397C136.373 40.7488 146.509 65.6568 156.336 89.8454C167.963 118.511 178.959 145.399 203.427 165.814C227.894 186.228 256.009 191.417 285.587 196.695C316.623 202.462 348.749 208.458 377.934 232.595C407.119 256.732 419.747 287.883 431.946 317.783C443.573 346.449 454.57 373.337 479.037 393.751C503.504 414.166 531.62 419.355 561.198 424.633C592.233 430.4 624.359 436.395 653.544 460.533C682.73 484.67 695.357 515.82 707.556 545.721C719.184 574.386 730.18 601.275 754.647 621.689C779.114 642.103 807.23 647.293 836.76 652.576C867.843 658.337 899.969 664.333 929.155 688.47C958.34 712.607 970.967 743.758 983.166 773.658C994.794 802.324 1005.79 829.212 1030.26 849.627C1054.72 870.041 1083.53 875.754 1113.17 881.224C1138.46 885.903 1164.51 890.741 1189.14 905.5C1193.75 908.265 1194.9 914.323 1191.97 918.836L1190.45 921.185C1187.36 925.938 1180.97 927.141 1176.05 924.336C1155.47 912.61 1133.07 908.475 1109.35 904.104C1078.32 898.338 1046.2 892.391 1017.01 868.254C987.826 844.117 975.198 812.966 962.999 783.066C951.372 754.4 940.375 727.512 915.903 707.048C891.43 686.584 863.325 681.494 833.79 676.161C802.706 670.4 770.586 664.454 741.401 640.316C712.215 616.179 699.588 585.028 687.389 555.128C675.761 526.463 664.765 499.574 640.293 479.111C615.82 458.647 587.715 453.556 558.18 448.223C527.096 442.462 494.976 436.516 465.79 412.379C436.605 388.241 423.978 357.091 411.779 327.19C400.151 298.525 389.155 271.636 364.682 251.173C340.21 230.709 312.105 225.618 282.569 220.286C251.481 214.475 219.408 208.523 190.223 184.386C161.037 160.249 148.362 129.104 136.163 99.2034C126.786 76.0901 117.843 54.1482 101.798 35.6736C98.3343 31.6847 98.0432 25.716 101.496 21.7175L103.244 19.6936Z" fill="#FFDD74"/>
<path d="M93.6788 -64.1225C95.3561 -69.3574 100.961 -72.291 106.076 -70.2772C119.533 -64.979 132.155 -57.5853 143.493 -48.3386C172.678 -24.2013 185.306 6.94941 197.505 36.8497C209.18 65.51 220.128 92.4036 244.596 112.818C269.063 133.232 297.179 138.422 326.757 143.7C357.792 149.466 389.918 155.462 419.103 179.599C448.289 203.736 460.916 234.887 473.115 264.787C484.743 293.453 495.739 320.341 520.206 340.756C544.673 361.17 572.789 366.36 602.319 371.643C633.402 377.404 665.528 383.4 694.713 407.537C723.899 431.674 736.526 462.825 748.725 492.725C760.353 521.391 771.349 548.279 795.816 568.693C820.283 589.108 848.399 594.297 877.929 599.581C909.013 605.342 941.133 611.288 970.324 635.475C999.514 659.661 1012.14 690.763 1024.34 720.663C1035.96 749.328 1046.96 776.217 1071.43 796.631C1095.89 817.046 1124.01 822.235 1153.54 827.518C1185.43 833.989 1217.6 839.931 1246.83 864.063C1258.15 873.58 1267.98 884.82 1275.97 897.374C1278.87 901.917 1277.22 907.864 1272.6 910.619L1270.3 911.986C1265.42 914.893 1259.13 913.127 1256.01 908.382C1249.54 898.554 1241.69 889.74 1232.71 882.237C1208.05 861.844 1180.13 856.633 1150.6 851.35C1119.51 845.589 1087.39 839.642 1058.21 815.505C1029.02 791.368 1016.39 760.217 1004.2 730.317C992.568 701.651 981.566 674.714 957.099 654.299C932.632 633.885 904.516 628.695 874.986 623.412C843.903 617.651 811.782 611.704 782.597 587.567C753.412 563.43 740.784 532.279 728.585 502.379C716.958 473.713 705.961 446.825 681.489 426.361C657.016 405.898 628.911 400.807 599.376 395.474C568.292 389.713 536.172 383.767 506.987 359.63C477.801 335.492 465.174 304.342 452.975 274.441C441.347 245.776 430.351 218.887 405.879 198.424C381.406 177.96 353.301 172.869 323.766 167.537C292.682 161.775 260.61 155.824 231.424 131.687C202.239 107.549 189.564 76.4039 177.365 46.5036C165.737 17.838 154.741 -9.05038 130.268 -29.514C120.943 -38.0353 110.461 -45.0748 99.1739 -50.4146C94.3765 -52.6844 91.7442 -58.0849 93.3636 -63.139L93.6788 -64.1225Z" fill="#FFDD74"/>
<path d="M87.7703 -133.893C88.0428 -136.11 90.1285 -137.639 92.3255 -137.231C123.361 -131.465 155.487 -125.469 184.672 -101.332C213.857 -77.195 226.485 -46.0442 238.684 -16.1439C250.359 12.5164 261.308 39.4101 285.775 59.8244C310.242 80.2387 338.406 85.4229 367.936 90.7063C398.971 96.4726 431.097 102.468 460.282 126.606C489.468 150.743 502.095 181.894 514.294 211.794C525.922 240.459 536.918 267.348 561.385 287.762C585.852 308.176 613.968 313.366 643.546 318.644C674.581 324.41 706.707 330.406 735.893 354.543C765.078 378.68 777.705 409.831 789.904 439.732C801.532 468.397 812.528 495.286 836.995 515.7C861.463 536.114 889.578 541.304 919.108 546.587C950.192 552.348 982.312 558.295 1011.5 582.432C1040.68 606.569 1053.31 637.72 1065.51 667.669C1077.14 696.335 1088.14 723.223 1112.61 743.638C1137.07 764.052 1165.19 769.241 1194.72 774.525C1226.65 780.991 1258.77 786.937 1287.98 811.271C1317.19 835.606 1329.79 866.559 1341.99 896.46C1342.85 898.399 1341.95 900.661 1340 901.493L1326.67 907.183C1324.51 908.104 1322.02 907.072 1321.14 904.895C1309.51 876.229 1298.51 849.341 1274.05 828.926C1249.58 808.512 1221.46 803.322 1191.93 798.039C1160.85 792.278 1128.73 786.332 1099.55 762.194C1070.36 738.057 1057.73 706.906 1045.53 677.006C1033.91 648.341 1022.9 621.403 998.437 600.989C973.97 580.574 945.854 575.385 916.324 570.101C885.241 564.34 853.12 558.394 823.935 534.257C794.75 510.12 782.122 478.969 769.923 449.069C758.296 420.403 747.299 393.515 722.827 373.051C698.354 352.587 670.249 347.496 640.714 342.164C609.63 336.403 577.558 330.451 548.372 306.314C519.187 282.177 506.512 251.031 494.313 221.131C482.685 192.465 471.689 165.577 447.216 145.113C422.744 124.649 394.639 119.559 365.103 114.226C334.02 108.465 301.948 102.513 272.762 78.376C243.577 54.2388 230.902 23.0933 218.703 -6.80699C207.075 -35.4726 196.079 -62.361 171.606 -82.8246C147.134 -103.288 119.029 -108.379 89.4931 -113.712C87.1812 -114.16 85.6104 -116.321 85.8977 -118.658L87.7703 -133.893Z" fill="#FFDD74"/>
<path d="M78.4689 -190.423C79.8961 -196.322 86.2205 -199.604 92.0798 -198.021C105.376 -194.429 119.793 -192.808 133.491 -190.226C164.526 -184.46 196.652 -178.464 225.837 -154.327C255.023 -130.19 267.65 -99.0388 279.849 -69.1386C291.525 -40.4783 302.473 -13.5846 326.94 6.82973C351.407 27.2441 379.571 32.4283 409.101 37.7116C440.136 43.4781 472.262 49.4739 501.448 73.611C530.633 97.7482 543.26 128.899 555.459 158.799C567.135 187.46 578.083 214.353 602.55 234.768C627.017 255.182 655.133 260.371 684.711 265.649C715.747 271.416 747.867 277.362 777.058 301.549C806.248 325.735 818.87 356.837 831.069 386.737C842.697 415.403 853.693 442.291 878.16 462.705C902.627 483.12 930.743 488.309 960.321 493.587C991.357 499.354 1023.48 505.3 1052.66 529.437C1081.85 553.574 1094.47 584.725 1106.68 614.675C1118.31 643.34 1129.3 670.229 1153.77 690.643C1178.24 711.058 1206.35 716.247 1235.93 721.525C1266.97 727.291 1299.09 733.238 1328.27 757.375C1357.46 781.512 1370.09 812.663 1382.28 842.563C1387.59 856.559 1393.94 870.112 1401.27 883.103C1403.9 887.759 1402.6 893.695 1398.17 896.676L1395.98 898.147C1391.23 901.334 1384.77 899.91 1381.99 894.919C1374.34 881.208 1367.72 866.914 1362.19 852.163C1350.56 823.497 1339.56 796.609 1315.1 776.194C1290.63 755.78 1262.51 750.591 1232.98 745.307C1201.9 739.546 1169.78 733.6 1140.59 709.462C1111.41 685.325 1098.78 654.174 1086.58 624.274C1074.95 595.609 1063.95 568.671 1039.49 548.257C1015.02 527.842 986.903 522.653 957.373 517.369C926.289 511.608 894.169 505.662 864.984 481.525C835.798 457.387 823.171 426.237 810.972 396.336C799.344 367.671 788.343 340.733 763.875 320.319C739.408 299.904 711.292 294.715 681.762 289.432C650.679 283.67 618.607 277.719 589.421 253.582C560.236 229.444 547.561 198.299 535.362 168.399C523.734 139.733 512.738 112.845 488.265 92.381C463.793 71.9174 435.688 66.8265 406.152 61.4938C375.069 55.7327 342.997 49.781 313.811 25.6438C284.626 1.50664 271.951 -29.639 259.752 -59.5392C248.124 -88.2048 237.176 -115.098 212.655 -135.557C188.135 -156.015 160.078 -161.111 130.542 -166.444C114.948 -168.879 99.5608 -172.573 84.5228 -177.492C79.674 -179.078 76.9543 -184.163 78.1539 -189.121L78.4689 -190.423Z" fill="#FFDD74"/>
<path d="M67.9098 -280.085C71.5842 -283.513 77.2327 -283.683 81.1056 -280.48L84.9857 -277.271C109.698 -256.833 145.321 -248.527 174.873 -243.047C205.791 -237.467 237.821 -231.461 267.198 -207.345C296.574 -183.229 309.01 -152.057 321.257 -122.162C332.885 -93.4963 343.833 -66.6026 368.348 -46.1935C392.863 -25.7844 420.979 -20.595 450.509 -15.3117C481.545 -9.54532 513.67 -3.54959 542.856 20.5876C572.041 44.7247 584.668 75.8755 596.868 105.776C608.543 134.436 619.491 161.33 643.959 181.744C668.426 202.158 696.589 207.343 726.119 212.626C757.155 218.392 789.275 224.339 818.461 248.476C847.646 272.613 860.273 303.764 872.478 333.713C884.153 362.374 895.102 389.267 919.569 409.682C944.036 430.096 972.152 435.286 1001.73 440.564C1032.77 446.33 1064.89 452.276 1094.07 476.414C1123.26 500.551 1135.88 531.701 1148.09 561.651C1159.72 590.317 1170.71 617.205 1195.18 637.619C1219.65 658.034 1247.76 663.223 1277.34 668.501C1308.38 674.268 1340.5 680.214 1369.68 704.351C1398.87 728.488 1411.49 759.639 1423.69 789.539C1435.32 818.205 1446.32 845.143 1470.79 865.557C1473.72 867.976 1476.76 870.235 1479.91 872.327C1484.29 875.235 1486.19 880.855 1484 885.63L1482.63 888.605C1480.2 893.887 1473.77 896.018 1468.92 892.812C1464.99 890.209 1461.18 887.397 1457.52 884.387C1428.33 860.25 1415.7 829.099 1403.5 799.149C1391.87 770.484 1380.88 743.595 1356.41 723.181C1331.94 702.767 1303.83 697.577 1274.3 692.294C1243.01 686.455 1210.88 680.41 1181.69 656.273C1152.51 632.136 1139.88 600.985 1127.68 571.035C1116.05 542.37 1105.05 515.481 1080.59 495.067C1056.12 474.653 1028 469.463 998.472 464.18C967.389 458.419 935.317 452.467 906.131 428.33C876.946 404.193 864.271 373.047 852.072 343.147C840.444 314.482 829.442 287.544 804.975 267.13C780.508 246.715 752.392 241.526 722.862 236.242C691.779 230.481 659.706 224.53 630.521 200.392C601.336 176.255 588.66 145.11 576.461 115.209C564.834 86.5439 553.832 59.6062 529.365 39.1919C504.898 18.7776 476.787 13.6374 447.252 8.30479C416.168 2.54369 384.096 -3.40804 354.911 -27.5451C325.725 -51.6823 313.05 -82.828 300.851 -112.728C289.223 -141.394 278.275 -168.287 253.754 -188.746C229.234 -209.204 201.177 -214.3 171.642 -219.633C140.606 -225.399 106.234 -230.249 77.0761 -254.14C72.9152 -256.969 68.9111 -260.032 65.0818 -263.314C60.7824 -266.998 60.9132 -273.555 65.0529 -277.419L67.9098 -280.085Z" fill="#FFDD74"/>
<path d="M68.6914 -418.076C73.8238 -420.767 80.1554 -418.543 82.3733 -413.189C83.722 -409.933 85.0544 -406.664 86.3987 -403.396C98.0263 -374.73 108.975 -347.836 133.49 -327.427C158.005 -307.018 186.121 -301.829 215.651 -296.545C246.686 -290.779 278.812 -284.783 307.997 -260.646C337.183 -236.509 349.81 -205.358 362.057 -175.463C373.684 -146.798 384.633 -119.904 409.148 -99.4948C433.663 -79.0857 461.779 -73.8962 491.309 -68.6129C522.344 -62.8464 554.465 -56.9001 583.65 -32.7629C612.835 -8.6257 625.463 22.525 637.667 52.4746C649.343 81.135 660.291 108.029 684.758 128.443C709.225 148.857 737.879 154.537 767.51 159.859C798.546 165.625 830.666 171.572 859.852 195.709C889.037 219.846 901.664 250.997 913.869 280.946C925.544 309.607 936.493 336.5 960.96 356.915C985.427 377.329 1013.54 382.518 1043.12 387.796C1074.16 393.563 1106.28 399.509 1135.46 423.647C1164.65 447.784 1177.27 478.934 1189.48 508.884C1201.11 537.55 1212.1 564.438 1236.57 584.852C1261.04 605.267 1289.15 610.456 1318.73 615.734C1349.77 621.501 1381.89 627.447 1411.07 651.584C1440.26 675.721 1452.89 706.872 1465.08 736.773C1476.71 765.438 1487.71 792.376 1512.18 812.79C1536.65 833.205 1564.76 838.394 1594.29 843.677C1597.96 844.348 1601.63 845.019 1605.3 845.721C1610.57 846.731 1614 851.798 1613.09 857.089L1612.44 860.846C1611.48 866.45 1606.04 870.127 1600.46 869.056C1597.26 868.443 1594.07 867.852 1590.89 867.26C1559.8 861.499 1527.68 855.553 1498.5 831.416C1469.31 807.278 1456.69 776.128 1444.48 746.178C1432.85 717.512 1421.86 690.624 1397.39 670.21C1372.92 649.795 1344.81 644.606 1315.28 639.323C1284.36 633.343 1252.05 627.418 1222.96 603.27C1193.87 579.122 1181.15 547.982 1168.94 518.032C1157.32 489.367 1146.32 462.478 1121.85 442.064C1097.39 421.65 1069.27 416.46 1039.74 411.177C1008.66 405.416 976.585 399.464 947.399 375.327C918.214 351.19 905.539 320.044 893.334 290.095C881.707 261.429 870.711 234.541 846.243 214.126C821.776 193.712 793.66 188.523 764.13 183.239C733.047 177.478 700.975 171.526 671.789 147.389C642.604 123.252 629.929 92.1064 617.729 62.2062C606.102 33.5406 595.148 6.59756 570.633 -13.8115C546.118 -34.2206 518.05 -39.4153 488.52 -44.6986C457.485 -50.465 425.364 -56.4115 396.179 -80.5486C366.993 -104.686 354.318 -135.831 342.119 -165.732C330.491 -194.397 319.543 -221.291 295.023 -241.749C270.502 -262.208 242.445 -267.304 212.91 -272.636C181.874 -278.403 149.754 -284.349 120.568 -308.486C91.3831 -332.623 78.7079 -363.769 66.5087 -393.669C65.0899 -397.173 63.671 -400.676 62.2225 -404.16C60.2026 -409.019 62.1689 -414.655 66.8287 -417.099L68.6914 -418.076Z" fill="#FFDD74"/>
<path d="M129.157 -424.364C134.334 -427.238 140.835 -424.989 143.595 -419.75C151.527 -404.695 162.131 -391.255 174.884 -380.149C199.543 -359.756 227.467 -354.546 256.997 -349.262C288.033 -343.496 320.159 -337.5 349.344 -313.363C378.529 -289.226 391.205 -258.08 403.404 -228.18C415.031 -199.515 425.98 -172.621 450.495 -152.212C475.01 -131.803 503.125 -126.613 532.656 -121.33C563.691 -115.564 595.811 -109.617 624.997 -85.48C654.182 -61.3428 666.809 -30.192 679.062 -0.247637C690.689 28.4179 701.638 55.3115 726.153 75.7206C750.668 96.1297 778.784 101.319 808.314 106.602C839.349 112.369 871.469 118.315 900.655 142.452C929.84 166.59 942.467 197.74 954.672 227.69C966.347 256.35 977.296 283.244 1001.76 303.658C1026.23 324.073 1054.39 329.257 1083.92 334.54C1114.96 340.307 1147.08 346.253 1176.27 370.39C1205.45 394.527 1218.08 425.678 1230.28 455.578C1241.95 484.239 1252.91 511.182 1277.37 531.596C1301.84 552.01 1329.96 557.2 1359.53 562.478C1390.57 568.244 1422.69 574.191 1451.88 598.328C1481.06 622.465 1493.69 653.616 1505.89 683.516C1517.51 712.182 1528.52 739.119 1552.98 759.534C1566.66 770.55 1582.26 778.682 1598.88 783.503C1604.23 785.055 1607.73 790.386 1606.53 795.827L1605.89 798.754C1604.71 804.098 1599.45 807.539 1594.18 806.087C1574.54 800.682 1556.08 791.333 1539.88 778.545C1510.67 754.211 1498.06 723.257 1485.84 693.16C1474.22 664.494 1463.22 637.606 1438.75 617.191C1414.28 596.777 1386.17 591.587 1356.64 586.304C1325.56 580.543 1293.48 574.591 1264.3 550.454C1235.11 526.317 1222.44 495.171 1210.23 465.222C1198.6 436.556 1187.61 409.668 1163.14 389.254C1138.67 368.839 1110.56 363.65 1081.03 358.366C1049.95 352.605 1017.87 346.654 988.687 322.516C959.502 298.379 946.827 267.234 934.622 237.284C922.995 208.619 912.046 181.725 887.531 161.316C863.016 140.907 834.948 135.712 805.418 130.429C774.383 124.662 742.262 118.716 713.077 94.5787C683.892 70.4415 671.217 39.296 659.017 9.39573C647.39 -19.2698 636.436 -46.2128 611.921 -66.6219C587.406 -87.0309 559.338 -92.2257 529.808 -97.509C498.773 -103.275 466.652 -109.222 437.467 -133.359C408.281 -157.496 395.606 -188.642 383.407 -218.542C371.78 -247.208 360.826 -274.151 336.311 -294.56C311.796 -314.969 283.733 -320.114 254.198 -325.447C223.162 -331.213 191.042 -337.159 161.857 -361.297C145.908 -375.005 132.82 -391.856 123.349 -410.817C121.053 -415.414 122.955 -420.923 127.448 -423.416L129.157 -424.364Z" fill="#FFDD74"/>
<path d="M200.587 -432.68C204.361 -437.134 211.064 -437.335 215.572 -433.625C215.71 -433.512 215.848 -433.399 215.986 -433.287C240.645 -412.893 268.569 -407.683 298.099 -402.399C329.135 -396.633 361.255 -390.687 390.44 -366.549C419.626 -342.412 432.301 -311.267 444.505 -281.317C456.133 -252.652 467.081 -225.758 491.596 -205.349C516.111 -184.94 544.179 -179.745 573.709 -174.462C604.745 -168.695 636.865 -162.749 666.05 -138.612C695.236 -114.474 707.863 -83.3237 720.116 -53.3794C731.743 -24.7138 742.691 2.17993 767.206 22.589C791.721 42.9981 819.837 48.1876 849.367 53.4709C880.403 59.2373 912.523 65.1837 941.709 89.3209C970.894 113.458 983.521 144.609 995.726 174.558C1007.4 203.219 1018.35 230.112 1042.82 250.527C1067.28 270.941 1095.45 276.125 1124.98 281.409C1156.01 287.175 1188.13 293.122 1217.32 317.259C1246.5 341.396 1259.13 372.547 1271.33 402.447C1283.01 431.107 1293.96 458.05 1318.43 478.465C1342.89 498.879 1371.86 504.773 1401.51 510.243C1432.48 515.867 1464.62 521.961 1493.8 546.098C1522.99 570.236 1535.62 601.386 1547.81 631.287C1559.44 659.952 1570.44 686.841 1594.91 707.304C1595.32 707.631 1595.73 707.955 1596.14 708.276C1600.47 711.65 1601.85 717.753 1598.91 722.39L1597.35 724.852C1594.34 729.612 1587.96 730.972 1583.57 727.43C1582.73 726.748 1581.89 726.054 1581.07 725.349C1551.83 701.217 1539.21 670.066 1527.01 640.166C1515.38 611.5 1504.38 584.612 1479.92 564.197C1455.45 543.783 1427.33 538.593 1397.8 533.31C1366.72 527.549 1334.65 521.597 1305.46 497.46C1276.28 473.323 1263.6 442.177 1251.4 412.228C1239.77 383.562 1228.77 356.674 1204.31 336.259C1179.84 315.845 1151.72 310.656 1122.19 305.372C1091.11 299.611 1059.04 293.659 1029.85 269.522C1000.67 245.385 987.992 214.24 975.788 184.29C964.16 155.624 953.212 128.731 928.697 108.322C904.182 87.9125 876.114 82.7177 846.584 77.4344C815.548 71.668 783.428 65.7216 754.243 41.5844C725.057 17.4472 712.382 -13.6982 700.178 -43.6478C688.55 -72.3134 677.602 -99.2072 653.087 -119.616C628.572 -140.025 600.504 -145.22 570.974 -150.503C539.938 -156.27 507.818 -162.216 478.633 -186.353C449.447 -210.491 436.772 -241.636 424.573 -271.536C412.945 -300.202 401.992 -327.145 377.477 -347.554C352.962 -367.963 324.846 -373.152 295.316 -378.436C264.28 -384.202 232.16 -390.149 202.975 -414.286C201.806 -415.252 200.651 -416.242 199.512 -417.252C195.63 -420.693 195.427 -426.591 198.781 -430.548L200.587 -432.68Z" fill="#FFDD74"/>
<path d="M325.684 -435.366C326.429 -441.072 331.823 -444.974 337.475 -443.895L340.654 -443.288C371.738 -437.527 403.81 -431.575 432.996 -407.438C462.181 -383.301 474.856 -352.156 487.061 -322.206C498.688 -293.541 509.637 -266.647 534.152 -246.238C558.667 -225.829 586.735 -220.634 616.265 -215.351C647.3 -209.584 679.42 -203.638 708.606 -179.501C737.791 -155.364 750.466 -124.218 762.671 -94.2684C774.298 -65.6029 785.247 -38.7091 809.762 -18.3C834.277 2.10898 862.393 7.29852 891.923 12.5818C922.958 18.3482 955.078 24.2945 984.264 48.4317C1013.45 72.5689 1026.08 103.72 1038.28 133.62C1049.95 162.28 1060.9 189.223 1085.37 209.638C1109.84 230.052 1138 235.236 1167.53 240.52C1198.57 246.286 1230.69 252.232 1259.87 276.369C1289.06 300.507 1301.69 331.657 1313.89 361.558C1325.56 390.218 1336.51 417.161 1360.98 437.575C1385.45 457.99 1413.61 463.125 1443.14 468.457C1475.08 474.923 1507.1 480.88 1536.48 504.996C1565.86 529.112 1578.09 560.207 1590.32 590.403C1590.85 591.666 1591.39 592.947 1591.93 594.239C1594.02 599.286 1591.7 605.101 1586.7 607.302L1584.33 608.344C1579.2 610.6 1573.23 608.198 1571.11 603.011C1570.57 601.705 1570.03 600.397 1569.49 599.084C1557.87 570.419 1546.87 543.53 1522.4 523.116C1497.94 502.702 1469.82 497.512 1440.29 492.229C1409.21 486.468 1377.13 480.516 1347.95 456.379C1318.76 432.242 1306.09 401.096 1293.88 371.147C1282.26 342.481 1271.31 315.587 1246.79 295.178C1222.28 274.769 1194.21 269.574 1164.68 264.291C1133.64 258.525 1101.52 252.578 1072.34 228.441C1043.15 204.304 1030.48 173.158 1018.27 143.209C1006.65 114.543 995.698 87.6496 971.183 67.2405C946.668 46.8314 918.6 41.6367 889.07 36.3534C858.034 30.587 825.914 24.6406 796.728 0.50337C767.543 -23.6338 754.868 -54.7794 742.663 -84.7289C731.036 -113.395 720.087 -140.288 695.572 -160.697C671.057 -181.106 642.989 -186.301 613.459 -191.584C582.424 -197.351 550.304 -203.297 521.118 -227.434C491.933 -251.572 479.306 -282.722 467.059 -312.617C455.431 -341.283 444.477 -368.226 419.962 -388.635C395.447 -409.044 367.332 -414.234 337.801 -419.517L333.238 -420.38C328.029 -421.365 324.495 -426.243 325.18 -431.499L325.684 -435.366Z" fill="#FFDD74"/>
<path d="M467.98 -462.501C471.423 -467.159 478.121 -467.947 482.219 -463.853C504.938 -441.159 516.115 -413.726 527.165 -387.091C538.792 -358.425 549.741 -331.531 574.256 -311.122C598.771 -290.713 626.839 -285.519 656.369 -280.235C687.404 -274.469 719.525 -268.522 748.71 -244.385C777.895 -220.248 790.57 -189.102 802.77 -159.202C814.397 -130.537 825.351 -103.594 849.866 -83.1845C874.381 -62.7755 902.449 -57.5807 931.979 -52.2974C963.015 -46.531 995.135 -40.5846 1024.32 -16.4474C1053.51 7.68981 1066.13 38.8407 1078.38 68.7357C1090.01 97.4013 1100.96 124.344 1125.48 144.753C1149.99 165.162 1178.11 170.352 1207.64 175.635C1238.67 181.402 1270.79 187.348 1299.98 211.485C1329.16 235.622 1341.79 266.773 1353.99 296.674C1365.67 325.334 1376.61 352.228 1401.09 372.691C1425.56 393.155 1453.71 398.24 1483.25 403.573C1511.04 408.747 1539.73 414.07 1566.49 432.667C1570.92 435.746 1571.65 441.891 1568.39 446.196L1566.6 448.567C1563.21 453.058 1556.8 453.821 1552.08 450.745C1530.21 436.478 1505.81 431.946 1479.94 427.146C1448.85 421.384 1416.78 415.383 1387.59 391.246C1358.4 367.109 1345.73 335.963 1333.53 306.063C1321.9 277.398 1310.95 250.504 1286.44 230.095C1261.92 209.686 1233.86 204.491 1204.33 199.208C1173.29 193.441 1141.17 187.495 1111.99 163.358C1082.8 139.22 1070.12 108.075 1057.92 78.1253C1046.29 49.4597 1035.34 22.5661 1010.83 2.15696C986.314 -18.2521 958.246 -23.4468 928.716 -28.7302C897.681 -34.4966 865.561 -40.443 836.375 -64.5802C807.19 -88.7174 794.515 -119.863 782.31 -149.813C770.682 -178.478 759.734 -205.372 735.219 -225.781C710.704 -246.19 682.588 -251.379 653.058 -256.663C622.023 -262.429 589.902 -268.376 560.717 -292.513C531.532 -316.65 518.904 -347.801 506.652 -377.745C496.396 -402.974 486.628 -426.968 467.496 -446.183C463.778 -449.917 463.046 -455.826 466.178 -460.063L467.98 -462.501Z" fill="#FFDD74"/>
</g>
</svg>
