<svg width="646" height="445" viewBox="0 0 646 445" fill="none" xmlns="http://www.w3.org/2000/svg">
<mask id="mask0" mask-type="alpha" maskUnits="userSpaceOnUse" x="-437" y="0" width="1083" height="1083">
<circle cx="104.24" cy="541.24" r="490" transform="rotate(-83.6433 104.24 541.24)" fill="#C4C4C4"/>
</mask>
<g mask="url(#mask0)">
<path d="M623.834 -835.937C627.281 -831.318 626.129 -824.715 621.076 -821.943C596.033 -808.204 569.555 -803.762 543.769 -799.473C513.249 -794.352 484.611 -789.554 459.338 -770.146C434.064 -750.739 422.843 -724.393 411.226 -696.734C398.808 -667.713 385.977 -637.672 356.039 -614.475C326.1 -591.279 292.941 -585.774 261.047 -580.419C230.526 -575.298 201.889 -570.499 176.615 -551.092C151.342 -531.685 140.121 -505.338 128.504 -477.68C116.086 -448.658 103.255 -418.618 73.3165 -395.421C43.378 -372.225 10.219 -366.72 -21.6753 -361.364C-52.1958 -356.243 -80.8335 -351.445 -106.107 -332.038C-131.38 -312.631 -142.602 -286.284 -154.219 -258.626C-166.636 -229.604 -179.467 -199.563 -209.406 -176.367C-239.344 -153.17 -272.503 -147.666 -304.398 -142.31C-334.918 -137.189 -363.556 -132.391 -388.829 -112.984C-414.103 -93.5766 -425.319 -67.2777 -436.941 -39.5715C-447.078 -15.867 -457.544 8.59327 -477.463 29.4594C-481.072 33.2402 -487.027 33.1655 -490.832 29.5821L-493.074 27.4706C-497.316 23.4759 -497.223 16.7353 -493.315 12.4132C-477.543 -5.03092 -468.63 -25.8296 -459.299 -47.6785C-446.876 -76.7479 -434.045 -106.789 -404.107 -129.985C-374.168 -153.182 -341.009 -158.686 -309.115 -164.042C-278.6 -169.115 -249.957 -173.961 -224.683 -193.368C-199.41 -212.775 -188.194 -239.074 -176.577 -266.733C-164.154 -295.802 -151.328 -325.795 -121.39 -348.992C-91.4511 -372.188 -58.2868 -377.741 -26.3925 -383.096C4.12274 -388.169 32.7657 -393.015 58.0392 -412.422C83.3126 -431.83 94.5286 -458.129 106.146 -485.787C118.569 -514.856 131.394 -544.849 161.333 -568.046C191.271 -591.242 224.435 -596.795 256.281 -602.156C286.796 -607.229 315.483 -612.022 340.761 -631.477C366.04 -650.932 377.251 -677.183 388.868 -704.841C401.286 -733.863 414.116 -763.904 444.055 -787.1C473.993 -810.297 507.158 -815.849 539.003 -821.21C563.618 -825.304 586.994 -829.231 608.539 -840.855C613.178 -843.357 619.051 -842.348 622.203 -838.123L623.834 -835.937Z" fill="#FFDD74"/>
<path d="M1036.1 -782.051C1004.16 -776.701 971.099 -771.185 941.16 -747.989C911.222 -724.792 898.38 -694.656 885.973 -665.73C874.148 -637.998 862.964 -611.986 837.861 -592.318C812.758 -572.65 783.83 -567.932 753.43 -562.991C721.437 -557.647 688.376 -552.131 658.438 -528.935C628.499 -505.738 615.658 -475.602 603.251 -446.676C591.426 -418.944 580.242 -392.932 555.139 -373.264C530.036 -353.596 501.108 -348.878 470.707 -343.937C438.709 -338.545 405.649 -333.029 375.71 -309.833C345.772 -286.636 332.93 -256.5 320.523 -227.574C308.698 -199.842 297.514 -173.83 272.411 -154.162C247.308 -134.494 218.38 -129.776 187.98 -124.835C155.987 -119.491 122.97 -113.922 93.032 -90.7255C63.0934 -67.5291 50.2026 -37.3982 37.7955 -8.47226C25.9706 19.2597 14.7866 45.2718 -10.3109 64.8922C-35.4085 84.5126 -64.3473 89.3257 -94.7425 94.2187C-126.735 99.563 -159.752 105.132 -189.69 128.329C-190.571 129.011 -191.434 129.695 -192.282 130.384C-194.242 131.98 -194.383 134.874 -192.789 136.836C-191.675 138.207 -189.889 138.868 -188.153 138.545C-181.339 137.277 -174.374 136.872 -167.434 137.344C-167.065 137.385 -166.697 137.426 -166.33 137.467C-164.197 137.705 -162.05 137.237 -160.165 136.211C-138.674 124.513 -115.123 120.547 -90.7796 116.447C-58.8306 111.049 -25.7702 105.534 4.16826 82.3371C34.1068 59.1406 46.9483 29.0043 59.3554 0.0783134C71.2296 -27.6482 82.3642 -53.6656 107.467 -73.3339C132.57 -93.0021 161.498 -97.7196 191.948 -102.655C223.892 -108.005 256.957 -113.568 286.896 -136.765C316.834 -159.961 329.676 -190.098 342.083 -219.023C353.908 -246.755 365.092 -272.768 390.189 -292.388C415.287 -312.008 444.226 -316.821 474.67 -321.709C506.614 -327.059 539.68 -332.623 569.618 -355.819C599.557 -379.015 612.398 -409.152 624.805 -438.078C636.63 -465.81 647.814 -491.822 672.912 -511.442C698.009 -531.062 726.948 -535.876 757.343 -540.768C789.336 -546.113 822.402 -551.677 852.34 -574.873C882.279 -598.069 895.12 -628.206 907.528 -657.132C919.352 -684.864 930.536 -710.876 955.634 -730.496C980.732 -750.117 1009.67 -754.93 1040.07 -759.823C1043.73 -760.426 1047.4 -761.043 1051.07 -761.687C1056.58 -762.656 1060.13 -768.027 1058.96 -773.503L1058.42 -776.043C1057.28 -781.377 1052.08 -784.818 1046.71 -783.877C1043.19 -783.261 1039.65 -782.663 1036.1 -782.051Z" fill="#FFDD74"/>
<path d="M983.862 -696.216C953.923 -673.02 941.082 -642.883 928.675 -613.957C916.85 -586.225 905.666 -560.213 880.563 -540.545C855.46 -520.877 826.532 -516.159 796.131 -511.219C764.138 -505.874 731.078 -500.358 701.14 -477.162C671.201 -453.965 658.36 -423.829 645.953 -394.903C634.128 -367.171 622.944 -341.159 597.841 -321.491C572.738 -301.823 543.81 -297.105 513.409 -292.164C481.411 -286.772 448.4 -281.251 418.461 -258.054C388.523 -234.858 375.632 -204.727 363.225 -175.801C351.4 -148.069 340.216 -122.057 315.113 -102.389C290.01 -82.7206 261.082 -78.0031 230.682 -73.0624C198.689 -67.7181 165.672 -62.1488 135.734 -38.9523C105.795 -15.7559 92.9046 14.3749 80.4975 43.3008C68.6727 71.0328 57.4886 97.0449 32.3911 116.665C23.9171 123.257 16.6208 129.478 8.72188 134.425C5.08829 136.701 6.06581 144.87 9.65823 147.21C9.83766 147.327 10.0935 147.476 10.2883 147.565C11.2083 147.985 12.1165 148.429 13.012 148.896C15.9669 150.436 19.4673 150.805 22.4735 149.367C31.1392 145.222 39.3255 140.191 46.8929 134.355C76.8314 111.158 89.6729 81.022 102.08 52.0961C113.954 24.3696 125.089 -1.64799 150.186 -21.2684C175.284 -40.8889 204.272 -45.6965 234.667 -50.5894C266.611 -55.9392 299.677 -61.5029 329.615 -84.6993C359.554 -107.896 372.395 -138.032 384.802 -166.958C396.676 -194.685 407.811 -220.702 432.909 -240.323C458.006 -259.943 486.945 -264.756 517.389 -269.644C549.333 -274.993 582.399 -280.557 612.337 -303.754C642.276 -326.95 655.117 -357.086 667.524 -386.012C679.349 -413.744 690.533 -439.756 715.631 -459.377C740.728 -478.997 769.667 -483.81 800.112 -488.698C832.055 -494.048 865.121 -499.611 895.059 -522.808C924.998 -546.004 937.839 -576.141 950.247 -605.066C962.071 -632.798 973.255 -658.811 998.353 -678.431C1012.18 -688.602 1027.86 -696.088 1044.56 -700.519C1050.09 -701.988 1053.71 -707.508 1052.37 -713.076L1051.77 -715.58C1050.52 -720.759 1045.43 -724.085 1040.26 -722.798C1019.82 -717.707 1000.64 -708.679 983.862 -696.216Z" fill="#FFDD74"/>
<path d="M1026.56 -644.443C996.624 -621.246 983.783 -591.11 971.376 -562.184C959.551 -534.452 948.367 -508.44 923.264 -488.772C898.161 -469.103 869.233 -464.386 838.832 -459.445C806.839 -454.101 773.828 -448.579 743.89 -425.383C713.951 -402.186 701.061 -372.056 688.654 -343.13C676.829 -315.398 665.645 -289.386 640.542 -269.717C615.439 -250.049 586.511 -245.332 556.11 -240.391C524.117 -235.047 491.106 -229.525 461.168 -206.329C431.229 -183.132 418.338 -153.001 405.931 -124.076C394.106 -96.3435 382.922 -70.3314 357.82 -50.6631C332.717 -30.9949 303.789 -26.2774 273.388 -21.3367C241.39 -15.9445 208.379 -10.4232 178.44 12.7733C151.388 33.2262 130.456 60.3147 117.781 91.2755C105.956 119.008 100.94 134.91 78.7616 165.071C78.3545 165.644 77.9377 166.209 77.5113 166.767C73.4747 172.048 75.6983 181.769 81.4291 185.138C81.5022 185.18 81.5752 185.224 81.6481 185.267C84.4627 186.941 88.9143 188.253 91.2142 185.922C119.73 156.224 129.947 130.831 142.365 101.809C154.19 74.0771 166.898 50.5104 192.193 30.9119C217.488 11.3134 246.279 6.48386 276.674 1.59094C308.618 -3.75889 341.683 -9.32253 371.622 -32.519C401.56 -55.7155 414.402 -85.8519 426.809 -114.778C438.683 -142.504 449.818 -168.522 474.915 -188.142C500.013 -207.763 529.001 -212.57 559.396 -217.463C591.34 -222.813 624.406 -228.377 654.344 -251.573C684.283 -274.77 697.124 -304.906 709.531 -333.832C721.356 -361.564 732.54 -387.576 757.638 -407.197C782.735 -426.817 811.674 -431.63 842.118 -436.518C874.062 -441.867 907.128 -447.431 937.066 -470.628C967.005 -493.824 979.846 -523.96 992.253 -552.886C1004.08 -580.618 1015.26 -606.63 1040.36 -626.251C1040.63 -626.463 1040.91 -626.675 1041.19 -626.885C1045.7 -630.306 1047.09 -636.658 1043.93 -641.353L1042.44 -643.552C1039.36 -648.12 1033.14 -649.371 1028.72 -646.079C1028 -645.543 1027.28 -644.996 1026.56 -644.443Z" fill="#FFDD74"/>
<path d="M1014.07 -510.371C1002.25 -482.639 991.064 -456.627 965.967 -437.007C940.869 -417.386 911.936 -412.621 881.535 -407.68C849.542 -402.336 816.531 -396.815 786.593 -373.618C756.654 -350.422 743.763 -320.291 731.356 -291.365C719.531 -263.633 708.347 -237.621 683.245 -217.953C658.142 -198.284 628.699 -193.431 598.173 -188.262C566.18 -182.917 533.169 -177.396 503.231 -154.2C473.292 -131.003 460.402 -100.872 447.994 -71.9464C436.169 -44.2144 425.035 -18.1969 399.883 1.4658C374.73 21.1285 345.852 25.8515 315.451 30.7922C283.639 36.302 250.431 41.8014 220.542 65.0034C190.653 88.2053 177.713 118.331 165.305 147.257C157.899 164.614 150.711 181.345 140.147 196.272C137.453 200.079 138.311 205.434 141.899 208.414C145.862 211.705 151.998 211.151 155.372 207.258C158.517 203.63 162.04 200.319 165.891 197.379C167.073 196.476 168.084 195.362 168.797 194.057C175.531 181.724 181.554 169.035 186.839 156.046C198.664 128.314 209.798 102.297 234.945 82.6819C260.092 63.067 289.031 58.2539 319.426 53.361C351.37 48.0112 384.435 42.4474 414.374 19.2509C444.312 -3.94551 457.154 -34.0819 469.561 -63.0078C481.435 -90.7343 492.57 -116.752 517.667 -136.372C542.765 -155.993 571.753 -160.8 602.148 -165.693C634.092 -171.043 667.158 -176.607 697.096 -199.803C727.035 -223 739.876 -253.136 752.283 -282.062C764.157 -309.788 775.292 -335.806 800.39 -355.426C825.487 -375.047 854.426 -379.86 884.87 -384.747C916.814 -390.097 949.874 -395.613 979.813 -418.809C1009.75 -442.006 1022.59 -472.142 1035.01 -501.116L1036.48 -504.51C1038.7 -509.609 1036.33 -515.538 1031.21 -517.706L1028.47 -518.867C1023.32 -521.047 1017.39 -518.586 1015.3 -513.404L1014.07 -510.371Z" fill="#FFDD74"/>
<path d="M924.018 -355.739C892.025 -350.395 859.014 -344.873 829.076 -321.677C799.137 -298.48 786.247 -268.349 773.84 -239.424C762.015 -211.692 750.825 -185.632 725.728 -166.011C700.63 -146.391 671.697 -141.626 641.296 -136.685C609.352 -131.335 576.292 -125.819 546.354 -102.623C516.415 -79.4262 503.524 -49.2953 491.117 -20.3693C479.292 7.36267 468.158 33.3801 443.006 53.0429C417.853 72.7057 388.975 77.4286 358.574 82.3693C326.63 87.7192 293.57 93.2351 263.631 116.432C245.418 129.525 230.702 146.595 220.632 166.229C218.712 169.972 217.011 180.593 221.204 180.939C224.345 181.15 226.508 180.838 228.577 180.708C233.085 180.426 237.913 179.27 240.553 175.606C253.15 158.122 261.676 146.851 278.331 134.143C303.68 114.502 332.416 109.715 362.811 104.822C394.755 99.4723 427.821 93.9085 457.759 70.712C487.698 47.5156 500.539 17.3792 512.946 -11.5468C524.82 -39.2733 535.955 -65.2907 561.053 -84.9111C586.15 -104.532 615.138 -109.339 645.534 -114.232C677.477 -119.582 710.543 -125.146 740.481 -148.342C770.42 -171.539 783.261 -201.675 795.669 -230.601C807.543 -258.327 818.677 -284.345 843.775 -303.965C868.872 -323.586 897.811 -328.399 928.256 -333.286C956.693 -338.058 986.047 -342.967 1013.37 -360.549C1018.11 -363.597 1018.89 -370.068 1015.36 -374.461L1013.52 -376.76C1010.14 -380.967 1004.06 -381.695 999.481 -378.848C976.363 -364.483 950.808 -360.256 924.018 -355.739Z" fill="#FFDD74"/>
<path d="M966.721 -303.967C934.728 -298.623 901.717 -293.101 871.779 -269.905C841.84 -246.708 828.95 -216.577 816.542 -187.651C804.717 -159.919 793.577 -133.854 768.431 -114.239C743.284 -94.6241 714.4 -89.8534 683.999 -84.9126C652.055 -79.5628 618.995 -74.0469 589.056 -50.8504C559.118 -27.6539 546.227 2.47696 533.82 31.4029C521.995 59.1349 510.855 85.2002 485.708 104.815C460.561 124.43 431.677 129.201 401.276 134.142C369.333 139.491 336.272 145.007 306.334 168.204C292.577 178.863 280.454 189.397 271.885 201.828C269.973 204.603 270.31 208.283 272.185 211.082C276.298 217.223 287.548 218.115 292.23 212.398C300.097 202.792 309.815 194.398 320.802 185.744C346.097 166.146 374.839 161.311 405.234 156.418C437.178 151.068 470.243 145.504 500.182 122.308C530.12 99.1114 542.962 68.9752 555.369 40.0492C567.243 12.3227 578.378 -13.6949 603.476 -33.3153C628.573 -52.9357 657.561 -57.7434 687.956 -62.6363C719.9 -67.9861 752.961 -73.502 782.899 -96.6985C812.838 -119.895 825.679 -150.031 838.091 -179.005C849.966 -206.732 861.1 -232.749 886.198 -252.37C911.296 -271.99 940.284 -276.798 970.679 -281.691C979.952 -283.241 989.451 -284.846 998.956 -286.905C1004.44 -288.092 1007.67 -293.689 1006.16 -299.092L1005.45 -301.629C1003.98 -306.878 998.581 -309.975 993.252 -308.83C984.663 -306.985 975.869 -305.52 966.721 -303.967Z" fill="#FFDD74"/>
<path d="M916.564 -213.55C886.626 -190.354 873.735 -160.223 861.328 -131.297C849.503 -103.565 838.363 -77.4995 813.216 -57.8846C788.069 -38.2696 759.18 -33.451 728.784 -28.5581C696.841 -23.2083 663.78 -17.6924 633.842 5.50407C603.903 28.7005 591.062 58.8368 578.606 87.7572C566.781 115.489 553.88 140.777 528.585 160.376C503.291 179.974 479.062 193.591 448.661 198.532C416.717 203.882 380.84 201.531 350.901 224.727C346.302 228.292 350.098 234.896 355.785 233.665C365.797 231.498 375.952 229.955 386.188 229.048C387.336 228.946 388.459 228.653 389.515 228.191C408.411 219.923 428.666 216.522 449.599 212.968C481.542 207.618 514.603 202.102 544.546 178.857C574.49 155.613 587.376 125.53 599.783 96.6041C611.608 68.8722 622.742 42.8547 647.889 23.2398C673.036 3.62484 701.926 -1.19376 732.321 -6.08666C764.265 -11.4365 797.325 -16.9524 827.263 -40.1489C857.202 -63.3453 870.093 -93.4763 882.505 -122.45C894.33 -150.182 905.465 -176.199 930.611 -195.814C950.134 -210.94 971.829 -217.203 992.956 -221.385C998.437 -222.47 1002.08 -227.74 1001.01 -233.226L1000.52 -235.775C999.476 -241.146 994.307 -244.703 988.941 -243.631C965.931 -239.031 939.978 -231.691 916.564 -213.55Z" fill="#FFDD74"/>
<path d="M666.861 -799.458C641.561 -779.811 612.825 -775.024 582.381 -770.137C550.437 -764.787 517.371 -759.223 487.433 -736.027C457.494 -712.83 444.653 -682.694 432.245 -653.768C420.421 -626.036 409.237 -600.024 384.139 -580.404C359.041 -560.783 330.103 -555.97 299.658 -551.083C267.714 -545.733 234.649 -540.169 204.71 -516.973C174.772 -493.776 161.93 -463.64 149.523 -434.714C137.698 -406.982 126.514 -380.97 101.417 -361.35C76.3192 -341.729 47.3804 -336.916 16.9851 -332.023C-15.4169 -326.144 -48.5319 -320.585 -78.5037 -297.538C-108.476 -274.49 -121.284 -244.205 -133.691 -215.279C-145.516 -187.547 -156.7 -161.535 -181.797 -141.915C-206.895 -122.294 -235.834 -117.481 -266.229 -112.588C-298.222 -107.244 -331.288 -101.68 -361.226 -78.4837C-391.165 -55.2873 -404.006 -25.1509 -416.413 3.77501C-426.006 26.1755 -435.174 47.5522 -451.776 65.3042C-456.525 70.3818 -456.287 80.3729 -452.149 85.96C-449.262 89.8595 -443.775 90.1454 -440.37 86.6885C-419.042 65.0363 -405.352 36.8917 -394.929 12.5591C-383.104 -15.1728 -371.915 -41.2326 -346.818 -60.853C-321.72 -80.4735 -292.787 -85.2387 -262.386 -90.1795C-230.393 -95.5238 -197.333 -101.04 -167.394 -124.236C-137.456 -147.433 -124.614 -177.569 -112.207 -206.495C-100.382 -234.227 -89.1981 -260.239 -64.0952 -279.907C-38.9923 -299.575 -10.0642 -304.293 20.3364 -309.233C52.3294 -314.578 85.3897 -320.094 115.328 -343.29C145.267 -366.487 158.108 -396.623 170.515 -425.549C182.34 -453.281 193.524 -479.293 218.627 -498.961C243.73 -518.629 272.658 -523.347 303.059 -528.288C335.052 -533.632 368.112 -539.148 398.051 -562.344C427.989 -585.541 440.831 -615.677 453.238 -644.603C465.063 -672.335 476.247 -698.347 501.349 -718.015C526.452 -737.683 555.38 -742.401 585.781 -747.342C617.774 -752.686 650.84 -758.25 680.778 -781.446C692.217 -790.463 702.153 -801.109 710.259 -813.011C713.394 -817.613 711.686 -823.807 706.837 -826.545L704.158 -828.058C699.35 -830.772 693.287 -829.047 690.163 -824.495C683.712 -815.098 675.866 -806.659 666.861 -799.458Z" fill="#FFDD74"/>
<path d="M-437.997 81.228C-438.249 82.7738 -438.873 84.2377 -439.847 85.4645C-446.498 93.8441 -454.159 101.422 -462.669 108.038C-469.298 113.174 -476.407 117.689 -483.901 121.527C-488.69 123.979 -494.443 121.759 -496.732 116.889L-497.825 114.561C-500.234 109.435 -497.884 103.37 -492.896 100.687C-487.421 97.7428 -482.203 94.3619 -477.296 90.5765C-473.986 88.0029 -466.052 80.2264 -457.67 71.6367C-450.755 64.5514 -436.407 71.4566 -437.997 81.228Z" fill="#FFDD74"/>
<path d="M757.868 -821.034C746.043 -793.302 734.859 -767.29 709.756 -747.621C684.653 -727.953 655.725 -723.236 625.275 -718.3C593.332 -712.951 560.266 -707.387 530.327 -684.19C500.389 -660.994 487.547 -630.858 475.14 -601.932C463.315 -574.2 452.131 -548.188 427.034 -528.567C401.936 -508.947 372.997 -504.134 342.602 -499.241C310.609 -493.897 277.543 -488.333 247.605 -465.136C217.666 -441.94 204.825 -411.804 192.418 -382.878C180.593 -355.146 169.409 -329.134 144.311 -309.513C119.214 -289.893 90.275 -285.08 59.8798 -280.187C27.8868 -274.843 -5.17894 -269.279 -35.1175 -246.082C-65.056 -222.886 -77.8975 -192.749 -90.3046 -163.824C-102.129 -136.092 -113.313 -110.08 -138.411 -90.4592C-163.509 -70.8388 -192.447 -66.0257 -222.843 -61.1328C-254.836 -55.7885 -287.852 -50.2192 -317.791 -27.0227C-347.729 -3.82627 -360.62 26.3046 -373.027 55.2306C-376.947 65.2857 -381.465 75.1021 -386.557 84.6311C-390.113 91.2867 -384.453 100.014 -376.922 100.501C-376.714 100.512 -376.505 100.525 -376.297 100.538C-372.022 100.813 -367.804 98.8311 -365.843 95.0215C-360.608 84.8482 -355.831 74.4551 -351.527 63.8712C-339.702 36.1392 -328.518 10.1273 -303.415 -9.54098C-278.312 -29.2092 -249.384 -33.9267 -218.934 -38.8619C-186.991 -44.2117 -153.93 -49.7276 -123.992 -72.9241C-94.0533 -96.1205 -81.2118 -126.257 -68.8046 -155.183C-56.9798 -182.915 -45.7958 -208.927 -20.6929 -228.595C4.40996 -248.263 33.3381 -252.981 63.7387 -257.921C95.7316 -263.266 128.792 -268.782 158.731 -291.978C188.669 -315.175 201.511 -345.311 213.918 -374.237C225.743 -401.969 236.927 -427.981 262.029 -447.649C287.132 -467.317 316.061 -472.035 346.461 -476.976C378.459 -482.368 411.52 -487.884 441.458 -511.08C471.397 -534.277 484.238 -564.413 496.645 -593.339C508.47 -621.071 519.654 -647.083 544.752 -666.703C569.849 -686.324 598.788 -691.137 629.184 -696.03C661.177 -701.374 694.242 -706.938 724.181 -730.134C754.119 -753.331 766.961 -783.467 779.368 -812.393C780.259 -814.477 779.273 -816.888 777.176 -817.75L763.492 -823.377C761.292 -824.282 758.775 -823.233 757.868 -821.034Z" fill="#FFDD74"/>
<path d="M-368.653 76.1697C-363.499 78.3287 -361.092 84.3011 -363.448 89.368C-373.241 110.43 -386.319 133.075 -409.666 151.126C-433.222 169.339 -459.126 176.832 -482.597 181.388C-487.926 182.422 -493.035 178.881 -494.081 173.554L-494.6 170.908C-495.678 165.416 -492.036 160.132 -486.54 159.077C-465.324 155.006 -443.327 149.11 -424.223 133.479C-404.992 117.744 -394.185 98.4747 -384.842 79.6233C-382.486 74.8688 -376.859 72.732 -371.965 74.7822L-368.653 76.1697Z" fill="#FFDD74"/>
<path d="M800.569 -769.261C788.744 -741.529 777.56 -715.517 752.457 -695.849C727.354 -676.181 698.426 -671.463 668.025 -666.523C636.027 -661.13 602.967 -655.615 573.028 -632.418C543.09 -609.222 530.248 -579.085 517.841 -550.159C506.016 -522.427 494.832 -496.415 469.735 -476.795C444.637 -457.174 415.698 -452.361 385.303 -447.468C353.31 -442.124 320.245 -436.56 290.306 -413.364C260.368 -390.167 247.526 -360.031 235.119 -331.105C223.294 -303.373 212.11 -277.361 187.013 -257.741C161.915 -238.12 132.976 -233.307 102.581 -228.414C70.588 -223.07 37.5223 -217.506 7.58377 -194.31C-22.3547 -171.113 -35.1962 -140.977 -47.6033 -112.051C-59.4282 -84.3187 -70.6122 -58.3068 -95.7097 -38.6863C-120.807 -19.0658 -149.746 -14.2528 -180.141 -9.35986C-212.134 -4.01553 -245.151 1.55377 -275.089 24.7502C-305.028 47.9467 -317.918 78.0776 -330.326 107.004C-331.088 108.797 -331.851 110.59 -332.617 112.373C-334.278 116.24 -333.28 120.73 -330.446 123.841C-325.058 129.757 -314.644 129.272 -311.477 121.924C-310.593 119.874 -309.717 117.828 -308.842 115.788C-296.967 88.0613 -285.833 62.0437 -260.73 42.3755C-235.627 22.7072 -206.699 17.9897 -176.249 13.0545C-144.305 7.70465 -111.245 2.18874 -81.3065 -21.0077C-51.368 -44.2042 -38.5266 -74.3405 -26.1194 -103.266C-14.2946 -130.998 -3.11055 -157.011 21.9923 -176.679C47.0952 -196.347 76.0233 -201.065 106.424 -206.005C138.422 -211.397 171.483 -216.913 201.421 -240.11C231.36 -263.306 244.201 -293.443 256.608 -322.369C268.433 -350.101 279.617 -376.113 304.72 -395.781C329.823 -415.449 358.751 -420.166 389.151 -425.107C421.144 -430.452 454.21 -436.015 484.149 -459.212C514.087 -482.408 526.929 -512.545 539.336 -541.471C551.161 -569.203 562.345 -595.215 587.442 -614.835C612.54 -634.456 641.478 -639.269 671.874 -644.162C703.867 -649.506 736.932 -655.07 766.871 -678.266C796.809 -701.463 809.651 -731.599 822.058 -760.525C827.158 -773.613 833.265 -786.299 840.326 -798.478C843.079 -803.227 841.726 -809.352 837.104 -812.314L834.448 -814.016C829.778 -817.009 823.548 -815.638 820.744 -810.851C812.935 -797.519 806.189 -783.616 800.569 -769.261Z" fill="#FFDD74"/>
<path d="M-309.296 90.3805C-304.252 92.8979 -302.294 99.0811 -304.742 104.159C-308.402 111.751 -311.749 119.557 -315.207 127.669C-327.63 156.738 -340.504 186.726 -370.443 209.922C-400.381 233.119 -433.546 238.671 -465.391 244.032C-474.58 245.558 -483.418 247.046 -492.107 248.909C-497.419 250.048 -502.791 246.952 -504.253 241.719L-505.005 239.028C-506.503 233.669 -503.339 228.105 -497.903 226.916C-488.408 224.838 -478.915 223.33 -469.502 221.787C-438.981 216.666 -410.344 211.868 -385.021 192.466C-359.698 173.064 -348.581 146.754 -336.909 119.054C-333.271 110.545 -329.554 101.828 -325.353 93.2117C-322.984 88.3521 -317.091 86.4895 -312.254 88.9039L-309.296 90.3805Z" fill="#FFDD74"/>
<path d="M898.459 -799.756C868.521 -776.56 855.679 -746.424 843.272 -717.498C831.447 -689.766 820.263 -663.754 795.16 -644.085C770.058 -624.417 741.13 -619.7 710.729 -614.759C678.736 -609.415 645.676 -603.899 615.737 -580.702C585.799 -557.506 572.957 -527.369 560.55 -498.444C548.725 -470.712 537.541 -444.699 512.444 -425.079C487.346 -405.459 458.407 -400.646 428.012 -395.753C396.019 -390.408 362.953 -384.844 333.015 -361.648C303.076 -338.452 290.235 -308.315 277.828 -279.389C266.003 -251.657 254.819 -225.645 229.721 -206.025C204.624 -186.404 175.685 -181.591 145.29 -176.698C113.297 -171.354 80.2804 -165.785 50.2925 -142.594C20.3047 -119.403 7.51255 -89.2612 -4.89458 -60.3353C-16.7194 -32.6033 -27.9035 -6.5912 -53.001 13.0292C-78.0985 32.6497 -107.037 37.4628 -137.433 42.3557C-169.426 47.7 -202.442 53.2693 -232.38 76.4657C-239.102 81.7319 -245.296 87.5771 -250.894 93.9227C-256.461 100.234 -250.486 109.728 -242.089 110.292C-241.726 110.308 -241.363 110.329 -241 110.355C-238.25 110.551 -235.438 109.983 -233.316 108.222C-227.448 103.353 -223.493 98.717 -217.845 94.3042C-192.551 74.7058 -163.814 69.9185 -133.364 64.9833C-101.421 59.6335 -68.3604 54.1176 -38.4219 30.9211C-8.48337 7.72465 4.35811 -22.4117 16.7652 -51.3376C28.6394 -79.0641 39.7741 -105.082 64.877 -124.75C89.9798 -144.418 118.908 -149.136 149.358 -154.071C181.307 -159.469 214.367 -164.984 244.306 -188.181C274.244 -211.377 287.086 -241.514 299.493 -270.44C311.318 -298.172 322.502 -324.184 347.599 -343.804C372.697 -363.424 401.636 -368.238 432.031 -373.131C464.024 -378.475 497.089 -384.039 527.028 -407.235C556.967 -430.431 569.808 -460.568 582.215 -489.494C594.04 -517.226 605.224 -543.238 630.322 -562.858C655.419 -582.479 684.358 -587.292 714.753 -592.185C746.746 -597.529 779.812 -603.093 809.75 -626.289C839.689 -649.486 852.53 -679.622 864.937 -708.548C876.762 -736.28 887.946 -762.292 913.044 -781.912C915.824 -784.061 918.705 -786.08 921.678 -787.965C926.439 -790.982 928.362 -797.155 925.641 -802.092L924.267 -804.584C921.667 -809.301 915.775 -811.144 911.155 -808.377C906.758 -805.743 902.519 -802.865 898.459 -799.756Z" fill="#FFDD74"/>
<path d="M-240.398 100.602C-236.874 104.914 -237.59 111.244 -241.605 115.103C-260.863 133.617 -270.708 156.61 -281.026 180.661C-293.45 209.731 -306.324 239.718 -336.263 262.914C-366.201 286.111 -399.366 291.664 -431.211 297.024C-457.953 301.492 -483.396 305.755 -506.255 320.065C-510.843 322.938 -516.956 322.223 -520.344 318.001L-522.137 315.766C-525.669 311.364 -524.877 304.878 -520.12 301.84C-492.909 284.457 -463.568 279.499 -435.048 274.568C-404.528 269.447 -375.89 264.649 -350.567 245.247C-325.245 225.845 -314.122 199.487 -302.456 171.835C-291.346 145.894 -279.894 119.11 -255.983 97.0987C-251.962 93.3975 -245.715 94.0957 -242.257 98.3271L-240.398 100.602Z" fill="#FFDD74"/>
<path d="M43.9274 123.529C47.8341 127.521 47.6111 133.832 43.2374 137.307C40.0204 139.862 36.74 142.393 34.9091 143.811C4.97052 167.008 -28.1938 172.561 -60.0388 177.922C-90.554 182.995 -119.192 187.793 -144.52 207.243C-169.848 226.692 -180.96 252.954 -192.626 280.607C-205.044 309.629 -217.875 339.669 -247.813 362.866C-277.752 386.062 -310.911 391.567 -342.761 396.976C-373.276 402.049 -401.914 406.847 -427.242 426.297C-452.57 445.746 -463.688 472.056 -475.354 499.709C-487.821 528.725 -500.652 558.766 -530.59 581.962C-531.655 582.787 -532.736 583.598 -533.83 584.394C-538.194 587.566 -544.242 586.26 -547.259 581.787L-548.895 579.361C-552.065 574.661 -550.663 568.304 -546.17 564.847C-545.908 564.646 -545.648 564.444 -545.388 564.24C-520.044 544.647 -508.898 518.534 -497.281 490.875C-484.864 461.854 -471.984 431.819 -442.045 408.622C-412.107 385.426 -378.942 379.873 -347.097 374.512C-316.582 369.439 -287.944 364.641 -262.666 345.186C-237.387 325.731 -226.176 299.48 -214.559 271.821C-202.141 242.8 -189.261 212.764 -159.323 189.568C-129.384 166.371 -96.2199 160.819 -64.3749 155.458C-33.8597 150.385 -5.22205 145.586 20.0567 126.131C21.4607 125.044 24.5352 123.243 27.666 121.371C32.5061 118.476 39.4627 118.966 43.407 122.997L43.9274 123.529Z" fill="#FFDD74"/>
<path d="M110.873 139.47C115.813 141.808 117.991 147.699 115.406 152.515C105.771 170.464 92.5554 186.399 76.4878 199.382C46.5493 222.578 13.3904 228.083 -18.4547 233.444C-48.9699 238.517 -77.6129 243.363 -102.936 262.765C-128.258 282.167 -139.376 308.477 -151.042 336.13C-163.465 365.199 -176.345 395.234 -206.284 418.431C-236.222 441.627 -269.381 447.132 -301.226 452.493C-331.741 457.566 -360.384 462.412 -385.658 481.819C-410.931 501.227 -422.147 527.526 -433.764 555.184C-446.329 584.625 -459.647 614.563 -489.389 637.781C-506.116 650.252 -525.251 659.297 -545.644 664.412C-550.81 665.709 -555.911 662.389 -557.164 657.212L-557.781 654.66C-559.128 649.09 -555.515 643.561 -549.976 642.09C-533.353 637.674 -517.729 630.235 -503.945 620.134C-478.645 600.488 -467.5 574.375 -455.833 546.722C-443.366 517.706 -430.535 487.665 -400.597 464.469C-370.658 441.272 -337.499 435.767 -305.654 430.406C-275.139 425.333 -246.496 420.487 -221.223 401.08C-195.949 381.673 -184.733 355.374 -173.111 327.668C-160.332 298.541 -147.447 268.458 -117.503 245.214C-87.5589 221.969 -54.4053 216.512 -22.5602 211.151C7.95495 206.078 36.598 201.232 61.8714 181.825C75.1504 170.957 86.126 157.733 94.2376 142.884C96.9237 137.967 102.937 135.714 108.001 138.111L110.873 139.47Z" fill="#FFDD74"/>
<path d="M179.47 147.961C184.425 150.31 186.583 156.22 184.405 161.253C182.493 165.671 180.543 170.255 178.97 173.808C166.45 204.299 145.827 230.98 119.19 251.15C89.251 274.346 56.092 279.851 24.247 285.212C-6.26823 290.285 -34.9112 295.131 -60.1846 314.538C-85.4581 333.945 -96.6741 360.244 -108.291 387.903C-120.714 416.972 -133.594 447.007 -163.533 470.204C-193.471 493.4 -226.63 498.905 -258.475 504.266C-288.991 509.339 -317.633 514.185 -342.907 533.592C-368.18 552.999 -379.396 579.298 -391.013 606.956C-403.436 636.026 -416.311 666.013 -446.25 689.21C-476.188 712.406 -509.353 717.959 -541.198 723.32C-544.773 723.912 -548.335 724.506 -551.894 725.128C-557.269 726.068 -562.475 722.629 -563.611 717.291L-564.161 714.707C-565.326 709.234 -561.773 703.869 -556.26 702.913C-552.616 702.281 -548.969 701.677 -545.308 701.075C-514.788 695.954 -486.15 691.155 -460.828 671.754C-435.505 652.352 -424.387 626.042 -412.716 598.342C-400.249 569.325 -387.418 539.285 -357.479 516.088C-327.541 492.892 -294.382 487.387 -262.537 482.026C-232.022 476.953 -203.379 472.107 -178.056 452.705C-152.733 433.304 -142.026 407.093 -130.053 379.378C-117.63 350.308 -104.75 320.273 -74.8117 297.077C-44.8732 273.88 -11.7143 268.375 20.1308 263.015C50.646 257.941 79.2889 253.095 104.562 233.688C128.366 215.524 146.773 191.556 157.927 164.202C159.488 160.592 161.44 156.063 163.348 151.666C165.586 146.508 171.649 144.253 176.73 146.662L179.47 147.961Z" fill="#FFDD74"/>
<path d="M242.358 154.408C246.896 157.971 247.457 164.61 244.019 169.244C232.526 184.736 225.092 202.255 217.135 220.617C204.959 249.713 191.64 279.651 161.894 302.918C132.147 326.184 98.7962 331.619 66.9511 336.98C36.4359 342.053 7.7929 346.899 -17.4806 366.306C-42.754 385.713 -53.9753 412.06 -65.8002 439.792C-78.2233 468.862 -91.1034 498.897 -121.042 522.093C-150.98 545.29 -184.139 550.795 -215.984 556.155C-246.5 561.229 -275.143 566.075 -300.416 585.482C-325.69 604.889 -336.906 631.188 -348.523 658.846C-360.946 687.916 -373.826 717.951 -403.764 741.147C-433.703 764.344 -466.862 769.849 -498.707 775.21C-519.322 778.674 -538.99 781.956 -557.431 789.743C-562.393 791.838 -568.268 790.118 -570.911 785.425L-572.178 783.176C-574.955 778.246 -573.1 771.967 -567.903 769.727C-546.527 760.515 -524.36 756.827 -502.866 753.395C-472.35 748.322 -443.707 743.476 -418.385 724.074C-393.062 704.672 -381.945 678.362 -370.273 650.662C-357.855 621.64 -345.024 591.599 -315.086 568.403C-285.147 545.207 -251.988 539.702 -220.143 534.341C-189.628 529.268 -160.985 524.422 -135.662 505.02C-110.34 485.618 -99.2222 459.308 -87.5559 431.655C-75.0835 402.592 -62.2527 372.551 -32.3141 349.354C-2.37559 326.158 30.7833 320.653 62.6284 315.292C93.1436 310.219 121.787 305.373 147.06 285.966C172.334 266.559 183.549 240.26 195.166 212.601C203.674 192.782 212.402 172.385 226.685 154.032C229.926 149.868 235.927 149.359 240.078 152.618L242.358 154.408Z" fill="#FFDD74"/>
<path d="M349.562 158.027C351.648 163.595 348.411 169.72 342.95 172.074C328.691 178.218 317.49 188.264 307.589 197.246C281.922 220.628 271.653 244.709 259.833 272.393C247.415 301.415 234.535 331.45 204.597 354.646C174.658 377.843 141.499 383.348 109.654 388.708C79.1388 393.782 50.4958 398.628 25.2223 418.035C-0.0511558 437.442 -11.2671 463.741 -22.8895 491.447C-35.5257 520.638 -48.214 550.743 -78.355 573.965C-108.496 597.188 -141.452 602.667 -173.298 608.028C-203.813 613.101 -232.456 617.947 -257.729 637.354C-283.003 656.761 -294.219 683.06 -305.836 710.719C-318.259 739.788 -331.139 769.823 -361.077 793.02C-391.016 816.216 -424.175 821.721 -456.02 827.082C-486.535 832.155 -515.178 837.001 -540.452 856.408C-551.587 865.274 -561.049 875.915 -568.45 887.856C-571.369 892.566 -577.385 894.539 -582.309 891.998L-585.103 890.556C-590 888.029 -591.96 881.994 -589.11 877.277C-580.226 862.573 -568.701 849.507 -555.052 838.708C-525.113 815.511 -491.954 810.006 -460.109 804.646C-429.594 799.572 -400.951 794.726 -375.629 775.325C-350.306 755.923 -339.188 729.613 -327.522 701.96C-315.099 672.891 -302.268 642.85 -272.33 619.654C-242.391 596.457 -209.232 590.952 -177.387 585.591C-146.872 580.518 -118.229 575.672 -92.9062 556.27C-67.5834 536.869 -56.4661 510.559 -44.7997 482.906C-32.3273 453.842 -19.4965 423.801 10.442 400.605C40.3805 377.408 73.5396 371.903 105.385 366.543C135.9 361.469 164.543 356.623 189.865 337.222C215.188 317.82 226.306 291.51 237.972 263.857C250.395 234.788 263.275 204.752 293.214 181.556C306.819 171.014 319.823 159.13 337.805 152.313C342.596 150.496 347.764 153.228 349.562 158.027Z" fill="#FFDD74"/>
<path d="M515.364 184.836C518.786 189.453 517.631 196.032 512.595 198.8C487.569 212.555 461.047 216.995 435.294 221.291C404.779 226.364 376.136 231.21 350.863 250.617C325.589 270.024 314.373 296.323 302.751 324.029C290.333 353.051 277.453 383.086 247.515 406.282C217.576 429.479 184.417 434.984 152.572 440.345C122.057 445.418 93.414 450.264 68.1406 469.671C42.8671 489.078 31.6511 515.377 20.0288 543.083C7.61103 572.105 -5.26914 602.14 -35.2076 625.337C-65.1461 648.533 -98.305 654.038 -130.15 659.399C-160.665 664.472 -189.308 669.318 -214.582 688.725C-239.855 708.132 -251.071 734.431 -262.688 762.09C-275.111 791.159 -287.991 821.194 -317.93 844.391C-347.868 867.587 -381.027 873.092 -412.872 878.453C-443.388 883.526 -472.031 888.372 -497.304 907.779C-522.577 927.187 -534.454 954.041 -546.279 981.773C-556.378 1005.42 -566.798 1029.78 -586.589 1050.58C-590.297 1054.48 -596.46 1054.28 -600.223 1050.43L-602.181 1048.43C-606.144 1044.38 -605.918 1037.88 -602.104 1033.69C-586.159 1016.17 -577.223 995.224 -567.768 973.037C-555.351 944.015 -542.52 913.975 -512.581 890.778C-482.643 867.582 -449.484 862.077 -417.639 856.716C-387.124 851.643 -358.481 846.797 -333.158 827.395C-307.835 807.993 -296.718 781.683 -285.051 754.031C-272.628 724.961 -259.798 694.92 -229.859 671.724C-199.921 648.528 -166.762 643.023 -134.917 637.662C-104.401 632.589 -75.7584 627.743 -50.4357 608.341C-25.1129 588.939 -13.9956 562.629 -2.32924 534.976C10.0938 505.907 22.9247 475.866 52.8632 452.67C82.8017 429.473 115.961 423.969 147.806 418.608C178.321 413.534 206.964 408.688 232.287 389.287C257.609 369.885 268.727 343.575 280.393 315.922C292.866 286.858 305.691 256.866 335.63 233.669C365.568 210.473 398.732 204.92 430.577 199.559C455.182 195.467 478.549 191.542 500.087 179.929C504.737 177.421 510.625 178.443 513.771 182.688L515.364 184.836Z" fill="#FFDD74"/>
<path d="M599.242 193.843C603.983 196.625 605.619 202.736 602.534 207.286C594.42 219.258 584.443 229.956 572.94 238.996C543.001 262.192 509.842 267.697 477.997 273.058C447.477 278.179 418.839 282.977 393.566 302.384C368.292 321.792 357.076 348.091 345.454 375.797C333.036 404.818 320.156 434.853 290.218 458.05C260.279 481.246 227.12 486.751 195.275 492.112C164.76 497.185 136.117 502.031 110.843 521.439C85.5701 540.846 74.354 567.145 62.737 594.803C50.3139 623.872 37.4338 653.908 7.49533 677.104C-22.4432 700.301 -55.6022 705.805 -87.4472 711.166C-117.962 716.239 -146.605 721.086 -171.879 740.493C-197.152 759.9 -208.368 786.199 -219.985 813.857C-232.408 842.927 -245.239 872.967 -275.227 896.158C-305.215 919.349 -338.325 924.86 -370.17 930.22C-400.685 935.294 -429.328 940.14 -454.601 959.547C-479.875 978.954 -491.091 1005.25 -502.708 1032.91C-516 1062.61 -528.836 1092.7 -558.78 1115.94C-570.545 1124.91 -583.662 1132.04 -597.662 1137.09C-602.727 1138.92 -608.17 1136.02 -609.847 1130.9L-610.678 1128.36C-612.446 1122.96 -609.348 1117.21 -604.034 1115.2C-593.029 1111.04 -582.711 1105.31 -573.424 1098.19C-548.129 1078.59 -536.935 1052.48 -525.318 1024.82C-512.894 995.755 -500.064 965.715 -470.125 942.518C-440.187 919.322 -407.028 913.817 -375.183 908.456C-344.667 903.383 -315.975 898.542 -290.702 879.135C-265.428 859.728 -254.212 833.429 -242.595 805.771C-230.172 776.701 -217.341 746.66 -187.403 723.464C-157.464 700.268 -124.305 694.763 -92.4602 689.402C-61.945 684.329 -33.302 679.483 -7.97924 660.081C17.3435 640.679 28.4608 614.369 40.1271 586.716C52.5502 557.647 65.3811 527.606 95.3196 504.41C125.258 481.213 158.417 475.708 190.262 470.348C220.777 465.274 249.42 460.428 274.743 441.027C300.066 421.625 311.183 395.315 322.849 367.662C335.273 338.593 348.098 308.6 378.037 285.404C407.975 262.207 441.139 256.654 472.984 251.294C503.5 246.22 532.143 241.374 557.465 221.973C567.821 214.738 576.983 206.05 584.663 196.205C587.928 192.021 593.774 190.634 598.351 193.32L599.242 193.843Z" fill="#FFDD74"/>
<path d="M668.614 203.345C670.718 204.096 671.753 206.466 670.875 208.52C658.457 237.542 645.577 267.577 615.638 290.773C585.7 313.97 552.541 319.475 520.696 324.836C490.175 329.957 461.538 334.755 436.264 354.162C410.991 373.569 399.77 399.916 388.153 427.574C375.735 456.596 362.855 486.631 332.916 509.827C302.978 533.024 269.819 538.529 237.974 543.89C207.458 548.963 178.815 553.809 153.542 573.216C128.269 592.623 117.053 618.922 105.43 646.628C93.0125 675.65 80.1323 705.685 50.1938 728.882C20.2553 752.078 -12.9036 757.583 -44.7487 762.944C-75.2639 768.017 -103.907 772.863 -129.18 792.27C-154.454 811.677 -165.67 837.976 -177.287 865.635C-189.71 894.704 -202.541 924.745 -232.479 947.941C-262.418 971.138 -295.577 976.643 -327.471 981.998C-357.986 987.071 -386.629 991.917 -411.903 1011.32C-437.176 1030.73 -448.392 1057.03 -460.009 1084.69C-473.306 1114.44 -486.137 1144.48 -516.273 1167.65C-546.409 1190.83 -579.37 1196.35 -611.215 1201.71C-613.294 1202.12 -615.306 1200.75 -615.691 1198.67L-618.325 1184.41C-618.752 1182.11 -617.199 1179.9 -614.882 1179.52C-584.367 1174.44 -555.724 1169.6 -530.451 1150.19C-505.177 1130.78 -493.961 1104.48 -482.344 1076.83C-469.921 1047.76 -457.09 1017.72 -427.152 994.52C-397.213 971.324 -364.055 965.819 -332.209 960.458C-301.694 955.385 -273.002 950.544 -247.729 931.137C-222.455 911.73 -211.239 885.431 -199.622 857.772C-187.199 828.703 -174.368 798.662 -144.43 775.466C-114.491 752.269 -81.3322 746.764 -49.4872 741.404C-18.9719 736.33 9.67103 731.484 34.9938 712.083C60.3165 692.681 71.434 666.371 83.1003 638.718C95.5234 609.649 108.349 579.656 138.287 556.459C168.226 533.263 201.39 527.71 233.235 522.349C263.75 517.276 292.393 512.43 317.716 493.028C343.039 473.627 354.156 447.317 365.823 419.664C378.246 390.595 391.071 360.602 421.01 337.405C450.948 314.209 484.112 308.656 515.958 303.295C546.473 298.222 575.116 293.376 600.438 273.974C625.761 254.573 636.879 228.263 648.545 200.61C649.488 198.452 651.94 197.392 654.158 198.184L668.614 203.345Z" fill="#FFDD74"/>
<path d="M725.809 206.638C731.253 209.321 733.072 216.211 730.245 221.582C723.831 233.77 719.094 247.483 713.577 260.283C701.16 289.305 688.279 319.34 658.341 342.537C628.402 365.733 595.244 371.238 563.399 376.599C532.878 381.72 504.24 386.518 478.967 405.925C453.693 425.332 442.472 451.679 430.855 479.337C418.437 508.359 405.557 538.394 375.619 561.591C345.68 584.787 312.521 590.292 280.676 595.653C250.156 600.774 221.518 605.572 196.245 624.979C170.971 644.386 159.755 670.685 148.133 698.391C135.715 727.413 122.884 757.454 92.8963 780.645C62.9085 803.836 29.7988 809.346 -2.04627 814.707C-32.5615 819.78 -61.2045 824.626 -86.4779 844.033C-111.751 863.44 -122.967 889.739 -134.59 917.445C-147.007 946.467 -159.838 976.508 -189.777 999.704C-219.715 1022.9 -252.874 1028.41 -284.769 1033.76C-315.284 1038.83 -343.927 1043.68 -369.2 1063.09C-394.474 1082.49 -405.69 1108.79 -417.312 1136.5C-429.73 1165.52 -442.561 1195.56 -472.499 1218.76C-502.438 1241.95 -535.597 1247.46 -567.442 1252.82C-582.259 1254.94 -596.873 1258.17 -611.153 1262.47C-616.272 1264.02 -621.781 1261.46 -623.719 1256.48L-624.675 1254.02C-626.746 1248.69 -623.943 1242.7 -618.464 1241.07C-603.411 1236.61 -588.015 1233.28 -572.411 1231.11C-541.895 1226.04 -513.252 1221.19 -487.979 1201.78C-462.706 1182.38 -451.49 1156.08 -439.873 1128.42C-427.449 1099.35 -414.619 1069.31 -384.68 1046.11C-354.742 1022.92 -321.583 1017.41 -289.738 1012.05C-259.222 1006.98 -230.53 1002.14 -205.257 982.729C-179.983 963.321 -168.767 937.023 -157.15 909.364C-144.727 880.295 -131.896 850.254 -101.958 827.058C-72.0192 803.861 -38.8603 798.356 -7.01522 792.996C23.5 787.922 52.1922 783.082 77.4657 763.675C102.739 744.268 113.955 717.969 125.572 690.31C137.995 661.241 150.821 631.248 180.759 608.052C210.698 584.855 243.862 579.302 275.707 573.942C306.222 568.868 334.865 564.022 360.188 544.621C385.511 525.219 396.628 498.909 408.295 471.256C420.718 442.187 433.543 412.194 463.482 388.998C493.42 365.801 526.585 360.249 558.43 354.888C588.945 349.815 617.582 345.016 642.91 325.567C668.238 306.117 679.351 279.855 691.017 252.202C696.805 237.519 703.777 223.313 711.867 209.716C714.476 205.331 720.032 203.79 724.608 206.046L725.809 206.638Z" fill="#FFDD74"/>
<path d="M815.609 215.955C818.151 220.29 817.08 225.839 813.107 228.917L809.127 232.001C783.777 251.642 767.878 284.584 756.063 312.221C743.853 341.169 730.984 371.108 701.024 394.496C671.064 417.884 637.927 423.198 606.076 428.606C575.561 433.679 546.924 438.478 521.645 457.933C496.366 477.388 485.15 503.687 473.533 531.345C461.115 560.367 448.235 590.402 418.297 613.598C388.358 636.795 355.199 642.3 323.354 647.66C292.834 652.781 264.196 657.58 238.922 676.987C213.649 696.394 202.428 722.741 190.811 750.399C178.393 779.421 165.562 809.461 135.624 832.658C105.685 855.854 72.5263 861.359 40.6319 866.715C10.1114 871.836 -18.5263 876.634 -43.7997 896.041C-69.0732 915.448 -80.2891 941.747 -91.9115 969.453C-104.329 998.475 -117.16 1028.52 -147.099 1051.71C-177.037 1074.91 -210.196 1080.41 -242.09 1085.77C-272.606 1090.84 -301.249 1095.69 -326.522 1115.1C-351.795 1134.5 -363.011 1160.8 -374.634 1188.51C-387.051 1217.53 -399.882 1247.57 -429.821 1270.77C-459.759 1293.96 -492.918 1299.47 -524.763 1304.83C-555.279 1309.9 -583.971 1314.74 -609.244 1334.15C-612.245 1336.48 -615.115 1338.95 -617.845 1341.57C-621.641 1345.2 -627.541 1345.83 -631.721 1342.64L-634.325 1340.66C-638.947 1337.13 -639.62 1330.4 -635.431 1326.37C-632.029 1323.09 -628.452 1319.99 -624.713 1317.08C-594.775 1293.88 -561.616 1288.38 -529.722 1283.02C-499.206 1277.95 -470.564 1273.1 -445.29 1253.7C-420.017 1234.29 -408.801 1207.99 -397.184 1180.33C-384.641 1151.08 -371.711 1121.05 -341.773 1097.85C-311.834 1074.66 -278.675 1069.15 -246.781 1063.8C-216.266 1058.73 -187.623 1053.88 -162.349 1034.47C-137.076 1015.06 -125.86 988.766 -114.243 961.107C-101.82 932.038 -88.9942 902.045 -59.0557 878.849C-29.1172 855.652 4.04705 850.099 35.8921 844.739C66.4073 839.665 95.0995 834.825 120.373 815.418C145.646 796.01 156.862 769.711 168.479 742.053C180.902 712.984 193.728 682.991 223.666 659.794C253.605 636.598 286.769 631.045 318.614 625.684C349.13 620.611 377.822 615.771 403.095 596.363C428.369 576.956 439.535 550.652 451.202 522.999C463.625 493.929 476.45 463.937 506.389 440.74C536.327 417.544 569.492 411.991 601.337 406.63C631.852 401.557 660.489 396.759 685.817 377.309C711.146 357.86 722.258 331.597 733.924 303.945C746.342 274.923 758.595 242.446 788.287 219.222C791.958 215.781 795.823 212.544 799.863 209.526C804.4 206.137 810.769 207.699 813.633 212.584L815.609 215.955Z" fill="#FFDD74"/>
<path d="M950.085 246.912C951.588 252.509 948.032 258.2 942.323 259.193C938.851 259.796 935.369 260.381 931.886 260.978C901.371 266.051 872.733 270.849 847.454 290.304C822.175 309.759 810.959 336.058 799.342 363.717C786.925 392.738 774.045 422.773 744.106 445.97C714.168 469.166 681.009 474.671 649.158 480.08C618.643 485.153 590.005 489.951 564.727 509.406C539.448 528.861 528.232 555.16 516.615 582.819C504.197 611.84 491.366 641.881 461.428 665.077C431.489 688.274 398.33 693.779 366.436 699.134C335.915 704.255 307.278 709.053 282.004 728.461C256.731 747.868 244.919 774.585 233.242 802.333C220.824 831.355 207.993 861.395 178.055 884.592C148.116 907.788 114.957 913.293 83.0631 918.648C52.5425 923.77 23.9049 928.568 -1.36855 947.975C-26.642 967.382 -37.858 993.681 -49.4803 1021.39C-61.8981 1050.41 -74.7289 1080.45 -104.667 1103.65C-134.606 1126.84 -167.765 1132.35 -199.659 1137.7C-230.174 1142.78 -258.817 1147.62 -284.091 1167.03C-309.364 1186.44 -320.58 1212.74 -332.203 1240.44C-344.62 1269.46 -357.451 1299.5 -387.39 1322.7C-417.328 1345.9 -450.487 1351.4 -482.332 1356.76C-512.848 1361.84 -541.54 1366.68 -566.813 1386.08C-592.087 1405.49 -603.303 1431.79 -614.92 1459.45C-616.377 1462.88 -617.834 1466.32 -619.322 1469.74C-621.461 1474.66 -627.156 1476.9 -632.119 1474.85L-635.644 1473.4C-640.901 1471.23 -643.299 1465.12 -641.032 1459.91C-639.734 1456.92 -638.46 1453.94 -637.186 1450.96C-624.763 1421.89 -611.932 1391.85 -581.993 1368.66C-552.055 1345.46 -518.896 1339.96 -487.002 1334.6C-456.486 1329.53 -427.843 1324.68 -402.57 1305.27C-377.296 1285.87 -366.081 1259.57 -354.464 1231.91C-341.864 1203.05 -329.012 1172.82 -299.084 1149.72C-269.157 1126.62 -235.987 1121.02 -204.093 1115.66C-173.577 1110.59 -144.934 1105.74 -119.661 1086.34C-94.3875 1066.93 -83.1715 1040.63 -71.5546 1012.97C-59.1314 983.904 -46.3059 953.911 -16.3674 930.714C13.5711 907.518 46.7355 901.965 78.6298 896.61C109.145 891.536 137.788 886.69 163.061 867.283C188.335 847.876 199.551 821.577 211.168 793.919C223.591 764.849 236.416 734.856 266.355 711.66C296.294 688.463 329.458 682.911 361.303 677.55C391.818 672.477 420.505 667.684 445.784 648.229C471.063 628.774 482.273 602.523 493.89 574.865C506.308 545.843 519.139 515.802 549.077 492.606C579.016 469.409 612.18 463.856 644.025 458.496C674.541 453.422 703.178 448.624 728.506 429.175C753.834 409.725 764.946 383.463 776.613 355.81C789.031 326.789 801.861 296.748 831.8 273.551C861.738 250.355 894.903 244.802 926.748 239.441C930.477 238.824 934.206 238.206 937.922 237.555C943.105 236.647 948.174 239.799 949.539 244.881L950.085 246.912Z" fill="#FFDD74"/>
<path d="M942.99 307.289C944.661 312.97 941.044 318.821 935.328 320.367C918.903 324.813 903.468 332.219 889.841 342.233C864.546 361.831 853.351 387.939 841.734 415.598C829.316 444.619 816.436 474.654 786.498 497.851C756.559 521.047 723.395 526.6 691.55 531.961C661.035 537.034 632.397 541.832 607.119 561.287C581.84 580.742 570.624 607.041 559.007 634.699C546.589 663.721 533.758 693.762 503.82 716.958C473.881 740.155 440.722 745.66 408.822 751.063C378.307 756.136 349.67 760.934 324.391 780.389C299.112 799.844 287.896 826.143 276.279 853.801C263.861 882.823 251.031 912.864 221.092 936.06C191.154 959.257 157.995 964.762 126.1 970.117C95.5797 975.238 66.942 980.036 41.6686 999.443C16.3951 1018.85 5.17383 1045.2 -6.44317 1072.86C-18.861 1101.88 -31.6918 1131.92 -61.6303 1155.11C-91.5688 1178.31 -124.728 1183.82 -156.573 1189.18C-187.093 1194.3 -215.78 1199.09 -241.054 1218.5C-266.327 1237.9 -277.543 1264.2 -289.165 1291.91C-301.583 1320.93 -314.414 1350.97 -344.353 1374.17C-374.291 1397.36 -407.45 1402.87 -439.295 1408.23C-469.81 1413.3 -498.503 1418.14 -523.776 1437.55C-537.517 1448.49 -548.866 1461.93 -557.207 1477.09C-559.892 1481.97 -565.86 1484.22 -570.907 1481.86L-573.622 1480.59C-578.58 1478.28 -580.786 1472.39 -578.214 1467.56C-568.645 1449.59 -555.484 1433.62 -539.458 1420.6C-509.323 1397.43 -476.361 1391.9 -444.319 1386.56C-413.804 1381.49 -385.161 1376.64 -359.887 1357.24C-334.614 1337.83 -323.398 1311.53 -311.781 1283.87C-299.358 1254.8 -286.532 1224.81 -256.594 1201.61C-226.655 1178.42 -193.491 1172.86 -161.596 1167.51C-131.081 1162.43 -102.438 1157.59 -77.1648 1138.18C-51.8913 1118.77 -40.6754 1092.48 -29.0584 1064.82C-16.6353 1035.75 -3.80976 1005.75 26.1287 982.558C56.0673 959.362 89.2315 953.809 121.126 948.453C151.641 943.38 180.279 938.582 205.558 919.127C230.836 899.672 242.047 873.421 253.664 845.763C266.082 816.741 278.913 786.7 308.851 763.504C338.79 740.307 371.954 734.755 403.799 729.394C434.314 724.321 463.001 719.528 488.28 700.073C513.559 680.618 524.769 654.367 536.386 626.709C548.804 597.687 561.635 567.646 591.573 544.45C621.512 521.253 654.676 515.701 686.521 510.34C717.036 505.267 745.723 500.474 771.002 481.019C796.281 461.564 807.442 435.307 819.109 407.654C831.526 378.633 844.357 348.592 874.296 325.396C891.161 312.833 910.468 303.749 931.042 298.657C936.03 297.423 940.989 300.484 942.439 305.414L942.99 307.289Z" fill="#FFDD74"/>
<path d="M935.475 378.806C938.995 383.464 937.724 390.049 933.118 393.636C932.977 393.745 932.837 393.855 932.697 393.965C907.402 413.564 896.207 439.672 884.59 467.33C872.173 496.351 859.342 526.392 829.403 549.589C799.465 572.785 766.3 578.338 734.406 583.693C703.891 588.766 675.253 593.564 649.974 613.019C624.696 632.474 613.485 658.726 601.868 686.384C589.45 715.405 576.619 745.446 546.681 768.643C516.742 791.839 483.583 797.344 451.684 802.747C421.169 807.82 392.531 812.618 367.252 832.073C341.973 851.528 330.757 877.827 319.14 905.486C306.723 934.507 293.892 964.548 263.953 987.744C234.015 1010.94 200.856 1016.45 168.961 1021.8C138.441 1026.92 109.803 1031.72 84.5296 1051.13C59.2562 1070.53 48.0349 1096.88 36.4179 1124.54C24.0001 1153.56 11.1693 1183.6 -18.7692 1206.8C-48.7077 1229.99 -81.8667 1235.5 -113.712 1240.86C-144.232 1245.98 -172.919 1250.77 -198.193 1270.18C-223.466 1289.59 -235.556 1316.56 -247.381 1344.3C-259.646 1373.29 -272.624 1403.31 -302.563 1426.51C-332.501 1449.7 -365.66 1455.21 -397.505 1460.57C-428.021 1465.64 -456.664 1470.49 -481.986 1489.89C-482.394 1490.22 -482.8 1490.55 -483.203 1490.88C-487.443 1494.36 -493.7 1494.38 -497.582 1490.5L-499.643 1488.43C-503.628 1484.45 -503.558 1477.93 -499.143 1474.42C-498.293 1473.75 -497.433 1473.09 -496.564 1472.44C-466.62 1449.19 -433.461 1443.69 -401.616 1438.33C-371.101 1433.25 -342.458 1428.41 -317.185 1409C-291.911 1389.59 -280.695 1363.29 -269.078 1335.63C-256.655 1306.56 -243.83 1276.57 -213.891 1253.38C-183.953 1230.18 -150.788 1224.63 -118.894 1219.27C-88.3787 1214.2 -59.7358 1209.35 -34.4623 1189.94C-9.18887 1170.54 2.02714 1144.24 13.6441 1116.58C26.0672 1087.51 38.8927 1057.52 68.8313 1034.32C98.7698 1011.12 131.934 1005.57 163.828 1000.22C194.344 995.144 222.981 990.346 248.26 970.891C273.539 951.436 284.75 925.184 296.367 897.526C308.784 868.505 321.615 838.464 351.554 815.267C381.492 792.071 414.656 786.518 446.551 781.163C477.066 776.09 505.704 771.291 530.982 751.836C556.261 732.381 567.472 706.13 579.089 678.472C591.507 649.451 604.338 619.41 634.276 596.213C664.215 573.017 697.379 567.464 729.224 562.103C759.739 557.03 788.426 552.237 813.705 532.782C838.984 513.327 850.2 487.028 861.817 459.37C874.234 430.349 887.065 400.308 917.004 377.112C918.202 376.183 919.421 375.273 920.655 374.382C924.862 371.347 930.662 372.44 933.79 376.578L935.475 378.806Z" fill="#FFDD74"/>
<path d="M910.722 501.46C916.127 503.435 918.754 509.553 916.464 514.832L915.176 517.801C902.753 546.871 889.928 576.863 859.989 600.06C830.051 623.256 796.887 628.809 764.992 634.164C734.477 639.238 705.839 644.036 680.561 663.491C655.282 682.946 644.071 709.197 632.454 736.855C620.036 765.877 607.206 795.918 577.267 819.114C547.329 842.31 514.164 847.863 482.27 853.218C451.755 858.292 423.117 863.09 397.838 882.545C372.56 902 361.344 928.299 349.727 955.957C337.309 984.979 324.478 1015.02 294.54 1038.22C264.601 1061.41 231.442 1066.92 199.597 1072.28C169.076 1077.4 140.39 1082.19 115.116 1101.6C89.8426 1121.01 78.6213 1147.35 67.0043 1175.01C54.5866 1204.03 41.7558 1234.07 11.8173 1257.27C-18.1212 1280.47 -51.2802 1285.97 -83.1253 1291.33C-113.646 1296.45 -142.333 1301.25 -167.606 1320.65C-192.88 1340.06 -204.052 1366.41 -215.718 1394.07C-229.015 1423.81 -241.835 1453.76 -271.795 1477.14C-301.755 1500.53 -334.773 1505.67 -366.914 1510.99C-368.263 1511.24 -369.629 1511.48 -371.008 1511.72C-376.391 1512.66 -381.557 1509.12 -382.61 1503.76L-383.108 1501.22C-384.188 1495.72 -380.537 1490.42 -375.012 1489.48C-373.62 1489.25 -372.226 1489.01 -370.827 1488.77C-340.312 1483.7 -311.669 1478.85 -286.396 1459.44C-261.122 1440.04 -249.906 1413.74 -238.289 1386.08C-225.866 1357.01 -213.041 1327.02 -183.102 1303.82C-153.164 1280.62 -119.999 1275.07 -88.1049 1269.72C-57.5897 1264.64 -28.9521 1259.85 -3.6733 1240.39C21.6055 1220.94 32.8161 1194.68 44.4331 1167.03C56.8509 1138 69.6817 1107.96 99.6202 1084.77C129.559 1061.57 162.723 1056.02 194.617 1050.66C225.133 1045.59 253.77 1040.79 279.049 1021.34C304.328 1001.88 315.538 975.63 327.155 947.972C339.573 918.95 352.404 888.909 382.343 865.713C412.281 842.517 445.445 836.964 477.34 831.608C507.855 826.535 536.493 821.737 561.771 802.282C587.05 782.827 598.261 756.576 609.878 728.918C622.295 699.896 635.126 669.855 665.065 646.659C695.003 623.462 728.162 617.958 760.013 612.549C790.528 607.476 819.215 602.683 844.494 583.228C869.772 563.773 880.988 537.474 892.605 509.816L894.446 505.551C896.547 500.685 902.08 498.303 907.059 500.122L910.722 501.46Z" fill="#FFDD74"/>
</g>
</svg>
