<svg width="71" height="68" viewBox="0 0 71 68" fill="none" xmlns="http://www.w3.org/2000/svg">
<path d="M66.8523 0.75H3.73873C1.80314 0.752051 0.234476 2.31789 0.232422 4.25V53.25C0.234476 55.1821 1.80314 56.748 3.73873 56.75H24.7766V61.4105C24.8777 63.2459 23.469 64.8156 21.6302 64.9164C21.5104 64.9229 21.3902 64.923 21.2703 64.9166H14.2577C13.6121 64.9166 13.0889 65.4389 13.0889 66.0832C13.0889 66.7276 13.6121 67.2499 14.2577 67.2499H56.3333C56.9789 67.2499 57.5021 66.7276 57.5021 66.0832C57.5021 65.4389 56.9789 64.9166 56.3333 64.9166H49.3207C47.4827 65.0149 45.9129 63.6073 45.8144 61.7725C45.8081 61.654 45.8081 61.5352 45.8144 61.4166V56.75H66.8523C68.7878 56.748 70.3565 55.1821 70.3586 53.25V4.25C70.3565 2.31789 68.7878 0.752051 66.8523 0.75ZM26.0398 64.9166C26.7252 63.8762 27.098 62.6617 27.1142 61.4166V56.75H43.477V61.4166C43.4931 62.6617 43.8658 63.8762 44.5513 64.9166H26.0398ZM68.021 53.25C68.0203 53.8941 67.4975 54.4161 66.8523 54.4166H3.73873C3.09349 54.4159 2.57055 53.8941 2.57001 53.25V46.8333H35.2956H68.0211L68.021 53.25ZM68.021 44.5H2.57001V4.25C2.57069 3.60592 3.09349 3.08393 3.73873 3.08338H66.8523C67.4975 3.08406 68.0204 3.60592 68.021 4.25V44.5Z" fill="#333333"/>
<rect x="5.28906" y="5.99915" width="59.0632" height="35.2477" transform="rotate(0.0136316 5.28906 5.99915)" fill="#FFD452"/>
<path d="M9.22455 5.75861C8.76996 5.31305 8.04159 5.31305 7.587 5.75861L5.24942 8.09185C4.79305 8.54754 4.79319 9.28623 5.24969 9.74177C5.46883 9.96039 5.76591 10.0833 6.07573 10.0833C6.38582 10.0837 6.68317 9.96066 6.90204 9.7415L9.23948 7.40826C9.69174 6.94848 9.68503 6.20992 9.22455 5.75861Z" fill="#333333"/>
<path d="M16.2423 5.75843C15.7872 5.30985 15.0553 5.30985 14.6001 5.75843L7.5875 12.7584C7.13113 13.2138 7.13099 13.9523 7.58709 14.4078C7.58722 14.4079 7.58736 14.4081 7.5875 14.4082C8.04359 14.8638 8.78348 14.8639 9.23985 14.4086C9.23998 14.4085 9.24012 14.4083 9.24026 14.4082L16.2529 7.40821C16.7064 6.94966 16.7016 6.2111 16.2423 5.75843Z" fill="#333333"/>
<path d="M42.5703 18.6411H39.9987L39.4801 20.0143C39.385 20.2467 39.1626 20.3841 38.93 20.3841C38.8558 20.3841 38.7922 20.3735 38.7289 20.3524C38.422 20.2361 38.2738 19.8982 38.3797 19.592L40.7182 13.3703C40.8135 13.1379 41.0463 12.9899 41.2792 13.0005C41.5224 12.9899 41.7448 13.1379 41.8399 13.3703L44.1786 19.592C44.2843 19.8982 44.1363 20.2363 43.8295 20.3524C43.7765 20.3735 43.7025 20.3841 43.6283 20.3841C43.3955 20.3841 43.1733 20.2467 43.0887 20.0143L42.5703 18.6411ZM42.1363 17.4792L41.2792 15.2081L40.4221 17.4792H42.1363Z" fill="#333333"/>
<path d="M39.583 33.4037V27.1714C39.583 26.8439 39.8477 26.5905 40.1652 26.5905C40.1758 26.5905 40.1758 26.5905 40.1969 26.5905C40.1969 26.5905 40.1969 26.5905 40.2075 26.5905H41.6677C42.7789 26.5905 43.6783 27.4883 43.6783 28.5975C43.6783 29.0518 43.5301 29.4637 43.2762 29.8019C43.9111 30.2032 44.3449 30.9111 44.3449 31.7138C44.3449 32.9707 43.329 33.9849 42.0804 33.9849H40.2073C40.1967 33.9849 40.1967 33.9743 40.1967 33.9743C40.1754 33.9743 40.1754 33.9849 40.165 33.9849C39.8475 33.9847 39.583 33.7206 39.583 33.4037ZM40.7578 29.4531H41.6677C42.1333 29.4531 42.5037 29.0624 42.5037 28.5975C42.5037 28.1327 42.1333 27.763 41.6677 27.763H40.7578V29.4531ZM40.7578 32.8122H42.0806C42.6836 32.8016 43.1703 32.3264 43.1703 31.7136C43.1703 31.1114 42.6836 30.6362 42.0806 30.6256H40.7578V32.8122Z" fill="#333333"/>
<circle cx="29.5" cy="16.5" r="2.75" fill="white" stroke="#333333" stroke-width="1.5"/>
<circle cx="29.5" cy="30.5" r="2.75" fill="white" stroke="#333333" stroke-width="1.5"/>
</svg>
