<svg width="70" height="70" viewBox="0 0 70 70" fill="none" xmlns="http://www.w3.org/2000/svg">
<path d="M66.5 1.74994H3.5C1.56789 1.75199 0.00205078 3.31783 0 5.24994V54.2499C0.00205078 56.1821 1.56789 57.7479 3.5 57.7499H24.5V62.4104C24.6009 64.2459 23.1947 65.8155 21.3593 65.9163C21.2397 65.9229 21.1198 65.923 21 65.9166H14C13.3556 65.9166 12.8334 66.4388 12.8334 67.0832C12.8334 67.7275 13.3556 68.2498 14 68.2498H56C56.6444 68.2498 57.1666 67.7275 57.1666 67.0832C57.1666 66.4388 56.6444 65.9166 56 65.9166H49C47.1652 66.0149 45.5983 64.6072 45.5 62.7724C45.4937 62.6539 45.4937 62.5351 45.5 62.4166V57.7499H66.5C68.4321 57.7479 69.9979 56.1821 70 54.2499V5.24994C69.9979 3.31783 68.4321 1.75199 66.5 1.74994ZM25.761 65.9166C26.4451 64.8761 26.8172 63.6617 26.8334 62.4166V57.7499H43.1668V62.4166C43.1829 63.6617 43.5549 64.8761 44.2392 65.9166H25.761ZM67.6666 54.2499C67.6659 54.894 67.1441 55.416 66.5 55.4166H3.5C2.85592 55.4159 2.33393 54.894 2.33338 54.2499V47.8333H35.0001H67.6668L67.6666 54.2499ZM67.6666 45.4999H2.33338V5.24994C2.33406 4.60586 2.85592 4.08386 3.5 4.08332H66.5C67.1441 4.084 67.6661 4.60586 67.6666 5.24994V45.4999Z" fill="#333333"/>
<rect x="5.29004" y="6.99915" width="59.0632" height="35.2477" transform="rotate(0.0136316 5.29004 6.99915)" fill="#FFD452"/>
<path d="M31.4062 60.8064C31.347 60.6651 31.2641 60.5351 31.1612 60.4218C30.8789 60.1516 30.4833 60.0343 30.0993 60.1068C30.0263 60.1192 29.9556 60.1427 29.8897 60.1762C29.8151 60.2018 29.7442 60.2373 29.6789 60.2816L29.5044 60.4218C29.4015 60.535 29.3186 60.6651 29.2594 60.8064C29.1349 61.089 29.1349 61.4108 29.2594 61.6933C29.3186 61.8346 29.4015 61.9649 29.5044 62.0784C29.5595 62.1286 29.6178 62.1752 29.6787 62.218C29.744 62.2623 29.8149 62.2977 29.8896 62.3234C29.9556 62.3569 30.0263 62.3805 30.0992 62.3934C30.1764 62.4068 30.2545 62.4147 30.3328 62.4168C30.6417 62.412 30.9372 62.2913 31.1612 62.0784C31.2641 61.9649 31.347 61.8346 31.4062 61.6933C31.5307 61.4107 31.5307 61.0888 31.4062 60.8064Z" fill="#333333"/>
<path d="M36.1426 61.0165C36.1303 60.9432 36.1069 60.8724 36.0731 60.8064C36.0473 60.7323 36.0122 60.6618 35.9683 60.5968C35.9252 60.5357 35.8785 60.4771 35.8281 60.4219C35.3604 59.9901 34.6394 59.9901 34.1715 60.4219C34.1212 60.4773 34.0745 60.5357 34.0314 60.5968C33.9871 60.6616 33.9518 60.7321 33.9265 60.8064C33.8929 60.8727 33.8691 60.9435 33.8558 61.0165C33.8426 61.0937 33.8349 61.1718 33.833 61.2501C33.833 61.8945 34.3553 62.4168 34.9996 62.4168C35.644 62.4168 36.1663 61.8945 36.1663 61.2501C36.1649 61.1717 36.1568 61.0935 36.1426 61.0165Z" fill="#333333"/>
<path d="M40.495 60.4216C40.1565 60.0964 39.6587 60.0002 39.2235 60.1761C39.0793 60.2298 38.948 60.3135 38.8384 60.4216C38.625 60.645 38.5041 60.941 38.5 61.25C38.5019 61.4024 38.5336 61.553 38.5934 61.6932C38.6526 61.8346 38.7354 61.9649 38.8384 62.0784C38.9482 62.1861 39.0793 62.2696 39.2235 62.3234C39.3619 62.3887 39.5136 62.4207 39.6666 62.4168C40.3136 62.4142 40.836 61.8876 40.8334 61.2407C40.8323 60.9339 40.7107 60.6398 40.495 60.4216Z" fill="#333333"/>
<path d="M8.97655 6.75855C8.52279 6.31299 7.79572 6.31299 7.34195 6.75855L5.00857 9.09179C4.55302 9.54748 4.55316 10.2862 5.00884 10.7417C5.22759 10.9603 5.52413 11.0832 5.83339 11.0832C6.14292 11.0836 6.43974 10.9606 6.65822 10.7414L8.99146 8.4082C9.4429 7.94842 9.4362 7.20986 8.97655 6.75855Z" fill="#333333"/>
<path d="M15.981 6.75837C15.5267 6.30979 14.7961 6.30979 14.3418 6.75837L7.34176 13.7584C6.88622 14.2138 6.88608 14.9522 7.34135 15.4077C7.34149 15.4079 7.34163 15.408 7.34176 15.4082C7.79704 15.8637 8.53559 15.8638 8.99114 15.4086C8.99127 15.4084 8.99141 15.4083 8.99155 15.4082L15.9915 8.40815C16.4442 7.9496 16.4394 7.21104 15.981 6.75837Z" fill="#333333"/>
<path d="M24.2856 31.1214C21.8351 31.1214 19.8486 29.1349 19.8486 26.6845V24.4539C19.8486 22.0035 21.8351 20.017 24.2856 20.017C26.736 20.017 28.7225 22.0035 28.7225 24.4539V26.6845C28.7225 29.1349 26.736 31.1214 24.2856 31.1214Z" fill="white"/>
<path d="M30.484 33.9268H18.0872C16.9436 33.9268 16.0166 34.8537 16.0166 35.9973V41.1433H32.5546V35.9973C32.5548 34.8539 31.6276 33.9268 30.484 33.9268Z" fill="white"/>
<path d="M24.2859 32.1384C21.2787 32.1384 18.832 29.6917 18.832 26.6845V24.4539C18.832 21.4467 21.2787 19 24.2859 19C27.2932 19 29.7398 21.4467 29.7398 24.4539V26.6845C29.7397 29.6917 27.2932 32.1384 24.2859 32.1384ZM24.2859 21.034C22.4001 21.034 20.866 22.5681 20.866 24.4539V26.6845C20.866 28.5703 22.4001 30.1044 24.2859 30.1044C26.1718 30.1044 27.7059 28.5703 27.7059 26.6845V24.4539C27.7057 22.5681 26.1718 21.034 24.2859 21.034Z" fill="#333333"/>
<path d="M32.555 42.1603H16.017C15.4554 42.1603 15 41.7048 15 41.1433V35.9973C15 34.2949 16.3851 32.9098 18.0877 32.9098H30.4846C32.187 32.9098 33.5721 34.2949 33.5721 35.9973V41.1433C33.572 41.705 33.1165 42.1603 32.555 42.1603ZM17.0338 40.1263H31.5378V35.9973C31.5378 35.4163 31.0653 34.9438 30.4842 34.9438H18.0874C17.5064 34.9438 17.0336 35.4163 17.0336 35.9973V40.1263H17.0338Z" fill="#333333"/>
<path d="M20.1937 42.1602C19.6322 42.1602 19.1768 41.7048 19.1768 41.1432V37.937C19.1768 37.3755 19.6322 36.92 20.1937 36.92C20.7553 36.92 21.2107 37.3755 21.2107 37.937V41.1432C21.2107 41.7049 20.7553 42.1602 20.1937 42.1602Z" fill="#333333"/>
<path d="M28.3773 42.1602C27.8158 42.1602 27.3604 41.7048 27.3604 41.1432V37.937C27.3604 37.3755 27.8158 36.92 28.3773 36.92C28.9389 36.92 29.3943 37.3755 29.3943 37.937V41.1432C29.3943 41.7049 28.939 42.1602 28.3773 42.1602Z" fill="#333333"/>
<path d="M54.319 34.5456H39.0653C38.3415 34.5456 37.7549 33.959 37.7549 33.2352V23.4583C37.7549 22.7345 38.3415 22.1479 39.0653 22.1479H54.319C55.0427 22.1479 55.6294 22.7345 55.6294 23.4583V33.2352C55.6292 33.959 55.0426 34.5456 54.319 34.5456Z" fill="white"/>
<path d="M54.3182 35.5628H39.0647C37.7814 35.5628 36.7373 34.5187 36.7373 33.2354V23.4587C36.7373 22.1754 37.7814 21.1313 39.0647 21.1313H54.3182C55.6015 21.1313 56.6456 22.1754 56.6456 23.4587V33.2354C56.6458 34.5187 55.6015 35.5628 54.3182 35.5628ZM39.0647 23.1651C38.9028 23.1651 38.7713 23.2966 38.7713 23.4585V33.2352C38.7713 33.3971 38.9028 33.5286 39.0647 33.5286H54.3182C54.4801 33.5286 54.6116 33.3971 54.6116 33.2352V23.4585C54.6116 23.2966 54.4801 23.1651 54.3182 23.1651H39.0647Z" fill="#4C4372"/>
<path d="M54.3182 35.5628H39.0647C37.7814 35.5628 36.7373 34.5187 36.7373 33.2354V23.4587C36.7373 22.1754 37.7814 21.1313 39.0647 21.1313H54.3182C55.6015 21.1313 56.6456 22.1754 56.6456 23.4587V33.2354C56.6458 34.5187 55.6015 35.5628 54.3182 35.5628ZM39.0647 23.1651C38.9028 23.1651 38.7713 23.2966 38.7713 23.4585V33.2352C38.7713 33.3971 38.9028 33.5286 39.0647 33.5286H54.3182C54.4801 33.5286 54.6116 33.3971 54.6116 33.2352V23.4585C54.6116 23.2966 54.4801 23.1651 54.3182 23.1651H39.0647Z" fill="#333333"/>
<path d="M45.1807 31.694C45.0379 31.694 44.8952 31.657 44.7671 31.5831C44.5112 31.4353 44.3535 31.1622 44.3535 30.8668V25.8272C44.3535 25.5316 44.5112 25.2586 44.7671 25.1108C45.0228 24.9631 45.3383 24.9631 45.5943 25.1108L49.9588 27.6307C50.2147 27.7784 50.3724 28.0515 50.3724 28.347C50.3724 28.6424 50.2147 28.9157 49.9588 29.0633L45.5943 31.583C45.4663 31.657 45.3235 31.694 45.1807 31.694ZM46.0078 27.26V29.4342L47.8909 28.3471L46.0078 27.26Z" fill="#333333"/>
</svg>
