<svg width="25" height="24" viewBox="0 0 25 24" fill="none" xmlns="http://www.w3.org/2000/svg">
<rect x="1.2" y="4.88018" width="19.08" height="18.16" rx="2.8" stroke="#333333" stroke-width="1.6"/>
<rect x="16.7202" y="2" width="8.28" height="8.28" fill="#FFD452"/>
<line x1="5.55977" y1="9.47979" x2="15.9198" y2="9.47978" stroke="#333333" stroke-width="1.6" stroke-linecap="round"/>
<line x1="5.55977" y1="14.0799" x2="15.9198" y2="14.0799" stroke="#333333" stroke-width="1.6" stroke-linecap="round"/>
<line x1="5.55977" y1="18.68" x2="13.1598" y2="18.68" stroke="#333333" stroke-width="1.6" stroke-linecap="round"/>
<mask id="path-7-outside-1" maskUnits="userSpaceOnUse" x="18.0815" y="1.91992" width="7" height="7" fill="black">
<rect fill="white" x="18.0815" y="1.91992" width="7" height="7"/>
<path d="M19.5342 2.97437C19.6068 2.90177 19.7245 2.90177 19.7971 2.97437L24.0271 7.20438C24.0997 7.27698 24.0997 7.39468 24.0271 7.46727C23.9908 7.50358 23.9432 7.52172 23.8956 7.52172C23.8481 7.52172 23.8005 7.50357 23.7642 7.46726L19.5342 3.23725C19.4616 3.16466 19.4616 3.04696 19.5342 2.97437Z"/>
</mask>
<path d="M19.5342 2.97437C19.6068 2.90177 19.7245 2.90177 19.7971 2.97437L24.0271 7.20438C24.0997 7.27698 24.0997 7.39468 24.0271 7.46727C23.9908 7.50358 23.9432 7.52172 23.8956 7.52172C23.8481 7.52172 23.8005 7.50357 23.7642 7.46726L19.5342 3.23725C19.4616 3.16466 19.4616 3.04696 19.5342 2.97437Z" fill="#333333"/>
<path d="M19.5342 2.97437L19.1099 2.55013L19.1099 2.5501L19.5342 2.97437ZM19.7971 2.97437L19.3728 3.39863L19.3728 3.39863L19.7971 2.97437ZM24.0271 7.20438L24.4514 6.78012L24.4514 6.78012L24.0271 7.20438ZM24.0271 7.46727L23.6027 7.04311L23.6028 7.04301L24.0271 7.46727ZM23.7642 7.46726L24.1885 7.043L24.1885 7.04305L23.7642 7.46726ZM19.5342 3.23725L19.9584 2.81298V2.81298L19.5342 3.23725ZM19.1099 2.5501C19.4168 2.24319 19.9144 2.24319 20.2213 2.5501L19.3728 3.39863C19.5345 3.56035 19.7967 3.56035 19.9584 3.39863L19.1099 2.5501ZM20.2213 2.5501L24.4514 6.78012L23.6028 7.62865L19.3728 3.39863L20.2213 2.5501ZM24.4514 6.78012C24.7583 7.08703 24.7583 7.58462 24.4514 7.89153L23.6028 7.04301C23.4411 7.20473 23.4411 7.46693 23.6028 7.62865L24.4514 6.78012ZM24.4515 7.89143C24.298 8.04496 24.0957 8.12172 23.8956 8.12172V6.92172C23.7907 6.92172 23.6836 6.9622 23.6027 7.04311L24.4515 7.89143ZM23.8956 8.12172C23.6954 8.12172 23.4932 8.04487 23.3399 7.89147L24.1885 7.04305C24.1078 6.96227 24.0007 6.92172 23.8956 6.92172V8.12172ZM23.3399 7.89153L19.1099 3.66151L19.9584 2.81298L24.1885 7.043L23.3399 7.89153ZM19.1099 3.66151C18.803 3.35459 18.803 2.85702 19.1099 2.55013L19.9585 3.39861C20.1202 3.23691 20.1202 2.97472 19.9584 2.81298L19.1099 3.66151Z" fill="#333333" mask="url(#path-7-outside-1)"/>
<mask id="path-9-outside-2" maskUnits="userSpaceOnUse" x="18.0815" y="1.91992" width="7" height="7" fill="black">
<rect fill="white" x="18.0815" y="1.91992" width="7" height="7"/>
<path d="M19.5342 7.20438L23.7642 2.97437C23.8368 2.90177 23.9545 2.90177 24.0271 2.97437C24.0997 3.04695 24.0997 3.16465 24.0271 3.23725L19.7971 7.46727C19.7608 7.50357 19.7132 7.52172 19.6656 7.52172C19.6181 7.52172 19.5705 7.50357 19.5342 7.46728C19.4616 7.39467 19.4616 7.27698 19.5342 7.20438Z"/>
</mask>
<path d="M19.5342 7.20438L23.7642 2.97437C23.8368 2.90177 23.9545 2.90177 24.0271 2.97437C24.0997 3.04695 24.0997 3.16465 24.0271 3.23725L19.7971 7.46727C19.7608 7.50357 19.7132 7.52172 19.6656 7.52172C19.6181 7.52172 19.5705 7.50357 19.5342 7.46728C19.4616 7.39467 19.4616 7.27698 19.5342 7.20438Z" fill="#333333"/>
<path d="M19.5342 7.20438L19.1099 6.78014L19.1099 6.78012L19.5342 7.20438ZM23.7642 2.97437L24.1885 3.39861L24.1885 3.39863L23.7642 2.97437ZM24.0271 2.97437L23.6029 3.39866L23.6028 3.39861L24.0271 2.97437ZM24.0271 3.23725L24.4514 3.66151L24.0271 3.23725ZM19.7971 7.46727L19.3728 7.04306L19.3728 7.043L19.7971 7.46727ZM19.5342 7.46728L19.1099 7.89149L19.1098 7.89146L19.5342 7.46728ZM19.1099 6.78012L23.34 2.5501L24.1885 3.39863L19.9585 7.62865L19.1099 6.78012ZM23.3399 2.55013C23.6468 2.24319 24.1445 2.24319 24.4514 2.55013L23.6028 3.39861C23.7645 3.56036 24.0268 3.56036 24.1885 3.39861L23.3399 2.55013ZM24.4513 2.55008C24.7583 2.857 24.7583 3.35461 24.4514 3.66151L23.6028 2.81298C23.4411 2.97469 23.4411 3.23691 23.6029 3.39866L24.4513 2.55008ZM24.4514 3.66151L20.2213 7.89153L19.3728 7.043L23.6028 2.81298L24.4514 3.66151ZM20.2214 7.89148C20.068 8.04491 19.8658 8.12172 19.6656 8.12172V6.92172C19.5606 6.92172 19.4536 6.96224 19.3728 7.04306L20.2214 7.89148ZM19.6656 8.12172C19.4655 8.12172 19.2633 8.04492 19.1099 7.89149L19.9585 7.04307C19.8777 6.96222 19.7706 6.92172 19.6656 6.92172V8.12172ZM19.1098 7.89146C18.8031 7.58457 18.803 7.08706 19.1099 6.78014L19.9585 7.62862C20.1202 7.4669 20.1202 7.20478 19.9585 7.04309L19.1098 7.89146Z" fill="#333333" mask="url(#path-9-outside-2)"/>
</svg>
