<svg width="543" height="318" viewBox="0 0 543 318" fill="none" xmlns="http://www.w3.org/2000/svg">
<path d="M2.38391 313.741C3.08043 312.486 4.6862 312.049 5.84498 312.896C7.19245 313.882 8.45617 314.985 9.62163 316.195C10.8467 317.448 11.9597 318.808 12.9483 320.26C13.7047 321.371 13.3123 322.863 12.1648 323.563C10.9656 324.294 9.40856 323.879 8.59438 322.734C7.85723 321.698 7.04218 320.721 6.15609 319.812C5.24801 318.881 4.27072 318.027 3.23366 317.255C2.13459 316.437 1.71929 314.939 2.38391 313.741Z" fill="#FFE69A"/>
<path d="M2.39627 298.788C2.79712 297.421 4.24254 296.642 5.59035 297.101C10.3563 298.725 15.5131 301.021 19.9542 305.572C24.4511 310.181 26.7229 315.533 28.2855 320.473C28.696 321.771 27.9512 323.142 26.6514 323.546C25.3183 323.961 23.9108 323.203 23.4821 321.874C22.0576 317.459 20.1528 312.99 16.4355 309.189C12.7232 305.394 8.37549 303.428 4.07515 301.964C2.75882 301.516 2.00482 300.122 2.39627 298.788Z" fill="#FFE69A"/>
<path d="M2.39721 284.876C2.89563 283.53 4.40429 282.861 5.7615 283.327C7.41436 283.895 9.10345 284.404 10.854 284.927C17.5406 286.931 24.4505 289.012 30.276 294.983C36.1016 300.953 38.1214 308.056 40.0774 314.876C40.6065 316.736 41.1203 318.529 41.6996 320.282C42.13 321.585 41.5027 323.021 40.2293 323.531C38.9326 324.051 37.4574 323.417 37.0143 322.092C36.3709 320.168 35.8349 318.233 35.2937 316.314C33.4333 309.778 31.6686 303.644 26.7892 298.589C21.9098 293.534 15.8609 291.747 9.50386 289.873C7.64617 289.31 5.75655 288.742 3.86888 288.084C2.55916 287.627 1.91547 286.176 2.39721 284.876Z" fill="#FFE69A"/>
<path d="M2.36734 267.712C3.33622 266.691 4.94845 266.68 6.045 267.562C10.5225 271.163 15.7153 272.724 21.1431 274.359C27.8297 276.364 34.7395 278.445 40.5651 284.415C46.3906 290.385 48.4105 297.489 50.3665 304.309C51.9739 309.941 53.5074 315.303 57.0759 319.892C57.9107 320.966 57.9108 322.51 56.9566 323.48C55.9575 324.494 54.3063 324.484 53.4211 323.369C49.094 317.916 47.329 311.734 45.6146 305.725C43.7543 299.188 41.9896 293.055 37.1102 288C32.2307 282.944 26.1819 281.158 19.8248 279.284C13.9225 277.512 7.83999 275.688 2.47921 271.132C1.44553 270.254 1.43337 268.695 2.36734 267.712Z" fill="#FFE69A"/>
<path d="M2.31654 235.071C3.66602 234.625 5.12077 235.384 5.5099 236.751C5.56248 236.936 5.61476 237.121 5.66671 237.306C7.52705 243.843 9.29173 249.977 14.1712 255.021C19.0506 260.065 25.0994 261.874 31.4565 263.737C38.1431 265.741 45.053 267.822 50.8786 273.793C56.7041 279.763 58.7239 286.866 60.6799 293.686C62.5403 300.223 64.305 306.357 69.1844 311.401C74.0638 316.445 80.1126 318.254 86.4697 320.117L87.0436 320.291C88.3806 320.697 89.1505 322.095 88.7795 323.442C88.3937 324.843 86.9273 325.648 85.5384 325.222L85.1622 325.107C78.4436 323.102 71.5656 321.032 65.6869 315.105C59.8082 309.179 57.8416 302.032 55.8855 295.212C54.0252 288.675 52.2605 282.541 47.3811 277.486C42.5016 272.431 36.4528 270.644 30.0958 268.77C23.4091 266.765 16.4993 264.695 10.6737 258.725C4.84814 252.755 2.82833 245.651 0.872307 238.831C0.80967 238.613 0.747032 238.394 0.68428 238.177C0.308312 236.871 1.02629 235.497 2.31654 235.071Z" fill="#FFE69A"/>
<path d="M2.35761 206.841C3.24053 205.713 4.88901 205.521 5.89875 206.538C5.99583 206.636 6.09212 206.734 6.18762 206.834C12.0132 212.804 14.033 219.907 15.989 226.727C17.8494 233.264 19.6141 239.398 24.4935 244.442C29.373 249.486 35.4218 251.295 41.7789 253.158C48.4655 255.163 55.3754 257.243 61.201 263.214C67.0265 269.184 69.0464 276.287 71.0024 283.108C72.8627 289.644 74.6274 295.778 79.5069 300.822C84.3863 305.867 90.4351 307.675 96.7922 309.538C103.479 311.543 110.389 313.624 116.214 319.594C116.346 319.728 116.476 319.865 116.605 320.002C117.541 320.999 117.379 322.562 116.333 323.443L116.248 323.515C115.202 324.396 113.641 324.223 112.685 323.244C107.763 318.199 101.757 316.402 95.3996 314.528C88.713 312.523 81.8031 310.453 75.9775 304.483C70.1519 298.513 68.1321 291.409 66.1761 284.589C64.3157 278.052 62.5511 271.919 57.6716 266.863C52.7922 261.808 46.7434 260.022 40.3863 258.148C33.6996 256.143 26.7897 254.073 20.9641 248.103C15.1386 242.133 13.1188 235.029 11.1627 228.209C9.30237 221.672 7.53769 215.539 2.65825 210.483C1.68413 209.503 1.50621 207.93 2.35761 206.841Z" fill="#FFE69A"/>
<path d="M2.43786 190.628C2.87071 189.267 4.33293 188.509 5.6533 189.053C9.68263 190.714 13.3707 193.157 16.5111 196.255C22.3367 202.225 24.3565 209.329 26.3125 216.149C28.1729 222.686 29.9375 228.819 34.817 233.864C39.6964 238.908 45.7453 240.716 52.113 242.579C58.789 244.584 65.6989 246.665 71.5244 252.635C77.35 258.605 79.3698 265.709 81.3259 272.529C83.1862 279.066 84.9509 285.199 89.8303 290.244C94.7098 295.288 100.759 297.096 107.116 298.959C113.802 300.964 120.712 303.034 126.538 309.004C129.656 312.312 132.098 316.214 133.734 320.48C134.211 321.725 133.523 323.086 132.268 323.536C130.926 324.017 129.463 323.272 128.933 321.949C127.565 318.532 125.587 315.397 123.093 312.709C118.172 307.664 112.165 305.856 105.808 303.993C99.1215 301.988 92.2116 299.918 86.386 293.948C80.5605 287.978 78.5406 280.874 76.5846 274.054C74.7243 267.517 72.9596 261.384 68.0801 256.328C63.2007 251.273 57.1519 249.487 50.7948 247.613C44.1081 245.608 37.1982 243.538 31.3727 237.568C25.5471 231.597 23.5273 224.494 21.5713 217.674C19.7109 211.137 17.9462 205.003 13.0668 199.948C10.4438 197.401 7.3908 195.376 4.06437 193.968C2.75782 193.415 2.00784 191.98 2.43786 190.628Z" fill="#FFE69A"/>
<path d="M2.43182 176.921C2.83185 175.496 4.34376 174.692 5.76054 175.122C6.31256 175.29 6.86581 175.455 7.41908 175.62C14.0951 177.625 21.005 179.705 26.8305 185.676C32.6561 191.646 34.6759 198.749 36.632 205.57C38.5029 212.106 40.257 218.24 45.1364 223.284C50.0159 228.329 56.1178 230.126 62.4962 232.044C69.1722 234.048 76.0821 236.129 81.9077 242.1C87.7332 248.07 89.753 255.173 91.7091 261.993C93.5694 268.53 95.3341 274.664 100.214 279.708C105.093 284.752 111.142 286.561 117.51 288.424C124.154 290.472 131.117 292.542 136.91 298.512C142.704 304.483 144.756 311.586 146.712 318.417C146.904 319.089 147.097 319.764 147.293 320.439C147.672 321.739 146.968 323.118 145.683 323.546C144.368 323.984 142.948 323.259 142.558 321.928C142.355 321.234 142.156 320.539 141.96 319.844C140.1 313.307 138.335 307.174 133.455 302.129C128.576 297.085 122.527 295.277 116.17 293.414C109.483 291.409 102.574 289.339 96.748 283.369C90.9224 277.398 88.9026 270.295 86.9465 263.475C85.0862 256.938 83.3215 250.794 78.4421 245.749C73.5626 240.705 67.5138 238.907 61.1567 237.033C54.4701 235.029 47.5708 232.959 41.7453 226.989C35.9197 221.018 33.8893 213.915 31.9332 207.095C30.0729 200.558 28.3082 194.424 23.4287 189.369C18.5493 184.314 12.5005 182.527 6.14338 180.653C5.46884 180.453 4.79428 180.253 4.12179 180.048C2.79751 179.645 2.05783 178.254 2.43182 176.921Z" fill="#FFE69A"/>
<path d="M2.38275 161.474C3.15999 160.218 4.832 159.886 6.11998 160.609C9.71431 162.625 13.6315 163.789 17.7422 165.041C24.4182 167.046 31.3281 169.127 37.1536 175.097C42.9792 181.068 44.999 188.171 46.955 194.991C48.826 201.528 50.5801 207.662 55.4595 212.706C60.339 217.75 66.3984 219.559 72.7555 221.422C79.4315 223.426 86.3414 225.496 92.1669 231.467C97.9925 237.437 100.012 244.54 101.968 251.371C103.829 257.908 105.593 264.042 110.473 269.086C115.352 274.13 121.401 275.939 127.769 277.802C134.445 279.806 141.355 281.876 147.18 287.847C153.006 293.817 155.111 300.942 157.109 307.838C158.34 312.133 159.51 316.236 161.568 319.987C162.232 321.197 161.953 322.745 160.822 323.535C159.664 324.345 158.058 324.052 157.365 322.82C154.904 318.452 153.574 313.795 152.283 309.266C150.423 302.729 148.658 296.595 143.778 291.551C138.899 286.507 132.85 284.698 126.493 282.835C119.806 280.83 112.897 278.76 107.071 272.79C101.245 266.82 99.2256 259.717 97.2696 252.896C95.4093 246.36 93.6446 240.215 88.7651 235.171C83.8857 230.127 77.8369 228.318 71.4798 226.455C64.7932 224.45 57.8939 222.38 52.0684 216.41C46.2428 210.44 44.2123 203.336 42.2563 196.516C40.396 189.979 38.6313 183.835 33.7518 178.791C28.8724 173.746 22.8236 171.949 16.4665 170.075C12.0153 168.742 7.43793 167.369 3.14894 164.847C1.97523 164.157 1.6662 162.632 2.38275 161.474Z" fill="#FFE69A"/>
<path d="M2.29501 136.908C3.60401 136.328 5.12209 136.988 5.7274 138.286C7.00125 141.017 8.70259 143.523 10.769 145.703C15.7016 150.747 21.7079 152.556 28.065 154.419C34.741 156.423 41.6509 158.493 47.4765 164.475C53.302 170.456 55.3219 177.548 57.2779 184.368C59.1489 190.905 60.9029 197.039 65.7824 202.083C70.6618 207.127 76.7212 208.936 83.0783 210.799C89.7544 212.804 96.6642 214.874 102.49 220.844C108.315 226.814 110.335 233.918 112.291 240.749C114.162 247.285 115.916 253.419 120.796 258.463C125.675 263.508 131.724 265.316 138.092 267.179C144.853 269.347 151.795 271.384 157.588 277.355C163.382 283.325 165.434 290.428 167.39 297.259C169.25 303.796 171.015 309.93 175.894 314.974C178.026 317.104 180.482 318.854 183.161 320.159C184.434 320.78 185.108 322.253 184.598 323.574C184.094 324.88 182.624 325.542 181.36 324.941C178.049 323.368 175.019 321.222 172.407 318.591C166.582 312.621 164.562 305.518 162.606 298.687C160.745 292.15 158.981 286.016 154.101 280.972C149.222 275.928 143.173 274.119 136.816 272.256C130.129 270.251 123.23 268.181 117.405 262.211C111.579 256.241 109.549 249.137 107.593 242.306C105.732 235.77 103.967 229.636 99.088 224.592C94.2086 219.547 88.1598 217.739 81.8027 215.876C75.116 213.871 68.2168 211.801 62.3912 205.831C56.5656 199.861 54.5352 192.757 52.5792 185.937C50.7188 179.4 48.9648 173.256 44.0747 168.212C39.1846 163.167 33.1465 161.359 26.7894 159.496C20.1027 157.491 13.2034 155.421 7.37788 149.451C4.7357 146.691 2.59532 143.478 1.05057 139.963C0.531327 138.782 1.11549 137.432 2.29501 136.908Z" fill="#FFE69A"/>
<path d="M2.35596 101.029C3.40883 100.05 5.0766 100.152 5.89487 101.334C9.40126 106.4 10.9971 111.976 12.544 117.41C14.4149 123.947 16.169 130.08 21.0484 135.125C25.9279 140.169 31.9873 141.977 38.3444 143.84C45.0204 145.845 51.9303 147.915 57.7559 153.885C63.5815 159.856 65.6013 166.959 67.5573 173.79C69.4283 180.327 71.1823 186.46 76.0618 191.505C80.9412 196.549 87.0006 198.357 93.3577 200.22C100.034 202.225 106.944 204.295 112.769 210.265C118.595 216.236 120.615 223.339 122.571 230.17C124.442 236.707 126.196 242.841 131.075 247.885C135.955 252.929 142.014 254.738 148.371 256.601C155.047 258.605 161.957 260.675 167.783 266.646C173.608 272.616 175.628 279.719 177.584 286.55C179.455 293.087 181.209 299.221 186.088 304.265C190.968 309.309 197.017 311.118 203.384 312.981C208.744 314.589 214.272 316.249 219.272 319.951C220.344 320.745 220.493 322.259 219.689 323.323C218.8 324.499 217.105 324.663 215.895 323.821C211.748 320.938 207.065 319.529 202.151 318.058C195.465 316.053 188.555 313.983 182.729 308.013C176.904 302.042 174.884 294.939 172.928 288.108C171.067 281.571 169.303 275.438 164.423 270.393C159.544 265.349 153.495 263.541 147.138 261.678C140.451 259.673 133.552 257.603 127.726 251.633C121.901 245.662 119.87 238.559 117.914 231.728C116.054 225.191 114.289 219.057 109.41 214.013C104.53 208.969 98.4817 207.16 92.1246 205.297C85.4379 203.293 78.5387 201.223 72.7131 195.252C66.8875 189.282 64.8571 182.179 62.9011 175.359C61.0407 168.822 59.2867 162.677 54.3966 157.633C49.5065 152.589 43.4683 150.78 37.1113 148.917C30.4352 146.913 23.5253 144.843 17.6998 138.872C11.8742 132.902 9.84378 125.799 7.88776 118.979C6.41446 113.803 5.00576 108.884 2.04253 104.525C1.29721 103.429 1.38503 101.932 2.35596 101.029Z" fill="#FFE69A"/>
<path d="M4.32502 9.53057C6.28106 16.3724 8.30086 23.454 14.1264 29.4243C19.952 35.3946 26.8832 37.4646 33.5379 39.4693C39.9163 41.3758 45.9013 43.1844 50.8339 48.185C55.7665 53.1857 57.5099 59.3848 59.3383 65.8998C61.2944 72.7526 63.3142 79.8342 69.1398 85.8045C74.9653 91.7748 81.8965 93.8448 88.5512 95.8494C94.9296 97.756 100.915 99.5645 105.847 104.565C110.78 109.566 112.523 115.765 114.352 122.28C116.318 129.133 118.338 136.214 124.164 142.185C129.989 148.155 136.92 150.225 143.575 152.23C149.954 154.136 155.939 155.945 160.871 160.945C165.804 165.946 167.547 172.145 169.376 178.66C171.332 185.513 173.362 192.584 179.188 198.554C185.013 204.524 191.944 206.605 198.599 208.61C204.977 210.516 210.963 212.325 215.884 217.325C220.806 222.326 222.571 228.525 224.389 235.04C226.345 241.893 228.375 248.964 234.201 254.934C234.373 255.111 234.546 255.284 234.719 255.453C235.116 255.841 235.751 255.801 236.142 255.406C236.417 255.128 236.519 254.719 236.405 254.344C235.961 252.89 235.702 251.381 235.636 249.857C235.636 249.228 235.428 248.618 235.071 248.099C232.072 243.74 230.646 238.77 229.173 233.635C227.206 226.793 225.186 219.711 219.361 213.741C213.535 207.771 206.604 205.701 199.949 203.696C193.571 201.779 187.586 199.981 182.653 194.98C177.721 189.98 175.977 183.781 174.149 177.255C172.193 170.413 170.162 163.331 164.337 157.361C158.511 151.391 151.58 149.321 144.925 147.316C138.547 145.409 132.562 143.601 127.64 138.6C122.718 133.6 120.953 127.4 119.135 120.875C117.179 114.033 115.149 106.951 109.323 100.981C103.498 95.0105 96.5667 92.9405 89.912 90.9359C83.5336 89.0293 77.5486 87.2208 72.6266 82.2201C67.7046 77.2195 65.9399 71.0204 64.1221 64.5053C62.1661 57.6525 60.1356 50.571 54.3101 44.6006C48.4845 38.6304 41.5534 36.5603 34.8986 34.5557C28.5203 32.6492 22.5352 30.8406 17.6133 25.8399C12.6913 20.8393 10.9266 14.6402 9.10879 8.12518C8.91321 7.43368 8.71538 6.74218 8.51325 6.05174C8.12179 4.71464 6.69645 3.98419 5.37376 4.42185C4.07883 4.85034 3.36643 6.23995 3.74929 7.54908C3.94166 8.20687 4.13224 8.86872 4.32502 9.53057Z" fill="#FFE69A"/>
<path d="M24.4511 18.8455C30.2767 24.8158 37.2079 26.8858 43.8626 28.8904C50.241 30.797 56.226 32.6055 61.1586 37.6062C66.0912 42.6068 67.8346 48.8059 69.6631 55.321C71.6191 62.1737 73.6389 69.2553 79.4645 75.2256C85.29 81.1959 92.2212 83.2659 98.876 85.2705C105.254 87.1771 111.239 88.9856 116.172 93.9863C121.105 98.9869 122.848 105.186 124.676 111.701C126.643 118.554 128.663 125.625 134.488 131.595C140.314 137.565 147.245 139.646 153.9 141.651C160.278 143.557 166.263 145.366 171.196 150.366C176.129 155.367 177.872 161.566 179.7 168.081C181.656 174.934 183.687 182.005 189.512 187.975C195.338 193.945 202.269 196.026 208.924 198.031C215.302 199.937 221.287 201.746 226.209 206.747C227.866 208.438 229.412 209.88 230.692 211.486C231.281 212.225 233.044 211.81 233.472 210.966C233.493 210.924 233.52 210.864 233.535 210.819C233.554 210.76 233.574 210.702 233.594 210.645C233.932 209.669 233.936 208.577 233.373 207.71C232.311 206.074 231.094 204.546 229.739 203.151C223.913 197.181 216.982 195.111 210.327 193.106C203.949 191.189 197.964 189.391 193.042 184.391C188.12 179.39 186.355 173.18 184.537 166.665C182.581 159.823 180.551 152.741 174.725 146.771C168.9 140.801 161.969 138.731 155.314 136.726C148.935 134.809 142.95 133.011 138.028 128.01C133.106 123.01 131.342 116.811 129.524 110.285C127.568 103.443 125.538 96.3613 119.712 90.391C113.886 84.4207 106.955 82.3507 100.3 80.3461C93.9221 78.4395 87.9371 76.631 83.0151 71.6303C78.0931 66.6297 76.3284 60.4306 74.5106 53.9046C72.5546 47.0628 70.5242 39.9812 64.6986 34.0109C58.873 28.0406 51.9419 25.9706 45.2871 23.966C38.9088 22.0594 32.9237 20.2509 28.0017 15.2502C25.4983 12.5536 23.5105 9.40965 22.1325 5.98216C21.6015 4.66133 20.1403 3.91972 18.8006 4.4012C17.5483 4.85127 16.8618 6.20987 17.3371 7.45282C18.955 11.6839 21.3697 15.5563 24.4511 18.8455Z" fill="#FFE69A"/>
<path d="M34.7742 8.26666C40.5998 14.237 47.5309 16.307 54.1857 18.3116C60.564 20.2182 66.5491 22.0267 71.4817 27.0274C76.4143 32.028 78.1577 38.2271 79.9862 44.7422C81.9422 51.5949 83.962 58.6656 89.7876 64.6359C95.6131 70.6062 102.544 72.6871 109.199 74.6917C115.577 76.5983 121.562 78.4068 126.495 83.4075C131.428 88.4082 133.171 94.6073 135 101.122C136.956 107.975 138.975 115.046 144.801 121.016C150.626 126.986 157.558 129.067 164.212 131.072C170.591 132.978 176.576 134.787 181.508 139.788C186.441 144.788 188.184 150.987 190.013 157.502C191.98 164.355 193.999 171.426 199.825 177.396C204.977 182.803 211.437 186.713 218.545 188.727C224.924 190.633 228.538 191.341 235.703 195.449C235.845 195.527 235.986 195.608 236.125 195.692C237.377 196.443 239.442 195.72 240.04 194.387C240.049 194.367 240.058 194.348 240.067 194.328C240.365 193.673 240.543 192.668 239.977 192.224C232.758 186.722 226.933 185.11 220.257 183.105C213.879 181.198 208.393 178.998 203.471 173.953C198.549 168.909 196.785 162.743 194.967 156.228C193.011 149.386 190.98 142.304 185.155 136.334C179.329 130.364 172.398 128.294 165.743 126.289C159.365 124.372 153.38 122.574 148.458 117.573C143.536 112.573 141.771 106.363 139.953 99.8476C137.997 93.0057 135.967 85.9242 130.141 79.9539C124.316 73.9836 117.385 71.9136 110.73 69.909C104.351 68.0024 98.3664 66.1939 93.4445 61.1932C88.5225 56.1925 86.7578 49.9934 84.94 43.4675C82.984 36.6256 80.9535 29.5441 75.128 23.5737C69.3024 17.6035 62.3712 15.5334 55.7165 13.5288C49.3381 11.6223 43.3531 9.81372 38.4311 4.81305C37.4724 3.82774 35.9043 3.66177 34.8541 4.5489L34.8117 4.58465C33.7585 5.47424 33.6178 7.06012 34.5709 8.05621C34.6383 8.12665 34.7061 8.19685 34.7742 8.26666Z" fill="#FFE69A"/>
<path d="M64.517 7.73291C70.8954 9.63948 76.8804 11.448 81.8024 16.4487C86.7244 21.4494 88.4784 27.6485 90.3069 34.1635C92.2629 41.0163 94.2827 48.0869 100.108 54.0572C105.934 60.0275 112.865 62.1084 119.52 64.113C125.898 66.0196 131.883 67.8281 136.816 72.8288C141.748 77.8295 143.534 84.1375 145.416 90.6744C147.372 97.5271 149.392 104.598 155.217 110.568C161.043 116.538 167.974 118.619 174.629 120.624C181.007 122.531 186.992 124.328 191.925 129.34C196.857 134.351 198.601 140.539 200.429 147.054C202.417 153.864 204.437 160.978 210.262 166.937C216.088 172.897 223.019 174.989 229.674 176.993C233.671 178.189 237.526 179.353 241.066 181.3C241.961 181.793 243.105 181.476 243.669 180.624C244.296 179.676 244.025 178.342 243.087 177.699C242.318 177.172 241.595 176.574 240.928 175.914C240.52 175.509 240.051 175.167 239.518 174.953C236.756 173.843 233.939 172.884 231.077 172.08C224.699 170.173 218.714 168.375 213.792 163.364C208.87 158.352 207.105 152.153 205.287 145.638C203.331 138.796 201.301 131.715 195.475 125.744C189.65 119.774 182.719 117.704 176.064 115.7C169.686 113.782 163.7 111.984 158.779 106.984C153.857 101.983 152.092 95.7731 150.274 89.258C148.318 82.4162 146.288 75.3346 140.462 69.3643C134.636 63.394 127.705 61.324 121.051 59.3194C114.672 57.4019 108.687 55.6043 103.765 50.6036C98.8432 45.6029 97.0786 39.4039 95.2607 32.8779C93.3047 26.036 91.2849 18.9545 85.4593 12.9842C79.6338 7.01387 72.7026 4.94388 66.0372 2.93924L65.5488 2.78943C64.2123 2.37953 62.7976 3.13579 62.396 4.47478C61.9905 5.82689 62.7746 7.24832 64.1346 7.62656L64.517 7.73291Z" fill="#FFE69A"/>
<path d="M100.672 23.6281C102.628 30.4809 104.648 37.5515 110.474 43.5218C116.299 49.4921 123.23 51.573 129.885 53.5777C136.264 55.4842 142.259 57.2928 147.181 62.2934C152.103 67.2941 153.857 73.4932 155.686 80.0082C157.642 86.8501 159.661 93.9317 165.487 99.902C171.313 105.872 178.244 107.953 184.898 109.958C191.277 111.864 197.262 113.662 202.194 118.674C207.127 123.685 208.87 129.873 210.699 136.388C212.655 143.23 214.675 150.312 220.5 156.282C223.821 159.94 227.931 162.737 232.489 164.457C233.357 164.785 235.729 164.902 235.702 163.974C235.616 162.028 234.344 160.052 232.652 159.087C229.272 157.159 226.851 155.578 224.03 152.643C219.097 147.588 217.343 141.433 215.525 134.918C213.569 128.076 211.539 120.994 205.713 115.024C199.888 109.054 192.956 106.984 186.302 104.979C179.923 103.061 173.938 101.264 169.016 96.2631C164.094 91.2625 162.33 85.0525 160.512 78.5374C158.556 71.6956 156.525 64.614 150.7 58.6437C144.874 52.6734 137.943 50.6034 131.288 48.5988C124.91 46.6813 118.925 44.8837 114.003 39.883C109.081 34.8823 107.316 28.6832 105.499 22.1573C103.781 16.1581 102.013 9.96791 97.6326 4.49297C96.7466 3.38555 95.105 3.37068 94.1008 4.37226C93.1313 5.33928 93.1198 6.89528 93.9556 7.98C97.5292 12.6178 99.0556 17.9967 100.672 23.6281Z" fill="#FFE69A"/>
<path d="M110.996 13.0492C112.952 19.9019 114.972 26.9726 120.797 32.9429C126.623 38.9132 133.554 40.9941 140.209 42.9987C146.587 44.9053 152.583 46.703 157.505 51.7145C162.427 56.7261 164.181 62.9143 166.009 69.4293C167.965 76.2712 169.985 83.3528 175.811 89.3231C181.636 95.2934 188.567 97.3743 195.222 99.3789C201.601 101.285 207.596 103.083 212.518 108.095C217.44 113.106 219.194 119.294 221.023 125.809C222.979 132.651 224.999 139.733 230.824 145.703C233.504 148.45 236.117 150.842 239.06 152.41C239.711 152.757 240.501 152.595 241.066 152.121C242.312 151.074 242.233 148.585 240.866 147.702C238.567 146.22 236.488 144.304 234.322 142.119C229.4 137.075 227.635 130.919 225.817 124.404C223.861 117.562 221.831 110.481 216.005 104.51C210.179 98.54 203.248 96.47 196.594 94.4654C190.215 92.5479 184.23 90.7503 179.308 85.7496C174.386 80.7489 172.622 74.539 170.804 68.0239C168.848 61.182 166.828 54.1005 161.002 48.1302C155.177 42.1599 148.246 40.0899 141.58 38.0852C135.202 36.1678 129.217 34.3701 124.295 29.3695C119.373 24.3688 117.608 18.1588 115.79 11.6437C115.249 9.74939 114.692 7.8115 114.048 5.88007C113.606 4.55466 112.133 3.91027 110.836 4.43032C109.569 4.9385 108.947 6.3696 109.376 7.66584C109.951 9.40482 110.461 11.1933 110.996 13.0492Z" fill="#FFE69A"/>
<path d="M132.075 21.7978C137.901 27.768 144.832 29.8489 151.487 31.8536C157.865 33.7601 163.861 35.5578 168.783 40.5693C173.705 45.5809 175.469 51.7691 177.287 58.2841C179.243 65.126 181.263 72.2075 187.089 78.1778C192.914 84.1481 199.845 86.2181 206.5 88.2337C212.878 90.1402 218.747 92.341 223.668 97.3852C228.59 102.429 232.173 107.387 234.001 113.902C235.957 120.743 236.319 128.631 242.144 134.602C243.041 135.52 244.394 134.523 243.984 133.307C243.28 131.224 242.704 129.097 242.259 126.938C242.189 126.595 242.062 126.267 241.888 125.963C239.656 122.074 238.427 117.78 237.148 113.346C235.192 106.504 233.172 99.4225 227.336 93.4522C221.5 87.4819 214.579 85.401 207.925 83.3964C201.546 81.4898 195.561 79.6922 190.639 74.6807C185.717 69.6691 183.953 63.4809 182.135 56.9659C180.179 50.124 178.159 43.0424 172.333 37.0721C166.508 31.1018 159.577 29.021 152.911 27.0163C146.533 25.1097 140.548 23.3121 135.626 18.3006C131.906 14.488 130.001 10.0138 128.576 5.59508C128.149 4.27155 126.748 3.51587 125.419 3.92815C124.113 4.3337 123.37 5.71724 123.792 7.01851C125.361 11.8551 127.608 17.2191 132.075 21.7978Z" fill="#FFE69A"/>
<path d="M9.53513 90.5438C14.4677 95.5881 16.2218 101.744 18.0396 108.27C19.9956 115.111 22.0261 122.193 27.8517 128.163C33.6772 134.134 40.6084 136.204 47.2631 138.208C53.6415 140.115 59.6265 141.923 64.5484 146.924C69.4704 151.925 71.2351 158.124 73.0529 164.65C75.009 171.492 77.0394 178.573 82.865 184.543C88.6905 190.514 95.6217 192.584 102.276 194.588C108.655 196.495 114.64 198.303 119.562 203.304C124.484 208.305 126.248 214.504 128.066 221.019C130.15 227.948 132.18 235.04 137.974 241.022C143.768 247.003 150.731 249.062 157.385 251.067C163.764 252.973 169.749 254.782 174.671 259.782C179.593 264.783 181.357 270.982 183.175 277.497C185.131 284.35 187.162 291.431 192.987 297.402C198.813 303.372 205.744 305.442 212.399 307.447C217.557 308.997 222.48 310.48 226.787 313.679C228.014 314.59 230.185 314.294 231.308 313.257C232.098 312.529 232.027 311.314 231.181 310.652C225.907 306.528 219.396 304.226 213.802 302.544C207.424 300.637 201.428 298.829 196.506 293.828C191.584 288.828 189.83 282.629 188.002 276.113C186.046 269.261 184.026 262.179 178.2 256.209C172.375 250.239 165.443 248.169 158.789 246.164C152.41 244.257 146.425 242.449 141.493 237.448C136.56 232.447 134.817 226.248 132.988 219.733C131.032 212.881 129.012 205.799 123.187 199.829C117.361 193.858 110.43 191.788 103.775 189.784C97.397 187.877 91.412 186.069 86.4794 181.068C81.5468 176.067 79.8034 169.868 77.9749 163.353C76.0189 156.5 73.9991 149.419 68.1735 143.449C62.3479 137.478 55.4168 135.408 48.762 133.404C42.3837 131.497 36.3986 129.689 31.466 124.688C26.5334 119.687 24.79 113.488 22.9616 106.973C21.0055 100.12 18.9751 93.0387 13.1495 87.0684C10.9659 84.8675 8.48241 83.0101 5.78048 81.5521C4.54226 80.884 3.03458 81.4868 2.48 82.7799C1.92676 84.0699 2.53486 85.553 3.76571 86.2277C5.87192 87.3821 7.81449 88.8339 9.53513 90.5438Z" fill="#FFE69A"/>
<path d="M229.938 310.275C230.28 310.292 230.614 310.392 230.905 310.573C232.909 311.821 234.762 313.31 236.423 315.007C237.645 316.26 238.756 317.62 239.741 319.071C240.497 320.183 240.103 321.675 238.955 322.376C237.756 323.107 236.198 322.693 235.384 321.548C234.646 320.512 233.832 319.535 232.947 318.624C232.303 317.966 230.41 316.431 228.326 314.815C226.603 313.479 227.761 310.165 229.938 310.275Z" fill="#FFE69A"/>
<path d="M2.5721 71.2053C8.95046 73.1119 14.9355 74.9204 19.8681 79.9211C24.8007 84.9218 26.5441 91.1208 28.3725 97.6468C30.3286 104.489 32.359 111.57 38.1846 117.541C44.0102 123.511 50.9413 125.581 57.5961 127.585C63.9744 129.492 69.9594 131.301 74.8814 136.301C79.8034 141.302 81.5681 147.501 83.3859 154.016C85.3419 160.869 87.3724 167.95 93.1979 173.921C99.0235 179.891 105.955 181.961 112.609 183.966C118.988 185.872 124.973 187.681 129.895 192.681C134.817 197.682 136.581 203.881 138.399 210.396C140.355 217.249 142.386 224.331 148.211 230.301C154.037 236.271 160.968 238.341 167.623 240.346C174.001 242.252 179.986 244.061 184.908 249.062C189.83 254.062 191.595 260.261 193.413 266.776C195.369 273.629 197.399 280.7 203.225 286.67C209.05 292.64 215.981 294.721 222.636 296.726C224.946 297.339 227.219 298.089 229.442 298.972C230.983 299.584 232.749 298.132 232.671 296.475C232.614 295.454 232.033 294.506 231.076 294.145C228.754 293.268 226.395 292.494 224.007 291.823C217.629 289.917 211.644 288.108 206.711 283.108C201.779 278.107 200.035 271.908 198.207 265.382C196.251 258.54 194.231 251.458 188.406 245.488C182.58 239.518 175.649 237.448 168.994 235.443C162.616 233.537 156.631 231.728 151.698 226.727C146.766 221.727 145.022 215.528 143.194 209.013C141.238 202.16 139.218 195.078 133.392 189.108C127.567 183.138 120.635 181.068 113.981 179.063C107.602 177.156 101.617 175.348 96.6848 170.347C91.7522 165.347 90.0088 159.147 88.1803 152.632C86.2136 145.78 84.1938 138.698 78.3682 132.728C72.5427 126.757 65.6115 124.687 58.9568 122.683C52.5784 120.776 46.5934 118.968 41.6714 113.967C36.7495 108.966 34.9848 102.767 33.167 96.2523C31.2109 89.3995 29.1805 82.3179 23.3549 76.3476C17.5293 70.3773 10.5982 68.3073 3.94346 66.3027C3.46352 66.1587 2.9584 66.4342 2.81954 66.9157L1.92135 70.0302C1.77592 70.5344 2.06751 71.061 2.5721 71.2053Z" fill="#FFE69A"/>
<path d="M227.013 295.646C227.424 294.256 228.894 293.463 230.266 293.929C235.028 295.548 240.168 297.852 244.588 302.391C249.073 306.997 251.352 312.347 252.923 317.277C253.337 318.577 252.593 319.952 251.291 320.359C249.956 320.777 248.544 320.018 248.122 318.683C246.722 314.244 244.885 309.705 241.069 305.997C237.251 302.286 232.893 300.396 228.637 298.841C227.338 298.367 226.621 296.972 227.013 295.646Z" fill="#FFE69A"/>
<path d="M12.8957 60.6268C19.2741 62.5334 25.2591 64.3419 30.1917 69.3426C35.1243 74.3432 36.8677 80.5424 38.6962 87.0574C40.6628 93.9102 42.6827 100.992 48.5082 106.962C54.3338 112.932 61.265 115.002 67.9197 117.007C74.2981 118.914 80.2831 120.722 85.205 125.723C90.127 130.723 91.8917 136.922 93.7095 143.438C95.6655 150.29 97.696 157.372 103.522 163.342C109.347 169.312 116.278 171.382 122.933 173.387C129.311 175.294 135.296 177.102 140.218 182.103C145.14 187.104 146.905 193.303 148.723 199.818C150.679 206.67 152.709 213.752 158.535 219.722C164.36 225.693 171.292 227.763 177.946 229.767C184.325 231.674 190.31 233.482 195.232 238.483C200.154 243.484 201.918 249.683 203.736 256.198C205.692 263.051 207.723 270.121 213.548 276.092C219.374 282.062 226.305 284.143 232.96 286.147C233.377 286.272 233.795 286.396 234.21 286.521C235.091 286.787 236.042 286.463 236.652 285.773C237.818 284.452 237.459 282.181 235.773 281.67C235.302 281.527 234.832 281.386 234.363 281.245C227.985 279.327 222 277.53 217.067 272.529C212.134 267.528 210.391 261.329 208.562 254.803C206.606 247.961 204.587 240.88 198.761 234.91C192.936 228.939 186.004 226.869 179.35 224.865C172.971 222.958 166.986 221.149 162.054 216.149C157.121 211.148 155.378 204.949 153.549 198.434C151.582 191.581 149.563 184.5 143.737 178.529C137.912 172.559 130.98 170.489 124.326 168.484C117.947 166.578 111.962 164.769 107.03 159.769C102.097 154.768 100.354 148.569 98.5252 142.054C96.5692 135.201 94.5387 128.12 88.7132 122.149C82.8876 116.179 75.9564 114.109 69.3017 112.104C62.9233 110.198 56.9383 108.389 52.0163 103.389C47.0944 98.3879 45.3297 92.1888 43.5119 85.6738C41.5559 78.821 39.5254 71.7394 33.6998 65.7691C27.8743 59.7988 20.9431 57.7288 14.2883 55.7242C11.3941 54.9569 8.55907 53.9758 5.80535 52.789C4.52633 52.2378 3.02123 52.7499 2.40118 53.9969C1.77035 55.2657 2.29498 56.8101 3.59371 57.3767C6.61098 58.6929 9.72005 59.7794 12.8957 60.6268Z" fill="#FFE69A"/>
<path d="M228.669 282.303C229.168 280.952 230.682 280.281 232.043 280.748C233.693 281.315 235.38 281.823 237.127 282.345C243.814 284.35 250.713 286.431 256.539 292.401C262.364 298.371 264.395 305.474 266.351 312.295C266.88 314.155 267.394 315.947 267.973 317.7C268.403 319.003 267.776 320.439 266.503 320.949C265.206 321.469 263.731 320.835 263.288 319.51C262.644 317.586 262.108 315.651 261.567 313.733C259.696 307.196 257.942 301.062 253.063 296.007C248.183 290.952 242.134 289.165 235.767 287.291C233.918 286.737 232.027 286.172 230.143 285.515C228.832 285.057 228.188 283.605 228.669 282.303Z" fill="#FFE69A"/>
<path d="M3.80563 40.0028C9.63119 45.9731 16.5623 48.0431 23.2171 50.0478C29.5954 51.9544 35.5805 53.7629 40.5131 58.7635C45.4457 63.7642 47.1891 69.9633 49.0176 76.4783C50.9736 83.3311 52.9934 90.4127 58.819 96.383C64.6445 102.353 71.5757 104.423 78.2304 106.428C84.6088 108.334 90.5938 110.143 95.5158 115.144C100.438 120.144 102.202 126.343 104.02 132.858C105.976 139.711 108.007 146.793 113.832 152.763C119.658 158.733 126.589 160.803 133.244 162.808C139.622 164.715 145.607 166.523 150.529 171.524C155.451 176.524 157.216 182.724 159.034 189.239C160.99 196.091 163.02 203.162 168.846 209.143C174.671 215.124 181.602 217.184 188.257 219.188C194.635 221.095 200.62 222.903 205.542 227.904C210.464 232.905 212.229 239.104 214.047 245.619C216.003 252.472 218.033 259.542 223.859 265.512C225.185 266.856 226.625 268.07 228.162 269.14C229.68 270.198 231.605 268.657 231.524 266.809C231.473 266.053 231.236 265.3 230.683 264.782C229.536 263.71 228.475 262.978 227.42 261.906C222.498 256.862 220.744 250.707 218.916 244.181C216.96 237.339 214.94 230.257 209.114 224.287C203.289 218.317 196.358 216.247 189.703 214.242C183.325 212.324 177.34 210.527 172.407 205.526C167.474 200.526 165.731 194.326 163.902 187.8C161.936 180.959 159.916 173.877 154.09 167.907C148.265 161.936 141.334 159.866 134.679 157.862C128.301 155.955 122.316 154.147 117.394 149.146C112.472 144.145 110.707 137.946 108.889 131.431C106.933 124.578 104.903 117.497 99.077 111.527C93.2515 105.556 86.3203 103.486 79.6656 101.482C73.2872 99.5751 67.3022 97.7666 62.3802 92.7659C57.4583 87.7652 55.6936 81.5662 53.8758 75.0511C51.9197 68.1983 49.8893 61.1168 44.0637 55.1465C38.2381 49.1762 31.307 47.1062 24.6522 45.1016C18.2739 43.195 12.2889 41.3865 7.36691 36.3858C6.90008 35.9062 6.45263 35.4078 6.02554 34.8917C5.1235 33.8017 3.53247 33.4923 2.37435 34.3051C1.259 35.0878 0.959315 36.6233 1.79937 37.6961C2.42849 38.4995 3.09811 39.2695 3.80563 40.0028Z" fill="#FFE69A"/>
<path d="M229.135 266.898C230.118 265.9 231.719 265.904 232.809 266.783C237.291 270.396 242.491 271.958 247.927 273.596C254.614 275.601 261.513 277.682 267.339 283.652C273.164 289.622 275.195 296.726 277.151 303.546C278.756 309.17 280.288 314.526 283.846 319.112C284.686 320.193 284.678 321.75 283.709 322.717C282.707 323.716 281.068 323.699 280.188 322.591C275.848 317.134 274.068 310.945 272.314 304.93C270.443 298.393 268.689 292.259 263.809 287.204C258.93 282.149 252.87 280.362 246.513 278.488C240.639 276.722 234.577 274.903 229.221 270.379C228.161 269.484 228.162 267.886 229.135 266.898Z" fill="#FFE69A"/>
<path d="M226.629 235.322C228.008 234.533 229.743 235.246 230.169 236.777C230.272 237.15 230.369 237.491 230.449 237.764C232.309 244.3 236.072 248.833 240.994 253.888C245.916 258.943 251.922 260.73 258.28 262.604C264.966 264.619 271.865 266.689 277.691 272.659C283.517 278.63 285.547 285.733 287.503 292.553C289.363 299.09 291.117 305.224 296.008 310.279C300.898 315.334 307 317.153 313.378 319.06C313.573 319.12 313.768 319.179 313.963 319.238C315.293 319.641 316.036 321.041 315.639 322.373C315.232 323.738 313.786 324.504 312.419 324.103C312.271 324.06 312.123 324.016 311.975 323.973C305.299 321.969 298.389 319.888 292.563 313.918C286.738 307.947 284.718 300.844 282.762 294.024C280.891 287.487 279.137 281.353 274.257 276.309C269.378 271.265 263.318 269.456 256.961 267.593C250.285 265.589 241.515 262.331 235.7 256.361C229.885 250.391 229.715 244.486 227.759 237.644C227.638 237.221 227.168 237.091 226.644 237.007C225.513 236.827 225.635 235.891 226.629 235.322Z" fill="#FFE69A"/>
<path d="M227.391 204.114C228.197 203.134 229.626 203.026 230.522 203.924C231.146 204.549 231.76 205.181 232.108 205.537C237.933 211.507 239.964 218.61 241.92 225.431C243.78 231.967 245.534 238.101 250.424 243.156C255.314 248.211 261.352 249.998 267.71 251.872C274.386 253.877 281.295 255.947 287.121 261.917C292.947 267.887 294.966 274.991 296.933 281.811C298.793 288.348 300.547 294.481 305.438 299.536C310.328 304.592 316.376 306.378 322.734 308.252C329.41 310.268 336.319 312.338 342.145 318.308C342.276 318.442 342.406 318.578 342.535 318.716C343.471 319.713 343.311 321.278 342.265 322.161L342.187 322.227C341.14 323.111 339.578 322.943 338.616 321.969C333.694 316.913 327.687 315.116 321.33 313.253C314.654 311.248 307.744 309.167 301.919 303.197C296.093 297.227 294.063 290.123 292.107 283.303C290.246 276.766 288.492 270.633 283.602 265.588C278.712 260.544 272.674 258.736 266.317 256.873C259.641 254.868 252.731 252.787 246.905 246.817C241.08 240.847 239.049 233.743 237.093 226.923C235.233 220.386 233.479 214.253 228.589 209.208C228.327 208.94 227.882 208.351 227.416 207.74C226.632 206.713 226.57 205.112 227.391 204.114Z" fill="#FFE69A"/>
<path d="M229.186 189.378C229.64 188.067 231.065 187.351 232.349 187.878C236.409 189.543 240.126 191.996 243.291 195.111C249.117 201.081 251.137 208.185 253.093 215.005C254.953 221.541 256.718 227.675 261.597 232.73C266.477 237.785 272.526 239.572 278.883 241.446C285.569 243.451 292.479 245.532 298.305 251.502C304.13 257.472 306.15 264.576 308.106 271.396C309.966 277.932 311.731 284.066 316.611 289.11C321.49 294.155 327.539 295.963 333.896 297.826C340.668 299.853 347.567 302.032 353.392 307.958C356.473 311.235 358.89 315.095 360.512 319.314C360.99 320.559 360.304 321.922 359.05 322.375C357.707 322.859 356.241 322.117 355.708 320.792C354.335 317.382 352.36 314.253 349.874 311.564C344.941 306.52 338.935 304.723 332.578 302.849C325.902 300.833 318.992 298.763 313.166 292.793C307.341 286.823 305.321 279.719 303.365 272.899C301.505 266.362 299.74 260.229 294.86 255.184C289.981 250.14 283.932 248.332 277.564 246.469C270.856 244.388 263.936 242.307 258.1 236.336C252.264 230.366 250.254 223.263 248.298 216.443C246.438 209.906 244.673 203.772 239.794 198.728C237.168 196.177 234.111 194.152 230.779 192.746C229.462 192.19 228.719 190.729 229.186 189.378Z" fill="#FFE69A"/>
<path d="M229.378 174.185C229.831 172.879 231.252 172.172 232.575 172.574C233.498 172.854 234.43 173.133 235.17 173.365C242.171 175.356 248.534 179.209 253.614 184.532C259.44 190.503 261.46 197.606 263.416 204.426C265.276 210.963 267.041 217.097 271.92 222.141C276.8 227.185 282.848 228.994 289.205 230.857C295.892 232.861 302.802 234.942 308.628 240.912C314.453 246.883 316.473 253.986 318.429 260.806C320.289 267.343 322.054 273.477 326.933 278.521C331.813 283.565 337.862 285.374 344.219 287.237C350.905 289.241 357.805 291.322 363.63 297.293C369.456 303.263 371.486 310.366 373.442 317.186C373.632 317.854 373.821 318.519 374.015 319.183C374.398 320.496 373.685 321.889 372.386 322.317C371.062 322.755 369.635 322.023 369.246 320.683C369.048 319.998 368.853 319.312 368.658 318.624C366.787 312.088 365.033 305.954 360.154 300.899C355.275 295.844 349.226 294.057 342.858 292.183C336.182 290.167 329.272 288.097 323.447 282.127C317.621 276.157 315.601 269.053 313.645 262.233C311.785 255.697 310.02 249.563 305.141 244.508C300.261 239.453 294.244 237.753 287.866 235.814C281.179 233.809 274.269 231.728 268.444 225.758C262.618 219.788 260.599 212.684 258.642 205.864C256.782 199.327 255.017 193.194 250.138 188.149C245.567 183.396 239.855 179.961 233.576 178.192C232.833 177.965 231.921 177.689 231.013 177.412C229.65 176.996 228.912 175.532 229.378 174.185Z" fill="#FFE69A"/>
<path d="M229.187 160.278C229.953 159.049 231.592 158.726 232.853 159.437C236.461 161.47 240.393 162.639 244.514 163.897C251.2 165.847 258.099 168.026 263.936 173.953C269.772 179.88 271.781 187.027 273.737 193.847C275.597 200.383 277.362 206.517 282.242 211.561C287.121 216.606 293.18 218.414 299.559 220.321C306.245 222.325 313.155 224.406 318.981 230.377C324.806 236.347 326.826 243.45 328.782 250.27C330.643 256.807 332.407 262.941 337.287 267.985C342.166 273.029 348.215 274.838 354.572 276.701C361.259 278.706 368.169 280.786 373.994 286.757C379.82 292.727 381.84 299.83 383.796 306.65C385.032 310.968 386.209 315.091 388.28 318.858C388.929 320.038 388.665 321.546 387.57 322.329C386.429 323.146 384.831 322.861 384.143 321.638C381.688 317.268 380.363 312.61 379.108 308.089C377.247 301.552 375.482 295.418 370.603 290.363C365.724 285.308 359.675 283.521 353.307 281.647C346.631 279.642 339.721 277.572 333.896 271.602C328.07 265.632 326.05 258.529 324.094 251.708C322.234 245.172 320.469 239.038 315.59 233.983C310.71 228.928 304.661 227.141 298.304 225.267C291.618 223.251 284.708 221.181 278.882 215.211C273.057 209.241 271.037 202.137 269.081 195.317C267.221 188.781 265.456 182.647 260.576 177.603C255.697 172.558 249.648 170.75 243.291 168.887C238.823 167.539 234.227 166.159 229.923 163.591C228.777 162.907 228.481 161.41 229.187 160.278Z" fill="#FFE69A"/>
<path d="M227.541 136.511C228.711 135.921 230.127 136.482 230.779 137.619C232.477 140.581 234.956 142.781 237.17 144.723C242.932 149.756 248.47 151.412 254.838 153.319C261.514 155.324 268.424 157.404 274.25 163.375C280.075 169.345 282.095 176.448 284.051 183.269C285.911 189.805 287.676 195.939 292.556 200.983C297.435 206.028 303.484 207.836 309.852 209.699C316.57 211.747 323.491 213.785 329.327 219.799C335.163 225.812 337.172 232.872 339.128 239.692C340.989 246.229 342.753 252.363 347.633 257.407C352.512 262.451 358.561 264.26 364.918 266.123C371.605 268.127 378.515 270.208 384.34 276.179C390.166 282.149 392.186 289.252 394.142 296.072C396.002 302.609 397.767 308.743 402.646 313.787C404.782 315.919 407.241 317.673 409.923 318.983C411.192 319.603 411.864 321.072 411.356 322.391C410.854 323.695 409.388 324.359 408.124 323.763C404.793 322.193 401.745 320.043 399.117 317.404C393.291 311.434 391.271 304.331 389.315 297.511C387.455 290.974 385.69 284.84 380.811 279.785C375.931 274.73 369.883 272.943 363.525 271.069C356.839 269.064 349.929 266.994 344.103 261.024C338.278 255.054 336.258 247.95 334.302 241.13C332.442 234.594 330.677 228.46 325.797 223.405C320.918 218.35 314.869 216.563 308.512 214.689C301.825 212.673 294.916 210.603 289.09 204.633C283.264 198.663 281.245 191.559 279.289 184.739C277.428 178.202 275.664 172.069 270.784 167.014C265.905 161.958 259.856 160.172 253.499 158.298C246.812 156.293 239.902 154.212 234.077 148.242C231.433 145.533 228.511 142.988 226.574 139.238C226.052 138.229 226.526 137.023 227.541 136.511Z" fill="#FFE69A"/>
<path d="M229.145 99.8781C230.195 98.9075 231.853 99.0109 232.669 100.186C236.181 105.249 237.778 110.837 239.326 116.266C241.186 122.803 242.951 128.936 247.83 133.981C252.71 139.025 258.759 140.833 265.126 142.696C271.802 144.701 278.712 146.782 284.538 152.752C290.363 158.722 292.383 165.826 294.339 172.646C296.2 179.183 297.964 185.316 302.844 190.361C307.723 195.405 313.772 197.213 320.14 199.076C326.816 201.081 333.726 203.162 339.551 209.132C345.377 215.103 347.396 222.206 349.353 229.026C351.213 235.563 352.978 241.697 357.857 246.741C362.736 251.785 368.785 253.594 375.142 255.457C381.829 257.461 388.739 259.542 394.564 265.512C400.39 271.483 402.41 278.586 404.366 285.406C406.226 291.943 407.991 298.077 412.87 303.121C417.75 308.165 423.937 310.104 430.315 312.011C435.665 313.614 441.174 315.267 446.161 318.951C447.252 319.756 447.373 321.309 446.512 322.356C445.612 323.45 443.992 323.572 442.833 322.758C438.658 319.823 433.927 318.408 428.923 316.914C422.247 314.909 415.337 312.839 409.511 306.869C403.685 300.898 401.666 293.795 399.71 286.975C397.849 280.438 396.085 274.304 391.205 269.249C386.326 264.194 380.277 262.407 373.92 260.534C367.233 258.529 360.323 256.459 354.498 250.489C348.672 244.518 346.652 237.415 344.696 230.595C342.836 224.058 341.071 217.924 336.192 212.869C331.312 207.814 325.264 206.027 318.906 204.153C312.22 202.149 305.31 200.079 299.484 194.108C293.659 188.138 291.639 181.035 289.683 174.215C287.823 167.678 286.058 161.544 281.179 156.489C276.299 151.434 270.25 149.647 263.893 147.773C257.207 145.758 250.307 143.688 244.482 137.717C238.656 131.747 236.626 124.644 234.67 117.824C233.197 112.649 231.788 107.731 228.826 103.372C228.08 102.275 228.171 100.778 229.145 99.8781Z" fill="#FFE69A"/>
<path d="M229.246 81.247C229.765 80.0896 231.124 79.5581 232.247 80.1501C235.04 81.6238 237.604 83.5253 239.847 85.7929C245.672 91.7632 247.692 98.8665 249.648 105.687C251.519 112.223 253.273 118.357 258.152 123.401C263.032 128.446 269.081 130.254 275.448 132.117C282.124 134.122 289.034 136.203 294.86 142.173C300.686 148.143 302.705 155.247 304.661 162.067C306.522 168.604 308.286 174.737 313.166 179.782C318.045 184.826 324.094 186.634 330.451 188.497C337.138 190.502 344.048 192.583 349.873 198.553C355.699 204.523 357.719 211.627 359.675 218.447C361.535 224.984 363.3 231.117 368.179 236.162C373.059 241.206 379.107 243.015 385.464 244.878C392.151 246.882 399.061 248.952 404.887 254.933C410.712 260.915 412.732 268.007 414.688 274.827C416.548 281.364 418.313 287.498 423.192 292.542C428.072 297.586 434.121 299.395 440.478 301.258C447.324 303.437 454.244 305.507 460.081 311.477C462.268 313.754 464.107 316.351 465.54 319.178C466.151 320.383 465.577 321.823 464.346 322.381C463.055 322.965 461.547 322.355 460.885 321.103C459.724 318.906 458.262 316.886 456.541 315.105C451.619 310.061 445.612 308.252 439.255 306.389C432.569 304.384 425.659 302.314 419.833 296.344C414.008 290.374 411.988 283.27 410.032 276.45C408.171 269.914 406.407 263.769 401.527 258.725C396.648 253.68 390.599 251.872 384.242 250.009C377.555 248.004 370.645 245.934 364.82 239.964C358.994 233.994 356.975 226.89 355.018 220.07C353.158 213.533 351.393 207.4 346.514 202.345C341.635 197.289 335.586 195.503 329.229 193.629C322.542 191.624 315.632 189.554 309.807 183.584C303.981 177.614 301.961 170.51 300.005 163.69C298.145 157.153 296.38 151.02 291.501 145.964C286.621 140.909 280.572 139.123 274.215 137.249C267.529 135.244 260.629 133.174 254.804 127.204C248.978 121.233 246.948 114.13 244.992 107.31C243.131 100.773 241.367 94.6394 236.487 89.5843C234.671 87.5287 232.572 85.7607 230.261 84.334C229.212 83.6864 228.741 82.3718 229.246 81.247Z" fill="#FFE69A"/>
<path d="M229.677 65.7828C229.791 65.3024 230.286 65.017 230.759 65.1589C237.435 67.1635 244.345 69.2444 250.17 75.2147C255.996 81.185 258.016 88.2884 259.972 95.1085C261.843 101.645 263.597 107.779 268.476 112.823C273.356 117.868 279.415 119.676 285.772 121.539C292.448 123.544 299.358 125.625 305.184 131.595C311.009 137.565 313.029 144.669 314.985 151.489C316.845 158.025 318.61 164.159 323.489 169.203C328.369 174.248 334.418 176.056 340.785 177.919C347.461 179.924 354.371 182.005 360.197 187.975C366.022 193.945 368.042 201.049 369.998 207.869C371.859 214.406 373.623 220.539 378.503 225.584C383.382 230.628 389.431 232.436 395.788 234.299C402.475 236.304 409.385 238.374 415.21 244.344C421.036 250.315 423.056 257.418 425.012 264.249C426.872 270.786 428.637 276.919 433.516 281.964C438.396 287.008 444.444 288.816 450.801 290.679C457.658 292.858 464.568 294.928 470.394 300.942C476.219 306.956 478.239 314.016 480.195 320.836C480.335 321.279 480.086 321.752 479.64 321.886L476.566 322.81C476.072 322.958 475.551 322.673 475.411 322.176C473.551 315.639 471.786 309.506 466.907 304.461C462.027 299.417 455.979 297.608 449.621 295.745C442.935 293.741 436.025 291.671 430.199 285.701C424.374 279.73 422.354 272.627 420.398 265.807C418.538 259.27 416.773 253.125 411.893 248.081C407.014 243.037 400.965 241.228 394.608 239.365C387.921 237.361 381.012 235.291 375.186 229.32C369.36 223.35 367.341 216.247 365.385 209.427C363.524 202.89 361.76 196.756 356.88 191.701C352.001 186.646 345.952 184.859 339.595 182.985C332.908 180.981 326.009 178.911 320.183 172.94C314.358 166.97 312.327 159.867 310.371 153.047C308.511 146.51 306.746 140.376 301.867 135.321C296.987 130.266 290.939 128.479 284.581 126.605C277.895 124.6 270.996 122.53 265.17 116.56C259.344 110.59 257.314 103.486 255.358 96.6664C253.498 90.1296 251.733 83.9958 246.853 78.9407C241.974 73.8855 235.925 72.0988 229.568 70.2249C229.072 70.0717 228.779 69.5596 228.899 69.0541L229.677 65.7828Z" fill="#FFE69A"/>
<path d="M228.949 53.3603C229.434 52.0279 230.985 51.4269 232.309 51.9351C235.106 53.0089 238.181 53.7012 241.08 54.58C247.756 56.5846 254.666 58.6655 260.492 64.6358C266.317 70.6061 268.337 77.7095 270.293 84.5296C272.164 91.0664 273.918 97.2001 278.797 102.244C283.677 107.289 289.736 109.097 296.093 110.96C302.769 112.965 309.679 115.046 315.505 121.016C321.33 126.986 323.35 134.09 325.306 140.91C327.177 147.447 328.931 153.58 333.811 158.625C338.69 163.669 344.739 165.477 351.107 167.34C357.783 169.345 364.693 171.415 370.518 177.396C376.344 183.377 378.364 190.47 380.32 197.29C382.18 203.827 383.945 209.96 388.824 215.005C393.704 220.049 399.752 221.857 406.12 223.72C412.796 225.725 419.706 227.795 425.532 233.765C431.357 239.736 433.377 246.839 435.333 253.67C437.193 260.207 438.958 266.341 443.837 271.385C448.717 276.429 454.766 278.238 461.133 280.101C467.809 282.105 474.719 284.175 480.545 290.146C486.37 296.116 488.39 303.219 490.346 310.039C491.149 313.126 492.176 316.145 493.419 319.072C493.942 320.305 493.458 321.749 492.269 322.367C491.007 323.023 489.448 322.495 488.898 321.183C487.603 318.093 486.534 314.907 485.701 311.652C483.84 305.115 482.076 298.981 477.196 293.937C472.317 288.893 466.268 287.084 459.911 285.221C453.224 283.217 446.314 281.147 440.489 275.176C434.663 269.206 432.643 262.103 430.687 255.282C428.827 248.746 427.062 242.601 422.183 237.557C417.303 232.513 411.255 230.704 404.898 228.841C398.211 226.836 391.301 224.766 385.475 218.796C379.65 212.826 377.63 205.722 375.674 198.902C373.814 192.365 372.049 186.221 367.17 181.177C362.29 176.132 356.241 174.324 349.884 172.461C343.198 170.456 336.298 168.386 330.473 162.416C324.647 156.446 322.617 149.342 320.661 142.522C318.8 135.985 317.036 129.852 312.156 124.796C307.277 119.741 301.228 117.955 294.871 116.081C288.184 114.076 281.285 112.006 275.459 106.036C269.634 100.065 267.603 92.9621 265.647 86.142C263.787 79.6052 262.033 73.4714 257.143 68.4163C252.253 63.3612 246.215 61.5744 239.858 59.7005C236.534 58.8056 233.285 57.6473 230.138 56.2366C229.044 55.746 228.539 54.4871 228.949 53.3603Z" fill="#FFE69A"/>
<path d="M228.546 33.6155C229.612 32.8245 231.099 32.9432 232.026 33.8933L232.534 34.4135C237.466 39.4686 245.088 42.1378 251.445 44.0444C258.1 46.0055 264.989 48.0863 270.857 54.0566C276.725 60.027 278.702 67.1303 280.669 73.9504C282.529 80.4872 284.283 86.6209 289.173 91.6652C294.064 96.7095 300.112 98.518 306.47 100.381C313.146 102.386 320.055 104.466 325.881 110.437C331.707 116.407 333.726 123.51 335.682 130.331C337.553 136.867 339.307 143.001 344.187 148.045C349.066 153.09 355.126 154.898 361.483 156.761C368.159 158.766 375.069 160.836 380.894 166.806C386.72 172.776 388.74 179.88 390.696 186.711C392.567 193.248 394.321 199.381 399.2 204.425C404.08 209.47 410.128 211.278 416.496 213.141C423.172 215.146 430.082 217.216 435.908 223.186C441.733 229.156 443.753 236.26 445.709 243.091C447.569 249.628 449.334 255.761 454.214 260.806C459.093 265.85 465.142 267.658 471.51 269.521C478.186 271.526 485.095 273.596 490.921 279.566C496.747 285.537 498.766 292.64 500.722 299.46C502.583 305.997 504.347 312.142 509.227 317.186C509.731 317.702 510.256 318.194 510.802 318.661C511.829 319.539 512.16 321.027 511.462 322.183C510.696 323.452 509.008 323.813 507.877 322.855C507.177 322.261 506.502 321.635 505.857 320.977C500.031 315.007 498.012 307.903 496.056 301.072C494.195 294.536 492.431 288.402 487.551 283.358C482.672 278.313 476.623 276.505 470.266 274.642C463.537 272.615 456.627 270.524 450.801 264.553C444.976 258.583 442.956 251.48 441 244.649C439.139 238.112 437.375 231.978 432.495 226.934C427.616 221.89 421.567 220.081 415.21 218.218C408.523 216.214 401.624 214.144 395.798 208.173C389.973 202.203 387.942 195.1 385.986 188.279C384.126 181.743 382.361 175.598 377.482 170.554C372.602 165.51 366.554 163.701 360.197 161.838C353.51 159.833 346.611 157.763 340.785 151.793C334.96 145.823 332.929 138.719 330.973 131.899C329.113 125.363 327.348 119.218 322.469 114.174C317.589 109.129 311.54 107.332 305.183 105.458C298.497 103.453 291.597 101.383 285.772 95.413C279.946 89.4427 277.916 82.3393 275.96 75.5192C274.099 68.9824 272.345 62.8487 267.455 57.7935C262.565 52.7384 256.527 50.9516 250.17 49.0778C243.494 47.0731 236.063 45.1884 230.237 39.2725C229.515 38.6592 228.822 38.0113 228.16 37.3312C227.108 36.2501 227.335 34.5143 228.546 33.6155Z" fill="#FFE69A"/>
<path d="M232.137 3.37238C233.451 2.86069 234.921 3.56733 235.316 4.92121C235.509 5.58481 235.7 6.25031 235.893 6.91581C237.753 13.4526 239.507 19.5864 244.397 24.6306C249.288 29.6749 255.336 31.4834 261.693 33.3464C268.37 35.351 275.279 37.4319 281.105 43.4022C286.931 49.3725 288.95 56.4758 290.917 63.2959C292.777 69.8328 294.531 75.9665 299.421 81.0108C304.312 86.055 310.36 87.8635 316.717 89.7265C323.393 91.7312 330.303 93.8012 336.129 99.7715C341.954 105.742 343.974 112.845 345.93 119.676C347.801 126.213 349.555 132.347 354.435 137.391C359.314 142.435 365.469 144.364 371.848 146.237C378.524 148.242 385.434 150.312 391.259 156.282C397.085 162.253 399.105 169.356 401.061 176.187C402.932 182.724 404.686 188.858 409.565 193.902C414.445 198.946 420.493 200.755 426.861 202.618C433.537 204.622 440.447 206.692 446.273 212.663C452.098 218.633 454.118 225.736 456.074 232.567C457.934 239.104 459.699 245.238 464.578 250.282C469.458 255.326 475.507 257.135 481.874 258.998C488.55 261.002 495.46 263.072 501.286 269.043C507.111 275.013 509.131 282.116 511.087 288.936C512.948 295.473 514.712 301.618 519.592 306.662C524.471 311.706 530.52 313.515 536.877 315.378C537.539 315.575 538.201 315.771 538.862 315.972C540.209 316.381 540.958 317.8 540.567 319.152C540.154 320.577 538.639 321.376 537.22 320.945C536.665 320.776 536.111 320.61 535.559 320.444C528.872 318.439 521.962 316.369 516.137 310.399C510.311 304.429 508.291 297.325 506.335 290.494C504.475 283.958 502.71 277.824 497.831 272.78C492.952 267.735 486.903 265.927 480.546 264.064C473.901 262.016 466.949 259.946 461.145 253.975C455.34 248.005 453.299 240.902 451.343 234.071C449.483 227.534 447.718 221.4 442.839 216.356C437.959 211.312 431.911 209.503 425.554 207.64C418.867 205.635 411.968 203.565 406.142 197.595C400.316 191.625 398.286 184.521 396.33 177.69C394.47 171.154 392.705 165.02 387.826 159.976C382.946 154.931 376.897 153.123 370.54 151.26C363.854 149.255 356.954 147.185 351.129 141.215C345.303 135.245 343.273 128.141 341.317 121.321C339.456 114.784 337.702 108.64 332.812 103.596C327.922 98.5513 321.884 96.7427 315.527 94.8797C308.851 92.8751 301.941 90.8051 296.115 84.8348C290.29 78.8645 288.259 71.7611 286.303 64.941C284.443 58.4042 282.689 52.2705 277.799 47.2153C272.909 42.1602 266.871 40.3735 260.513 38.4996C253.837 36.4949 246.928 34.425 241.102 28.4547C235.276 22.4844 233.246 15.381 231.29 8.56092C231.085 7.83756 230.879 7.11417 230.669 6.39347C230.307 5.15799 230.937 3.83942 232.137 3.37238Z" fill="#FFE69A"/>
<path d="M245.579 3.45383C246.9 2.90342 248.4 3.616 248.937 4.94205C250.312 8.33289 252.284 11.4442 254.762 14.1168C259.684 19.161 265.691 20.9695 272.048 22.8325C278.724 24.8372 285.634 26.918 291.459 32.8883C297.285 38.8586 299.315 45.962 301.271 52.7821C303.131 59.3189 304.886 65.4526 309.776 70.4969C314.666 75.5411 320.714 77.3496 327.072 79.2126C333.748 81.2173 340.657 83.2873 346.483 89.2576C352.309 95.2279 354.328 102.331 356.295 109.162C358.155 115.699 359.909 121.833 364.8 126.877C369.69 131.921 375.738 133.73 382.096 135.593C388.772 137.597 395.681 139.667 401.507 145.638C407.333 151.608 409.352 158.711 411.308 165.542C413.179 172.079 414.933 178.213 419.813 183.257C424.692 188.301 430.752 190.11 437.109 191.973C443.785 193.978 450.695 196.048 456.52 202.018C462.346 207.988 464.366 215.092 466.322 221.912C468.193 228.448 469.947 234.593 474.826 239.637C479.706 244.682 485.754 246.49 492.122 248.353C498.798 250.358 505.708 252.428 511.534 258.398C517.359 264.368 519.379 271.472 521.335 278.292C523.195 284.829 524.96 290.973 529.84 296.017C532.497 298.672 535.619 300.776 539.033 302.225C540.332 302.776 541.065 304.215 540.611 305.551C540.167 306.857 538.754 307.574 537.476 307.056C533.406 305.405 529.678 302.961 526.502 299.852C520.676 293.838 518.656 286.779 516.7 279.915C514.84 273.378 513.075 267.244 508.196 262.2C503.316 257.156 497.267 255.347 490.91 253.484C484.224 251.48 477.324 249.41 471.499 243.44C465.673 237.469 463.643 230.366 461.687 223.535C459.826 216.998 458.062 210.864 453.182 205.82C448.303 200.776 442.254 198.967 435.897 197.104C429.21 195.1 422.311 193.03 416.485 187.059C410.66 181.089 408.629 173.986 406.673 167.155C404.813 160.618 403.059 154.484 398.169 149.44C393.279 144.396 387.241 142.587 380.884 140.724C374.208 138.72 367.298 136.65 361.472 130.679C355.647 124.709 353.616 117.606 351.66 110.786C349.8 104.249 348.046 98.1041 343.156 93.0598C338.266 88.0156 332.227 86.207 325.87 84.3441C319.194 82.3394 312.284 80.2694 306.459 74.2991C300.633 68.3288 298.603 61.2255 296.647 54.4054C294.786 47.8686 293.032 41.7239 288.142 36.6797C283.252 31.6354 277.214 29.8378 270.857 27.9639C264.181 25.9593 257.271 23.8893 251.446 17.919C248.323 14.5947 245.883 10.6715 244.261 6.38269C243.819 5.215 244.427 3.93403 245.579 3.45383Z" fill="#FFE69A"/>
<path d="M261.592 3.34739C262.576 2.421 264.121 2.54651 265.073 3.50529C269.995 8.54954 276.001 10.3581 282.358 12.2211C289.034 14.2257 295.944 16.2957 301.77 22.266C307.595 28.2363 309.626 35.3397 311.582 42.1707C313.442 48.7075 315.196 54.8412 320.086 59.8855C324.976 64.9297 331.015 66.7382 337.372 68.6012C344.048 70.6059 350.958 72.6759 356.783 78.6462C362.609 84.6165 364.629 91.7198 366.595 98.5508C368.456 105.088 370.21 111.221 375.1 116.266C379.99 121.31 386.039 123.118 392.396 124.981C399.072 126.986 405.982 129.056 411.807 135.026C417.633 140.997 419.653 148.1 421.609 154.931C423.48 161.468 425.234 167.602 430.113 172.646C434.993 177.69 441.052 179.499 447.409 181.362C454.085 183.366 460.995 185.436 466.82 191.406C472.646 197.377 474.666 204.48 476.622 211.3C478.493 217.837 480.247 223.982 485.126 229.026C490.006 234.07 496.225 236.053 502.603 237.96C509.268 239.932 516.178 242.034 522.004 248.005C527.829 253.975 529.849 261.078 531.805 267.898C533.666 274.435 535.43 280.569 540.31 285.624C541.294 286.603 541.487 288.188 540.617 289.27C539.731 290.372 538.103 290.536 537.116 289.524C537.021 289.427 536.927 289.329 536.834 289.23C530.997 283.26 528.978 276.156 527.022 269.336C525.161 262.8 523.397 256.666 518.517 251.622C513.638 246.577 507.589 244.769 501.232 242.906C494.545 240.901 487.646 238.831 481.82 232.861C475.995 226.891 473.964 219.787 472.008 212.956C470.148 206.419 468.383 200.286 463.504 195.241C458.624 190.197 452.576 188.389 446.218 186.526C439.532 184.521 432.633 182.451 426.807 176.481C420.981 170.51 418.951 163.407 416.995 156.576C415.135 150.039 413.381 143.905 408.49 138.861C403.6 133.817 397.562 132.008 391.205 130.145C384.529 128.141 377.619 126.071 371.794 120.101C365.968 114.13 363.938 107.027 361.982 100.196C360.121 93.6591 358.367 87.5253 353.477 82.4811C348.587 77.4368 342.549 75.6283 336.192 73.7653C329.516 71.7607 322.606 69.6907 316.78 63.7204C310.955 57.7501 308.924 50.6467 306.968 43.8266C305.108 37.2898 303.354 31.1452 298.464 26.101C293.574 21.0567 287.525 19.2482 281.168 17.3852C274.492 15.3806 267.582 13.3106 261.756 7.34025C261.592 7.17216 261.43 7.00165 261.27 6.82908C260.379 5.87043 260.492 4.38309 261.445 3.486L261.592 3.34739Z" fill="#FFE69A"/>
<path d="M289.107 6.12013C289.466 4.65653 290.982 3.79548 292.423 4.23591L292.692 4.31822C299.379 6.32282 306.278 8.39283 312.104 14.3631C317.929 20.3334 319.96 27.4368 321.916 34.2678C323.776 40.8046 325.53 46.9383 330.42 51.9826C335.31 57.0268 341.348 58.8354 347.705 60.6984C354.381 62.703 361.291 64.7729 367.117 70.7433C372.942 76.7136 374.973 83.8169 376.929 90.6479C378.789 97.1847 380.543 103.318 385.433 108.363C390.323 113.407 396.372 115.216 402.729 117.079C409.405 119.083 416.315 121.153 422.141 127.123C427.966 133.094 429.986 140.197 431.942 147.017C433.813 153.554 435.567 159.699 440.447 164.743C445.326 169.787 451.386 171.596 457.743 173.459C464.419 175.463 471.329 177.533 477.154 183.504C482.98 189.474 484.999 196.577 486.956 203.397C488.826 209.934 490.581 216.079 495.46 221.123C500.339 226.167 506.399 227.965 512.756 229.839C519.613 232.018 526.501 234.088 532.369 240.058C538.237 246.028 540.172 253.11 542.128 259.995C542.187 260.19 542.245 260.386 542.303 260.584C542.69 261.894 541.951 263.276 540.648 263.683C539.318 264.099 537.908 263.343 537.522 262.004C537.463 261.8 537.404 261.595 537.345 261.39C535.484 254.853 533.719 248.719 528.84 243.675C523.961 238.631 517.912 236.822 511.555 234.959C504.868 232.955 497.969 230.885 492.143 224.914C486.318 218.944 484.287 211.841 482.331 205.01C480.471 198.473 478.717 192.339 473.827 187.295C468.937 182.251 462.898 180.442 456.541 178.579C449.865 176.575 442.955 174.505 437.13 168.534C431.304 162.564 429.274 155.461 427.318 148.63C425.458 142.093 423.703 135.959 418.813 130.915C413.923 125.871 407.885 124.062 401.528 122.199C394.852 120.194 387.942 118.124 382.117 112.154C376.291 106.184 374.261 99.0804 372.305 92.2494C370.444 85.7126 368.69 79.5789 363.8 74.5346C358.91 69.4904 352.872 67.6819 346.515 65.8189C339.839 63.8142 332.929 61.7442 327.103 55.7739C321.278 49.8036 319.258 42.7003 317.291 35.8802C315.431 29.3434 313.677 23.1987 308.787 18.1545C303.897 13.1102 297.848 11.3017 291.491 9.4387L290.893 9.25706C289.559 8.8518 288.775 7.47416 289.107 6.12013Z" fill="#FFE69A"/>
<path d="M320.885 3.43412C321.881 2.36303 323.584 2.34999 324.49 3.49868C328.775 8.93358 330.537 15.0865 332.291 21.068C334.151 27.6048 335.905 33.7386 340.796 38.7828C345.686 43.8271 351.724 45.6356 358.081 47.4986C364.757 49.5032 371.667 51.5732 377.492 57.5435C383.318 63.5138 385.348 70.6172 387.304 77.4373C389.165 83.9741 390.919 90.1187 395.809 95.163C400.699 100.207 406.737 102.016 413.094 103.879C419.77 105.883 426.68 107.953 432.506 113.924C438.331 119.894 440.351 126.997 442.318 133.817C444.178 140.354 445.932 146.499 450.822 151.543C455.712 156.587 461.761 158.396 468.118 160.259C474.794 162.264 481.704 164.334 487.53 170.304C493.355 176.274 495.375 183.378 497.331 190.198C499.202 196.734 500.956 202.868 505.836 207.923C510.715 212.978 516.774 214.765 523.132 216.639C529.017 218.409 535.092 220.231 540.455 224.774C541.502 225.661 541.514 227.236 540.57 228.231C539.593 229.259 537.969 229.272 536.858 228.39C532.454 224.892 527.297 223.344 521.835 221.705C515.148 219.701 508.249 217.62 502.423 211.649C496.598 205.679 494.567 198.576 492.611 191.756C490.751 185.219 488.997 179.085 484.107 174.041C479.217 168.997 473.178 167.188 466.821 165.325C460.145 163.32 453.235 161.25 447.41 155.28C441.584 149.31 439.554 142.206 437.598 135.375C435.737 128.839 433.983 122.705 429.093 117.661C424.203 112.616 418.165 110.808 411.808 108.945C405.132 106.94 398.222 104.87 392.396 98.8999C386.571 92.9296 384.54 85.8262 382.584 78.9952C380.724 72.4584 378.97 66.3247 374.08 61.2804C369.19 56.2362 363.141 54.4277 356.784 52.5647C350.108 50.56 343.198 48.49 337.372 42.5197C331.547 36.5494 329.527 29.4461 327.56 22.6151C325.948 16.9668 324.411 11.5895 320.819 6.99112C319.994 5.93353 319.971 4.41668 320.885 3.43412Z" fill="#FFE69A"/>
<path d="M337.577 3.31057C338.881 2.76051 340.385 3.39326 340.835 4.73552C341.476 6.64752 342.013 8.56546 342.55 10.478C344.411 17.0149 346.165 23.1486 351.055 28.1928C355.945 33.2371 361.983 35.0456 368.34 36.9086C375.016 38.9132 381.926 40.9832 387.752 46.9535C393.577 52.9238 395.608 60.0272 397.564 66.8473C399.424 73.3841 401.178 79.5287 406.068 84.573C410.958 89.6172 416.996 91.4257 423.354 93.2887C430.03 95.2933 436.939 97.3633 442.765 103.334C448.591 109.304 450.717 116.473 452.641 123.358C454.501 129.895 456.255 136.029 461.145 141.084C466.035 146.139 472.074 147.926 478.431 149.8C485.107 151.804 492.017 153.874 497.842 159.845C503.668 165.815 505.688 172.918 507.654 179.738C509.515 186.275 511.269 192.409 516.159 197.464C521.049 202.519 527.098 204.306 533.455 206.18C535.298 206.733 537.184 207.297 539.064 207.951C540.379 208.41 541.018 209.872 540.521 211.173C540.014 212.501 538.519 213.155 537.174 212.692C535.512 212.12 533.813 211.608 532.051 211.082C525.375 209.078 518.466 206.997 512.64 201.027C506.814 195.056 504.784 187.953 502.828 181.133C500.968 174.596 499.214 168.462 494.323 163.418C489.433 158.374 483.395 156.565 477.038 154.702C470.362 152.698 463.452 150.628 457.627 144.646C451.801 138.665 449.771 131.573 447.815 124.753C445.954 118.216 444.2 112.082 439.31 107.038C434.42 101.994 428.382 100.185 422.025 98.3221C415.349 96.3175 408.439 94.2475 402.613 88.2772C396.788 82.3069 394.768 75.2035 392.801 68.3725C390.941 61.8357 389.187 55.702 384.297 50.6577C379.407 45.6135 373.358 43.8049 367.001 41.9419C360.325 39.9373 353.415 37.8673 347.589 31.897C341.764 25.9267 339.744 18.8234 337.788 11.9924C337.248 10.1201 336.734 8.31643 336.149 6.55195C335.721 5.26288 336.325 3.8383 337.577 3.31057Z" fill="#FFE69A"/>
<path d="M351.178 3.32251C352.523 2.87448 353.964 3.63229 354.4 4.98077C355.823 9.3768 357.727 13.8193 361.43 17.614C366.352 22.6582 372.358 24.4667 378.715 26.3297C385.391 28.3344 392.301 30.4043 398.127 36.3747C403.952 42.345 405.983 49.4483 407.939 56.2684C409.799 62.8052 411.553 68.9498 416.443 73.9941C421.333 79.0384 427.371 80.8469 433.728 82.7099C440.447 84.8017 447.325 86.8717 453.182 92.8528C459.04 98.834 461.038 105.926 462.995 112.747C464.855 119.283 466.609 125.417 471.499 130.472C476.389 135.527 482.427 137.314 488.784 139.188C495.46 141.193 502.37 143.263 508.196 149.233C514.021 155.203 516.052 162.307 518.008 169.127C519.868 175.664 521.622 181.797 526.512 186.852C530.223 190.655 534.575 192.607 538.876 194.066C540.196 194.514 540.95 195.912 540.555 197.249C540.152 198.613 538.708 199.39 537.361 198.932C532.587 197.308 527.428 195.012 522.994 190.459C517.168 184.488 515.138 177.385 513.182 170.565C511.321 164.028 509.567 157.894 504.677 152.85C499.787 147.806 493.749 145.997 487.392 144.134C480.716 142.13 473.806 140.049 467.98 134.078C462.155 128.108 460.135 121.005 458.168 114.185C456.308 107.648 454.554 101.514 449.664 96.4699C444.774 91.4257 438.725 89.6171 432.368 87.7541C425.692 85.7495 418.782 83.6795 412.956 77.6983C407.131 71.7171 405.111 64.6247 403.144 57.8046C401.284 51.2677 399.53 45.134 394.64 40.0898C389.75 35.0455 383.701 33.237 377.344 31.374C370.668 29.3694 363.758 27.2994 357.932 21.3291C353.424 16.7082 351.152 11.3313 349.589 6.38516C349.184 5.10373 349.903 3.74731 351.178 3.32251Z" fill="#FFE69A"/>
<path d="M365.73 3.38991C366.924 2.60847 368.521 3.00558 369.352 4.16615C370.079 5.18207 370.881 6.14134 371.75 7.03545C376.672 12.0797 382.678 13.8882 389.036 15.7512C395.722 17.7558 402.621 19.8258 408.447 25.7961C414.273 31.7665 416.303 38.8698 418.259 45.6899C420.119 52.2267 421.873 58.3604 426.763 63.4156C431.654 68.4707 437.756 70.301 444.134 72.2185C450.81 74.2231 457.72 76.2931 463.545 82.2634C469.371 88.2337 471.401 95.3371 473.357 102.157C475.218 108.694 476.972 114.828 481.862 119.883C486.752 124.938 492.79 126.725 499.147 128.599C505.791 130.647 512.733 132.717 518.548 138.687C524.363 144.657 526.404 151.761 528.36 158.581C530.22 165.118 531.974 171.251 536.865 176.307C537.766 177.229 538.735 178.076 539.762 178.842C540.863 179.662 541.267 181.172 540.58 182.36C539.876 183.577 538.304 183.988 537.169 183.159C535.837 182.187 534.587 181.101 533.431 179.913C527.605 173.942 525.575 166.839 523.619 160.019C521.758 153.482 520.004 147.348 515.114 142.304C510.224 137.26 504.186 135.451 497.829 133.588C491.153 131.584 484.243 129.503 478.418 123.533C472.592 117.562 470.572 110.459 468.605 103.639C466.745 97.102 464.991 90.9683 460.101 85.9241C455.211 80.8798 449.162 79.0713 442.805 77.2083C436.129 75.2037 429.219 73.1337 423.394 67.1525C417.568 61.1713 415.548 54.0788 413.592 47.2587C411.721 40.7219 409.967 34.5882 405.088 29.5439C400.208 24.4997 394.149 22.6911 387.792 20.8282C381.116 18.8235 374.206 16.7535 368.38 10.7832C367.136 9.50543 366.008 8.1162 365.009 6.63301C364.28 5.55083 364.638 4.10429 365.73 3.38991Z" fill="#FFE69A"/>
<path d="M386.979 3.34793C387.601 2.04605 389.168 1.51262 390.486 2.099C393.357 3.37619 396.324 4.41873 399.358 5.21624C406.045 7.22086 412.944 9.29085 418.77 15.2612C424.595 21.2315 426.626 28.3348 428.582 35.1549C430.442 41.6917 432.207 47.8255 437.086 52.8806C441.966 57.9358 448.015 59.7225 454.372 61.5964C461.058 63.601 467.958 65.671 473.783 71.6413C479.609 77.6116 481.639 84.715 483.595 91.535C485.456 98.0719 487.21 104.206 492.1 109.261C496.99 114.316 503.028 116.103 509.385 117.977C516.061 119.981 522.971 122.051 528.797 128.021C534.622 133.992 536.653 141.095 538.609 147.915C539.423 151.156 540.499 154.319 541.826 157.374C542.358 158.597 541.896 160.04 540.724 160.675C539.468 161.356 537.895 160.85 537.328 159.539C535.917 156.277 534.77 152.899 533.899 149.44C532.039 142.904 530.285 136.77 525.395 131.726C520.505 126.681 514.456 124.873 508.099 123.01C501.423 121.005 494.513 118.924 488.687 112.954C482.862 106.984 480.842 99.8804 478.886 93.0603C477.015 86.5235 475.261 80.3897 470.381 75.3455C465.502 70.3012 459.443 68.4927 453.085 66.6297C446.409 64.6251 439.5 62.5442 433.674 56.5739C427.848 50.6036 425.829 43.5003 423.873 36.6802C422.002 30.1433 420.248 24.0096 415.368 18.9654C410.489 13.9211 404.429 12.1126 398.072 10.2496C394.682 9.35085 391.371 8.17015 388.172 6.71994C386.892 6.13997 386.374 4.61565 386.979 3.34793Z" fill="#FFE69A"/>
<path d="M423.485 3.40236C424.264 2.16527 425.927 1.82217 427.043 2.76697C427.756 3.37066 428.441 4.00995 429.094 4.68266C434.93 10.653 436.95 17.7563 438.906 24.5764C440.766 31.1132 442.531 37.2469 447.41 42.3021C452.29 47.3572 458.338 49.144 464.696 51.0178C471.382 53.0225 478.281 55.0925 484.107 61.0628C489.933 67.0331 491.963 74.1364 493.919 80.9565C495.779 87.4933 497.533 93.627 502.424 98.6822C507.314 103.737 513.352 105.524 519.709 107.398C526.385 109.413 533.295 111.483 539.12 117.454C539.862 118.208 540.564 119.002 541.223 119.83C542.077 120.903 541.78 122.451 540.656 123.235C539.503 124.039 537.924 123.731 537.023 122.652C536.598 122.143 536.152 121.652 535.687 121.18C530.754 116.125 524.748 114.327 518.391 112.464C511.715 110.459 504.805 108.378 498.979 102.408C493.154 96.4379 491.134 89.3345 489.178 82.5144C487.307 75.9776 485.553 69.8439 480.673 64.7996C475.794 59.7554 469.734 57.9469 463.377 56.0839C456.701 54.0792 449.791 51.9984 443.966 46.0281C438.14 40.0578 436.121 32.9544 434.164 26.1343C432.294 19.5975 430.539 13.4638 425.66 8.41954C425.163 7.91182 424.646 7.42643 424.109 6.96465C423.073 6.07318 422.756 4.55871 423.485 3.40236Z" fill="#FFE69A"/>
<path d="M442.667 3.30302C443.94 2.63641 445.517 3.16851 446.071 4.49475C447.359 7.57657 448.425 10.7526 449.258 13.9972C451.119 20.534 452.883 26.6678 457.763 31.7229C462.642 36.7781 468.691 38.5648 475.048 40.4387C481.735 42.4542 488.634 44.5242 494.46 50.4945C500.285 56.4648 502.316 63.5681 504.272 70.3882C506.132 76.9251 507.897 83.0588 512.776 88.1139C517.656 93.169 523.704 94.9558 530.062 96.8297C533.238 97.6893 536.347 98.7862 539.364 100.111C540.658 100.68 541.182 102.219 540.556 103.487C539.937 104.741 538.424 105.257 537.14 104.702C534.388 103.514 531.553 102.536 528.658 101.776C521.982 99.7713 515.072 97.6904 509.247 91.7201C503.421 85.7498 501.401 78.6464 499.445 71.8263C497.574 65.2895 495.82 59.1558 490.941 54.1115C486.061 49.0673 480.002 47.2588 473.645 45.3958C466.969 43.3911 460.059 41.3102 454.233 35.3399C448.408 29.3696 446.388 22.2663 444.432 15.4462C443.67 12.426 442.691 9.46867 441.504 6.59817C440.993 5.36149 441.481 3.92359 442.667 3.30302Z" fill="#FFE69A"/>
<path d="M458.394 2.78061C458.889 2.634 459.409 2.92086 459.55 3.41843C461.41 9.95527 463.175 16.089 468.054 21.1441C472.934 26.1993 478.983 27.986 485.34 29.8599C492.026 31.8754 498.926 33.9455 504.751 39.9158C510.577 45.8861 512.607 52.9894 514.563 59.8095C516.424 66.3464 518.188 72.4801 523.068 77.5353C527.947 82.5904 533.996 84.3771 540.353 86.251C540.843 86.4024 541.122 86.9179 540.981 87.4112L540.085 90.5413C539.946 91.0286 539.436 91.3086 538.95 91.1645C532.274 89.1599 525.364 87.079 519.538 81.1087C513.713 75.1384 511.693 68.0351 509.737 61.215C507.866 54.6781 506.112 48.5444 501.232 43.5001C496.353 38.4559 490.304 36.6474 483.936 34.7844C477.26 32.7797 470.351 30.6988 464.525 24.7285C458.699 18.7582 456.68 11.6548 454.724 4.83474C454.582 4.34001 454.866 3.82384 455.359 3.67793L458.394 2.78061Z" fill="#FFE69A"/>
<path d="M470.601 3.31065C471.896 2.71035 473.421 3.31768 474.09 4.57887C475.251 6.76824 476.708 8.78418 478.42 10.5658C483.342 15.61 489.348 17.4076 495.705 19.2815C502.392 21.2862 509.302 23.3671 515.127 29.3374C520.953 35.3077 522.973 42.4219 524.929 49.2747C526.789 55.8115 528.554 61.9453 533.433 66.9895C535.176 68.7566 537.153 70.2572 539.302 71.4492C540.527 72.1289 541.128 73.6101 540.575 74.8972C540.019 76.19 538.512 76.7934 537.273 76.1262C534.569 74.6703 532.085 72.8115 529.904 70.6066C524.078 64.6363 522.058 57.5329 520.102 50.7128C518.242 44.176 516.477 38.0422 511.598 32.998C506.718 27.9537 500.67 26.1452 494.302 24.2822C487.626 22.2776 480.716 20.1967 474.89 14.2264C472.697 11.9471 470.854 9.34516 469.421 6.51051C468.814 5.30986 469.38 3.87634 470.601 3.31065Z" fill="#FFE69A"/>
<path d="M488.493 3.31559C489.392 2.23165 491.003 2.11377 492.154 2.92495C496.333 5.86882 501.062 7.29165 506.027 8.77872C512.713 10.7398 519.612 12.8207 525.449 18.7692C531.285 24.7177 533.294 31.8429 535.25 38.663C536.714 43.7974 538.115 48.6947 541.041 53.0361C541.804 54.1684 541.683 55.7176 540.649 56.6087C539.586 57.5237 537.971 57.3954 537.169 56.2454C533.625 51.1651 532.021 45.5528 530.466 40.101C528.606 33.5642 526.841 27.4305 521.962 22.3753C517.082 17.3202 511.034 15.5335 504.666 13.6596C499.328 12.0483 493.823 10.3942 488.838 6.72233C487.744 5.91685 487.626 4.36082 488.493 3.31559Z" fill="#FFE69A"/>
<path d="M523.532 3.23352C524.035 1.91681 525.508 1.23824 526.785 1.83319C530.126 3.38902 533.173 5.55207 535.774 8.22436C538.421 10.943 540.552 14.1324 542.068 17.6297C542.6 18.8586 541.958 20.2507 540.715 20.7492C539.392 21.2798 537.902 20.597 537.303 19.3036C536.029 16.5565 534.321 14.0375 532.241 11.8511C530.108 9.73042 527.657 7.9844 524.986 6.67691C523.704 6.04937 523.024 4.5672 523.532 3.23352Z" fill="#FFE69A"/>
</svg>
