<svg width="20" height="20" viewBox="0 0 20 20" fill="none" xmlns="http://www.w3.org/2000/svg">
<path d="M17.9207 8.92052L10.9206 8.94169V2.07928C10.9206 1.48135 10.4392 1 9.84128 1C9.24354 1 8.762 1.48135 8.762 2.07928L8.78316 8.92072H2.07928C1.48135 8.92072 1 9.40207 1 10C1 10.5977 1.48135 11.0791 2.07928 11.0791H8.77258V17.9207C8.77258 18.5183 9.25393 19 9.85186 19C10.4498 19 10.9311 18.5183 10.9311 17.9207V11.0793H17.9207C18.5187 11.0793 19 10.5976 19 10C19 9.40187 18.5133 8.92052 17.9207 8.92052Z" fill="#FFD452" stroke="#FFD452" stroke-width="2"/>
</svg>
