<svg class="checked" version="1.1" xmlns="http://www.w3.org/2000/svg" xmlns:xlink="http://www.w3.org/1999/xlink" x="0px" y="0px"
	 viewBox="0 0 27.3 27.3" style="enable-background:new 0 0 27.3 27.3;" xml:space="preserve">
<g >
	<polygon class="st0" fill="#FFFFFF" points="8.4,11.2 6.7,13 12.4,18.8 25.1,5.9 23.3,4.1 12.4,15.2 	"/>
	<path class="st0" fill="#FFFFFF" d="M23.8,13.7L23.8,13.7c0,5.7-4.6,10.3-10.2,10.3S3.5,19.3,3.5,13.7C3.5,8,8.1,3.4,13.7,3.4c1,0,1.9,0.1,2.8,0.4
		l2-2.1c-1.5-0.5-3.2-0.9-4.8-0.9c-7,0-12.7,5.8-12.7,12.9c0,7.1,5.7,12.9,12.7,12.9c7,0,12.7-5.8,12.7-12.9H23.8z"/>
</g>
</svg>
