<svg width="13" height="13" viewBox="0 0 13 13" fill="none" xmlns="http://www.w3.org/2000/svg"><path d="M.989.989a.644.644 0 0 1 .911 0l10.113 10.113a.643.643 0 1 1-.911.911L.989 1.9a.644.644 0 0 1 0-.911z" fill="#333" stroke="#333" stroke-width=".4"/><path d="M.989 11.103a.644.644 0 0 0 0 .911.643.643 0 0 0 .911 0L12.013 1.901a.644.644 0 0 0 0-.911M.99 11.103L11.243 1.13a.444.444 0 0 1 .629 0l.141-.141M.99 11.103L11.102.99.989 11.103zM12.013.99a.644.644 0 0 0-.911 0h.911z" fill="#333" stroke="#333" stroke-width=".4"/></svg>