<?xml version="1.0" encoding="utf-8"?>
<!-- Generator: Adobe Illustrator 25.2.1, SVG Export Plug-In . SVG Version: 6.00 Build 0)  -->
<svg version="1.1" id="Layer_1" xmlns="http://www.w3.org/2000/svg" xmlns:xlink="http://www.w3.org/1999/xlink" x="0px" y="0px"
	 viewBox="0 0 350 164" style="enable-background:new 0 0 350 164;" xml:space="preserve">
<style type="text/css">
	.st0{fill-rule:evenodd;clip-rule:evenodd;fill:#26328A;}
	.st1{fill-rule:evenodd;clip-rule:evenodd;fill:#FFED00;}
	.st2{fill:none;stroke:#FFFFFF;stroke-width:1.1913;stroke-miterlimit:22.9256;}
	.st3{fill-rule:evenodd;clip-rule:evenodd;fill:#E3000F;}
	.st4{fill-rule:evenodd;clip-rule:evenodd;fill:#FFFFFF;}
	.st5{fill:#26328A;}
</style>
<rect x="76.7" y="96.7" transform="matrix(0.9659 -0.2588 0.2588 0.9659 -24.6919 26.1222)" class="st0" width="20.4" height="20.4"/>
<rect x="56.8" y="86" transform="matrix(0.9659 -0.2588 0.2588 0.9659 -21.9384 19.739)" class="st0" width="14.4" height="14.4"/>
<polygon class="st1" points="80.7,107 74.7,102.7 68.8,107.1 71,100.1 64.9,95.7 72.4,95.7 74.7,88.5 77,95.7 84.5,95.6 78.4,100 
	"/>
<polygon class="st2" points="80.7,107 74.7,102.7 68.8,107.1 71,100.1 64.9,95.7 72.4,95.7 74.7,88.5 77,95.7 84.5,95.6 78.4,100 
	"/>
<rect x="128.8" y="41" class="st3" width="9.6" height="9.6"/>
<rect x="94.1" y="72.3" class="st3" width="22.1" height="22.1"/>
<polygon class="st4" points="96.2,74.4 114.1,74.4 114.1,92.2 111.8,76.8 "/>
<rect x="113.6" y="53.2" transform="matrix(0.9659 -0.2588 0.2588 0.9659 -11.8323 33.734)" class="st3" width="17.2" height="17.2"/>
<polygon class="st4" points="130.7,66.7 117.3,70.3 113.7,57 118.5,68.1 "/>
<path class="st5" d="M131.8,94.2v-1.4c0-0.2-0.1-0.3-0.3-0.3h-3.1c-0.7,0-1-0.2-1-1v-1.6h3.9c0.2,0,0.3-0.1,0.3-0.3v-1.4
	c0-0.2-0.1-0.3-0.3-0.3h-3.9v-1.4c0-0.8,0.3-1,1-1h3.1c0.2,0,0.3-0.1,0.3-0.3v-1.4c0-0.2-0.1-0.3-0.3-0.3c-0.5-0.1-1.3-0.2-2.9-0.2
	c-2,0-3.7,0.5-3.7,3.2v5c0,2.8,1.7,3.3,3.7,3.3c1.6,0,2.4-0.1,2.9-0.2C131.7,94.5,131.8,94.4,131.8,94.2"/>
<path class="st5" d="M142.5,90.4v-6.7c0-0.2-0.2-0.3-0.3-0.3h-2c-0.2,0-0.3,0.1-0.3,0.3v6.7c0,1.5-0.4,2.2-1.8,2.2
	c-1.4,0-1.8-0.6-1.8-2.2v-6.7c0-0.2-0.1-0.3-0.3-0.3h-2c-0.2,0-0.3,0.1-0.3,0.3v6.7c0,3.4,2,4.4,4.4,4.4
	C140.6,94.7,142.5,93.8,142.5,90.4"/>
<path class="st5" d="M150.5,87c0,1-0.5,1.4-2.1,1.4c-0.2,0-0.9,0-1.1,0v-2.9c0.2,0,1,0,1.2,0c1.3,0,2,0.4,2,1.3V87z M153.4,94.4
	c0,0,0-0.1,0-0.2l-2.3-4.3c1.1-0.4,2-1.4,2-3v-0.2c0-2.7-2-3.5-4.6-3.5c-1.1,0-2.4,0.1-3.1,0.2c-0.5,0.1-0.7,0.2-0.7,0.7v10.1
	c0,0.2,0.1,0.3,0.3,0.3h2c0.2,0,0.3-0.1,0.3-0.3v-3.8c0.3,0,0.8,0,1.1,0l0.2,0l2,3.8c0.1,0.2,0.1,0.3,0.3,0.3h2.3
	C153.4,94.6,153.4,94.5,153.4,94.4z"/>
<path class="st5" d="M161,89.9c0,1.8-0.6,2.6-1.9,2.6c-1.3,0-1.9-0.8-1.9-2.6v-1.8c0-1.8,0.6-2.6,1.9-2.6c1.3,0,1.9,0.8,1.9,2.6
	V89.9z M163.6,89.9v-1.8c0-3.5-2-4.9-4.5-4.9c-2.5,0-4.5,1.3-4.5,4.9v1.8c0,3.5,2,4.9,4.5,4.9C161.6,94.7,163.6,93.4,163.6,89.9z"/>
<path class="st5" d="M171.3,87c0,1-0.6,1.5-1.9,1.5c-0.2,0-1.1,0-1.2,0v-3.1c0.2,0,1,0,1.2,0c1.3,0,1.9,0.4,1.9,1.5V87z M173.8,87
	v-0.1c0-2.8-2.3-3.6-4.5-3.6c-1.1,0-2.3,0.1-3.1,0.2c-0.5,0.1-0.7,0.2-0.7,0.7v10.2c0,0.2,0.1,0.3,0.3,0.3h2c0.2,0,0.3-0.1,0.3-0.3
	v-3.7c0.4,0,0.9,0,1.2,0C171.6,90.7,173.8,89.8,173.8,87z"/>
<path class="st5" d="M182.7,91.4c0-1.2-0.5-2.2-2-3.1l-1.9-1c-0.8-0.4-1-0.6-1-1.1c0-0.5,0.3-0.8,1.2-0.8c1,0,2.8,0.1,3.2,0.2
	c0,0,0,0,0,0c0.2,0,0.3-0.1,0.3-0.3v-1.5c0-0.2-0.1-0.2-0.2-0.3c-0.6-0.2-2.1-0.3-3.2-0.3c-2.9,0-3.9,1.3-3.9,2.9
	c0,1.1,0.4,2.1,1.8,2.9l2.1,1.2c0.8,0.5,1,0.7,1,1.1c0,0.7-0.3,1.1-1.3,1.1c-0.6,0-2.3-0.1-2.9-0.2c0,0,0,0,0,0
	c-0.2,0-0.3,0.1-0.3,0.3v1.5c0,0.2,0.2,0.3,0.3,0.3c0.8,0.2,1.7,0.3,2.9,0.3C181.7,94.7,182.7,93,182.7,91.4"/>
<path class="st5" d="M193.4,83.5c0-0.1-0.1-0.2-0.2-0.2h-2.3c-0.2,0-0.3,0.1-0.3,0.2l-3.3,4.9v-4.8c0-0.2-0.1-0.3-0.3-0.3h-2
	c-0.2,0-0.3,0.1-0.3,0.3v10.6c0,0.2,0.1,0.3,0.3,0.3h2c0.2,0,0.3-0.1,0.3-0.3v-4.9l3.1,5c0.1,0.1,0.2,0.2,0.3,0.2h2.6
	c0.1,0,0.2-0.1,0.2-0.2c0,0,0-0.1-0.1-0.2l-3.6-5.4l3.6-5.1C193.3,83.7,193.4,83.6,193.4,83.5"/>
<path class="st5" d="M197.5,94.3V83.7c0-0.2-0.1-0.3-0.3-0.3h-2c-0.2,0-0.3,0.1-0.3,0.3v10.6c0,0.2,0.1,0.3,0.3,0.3h2
	C197.4,94.6,197.5,94.5,197.5,94.3"/>
<path class="st5" d="M210.2,91.7c0-1.2-0.6-2-2.4-3.1l-1.4-0.8c-1.1-0.7-1.6-1.1-1.6-1.8c0-1.1,0.7-1.4,2.2-1.4c0.9,0,1.9,0,2.6,0.1
	c0,0,0,0,0,0c0.2,0,0.3-0.1,0.3-0.2v-0.7c0-0.2-0.1-0.2-0.3-0.3c-0.6-0.1-1.7-0.2-2.6-0.2c-2.3,0-3.6,0.8-3.6,2.7
	c0,1.2,0.7,2,2.1,2.8l1.5,0.9c1.4,0.8,1.8,1.3,1.8,2c0,1.1-0.5,1.8-2.3,1.8c-0.7,0-1.8,0-2.5-0.1c0,0,0,0,0,0
	c-0.1,0-0.3,0.1-0.3,0.2v0.6c0,0.2,0,0.2,0.3,0.3c0.7,0.1,1.5,0.2,2.5,0.2C209.5,94.7,210.2,93.1,210.2,91.7"/>
<path class="st5" d="M219.5,84.3v-0.7c0-0.2-0.1-0.3-0.3-0.3h-7.3c-0.2,0-0.3,0.1-0.3,0.3v0.7c0,0.2,0.1,0.2,0.3,0.2h2.9v9.8
	c0,0.2,0.1,0.3,0.3,0.3h0.8c0.2,0,0.3-0.2,0.3-0.3v-9.8h2.9C219.4,84.5,219.5,84.5,219.5,84.3"/>
<path class="st5" d="M227.2,86.6c0,1.6-1,2.1-2.9,2.1c-0.3,0-1,0-1.7,0v-4.1c0.4,0,1.2,0,1.7,0c1.9,0,2.9,0.5,2.9,2V86.6z M229,94.4
	c0,0,0-0.1,0-0.1l-2.8-4.6c1.4-0.4,2.4-1.4,2.4-3.1v-0.1c0-2.4-1.8-3.3-4.2-3.3c-0.9,0-2,0-2.7,0.1c-0.3,0-0.4,0.1-0.4,0.3v10.6
	c0,0.2,0.1,0.3,0.3,0.3h0.8c0.2,0,0.3-0.2,0.3-0.3v-4.4c0.8,0,1.2,0,1.7,0c0.1,0,0.2,0,0.3,0c0,0,0.1,0,0.1,0l2.7,4.5
	c0.1,0.2,0.2,0.2,0.4,0.2h1C228.9,94.6,229,94.5,229,94.4z"/>
<path class="st5" d="M238.6,90.5v-6.9c0-0.2-0.1-0.3-0.3-0.3h-0.8c-0.2,0-0.3,0.1-0.3,0.3v6.9c0,2-0.6,3-2.5,3c-1.9,0-2.5-1.1-2.5-3
	v-6.9c0-0.2-0.1-0.3-0.3-0.3h-0.8c-0.2,0-0.3,0.1-0.3,0.3v6.9c0,2.9,1.4,4.2,3.9,4.2C237.2,94.7,238.6,93.4,238.6,90.5"/>
<path class="st5" d="M248.4,94.5c0-0.1,0-0.1-0.1-0.2l-4.6-5.4l4.6-5.1c0,0,0.1-0.1,0.1-0.2c0-0.1-0.1-0.2-0.2-0.2h-1.1
	c-0.2,0-0.2,0-0.3,0.1l-4.4,5v-4.9c0-0.2-0.1-0.3-0.3-0.3h-0.8c-0.2,0-0.3,0.1-0.3,0.3v10.6c0,0.2,0.1,0.3,0.3,0.3h0.8
	c0.2,0,0.3-0.2,0.3-0.3v-5l4.3,5.2c0.1,0.1,0.2,0.2,0.3,0.2h1.2C248.3,94.6,248.4,94.5,248.4,94.5"/>
<path class="st5" d="M257.4,84.3v-0.7c0-0.2-0.1-0.3-0.3-0.3h-7.3c-0.2,0-0.3,0.1-0.3,0.3v0.7c0,0.2,0.1,0.2,0.3,0.2h2.9v9.8
	c0,0.2,0.1,0.3,0.3,0.3h0.8c0.2,0,0.3-0.2,0.3-0.3v-9.8h2.9C257.2,84.5,257.4,84.5,257.4,84.3"/>
<path class="st5" d="M266.9,90.5v-6.9c0-0.2-0.1-0.3-0.3-0.3h-0.8c-0.2,0-0.3,0.1-0.3,0.3v6.9c0,2-0.6,3-2.5,3c-1.9,0-2.5-1.1-2.5-3
	v-6.9c0-0.2-0.1-0.3-0.3-0.3h-0.8c-0.2,0-0.3,0.1-0.3,0.3v6.9c0,2.9,1.4,4.2,3.9,4.2C265.5,94.7,266.9,93.4,266.9,90.5"/>
<path class="st5" d="M275.2,86.6c0,1.6-1,2.1-2.9,2.1c-0.3,0-1,0-1.7,0v-4.1c0.4,0,1.2,0,1.7,0c1.9,0,2.9,0.5,2.9,2V86.6z M277,94.4
	c0,0,0-0.1,0-0.1l-2.8-4.6c1.4-0.4,2.4-1.4,2.4-3.1v-0.1c0-2.4-1.8-3.3-4.2-3.3c-0.9,0-2,0-2.7,0.1c-0.3,0-0.4,0.1-0.4,0.3v10.6
	c0,0.2,0.1,0.3,0.3,0.3h0.8c0.2,0,0.3-0.2,0.3-0.3v-4.4c0.8,0,1.2,0,1.7,0c0.1,0,0.2,0,0.3,0c0,0,0.1,0,0.1,0l2.7,4.5
	c0.1,0.2,0.2,0.2,0.4,0.2h1C276.9,94.6,277,94.5,277,94.4z"/>
<path class="st5" d="M286.8,94.2V83.7c0-0.2-0.1-0.3-0.3-0.3h-0.8c-0.2,0-0.3,0.1-0.3,0.3v8.8c0,0,0,0,0,0l0,0l-4.6-8.8
	c-0.1-0.2-0.2-0.3-0.6-0.3h-0.8c-0.2,0-0.4,0.2-0.4,0.4v10.6c0,0.2,0.1,0.2,0.3,0.2h0.8c0.2,0,0.3-0.1,0.3-0.3v-8.8c0,0,0,0,0,0
	c0,0,0,0,0,0l4.7,8.9c0.1,0.2,0.2,0.2,0.5,0.2h0.9C286.7,94.6,286.8,94.4,286.8,94.2"/>
<path class="st5" d="M290.9,94.3V83.7c0-0.2-0.1-0.3-0.3-0.3h-0.8c-0.2,0-0.3,0.1-0.3,0.3v10.6c0,0.2,0.1,0.3,0.3,0.3h0.8
	C290.8,94.6,290.9,94.5,290.9,94.3"/>
<path class="st5" d="M126.9,113.7v-10.6c0-0.2-0.1-0.3-0.3-0.3h-0.8c-0.2,0-0.3,0.1-0.3,0.3v10.6c0,0.2,0.1,0.3,0.3,0.3h0.8
	C126.8,114,126.9,113.9,126.9,113.7"/>
<path class="st5" d="M134.6,113.7v-10.6c0-0.2-0.1-0.3-0.3-0.3h-0.8c-0.2,0-0.3,0.1-0.3,0.3v10.6c0,0.2,0.1,0.3,0.3,0.3h0.8
	C134.5,114,134.6,113.9,134.6,113.7"/>
<path class="st5" d="M145.1,113.6v-10.5c0-0.2-0.1-0.3-0.3-0.3H144c-0.2,0-0.3,0.1-0.3,0.3v8.8c0,0,0,0,0,0l0,0l-4.6-8.8
	c-0.1-0.2-0.2-0.3-0.6-0.3h-0.8c-0.2,0-0.4,0.2-0.4,0.4v10.6c0,0.2,0.1,0.2,0.3,0.2h0.8c0.2,0,0.3-0.1,0.3-0.3v-8.8c0,0,0,0,0,0
	s0,0,0,0l4.7,8.9c0.1,0.2,0.2,0.2,0.5,0.2h0.9C144.9,114,145.1,113.8,145.1,113.6"/>
<path class="st5" d="M155.1,103.1c0-0.2-0.1-0.3-0.3-0.3H154c-0.1,0-0.2,0.1-0.3,0.2l-2.6,9.6c-0.1,0.2-0.1,0.3-0.3,0.3
	c-0.2,0-0.2-0.1-0.3-0.3l-2.6-9.6c0-0.1-0.2-0.2-0.3-0.2h-0.9c-0.2,0-0.3,0.1-0.3,0.3c0,0,0,0.1,0,0.1l2.8,9.8c0.3,1,1,1.1,1.5,1.1
	c0.6,0,1.3-0.2,1.5-1.1L155.1,103.1C155.1,103.1,155.1,103.1,155.1,103.1"/>
<path class="st5" d="M162.7,113.9v-0.8c0-0.1-0.1-0.2-0.2-0.2h-2.9c-1.6,0-1.9-0.4-1.9-1.6v-2.5h4.6c0.2,0,0.3-0.1,0.3-0.3v-0.6
	c0-0.2-0.1-0.3-0.3-0.3h-4.6v-2.1c0-1.1,0.3-1.6,1.9-1.6h2.9c0.1,0,0.2-0.1,0.2-0.2V103c0-0.1-0.1-0.2-0.2-0.2
	c-0.6-0.1-2.1-0.1-2.9-0.1c-2.1,0-3.2,0.8-3.2,2.8v5.8c0,2,1.1,2.8,3.2,2.8c0.9,0,2.4,0,2.9-0.1
	C162.7,114.1,162.7,113.9,162.7,113.9"/>
<path class="st5" d="M171.1,111.1c0-1.2-0.6-2-2.4-3.1l-1.4-0.8c-1.1-0.7-1.6-1.1-1.6-1.8c0-1.1,0.7-1.4,2.2-1.4
	c0.9,0,1.9,0,2.6,0.1c0,0,0,0,0,0c0.2,0,0.3-0.1,0.3-0.2v-0.7c0-0.2-0.1-0.2-0.3-0.3c-0.6-0.1-1.7-0.2-2.6-0.2
	c-2.3,0-3.6,0.8-3.6,2.7c0,1.2,0.7,2,2.1,2.8l1.5,0.9c1.4,0.8,1.8,1.3,1.8,2c0,1.1-0.5,1.8-2.3,1.8c-0.7,0-1.8,0-2.5-0.1
	c0,0,0,0,0,0c-0.1,0-0.3,0.1-0.3,0.2v0.6c0,0.2,0,0.2,0.3,0.3c0.7,0.1,1.5,0.2,2.5,0.2C170.4,114.1,171.1,112.6,171.1,111.1"/>
<path class="st5" d="M180.3,103.7v-0.7c0-0.2-0.1-0.3-0.3-0.3h-7.3c-0.2,0-0.3,0.1-0.3,0.3v0.7c0,0.2,0.1,0.2,0.3,0.2h2.9v9.8
	c0,0.2,0.1,0.3,0.3,0.3h0.8c0.2,0,0.3-0.2,0.3-0.3V104h2.9C180.2,104,180.3,103.9,180.3,103.7"/>
<path class="st5" d="M183.5,113.7v-10.6c0-0.2-0.1-0.3-0.3-0.3h-0.8c-0.2,0-0.3,0.1-0.3,0.3v10.6c0,0.2,0.1,0.3,0.3,0.3h0.8
	C183.4,114,183.5,113.9,183.5,113.7"/>
<path class="st5" d="M192.6,113.6V113c0-0.2-0.1-0.2-0.2-0.2c0,0,0,0-0.1,0c-0.5,0-1.6,0.1-2.5,0.1c-1.5,0-2.6-0.9-2.6-3.4v-2.1
	c0-2.6,1.1-3.4,2.6-3.4c0.9,0,2,0.1,2.5,0.1c0,0,0,0,0,0c0.2,0,0.2-0.1,0.2-0.2v-0.8c0-0.1-0.1-0.2-0.2-0.2
	c-0.7-0.1-1.6-0.2-2.5-0.2c-1.9,0-4,1-4,4.7v2.1c0,3.7,2.1,4.7,4,4.7c1.3,0,1.9-0.1,2.5-0.2C192.4,113.9,192.6,113.8,192.6,113.6"/>
<path class="st5" d="M195.8,113.7v-10.6c0-0.2-0.1-0.3-0.3-0.3h-0.8c-0.2,0-0.3,0.1-0.3,0.3v10.6c0,0.2,0.1,0.3,0.3,0.3h0.8
	C195.7,114,195.8,113.9,195.8,113.7"/>
<path class="st5" d="M199.8,114.6v-11.5c0-0.2-0.1-0.3-0.3-0.3h-0.8c-0.2,0-0.3,0.1-0.3,0.3v11.5c0,0.7-0.2,1.1-1,1.1h-0.6
	c-0.2,0-0.3,0.1-0.3,0.3v0.6c0,0.1,0,0.1,0.1,0.2c0.1,0,0.5,0.1,0.8,0.1C199.2,116.8,199.8,116.1,199.8,114.6"/>
<path class="st5" d="M208.6,111.1c0-1.2-0.6-2-2.4-3.1l-1.4-0.8c-1.1-0.7-1.6-1.1-1.6-1.8c0-1.1,0.7-1.4,2.2-1.4
	c0.9,0,1.9,0,2.6,0.1c0,0,0,0,0,0c0.2,0,0.3-0.1,0.3-0.2v-0.7c0-0.2-0.1-0.2-0.3-0.3c-0.6-0.1-1.7-0.2-2.6-0.2
	c-2.3,0-3.6,0.8-3.6,2.7c0,1.2,0.7,2,2.1,2.8l1.5,0.9c1.4,0.8,1.8,1.3,1.8,2c0,1.1-0.5,1.8-2.3,1.8c-0.7,0-1.8,0-2.5-0.1
	c0,0,0,0,0,0c-0.1,0-0.3,0.1-0.3,0.2v0.6c0,0.2,0,0.2,0.3,0.3c0.7,0.1,1.5,0.2,2.5,0.2C207.8,114.1,208.6,112.6,208.6,111.1"/>
<path class="st5" d="M217.9,113.9c0-0.1,0-0.1-0.1-0.2l-4.6-5.4l4.6-5.1c0,0,0.1-0.1,0.1-0.2c0-0.1-0.1-0.2-0.2-0.2h-1.1
	c-0.2,0-0.2,0-0.3,0.1l-4.4,5v-4.9c0-0.2-0.1-0.3-0.3-0.3h-0.8c-0.2,0-0.3,0.1-0.3,0.3v10.6c0,0.2,0.1,0.3,0.3,0.3h0.8
	c0.2,0,0.3-0.2,0.3-0.3v-5l4.3,5.2c0.1,0.1,0.2,0.2,0.3,0.2h1.2C217.8,114,217.9,114,217.9,113.9"/>
<path class="st5" d="M221.2,113.7v-10.6c0-0.2-0.1-0.3-0.3-0.3h-0.8c-0.2,0-0.3,0.1-0.3,0.3v10.6c0,0.2,0.1,0.3,0.3,0.3h0.8
	C221.1,114,221.2,113.9,221.2,113.7"/>
<path class="st5" d="M234.2,104.6v-1.4c0-0.2-0.1-0.3-0.3-0.3c-0.5-0.1-1.3-0.2-2.9-0.2c-2,0-3.7,0.5-3.7,3.2v7.8
	c0,0.2,0.1,0.3,0.3,0.3h2c0.2,0,0.3-0.1,0.3-0.3v-4.4h3.9c0.2,0,0.3-0.1,0.3-0.3v-1.4c0-0.2-0.1-0.3-0.3-0.3h-3.9v-1.4
	c0-0.8,0.3-1,1-1h3.1C234.1,104.9,234.2,104.8,234.2,104.6"/>
<path class="st5" d="M242.1,109.3c0,1.8-0.6,2.6-1.9,2.6c-1.3,0-1.9-0.8-1.9-2.6v-1.8c0-1.8,0.6-2.6,1.9-2.6c1.3,0,1.9,0.8,1.9,2.6
	V109.3z M244.7,109.3v-1.8c0-3.5-2-4.9-4.5-4.9c-2.5,0-4.5,1.3-4.5,4.9v1.8c0,3.5,2,4.9,4.5,4.9
	C242.7,114.2,244.7,112.8,244.7,109.3z"/>
<path class="st5" d="M255.4,113.5v-10.4c0-0.2-0.1-0.3-0.3-0.3h-1.8c-0.2,0-0.3,0.1-0.3,0.3v6.4c0,0.1,0,0.1-0.1,0.1
	c0,0-0.1,0-0.1-0.1l-3.6-6.2c-0.2-0.3-0.3-0.5-0.6-0.5h-1.5c-0.3,0-0.6,0.3-0.6,0.6v10.4c0,0.2,0.1,0.3,0.3,0.3h1.8
	c0.2,0,0.3-0.1,0.3-0.3v-6.1c0-0.1,0-0.1,0.1-0.1c0,0,0.1,0,0.1,0.1l3.4,6c0.2,0.4,0.5,0.5,0.8,0.5h1.5
	C255.2,114,255.4,113.8,255.4,113.5"/>
<path class="st5" d="M263.4,109.4c0,2-0.9,2.6-2.2,2.6c-0.4,0-0.9,0-1.1,0v-7.1c0.2,0,0.7,0,1.1,0c1.4,0,2.2,0.5,2.2,2.6V109.4z
	 M266,109.4v-2c0-3.2-1.8-4.8-4.8-4.8c-1.3,0-2.6,0.1-3.2,0.2c-0.3,0-0.4,0.2-0.4,0.5v10c0,0.3,0.2,0.5,0.4,0.5
	c0.6,0.1,2,0.2,3.2,0.2C264.2,114.2,266,112.6,266,109.4z"/>
<path class="st5" d="M274,109.3c0,1.8-0.6,2.6-1.9,2.6c-1.3,0-1.9-0.8-1.9-2.6v-1.8c0-1.8,0.6-2.6,1.9-2.6c1.3,0,1.9,0.8,1.9,2.6
	V109.3z M276.6,109.3v-1.8c0-3.5-2-4.9-4.5-4.9c-2.5,0-4.5,1.3-4.5,4.9v1.8c0,3.5,2,4.9,4.5,4.9
	C274.6,114.2,276.6,112.8,276.6,109.3z"/>
<path class="st5" d="M286.9,103c0-0.2-0.1-0.2-0.3-0.2h-2.1c-0.2,0-0.3,0.1-0.3,0.3l-1.9,8.7c0,0.2-0.1,0.2-0.2,0.2
	c-0.1,0-0.2-0.1-0.2-0.2l-1.9-8.7c0-0.2-0.2-0.3-0.3-0.3h-2.1c-0.2,0-0.3,0.1-0.3,0.2c0,0,0,0,0,0.1l2.3,9.4
	c0.3,1.5,1.5,1.7,2.5,1.7c1,0,2.1-0.2,2.5-1.7L286.9,103C286.9,103.1,286.9,103.1,286.9,103"/>
<path class="st5" d="M291,113.7v-10.6c0-0.2-0.1-0.3-0.3-0.3h-2c-0.2,0-0.3,0.1-0.3,0.3v10.6c0,0.2,0.1,0.3,0.3,0.3h2
	C290.9,114,291,113.9,291,113.7"/>
</svg>
