<svg id="Layer_1" data-name="Layer 1" xmlns="http://www.w3.org/2000/svg" viewBox="0 0 319.2 103.89"><defs><style>.cls-1,.cls-4{fill:#6b7c82;}.cls-2{fill:#aab8bd;}.cls-3{fill:#149fda;}.cls-3,.cls-4{fill-rule:evenodd;}</style></defs><path class="cls-1" d="M283.11,387.69a5.79,5.79,0,0,0-4.48,1.84,8.77,8.77,0,0,0-2,5.32h11.93a8.45,8.45,0,0,0-1.45-5.26,4.79,4.79,0,0,0-4-1.9m.51,18.51a8.42,8.42,0,0,1-6.56-2.6c-1.57-1.72-2.35-4.15-2.35-7.26A11.31,11.31,0,0,1,277,389a7.5,7.5,0,0,1,6.13-2.79,6.64,6.64,0,0,1,5.38,2.37,9.77,9.77,0,0,1,2,6.44v1.41H276.55a9.23,9.23,0,0,0,1.86,6.11,6.52,6.52,0,0,0,5.21,2.11,16.39,16.39,0,0,0,2.9-.23,17.25,17.25,0,0,0,3.17-1V405a13.65,13.65,0,0,1-3,1,16,16,0,0,1-3.06.27" transform="translate(-138.22 -369.12)"/><rect class="cls-1" x="155.96" y="26.17" width="8.43" height="1.45"/><path class="cls-1" d="M319.48,372.29a36.1,36.1,0,0,0-4.29,5.51h-1.75a35.87,35.87,0,0,0-4.28-5.51V372h1.24a43.13,43.13,0,0,1,3.92,3.67,42.94,42.94,0,0,1,3.92-3.67h1.24Zm2.77,26.86a6.23,6.23,0,0,1-2.39,5.15,9.93,9.93,0,0,1-6.34,1.9,19.82,19.82,0,0,1-7.3-1.05v-1.81a18.49,18.49,0,0,0,7.15,1.19,8,8,0,0,0,5.07-1.47,4.65,4.65,0,0,0,1.88-3.84,4.36,4.36,0,0,0-.63-2.44,5.69,5.69,0,0,0-2-1.77,25,25,0,0,0-4.12-1.72,14,14,0,0,1-5.49-3,5.88,5.88,0,0,1-1.52-4.23,5.82,5.82,0,0,1,2.28-4.75,9,9,0,0,1,5.87-1.84,17.11,17.11,0,0,1,6.87,1.39l-.66,1.56a16,16,0,0,0-6.18-1.35,7.17,7.17,0,0,0-4.58,1.34,4.31,4.31,0,0,0-1.7,3.61,4.71,4.71,0,0,0,.52,2.36,4.84,4.84,0,0,0,1.72,1.67,23.73,23.73,0,0,0,4.08,1.76,22.36,22.36,0,0,1,4.56,2,6.6,6.6,0,0,1,2.23,2.24,6.09,6.09,0,0,1,.7,3" transform="translate(-138.22 -369.12)"/><polygon class="cls-1" points="190.8 28.24 200.65 17.41 202.78 17.41 195.18 25.65 203.44 36.71 201.32 36.71 193.99 26.96 190.83 29.84 190.83 36.71 189.07 36.71 189.07 9.08 190.83 9.08 190.83 22.93 190.71 28.24 190.8 28.24"/><path class="cls-1" d="M344.88,396.16a9.86,9.86,0,0,0,1.75,6.21,6.6,6.6,0,0,0,9.89,0,9.86,9.86,0,0,0,1.75-6.21,9.69,9.69,0,0,0-1.77-6.2,6,6,0,0,0-5-2.2,5.94,5.94,0,0,0-4.93,2.2,9.82,9.82,0,0,0-1.73,6.2m15.23,0q0,4.72-2.29,7.38a7.89,7.89,0,0,1-6.32,2.66A8.15,8.15,0,0,1,347,405a7.75,7.75,0,0,1-3-3.52,12.74,12.74,0,0,1-1-5.29q0-4.73,2.29-7.36a7.88,7.88,0,0,1,6.28-2.64,7.74,7.74,0,0,1,6.24,2.68,11,11,0,0,1,2.26,7.32" transform="translate(-138.22 -369.12)"/><rect class="cls-1" x="227.24" y="9.08" width="1.76" height="27.63"/><path class="cls-1" d="M381,387.69a5.79,5.79,0,0,0-4.48,1.84,8.77,8.77,0,0,0-2,5.32h11.93a8.45,8.45,0,0,0-1.45-5.26,4.79,4.79,0,0,0-4-1.9m.51,18.51a8.42,8.42,0,0,1-6.56-2.6c-1.57-1.72-2.35-4.15-2.35-7.26a11.31,11.31,0,0,1,2.27-7.39,7.5,7.5,0,0,1,6.13-2.79,6.64,6.64,0,0,1,5.38,2.37,9.77,9.77,0,0,1,2,6.44v1.41H374.4a9.23,9.23,0,0,0,1.86,6.11,6.52,6.52,0,0,0,5.21,2.11,16.59,16.59,0,0,0,2.91-.23,17.19,17.19,0,0,0,3.16-1V405a13.65,13.65,0,0,1-3,1,16,16,0,0,1-3.06.27" transform="translate(-138.22 -369.12)"/><rect class="cls-2" x="13.03" y="41.58" width="85.42" height="0.87"/><rect class="cls-2" x="13.03" y="51.98" width="85.42" height="0.87"/><rect class="cls-2" x="13.03" y="20.79" width="85.42" height="0.87"/><rect class="cls-2" x="13.03" y="31.19" width="85.42" height="0.87"/><rect class="cls-2" x="13.03" y="62.37" width="85.42" height="0.87"/><rect class="cls-2" x="13.03" y="72.77" width="85.42" height="0.87"/><rect class="cls-2" x="13.03" y="83.17" width="85.42" height="0.87"/><rect class="cls-2" x="13.03" y="10.4" width="85.42" height="0.87"/><path class="cls-3" d="M173.17,376.48A3.47,3.47,0,1,1,169.7,380a3.47,3.47,0,0,1,3.47-3.47" transform="translate(-138.22 -369.12)"/><path class="cls-3" d="M183.56,376.48A3.47,3.47,0,1,1,180.1,380a3.47,3.47,0,0,1,3.46-3.47" transform="translate(-138.22 -369.12)"/><path class="cls-3" d="M194,376.48a3.47,3.47,0,1,1-3.47,3.47,3.48,3.48,0,0,1,3.47-3.47" transform="translate(-138.22 -369.12)"/><path class="cls-3" d="M204.36,376.48a3.47,3.47,0,1,1-3.47,3.47,3.47,3.47,0,0,1,3.47-3.47" transform="translate(-138.22 -369.12)"/><path class="cls-3" d="M214.75,376.48a3.47,3.47,0,1,1-3.46,3.47,3.48,3.48,0,0,1,3.46-3.47" transform="translate(-138.22 -369.12)"/><path class="cls-3" d="M162.77,386.88a3.47,3.47,0,1,1-3.46,3.46,3.46,3.46,0,0,1,3.46-3.46" transform="translate(-138.22 -369.12)"/><path class="cls-3" d="M173.17,386.88a3.47,3.47,0,1,1-3.47,3.46,3.46,3.46,0,0,1,3.47-3.46" transform="translate(-138.22 -369.12)"/><path class="cls-3" d="M183.56,386.88a3.47,3.47,0,1,1-3.46,3.46,3.46,3.46,0,0,1,3.46-3.46" transform="translate(-138.22 -369.12)"/><path class="cls-3" d="M194,386.88a3.47,3.47,0,1,1-3.47,3.46,3.47,3.47,0,0,1,3.47-3.46" transform="translate(-138.22 -369.12)"/><path class="cls-3" d="M204.36,386.88a3.47,3.47,0,1,1-3.47,3.46,3.46,3.46,0,0,1,3.47-3.46" transform="translate(-138.22 -369.12)"/><path class="cls-3" d="M214.75,386.88a3.47,3.47,0,1,1-3.46,3.46,3.47,3.47,0,0,1,3.46-3.46" transform="translate(-138.22 -369.12)"/><path class="cls-3" d="M225.15,386.88a3.47,3.47,0,1,1-3.47,3.46,3.46,3.46,0,0,1,3.47-3.46" transform="translate(-138.22 -369.12)"/><path class="cls-3" d="M162.77,397.27a3.47,3.47,0,1,1-3.46,3.47,3.47,3.47,0,0,1,3.46-3.47" transform="translate(-138.22 -369.12)"/><path class="cls-3" d="M173.17,397.27a3.47,3.47,0,1,1-3.47,3.47,3.47,3.47,0,0,1,3.47-3.47" transform="translate(-138.22 -369.12)"/><path class="cls-3" d="M214.75,397.27a3.47,3.47,0,1,1-3.46,3.47,3.48,3.48,0,0,1,3.46-3.47" transform="translate(-138.22 -369.12)"/><path class="cls-3" d="M225.15,397.27a3.47,3.47,0,1,1-3.47,3.47,3.47,3.47,0,0,1,3.47-3.47" transform="translate(-138.22 -369.12)"/><path class="cls-3" d="M162.77,407.67a3.47,3.47,0,1,1-3.46,3.47,3.47,3.47,0,0,1,3.46-3.47" transform="translate(-138.22 -369.12)"/><path class="cls-3" d="M173.17,407.67a3.47,3.47,0,1,1-3.47,3.47,3.46,3.46,0,0,1,3.47-3.47" transform="translate(-138.22 -369.12)"/><path class="cls-3" d="M183.56,407.67a3.47,3.47,0,1,1-3.46,3.47,3.47,3.47,0,0,1,3.46-3.47" transform="translate(-138.22 -369.12)"/><path class="cls-3" d="M194,407.67a3.47,3.47,0,1,1-3.47,3.47,3.47,3.47,0,0,1,3.47-3.47" transform="translate(-138.22 -369.12)"/><path class="cls-3" d="M204.36,407.67a3.47,3.47,0,1,1-3.47,3.47,3.46,3.46,0,0,1,3.47-3.47" transform="translate(-138.22 -369.12)"/><path class="cls-3" d="M214.75,407.67a3.47,3.47,0,1,1-3.46,3.47,3.47,3.47,0,0,1,3.46-3.47" transform="translate(-138.22 -369.12)"/><path class="cls-3" d="M225.15,407.67a3.47,3.47,0,1,1-3.47,3.47,3.46,3.46,0,0,1,3.47-3.47" transform="translate(-138.22 -369.12)"/><path class="cls-3" d="M162.77,418.07a3.47,3.47,0,1,1-3.46,3.46,3.46,3.46,0,0,1,3.46-3.46" transform="translate(-138.22 -369.12)"/><path class="cls-3" d="M173.17,418.07a3.47,3.47,0,1,1-3.47,3.46,3.46,3.46,0,0,1,3.47-3.46" transform="translate(-138.22 -369.12)"/><path class="cls-3" d="M183.56,418.07a3.47,3.47,0,1,1-3.46,3.46,3.46,3.46,0,0,1,3.46-3.46" transform="translate(-138.22 -369.12)"/><path class="cls-3" d="M194,418.07a3.47,3.47,0,1,1-3.47,3.46,3.47,3.47,0,0,1,3.47-3.46" transform="translate(-138.22 -369.12)"/><path class="cls-3" d="M204.36,418.07a3.47,3.47,0,1,1-3.47,3.46,3.46,3.46,0,0,1,3.47-3.46" transform="translate(-138.22 -369.12)"/><path class="cls-3" d="M214.75,418.07a3.47,3.47,0,1,1-3.46,3.46,3.47,3.47,0,0,1,3.46-3.46" transform="translate(-138.22 -369.12)"/><path class="cls-3" d="M225.15,418.07a3.47,3.47,0,1,1-3.47,3.46,3.46,3.46,0,0,1,3.47-3.46" transform="translate(-138.22 -369.12)"/><path class="cls-3" d="M162.77,428.46a3.47,3.47,0,1,1-3.46,3.47,3.47,3.47,0,0,1,3.46-3.47" transform="translate(-138.22 -369.12)"/><path class="cls-3" d="M173.17,428.46a3.47,3.47,0,1,1-3.47,3.47,3.46,3.46,0,0,1,3.47-3.47" transform="translate(-138.22 -369.12)"/><path class="cls-3" d="M162.77,438.86a3.47,3.47,0,1,1-3.46,3.46,3.46,3.46,0,0,1,3.46-3.46" transform="translate(-138.22 -369.12)"/><path class="cls-3" d="M173.17,438.86a3.47,3.47,0,1,1-3.47,3.46,3.46,3.46,0,0,1,3.47-3.46" transform="translate(-138.22 -369.12)"/><path class="cls-3" d="M183.56,438.86a3.47,3.47,0,1,1-3.46,3.46,3.46,3.46,0,0,1,3.46-3.46" transform="translate(-138.22 -369.12)"/><path class="cls-3" d="M194,438.86a3.47,3.47,0,1,1-3.47,3.46,3.47,3.47,0,0,1,3.47-3.46" transform="translate(-138.22 -369.12)"/><path class="cls-3" d="M204.36,438.86a3.47,3.47,0,1,1-3.47,3.46,3.46,3.46,0,0,1,3.47-3.46" transform="translate(-138.22 -369.12)"/><path class="cls-3" d="M214.75,438.86a3.47,3.47,0,1,1-3.46,3.46,3.47,3.47,0,0,1,3.46-3.46" transform="translate(-138.22 -369.12)"/><path class="cls-3" d="M225.15,438.86a3.47,3.47,0,1,1-3.47,3.46,3.46,3.46,0,0,1,3.47-3.46" transform="translate(-138.22 -369.12)"/><path class="cls-3" d="M173.17,449.25a3.47,3.47,0,1,1-3.47,3.47,3.47,3.47,0,0,1,3.47-3.47" transform="translate(-138.22 -369.12)"/><path class="cls-3" d="M183.56,449.25a3.47,3.47,0,1,1-3.46,3.47,3.47,3.47,0,0,1,3.46-3.47" transform="translate(-138.22 -369.12)"/><path class="cls-3" d="M194,449.25a3.47,3.47,0,1,1-3.47,3.47,3.48,3.48,0,0,1,3.47-3.47" transform="translate(-138.22 -369.12)"/><path class="cls-3" d="M204.36,449.25a3.47,3.47,0,1,1-3.47,3.47,3.47,3.47,0,0,1,3.47-3.47" transform="translate(-138.22 -369.12)"/><path class="cls-3" d="M214.75,449.25a3.47,3.47,0,1,1-3.46,3.47,3.48,3.48,0,0,1,3.46-3.47" transform="translate(-138.22 -369.12)"/><rect class="cls-1" x="10.43" width="2.6" height="95.29"/><rect class="cls-1" x="98.45" width="2.6" height="95.29"/><path class="cls-4" d="M139.32,464.19H248.66a1.1,1.1,0,0,1,1.1,1.09v4.41a1.11,1.11,0,0,1-1.1,1.1H139.32a1.1,1.1,0,0,1-1.1-1.1v-4.41a1.09,1.09,0,0,1,1.1-1.09" transform="translate(-138.22 -369.12)"/><path class="cls-1" d="M276.92,427.57v4.52h-1.27V421.22h3a4.72,4.72,0,0,1,3,.77,2.78,2.78,0,0,1,1,2.3,2.88,2.88,0,0,1-2.18,2.91l2.95,4.89h-1.5l-2.63-4.52Zm0-1.09h1.73a3,3,0,0,0,2-.53,2,2,0,0,0,.62-1.59,1.84,1.84,0,0,0-.63-1.56,3.53,3.53,0,0,0-2-.47h-1.64Z" transform="translate(-138.22 -369.12)"/><path class="cls-1" d="M291.63,432.09l-1.35-3.46h-4.36l-1.33,3.46h-1.28l4.29-10.91h1.07l4.27,10.91Zm-1.74-4.6-1.27-3.36c-.16-.43-.33-.95-.5-1.57a15.52,15.52,0,0,1-.47,1.57l-1.28,3.36Z" transform="translate(-138.22 -369.12)"/><polygon class="cls-1" points="162.54 62.97 155.07 62.97 155.07 61.98 160.84 53.24 155.25 53.24 155.25 52.1 162.38 52.1 162.38 53.09 156.61 61.82 162.54 61.82 162.54 62.97"/><path class="cls-1" d="M308.81,421.22h1.36l-3.92,10.87H305l-3.89-10.87h1.34l2.49,7a19.4,19.4,0,0,1,.69,2.36,18.76,18.76,0,0,1,.7-2.4Z" transform="translate(-138.22 -369.12)"/><path class="cls-1" d="M320.83,426.64a6,6,0,0,1-1.32,4.1,4.61,4.61,0,0,1-3.66,1.49,4.73,4.73,0,0,1-3.71-1.46,6,6,0,0,1-1.3-4.15,5.92,5.92,0,0,1,1.31-4.11,4.73,4.73,0,0,1,3.71-1.46,4.65,4.65,0,0,1,3.66,1.49,6,6,0,0,1,1.31,4.1m-8.65,0a5.15,5.15,0,0,0,.94,3.35,3.32,3.32,0,0,0,2.73,1.14,3.28,3.28,0,0,0,2.72-1.14,6.55,6.55,0,0,0,0-6.68,3.85,3.85,0,0,0-5.46,0,5.09,5.09,0,0,0-.94,3.32" transform="translate(-138.22 -369.12)"/><path class="cls-1" d="M321.41,435a2.57,2.57,0,0,1-1.1-.2v-1.08a4.06,4.06,0,0,0,1.1.15,1.38,1.38,0,0,0,1.12-.45,1.9,1.9,0,0,0,.38-1.28V421.22h1.27V432a3.11,3.11,0,0,1-.72,2.19,2.62,2.62,0,0,1-2,.78" transform="translate(-138.22 -369.12)"/><path class="cls-1" d="M337.92,429.19a2.67,2.67,0,0,1-1,2.24,4.46,4.46,0,0,1-2.82.8,7.09,7.09,0,0,1-3-.49v-1.22a8.3,8.3,0,0,0,3,.61,3.13,3.13,0,0,0,1.9-.48,1.58,1.58,0,0,0,.64-1.34,1.72,1.72,0,0,0-.22-.92,2.22,2.22,0,0,0-.76-.67A10.77,10.77,0,0,0,334,427a5.15,5.15,0,0,1-2.16-1.28,2.83,2.83,0,0,1-.65-1.94,2.4,2.4,0,0,1,.94-2,3.9,3.9,0,0,1,2.5-.75,7.31,7.31,0,0,1,3,.6l-.4,1.1a6.66,6.66,0,0,0-2.61-.57,2.53,2.53,0,0,0-1.57.44,1.39,1.39,0,0,0-.57,1.19,1.83,1.83,0,0,0,.21.93,2,2,0,0,0,.7.66,8.72,8.72,0,0,0,1.52.66,6.1,6.1,0,0,1,2.35,1.31,2.57,2.57,0,0,1,.64,1.81" transform="translate(-138.22 -369.12)"/><path class="cls-1" d="M347.86,421.22v7a3.82,3.82,0,0,1-1.12,2.92,4.3,4.3,0,0,1-3.08,1.06,4.1,4.1,0,0,1-3-1.07,3.94,3.94,0,0,1-1.07-2.94v-7h1.26v7.09a2.82,2.82,0,0,0,.74,2.09,3,3,0,0,0,2.19.73,3,3,0,0,0,2.12-.73,2.84,2.84,0,0,0,.74-2.1v-7.08Z" transform="translate(-138.22 -369.12)"/><path class="cls-1" d="M356.38,429.19a2.67,2.67,0,0,1-1,2.24,4.46,4.46,0,0,1-2.82.8,7.17,7.17,0,0,1-3-.49v-1.22A8,8,0,0,0,351,431a7.68,7.68,0,0,0,1.56.17,3.13,3.13,0,0,0,1.9-.48,1.58,1.58,0,0,0,.64-1.34,1.72,1.72,0,0,0-.22-.92,2.22,2.22,0,0,0-.76-.67,11.25,11.25,0,0,0-1.62-.69,5.15,5.15,0,0,1-2.16-1.28,2.83,2.83,0,0,1-.65-1.94,2.4,2.4,0,0,1,.94-2,3.9,3.9,0,0,1,2.5-.75,7.31,7.31,0,0,1,3,.6l-.4,1.1a6.66,6.66,0,0,0-2.61-.57,2.51,2.51,0,0,0-1.57.44,1.39,1.39,0,0,0-.57,1.19,1.83,1.83,0,0,0,.21.93,2,2,0,0,0,.7.66,8.72,8.72,0,0,0,1.52.66,6.1,6.1,0,0,1,2.35,1.31,2.57,2.57,0,0,1,.64,1.81" transform="translate(-138.22 -369.12)"/><polygon class="cls-1" points="223.24 62.97 221.98 62.97 221.98 53.22 218.54 53.22 218.54 52.1 226.68 52.1 226.68 53.22 223.24 53.22 223.24 62.97"/><path class="cls-1" d="M372.88,432.09l-1.35-3.46h-4.36l-1.34,3.46h-1.28l4.3-10.91h1.06l4.28,10.91Zm-1.75-4.6-1.26-3.36c-.17-.43-.33-.95-.51-1.57a13.31,13.31,0,0,1-.47,1.57l-1.27,3.36Z" transform="translate(-138.22 -369.12)"/><path class="cls-1" d="M381.4,421.22h1.36l-3.92,10.87h-1.25l-3.89-10.87H375l2.49,7a19.4,19.4,0,0,1,.69,2.36,18.76,18.76,0,0,1,.7-2.4Z" transform="translate(-138.22 -369.12)"/><path class="cls-1" d="M390.59,432.09l-1.35-3.46h-4.35l-1.34,3.46h-1.28l4.3-10.91h1.06l4.27,10.91Zm-1.74-4.6-1.27-3.36c-.16-.43-.33-.95-.5-1.57a15.52,15.52,0,0,1-.47,1.57l-1.28,3.36Z" transform="translate(-138.22 -369.12)"/><path class="cls-1" d="M284.33,443.15a5.45,5.45,0,0,1-1.47,4.11,5.76,5.76,0,0,1-4.2,1.43h-3V437.82H279a4.89,4.89,0,0,1,5.35,5.33m-1.34.05a4.39,4.39,0,0,0-1.07-3.21,4.27,4.27,0,0,0-3.17-1.07h-1.83v8.67h1.53a4.69,4.69,0,0,0,3.4-1.11A4.37,4.37,0,0,0,283,443.2" transform="translate(-138.22 -369.12)"/><rect class="cls-1" x="148.45" y="68.7" width="1.26" height="10.86"/><path class="cls-1" d="M295.62,443h3.69v5.28a13.49,13.49,0,0,1-1.75.42,14,14,0,0,1-2.07.14,5,5,0,0,1-3.84-1.47,5.77,5.77,0,0,1-1.38-4.11,6.26,6.26,0,0,1,.68-3,4.67,4.67,0,0,1,2-2,6.32,6.32,0,0,1,3-.67,8.18,8.18,0,0,1,3.24.64l-.49,1.11a7.4,7.4,0,0,0-2.84-.62,4.06,4.06,0,0,0-3.1,1.18,4.6,4.6,0,0,0-1.11,3.28,4.71,4.71,0,0,0,1.07,3.33,4.14,4.14,0,0,0,3.16,1.14,9.61,9.61,0,0,0,2.21-.26v-3.34h-2.43Z" transform="translate(-138.22 -369.12)"/><rect class="cls-1" x="163.63" y="68.7" width="1.26" height="10.86"/><polygon class="cls-1" points="171.14 79.57 169.87 79.57 169.87 69.83 166.43 69.83 166.43 68.7 174.58 68.7 174.58 69.83 171.14 69.83 171.14 79.57"/><path class="cls-1" d="M321.18,448.69l-1.35-3.46h-4.35l-1.34,3.46h-1.28l4.3-10.91h1.06l4.27,10.91Zm-1.74-4.59-1.27-3.37c-.16-.43-.33-1-.5-1.57a14.79,14.79,0,0,1-.47,1.57l-1.28,3.37Z" transform="translate(-138.22 -369.12)"/><polygon class="cls-1" points="185.69 79.57 185.69 68.7 186.95 68.7 186.95 78.42 191.75 78.42 191.75 79.57 185.69 79.57"/><path class="cls-1" d="M340.22,448.69h-1.44l-5.94-9.12h-.06q.12,1.6.12,2.94v6.18h-1.17V437.82h1.43l5.92,9.09h.06c0-.14,0-.57-.07-1.29s0-1.25,0-1.56v-6.24h1.18Z" transform="translate(-138.22 -369.12)"/><path class="cls-1" d="M352.56,443.24a6,6,0,0,1-1.32,4.1,4.63,4.63,0,0,1-3.67,1.5,4.68,4.68,0,0,1-3.7-1.47,7.17,7.17,0,0,1,0-8.26,4.74,4.74,0,0,1,3.72-1.46,4.61,4.61,0,0,1,3.65,1.49,6,6,0,0,1,1.32,4.1m-8.66,0a5.2,5.2,0,0,0,.94,3.35,3.34,3.34,0,0,0,2.73,1.14,3.29,3.29,0,0,0,2.73-1.14,5.19,5.19,0,0,0,.92-3.35,5.11,5.11,0,0,0-.92-3.32,3.26,3.26,0,0,0-2.71-1.14,3.36,3.36,0,0,0-2.75,1.14,5.15,5.15,0,0,0-.94,3.32" transform="translate(-138.22 -369.12)"/><polygon class="cls-1" points="227.15 79.57 219.68 79.57 219.68 78.58 225.45 69.84 219.86 69.84 219.86 68.7 226.99 68.7 226.99 69.69 221.22 78.42 227.15 78.42 227.15 79.57"/><path class="cls-1" d="M368.66,444.17v4.52h-1.27V437.82h3a4.7,4.7,0,0,1,3,.77,2.76,2.76,0,0,1,.95,2.3,2.9,2.9,0,0,1-2.18,2.92l2.95,4.88h-1.5l-2.63-4.52Zm0-1.09h1.73a3,3,0,0,0,2-.53A2,2,0,0,0,373,441a1.8,1.8,0,0,0-.63-1.55,3.4,3.4,0,0,0-2-.48h-1.64Z" transform="translate(-138.22 -369.12)"/><polygon class="cls-1" points="244.56 79.57 238.51 79.57 238.51 68.7 244.56 68.7 244.56 69.83 239.77 69.83 239.77 73.33 244.28 73.33 244.28 74.44 239.77 74.44 239.77 78.44 244.56 78.44 244.56 79.57"/><polygon class="cls-1" points="246.9 79.57 246.9 68.7 248.16 68.7 248.16 78.42 252.95 78.42 252.95 79.57 246.9 79.57"/><rect class="cls-1" x="254.72" y="68.7" width="1.26" height="10.86"/><polygon class="cls-1" points="267.13 79.57 265.87 79.57 265.87 74.46 260.15 74.46 260.15 79.57 258.89 79.57 258.89 68.7 260.15 68.7 260.15 73.33 265.87 73.33 265.87 68.7 267.13 68.7 267.13 79.57"/><path class="cls-1" d="M418.27,445.8a2.66,2.66,0,0,1-1,2.23,4.51,4.51,0,0,1-2.83.81,7.07,7.07,0,0,1-3-.5v-1.22a7.88,7.88,0,0,0,3,.61,3.15,3.15,0,0,0,1.9-.48,1.58,1.58,0,0,0,.64-1.33,1.73,1.73,0,0,0-.23-.93,2,2,0,0,0-.76-.66,9.89,9.89,0,0,0-1.61-.7,5.2,5.2,0,0,1-2.17-1.28,2.86,2.86,0,0,1-.65-1.94,2.41,2.41,0,0,1,.94-2,4,4,0,0,1,2.5-.74,7.48,7.48,0,0,1,3,.59l-.39,1.1a6.87,6.87,0,0,0-2.62-.56,2.53,2.53,0,0,0-1.57.43,1.43,1.43,0,0,0-.56,1.19,1.83,1.83,0,0,0,.21.93,2,2,0,0,0,.7.66,9.24,9.24,0,0,0,1.51.67,6,6,0,0,1,2.35,1.3,2.58,2.58,0,0,1,.65,1.82m-5.85-11.28h.86a8.33,8.33,0,0,1,1.63,1.4,10.7,10.7,0,0,1,1.64-1.4h.88v.18l-.49.51a8.83,8.83,0,0,0-1.41,1.74H414.3a7,7,0,0,0-.55-.77c-.26-.31-.7-.8-1.33-1.48Z" transform="translate(-138.22 -369.12)"/><polygon class="cls-1" points="290.04 79.57 288.55 79.57 284.59 74.3 283.46 75.31 283.46 79.57 282.19 79.57 282.19 68.7 283.46 68.7 283.46 74.09 288.38 68.7 289.88 68.7 285.51 73.42 290.04 79.57"/><path class="cls-1" d="M439.11,443.24a6,6,0,0,1-1.32,4.1,4.63,4.63,0,0,1-3.67,1.5,4.68,4.68,0,0,1-3.7-1.47,7.17,7.17,0,0,1,0-8.26,4.74,4.74,0,0,1,3.72-1.46,4.63,4.63,0,0,1,3.65,1.49,6,6,0,0,1,1.32,4.1m-8.66,0a5.15,5.15,0,0,0,.94,3.35,3.84,3.84,0,0,0,5.46,0,5.25,5.25,0,0,0,.92-3.35,5.17,5.17,0,0,0-.92-3.32,3.28,3.28,0,0,0-2.71-1.14,3.36,3.36,0,0,0-2.75,1.14,5.09,5.09,0,0,0-.94,3.32" transform="translate(-138.22 -369.12)"/><polygon class="cls-1" points="303.24 79.57 303.24 68.7 304.5 68.7 304.5 78.42 309.29 78.42 309.29 79.57 303.24 79.57"/><path class="cls-1" d="M456.11,448.69l-1.36-3.46H450.4l-1.34,3.46h-1.28l4.3-10.91h1.06l4.27,10.91Zm-1.75-4.59-1.26-3.37a15.38,15.38,0,0,1-.51-1.57,12.77,12.77,0,0,1-.47,1.57l-1.28,3.37Z" transform="translate(-138.22 -369.12)"/><path class="cls-1" d="M274.71,467a10.47,10.47,0,0,1,.53-3.36,8.24,8.24,0,0,1,1.51-2.73h1.09a9.33,9.33,0,0,0-1.46,2.86,10.55,10.55,0,0,0-.49,3.21,10.05,10.05,0,0,0,.5,3.17,9.64,9.64,0,0,0,1.44,2.82h-1.08a7.86,7.86,0,0,1-1.52-2.68,10.36,10.36,0,0,1-.52-3.29" transform="translate(-138.22 -369.12)"/><rect class="cls-1" x="141.32" y="91.83" width="1.15" height="9.88"/><rect class="cls-1" x="145.11" y="91.83" width="1.15" height="9.88"/><path class="cls-1" d="M286.79,470.11a1.07,1.07,0,0,1,.2-.69.78.78,0,0,1,.59-.23.83.83,0,0,1,.62.23,1,1,0,0,1,.22.69,1,1,0,0,1-.23.68.82.82,0,0,1-.61.23.8.8,0,0,1-.57-.21.93.93,0,0,1-.22-.7" transform="translate(-138.22 -369.12)"/><polygon class="cls-1" points="157.19 101.71 156.04 101.71 156.04 91.83 161.54 91.83 161.54 92.85 157.19 92.85 157.19 96.46 161.28 96.46 161.28 97.48 157.19 97.48 157.19 101.71"/><path class="cls-1" d="M307.54,470.83l-1.23-3.15h-4l-1.22,3.15H300l3.9-9.92h1l3.88,9.92ZM306,466.65l-1.15-3.06c-.15-.39-.3-.86-.46-1.42a12.19,12.19,0,0,1-.43,1.42l-1.16,3.06Z" transform="translate(-138.22 -369.12)"/><polygon class="cls-1" points="177.78 101.71 170.99 101.71 170.99 100.81 176.24 92.86 171.15 92.86 171.15 91.83 177.63 91.83 177.63 92.73 172.39 100.67 177.78 100.67 177.78 101.71"/><path class="cls-1" d="M324.05,470.83l-1.23-3.15h-4l-1.21,3.15h-1.17l3.91-9.92h1l3.88,9.92Zm-1.59-4.18-1.15-3.06c-.14-.39-.3-.86-.45-1.42a14.5,14.5,0,0,1-.43,1.42l-1.16,3.06Z" transform="translate(-138.22 -369.12)"/><path class="cls-1" d="M328.71,467a10.21,10.21,0,0,1-.52,3.31,8,8,0,0,1-1.51,2.66H325.6a9.61,9.61,0,0,0,1.43-2.82,10.05,10.05,0,0,0,.5-3.17,10.85,10.85,0,0,0-.48-3.21,9.58,9.58,0,0,0-1.47-2.86h1.1a8.39,8.39,0,0,1,1.51,2.74,10.49,10.49,0,0,1,.52,3.35" transform="translate(-138.22 -369.12)"/></svg>