<?xml version="1.0" encoding="utf-8"?>
<!-- Generator: Adobe Illustrator 25.2.1, SVG Export Plug-In . SVG Version: 6.00 Build 0)  -->
<svg version="1.1" id="Layer_1" xmlns="http://www.w3.org/2000/svg" xmlns:xlink="http://www.w3.org/1999/xlink" x="0px" y="0px"
	 viewBox="0 0 577 408" style="enable-background:new 0 0 577 408;" xml:space="preserve">
<style type="text/css">
	.st0{fill:#FFFFFF;}
	.st1{fill:#134094;}
	.st2{fill:#FFED00;}
</style>
<g>
	<g>
		<rect x="146.2" y="59.7" class="st0" width="294.9" height="200.3"/>
	</g>
	<g>
		<rect x="151.8" y="65.1" class="st1" width="283.6" height="189.1"/>
	</g>
	<g>
		<polygon class="st2" points="287.6,106.3 293.6,102 299.6,106.3 297.3,99.3 303.4,94.9 295.9,94.9 293.6,87.8 291.3,94.9 
			283.8,94.9 289.9,99.3 		"/>
		<polygon class="st2" points="256.6,114.7 262.6,110.3 268.6,114.7 266.3,107.6 272.4,103.2 264.9,103.2 262.6,96.1 260.3,103.2 
			252.8,103.2 258.9,107.6 		"/>
		<polygon class="st2" points="239.9,118.8 237.6,126 230.2,125.9 236.2,130.3 234,137.4 239.9,133 245.9,137.4 243.6,130.3 
			249.7,125.9 242.2,125.9 		"/>
		<polygon class="st2" points="231.6,163.9 237.6,168.3 235.3,161.2 241.4,156.9 233.9,156.9 231.6,149.7 229.3,156.9 221.8,156.9 
			227.9,161.2 225.6,168.3 		"/>
		<polygon class="st2" points="242.2,187.9 239.9,180.7 237.6,187.9 230.2,187.9 236.2,192.3 234,199.3 239.9,195 245.9,199.3 
			243.6,192.3 249.7,187.9 		"/>
		<polygon class="st2" points="264.9,210.6 262.6,203.5 260.4,210.6 252.9,210.6 258.9,215 256.7,222 262.6,217.7 268.6,222 
			266.4,215 272.4,210.6 		"/>
		<polygon class="st2" points="295.9,218.8 293.6,211.7 291.3,218.8 283.8,218.8 289.9,223.2 287.6,230.3 293.6,225.9 299.6,230.3 
			297.3,223.2 303.4,218.8 		"/>
		<polygon class="st2" points="326.8,210.6 324.5,203.5 322.2,210.6 314.7,210.6 320.8,215 318.5,222 324.5,217.7 330.5,222 
			328.2,215 334.3,210.6 		"/>
		<polygon class="st2" points="349.5,187.9 347.2,180.7 344.9,187.9 337.4,187.9 343.5,192.3 341.2,199.3 347.2,195 353.2,199.3 
			350.9,192.3 357,187.9 		"/>
		<polygon class="st2" points="365.2,156.8 357.7,156.8 355.4,149.6 353.1,156.8 345.6,156.8 351.7,161.2 349.5,168.2 355.4,163.8 
			361.4,168.2 359.1,161.2 		"/>
		<polygon class="st2" points="341.2,137.3 347.2,132.9 353.2,137.3 350.9,130.2 357,125.9 349.5,125.9 347.2,118.7 344.9,125.9 
			337.4,125.9 343.5,130.2 		"/>
		<polygon class="st2" points="324.6,96.1 322.3,103.2 314.8,103.2 320.9,107.6 318.6,114.7 324.6,110.3 330.6,114.7 328.3,107.6 
			334.4,103.2 326.9,103.2 		"/>
	</g>
</g>
<g>
	<path d="M175.5,317.5v-25.1h18.1v3h-14.8v7.7h13.9v2.9h-13.9v8.5h15.4v3H175.5z"/>
	<path d="M210.9,317.5v-2.7c-1.4,2.1-3.3,3.1-5.8,3.1c-1.1,0-2.1-0.2-3-0.6c-0.9-0.4-1.6-0.9-2.1-1.5c-0.5-0.6-0.8-1.4-0.9-2.3
		c-0.1-0.6-0.2-1.6-0.2-2.9v-11.2h3.1v10.1c0,1.6,0.1,2.7,0.2,3.2c0.2,0.8,0.6,1.4,1.2,1.9c0.6,0.5,1.4,0.7,2.3,0.7s1.8-0.2,2.6-0.7
		c0.8-0.5,1.4-1.1,1.7-1.9c0.3-0.8,0.5-2,0.5-3.5v-9.7h3.1v18.1H210.9z"/>
	<path d="M219.2,317.5v-18.1h2.8v2.8c0.7-1.3,1.4-2.1,2-2.5c0.6-0.4,1.3-0.6,2-0.6c1,0,2.1,0.3,3.2,1l-1.1,2.9
		c-0.8-0.4-1.5-0.7-2.3-0.7c-0.7,0-1.3,0.2-1.8,0.6c-0.5,0.4-0.9,1-1.1,1.7c-0.3,1.1-0.5,2.3-0.5,3.6v9.5H219.2z"/>
	<path d="M230.4,308.4c0-3.4,0.9-5.9,2.8-7.5c1.6-1.3,3.5-2,5.7-2c2.5,0,4.5,0.8,6.1,2.5c1.6,1.6,2.4,3.9,2.4,6.8
		c0,2.3-0.4,4.2-1.1,5.5c-0.7,1.3-1.7,2.4-3.1,3.1c-1.3,0.7-2.8,1.1-4.4,1.1c-2.5,0-4.6-0.8-6.2-2.4
		C231.2,313.9,230.4,311.5,230.4,308.4z M233.6,308.4c0,2.3,0.5,4.1,1.5,5.2c1,1.2,2.3,1.7,3.8,1.7c1.5,0,2.8-0.6,3.8-1.7
		c1-1.2,1.5-2.9,1.5-5.3c0-2.2-0.5-3.9-1.5-5.1c-1-1.2-2.3-1.7-3.8-1.7c-1.5,0-2.8,0.6-3.8,1.7C234.1,304.4,233.6,306.1,233.6,308.4
		z"/>
	<path d="M251.7,324.5v-25.1h2.8v2.4c0.7-0.9,1.4-1.6,2.2-2.1c0.8-0.5,1.8-0.7,3-0.7c1.5,0,2.9,0.4,4.1,1.2c1.2,0.8,2.1,1.9,2.7,3.4
		c0.6,1.5,0.9,3,0.9,4.8c0,1.9-0.3,3.5-1,5c-0.7,1.5-1.6,2.6-2.9,3.4c-1.3,0.8-2.6,1.2-4,1.2c-1,0-1.9-0.2-2.8-0.6
		c-0.8-0.4-1.5-1-2-1.6v8.8H251.7z M254.5,308.5c0,2.3,0.5,4.1,1.4,5.2c0.9,1.1,2.1,1.7,3.4,1.7c1.4,0,2.5-0.6,3.5-1.7
		c1-1.2,1.5-2.9,1.5-5.4c0-2.3-0.5-4-1.4-5.2c-1-1.2-2.1-1.7-3.4-1.7c-1.3,0-2.5,0.6-3.5,1.8C255,304.4,254.5,306.2,254.5,308.5z"/>
	<path d="M270.7,312.1l3-0.5c0.2,1.2,0.6,2.2,1.4,2.8c0.8,0.7,1.9,1,3.3,1c1.4,0,2.5-0.3,3.1-0.9c0.7-0.6,1-1.2,1-2
		c0-0.7-0.3-1.2-0.9-1.6c-0.4-0.3-1.5-0.6-3.1-1c-2.3-0.6-3.8-1.1-4.7-1.5c-0.9-0.4-1.5-1-2-1.7c-0.5-0.7-0.7-1.5-0.7-2.4
		c0-0.8,0.2-1.6,0.6-2.2s0.9-1.3,1.5-1.7c0.5-0.4,1.1-0.7,2-0.9c0.8-0.2,1.7-0.4,2.7-0.4c1.4,0,2.7,0.2,3.8,0.6
		c1.1,0.4,1.9,1,2.4,1.7c0.5,0.7,0.9,1.6,1.1,2.8l-3,0.4c-0.1-0.9-0.5-1.7-1.2-2.2c-0.7-0.5-1.6-0.8-2.8-0.8c-1.4,0-2.4,0.2-3,0.7
		c-0.6,0.5-0.9,1-0.9,1.6c0,0.4,0.1,0.8,0.4,1.1c0.2,0.3,0.6,0.6,1.2,0.8c0.3,0.1,1.2,0.4,2.7,0.8c2.2,0.6,3.7,1.1,4.6,1.4
		c0.9,0.4,1.5,0.9,2,1.6c0.5,0.7,0.7,1.6,0.7,2.6c0,1-0.3,2-0.9,2.9c-0.6,0.9-1.5,1.6-2.6,2.1c-1.1,0.5-2.4,0.7-3.8,0.7
		c-2.4,0-4.2-0.5-5.4-1.5C271.8,315.5,271,314,270.7,312.1z"/>
	<path d="M290.1,317.5v-25.1h3.1v14.3l7.3-7.4h4l-6.9,6.7l7.6,11.4h-3.8l-6-9.3l-2.2,2.1v7.2H290.1z"/>
	<path d="M320.1,315.3c-1.1,1-2.2,1.7-3.3,2.1c-1.1,0.4-2.2,0.6-3.4,0.6c-2,0-3.5-0.5-4.6-1.5c-1.1-1-1.6-2.2-1.6-3.7
		c0-0.9,0.2-1.7,0.6-2.4c0.4-0.7,0.9-1.3,1.6-1.8c0.7-0.4,1.4-0.8,2.2-1c0.6-0.2,1.5-0.3,2.7-0.5c2.5-0.3,4.3-0.6,5.5-1.1
		c0-0.4,0-0.7,0-0.8c0-1.3-0.3-2.1-0.9-2.6c-0.8-0.7-2-1-3.5-1c-1.4,0-2.5,0.3-3.2,0.8c-0.7,0.5-1.2,1.4-1.5,2.7l-3-0.4
		c0.3-1.3,0.7-2.3,1.3-3.1c0.6-0.8,1.5-1.4,2.7-1.8c1.2-0.4,2.6-0.6,4.1-0.6c1.5,0,2.8,0.2,3.8,0.5c1,0.4,1.7,0.8,2.1,1.4
		c0.5,0.6,0.8,1.2,1,2.1c0.1,0.5,0.2,1.5,0.2,2.8v4.1c0,2.9,0.1,4.7,0.2,5.4c0.1,0.8,0.4,1.5,0.8,2.2h-3.2
		C320.4,316.9,320.2,316.1,320.1,315.3z M319.9,308.4c-1.1,0.5-2.8,0.8-5,1.2c-1.3,0.2-2.2,0.4-2.7,0.6c-0.5,0.2-0.9,0.6-1.2,1
		c-0.3,0.4-0.4,0.9-0.4,1.5c0,0.8,0.3,1.5,0.9,2.1c0.6,0.5,1.5,0.8,2.7,0.8c1.2,0,2.2-0.3,3.2-0.8c0.9-0.5,1.6-1.2,2-2.1
		c0.3-0.7,0.5-1.7,0.5-3.1V308.4z"/>
	<path d="M350.8,317.5v-2.7c-1.4,2.1-3.3,3.1-5.8,3.1c-1.1,0-2.1-0.2-3-0.6c-0.9-0.4-1.6-0.9-2.1-1.5c-0.5-0.6-0.8-1.4-0.9-2.3
		c-0.1-0.6-0.2-1.6-0.2-2.9v-11.2h3.1v10.1c0,1.6,0.1,2.7,0.2,3.2c0.2,0.8,0.6,1.4,1.2,1.9c0.6,0.5,1.4,0.7,2.3,0.7s1.8-0.2,2.6-0.7
		c0.8-0.5,1.4-1.1,1.7-1.9c0.3-0.8,0.5-2,0.5-3.5v-9.7h3.1v18.1H350.8z"/>
	<path d="M359,317.5v-18.1h2.8v2.6c1.3-2,3.3-3,5.8-3c1.1,0,2.1,0.2,3,0.6c0.9,0.4,1.6,0.9,2.1,1.5c0.5,0.6,0.8,1.4,1,2.3
		c0.1,0.6,0.2,1.6,0.2,3v11.2h-3.1v-11c0-1.3-0.1-2.2-0.4-2.8c-0.2-0.6-0.7-1.1-1.3-1.5c-0.6-0.4-1.3-0.6-2.1-0.6
		c-1.3,0-2.4,0.4-3.4,1.2c-1,0.8-1.4,2.4-1.4,4.7v9.9H359z"/>
	<path d="M379.2,296v-3.5h3.1v3.5H379.2z M379.2,317.5v-18.1h3.1v18.1H379.2z"/>
	<path d="M383.8,324.6l0.6-2.6c0.6,0.2,1.1,0.2,1.5,0.2c0.6,0,1.1-0.2,1.4-0.6c0.3-0.4,0.5-1.5,0.5-3.1v-19.1h3.1v19.1
		c0,2.2-0.3,3.8-0.9,4.7c-0.7,1.1-2,1.7-3.7,1.7C385.3,324.9,384.5,324.8,383.8,324.6z M387.7,296v-3.6h3.1v3.6H387.7z"/>
	<path d="M408,315.3c-1.1,1-2.2,1.7-3.3,2.1c-1.1,0.4-2.2,0.6-3.4,0.6c-2,0-3.5-0.5-4.6-1.5c-1.1-1-1.6-2.2-1.6-3.7
		c0-0.9,0.2-1.7,0.6-2.4c0.4-0.7,0.9-1.3,1.6-1.8c0.7-0.4,1.4-0.8,2.2-1c0.6-0.2,1.5-0.3,2.7-0.5c2.5-0.3,4.3-0.6,5.5-1.1
		c0-0.4,0-0.7,0-0.8c0-1.3-0.3-2.1-0.9-2.6c-0.8-0.7-2-1-3.5-1c-1.4,0-2.5,0.3-3.2,0.8c-0.7,0.5-1.2,1.4-1.5,2.7l-3-0.4
		c0.3-1.3,0.7-2.3,1.3-3.1c0.6-0.8,1.5-1.4,2.7-1.8c1.2-0.4,2.6-0.6,4.1-0.6c1.5,0,2.8,0.2,3.8,0.5c1,0.4,1.7,0.8,2.1,1.4
		c0.5,0.6,0.8,1.2,1,2.1c0.1,0.5,0.2,1.5,0.2,2.8v4.1c0,2.9,0.1,4.7,0.2,5.4c0.1,0.8,0.4,1.5,0.8,2.2h-3.2
		C408.3,316.9,408.1,316.1,408,315.3z M407.7,308.4c-1.1,0.5-2.8,0.8-5,1.2c-1.3,0.2-2.2,0.4-2.7,0.6c-0.5,0.2-0.9,0.6-1.2,1
		c-0.3,0.4-0.4,0.9-0.4,1.5c0,0.8,0.3,1.5,0.9,2.1c0.6,0.5,1.5,0.8,2.7,0.8c1.2,0,2.2-0.3,3.2-0.8c0.9-0.5,1.6-1.2,2-2.1
		c0.3-0.7,0.5-1.7,0.5-3.1V308.4z"/>
	<path d="M102.8,359.5v-3.1l12.8-16c0.9-1.1,1.8-2.1,2.6-3h-14v-3h17.9v3l-14.1,17.4l-1.5,1.8h16v3H102.8z"/>
	<path d="M138.4,357.3c-1.1,1-2.2,1.7-3.3,2.1c-1.1,0.4-2.2,0.6-3.4,0.6c-2,0-3.5-0.5-4.6-1.5c-1.1-1-1.6-2.2-1.6-3.7
		c0-0.9,0.2-1.7,0.6-2.4c0.4-0.7,0.9-1.3,1.6-1.8c0.7-0.4,1.4-0.8,2.2-1c0.6-0.2,1.5-0.3,2.7-0.5c2.5-0.3,4.3-0.6,5.5-1.1
		c0-0.4,0-0.7,0-0.8c0-1.3-0.3-2.1-0.9-2.6c-0.8-0.7-2-1-3.5-1c-1.4,0-2.5,0.3-3.2,0.8c-0.7,0.5-1.2,1.4-1.5,2.7l-3-0.4
		c0.3-1.3,0.7-2.3,1.4-3.1c0.6-0.8,1.5-1.4,2.7-1.8c1.2-0.4,2.6-0.6,4.1-0.6c1.5,0,2.8,0.2,3.8,0.5c1,0.4,1.7,0.8,2.1,1.4
		c0.5,0.6,0.8,1.2,1,2.1c0.1,0.5,0.2,1.5,0.2,2.8v4.1c0,2.9,0.1,4.7,0.2,5.4c0.1,0.8,0.4,1.5,0.8,2.2H139
		C138.6,358.9,138.4,358.1,138.4,357.3z M138.1,350.4c-1.1,0.5-2.8,0.8-5,1.2c-1.3,0.2-2.2,0.4-2.7,0.6c-0.5,0.2-0.9,0.6-1.2,1
		c-0.3,0.4-0.4,0.9-0.4,1.5c0,0.8,0.3,1.5,0.9,2.1c0.6,0.5,1.5,0.8,2.7,0.8c1.2,0,2.2-0.3,3.2-0.8c0.9-0.5,1.6-1.2,2-2.1
		c0.3-0.7,0.5-1.7,0.5-3.1V350.4z"/>
	<path d="M142.8,366.6l0.6-2.6c0.6,0.2,1.1,0.2,1.5,0.2c0.6,0,1.1-0.2,1.4-0.6c0.3-0.4,0.5-1.5,0.5-3.1v-19.1h3.1v19.1
		c0,2.2-0.3,3.8-0.9,4.7c-0.7,1.1-2,1.7-3.7,1.7C144.3,366.9,143.5,366.8,142.8,366.6z M146.7,338v-3.6h3.1v3.6H146.7z"/>
	<path d="M167.6,353.7l3.2,0.4c-0.5,1.9-1.4,3.3-2.8,4.3c-1.4,1-3.1,1.5-5.2,1.5c-2.7,0-4.8-0.8-6.3-2.5c-1.6-1.6-2.3-3.9-2.3-6.9
		c0-3.1,0.8-5.4,2.4-7.1c1.6-1.7,3.6-2.5,6.1-2.5c2.4,0,4.4,0.8,5.9,2.5c1.5,1.7,2.3,4,2.3,7c0,0.2,0,0.5,0,0.8h-13.5
		c0.1,2,0.7,3.5,1.7,4.6c1,1.1,2.3,1.6,3.8,1.6c1.1,0,2.1-0.3,2.9-0.9C166.5,355.9,167.1,355,167.6,353.7z M157.5,348.7h10.1
		c-0.1-1.5-0.5-2.7-1.2-3.4c-1-1.2-2.3-1.8-3.8-1.8c-1.4,0-2.6,0.5-3.6,1.4C158.1,345.9,157.6,347.1,157.5,348.7z"/>
	<path d="M187.1,359.5v-2.3c-1.2,1.8-2.8,2.7-5.1,2.7c-1.4,0-2.8-0.4-4-1.2c-1.2-0.8-2.2-1.9-2.8-3.3c-0.7-1.4-1-3.1-1-4.9
		c0-1.8,0.3-3.5,0.9-4.9c0.6-1.5,1.5-2.6,2.7-3.4c1.2-0.8,2.6-1.2,4.1-1.2c1.1,0,2.1,0.2,2.9,0.7c0.9,0.5,1.5,1.1,2.1,1.8v-9h3.1
		v25.1H187.1z M177.4,350.5c0,2.3,0.5,4.1,1.5,5.2c1,1.2,2.1,1.7,3.5,1.7c1.3,0,2.5-0.5,3.4-1.6c0.9-1.1,1.4-2.8,1.4-5
		c0-2.5-0.5-4.3-1.4-5.5s-2.1-1.7-3.5-1.7c-1.4,0-2.5,0.6-3.4,1.7C177.8,346.3,177.4,348.1,177.4,350.5z"/>
	<path d="M195.5,359.5v-18.1h2.8v2.6c1.3-2,3.3-3,5.8-3c1.1,0,2.1,0.2,3,0.6c0.9,0.4,1.6,0.9,2.1,1.5c0.5,0.6,0.8,1.4,1,2.3
		c0.1,0.6,0.2,1.6,0.2,3v11.2h-3.1v-11c0-1.3-0.1-2.2-0.4-2.8c-0.2-0.6-0.7-1.1-1.3-1.5c-0.6-0.4-1.3-0.6-2.1-0.6
		c-1.3,0-2.4,0.4-3.4,1.2c-1,0.8-1.4,2.4-1.4,4.7v9.9H195.5z"/>
	<path d="M214.5,350.4c0-3.4,0.9-5.9,2.8-7.5c1.6-1.3,3.5-2,5.7-2c2.5,0,4.5,0.8,6.1,2.5c1.6,1.6,2.4,3.9,2.4,6.8
		c0,2.3-0.4,4.2-1.1,5.5c-0.7,1.3-1.7,2.4-3.1,3.1c-1.3,0.7-2.8,1.1-4.4,1.1c-2.5,0-4.6-0.8-6.2-2.4
		C215.3,355.9,214.5,353.5,214.5,350.4z M217.7,350.4c0,2.3,0.5,4.1,1.5,5.2c1,1.2,2.3,1.7,3.8,1.7c1.5,0,2.8-0.6,3.8-1.7
		c1-1.2,1.5-2.9,1.5-5.3c0-2.2-0.5-3.9-1.5-5.1c-1-1.2-2.3-1.7-3.8-1.7c-1.5,0-2.8,0.6-3.8,1.7C218.2,346.4,217.7,348.1,217.7,350.4
		z"/>
	<path d="M258,359.5v-2.3c-1.2,1.8-2.8,2.7-5.1,2.7c-1.4,0-2.8-0.4-4-1.2c-1.2-0.8-2.2-1.9-2.8-3.3c-0.7-1.4-1-3.1-1-4.9
		c0-1.8,0.3-3.5,0.9-4.9c0.6-1.5,1.5-2.6,2.7-3.4c1.2-0.8,2.6-1.2,4.1-1.2c1.1,0,2.1,0.2,2.9,0.7c0.9,0.5,1.5,1.1,2.1,1.8v-9h3.1
		v25.1H258z M248.3,350.5c0,2.3,0.5,4.1,1.5,5.2c1,1.2,2.1,1.7,3.5,1.7c1.3,0,2.5-0.5,3.4-1.6c0.9-1.1,1.4-2.8,1.4-5
		c0-2.5-0.5-4.3-1.4-5.5s-2.1-1.7-3.5-1.7c-1.4,0-2.5,0.6-3.4,1.7C248.7,346.3,248.3,348.1,248.3,350.5z"/>
	<path d="M265.3,350.4c0-3.4,0.9-5.9,2.8-7.5c1.6-1.3,3.5-2,5.7-2c2.5,0,4.5,0.8,6.1,2.5c1.6,1.6,2.4,3.9,2.4,6.8
		c0,2.3-0.3,4.2-1.1,5.5c-0.7,1.3-1.7,2.4-3.1,3.1c-1.3,0.7-2.8,1.1-4.4,1.1c-2.5,0-4.6-0.8-6.2-2.4
		C266,355.9,265.3,353.5,265.3,350.4z M268.4,350.4c0,2.3,0.5,4.1,1.5,5.2c1,1.2,2.3,1.7,3.8,1.7c1.5,0,2.8-0.6,3.8-1.7
		c1-1.2,1.5-2.9,1.5-5.3c0-2.2-0.5-3.9-1.5-5.1c-1-1.2-2.3-1.7-3.8-1.7c-1.5,0-2.8,0.6-3.8,1.7C268.9,346.4,268.4,348.1,268.4,350.4
		z"/>
	<path d="M297.7,359.5v-15.8H295v-2.4h2.7v-1.9c0-1.2,0.1-2.1,0.3-2.7c0.3-0.8,0.8-1.4,1.6-1.9c0.7-0.5,1.8-0.7,3.1-0.7
		c0.9,0,1.8,0.1,2.9,0.3l-0.5,2.7c-0.6-0.1-1.2-0.2-1.8-0.2c-0.9,0-1.6,0.2-2,0.6c-0.4,0.4-0.6,1.1-0.6,2.2v1.7h3.5v2.4h-3.5v15.8
		H297.7z"/>
	<path d="M306.3,350.4c0-3.4,0.9-5.9,2.8-7.5c1.6-1.3,3.5-2,5.7-2c2.5,0,4.5,0.8,6.1,2.5c1.6,1.6,2.4,3.9,2.4,6.8
		c0,2.3-0.3,4.2-1.1,5.5c-0.7,1.3-1.7,2.4-3.1,3.1c-1.3,0.7-2.8,1.1-4.4,1.1c-2.5,0-4.6-0.8-6.2-2.4
		C307.1,355.9,306.3,353.5,306.3,350.4z M309.4,350.4c0,2.3,0.5,4.1,1.5,5.2c1,1.2,2.3,1.7,3.8,1.7c1.5,0,2.8-0.6,3.8-1.7
		c1-1.2,1.5-2.9,1.5-5.3c0-2.2-0.5-3.9-1.5-5.1c-1-1.2-2.3-1.7-3.8-1.7c-1.5,0-2.8,0.6-3.8,1.7C309.9,346.4,309.4,348.1,309.4,350.4
		z"/>
	<path d="M327.6,359.5v-18.1h2.8v2.6c1.3-2,3.3-3,5.8-3c1.1,0,2.1,0.2,3,0.6c0.9,0.4,1.6,0.9,2.1,1.5c0.5,0.6,0.8,1.4,1,2.3
		c0.1,0.6,0.2,1.6,0.2,3v11.2h-3.1v-11c0-1.3-0.1-2.2-0.4-2.8c-0.2-0.6-0.7-1.1-1.3-1.5c-0.6-0.4-1.3-0.6-2.1-0.6
		c-1.3,0-2.4,0.4-3.4,1.2c-1,0.8-1.4,2.4-1.4,4.7v9.9H327.6z"/>
	<path d="M359.5,359.5v-2.3c-1.2,1.8-2.8,2.7-5.1,2.7c-1.4,0-2.8-0.4-4-1.2c-1.2-0.8-2.2-1.9-2.8-3.3c-0.7-1.4-1-3.1-1-4.9
		c0-1.8,0.3-3.5,0.9-4.9c0.6-1.5,1.5-2.6,2.7-3.4c1.2-0.8,2.6-1.2,4-1.2c1.1,0,2.1,0.2,2.9,0.7c0.9,0.5,1.5,1.1,2.1,1.8v-9h3.1v25.1
		H359.5z M349.8,350.5c0,2.3,0.5,4.1,1.5,5.2c1,1.2,2.1,1.7,3.5,1.7c1.3,0,2.5-0.5,3.4-1.6c0.9-1.1,1.4-2.8,1.4-5
		c0-2.5-0.5-4.3-1.4-5.5s-2.1-1.7-3.5-1.7c-1.4,0-2.5,0.6-3.4,1.7C350.3,346.3,349.8,348.1,349.8,350.5z"/>
	<path d="M366.8,350.4c0-3.4,0.9-5.9,2.8-7.5c1.6-1.3,3.5-2,5.7-2c2.5,0,4.5,0.8,6.1,2.5c1.6,1.6,2.4,3.9,2.4,6.8
		c0,2.3-0.3,4.2-1.1,5.5c-0.7,1.3-1.7,2.4-3.1,3.1c-1.3,0.7-2.8,1.1-4.4,1.1c-2.5,0-4.6-0.8-6.2-2.4
		C367.5,355.9,366.8,353.5,366.8,350.4z M369.9,350.4c0,2.3,0.5,4.1,1.5,5.2c1,1.2,2.3,1.7,3.8,1.7c1.5,0,2.8-0.6,3.8-1.7
		c1-1.2,1.5-2.9,1.5-5.3c0-2.2-0.5-3.9-1.5-5.1c-1-1.2-2.3-1.7-3.8-1.7c-1.5,0-2.8,0.6-3.8,1.7C370.4,346.4,369.9,348.1,369.9,350.4
		z"/>
	<path d="M393.1,359.5l-6.9-18.1h3.2l3.9,10.9c0.4,1.2,0.8,2.4,1.2,3.7c0.3-1,0.7-2.1,1.1-3.5l4-11.1h3.2l-6.9,18.1H393.1z"/>
	<path d="M418.1,357.3c-1.1,1-2.2,1.7-3.3,2.1c-1.1,0.4-2.2,0.6-3.4,0.6c-2,0-3.5-0.5-4.6-1.5c-1.1-1-1.6-2.2-1.6-3.7
		c0-0.9,0.2-1.7,0.6-2.4c0.4-0.7,0.9-1.3,1.6-1.8c0.7-0.4,1.4-0.8,2.2-1c0.6-0.2,1.5-0.3,2.7-0.5c2.5-0.3,4.3-0.6,5.5-1.1
		c0-0.4,0-0.7,0-0.8c0-1.3-0.3-2.1-0.9-2.6c-0.8-0.7-2-1-3.5-1c-1.4,0-2.5,0.3-3.2,0.8c-0.7,0.5-1.2,1.4-1.5,2.7l-3-0.4
		c0.3-1.3,0.7-2.3,1.3-3.1c0.6-0.8,1.5-1.4,2.7-1.8c1.2-0.4,2.6-0.6,4.1-0.6c1.5,0,2.8,0.2,3.8,0.5c1,0.4,1.7,0.8,2.1,1.4
		c0.5,0.6,0.8,1.2,1,2.1c0.1,0.5,0.2,1.5,0.2,2.8v4.1c0,2.9,0.1,4.7,0.2,5.4c0.1,0.8,0.4,1.5,0.8,2.2h-3.2
		C418.4,358.9,418.2,358.1,418.1,357.3z M417.9,350.4c-1.1,0.5-2.8,0.8-5,1.2c-1.3,0.2-2.2,0.4-2.7,0.6c-0.5,0.2-0.9,0.6-1.2,1
		c-0.3,0.4-0.4,0.9-0.4,1.5c0,0.8,0.3,1.5,0.9,2.1c0.6,0.5,1.5,0.8,2.7,0.8c1.2,0,2.2-0.3,3.2-0.8c0.9-0.5,1.6-1.2,2-2.1
		c0.3-0.7,0.5-1.7,0.5-3.1V350.4z"/>
	<path d="M437.3,359.5v-25.1h18.1v3h-14.8v7.7h13.9v2.9h-13.9v8.5H456v3H437.3z"/>
	<path d="M477.7,334.5h3.3v14.5c0,2.5-0.3,4.5-0.9,6c-0.6,1.5-1.6,2.7-3.1,3.6c-1.5,0.9-3.4,1.4-5.9,1.4c-2.3,0-4.3-0.4-5.8-1.2
		c-1.5-0.8-2.6-2-3.2-3.5c-0.6-1.5-1-3.6-1-6.3v-14.5h3.3v14.5c0,2.2,0.2,3.8,0.6,4.8c0.4,1,1.1,1.8,2.1,2.4c1,0.6,2.2,0.8,3.6,0.8
		c2.4,0,4.2-0.6,5.2-1.7c1-1.1,1.6-3.2,1.6-6.4V334.5z"/>
</g>
</svg>
