<?xml version="1.0" encoding="utf-8"?>
<!-- Generator: Adobe Illustrator 25.2.1, SVG Export Plug-In . SVG Version: 6.00 Build 0)  -->
<svg version="1.1" id="Layer_1" xmlns="http://www.w3.org/2000/svg" xmlns:xlink="http://www.w3.org/1999/xlink" x="0px" y="0px"
	 viewBox="0 0 480.6 196.7" style="enable-background:new 0 0 480.6 196.7;" xml:space="preserve">
<style type="text/css">
	.st0{fill:#6D6E71;}
	.st1{fill:#00AE4D;}
	.st2{fill:#AE519F;}
	.st3{fill:#1C75BC;}
</style>
<g>
	<g>
		<g>
			<g>
				<g>
					<path class="st0" d="M167.5,130.4h12.3v1.9l-9.5,12.7h9.9v2h-13.1v-1.9l9.5-12.7h-9.1V130.4z"/>
					<path class="st0" d="M186.9,147h-2.6v-16.6h2.3l0.2,2.3c1-1.7,2.8-2.6,5.4-2.6c1.9,0,3.4,0.6,4.5,1.7c1,1.2,1.6,2.7,1.6,4.5
						V147h-2.6v-10.1c0-3-1.4-4.5-4.1-4.5c-1.6,0-2.7,0.5-3.4,1.4c-0.7,0.9-1.1,2.1-1.1,3.4V147z"/>
					<path class="st0" d="M213.5,147l-0.1-1.9c-0.9,1.5-2.7,2.2-5.4,2.2c-3.7,0-5.6-1.7-5.6-5c0-3.3,2-5,6-5h4.9V136
						c0-2.5-1.3-3.8-4-3.8c-1.3,0-2.3,0.3-3,0.8c-0.7,0.5-1,1.1-1,1.9v0.3h-2.5v-0.3c0-1.4,0.6-2.5,1.7-3.4c1.1-0.9,2.7-1.4,4.9-1.4
						c2.3,0,4,0.5,5,1.6c1,1.1,1.5,2.6,1.5,4.4v11H213.5z M208.6,145.3c1.6,0,2.8-0.4,3.5-1.1c0.7-0.7,1.1-1.8,1.1-3v-1.6h-4.5
						c-2.5,0-3.7,0.9-3.7,2.8C205,144.3,206.2,145.3,208.6,145.3z"/>
					<path class="st0" d="M223.5,147h-2.6v-16.6h2.3l0.2,2.3c1-1.7,2.8-2.6,5.4-2.6c1.9,0,3.4,0.6,4.5,1.7c1,1.2,1.6,2.7,1.6,4.5
						V147h-2.6v-10.1c0-3-1.4-4.5-4.1-4.5c-1.6,0-2.7,0.5-3.4,1.4c-0.7,0.9-1.1,2.1-1.1,3.4V147z"/>
					<path class="st0" d="M235.4,152.7v-2.2h0.9c2.4,0,3.5-0.9,3.5-2.8v-17.4h2.6v17.3c0,1.4-0.5,2.7-1.4,3.6
						c-0.9,1-2.4,1.4-4.6,1.4H235.4z M242.6,127.1h-2.7V124h2.7V127.1z"/>
					<path class="st0" d="M260.9,142.3c0,0.6-0.1,1.2-0.3,1.7c-0.2,0.6-0.6,1.1-1,1.6c-0.5,0.5-1.2,0.9-2.1,1.2
						c-0.9,0.3-2,0.5-3.3,0.5c-1.3,0-2.4-0.2-3.3-0.6c-0.9-0.4-1.7-0.9-2.2-1.5c-0.5-0.6-0.9-1.3-1.1-2c-0.2-0.7-0.3-1.5-0.3-2.3
						v-4.3c0-0.8,0.1-1.6,0.4-2.3c0.2-0.7,0.6-1.4,1.1-2.1c0.5-0.7,1.2-1.2,2.2-1.5c0.9-0.4,2-0.6,3.3-0.6c1.2,0,2.3,0.2,3.2,0.6
						c0.9,0.4,1.6,0.9,2.1,1.5c0.5,0.7,0.9,1.3,1.1,2.1c0.2,0.7,0.3,1.5,0.3,2.4v2.9h-11.1v1.7c0,1.1,0.3,2.1,1,2.9
						c0.7,0.8,1.8,1.2,3.3,1.2c1.5,0,2.5-0.3,3.2-0.9c0.7-0.6,1-1.3,1-2.2V142h2.5V142.3z M249.8,136.3v1.1h8.6v-1.1
						c0-1.1-0.3-2.1-1-2.9c-0.7-0.8-1.8-1.2-3.2-1.2c-1.5,0-2.6,0.4-3.3,1.2C250.2,134.2,249.8,135.1,249.8,136.3z"/>
					<path class="st0" d="M280.5,147.4c-2.5,0-4.2-0.7-5.2-2.2v7.6h-2.6v-22.3h2.3l0.2,2.2c1-1.7,2.8-2.6,5.4-2.6
						c1.9,0,3.4,0.6,4.4,1.8c1.1,1.2,1.6,2.7,1.6,4.6v4.5c0,1.9-0.5,3.4-1.6,4.6C284,146.8,282.5,147.4,280.5,147.4z M279.9,145
						c1.6,0,2.7-0.4,3.3-1.3c0.6-0.8,0.9-2,0.9-3.4v-3.3c0-3.1-1.4-4.7-4.2-4.7c-1.6,0-2.7,0.4-3.4,1.3c-0.7,0.9-1.1,2.1-1.1,3.5v3
						c0,1.4,0.4,2.6,1.1,3.5C277.1,144.6,278.3,145,279.9,145z"/>
					<path class="st0" d="M290.7,140.8v-4.2c0-0.8,0.1-1.6,0.4-2.4c0.2-0.7,0.6-1.4,1.1-2.1c0.5-0.7,1.2-1.2,2.2-1.5
						c0.9-0.4,2-0.6,3.3-0.6c2.4,0,4.2,0.6,5.3,1.9c1.1,1.3,1.7,2.8,1.7,4.6v4.2c0,1.8-0.6,3.4-1.7,4.7c-1.1,1.3-2.9,1.9-5.3,1.9
						c-1.3,0-2.4-0.2-3.3-0.6c-0.9-0.4-1.7-0.9-2.2-1.5c-0.5-0.7-0.9-1.3-1.1-2.1C290.9,142.4,290.7,141.6,290.7,140.8z
						 M302.1,140.8v-4.3c0-1.2-0.4-2.2-1.1-3.1c-0.7-0.9-1.8-1.3-3.3-1.3c-1.5,0-2.6,0.4-3.3,1.3c-0.7,0.9-1.1,1.9-1.1,3.1v4.3
						c0,1.2,0.4,2.2,1.1,3.1c0.7,0.9,1.8,1.3,3.3,1.3c1.5,0,2.6-0.4,3.3-1.3C301.8,143,302.1,142,302.1,140.8z"/>
					<path class="st0" d="M313.4,147l-6.1-16.6h2.7l4.7,13.4l4.6-13.4h2.6L316,147H313.4z"/>
					<path class="st0" d="M338.2,142.3c0,0.6-0.1,1.2-0.3,1.7c-0.2,0.6-0.6,1.1-1,1.6c-0.5,0.5-1.2,0.9-2.1,1.2
						c-0.9,0.3-2,0.5-3.3,0.5c-1.3,0-2.4-0.2-3.3-0.6c-0.9-0.4-1.7-0.9-2.2-1.5c-0.5-0.6-0.9-1.3-1.1-2c-0.2-0.7-0.3-1.5-0.3-2.3
						v-4.3c0-0.8,0.1-1.6,0.4-2.3c0.2-0.7,0.6-1.4,1.1-2.1c0.5-0.7,1.2-1.2,2.2-1.5c0.9-0.4,2-0.6,3.3-0.6c1.2,0,2.3,0.2,3.2,0.6
						c0.9,0.4,1.6,0.9,2.1,1.5c0.5,0.7,0.9,1.3,1.1,2.1c0.2,0.7,0.3,1.5,0.3,2.4v2.9h-11.1v1.7c0,1.1,0.3,2.1,1,2.9
						c0.7,0.8,1.8,1.2,3.3,1.2c1.5,0,2.5-0.3,3.2-0.9c0.7-0.6,1-1.3,1-2.2V142h2.5V142.3z M327.2,136.3v1.1h8.6v-1.1
						c0-1.1-0.3-2.1-1-2.9c-0.7-0.8-1.8-1.2-3.2-1.2c-1.5,0-2.6,0.4-3.3,1.2C327.5,134.2,327.2,135.1,327.2,136.3z"/>
					<path class="st0" d="M342.1,130.4h12.3v1.9l-9.5,12.7h9.9v2h-13.1v-1.9l9.5-12.7h-9.1V130.4z"/>
					<path class="st0" d="M369.4,147l-0.2-2.2c-1,1.7-2.8,2.6-5.3,2.6c-1.8,0-3.3-0.6-4.3-1.7c-1-1.1-1.6-2.6-1.6-4.3v-11h2.6v10.4
						c0,2.8,1.3,4.2,4,4.2c1.5,0,2.6-0.5,3.3-1.4c0.7-0.9,1-2.1,1-3.4v-9.8h2.6V147H369.4z"/>
					<path class="st0" d="M373.1,152.7v-2.2h0.9c2.4,0,3.5-0.9,3.5-2.8v-17.4h2.6v17.3c0,1.4-0.5,2.7-1.4,3.6
						c-0.9,1-2.4,1.4-4.6,1.4H373.1z M380.3,127.1h-2.7V124h2.7V127.1z"/>
					<path class="st0" d="M398.5,142.3c0,0.6-0.1,1.2-0.3,1.7c-0.2,0.6-0.6,1.1-1,1.6c-0.5,0.5-1.2,0.9-2.1,1.2
						c-0.9,0.3-2,0.5-3.3,0.5c-1.3,0-2.4-0.2-3.3-0.6c-0.9-0.4-1.7-0.9-2.2-1.5c-0.5-0.6-0.9-1.3-1.1-2c-0.2-0.7-0.3-1.5-0.3-2.3
						v-4.3c0-0.8,0.1-1.6,0.4-2.3c0.2-0.7,0.6-1.4,1.1-2.1c0.5-0.7,1.2-1.2,2.2-1.5c0.9-0.4,2-0.6,3.3-0.6c1.2,0,2.3,0.2,3.2,0.6
						c0.9,0.4,1.6,0.9,2.1,1.5c0.5,0.7,0.9,1.3,1.1,2.1c0.2,0.7,0.3,1.5,0.3,2.4v2.9h-11.1v1.7c0,1.1,0.3,2.1,1,2.9
						c0.7,0.8,1.8,1.2,3.3,1.2c1.5,0,2.5-0.3,3.2-0.9c0.7-0.6,1-1.3,1-2.2V142h2.5V142.3z M387.5,136.3v1.1h8.6v-1.1
						c0-1.1-0.3-2.1-1-2.9c-0.7-0.8-1.8-1.2-3.2-1.2c-1.5,0-2.6,0.4-3.3,1.2C387.9,134.2,387.5,135.1,387.5,136.3z"/>
				</g>
			</g>
		</g>
	</g>
	<g>
		<g>
			<path class="st1" d="M358.2,45.2h-49.3c-3.2,0-6,2.5-6.1,5.7c-0.1,3.3,2.6,6,5.8,6h49.6V45.2z"/>
			<path class="st2" d="M358.2,70h-49.3c-3.2,0-6,2.5-6.1,5.7c-0.1,3.3,2.6,6,5.8,6h49.6V70z"/>
			<path class="st3" d="M358.2,94.9h-49.3c-3.2,0-6,2.5-6.1,5.7c-0.1,3.3,2.6,6,5.8,6h49.6V94.9z"/>
			<g>
				<path class="st0" d="M100.2,84.8h13.2V88c0,1.9-0.2,3.8-0.7,5.6c-0.5,1.8-1.3,3.6-2.5,5.3c-1.2,1.8-2.7,3.3-4.5,4.5
					c-1.8,1.3-4.2,2.3-7,3.1c-2.9,0.8-6.1,1.2-9.8,1.2c-4.6,0-8.5-0.7-11.9-2c-3.4-1.3-5.9-3.1-7.7-5.4c-1.8-2.3-3.1-4.6-4-7.2
					c-0.8-2.5-1.3-5.2-1.3-8.1V66.6c0-2.9,0.4-5.6,1.3-8.1c0.8-2.5,2.2-4.9,4-7.2c1.8-2.3,4.4-4,7.7-5.4c3.4-1.3,7.3-2,11.9-2
					c4.5,0,8.4,0.6,11.7,1.7c3.3,1.1,5.9,2.7,7.7,4.6c1.8,1.9,3.1,4,4,6.2c0.8,2.2,1.2,4.5,1.2,7v2.5h-13.2v-1.8
					c0-2.4-0.9-4.4-2.7-6.1c-1.8-1.6-4.7-2.5-8.7-2.5c-4.2,0-7.1,1-8.9,3.1c-1.8,2.1-2.6,4.7-2.6,7.8v18.5c0,3.1,0.9,5.7,2.6,7.8
					c1.8,2.1,4.7,3.1,8.9,3.1c4.1,0,7-0.8,8.8-2.5c1.8-1.7,2.6-3.7,2.6-6.2V84.8z"/>
				<path class="st0" d="M160.7,106.6l-4.1-12.4h-22.2l-4,12.4h-13.5l21.3-61.5h14.9l21.6,61.5H160.7z M153,83.6l-7.6-22.9
					l-7.6,22.9H153z"/>
				<path class="st0" d="M206.5,85.8h-11.9v20.8h-13.4V45.1h24.1c4.7,0,8.8,0.6,12.3,1.7c3.5,1.1,6.1,2.7,8,4.6
					c1.9,2,3.2,4.1,4.1,6.4c0.8,2.3,1.3,4.8,1.3,7.6c0,8.8-3.9,14.8-11.6,18l10.6,23.2h-14.2L206.5,85.8z M205.4,56.2h-10.8v18.5
					h10.8c8,0,12-3.1,12-9.2C217.4,59.4,213.4,56.2,205.4,56.2z"/>
				<path class="st0" d="M281,106.6l-26.7-37.5v37.5h-12.7V45.1h11.2l26.6,37.4V45.1h12.7v61.5H281z"/>
				<path class="st0" d="M416.7,56.8h-18.1v49.8h-13.4V56.8h-18V45.1h49.5V56.8z"/>
			</g>
		</g>
	</g>
</g>
</svg>
