<?xml version="1.0" encoding="utf-8"?>
<!-- Generator: Adobe Illustrator 25.2.1, SVG Export Plug-In . SVG Version: 6.00 Build 0)  -->
<svg version="1.1" id="Layer_1" xmlns="http://www.w3.org/2000/svg" xmlns:xlink="http://www.w3.org/1999/xlink" x="0px" y="0px"
	 viewBox="0 0 277 235" style="enable-background:new 0 0 277 235;" xml:space="preserve">
<style type="text/css">
	.st0{fill-rule:evenodd;clip-rule:evenodd;fill:#E3000F;}
	.st1{fill:#26328A;}
	.st2{fill-rule:evenodd;clip-rule:evenodd;fill:#26328A;}
	.st3{fill:#FFED00;}
	.st4{fill:none;stroke:#26328A;stroke-width:3.2179;stroke-miterlimit:22.9256;}
</style>
<path class="st0" d="M106.6,73h19.3v19.2l-2.4-16.6L106.6,73z M104.3,70.7h23.8v23.8h-23.8V70.7z"/>
<path class="st1" d="M146.3,137.5c0-0.1,0-0.1-0.1-0.1h-0.9c-0.2,0-0.2,0.1-0.4,0.3l-1.3,1.6l-1.4-1.6c-0.1-0.2-0.2-0.3-0.4-0.3H141
	c-0.1,0-0.1,0-0.1,0.1c0,0,0,0.1,0.1,0.2l1.6,2c0.1,0.2,0.2,0.2,0.4,0.2h1.4c0.2,0,0.3-0.1,0.4-0.2l1.6-2
	C146.3,137.6,146.3,137.6,146.3,137.5 M146.4,152.5v-0.7c0-0.2-0.1-0.3-0.3-0.3c0,0,0,0-0.1,0c-0.6,0-1.8,0.1-2.7,0.1
	c-1.6,0-2.8-1-2.8-3.7v-2.3c0-2.8,1.2-3.7,2.8-3.7c0.9,0,2.2,0.1,2.7,0.1c0,0,0,0,0,0c0.2,0,0.2-0.1,0.2-0.2v-0.8
	c0-0.1-0.1-0.2-0.3-0.2c-0.7-0.1-1.7-0.3-2.7-0.3c-2,0-4.3,1-4.3,5v2.3c0,4,2.3,5,4.3,5c1.4,0,2-0.1,2.7-0.2
	C146.3,152.7,146.4,152.7,146.4,152.5z"/>
<path class="st1" d="M149.9,152.6v-11.5c0-0.2-0.1-0.3-0.3-0.3h-0.9c-0.2,0-0.3,0.1-0.3,0.3v11.5c0,0.2,0.1,0.3,0.3,0.3h0.9
	C149.8,152.9,149.9,152.7,149.9,152.6"/>
<path class="st1" d="M161.2,152.4v-11.3c0-0.2-0.1-0.3-0.3-0.3H160c-0.2,0-0.3,0.1-0.3,0.3v9.5c0,0,0,0,0,0l0,0l-5-9.5
	c-0.1-0.2-0.2-0.3-0.7-0.3h-0.9c-0.3,0-0.5,0.2-0.5,0.5v11.5c0,0.2,0.1,0.2,0.3,0.2h0.8c0.2,0,0.3-0.1,0.3-0.3v-9.5c0,0,0,0,0,0
	c0,0,0,0,0,0l5,9.6c0.1,0.2,0.3,0.3,0.5,0.3h1C160.9,152.9,161.2,152.7,161.2,152.4"/>
<path class="st1" d="M171.6,152.7c0-0.1,0-0.1-0.1-0.2l-4.9-5.9l4.9-5.5c0,0,0.1-0.1,0.1-0.2c0-0.1-0.1-0.2-0.2-0.2h-1.2
	c-0.2,0-0.2,0-0.3,0.1l-4.7,5.4v-5.3c0-0.2-0.1-0.3-0.3-0.3H164c-0.2,0-0.3,0.1-0.3,0.3v11.5c0,0.2,0.1,0.3,0.3,0.3h0.9
	c0.2,0,0.3-0.2,0.3-0.3v-5.4l4.6,5.6c0.1,0.1,0.2,0.2,0.4,0.2h1.3C171.6,152.9,171.6,152.8,171.6,152.7"/>
<path class="st1" d="M179.9,147.9c0,2.7-1.1,3.8-2.9,3.8c-1.8,0-2.9-1-2.9-3.8v-2.1c0-2.7,1.1-3.8,2.9-3.8c1.8,0,2.9,1,2.9,3.8
	V147.9z M181.4,147.9v-2.1c0-3.6-1.8-5.1-4.4-5.1c-2.6,0-4.4,1.5-4.4,5.1v2.1c0,3.6,1.9,5.1,4.4,5.1
	C179.5,153,181.4,151.5,181.4,147.9z"/>
<path class="st1" d="M191.9,141c0-0.2-0.1-0.3-0.3-0.3h-1c-0.1,0-0.2,0.1-0.3,0.2l-2.9,10.4c-0.1,0.2-0.1,0.3-0.3,0.3
	c-0.2,0-0.3-0.1-0.3-0.3L184,141c0-0.1-0.2-0.2-0.3-0.2h-0.9c-0.2,0-0.3,0.1-0.3,0.3c0,0,0,0.1,0,0.1l3,10.6c0.3,1,1.1,1.2,1.7,1.2
	c0.6,0,1.4-0.2,1.7-1.2L191.9,141C191.9,141.1,191.9,141.1,191.9,141"/>
<path class="st1" d="M195.4,152.6v-11.5c0-0.2-0.1-0.3-0.3-0.3h-0.9c-0.2,0-0.3,0.1-0.3,0.3v11.5c0,0.2,0.1,0.3,0.3,0.3h0.9
	C195.2,152.9,195.4,152.7,195.4,152.6"/>
<path class="st1" d="M205.8,141.8v-0.7c0-0.2-0.1-0.3-0.3-0.3h-7.8c-0.2,0-0.3,0.1-0.3,0.3v0.7c0,0.2,0.1,0.3,0.3,0.3h3.2v10.5
	c0,0.2,0.1,0.3,0.3,0.3h0.9c0.2,0,0.3-0.2,0.3-0.3V142h3.2C205.7,142,205.8,141.9,205.8,141.8"/>
<path class="st1" d="M209.3,152.6v-11.5c0-0.2-0.1-0.3-0.3-0.3h-0.9c-0.2,0-0.3,0.1-0.3,0.3v11.5c0,0.2,0.1,0.3,0.3,0.3h0.9
	C209.2,152.9,209.3,152.7,209.3,152.6"/>
<path class="st1" d="M137,148.3v-7.3c0-0.2-0.2-0.3-0.3-0.3h-2.1c-0.2,0-0.3,0.1-0.3,0.3v7.3c0,1.7-0.5,2.4-1.9,2.4
	c-1.5,0-1.9-0.7-1.9-2.4v-7.3c0-0.2-0.1-0.3-0.3-0.3h-2.1c-0.2,0-0.3,0.1-0.3,0.3v7.3c0,3.7,2.1,4.7,4.7,4.7
	C134.9,153,137,152,137,148.3"/>
<path class="st1" d="M134.6,173.1v-1.5c0-0.2-0.1-0.3-0.3-0.3h-2.8c-0.8,0-1-0.3-1-1.1v-8.4c0-0.2-0.1-0.3-0.3-0.3H128
	c-0.2,0-0.3,0.1-0.3,0.3v8.4c0,3,1.9,3.5,4,3.5c0.9,0,2.1-0.1,2.7-0.2C134.5,173.4,134.6,173.3,134.6,173.1"/>
<path class="st1" d="M138.9,173.6v-11.9c0-0.2-0.1-0.3-0.3-0.3h-2.1c-0.2,0-0.3,0.1-0.3,0.3v11.9c0,0.4,0,0.6-0.4,0.6h-0.8
	c-0.1,0-0.2,0.1-0.2,0.2v1.7c0,0.1,0.1,0.3,0.2,0.3c0.4,0,0.7,0.1,1,0.1C137.6,176.4,138.9,175.8,138.9,173.6"/>
<path class="st1" d="M149.6,169.1v-7.4c0-0.2-0.1-0.3-0.3-0.3h-0.9c-0.2,0-0.3,0.1-0.3,0.3v7.4c0,2.1-0.7,3.2-2.7,3.2
	c-2,0-2.7-1.1-2.7-3.2v-7.4c0-0.2-0.1-0.3-0.3-0.3h-0.9c-0.2,0-0.3,0.1-0.3,0.3v7.4c0,3.1,1.5,4.5,4.2,4.5S149.6,172.2,149.6,169.1"
	/>
<path class="st1" d="M158.9,168.5c0,2.9-1.5,3.8-3.5,3.8c-0.8,0-1.3,0-1.8,0v-9.7c0.5,0,1,0,1.8,0c2,0,3.5,0.8,3.5,3.8V168.5z
	 M160.4,168.5v-2.2c0-3.5-1.9-5.1-4.9-5.1c-1.2,0-2.5,0.1-3,0.2c-0.2,0-0.3,0.2-0.3,0.4V173c0,0.2,0.1,0.4,0.3,0.4
	c0.5,0.1,1.7,0.2,3,0.2C158.4,173.6,160.4,172,160.4,168.5z"/>
<path class="st1" d="M169.4,170.3c0-1.3-0.7-2.2-2.6-3.3l-1.5-0.9c-1.2-0.7-1.8-1.2-1.8-2c0-1.2,0.7-1.5,2.4-1.5
	c0.9,0,2.1,0,2.8,0.1c0,0,0,0,0,0c0.2,0,0.3-0.1,0.3-0.3v-0.7c0-0.2-0.1-0.2-0.3-0.3c-0.6-0.1-1.9-0.2-2.8-0.2
	c-2.5,0-3.9,0.9-3.9,2.9c0,1.3,0.7,2.1,2.2,3l1.6,1c1.5,0.9,2,1.4,2,2.2c0,1.1-0.5,1.9-2.5,1.9c-0.7,0-1.9,0-2.7-0.1c0,0,0,0,0,0
	c-0.1,0-0.3,0.1-0.3,0.3v0.7c0,0.2,0,0.2,0.3,0.3c0.7,0.1,1.6,0.2,2.7,0.2C168.6,173.6,169.4,171.9,169.4,170.3"/>
<path class="st1" d="M179.4,173.3c0-0.1,0-0.1-0.1-0.2l-4.9-5.9l4.9-5.5c0,0,0.1-0.1,0.1-0.2c0-0.1-0.1-0.2-0.2-0.2H178
	c-0.2,0-0.2,0-0.3,0.1l-4.7,5.4v-5.3c0-0.2-0.1-0.3-0.3-0.3h-0.9c-0.2,0-0.3,0.1-0.3,0.3v11.5c0,0.2,0.1,0.3,0.3,0.3h0.9
	c0.2,0,0.3-0.2,0.3-0.3v-5.4l4.6,5.6c0.1,0.1,0.2,0.2,0.4,0.2h1.3C179.4,173.5,179.4,173.4,179.4,173.3"/>
<path class="st1" d="M183.1,173.1v-11.5c0-0.2-0.1-0.3-0.3-0.3h-0.9c-0.2,0-0.3,0.1-0.3,0.3v11.5c0,0.2,0.1,0.3,0.3,0.3h0.9
	C183,173.5,183.1,173.3,183.1,173.1"/>
<path class="st1" d="M133.8,185.9c0,1.1-0.6,1.6-2.1,1.6c-0.2,0-1.1,0-1.3,0v-3.3c0.2,0,1.1,0,1.3,0c1.4,0,2.1,0.5,2.1,1.6V185.9z
	 M136.6,185.9v-0.1c0-3.1-2.4-3.9-4.9-3.9c-1.2,0-2.5,0.1-3.3,0.2c-0.5,0.1-0.7,0.2-0.7,0.8v11c0,0.2,0.1,0.3,0.3,0.3h2.1
	c0.2,0,0.3-0.1,0.3-0.3v-4c0.4,0,0.9,0,1.3,0C134.2,189.8,136.6,188.9,136.6,185.9z"/>
<path class="st1" d="M145.4,189c0,2.7-1.1,3.8-2.9,3.8c-1.8,0-2.9-1-2.9-3.8v-2.1c0-2.7,1.1-3.8,2.9-3.8c1.8,0,2.9,1,2.9,3.8V189z
	 M146.9,189v-2.1c0-3.6-1.8-5.1-4.4-5.1c-2.6,0-4.4,1.5-4.4,5.1v2.1c0,3.6,1.9,5.1,4.4,5.1C145.1,194.2,146.9,192.7,146.9,189z"/>
<path class="st1" d="M156.2,182.9v-0.7c0-0.2-0.1-0.3-0.3-0.3h-7.8c-0.2,0-0.3,0.1-0.3,0.3v0.7c0,0.2,0.1,0.3,0.3,0.3h3.2v10.5
	c0,0.2,0.1,0.3,0.3,0.3h0.9c0.2,0,0.3-0.2,0.3-0.3v-10.5h3.2C156.1,183.2,156.2,183.1,156.2,182.9"/>
<path class="st1" d="M164.4,193.9V193c0-0.1-0.1-0.2-0.2-0.2h-3.1c-1.7,0-2-0.5-2-1.7v-2.7h5c0.2,0,0.3-0.1,0.3-0.3v-0.6
	c0-0.2-0.1-0.3-0.3-0.3h-5v-2.3c0-1.2,0.3-1.7,2-1.7h3.1c0.1,0,0.2-0.1,0.2-0.2v-0.8c0-0.1-0.1-0.2-0.2-0.2
	c-0.7-0.1-2.2-0.1-3.2-0.1c-2.3,0-3.5,0.9-3.5,3v6.3c0,2.2,1.2,3,3.5,3c1,0,2.6,0,3.2-0.1C164.4,194.1,164.4,194,164.4,193.9"/>
<path class="st1" d="M175.1,193.6v-11.3c0-0.2-0.1-0.3-0.3-0.3H174c-0.2,0-0.3,0.1-0.3,0.3v9.5c0,0,0,0,0,0l0,0l-5-9.5
	c-0.1-0.2-0.2-0.3-0.7-0.3h-0.9c-0.3,0-0.5,0.2-0.5,0.5v11.5c0,0.2,0.1,0.2,0.3,0.2h0.8c0.2,0,0.3-0.1,0.3-0.3v-9.5c0,0,0,0,0,0
	c0,0,0,0,0,0l5,9.6c0.1,0.2,0.3,0.3,0.5,0.3h1C174.9,194,175.1,193.8,175.1,193.6"/>
<path class="st1" d="M184.7,193.6V193c0-0.2-0.1-0.3-0.3-0.3c0,0,0,0-0.1,0c-0.6,0-1.8,0.1-2.7,0.1c-1.6,0-2.8-1-2.8-3.7v-2.3
	c0-2.8,1.2-3.7,2.8-3.7c0.9,0,2.2,0.1,2.7,0.1c0,0,0,0,0,0c0.2,0,0.2-0.1,0.2-0.2v-0.8c0-0.1-0.1-0.2-0.3-0.2
	c-0.7-0.1-1.7-0.3-2.7-0.3c-2,0-4.3,1-4.3,5v2.3c0,4,2.3,5,4.3,5c1.4,0,2-0.1,2.7-0.2C184.6,193.9,184.7,193.8,184.7,193.6"/>
<path class="st1" d="M188.2,193.7v-11.5c0-0.2-0.1-0.3-0.3-0.3H187c-0.2,0-0.3,0.1-0.3,0.3v11.5c0,0.2,0.1,0.3,0.3,0.3h0.9
	C188.1,194,188.2,193.9,188.2,193.7"/>
<path class="st1" d="M192.6,194.7v-12.4c0-0.2-0.1-0.3-0.3-0.3h-0.9c-0.2,0-0.3,0.1-0.3,0.3v12.4c0,0.8-0.2,1.1-1,1.1h-0.6
	c-0.2,0-0.3,0.1-0.3,0.3v0.6c0,0.1,0,0.1,0.1,0.2c0.1,0,0.5,0.1,0.9,0.1C191.8,197,192.6,196.2,192.6,194.7"/>
<path class="st1" d="M200.8,188.8h-3.6l1.5-5.4c0-0.2,0.1-0.3,0.3-0.3c0.2,0,0.3,0.1,0.3,0.3L200.8,188.8z M203.7,193.8
	c0,0,0-0.1,0-0.1l-3-10.6c-0.3-1-1-1.2-1.6-1.2c-0.6,0-1.4,0.2-1.7,1.2l-3,10.6c0,0,0,0.1,0,0.1c0,0.1,0.1,0.3,0.3,0.3h1
	c0.1,0,0.3-0.1,0.3-0.2l1-3.7h4.2l1.1,3.7c0,0.1,0.1,0.2,0.3,0.2h1C203.6,194,203.7,193.9,203.7,193.8z"/>
<path class="st1" d="M211.9,193.8V193c0-0.1-0.1-0.2-0.2-0.2h-3.1c-1.7,0-2-0.5-2-1.7v-8.9c0-0.2-0.1-0.3-0.3-0.3h-0.8
	c-0.2,0-0.3,0.1-0.3,0.3v8.9c0,2.7,1.7,3,3.5,3c1.5,0,2.8-0.1,3.2-0.1C211.9,194,211.9,193.9,211.9,193.8"/>
<path class="st1" d="M215.2,193.7v-11.5c0-0.2-0.1-0.3-0.3-0.3H214c-0.2,0-0.3,0.1-0.3,0.3v11.5c0,0.2,0.1,0.3,0.3,0.3h0.9
	C215,194,215.2,193.9,215.2,193.7"/>
<path class="st2" d="M131.5,64.3c-3.6-1.4-8.1-3-15.5-3.9c5.2-13.5,7.5-24.7,29.2-11.9C140.3,52.9,135.2,57.2,131.5,64.3
	 M132.9,67.4c-4.6-1.8-11.6-4.1-21-5.2c6.6-17.1,10.8-31,38.4-14.8C144,53,137.6,58.4,132.9,67.4z"/>
<path class="st2" d="M133.9,70.9c1.6,4.7,4.8,13.8,5.4,23.3c17.4-5.6,26.4-7.7,27-35.2C160.5,64.8,146.6,70.7,133.9,70.9"/>
<path class="st2" d="M134.6,97.1c3.3,2.4,9.5,5.7,14.6,9.6c-1.4,11.1-6,18.5-26.6,12.4C128.5,114.6,136.7,105.4,134.6,97.1
	 M132.6,92.9c4,2.9,13.6,8,19.9,12.7c-1.4,14.2-8.1,22.3-34.5,14.6C124.9,114.8,135.1,102.9,132.6,92.9z"/>
<path class="st2" d="M108.4,107.1c-7.8,2.9-20.2,11.6-36.8-1.6c4-1.3,7.8-1.2,10.4-3.3C91.8,94.5,94,86.2,108.4,107.1 M113.2,108.2
	c-9.8,3.7-26.8,15.2-47.4-3.1c5.1-1.6,9.8-1.5,13.1-4.2C91.2,91.1,95.1,81.9,113.2,108.2z"/>
<path class="st2" d="M104,65.8c-1.7-4.5-3.4-6.4-5.7-12.5c-14.5,2.7-31.4,18.3-15.3,33.3C89.3,74.5,96.5,67.8,104,65.8 M107.8,67.1
	c-2.2-6-4.5-8.4-7.6-16.6C81,54.2,61.5,71.5,82.8,91.5C91.3,75.3,97.8,69.7,107.8,67.1z"/>
<path class="st3" d="M148.5,70.6c0,0,0.5,5.7,0.5,5.9c-0.2,0.1-5.8,2.7-5.8,2.7s6,1.5,6.3,1.5c0,0.2,0.8,6.4,0.8,6.4
	s3.2-5.3,3.4-5.5c0.2,0,6.3,1.2,6.3,1.2s-4-4.7-4.2-4.9c0.1-0.2,3.1-5.6,3.1-5.6s-5.7,2.4-6,2.5c-0.2-0.2-4.4-4.7-4.4-4.7
	L148.5,70.6z"/>
<line class="st4" x1="116.5" y1="100.4" x2="116.5" y2="194.3"/>
<path class="st1" d="M105.7,142.2v-1.9c0-0.2-0.2-0.4-0.4-0.4h-4.1c-1,0-1.3-0.3-1.3-1.4v-2.1h5.2c0.2,0,0.4-0.2,0.4-0.4v-1.9
	c0-0.2-0.2-0.4-0.4-0.4h-5.2v-1.8c0-1.1,0.3-1.4,1.3-1.4h4.1c0.2,0,0.4-0.2,0.4-0.4v-1.9c0-0.3-0.1-0.4-0.4-0.4
	c-0.7-0.1-1.7-0.3-3.9-0.3c-2.6,0-4.9,0.6-4.9,4.3v6.7c0,3.7,2.3,4.3,4.9,4.3c2.2,0,3.2-0.2,3.9-0.3
	C105.5,142.6,105.7,142.5,105.7,142.2"/>
<path class="st1" d="M106.1,164c0-1.6-0.6-3-2.7-4.1l-2.6-1.4c-1.1-0.6-1.4-0.8-1.4-1.4c0-0.7,0.4-1.1,1.6-1.1
	c1.4,0,3.7,0.2,4.3,0.2c0,0,0,0,0,0c0.3,0,0.3-0.2,0.3-0.3v-2c0-0.2-0.1-0.3-0.3-0.4c-0.8-0.2-2.8-0.4-4.3-0.4
	c-3.9,0-5.2,1.7-5.2,3.9c0,1.5,0.5,2.8,2.4,3.9l2.8,1.7c1.1,0.6,1.3,1,1.3,1.5c0,1-0.4,1.4-1.8,1.4c-0.8,0-3-0.2-3.8-0.2
	c0,0,0,0-0.1,0c-0.2,0-0.4,0.1-0.4,0.4v2c0,0.2,0.2,0.3,0.4,0.4c1,0.3,2.2,0.4,3.8,0.4C104.7,168.4,106.1,166.1,106.1,164"/>
<path class="st1" d="M105.7,181.1v-1.9c0-0.3-0.1-0.4-0.4-0.4c-0.7-0.1-1.7-0.3-3.9-0.3c-2.6,0-4.9,0.6-4.9,4.3v10.5
	c0,0.2,0.2,0.4,0.4,0.4h2.6c0.2,0,0.4-0.2,0.4-0.4v-5.9h5.2c0.2,0,0.4-0.2,0.4-0.4v-1.9c0-0.2-0.2-0.4-0.4-0.4h-5.2v-1.8
	c0-1.1,0.3-1.4,1.3-1.4h4.1C105.5,181.5,105.7,181.4,105.7,181.1"/>
</svg>
