<svg width="18" height="18" viewBox="0 0 18 18" fill="none" xmlns="http://www.w3.org/2000/svg">
<circle cx="9" cy="9" r="8.5" fill="white" stroke="#45bb63"/>
<path d="M8.35465 12.7712C8.13648 12.9893 7.84063 13.1118 7.53216 13.1118C7.22368 13.1118 6.92783 12.9893 6.70966 12.7712L4.16089 10.2225C3.94265 10.0043 3.82 9.70842 3.81993 9.39985C3.81986 9.09129 3.94237 8.79533 4.16051 8.57709C4.37865 8.35885 4.67455 8.2362 4.98311 8.23613C5.29168 8.23605 5.58764 8.35856 5.80588 8.5767L7.32374 10.0946C7.43931 10.2101 7.62423 10.2101 7.7398 10.0946L11.8511 5.98324C12.0708 5.77255 12.3642 5.65632 12.6686 5.65949C12.973 5.66265 13.2639 5.78496 13.4792 6.00019C13.6944 6.21541 13.8167 6.5064 13.8199 6.81075C13.823 7.1151 13.7068 7.40858 13.4961 7.62823L8.35465 12.7712Z" fill="#45bb63"/>
</svg>
