<svg width="16" height="12" viewBox="0 0 16 12" fill="none" xmlns="http://www.w3.org/2000/svg">
<g clip-path="url(#clip0)">
<path d="M8.44455 11.163C8.37634 11.2308 8.29107 11.2648 8.19727 11.2648C8.10347 11.2648 8.0182 11.2308 7.94998 11.163C7.81355 11.0273 7.81355 10.8068 7.94998 10.6711L12.2988 6.34625L7.94998 2.02135C7.81355 1.88566 7.81355 1.66518 7.94998 1.5295C8.08642 1.39381 8.30812 1.39381 8.44456 1.5295L13.0407 6.10032C13.1771 6.23601 13.1771 6.45649 13.0407 6.59217L8.44455 11.163Z" fill="#828282"/>
</g>
<g clip-path="url(#clip1)">
<path d="M3.44455 11.163C3.37634 11.2308 3.29107 11.2648 3.19727 11.2648C3.10347 11.2648 3.0182 11.2308 2.94998 11.163C2.81355 11.0273 2.81355 10.8068 2.94998 10.6711L7.29882 6.34625L2.94998 2.02135C2.81355 1.88566 2.81355 1.66518 2.94998 1.5295C3.08642 1.39381 3.30812 1.39381 3.44456 1.5295L8.04068 6.10032C8.17711 6.23601 8.17711 6.45649 8.04068 6.59217L3.44455 11.163Z" fill="#828282"/>
</g>
<defs>
<clipPath id="clip0">
<rect width="11" height="10.9395" fill="white" transform="translate(5 0.876953)"/>
</clipPath>
<clipPath id="clip1">
<rect width="11" height="10.9395" fill="white" transform="translate(0 0.876953)"/>
</clipPath>
</defs>
</svg>
