<svg width="18" height="18" viewBox="0 0 18 18" fill="none" xmlns="http://www.w3.org/2000/svg">
<circle cx="9" cy="9" r="8.5" fill="white" stroke="#cb3c2b"/>
<path d="M11.5938 4.82381L8.98248 7.43512L6.37118 4.82381C6.16225 4.62383 5.88331 4.51361 5.59412 4.51677C5.30492 4.51993 5.02846 4.63622 4.82395 4.84073C4.61945 5.04523 4.50316 5.32169 4.5 5.61089C4.49684 5.90009 4.60705 6.17902 4.80704 6.38795L7.41835 8.99926L4.80704 11.6106C4.60705 11.8195 4.49684 12.0984 4.5 12.3876C4.50316 12.6768 4.61945 12.9533 4.82395 13.1578C5.02846 13.3623 5.30492 13.4786 5.59412 13.4817C5.88331 13.4849 6.16225 13.3747 6.37118 13.1747L8.98248 10.5634L11.5938 13.1747C11.6963 13.2778 11.8181 13.3596 11.9523 13.4154C12.0866 13.4713 12.2305 13.5 12.3759 13.5C12.5212 13.5 12.6652 13.4713 12.7994 13.4154C12.9336 13.3596 13.0554 13.2778 13.1579 13.1747C13.5902 12.7424 13.5902 12.042 13.1579 11.6097L10.5466 8.99926L13.1579 6.38883C13.2607 6.28613 13.3422 6.16419 13.3978 6.02998C13.4535 5.89577 13.4821 5.75192 13.4822 5.60664C13.4822 5.46135 13.4536 5.31748 13.3981 5.18324C13.3425 5.049 13.2611 4.92702 13.1584 4.82426C13.0557 4.72149 12.9337 4.63997 12.7995 4.58433C12.6653 4.5287 12.5215 4.50004 12.3762 4.5C12.2309 4.49996 12.087 4.52853 11.9528 4.58409C11.8185 4.63965 11.6965 4.72111 11.5938 4.82381Z" fill="#cb3c2b" stroke="#cb3c2b" stroke-width="0.1"/>
</svg>
