<svg width="22" height="26" viewBox="0 0 22 26" fill="none" xmlns="http://www.w3.org/2000/svg"><path d="M7.679 17.636c-.19.63-.462 1.049-.814 1.254-.338.205-.712.242-1.122.11-.44-.132-.734-.352-.88-.66-.147-.323-.147-.719 0-1.188a83.755 83.755 0 0 1 2.046-6.248 91.339 91.339 0 0 1 2.53-6.05 2.7 2.7 0 0 1 .836-1.078c.352-.264.8-.396 1.342-.396s.99.14 1.342.418c.367.264.652.616.858 1.056a79.85 79.85 0 0 1 2.596 5.984 63.406 63.406 0 0 1 2.112 6.292c.117.44.11.836-.022 1.188-.132.337-.455.565-.968.682a1.838 1.838 0 0 1-1.012-.066c-.323-.132-.58-.477-.77-1.034a70.857 70.857 0 0 0-.418-1.386c-.132-.47-.272-.931-.418-1.386h-6.49c-.132.41-.264.829-.396 1.254-.118.425-.235.843-.352 1.254zm1.496-4.818h4.972a72.748 72.748 0 0 0-1.188-3.256c-.425-1.1-.873-2.2-1.342-3.3a100.1 100.1 0 0 0-1.298 3.3c-.396 1.085-.778 2.17-1.144 3.256z" fill="#c2c2c2"/><path stroke="#c2c2c2" stroke-width="2" d="M20.51 5.949L.493 17.297"/></svg>