<svg width="22" height="26" viewBox="0 0 22 26" fill="none" xmlns="http://www.w3.org/2000/svg">
<path d="M7.67879 17.636C7.48812 18.2667 7.21679 18.6847 6.86479 18.89C6.52746 19.0953 6.15346 19.132 5.74279 19C5.30279 18.868 5.00946 18.648 4.86279 18.34C4.71612 18.0173 4.71612 17.6213 4.86279 17.152C5.44946 15.084 6.13146 13.0013 6.90879 10.904C7.70079 8.80667 8.54412 6.79 9.43879 4.854C9.64412 4.39933 9.92279 4.04 10.2748 3.776C10.6268 3.512 11.0741 3.38 11.6168 3.38C12.1595 3.38 12.6068 3.51933 12.9588 3.798C13.3255 4.062 13.6115 4.414 13.8168 4.854C14.7408 6.76067 15.6061 8.75533 16.4128 10.838C17.2341 12.9207 17.9381 15.018 18.5248 17.13C18.6421 17.57 18.6348 17.966 18.5028 18.318C18.3708 18.6553 18.0481 18.8827 17.5348 19C17.1975 19.0733 16.8601 19.0513 16.5228 18.934C16.2001 18.802 15.9435 18.4573 15.7528 17.9C15.6208 17.4453 15.4815 16.9833 15.3348 16.514C15.2028 16.0447 15.0635 15.5827 14.9168 15.128H8.42679C8.29479 15.5387 8.16279 15.9567 8.03079 16.382C7.91346 16.8073 7.79612 17.2253 7.67879 17.636ZM9.17479 12.818H14.1468C13.7801 11.7327 13.3841 10.6473 12.9588 9.562C12.5335 8.462 12.0861 7.362 11.6168 6.262C11.1621 7.362 10.7295 8.462 10.3188 9.562C9.92279 10.6473 9.54146 11.7327 9.17479 12.818Z" fill="#333"/>
<line x1="20.5103" y1="5.94902" x2="0.49336" y2="17.2974" stroke="#333" stroke-width="2"/>
</svg>
