<svg width="17" height="18" viewBox="0 0 17 18" fill="none" xmlns="http://www.w3.org/2000/svg">
<path d="M6.55088 10.946C6.3724 10.7691 6.0833 10.7691 5.90483 10.946L1.20213 15.5982V13.0734C1.20213 12.8236 0.997737 12.6214 0.745229 12.6214C0.492721 12.6214 0.28833 12.8236 0.28833 13.0734V16.6893C0.28833 16.9391 0.492721 17.1413 0.745229 17.1413H4.40042C4.65293 17.1413 4.85732 16.9391 4.85732 16.6893C4.85732 16.4395 4.65293 16.2373 4.40042 16.2373H1.84817L6.55088 11.5851C6.72939 11.4085 6.72939 11.1226 6.55088 10.946Z" fill="white"/>
<path d="M16.4642 0.507824H12.809C12.5565 0.507824 12.3521 0.71002 12.3521 0.959816C12.3521 1.20961 12.5565 1.41181 12.809 1.41181H15.3609L10.6585 6.06401C10.48 6.24061 10.48 6.52656 10.6585 6.70312C10.837 6.87972 11.1261 6.87972 11.3046 6.70312L16.0073 2.05092V4.57576C16.0073 4.82555 16.2117 5.02775 16.4642 5.02775C16.7167 5.02775 16.9211 4.82555 16.9211 4.57576V0.959816C16.9211 0.71002 16.7167 0.507824 16.4642 0.507824Z" fill="white"/>
</svg>
