<svg width="25" height="20" viewBox="0 0 25 20" fill="none" xmlns="http://www.w3.org/2000/svg">
<path d="M21.9481 0H3.05711C1.37078 0 0 1.37078 0 3.05711V15.9683C0 17.6547 1.37078 19.0255 3.05711 19.0255H21.9429C23.6292 19.0255 25 17.6547 25 15.9683V3.06228C25.0052 1.37596 23.6344 0 21.9481 0ZM23.6085 15.9683C23.6085 16.8839 22.8636 17.6288 21.9481 17.6288H3.05711C2.14153 17.6288 1.39665 16.8839 1.39665 15.9683V3.06228C1.39665 2.1467 2.14153 1.40182 3.05711 1.40182H21.9429C22.8585 1.40182 23.6034 2.1467 23.6034 3.06228V15.9683H23.6085Z" fill="#333333"/>
<path d="M15.7665 9.35237L21.8807 3.86923C22.1652 3.61059 22.191 3.17091 21.9324 2.88123C21.6738 2.59673 21.2341 2.57087 20.9444 2.82951L12.5128 10.3973L10.8678 8.9282C10.8627 8.92303 10.8575 8.91786 10.8575 8.91269C10.8213 8.87648 10.7851 8.84544 10.7437 8.8144L4.05013 2.82433C3.76045 2.5657 3.32077 2.59156 3.06213 2.88123C2.80349 3.17091 2.82935 3.61059 3.11903 3.86923L9.30566 9.39893L3.14489 15.1666C2.86556 15.4304 2.85004 15.8701 3.11385 16.1546C3.25352 16.2994 3.43974 16.377 3.62596 16.377C3.79666 16.377 3.96736 16.3149 4.10185 16.1908L10.3557 10.3404L12.0524 11.856C12.1869 11.975 12.3524 12.0319 12.518 12.0319C12.6835 12.0319 12.8542 11.9698 12.9835 11.8508L14.7267 10.2886L20.9444 16.1959C21.0789 16.3253 21.2548 16.3873 21.4255 16.3873C21.6117 16.3873 21.7927 16.3149 21.9324 16.1701C22.1962 15.8908 22.1859 15.4459 21.9065 15.1821L15.7665 9.35237Z" fill="#333333"/>
</svg>
