<svg width="28" height="31" viewBox="0 0 28 31" fill="none" xmlns="http://www.w3.org/2000/svg">
<path d="M26.364 11.9174C26.2454 12.505 26.1472 13.3855 26.1205 14.6702C26.0349 14.2794 25.9571 13.7617 25.8913 13.2499C25.8248 12.7338 25.7711 12.2279 25.7338 11.8712C25.7304 11.8386 25.7271 11.8073 25.724 11.7773C25.7228 11.7662 25.7217 11.7554 25.7206 11.7447C25.9102 11.8858 26.1417 11.9417 26.364 11.9174ZM13.9999 2.79103L25.3767 11.4821V28.4457H17.7719V20.7424C17.7719 20.2652 17.368 19.8902 16.8853 19.8902H11.1148C10.6321 19.8902 10.2282 20.2652 10.2282 20.7424V28.4457H2.6233V11.482L13.9999 2.79103ZM12.0015 28.4457V21.5946H15.9986V28.4457H12.0015ZM11.5479 28.4457H10.8303C10.8728 28.3203 10.9179 28.1951 10.9656 28.0856C11.0081 27.9882 11.0487 27.9125 11.0859 27.8635C11.1051 27.8382 11.1178 27.8272 11.1239 27.8227C11.1346 27.8248 11.1512 27.8312 11.1747 27.8483C11.2064 27.8716 11.2426 27.9089 11.2818 27.9609C11.3603 28.0651 11.4344 28.2055 11.5003 28.3437C11.5163 28.3772 11.5323 28.4117 11.5479 28.4457ZM27.1498 11.0579C27.1457 10.8113 27.0309 10.5685 26.815 10.4035L26.8149 10.4035L14.5517 1.03515C14.5517 1.03513 14.5517 1.03512 14.5517 1.03511C14.2288 0.788285 13.7711 0.788296 13.4482 1.03515L1.18494 10.4035L1.18493 10.4035C0.974665 10.5642 0.85 10.809 0.85 11.0707V29.2978C0.85 29.775 1.25377 30.15 1.73665 30.15H26.2633C26.7462 30.15 27.15 29.775 27.15 29.2978V11.0707L27.1498 11.0579Z" fill="#333333" stroke="#333333" stroke-width="0.3"/>
</svg>
