<svg width="21" height="27" viewBox="0 0 21 27" fill="none" xmlns="http://www.w3.org/2000/svg">
<mask id="path-1-outside-1" maskUnits="userSpaceOnUse" x="0" y="0" width="21" height="27" fill="black">
<rect fill="white" width="21" height="27"/>
<path d="M16.4894 3.04369C14.2583 1.29717 11.3338 0.625839 8.46502 1.20145C4.73736 1.94965 1.79058 4.91106 1.14464 8.52583C0.577868 11.6962 1.71187 14.707 3.93083 16.7526C5.36126 18.0712 6.18173 19.9061 6.18173 21.7867V23.5053C6.18173 24.8808 7.34407 26 8.7727 26H12.2273C13.656 26 14.8183 24.8808 14.8183 23.5053C14.8183 21.9857 14.8183 24.9274 14.8183 21.2916C14.8183 19.6807 15.5969 18.0875 17.0109 16.8057C18.9105 15.0836 20 12.6558 20 10.1446C20.0002 7.37851 18.7205 4.79044 16.4894 3.04369ZM12.2273 24.3366H8.7727C8.29657 24.3366 7.90905 23.9635 7.90905 23.5051V22.618H13.091V23.5051C13.091 23.9635 12.7035 24.3366 12.2273 24.3366ZM15.827 15.5947C14.1582 17.1075 13.1987 18.9994 13.0995 20.9549H11.3637H9.63613H7.86586C7.6558 18.9212 6.68306 16.9873 5.12533 15.5511C3.22439 13.799 2.39402 11.3411 2.84676 8.80778C3.37665 5.84247 5.776 3.43999 8.81723 2.82952C11.1745 2.35634 13.5736 2.90488 15.3995 4.33416C17.2255 5.76365 18.2727 7.88135 18.2727 10.1444C18.2729 12.2294 17.4043 14.165 15.827 15.5947Z"/>
</mask>
<path d="M16.4894 3.04369C14.2583 1.29717 11.3338 0.625839 8.46502 1.20145C4.73736 1.94965 1.79058 4.91106 1.14464 8.52583C0.577868 11.6962 1.71187 14.707 3.93083 16.7526C5.36126 18.0712 6.18173 19.9061 6.18173 21.7867V23.5053C6.18173 24.8808 7.34407 26 8.7727 26H12.2273C13.656 26 14.8183 24.8808 14.8183 23.5053C14.8183 21.9857 14.8183 24.9274 14.8183 21.2916C14.8183 19.6807 15.5969 18.0875 17.0109 16.8057C18.9105 15.0836 20 12.6558 20 10.1446C20.0002 7.37851 18.7205 4.79044 16.4894 3.04369ZM12.2273 24.3366H8.7727C8.29657 24.3366 7.90905 23.9635 7.90905 23.5051V22.618H13.091V23.5051C13.091 23.9635 12.7035 24.3366 12.2273 24.3366ZM15.827 15.5947C14.1582 17.1075 13.1987 18.9994 13.0995 20.9549H11.3637H9.63613H7.86586C7.6558 18.9212 6.68306 16.9873 5.12533 15.5511C3.22439 13.799 2.39402 11.3411 2.84676 8.80778C3.37665 5.84247 5.776 3.43999 8.81723 2.82952C11.1745 2.35634 13.5736 2.90488 15.3995 4.33416C17.2255 5.76365 18.2727 7.88135 18.2727 10.1444C18.2729 12.2294 17.4043 14.165 15.827 15.5947Z" fill="#333333"/>
<path d="M16.4894 3.04369L16.736 2.72874L16.7359 2.72872L16.4894 3.04369ZM8.46502 1.20145L8.38633 0.809264L8.38631 0.809269L8.46502 1.20145ZM1.14464 8.52583L1.5384 8.59622L1.5384 8.59619L1.14464 8.52583ZM3.93083 16.7526L3.65971 17.0467L3.65972 17.0467L3.93083 16.7526ZM17.0109 16.8057L17.2796 17.102L17.2796 17.102L17.0109 16.8057ZM20 10.1446L19.6 10.1446V10.1446H20ZM7.90905 22.618V22.218H7.50905V22.618H7.90905ZM13.091 22.618H13.491V22.218H13.091V22.618ZM15.827 15.5947L15.5584 15.2983L15.5584 15.2983L15.827 15.5947ZM13.0995 20.9549V21.3549H13.4798L13.499 20.9751L13.0995 20.9549ZM7.86586 20.9549L7.46798 20.996L7.50505 21.3549H7.86586V20.9549ZM5.12533 15.5511L5.39647 15.2571L5.39643 15.257L5.12533 15.5511ZM2.84676 8.80778L3.24052 8.87816L3.24053 8.87815L2.84676 8.80778ZM8.81723 2.82952L8.73851 2.43734L8.73851 2.43734L8.81723 2.82952ZM15.3995 4.33416L15.646 4.01919L15.646 4.01919L15.3995 4.33416ZM18.2727 10.1444H17.8727V10.1444L18.2727 10.1444ZM16.7359 2.72872C14.4095 0.907554 11.3653 0.211546 8.38633 0.809264L8.54371 1.59363C11.3023 1.04013 14.107 1.68678 16.2428 3.35867L16.7359 2.72872ZM8.38631 0.809269C4.50367 1.58858 1.42683 4.67275 0.750879 8.45546L1.5384 8.59619C2.15434 5.14937 4.97105 2.31072 8.54374 1.59363L8.38631 0.809269ZM0.750885 8.45543C0.158897 11.7669 1.34532 14.9131 3.65971 17.0467L4.20195 16.4585C2.07841 14.5009 0.996839 11.6256 1.5384 8.59622L0.750885 8.45543ZM3.65972 17.0467C5.01121 18.2925 5.78173 20.0221 5.78173 21.7867H6.58173C6.58173 19.7901 5.71131 17.8499 4.20195 16.4585L3.65972 17.0467ZM5.78173 21.7867V23.5053H6.58173V21.7867H5.78173ZM5.78173 23.5053C5.78173 25.1159 7.13756 26.4 8.7727 26.4V25.6C7.55058 25.6 6.58173 24.6458 6.58173 23.5053H5.78173ZM8.7727 26.4H12.2273V25.6H8.7727V26.4ZM12.2273 26.4C13.8625 26.4 15.2183 25.1159 15.2183 23.5053H14.4183C14.4183 24.6458 13.4494 25.6 12.2273 25.6V26.4ZM15.2183 23.5053C15.2183 23.5023 15.2183 23.4994 15.2183 23.4964C15.2183 23.4935 15.2183 23.4906 15.2183 23.4877C15.2183 23.4848 15.2183 23.4819 15.2183 23.479C15.2183 23.4762 15.2183 23.4733 15.2183 23.4705C15.2183 23.4676 15.2183 23.4648 15.2183 23.462C15.2183 23.4592 15.2183 23.4564 15.2183 23.4537C15.2183 23.4509 15.2183 23.4482 15.2183 23.4454C15.2183 23.4427 15.2183 23.44 15.2183 23.4373C15.2183 23.4346 15.2183 23.4319 15.2183 23.4292C15.2183 23.4265 15.2183 23.4239 15.2183 23.4213C15.2183 23.4186 15.2183 23.416 15.2183 23.4134C15.2183 23.4108 15.2183 23.4082 15.2183 23.4056C15.2183 23.4031 15.2183 23.4005 15.2183 23.398C15.2183 23.3954 15.2183 23.3929 15.2183 23.3904C15.2183 23.3879 15.2183 23.3854 15.2183 23.3829C15.2183 23.3804 15.2183 23.378 15.2183 23.3755C15.2183 23.3731 15.2183 23.3707 15.2183 23.3683C15.2183 23.3658 15.2183 23.3634 15.2183 23.3611C15.2183 23.3587 15.2183 23.3563 15.2183 23.354C15.2183 23.3516 15.2183 23.3493 15.2183 23.347C15.2183 23.3446 15.2183 23.3423 15.2183 23.34C15.2183 23.3378 15.2183 23.3355 15.2183 23.3332C15.2183 23.331 15.2183 23.3287 15.2183 23.3265C15.2183 23.3243 15.2183 23.3221 15.2183 23.3199C15.2183 23.3177 15.2183 23.3155 15.2183 23.3133C15.2183 23.3111 15.2183 23.309 15.2183 23.3068C15.2183 23.3047 15.2183 23.3026 15.2183 23.3005C15.2183 23.2984 15.2183 23.2963 15.2183 23.2942C15.2183 23.2921 15.2183 23.29 15.2183 23.288C15.2183 23.2859 15.2183 23.2839 15.2183 23.2819C15.2183 23.2799 15.2183 23.2779 15.2183 23.2759C15.2183 23.2739 15.2183 23.2719 15.2183 23.2699C15.2183 23.268 15.2183 23.266 15.2183 23.2641C15.2183 23.2622 15.2183 23.2602 15.2183 23.2583C15.2183 23.2564 15.2183 23.2545 15.2183 23.2527C15.2183 23.2508 15.2183 23.2489 15.2183 23.2471C15.2183 23.2452 15.2183 23.2434 15.2183 23.2416C15.2183 23.2397 15.2183 23.2379 15.2183 23.2361C15.2183 23.2343 15.2183 23.2326 15.2183 23.2308C15.2183 23.229 15.2183 23.2273 15.2183 23.2255C15.2183 23.2238 15.2183 23.2221 15.2183 23.2204C15.2183 23.2187 15.2183 23.217 15.2183 23.2153C15.2183 23.2136 15.2183 23.2119 15.2183 23.2103C15.2183 23.2086 15.2183 23.207 15.2183 23.2053C15.2183 23.2037 15.2183 23.2021 15.2183 23.2005C15.2183 23.1989 15.2183 23.1973 15.2183 23.1957C15.2183 23.1941 15.2183 23.1926 15.2183 23.191C15.2183 23.1895 15.2183 23.1879 15.2183 23.1864C15.2183 23.1849 15.2183 23.1834 15.2183 23.1819C15.2183 23.1804 15.2183 23.1789 15.2183 23.1774C15.2183 23.176 15.2183 23.1745 15.2183 23.1731C15.2183 23.1716 15.2183 23.1702 15.2183 23.1688C15.2183 23.1673 15.2183 23.1659 15.2183 23.1645C15.2183 23.1631 15.2183 23.1618 15.2183 23.1604C15.2183 23.159 15.2183 23.1577 15.2183 23.1563C15.2183 23.155 15.2183 23.1536 15.2183 23.1523C15.2183 23.151 15.2183 23.1497 15.2183 23.1484C15.2183 23.1471 15.2183 23.1458 15.2183 23.1446C15.2183 23.1433 15.2183 23.142 15.2183 23.1408C15.2183 23.1395 15.2183 23.1383 15.2183 23.1371C15.2183 23.1359 15.2183 23.1346 15.2183 23.1334C15.2183 23.1323 15.2183 23.1311 15.2183 23.1299C15.2183 23.1287 15.2183 23.1276 15.2183 23.1264C15.2183 23.1253 15.2183 23.1241 15.2183 23.123C15.2183 23.1219 15.2183 23.1208 15.2183 23.1196C15.2183 23.1185 15.2183 23.1175 15.2183 23.1164C15.2183 23.1153 15.2183 23.1142 15.2183 23.1132C15.2183 23.1121 15.2183 23.1111 15.2183 23.11C15.2183 23.109 15.2183 23.108 15.2183 23.107C15.2183 23.106 15.2183 23.105 15.2183 23.104C15.2183 23.103 15.2183 23.102 15.2183 23.101C15.2183 23.1001 15.2183 23.0991 15.2183 23.0982C15.2183 23.0972 15.2183 23.0963 15.2183 23.0954C15.2183 23.0945 15.2183 23.0935 15.2183 23.0926C15.2183 23.0917 15.2183 23.0909 15.2183 23.09C15.2183 23.0891 15.2183 23.0882 15.2183 23.0874C15.2183 23.0865 15.2183 23.0857 15.2183 23.0848C15.2183 23.084 15.2183 23.0832 15.2183 23.0824C15.2183 23.0816 15.2183 23.0808 15.2183 23.08C15.2183 23.0792 15.2183 23.0784 15.2183 23.0776C15.2183 23.0768 15.2183 23.0761 15.2183 23.0753C15.2183 23.0746 15.2183 23.0738 15.2183 23.0731C15.2183 23.0724 15.2183 23.0717 15.2183 23.071C15.2183 23.0702 15.2183 23.0695 15.2183 23.0689C15.2183 23.0682 15.2183 23.0675 15.2183 23.0668C15.2183 23.0661 15.2183 23.0655 15.2183 23.0648C15.2183 23.0642 15.2183 23.0636 15.2183 23.0629C15.2183 23.0623 15.2183 23.0617 15.2183 23.0611C15.2183 23.0605 15.2183 23.0599 15.2183 23.0593C15.2183 23.0587 15.2183 23.0581 15.2183 23.0575C15.2183 23.057 15.2183 23.0564 15.2183 23.0558C15.2183 23.0553 15.2183 23.0547 15.2183 23.0542C15.2183 23.0537 15.2183 23.0532 15.2183 23.0526C15.2183 23.0521 15.2183 23.0516 15.2183 23.0511C15.2183 23.0506 15.2183 23.0501 15.2183 23.0497C15.2183 23.0492 15.2183 23.0487 15.2183 23.0483C15.2183 23.0478 15.2183 23.0474 15.2183 23.0469C15.2183 23.0465 15.2183 23.046 15.2183 23.0456C15.2183 23.0452 15.2183 23.0448 15.2183 23.0444C15.2183 23.044 15.2183 23.0436 15.2183 23.0432C15.2183 23.0428 15.2183 23.0424 15.2183 23.0421C15.2183 23.0417 15.2183 23.0413 15.2183 23.041C15.2183 23.0406 15.2183 23.0403 15.2183 23.04C15.2183 23.0396 15.2183 23.0393 15.2183 23.039C15.2183 23.0387 15.2183 23.0384 15.2183 23.038C15.2183 23.0377 15.2183 23.0375 15.2183 23.0372C15.2183 23.0369 15.2183 23.0366 15.2183 23.0363C15.2183 23.0361 15.2183 23.0358 15.2183 23.0356C15.2183 23.0353 15.2183 23.0351 15.2183 23.0348C15.2183 23.0346 15.2183 23.0344 15.2183 23.0342C15.2183 23.0339 15.2183 23.0337 15.2183 23.0335C15.2183 23.0333 15.2183 23.0331 15.2183 23.0329C15.2183 23.0327 15.2183 23.0326 15.2183 23.0324C15.2183 23.0322 15.2183 23.0321 15.2183 23.0319C15.2183 23.0317 15.2183 23.0316 15.2183 23.0315C15.2183 23.0313 15.2183 23.0312 15.2183 23.0311C15.2183 23.0309 15.2183 23.0308 15.2183 23.0307C15.2183 23.0306 15.2183 23.0305 15.2183 23.0304C15.2183 23.0303 15.2183 23.0302 15.2183 23.0301C15.2183 23.03 15.2183 23.03 15.2183 23.0299C15.2183 23.0298 15.2183 23.0298 15.2183 23.0297C15.2183 23.0297 15.2183 23.0296 15.2183 23.0296C15.2183 23.0295 15.2183 23.0295 15.2183 23.0295C15.2183 23.0294 15.2183 23.0294 15.2183 23.0294C15.2183 23.0294 14.8183 23.0294 14.4183 23.0294C14.4183 23.0294 14.4183 23.0294 14.4183 23.0294C14.4183 23.0294 14.4183 23.0295 14.4183 23.0295C14.4183 23.0295 14.4183 23.0296 14.4183 23.0296C14.4183 23.0296 14.4183 23.0297 14.4183 23.0297C14.4183 23.0298 14.4183 23.0299 14.4183 23.0299C14.4183 23.03 14.4183 23.0301 14.4183 23.0301C14.4183 23.0302 14.4183 23.0303 14.4183 23.0304C14.4183 23.0305 14.4183 23.0306 14.4183 23.0307C14.4183 23.0308 14.4183 23.0309 14.4183 23.031C14.4183 23.0311 14.4183 23.0313 14.4183 23.0314C14.4183 23.0315 14.4183 23.0317 14.4183 23.0318C14.4183 23.0319 14.4183 23.0321 14.4183 23.0322C14.4183 23.0324 14.4183 23.0325 14.4183 23.0327C14.4183 23.0329 14.4183 23.033 14.4183 23.0332C14.4183 23.0334 14.4183 23.0336 14.4183 23.0337C14.4183 23.0339 14.4183 23.0341 14.4183 23.0343C14.4183 23.0345 14.4183 23.0347 14.4183 23.0349C14.4183 23.0351 14.4183 23.0353 14.4183 23.0356C14.4183 23.0358 14.4183 23.036 14.4183 23.0362C14.4183 23.0365 14.4183 23.0367 14.4183 23.0369C14.4183 23.0372 14.4183 23.0374 14.4183 23.0377C14.4183 23.0379 14.4183 23.0382 14.4183 23.0384C14.4183 23.0387 14.4183 23.0389 14.4183 23.0392C14.4183 23.0395 14.4183 23.0397 14.4183 23.04C14.4183 23.0403 14.4183 23.0406 14.4183 23.0409C14.4183 23.0412 14.4183 23.0415 14.4183 23.0417C14.4183 23.042 14.4183 23.0423 14.4183 23.0427C14.4183 23.043 14.4183 23.0433 14.4183 23.0436C14.4183 23.0439 14.4183 23.0442 14.4183 23.0445C14.4183 23.0449 14.4183 23.0452 14.4183 23.0455C14.4183 23.0459 14.4183 23.0462 14.4183 23.0465C14.4183 23.0469 14.4183 23.0472 14.4183 23.0476C14.4183 23.0479 14.4183 23.0483 14.4183 23.0486C14.4183 23.049 14.4183 23.0493 14.4183 23.0497C14.4183 23.0501 14.4183 23.0504 14.4183 23.0508C14.4183 23.0512 14.4183 23.0516 14.4183 23.0519C14.4183 23.0523 14.4183 23.0527 14.4183 23.0531C14.4183 23.0535 14.4183 23.0539 14.4183 23.0543C14.4183 23.0547 14.4183 23.0551 14.4183 23.0555C14.4183 23.0559 14.4183 23.0563 14.4183 23.0567C14.4183 23.0571 14.4183 23.0575 14.4183 23.0579C14.4183 23.0583 14.4183 23.0587 14.4183 23.0592C14.4183 23.0596 14.4183 23.06 14.4183 23.0604C14.4183 23.0609 14.4183 23.0613 14.4183 23.0617C14.4183 23.0622 14.4183 23.0626 14.4183 23.0631C14.4183 23.0635 14.4183 23.0639 14.4183 23.0644C14.4183 23.0648 14.4183 23.0653 14.4183 23.0657C14.4183 23.0662 14.4183 23.0667 14.4183 23.0671C14.4183 23.0676 14.4183 23.068 14.4183 23.0685C14.4183 23.069 14.4183 23.0694 14.4183 23.0699C14.4183 23.0704 14.4183 23.0708 14.4183 23.0713C14.4183 23.0718 14.4183 23.0723 14.4183 23.0727C14.4183 23.0732 14.4183 23.0737 14.4183 23.0742C14.4183 23.0747 14.4183 23.0752 14.4183 23.0757C14.4183 23.0761 14.4183 23.0766 14.4183 23.0771C14.4183 23.0776 14.4183 23.0781 14.4183 23.0786C14.4183 23.0791 14.4183 23.0796 14.4183 23.0801C14.4183 23.0806 14.4183 23.0811 14.4183 23.0816C14.4183 23.0821 14.4183 23.0826 14.4183 23.0832C14.4183 23.0837 14.4183 23.0842 14.4183 23.0847C14.4183 23.0852 14.4183 23.0857 14.4183 23.0862C14.4183 23.0868 14.4183 23.0873 14.4183 23.0878C14.4183 23.0883 14.4183 23.0888 14.4183 23.0894C14.4183 23.0899 14.4183 23.0904 14.4183 23.0909C14.4183 23.0915 14.4183 23.092 14.4183 23.0925C14.4183 23.0931 14.4183 23.0936 14.4183 23.0941C14.4183 23.0947 14.4183 23.0952 14.4183 23.0957C14.4183 23.0963 14.4183 23.0968 14.4183 23.0973C14.4183 23.0979 14.4183 23.0984 14.4183 23.099C14.4183 23.0995 14.4183 23.1 14.4183 23.1006C14.4183 23.1011 14.4183 23.1017 14.4183 23.1022C14.4183 23.1027 14.4183 23.1033 14.4183 23.1038C14.4183 23.1044 14.4183 23.1049 14.4183 23.1055C14.4183 23.106 14.4183 23.1066 14.4183 23.1071C14.4183 23.1077 14.4183 23.1082 14.4183 23.1088C14.4183 23.1093 14.4183 23.1099 14.4183 23.1104C14.4183 23.111 14.4183 23.1115 14.4183 23.1121C14.4183 23.1126 14.4183 23.1132 14.4183 23.1137C14.4183 23.1143 14.4183 23.1148 14.4183 23.1154C14.4183 23.1159 14.4183 23.1165 14.4183 23.117C14.4183 23.1176 14.4183 23.1182 14.4183 23.1187C14.4183 23.1193 14.4183 23.1198 14.4183 23.1204C14.4183 23.1209 14.4183 23.1215 14.4183 23.122C14.4183 23.1226 14.4183 23.1231 14.4183 23.1237C14.4183 23.1242 14.4183 23.1248 14.4183 23.1253C14.4183 23.1259 14.4183 23.1264 14.4183 23.127C14.4183 23.1276 14.4183 23.1281 14.4183 23.1287C14.4183 23.1292 14.4183 23.1298 14.4183 23.1303C14.4183 23.1309 14.4183 23.1314 14.4183 23.132C14.4183 23.1325 14.4183 23.1331 14.4183 23.1336C14.4183 23.1342 14.4183 23.1347 14.4183 23.1353C14.4183 23.1358 14.4183 23.1363 14.4183 23.1369C14.4183 23.1374 14.4183 23.138 14.4183 23.1385C14.4183 23.1391 14.4183 23.1396 14.4183 23.1402C14.4183 23.1407 14.4183 23.1412 14.4183 23.1418C14.4183 23.1423 14.4183 23.1428 14.4183 23.1434C14.4183 23.1439 14.4183 23.1445 14.4183 23.145C14.4183 23.1455 14.4183 23.1461 14.4183 23.1466C14.4183 23.1471 14.4183 23.1477 14.4183 23.1482C14.4183 23.1487 14.4183 23.1492 14.4183 23.1498C14.4183 23.1503 14.4183 23.1508 14.4183 23.1513C14.4183 23.1519 14.4183 23.1524 14.4183 23.1529C14.4183 23.1534 14.4183 23.154 14.4183 23.1545C14.4183 23.155 14.4183 23.1555 14.4183 23.156C14.4183 23.1565 14.4183 23.157 14.4183 23.1576C14.4183 23.1581 14.4183 23.1586 14.4183 23.1591C14.4183 23.1596 14.4183 23.1601 14.4183 23.1606C14.4183 23.1611 14.4183 23.1616 14.4183 23.1621C14.4183 23.1626 14.4183 23.1631 14.4183 23.1636C14.4183 23.1641 14.4183 23.1646 14.4183 23.165C14.4183 23.1655 14.4183 23.166 14.4183 23.1665C14.4183 23.167 14.4183 23.1675 14.4183 23.1679C14.4183 23.1684 14.4183 23.1689 14.4183 23.1694C14.4183 23.1699 14.4183 23.1703 14.4183 23.1708C14.4183 23.1713 14.4183 23.1717 14.4183 23.1722C14.4183 23.1727 14.4183 23.1731 14.4183 23.1736C14.4183 23.174 14.4183 23.1745 14.4183 23.1749C14.4183 23.1754 14.4183 23.1758 14.4183 23.1763C14.4183 23.1767 14.4183 23.1772 14.4183 23.1776C14.4183 23.1781 14.4183 23.1785 14.4183 23.1789C14.4183 23.1794 14.4183 23.1798 14.4183 23.1802C14.4183 23.1807 14.4183 23.1811 14.4183 23.1815C14.4183 23.1819 14.4183 23.1823 14.4183 23.1828C14.4183 23.1832 14.4183 23.1836 14.4183 23.184C14.4183 23.1844 14.4183 23.1848 14.4183 23.1852C14.4183 23.1856 14.4183 23.186 14.4183 23.1864C14.4183 23.1868 14.4183 23.1872 14.4183 23.1876C14.4183 23.188 14.4183 23.1883 14.4183 23.1887C14.4183 23.1891 14.4183 23.1895 14.4183 23.1898C14.4183 23.1902 14.4183 23.1906 14.4183 23.1909C14.4183 23.1913 14.4183 23.1917 14.4183 23.192C14.4183 23.1924 14.4183 23.1927 14.4183 23.1931C14.4183 23.1934 14.4183 23.1938 14.4183 23.1941C14.4183 23.1944 14.4183 23.1948 14.4183 23.1951C14.4183 23.1954 14.4183 23.1958 14.4183 23.1961C14.4183 23.1964 14.4183 23.1967 14.4183 23.197C14.4183 23.1974 14.4183 23.1977 14.4183 23.198C14.4183 23.1983 14.4183 23.1986 14.4183 23.1989C14.4183 23.1992 14.4183 23.1994 14.4183 23.1997C14.4183 23.2 14.4183 23.2003 14.4183 23.2006C14.4183 23.2009 14.4183 23.2011 14.4183 23.2014C14.4183 23.2017 14.4183 23.2019 14.4183 23.2022C14.4183 23.2024 14.4183 23.2027 14.4183 23.2029C14.4183 23.2032 14.4183 23.2034 14.4183 23.2037C14.4183 23.2039 14.4183 23.2041 14.4183 23.2044C14.4183 23.2046 14.4183 23.2048 14.4183 23.205C14.4183 23.2052 14.4183 23.2054 14.4183 23.2056C14.4183 23.2059 14.4183 23.2061 14.4183 23.2062C14.4183 23.2064 14.4183 23.2066 14.4183 23.2068C14.4183 23.207 14.4183 23.2072 14.4183 23.2073C14.4183 23.2075 14.4183 23.2077 14.4183 23.2078C14.4183 23.208 14.4183 23.2082 14.4183 23.2083C14.4183 23.2085 14.4183 23.2086 14.4183 23.2087C14.4183 23.2089 14.4183 23.209 14.4183 23.2091C14.4183 23.2093 14.4183 23.2094 14.4183 23.2095C14.4183 23.2096 14.4183 23.2097 14.4183 23.2098C14.4183 23.2099 14.4183 23.21 14.4183 23.2101C14.4183 23.2102 14.4183 23.2103 14.4183 23.2104C14.4183 23.2104 14.4183 23.2105 14.4183 23.2106C14.4183 23.2106 14.4183 23.2107 14.4183 23.2108C14.4183 23.2108 14.4183 23.2109 14.4183 23.2109C14.4183 23.2109 14.4183 23.211 14.4183 23.211C14.4183 23.211 14.4183 23.211 14.4183 23.2111C14.4183 23.2111 14.8183 23.2111 15.2183 23.2111C15.2183 23.2111 15.2183 23.2111 15.2183 23.2111C15.2183 23.211 15.2183 23.211 15.2183 23.211C15.2183 23.211 15.2183 23.2109 15.2183 23.2109C15.2183 23.2108 15.2183 23.2108 15.2183 23.2107C15.2183 23.2107 15.2183 23.2106 15.2183 23.2105C15.2183 23.2105 15.2183 23.2104 15.2183 23.2103C15.2183 23.2102 15.2183 23.2101 15.2183 23.21C15.2183 23.2099 15.2183 23.2098 15.2183 23.2097C15.2183 23.2096 15.2183 23.2095 15.2183 23.2094C15.2183 23.2092 15.2183 23.2091 15.2183 23.209C15.2183 23.2088 15.2183 23.2087 15.2183 23.2085C15.2183 23.2083 15.2183 23.2082 15.2183 23.208C15.2183 23.2078 15.2183 23.2076 15.2183 23.2075C15.2183 23.2073 15.2183 23.2071 15.2183 23.2069C15.2183 23.2067 15.2183 23.2064 15.2183 23.2062C15.2183 23.206 15.2183 23.2058 15.2183 23.2055C15.2183 23.2053 15.2183 23.205 15.2183 23.2048C15.2183 23.2045 15.2183 23.2043 15.2183 23.204C15.2183 23.2037 15.2183 23.2035 15.2183 23.2032C15.2183 23.2029 15.2183 23.2026 15.2183 23.2023C15.2183 23.202 15.2183 23.2017 15.2183 23.2014C15.2183 23.201 15.2183 23.2007 15.2183 23.2004C15.2183 23.2 15.2183 23.1997 15.2183 23.1993C15.2183 23.199 15.2183 23.1986 15.2183 23.1982C15.2183 23.1979 15.2183 23.1975 15.2183 23.1971C15.2183 23.1967 15.2183 23.1963 15.2183 23.1959C15.2183 23.1955 15.2183 23.1951 15.2183 23.1947C15.2183 23.1942 15.2183 23.1938 15.2183 23.1934C15.2183 23.1929 15.2183 23.1925 15.2183 23.192C15.2183 23.1915 15.2183 23.1911 15.2183 23.1906C15.2183 23.1901 15.2183 23.1896 15.2183 23.1891C15.2183 23.1886 15.2183 23.1881 15.2183 23.1876C15.2183 23.1871 15.2183 23.1866 15.2183 23.186C15.2183 23.1855 15.2183 23.1849 15.2183 23.1844C15.2183 23.1838 15.2183 23.1833 15.2183 23.1827C15.2183 23.1821 15.2183 23.1815 15.2183 23.1809C15.2183 23.1803 15.2183 23.1797 15.2183 23.1791C15.2183 23.1785 15.2183 23.1779 15.2183 23.1773C15.2183 23.1766 15.2183 23.176 15.2183 23.1753C15.2183 23.1747 15.2183 23.174 15.2183 23.1734C15.2183 23.1727 15.2183 23.172 15.2183 23.1713C15.2183 23.1706 15.2183 23.1699 15.2183 23.1692C15.2183 23.1685 15.2183 23.1678 15.2183 23.167C15.2183 23.1663 15.2183 23.1656 15.2183 23.1648C15.2183 23.164 15.2183 23.1633 15.2183 23.1625C15.2183 23.1617 15.2183 23.1609 15.2183 23.1602C15.2183 23.1594 15.2183 23.1586 15.2183 23.1577C15.2183 23.1569 15.2183 23.1561 15.2183 23.1553C15.2183 23.1544 15.2183 23.1536 15.2183 23.1527C15.2183 23.1518 15.2183 23.151 15.2183 23.1501C15.2183 23.1492 15.2183 23.1483 15.2183 23.1474C15.2183 23.1465 15.2183 23.1456 15.2183 23.1447C15.2183 23.1438 15.2183 23.1428 15.2183 23.1419C15.2183 23.1409 15.2183 23.14 15.2183 23.139C15.2183 23.138 15.2183 23.137 15.2183 23.1361C15.2183 23.1351 15.2183 23.1341 15.2183 23.133C15.2183 23.132 15.2183 23.131 15.2183 23.13C15.2183 23.1289 15.2183 23.1279 15.2183 23.1268C15.2183 23.1258 15.2183 23.1247 15.2183 23.1236C15.2183 23.1225 15.2183 23.1214 15.2183 23.1203C15.2183 23.1192 15.2183 23.1181 15.2183 23.117C15.2183 23.1158 15.2183 23.1147 15.2183 23.1135C15.2183 23.1124 15.2183 23.1112 15.2183 23.11C15.2183 23.1089 15.2183 23.1077 15.2183 23.1065C15.2183 23.1053 15.2183 23.1041 15.2183 23.1028C15.2183 23.1016 15.2183 23.1004 15.2183 23.0991C15.2183 23.0979 15.2183 23.0966 15.2183 23.0953C15.2183 23.0941 15.2183 23.0928 15.2183 23.0915C15.2183 23.0902 15.2183 23.0889 15.2183 23.0875C15.2183 23.0862 15.2183 23.0849 15.2183 23.0835C15.2183 23.0822 15.2183 23.0808 15.2183 23.0795C15.2183 23.0781 15.2183 23.0767 15.2183 23.0753C15.2183 23.0739 15.2183 23.0725 15.2183 23.0711C15.2183 23.0696 15.2183 23.0682 15.2183 23.0667C15.2183 23.0653 15.2183 23.0638 15.2183 23.0624C15.2183 23.0609 15.2183 23.0594 15.2183 23.0579C15.2183 23.0564 15.2183 23.0549 15.2183 23.0533C15.2183 23.0518 15.2183 23.0503 15.2183 23.0487C15.2183 23.0472 15.2183 23.0456 15.2183 23.044C15.2183 23.0424 15.2183 23.0409 15.2183 23.0392C15.2183 23.0376 15.2183 23.036 15.2183 23.0344C15.2183 23.0327 15.2183 23.0311 15.2183 23.0294C15.2183 23.0278 15.2183 23.0261 15.2183 23.0244C15.2183 23.0227 15.2183 23.021 15.2183 23.0193C15.2183 23.0176 15.2183 23.0159 15.2183 23.0141C15.2183 23.0124 15.2183 23.0106 15.2183 23.0089C15.2183 23.0071 15.2183 23.0053 15.2183 23.0035C15.2183 23.0017 15.2183 22.9999 15.2183 22.9981C15.2183 22.9963 15.2183 22.9944 15.2183 22.9926C15.2183 22.9907 15.2183 22.9888 15.2183 22.987C15.2183 22.9851 15.2183 22.9832 15.2183 22.9813C15.2183 22.9794 15.2183 22.9774 15.2183 22.9755C15.2183 22.9736 15.2183 22.9716 15.2183 22.9696C15.2183 22.9677 15.2183 22.9657 15.2183 22.9637C15.2183 22.9617 15.2183 22.9597 15.2183 22.9577C15.2183 22.9556 15.2183 22.9536 15.2183 22.9515C15.2183 22.9495 15.2183 22.9474 15.2183 22.9453C15.2183 22.9432 15.2183 22.9411 15.2183 22.939C15.2183 22.9369 15.2183 22.9348 15.2183 22.9326C15.2183 22.9305 15.2183 22.9283 15.2183 22.9262C15.2183 22.924 15.2183 22.9218 15.2183 22.9196C15.2183 22.9174 15.2183 22.9152 15.2183 22.913C15.2183 22.9107 15.2183 22.9085 15.2183 22.9062C15.2183 22.9039 15.2183 22.9017 15.2183 22.8994C15.2183 22.8971 15.2183 22.8948 15.2183 22.8924C15.2183 22.8901 15.2183 22.8878 15.2183 22.8854C15.2183 22.8831 15.2183 22.8807 15.2183 22.8783C15.2183 22.8759 15.2183 22.8735 15.2183 22.8711C15.2183 22.8687 15.2183 22.8663 15.2183 22.8638C15.2183 22.8614 15.2183 22.8589 15.2183 22.8564C15.2183 22.8539 15.2183 22.8514 15.2183 22.8489C15.2183 22.8464 15.2183 22.8439 15.2183 22.8413C15.2183 22.8388 15.2183 22.8362 15.2183 22.8337C15.2183 22.8311 15.2183 22.8285 15.2183 22.8259C15.2183 22.8233 15.2183 22.8206 15.2183 22.818C15.2183 22.8154 15.2183 22.8127 15.2183 22.81C15.2183 22.8074 15.2183 22.8047 15.2183 22.802C15.2183 22.7993 15.2183 22.7965 15.2183 22.7938C15.2183 22.7911 15.2183 22.7883 15.2183 22.7855C15.2183 22.7828 15.2183 22.78 15.2183 22.7772C15.2183 22.7744 15.2183 22.7715 15.2183 22.7687C15.2183 22.7659 15.2183 22.763 15.2183 22.7601C15.2183 22.7573 15.2183 22.7544 15.2183 22.7515C15.2183 22.7486 15.2183 22.7456 15.2183 22.7427C15.2183 22.7398 15.2183 22.7368 15.2183 22.7338C15.2183 22.7309 15.2183 22.7279 15.2183 22.7249C15.2183 22.7219 15.2183 22.7188 15.2183 22.7158C15.2183 22.7128 15.2183 22.7097 15.2183 22.7066C15.2183 22.7035 15.2183 22.7004 15.2183 22.6973C15.2183 22.6942 15.2183 22.6911 15.2183 22.688C15.2183 22.6848 15.2183 22.6816 15.2183 22.6785C15.2183 22.6753 15.2183 22.6721 15.2183 22.6689C15.2183 22.6657 15.2183 22.6624 15.2183 22.6592C15.2183 22.6559 15.2183 22.6527 15.2183 22.6494C15.2183 22.6461 15.2183 22.6428 15.2183 22.6395C15.2183 22.6361 15.2183 22.6328 15.2183 22.6294C15.2183 22.6261 15.2183 22.6227 15.2183 22.6193C15.2183 22.6159 15.2183 22.6125 15.2183 22.6091C15.2183 22.6056 15.2183 22.6022 15.2183 22.5987C15.2183 22.5953 15.2183 22.5918 15.2183 22.5883C15.2183 22.5848 15.2183 22.5812 15.2183 22.5777C15.2183 22.5742 15.2183 22.5706 15.2183 22.567C15.2183 22.5635 15.2183 22.5599 15.2183 22.5563C15.2183 22.5526 15.2183 22.549 15.2183 22.5454C15.2183 22.5417 15.2183 22.538 15.2183 22.5344C15.2183 22.5307 15.2183 22.527 15.2183 22.5232C15.2183 22.5195 15.2183 22.5158 15.2183 22.512C15.2183 22.5082 15.2183 22.5045 15.2183 22.5007C15.2183 22.4969 15.2183 22.493 15.2183 22.4892C15.2183 22.4854 15.2183 22.4815 15.2183 22.4776C15.2183 22.4738 15.2183 22.4699 15.2183 22.4659C15.2183 22.462 15.2183 22.4581 15.2183 22.4541C15.2183 22.4502 15.2183 22.4462 15.2183 22.4422C15.2183 22.4382 15.2183 22.4342 15.2183 22.4302C15.2183 22.4262 15.2183 22.4221 15.2183 22.4181C15.2183 22.414 15.2183 22.4099 15.2183 22.4058C15.2183 22.4017 15.2183 22.3975 15.2183 22.3934C15.2183 22.3893 15.2183 22.3851 15.2183 22.3809C15.2183 22.3767 15.2183 22.3725 15.2183 22.3683C15.2183 22.3641 15.2183 22.3598 15.2183 22.3555C15.2183 22.3513 15.2183 22.347 15.2183 22.3427C15.2183 22.3384 15.2183 22.3341 15.2183 22.3297C15.2183 22.3254 15.2183 22.321 15.2183 22.3166C15.2183 22.3122 15.2183 22.3078 15.2183 22.3034C15.2183 22.299 15.2183 22.2945 15.2183 22.29C15.2183 22.2856 15.2183 22.2811 15.2183 22.2766C15.2183 22.2721 15.2183 22.2675 15.2183 22.263C15.2183 22.2585 15.2183 22.2539 15.2183 22.2493C15.2183 22.2447 15.2183 22.2401 15.2183 22.2355C15.2183 22.2308 15.2183 22.2262 15.2183 22.2215C15.2183 22.2168 15.2183 22.2121 15.2183 22.2074C15.2183 22.2027 15.2183 22.198 15.2183 22.1932C15.2183 22.1885 15.2183 22.1837 15.2183 22.1789C15.2183 22.1741 15.2183 22.1693 15.2183 22.1644C15.2183 22.1596 15.2183 22.1547 15.2183 22.1499C15.2183 22.145 15.2183 22.1401 15.2183 22.1351C15.2183 22.1302 15.2183 22.1253 15.2183 22.1203C15.2183 22.1153 15.2183 22.1104 15.2183 22.1053C15.2183 22.1003 15.2183 22.0953 15.2183 22.0903C15.2183 22.0852 15.2183 22.0801 15.2183 22.075C15.2183 22.0699 15.2183 22.0648 15.2183 22.0597C15.2183 22.0545 15.2183 22.0494 15.2183 22.0442C15.2183 22.039 15.2183 22.0338 15.2183 22.0286C15.2183 22.0234 15.2183 22.0181 15.2183 22.0128C15.2183 22.0076 15.2183 22.0023 15.2183 21.997C15.2183 21.9917 15.2183 21.9863 15.2183 21.981C15.2183 21.9756 15.2183 21.9702 15.2183 21.9648C15.2183 21.9594 15.2183 21.954 15.2183 21.9486C15.2183 21.9431 15.2183 21.9376 15.2183 21.9322C15.2183 21.9267 15.2183 21.9212 15.2183 21.9156C15.2183 21.9101 15.2183 21.9045 15.2183 21.8989C15.2183 21.8934 15.2183 21.8878 15.2183 21.8821C15.2183 21.8765 15.2183 21.8709 15.2183 21.8652C15.2183 21.8595 15.2183 21.8538 15.2183 21.8481C15.2183 21.8424 15.2183 21.8367 15.2183 21.8309C15.2183 21.8252 15.2183 21.8194 15.2183 21.8136C15.2183 21.8078 15.2183 21.8019 15.2183 21.7961C15.2183 21.7902 15.2183 21.7843 15.2183 21.7785C15.2183 21.7726 15.2183 21.7666 15.2183 21.7607C15.2183 21.7547 15.2183 21.7488 15.2183 21.7428C15.2183 21.7368 15.2183 21.7308 15.2183 21.7247C15.2183 21.7187 15.2183 21.7126 15.2183 21.7066C15.2183 21.7005 15.2183 21.6944 15.2183 21.6882C15.2183 21.6821 15.2183 21.676 15.2183 21.6698C15.2183 21.6636 15.2183 21.6574 15.2183 21.6512C15.2183 21.645 15.2183 21.6387 15.2183 21.6324C15.2183 21.6262 15.2183 21.6199 15.2183 21.6135C15.2183 21.6072 15.2183 21.6009 15.2183 21.5945C15.2183 21.5882 15.2183 21.5818 15.2183 21.5753C15.2183 21.5689 15.2183 21.5625 15.2183 21.556C15.2183 21.5496 15.2183 21.5431 15.2183 21.5366C15.2183 21.5301 15.2183 21.5235 15.2183 21.517C15.2183 21.5104 15.2183 21.5038 15.2183 21.4972C15.2183 21.4906 15.2183 21.484 15.2183 21.4773C15.2183 21.4707 15.2183 21.464 15.2183 21.4573C15.2183 21.4506 15.2183 21.4438 15.2183 21.4371C15.2183 21.4303 15.2183 21.4236 15.2183 21.4168C15.2183 21.41 15.2183 21.4031 15.2183 21.3963C15.2183 21.3894 15.2183 21.3825 15.2183 21.3756C15.2183 21.3687 15.2183 21.3618 15.2183 21.3549C15.2183 21.3479 15.2183 21.3409 15.2183 21.3339C15.2183 21.3269 15.2183 21.3199 15.2183 21.3129C15.2183 21.3058 15.2183 21.2987 15.2183 21.2916H14.4183C14.4183 21.2987 14.4183 21.3058 14.4183 21.3129C14.4183 21.3199 14.4183 21.3269 14.4183 21.3339C14.4183 21.3409 14.4183 21.3479 14.4183 21.3549C14.4183 21.3618 14.4183 21.3687 14.4183 21.3756C14.4183 21.3825 14.4183 21.3894 14.4183 21.3963C14.4183 21.4031 14.4183 21.41 14.4183 21.4168C14.4183 21.4236 14.4183 21.4303 14.4183 21.4371C14.4183 21.4438 14.4183 21.4506 14.4183 21.4573C14.4183 21.464 14.4183 21.4707 14.4183 21.4773C14.4183 21.484 14.4183 21.4906 14.4183 21.4972C14.4183 21.5038 14.4183 21.5104 14.4183 21.517C14.4183 21.5235 14.4183 21.5301 14.4183 21.5366C14.4183 21.5431 14.4183 21.5496 14.4183 21.556C14.4183 21.5625 14.4183 21.5689 14.4183 21.5753C14.4183 21.5818 14.4183 21.5882 14.4183 21.5945C14.4183 21.6009 14.4183 21.6072 14.4183 21.6135C14.4183 21.6199 14.4183 21.6262 14.4183 21.6324C14.4183 21.6387 14.4183 21.645 14.4183 21.6512C14.4183 21.6574 14.4183 21.6636 14.4183 21.6698C14.4183 21.676 14.4183 21.6821 14.4183 21.6882C14.4183 21.6944 14.4183 21.7005 14.4183 21.7066C14.4183 21.7126 14.4183 21.7187 14.4183 21.7247C14.4183 21.7308 14.4183 21.7368 14.4183 21.7428C14.4183 21.7488 14.4183 21.7547 14.4183 21.7607C14.4183 21.7666 14.4183 21.7726 14.4183 21.7785C14.4183 21.7843 14.4183 21.7902 14.4183 21.7961C14.4183 21.8019 14.4183 21.8078 14.4183 21.8136C14.4183 21.8194 14.4183 21.8252 14.4183 21.8309C14.4183 21.8367 14.4183 21.8424 14.4183 21.8481C14.4183 21.8538 14.4183 21.8595 14.4183 21.8652C14.4183 21.8709 14.4183 21.8765 14.4183 21.8821C14.4183 21.8878 14.4183 21.8934 14.4183 21.8989C14.4183 21.9045 14.4183 21.9101 14.4183 21.9156C14.4183 21.9212 14.4183 21.9267 14.4183 21.9322C14.4183 21.9376 14.4183 21.9431 14.4183 21.9486C14.4183 21.954 14.4183 21.9594 14.4183 21.9648C14.4183 21.9702 14.4183 21.9756 14.4183 21.981C14.4183 21.9863 14.4183 21.9917 14.4183 21.997C14.4183 22.0023 14.4183 22.0076 14.4183 22.0128C14.4183 22.0181 14.4183 22.0234 14.4183 22.0286C14.4183 22.0338 14.4183 22.039 14.4183 22.0442C14.4183 22.0494 14.4183 22.0545 14.4183 22.0597C14.4183 22.0648 14.4183 22.0699 14.4183 22.075C14.4183 22.0801 14.4183 22.0852 14.4183 22.0903C14.4183 22.0953 14.4183 22.1003 14.4183 22.1053C14.4183 22.1104 14.4183 22.1153 14.4183 22.1203C14.4183 22.1253 14.4183 22.1302 14.4183 22.1351C14.4183 22.1401 14.4183 22.145 14.4183 22.1499C14.4183 22.1547 14.4183 22.1596 14.4183 22.1644C14.4183 22.1693 14.4183 22.1741 14.4183 22.1789C14.4183 22.1837 14.4183 22.1885 14.4183 22.1932C14.4183 22.198 14.4183 22.2027 14.4183 22.2074C14.4183 22.2121 14.4183 22.2168 14.4183 22.2215C14.4183 22.2262 14.4183 22.2308 14.4183 22.2355C14.4183 22.2401 14.4183 22.2447 14.4183 22.2493C14.4183 22.2539 14.4183 22.2585 14.4183 22.263C14.4183 22.2675 14.4183 22.2721 14.4183 22.2766C14.4183 22.2811 14.4183 22.2856 14.4183 22.29C14.4183 22.2945 14.4183 22.299 14.4183 22.3034C14.4183 22.3078 14.4183 22.3122 14.4183 22.3166C14.4183 22.321 14.4183 22.3254 14.4183 22.3297C14.4183 22.3341 14.4183 22.3384 14.4183 22.3427C14.4183 22.347 14.4183 22.3513 14.4183 22.3555C14.4183 22.3598 14.4183 22.3641 14.4183 22.3683C14.4183 22.3725 14.4183 22.3767 14.4183 22.3809C14.4183 22.3851 14.4183 22.3893 14.4183 22.3934C14.4183 22.3975 14.4183 22.4017 14.4183 22.4058C14.4183 22.4099 14.4183 22.414 14.4183 22.4181C14.4183 22.4221 14.4183 22.4262 14.4183 22.4302C14.4183 22.4342 14.4183 22.4382 14.4183 22.4422C14.4183 22.4462 14.4183 22.4502 14.4183 22.4541C14.4183 22.4581 14.4183 22.462 14.4183 22.4659C14.4183 22.4699 14.4183 22.4738 14.4183 22.4776C14.4183 22.4815 14.4183 22.4854 14.4183 22.4892C14.4183 22.493 14.4183 22.4969 14.4183 22.5007C14.4183 22.5045 14.4183 22.5082 14.4183 22.512C14.4183 22.5158 14.4183 22.5195 14.4183 22.5232C14.4183 22.527 14.4183 22.5307 14.4183 22.5344C14.4183 22.538 14.4183 22.5417 14.4183 22.5454C14.4183 22.549 14.4183 22.5526 14.4183 22.5563C14.4183 22.5599 14.4183 22.5635 14.4183 22.567C14.4183 22.5706 14.4183 22.5742 14.4183 22.5777C14.4183 22.5812 14.4183 22.5848 14.4183 22.5883C14.4183 22.5918 14.4183 22.5953 14.4183 22.5987C14.4183 22.6022 14.4183 22.6056 14.4183 22.6091C14.4183 22.6125 14.4183 22.6159 14.4183 22.6193C14.4183 22.6227 14.4183 22.6261 14.4183 22.6294C14.4183 22.6328 14.4183 22.6361 14.4183 22.6395C14.4183 22.6428 14.4183 22.6461 14.4183 22.6494C14.4183 22.6527 14.4183 22.6559 14.4183 22.6592C14.4183 22.6624 14.4183 22.6657 14.4183 22.6689C14.4183 22.6721 14.4183 22.6753 14.4183 22.6785C14.4183 22.6816 14.4183 22.6848 14.4183 22.688C14.4183 22.6911 14.4183 22.6942 14.4183 22.6973C14.4183 22.7004 14.4183 22.7035 14.4183 22.7066C14.4183 22.7097 14.4183 22.7128 14.4183 22.7158C14.4183 22.7188 14.4183 22.7219 14.4183 22.7249C14.4183 22.7279 14.4183 22.7309 14.4183 22.7338C14.4183 22.7368 14.4183 22.7398 14.4183 22.7427C14.4183 22.7456 14.4183 22.7486 14.4183 22.7515C14.4183 22.7544 14.4183 22.7573 14.4183 22.7601C14.4183 22.763 14.4183 22.7659 14.4183 22.7687C14.4183 22.7715 14.4183 22.7744 14.4183 22.7772C14.4183 22.78 14.4183 22.7828 14.4183 22.7855C14.4183 22.7883 14.4183 22.7911 14.4183 22.7938C14.4183 22.7965 14.4183 22.7993 14.4183 22.802C14.4183 22.8047 14.4183 22.8074 14.4183 22.81C14.4183 22.8127 14.4183 22.8154 14.4183 22.818C14.4183 22.8206 14.4183 22.8233 14.4183 22.8259C14.4183 22.8285 14.4183 22.8311 14.4183 22.8337C14.4183 22.8362 14.4183 22.8388 14.4183 22.8413C14.4183 22.8439 14.4183 22.8464 14.4183 22.8489C14.4183 22.8514 14.4183 22.8539 14.4183 22.8564C14.4183 22.8589 14.4183 22.8614 14.4183 22.8638C14.4183 22.8663 14.4183 22.8687 14.4183 22.8711C14.4183 22.8735 14.4183 22.8759 14.4183 22.8783C14.4183 22.8807 14.4183 22.8831 14.4183 22.8854C14.4183 22.8878 14.4183 22.8901 14.4183 22.8924C14.4183 22.8948 14.4183 22.8971 14.4183 22.8994C14.4183 22.9017 14.4183 22.9039 14.4183 22.9062C14.4183 22.9085 14.4183 22.9107 14.4183 22.913C14.4183 22.9152 14.4183 22.9174 14.4183 22.9196C14.4183 22.9218 14.4183 22.924 14.4183 22.9262C14.4183 22.9283 14.4183 22.9305 14.4183 22.9326C14.4183 22.9348 14.4183 22.9369 14.4183 22.939C14.4183 22.9411 14.4183 22.9432 14.4183 22.9453C14.4183 22.9474 14.4183 22.9495 14.4183 22.9515C14.4183 22.9536 14.4183 22.9556 14.4183 22.9577C14.4183 22.9597 14.4183 22.9617 14.4183 22.9637C14.4183 22.9657 14.4183 22.9677 14.4183 22.9696C14.4183 22.9716 14.4183 22.9736 14.4183 22.9755C14.4183 22.9774 14.4183 22.9794 14.4183 22.9813C14.4183 22.9832 14.4183 22.9851 14.4183 22.987C14.4183 22.9888 14.4183 22.9907 14.4183 22.9926C14.4183 22.9944 14.4183 22.9963 14.4183 22.9981C14.4183 22.9999 14.4183 23.0017 14.4183 23.0035C14.4183 23.0053 14.4183 23.0071 14.4183 23.0089C14.4183 23.0106 14.4183 23.0124 14.4183 23.0141C14.4183 23.0159 14.4183 23.0176 14.4183 23.0193C14.4183 23.021 14.4183 23.0227 14.4183 23.0244C14.4183 23.0261 14.4183 23.0278 14.4183 23.0294C14.4183 23.0311 14.4183 23.0327 14.4183 23.0344C14.4183 23.036 14.4183 23.0376 14.4183 23.0392C14.4183 23.0409 14.4183 23.0424 14.4183 23.044C14.4183 23.0456 14.4183 23.0472 14.4183 23.0487C14.4183 23.0503 14.4183 23.0518 14.4183 23.0533C14.4183 23.0549 14.4183 23.0564 14.4183 23.0579C14.4183 23.0594 14.4183 23.0609 14.4183 23.0624C14.4183 23.0638 14.4183 23.0653 14.4183 23.0667C14.4183 23.0682 14.4183 23.0696 14.4183 23.0711C14.4183 23.0725 14.4183 23.0739 14.4183 23.0753C14.4183 23.0767 14.4183 23.0781 14.4183 23.0795C14.4183 23.0808 14.4183 23.0822 14.4183 23.0835C14.4183 23.0849 14.4183 23.0862 14.4183 23.0875C14.4183 23.0889 14.4183 23.0902 14.4183 23.0915C14.4183 23.0928 14.4183 23.0941 14.4183 23.0953C14.4183 23.0966 14.4183 23.0979 14.4183 23.0991C14.4183 23.1004 14.4183 23.1016 14.4183 23.1028C14.4183 23.1041 14.4183 23.1053 14.4183 23.1065C14.4183 23.1077 14.4183 23.1089 14.4183 23.11C14.4183 23.1112 14.4183 23.1124 14.4183 23.1135C14.4183 23.1147 14.4183 23.1158 14.4183 23.117C14.4183 23.1181 14.4183 23.1192 14.4183 23.1203C14.4183 23.1214 14.4183 23.1225 14.4183 23.1236C14.4183 23.1247 14.4183 23.1258 14.4183 23.1268C14.4183 23.1279 14.4183 23.1289 14.4183 23.13C14.4183 23.131 14.4183 23.132 14.4183 23.133C14.4183 23.1341 14.4183 23.1351 14.4183 23.1361C14.4183 23.137 14.4183 23.138 14.4183 23.139C14.4183 23.14 14.4183 23.1409 14.4183 23.1419C14.4183 23.1428 14.4183 23.1438 14.4183 23.1447C14.4183 23.1456 14.4183 23.1465 14.4183 23.1474C14.4183 23.1483 14.4183 23.1492 14.4183 23.1501C14.4183 23.151 14.4183 23.1518 14.4183 23.1527C14.4183 23.1536 14.4183 23.1544 14.4183 23.1553C14.4183 23.1561 14.4183 23.1569 14.4183 23.1577C14.4183 23.1586 14.4183 23.1594 14.4183 23.1602C14.4183 23.1609 14.4183 23.1617 14.4183 23.1625C14.4183 23.1633 14.4183 23.164 14.4183 23.1648C14.4183 23.1656 14.4183 23.1663 14.4183 23.167C14.4183 23.1678 14.4183 23.1685 14.4183 23.1692C14.4183 23.1699 14.4183 23.1706 14.4183 23.1713C14.4183 23.172 14.4183 23.1727 14.4183 23.1734C14.4183 23.174 14.4183 23.1747 14.4183 23.1753C14.4183 23.176 14.4183 23.1766 14.4183 23.1773C14.4183 23.1779 14.4183 23.1785 14.4183 23.1791C14.4183 23.1797 14.4183 23.1803 14.4183 23.1809C14.4183 23.1815 14.4183 23.1821 14.4183 23.1827C14.4183 23.1833 14.4183 23.1838 14.4183 23.1844C14.4183 23.1849 14.4183 23.1855 14.4183 23.186C14.4183 23.1866 14.4183 23.1871 14.4183 23.1876C14.4183 23.1881 14.4183 23.1886 14.4183 23.1891C14.4183 23.1896 14.4183 23.1901 14.4183 23.1906C14.4183 23.1911 14.4183 23.1915 14.4183 23.192C14.4183 23.1925 14.4183 23.1929 14.4183 23.1934C14.4183 23.1938 14.4183 23.1942 14.4183 23.1947C14.4183 23.1951 14.4183 23.1955 14.4183 23.1959C14.4183 23.1963 14.4183 23.1967 14.4183 23.1971C14.4183 23.1975 14.4183 23.1979 14.4183 23.1982C14.4183 23.1986 14.4183 23.199 14.4183 23.1993C14.4183 23.1997 14.4183 23.2 14.4183 23.2004C14.4183 23.2007 14.4183 23.201 14.4183 23.2014C14.4183 23.2017 14.4183 23.202 14.4183 23.2023C14.4183 23.2026 14.4183 23.2029 14.4183 23.2032C14.4183 23.2035 14.4183 23.2037 14.4183 23.204C14.4183 23.2043 14.4183 23.2045 14.4183 23.2048C14.4183 23.205 14.4183 23.2053 14.4183 23.2055C14.4183 23.2058 14.4183 23.206 14.4183 23.2062C14.4183 23.2064 14.4183 23.2067 14.4183 23.2069C14.4183 23.2071 14.4183 23.2073 14.4183 23.2075C14.4183 23.2076 14.4183 23.2078 14.4183 23.208C14.4183 23.2082 14.4183 23.2083 14.4183 23.2085C14.4183 23.2087 14.4183 23.2088 14.4183 23.209C14.4183 23.2091 14.4183 23.2092 14.4183 23.2094C14.4183 23.2095 14.4183 23.2096 14.4183 23.2097C14.4183 23.2098 14.4183 23.2099 14.4183 23.21C14.4183 23.2101 14.4183 23.2102 14.4183 23.2103C14.4183 23.2104 14.4183 23.2105 14.4183 23.2105C14.4183 23.2106 14.4183 23.2107 14.4183 23.2107C14.4183 23.2108 14.4183 23.2108 14.4183 23.2109C14.4183 23.2109 14.4183 23.211 14.4183 23.211C14.4183 23.211 14.4183 23.211 14.4183 23.2111C14.4183 23.2111 14.4183 23.2111 14.4183 23.2111C14.8183 23.2111 15.2183 23.2111 15.2183 23.2111C15.2183 23.211 15.2183 23.211 15.2183 23.211C15.2183 23.211 15.2183 23.2109 15.2183 23.2109C15.2183 23.2109 15.2183 23.2108 15.2183 23.2108C15.2183 23.2107 15.2183 23.2106 15.2183 23.2106C15.2183 23.2105 15.2183 23.2104 15.2183 23.2104C15.2183 23.2103 15.2183 23.2102 15.2183 23.2101C15.2183 23.21 15.2183 23.2099 15.2183 23.2098C15.2183 23.2097 15.2183 23.2096 15.2183 23.2095C15.2183 23.2094 15.2183 23.2093 15.2183 23.2091C15.2183 23.209 15.2183 23.2089 15.2183 23.2087C15.2183 23.2086 15.2183 23.2085 15.2183 23.2083C15.2183 23.2082 15.2183 23.208 15.2183 23.2078C15.2183 23.2077 15.2183 23.2075 15.2183 23.2073C15.2183 23.2072 15.2183 23.207 15.2183 23.2068C15.2183 23.2066 15.2183 23.2064 15.2183 23.2062C15.2183 23.2061 15.2183 23.2059 15.2183 23.2056C15.2183 23.2054 15.2183 23.2052 15.2183 23.205C15.2183 23.2048 15.2183 23.2046 15.2183 23.2044C15.2183 23.2041 15.2183 23.2039 15.2183 23.2037C15.2183 23.2034 15.2183 23.2032 15.2183 23.2029C15.2183 23.2027 15.2183 23.2024 15.2183 23.2022C15.2183 23.2019 15.2183 23.2017 15.2183 23.2014C15.2183 23.2011 15.2183 23.2009 15.2183 23.2006C15.2183 23.2003 15.2183 23.2 15.2183 23.1997C15.2183 23.1994 15.2183 23.1992 15.2183 23.1989C15.2183 23.1986 15.2183 23.1983 15.2183 23.198C15.2183 23.1977 15.2183 23.1974 15.2183 23.197C15.2183 23.1967 15.2183 23.1964 15.2183 23.1961C15.2183 23.1958 15.2183 23.1954 15.2183 23.1951C15.2183 23.1948 15.2183 23.1944 15.2183 23.1941C15.2183 23.1938 15.2183 23.1934 15.2183 23.1931C15.2183 23.1927 15.2183 23.1924 15.2183 23.192C15.2183 23.1917 15.2183 23.1913 15.2183 23.1909C15.2183 23.1906 15.2183 23.1902 15.2183 23.1898C15.2183 23.1895 15.2183 23.1891 15.2183 23.1887C15.2183 23.1883 15.2183 23.188 15.2183 23.1876C15.2183 23.1872 15.2183 23.1868 15.2183 23.1864C15.2183 23.186 15.2183 23.1856 15.2183 23.1852C15.2183 23.1848 15.2183 23.1844 15.2183 23.184C15.2183 23.1836 15.2183 23.1832 15.2183 23.1828C15.2183 23.1823 15.2183 23.1819 15.2183 23.1815C15.2183 23.1811 15.2183 23.1807 15.2183 23.1802C15.2183 23.1798 15.2183 23.1794 15.2183 23.1789C15.2183 23.1785 15.2183 23.1781 15.2183 23.1776C15.2183 23.1772 15.2183 23.1767 15.2183 23.1763C15.2183 23.1758 15.2183 23.1754 15.2183 23.1749C15.2183 23.1745 15.2183 23.174 15.2183 23.1736C15.2183 23.1731 15.2183 23.1727 15.2183 23.1722C15.2183 23.1717 15.2183 23.1713 15.2183 23.1708C15.2183 23.1703 15.2183 23.1699 15.2183 23.1694C15.2183 23.1689 15.2183 23.1684 15.2183 23.1679C15.2183 23.1675 15.2183 23.167 15.2183 23.1665C15.2183 23.166 15.2183 23.1655 15.2183 23.165C15.2183 23.1646 15.2183 23.1641 15.2183 23.1636C15.2183 23.1631 15.2183 23.1626 15.2183 23.1621C15.2183 23.1616 15.2183 23.1611 15.2183 23.1606C15.2183 23.1601 15.2183 23.1596 15.2183 23.1591C15.2183 23.1586 15.2183 23.1581 15.2183 23.1576C15.2183 23.157 15.2183 23.1565 15.2183 23.156C15.2183 23.1555 15.2183 23.155 15.2183 23.1545C15.2183 23.154 15.2183 23.1534 15.2183 23.1529C15.2183 23.1524 15.2183 23.1519 15.2183 23.1513C15.2183 23.1508 15.2183 23.1503 15.2183 23.1498C15.2183 23.1492 15.2183 23.1487 15.2183 23.1482C15.2183 23.1477 15.2183 23.1471 15.2183 23.1466C15.2183 23.1461 15.2183 23.1455 15.2183 23.145C15.2183 23.1445 15.2183 23.1439 15.2183 23.1434C15.2183 23.1428 15.2183 23.1423 15.2183 23.1418C15.2183 23.1412 15.2183 23.1407 15.2183 23.1402C15.2183 23.1396 15.2183 23.1391 15.2183 23.1385C15.2183 23.138 15.2183 23.1374 15.2183 23.1369C15.2183 23.1363 15.2183 23.1358 15.2183 23.1353C15.2183 23.1347 15.2183 23.1342 15.2183 23.1336C15.2183 23.1331 15.2183 23.1325 15.2183 23.132C15.2183 23.1314 15.2183 23.1309 15.2183 23.1303C15.2183 23.1298 15.2183 23.1292 15.2183 23.1287C15.2183 23.1281 15.2183 23.1276 15.2183 23.127C15.2183 23.1264 15.2183 23.1259 15.2183 23.1253C15.2183 23.1248 15.2183 23.1242 15.2183 23.1237C15.2183 23.1231 15.2183 23.1226 15.2183 23.122C15.2183 23.1215 15.2183 23.1209 15.2183 23.1204C15.2183 23.1198 15.2183 23.1193 15.2183 23.1187C15.2183 23.1182 15.2183 23.1176 15.2183 23.117C15.2183 23.1165 15.2183 23.1159 15.2183 23.1154C15.2183 23.1148 15.2183 23.1143 15.2183 23.1137C15.2183 23.1132 15.2183 23.1126 15.2183 23.1121C15.2183 23.1115 15.2183 23.111 15.2183 23.1104C15.2183 23.1099 15.2183 23.1093 15.2183 23.1088C15.2183 23.1082 15.2183 23.1077 15.2183 23.1071C15.2183 23.1066 15.2183 23.106 15.2183 23.1055C15.2183 23.1049 15.2183 23.1044 15.2183 23.1038C15.2183 23.1033 15.2183 23.1027 15.2183 23.1022C15.2183 23.1017 15.2183 23.1011 15.2183 23.1006C15.2183 23.1 15.2183 23.0995 15.2183 23.099C15.2183 23.0984 15.2183 23.0979 15.2183 23.0973C15.2183 23.0968 15.2183 23.0963 15.2183 23.0957C15.2183 23.0952 15.2183 23.0947 15.2183 23.0941C15.2183 23.0936 15.2183 23.0931 15.2183 23.0925C15.2183 23.092 15.2183 23.0915 15.2183 23.0909C15.2183 23.0904 15.2183 23.0899 15.2183 23.0894C15.2183 23.0888 15.2183 23.0883 15.2183 23.0878C15.2183 23.0873 15.2183 23.0868 15.2183 23.0862C15.2183 23.0857 15.2183 23.0852 15.2183 23.0847C15.2183 23.0842 15.2183 23.0837 15.2183 23.0832C15.2183 23.0826 15.2183 23.0821 15.2183 23.0816C15.2183 23.0811 15.2183 23.0806 15.2183 23.0801C15.2183 23.0796 15.2183 23.0791 15.2183 23.0786C15.2183 23.0781 15.2183 23.0776 15.2183 23.0771C15.2183 23.0766 15.2183 23.0761 15.2183 23.0757C15.2183 23.0752 15.2183 23.0747 15.2183 23.0742C15.2183 23.0737 15.2183 23.0732 15.2183 23.0727C15.2183 23.0723 15.2183 23.0718 15.2183 23.0713C15.2183 23.0708 15.2183 23.0704 15.2183 23.0699C15.2183 23.0694 15.2183 23.069 15.2183 23.0685C15.2183 23.068 15.2183 23.0676 15.2183 23.0671C15.2183 23.0667 15.2183 23.0662 15.2183 23.0657C15.2183 23.0653 15.2183 23.0648 15.2183 23.0644C15.2183 23.0639 15.2183 23.0635 15.2183 23.0631C15.2183 23.0626 15.2183 23.0622 15.2183 23.0617C15.2183 23.0613 15.2183 23.0609 15.2183 23.0604C15.2183 23.06 15.2183 23.0596 15.2183 23.0592C15.2183 23.0587 15.2183 23.0583 15.2183 23.0579C15.2183 23.0575 15.2183 23.0571 15.2183 23.0567C15.2183 23.0563 15.2183 23.0559 15.2183 23.0555C15.2183 23.0551 15.2183 23.0547 15.2183 23.0543C15.2183 23.0539 15.2183 23.0535 15.2183 23.0531C15.2183 23.0527 15.2183 23.0523 15.2183 23.0519C15.2183 23.0516 15.2183 23.0512 15.2183 23.0508C15.2183 23.0504 15.2183 23.0501 15.2183 23.0497C15.2183 23.0493 15.2183 23.049 15.2183 23.0486C15.2183 23.0483 15.2183 23.0479 15.2183 23.0476C15.2183 23.0472 15.2183 23.0469 15.2183 23.0465C15.2183 23.0462 15.2183 23.0459 15.2183 23.0455C15.2183 23.0452 15.2183 23.0449 15.2183 23.0445C15.2183 23.0442 15.2183 23.0439 15.2183 23.0436C15.2183 23.0433 15.2183 23.043 15.2183 23.0427C15.2183 23.0423 15.2183 23.042 15.2183 23.0417C15.2183 23.0415 15.2183 23.0412 15.2183 23.0409C15.2183 23.0406 15.2183 23.0403 15.2183 23.04C15.2183 23.0397 15.2183 23.0395 15.2183 23.0392C15.2183 23.0389 15.2183 23.0387 15.2183 23.0384C15.2183 23.0382 15.2183 23.0379 15.2183 23.0377C15.2183 23.0374 15.2183 23.0372 15.2183 23.0369C15.2183 23.0367 15.2183 23.0365 15.2183 23.0362C15.2183 23.036 15.2183 23.0358 15.2183 23.0356C15.2183 23.0353 15.2183 23.0351 15.2183 23.0349C15.2183 23.0347 15.2183 23.0345 15.2183 23.0343C15.2183 23.0341 15.2183 23.0339 15.2183 23.0337C15.2183 23.0336 15.2183 23.0334 15.2183 23.0332C15.2183 23.033 15.2183 23.0329 15.2183 23.0327C15.2183 23.0325 15.2183 23.0324 15.2183 23.0322C15.2183 23.0321 15.2183 23.0319 15.2183 23.0318C15.2183 23.0317 15.2183 23.0315 15.2183 23.0314C15.2183 23.0313 15.2183 23.0311 15.2183 23.031C15.2183 23.0309 15.2183 23.0308 15.2183 23.0307C15.2183 23.0306 15.2183 23.0305 15.2183 23.0304C15.2183 23.0303 15.2183 23.0302 15.2183 23.0301C15.2183 23.0301 15.2183 23.03 15.2183 23.0299C15.2183 23.0299 15.2183 23.0298 15.2183 23.0297C15.2183 23.0297 15.2183 23.0296 15.2183 23.0296C15.2183 23.0296 15.2183 23.0295 15.2183 23.0295C15.2183 23.0295 15.2183 23.0294 15.2183 23.0294C15.2183 23.0294 15.2183 23.0294 15.2183 23.0294C14.8183 23.0294 14.4183 23.0294 14.4183 23.0294C14.4183 23.0294 14.4183 23.0294 14.4183 23.0295C14.4183 23.0295 14.4183 23.0295 14.4183 23.0296C14.4183 23.0296 14.4183 23.0297 14.4183 23.0297C14.4183 23.0298 14.4183 23.0298 14.4183 23.0299C14.4183 23.03 14.4183 23.03 14.4183 23.0301C14.4183 23.0302 14.4183 23.0303 14.4183 23.0304C14.4183 23.0305 14.4183 23.0306 14.4183 23.0307C14.4183 23.0308 14.4183 23.0309 14.4183 23.0311C14.4183 23.0312 14.4183 23.0313 14.4183 23.0315C14.4183 23.0316 14.4183 23.0317 14.4183 23.0319C14.4183 23.0321 14.4183 23.0322 14.4183 23.0324C14.4183 23.0326 14.4183 23.0327 14.4183 23.0329C14.4183 23.0331 14.4183 23.0333 14.4183 23.0335C14.4183 23.0337 14.4183 23.0339 14.4183 23.0342C14.4183 23.0344 14.4183 23.0346 14.4183 23.0348C14.4183 23.0351 14.4183 23.0353 14.4183 23.0356C14.4183 23.0358 14.4183 23.0361 14.4183 23.0363C14.4183 23.0366 14.4183 23.0369 14.4183 23.0372C14.4183 23.0375 14.4183 23.0377 14.4183 23.038C14.4183 23.0384 14.4183 23.0387 14.4183 23.039C14.4183 23.0393 14.4183 23.0396 14.4183 23.04C14.4183 23.0403 14.4183 23.0406 14.4183 23.041C14.4183 23.0413 14.4183 23.0417 14.4183 23.0421C14.4183 23.0424 14.4183 23.0428 14.4183 23.0432C14.4183 23.0436 14.4183 23.044 14.4183 23.0444C14.4183 23.0448 14.4183 23.0452 14.4183 23.0456C14.4183 23.046 14.4183 23.0465 14.4183 23.0469C14.4183 23.0474 14.4183 23.0478 14.4183 23.0483C14.4183 23.0487 14.4183 23.0492 14.4183 23.0497C14.4183 23.0501 14.4183 23.0506 14.4183 23.0511C14.4183 23.0516 14.4183 23.0521 14.4183 23.0526C14.4183 23.0532 14.4183 23.0537 14.4183 23.0542C14.4183 23.0547 14.4183 23.0553 14.4183 23.0558C14.4183 23.0564 14.4183 23.057 14.4183 23.0575C14.4183 23.0581 14.4183 23.0587 14.4183 23.0593C14.4183 23.0599 14.4183 23.0605 14.4183 23.0611C14.4183 23.0617 14.4183 23.0623 14.4183 23.0629C14.4183 23.0636 14.4183 23.0642 14.4183 23.0648C14.4183 23.0655 14.4183 23.0661 14.4183 23.0668C14.4183 23.0675 14.4183 23.0682 14.4183 23.0689C14.4183 23.0695 14.4183 23.0702 14.4183 23.071C14.4183 23.0717 14.4183 23.0724 14.4183 23.0731C14.4183 23.0738 14.4183 23.0746 14.4183 23.0753C14.4183 23.0761 14.4183 23.0768 14.4183 23.0776C14.4183 23.0784 14.4183 23.0792 14.4183 23.08C14.4183 23.0808 14.4183 23.0816 14.4183 23.0824C14.4183 23.0832 14.4183 23.084 14.4183 23.0848C14.4183 23.0857 14.4183 23.0865 14.4183 23.0874C14.4183 23.0882 14.4183 23.0891 14.4183 23.09C14.4183 23.0909 14.4183 23.0917 14.4183 23.0926C14.4183 23.0935 14.4183 23.0945 14.4183 23.0954C14.4183 23.0963 14.4183 23.0972 14.4183 23.0982C14.4183 23.0991 14.4183 23.1001 14.4183 23.101C14.4183 23.102 14.4183 23.103 14.4183 23.104C14.4183 23.105 14.4183 23.106 14.4183 23.107C14.4183 23.108 14.4183 23.109 14.4183 23.11C14.4183 23.1111 14.4183 23.1121 14.4183 23.1132C14.4183 23.1142 14.4183 23.1153 14.4183 23.1164C14.4183 23.1175 14.4183 23.1185 14.4183 23.1196C14.4183 23.1208 14.4183 23.1219 14.4183 23.123C14.4183 23.1241 14.4183 23.1253 14.4183 23.1264C14.4183 23.1276 14.4183 23.1287 14.4183 23.1299C14.4183 23.1311 14.4183 23.1323 14.4183 23.1334C14.4183 23.1346 14.4183 23.1359 14.4183 23.1371C14.4183 23.1383 14.4183 23.1395 14.4183 23.1408C14.4183 23.142 14.4183 23.1433 14.4183 23.1446C14.4183 23.1458 14.4183 23.1471 14.4183 23.1484C14.4183 23.1497 14.4183 23.151 14.4183 23.1523C14.4183 23.1536 14.4183 23.155 14.4183 23.1563C14.4183 23.1577 14.4183 23.159 14.4183 23.1604C14.4183 23.1618 14.4183 23.1631 14.4183 23.1645C14.4183 23.1659 14.4183 23.1673 14.4183 23.1688C14.4183 23.1702 14.4183 23.1716 14.4183 23.1731C14.4183 23.1745 14.4183 23.176 14.4183 23.1774C14.4183 23.1789 14.4183 23.1804 14.4183 23.1819C14.4183 23.1834 14.4183 23.1849 14.4183 23.1864C14.4183 23.1879 14.4183 23.1895 14.4183 23.191C14.4183 23.1926 14.4183 23.1941 14.4183 23.1957C14.4183 23.1973 14.4183 23.1989 14.4183 23.2005C14.4183 23.2021 14.4183 23.2037 14.4183 23.2053C14.4183 23.207 14.4183 23.2086 14.4183 23.2103C14.4183 23.2119 14.4183 23.2136 14.4183 23.2153C14.4183 23.217 14.4183 23.2187 14.4183 23.2204C14.4183 23.2221 14.4183 23.2238 14.4183 23.2255C14.4183 23.2273 14.4183 23.229 14.4183 23.2308C14.4183 23.2326 14.4183 23.2343 14.4183 23.2361C14.4183 23.2379 14.4183 23.2397 14.4183 23.2416C14.4183 23.2434 14.4183 23.2452 14.4183 23.2471C14.4183 23.2489 14.4183 23.2508 14.4183 23.2527C14.4183 23.2545 14.4183 23.2564 14.4183 23.2583C14.4183 23.2602 14.4183 23.2622 14.4183 23.2641C14.4183 23.266 14.4183 23.268 14.4183 23.2699C14.4183 23.2719 14.4183 23.2739 14.4183 23.2759C14.4183 23.2779 14.4183 23.2799 14.4183 23.2819C14.4183 23.2839 14.4183 23.2859 14.4183 23.288C14.4183 23.29 14.4183 23.2921 14.4183 23.2942C14.4183 23.2963 14.4183 23.2984 14.4183 23.3005C14.4183 23.3026 14.4183 23.3047 14.4183 23.3068C14.4183 23.309 14.4183 23.3111 14.4183 23.3133C14.4183 23.3155 14.4183 23.3177 14.4183 23.3199C14.4183 23.3221 14.4183 23.3243 14.4183 23.3265C14.4183 23.3287 14.4183 23.331 14.4183 23.3332C14.4183 23.3355 14.4183 23.3378 14.4183 23.34C14.4183 23.3423 14.4183 23.3446 14.4183 23.347C14.4183 23.3493 14.4183 23.3516 14.4183 23.354C14.4183 23.3563 14.4183 23.3587 14.4183 23.3611C14.4183 23.3634 14.4183 23.3658 14.4183 23.3683C14.4183 23.3707 14.4183 23.3731 14.4183 23.3755C14.4183 23.378 14.4183 23.3804 14.4183 23.3829C14.4183 23.3854 14.4183 23.3879 14.4183 23.3904C14.4183 23.3929 14.4183 23.3954 14.4183 23.398C14.4183 23.4005 14.4183 23.4031 14.4183 23.4056C14.4183 23.4082 14.4183 23.4108 14.4183 23.4134C14.4183 23.416 14.4183 23.4186 14.4183 23.4213C14.4183 23.4239 14.4183 23.4265 14.4183 23.4292C14.4183 23.4319 14.4183 23.4346 14.4183 23.4373C14.4183 23.44 14.4183 23.4427 14.4183 23.4454C14.4183 23.4482 14.4183 23.4509 14.4183 23.4537C14.4183 23.4564 14.4183 23.4592 14.4183 23.462C14.4183 23.4648 14.4183 23.4676 14.4183 23.4705C14.4183 23.4733 14.4183 23.4762 14.4183 23.479C14.4183 23.4819 14.4183 23.4848 14.4183 23.4877C14.4183 23.4906 14.4183 23.4935 14.4183 23.4964C14.4183 23.4994 14.4183 23.5023 14.4183 23.5053H15.2183ZM15.2183 21.2916C15.2183 19.8145 15.9324 18.3233 17.2796 17.102L16.7423 16.5093C15.2615 17.8516 14.4183 19.5469 14.4183 21.2916H15.2183ZM17.2796 17.102C19.2608 15.3059 20.4 12.7713 20.4 10.1446H19.6C19.6 12.5402 18.5602 14.8613 16.7423 16.5093L17.2796 17.102ZM20.4 10.1446C20.4002 7.25205 19.0611 4.54913 16.736 2.72874L16.2428 3.35865C18.3798 5.03175 19.6002 7.50497 19.6 10.1446L20.4 10.1446ZM12.2273 23.9366H8.7727V24.7366H12.2273V23.9366ZM8.7727 23.9366C8.50308 23.9366 8.30905 23.7285 8.30905 23.5051H7.50905C7.50905 24.1986 8.09006 24.7366 8.7727 24.7366V23.9366ZM8.30905 23.5051V22.618H7.50905V23.5051H8.30905ZM7.90905 23.018H13.091V22.218H7.90905V23.018ZM12.691 22.618V23.5051H13.491V22.618H12.691ZM12.691 23.5051C12.691 23.7285 12.497 23.9366 12.2273 23.9366V24.7366C12.91 24.7366 13.491 24.1986 13.491 23.5051H12.691ZM15.5584 15.2983C13.8234 16.8711 12.8054 18.8579 12.7 20.9346L13.499 20.9751C13.5921 19.1408 14.493 17.3439 16.0957 15.891L15.5584 15.2983ZM13.0995 20.5549H11.3637V21.3549H13.0995V20.5549ZM11.3637 20.5549H9.63613V21.3549H11.3637V20.5549ZM9.63613 20.5549H7.86586V21.3549H9.63613V20.5549ZM8.26375 20.9138C8.04343 18.7809 7.02416 16.7578 5.39647 15.2571L4.85419 15.8452C6.34196 17.2169 7.26816 19.0615 7.46798 20.996L8.26375 20.9138ZM5.39643 15.257C3.59539 13.5969 2.81194 11.2762 3.24052 8.87816L2.453 8.73741C1.9761 11.4059 2.85339 14.001 4.85423 15.8453L5.39643 15.257ZM3.24053 8.87815C3.74037 6.08094 6.00952 3.8011 8.89596 3.2217L8.73851 2.43734C5.54247 3.07889 3.01293 5.604 2.453 8.73742L3.24053 8.87815ZM8.89595 3.2217C11.1436 2.77054 13.4228 3.29481 15.1529 4.64913L15.646 4.01919C13.7244 2.51495 11.2055 1.94215 8.73851 2.43734L8.89595 3.2217ZM15.1529 4.64912C16.8849 6.00498 17.8727 8.00785 17.8727 10.1444H18.6727C18.6727 7.75486 17.5661 5.52231 15.646 4.01919L15.1529 4.64912ZM17.8727 10.1444C17.8729 12.1138 17.054 13.9426 15.5584 15.2983L16.0956 15.891C17.7546 14.3873 18.6729 12.3449 18.6727 10.1443L17.8727 10.1444Z" fill="#333333" mask="url(#path-1-outside-1)"/>
</svg>
