<?xml version="1.0" encoding="utf-8"?>
<!-- Generator: Adobe Illustrator 24.1.1, SVG Export Plug-In . SVG Version: 6.00 Build 0)  -->
<svg version="1.1" id="Layer_1" xmlns="http://www.w3.org/2000/svg" xmlns:xlink="http://www.w3.org/1999/xlink" x="0px" y="0px"
	 viewBox="0 0 27.7 22.1" style="enable-background:new 0 0 27.7 22.1;" xml:space="preserve">
<style type="text/css">
	.st0{fill:#FFFFFF;}
</style>
<g>
	<path class="st0" d="M13.3,0.9c-0.6-0.3-1.2-0.3-1.8,0c0,0-0.1,0.1-0.1,0.1L5.6,5.9H1.1c-0.5,0-0.9,0.4-0.9,0.8V15
		c0,0.2,0.1,0.4,0.3,0.6c0.2,0.2,0.4,0.2,0.6,0.2l4.5,0l5.8,5.3c0,0,0.1,0.1,0.1,0.1c0.3,0.2,0.6,0.3,0.9,0.3c0.3,0,0.6-0.1,0.9-0.2
		c0.6-0.3,0.9-0.9,0.9-1.6V2.5C14.2,1.8,13.9,1.3,13.3,0.9z M5.9,12c-0.5,0-0.9,0.4-0.9,0.8v1.3l-3.1,0V7.6h3.1V9
		c0,0.5,0.4,0.8,0.9,0.8c0.5,0,0.9-0.4,0.9-0.8V7.2l5.7-4.8c0,0,0,0,0,0c0,0,0,0,0,0.1v17.3c0,0,0,0.1-0.1,0.1l-5.7-5.2v-1.8
		C6.8,12.4,6.4,12,5.9,12z"/>
	<path class="st0" d="M23.8,10.9c0-3.8-2.4-7.2-6.1-8.4h0c-0.4-0.2-0.9,0.1-1.1,0.5c-0.1,0.2-0.1,0.4,0,0.6C16.8,3.9,17,4,17.2,4.1
		c2.9,1,4.9,3.7,4.9,6.8c0,3.1-2,5.8-4.9,6.8c-0.2,0.1-0.4,0.2-0.5,0.4c-0.1,0.2-0.1,0.4,0,0.6c0.1,0.3,0.4,0.6,0.8,0.6
		c0.1,0,0.2,0,0.3,0C21.4,18.1,23.8,14.7,23.8,10.9z"/>
	<path class="st0" d="M17,15.7c2-0.7,3.4-2.6,3.4-4.7c0-2.1-1.4-4-3.4-4.7l0,0c-0.4-0.1-0.8,0.1-1,0.5c-0.1,0.2-0.1,0.4,0,0.6
		c0.1,0.2,0.2,0.3,0.4,0.4c1.4,0.5,2.4,1.8,2.4,3.3c0,1.5-1,2.8-2.4,3.3c-0.2,0.1-0.3,0.2-0.4,0.4c-0.1,0.2-0.1,0.4,0,0.6
		c0.1,0.3,0.4,0.5,0.7,0.5C16.8,15.8,16.9,15.7,17,15.7z"/>
	<path class="st0" d="M20.3,0.3c-0.4-0.2-0.9,0-1.1,0.4c-0.1,0.2-0.1,0.4,0,0.6c0.1,0.2,0.2,0.4,0.5,0.5c3.7,1.5,6,5.1,6,9
		c0,4.1-2.5,7.7-6.3,9.1c-0.2,0.1-0.4,0.2-0.5,0.4c-0.1,0.2-0.1,0.4,0,0.6c0.1,0.3,0.4,0.5,0.8,0.5c0.1,0,0.2,0,0.3-0.1
		c4.5-1.7,7.4-5.9,7.4-10.7C27.3,6.3,24.6,2.1,20.3,0.3z"/>
</g>
</svg>
