<svg width="53" height="53" viewBox="0 0 53 53" fill="none" xmlns="http://www.w3.org/2000/svg">
<rect x="0.75" y="0.75" width="51.5" height="51.5" rx="25.75" stroke="#333333" stroke-width="1.5"/>
<path d="M32.0284 14H21.9716C18.1275 14 15 17.1275 15 20.9716V31.0284C15 34.8725 18.1275 38 21.9716 38H32.0284C35.8725 38 39 34.8725 39 31.0284V20.9716C39 17.1275 35.8725 14 32.0284 14ZM37.125 31.0284C37.125 33.8387 34.8387 36.125 32.0284 36.125H21.9716C19.1613 36.125 16.875 33.8387 16.875 31.0284V20.9716C16.875 18.1613 19.1613 15.875 21.9716 15.875H32.0284C34.8387 15.875 37.125 18.1613 37.125 20.9716V31.0284Z" fill="#333333"/>
<path d="M27 19.5312C23.4331 19.5312 20.5312 22.4331 20.5312 26C20.5312 29.5669 23.4331 32.4688 27 32.4688C30.5669 32.4688 33.4688 29.5669 33.4688 26C33.4688 22.4331 30.5669 19.5312 27 19.5312ZM27 30.5938C24.467 30.5938 22.4062 28.533 22.4062 26C22.4062 23.467 24.467 21.4062 27 21.4062C29.533 21.4062 31.5938 23.467 31.5938 26C31.5938 28.533 29.533 30.5938 27 30.5938Z" fill="#333333"/>
<path d="M33.5625 20.375C34.0803 20.375 34.5 19.9553 34.5 19.4375C34.5 18.9197 34.0803 18.5 33.5625 18.5C33.0447 18.5 32.625 18.9197 32.625 19.4375C32.625 19.9553 33.0447 20.375 33.5625 20.375Z" fill="#333333"/>
</svg>
