<svg width="27" height="27" viewBox="0 0 27 27" fill="none" xmlns="http://www.w3.org/2000/svg">
<path d="M13.5 21.5414C14.2294 21.5414 14.8207 20.9501 14.8207 20.2207C14.8207 19.4913 14.2294 18.9 13.5 18.9C12.7706 18.9 12.1793 19.4913 12.1793 20.2207C12.1793 20.9501 12.7706 21.5414 13.5 21.5414Z" fill="#333333" stroke="#333333" stroke-width="0.2"/>
<path d="M13.5 0.9C6.53638 0.9 0.9 6.53544 0.9 13.5C0.9 20.4636 6.53544 26.1 13.5 26.1C20.4636 26.1 26.1 20.4646 26.1 13.5C26.1 6.53638 20.4646 0.9 13.5 0.9ZM13.5 23.9469C7.72627 23.9469 3.05312 19.2745 3.05312 13.5C3.05312 7.72627 7.7255 3.05312 13.5 3.05312C19.2737 3.05312 23.9469 7.7255 23.9469 13.5C23.9469 19.2737 19.2745 23.9469 13.5 23.9469Z" fill="#333333" stroke="#333333" stroke-width="0.2"/>
<path d="M13.5 7.17441C11.2909 7.17441 9.49375 8.97153 9.49375 11.1807C9.49375 11.7752 9.97573 12.2572 10.5703 12.2572C11.1649 12.2572 11.6469 11.7752 11.6469 11.1807C11.6469 10.1589 12.4783 9.32754 13.5 9.32754C14.5217 9.32754 15.3531 10.1589 15.3531 11.1807C15.3531 12.2024 14.5217 13.0338 13.5 13.0338C12.9054 13.0338 12.4234 13.5158 12.4234 14.1104V16.5518C12.4234 17.1463 12.9054 17.6283 13.5 17.6283C14.0946 17.6283 14.5766 17.1463 14.5766 16.5518V15.04C16.2644 14.5686 17.5062 13.0172 17.5062 11.1807C17.5062 8.97153 15.7091 7.17441 13.5 7.17441Z" fill="#333333" stroke="#333333" stroke-width="0.2"/>
</svg>
