<svg width="60" height="87" viewBox="0 0 60 87" fill="none" xmlns="http://www.w3.org/2000/svg">
<path d="M29.9985 84.6696C29.8503 84.4889 29.6826 84.2834 29.4966 84.0542C28.6806 83.0489 27.5137 81.5879 26.1128 79.7694C23.3101 76.1313 19.5749 71.067 15.8417 65.3593C12.1064 59.6484 8.38513 53.3119 5.60085 47.1273C2.808 40.9237 1 34.9636 1 29.9801C1 14.0015 14.0015 1 29.9801 1C45.9592 1 58.9602 14.0015 58.9602 29.9801C58.9602 34.7028 57.1597 40.5318 54.3694 46.6943C51.5895 52.8339 47.8741 59.2046 44.1447 64.9811C40.4175 70.7544 36.6884 75.9158 33.8903 79.6348C32.4916 81.4937 31.3265 82.991 30.5117 84.0227C30.3209 84.2643 30.1493 84.4804 29.9985 84.6696Z" fill="#98003F" stroke="white" stroke-width="2"/>
<circle cx="30" cy="30" r="16" fill="white"/>
</svg>
