<svg width="60" height="87" viewBox="0 0 60 87" fill="none" xmlns="http://www.w3.org/2000/svg">
<path d="M29.9985 84.6696C29.8503 84.4889 29.6826 84.2834 29.4966 84.0542C28.6806 83.0489 27.5137 81.5879 26.1128 79.7694C23.3101 76.1313 19.5749 71.067 15.8417 65.3593C12.1064 59.6484 8.38513 53.3119 5.60085 47.1273C2.808 40.9237 1 34.9636 1 29.9801C1 14.0015 14.0015 1 29.9801 1C45.9592 1 58.9602 14.0015 58.9602 29.9801C58.9602 34.7028 57.1597 40.5318 54.3694 46.6943C51.5895 52.8339 47.8741 59.2046 44.1447 64.9811C40.4175 70.7544 36.6884 75.9158 33.8903 79.6348C32.4916 81.4937 31.3265 82.991 30.5117 84.0227C30.3209 84.2643 30.1493 84.4804 29.9985 84.6696Z" fill="#43D4C2" stroke="white" stroke-width="2"/>
<circle cx="30" cy="30" r="16" fill="white"/>
<path d="M28.8846 34.2502C28.2952 34.8396 27.3388 34.8396 26.7497 34.2502L23.442 30.9425C22.8527 30.3533 22.8527 29.397 23.442 28.8078C24.0312 28.2184 24.9875 28.2184 25.5769 28.8078L27.5476 30.7783C27.6964 30.9268 27.9379 30.9268 28.087 30.7783L33.4231 25.4421C34.0122 24.8526 34.9686 24.8526 35.558 25.4421C35.841 25.7251 36 26.1091 36 26.5094C36 26.9096 35.841 27.2936 35.558 27.5767L28.8846 34.2502Z" fill="#17CAB4"/>
</svg>
