<svg width="60" height="87" viewBox="0 0 60 87" fill="none" xmlns="http://www.w3.org/2000/svg">
<path d="M29.9985 84.6696C29.8503 84.4889 29.6826 84.2834 29.4966 84.0542C28.6806 83.0489 27.5137 81.5879 26.1128 79.7694C23.3101 76.1313 19.5749 71.067 15.8417 65.3593C12.1064 59.6484 8.38513 53.3119 5.60085 47.1273C2.808 40.9237 1 34.9636 1 29.9801C1 14.0015 14.0015 1 29.9801 1C45.9592 1 58.9602 14.0015 58.9602 29.9801C58.9602 34.7028 57.1597 40.5318 54.3694 46.6943C51.5895 52.8339 47.8741 59.2046 44.1447 64.9811C40.4175 70.7544 36.6884 75.9158 33.8903 79.6348C32.4916 81.4937 31.3265 82.991 30.5117 84.0227C30.3209 84.2643 30.1493 84.4804 29.9985 84.6696Z" fill="#EB5757" stroke="white" stroke-width="2"/>
<circle cx="30" cy="30" r="16" fill="white"/>
<path d="M32.9596 25.267L30 28.2266L27.0402 25.267L27.0401 25.267C26.5503 24.7777 25.757 24.7777 25.2673 25.267L25.2673 25.267C24.7776 25.7568 24.7776 26.5506 25.2673 27.0403C25.2673 27.0403 25.2673 27.0403 25.2673 27.0404L28.2266 29.9999L25.2675 32.9593L25.2675 32.9593C24.7778 33.4494 24.7777 34.243 25.2675 34.7327C25.5123 34.9776 25.8332 35.0999 26.1539 35.0999C26.4747 35.0999 26.7957 34.9774 27.0404 34.7327L30 31.773L32.9599 34.7327C33.2044 34.9777 33.5255 35.0999 33.8465 35.0999C34.167 35.0999 34.488 34.9775 34.7327 34.7328L34.7327 34.7328C35.2224 34.2428 35.2224 33.4492 34.7327 32.9593L34.7327 32.9593L31.7735 29.9999L34.7327 27.0403C35.2225 26.5506 35.2225 25.7568 34.7325 25.267C34.2429 24.7776 33.4495 24.7777 32.9596 25.267L32.9596 25.267Z" fill="#EB5757" stroke="#EB5757" stroke-width="0.2"/>
</svg>
