<svg width="36" height="76" viewBox="0 0 36 76" fill="none" xmlns="http://www.w3.org/2000/svg">
<g filter="url(#filter0_d)">
<path d="M14.2413 24.5862H19.7586V68.7241C19.7586 70.2476 18.5234 71.4827 17 71.4827C15.4765 71.4827 14.2413 70.2476 14.2413 68.7241V24.5862Z" fill="#17CAB4"/>
</g>
<g filter="url(#filter1_d)">
<circle cx="17" cy="16" r="16" fill="#17CAB4"/>
</g>
<g filter="url(#filter2_d)">
<circle cx="17" cy="16" r="11" fill="white"/>
</g>
<path d="M16.9793 19.5727C16.4805 20.0714 15.6713 20.0714 15.1728 19.5727L12.374 16.7738C11.8753 16.2753 11.8753 15.4661 12.374 14.9676C12.8725 14.4689 13.6817 14.4689 14.1805 14.9676L15.848 16.6349C15.9739 16.7606 16.1782 16.7606 16.3043 16.6349L20.8195 12.1197C21.318 11.6209 22.1272 11.6209 22.626 12.1197C22.8655 12.3592 23 12.6841 23 13.0228C23 13.3614 22.8655 13.6864 22.626 13.9259L16.9793 19.5727Z" fill="#17CAB4"/>
<defs>
<filter id="filter0_d" x="13.2413" y="24.5862" width="9.51724" height="50.8966" filterUnits="userSpaceOnUse" color-interpolation-filters="sRGB">
<feFlood flood-opacity="0" result="BackgroundImageFix"/>
<feColorMatrix in="SourceAlpha" type="matrix" values="0 0 0 0 0 0 0 0 0 0 0 0 0 0 0 0 0 0 127 0"/>
<feOffset dx="1" dy="2"/>
<feGaussianBlur stdDeviation="1"/>
<feColorMatrix type="matrix" values="0 0 0 0 0 0 0 0 0 0 0 0 0 0 0 0 0 0 0.5 0"/>
<feBlend mode="normal" in2="BackgroundImageFix" result="effect1_dropShadow"/>
<feBlend mode="normal" in="SourceGraphic" in2="effect1_dropShadow" result="shape"/>
</filter>
<filter id="filter1_d" x="0" y="0" width="36" height="36" filterUnits="userSpaceOnUse" color-interpolation-filters="sRGB">
<feFlood flood-opacity="0" result="BackgroundImageFix"/>
<feColorMatrix in="SourceAlpha" type="matrix" values="0 0 0 0 0 0 0 0 0 0 0 0 0 0 0 0 0 0 127 0"/>
<feOffset dx="1" dy="2"/>
<feGaussianBlur stdDeviation="1"/>
<feColorMatrix type="matrix" values="0 0 0 0 0 0 0 0 0 0 0 0 0 0 0 0 0 0 0.3 0"/>
<feBlend mode="normal" in2="BackgroundImageFix" result="effect1_dropShadow"/>
<feBlend mode="normal" in="SourceGraphic" in2="effect1_dropShadow" result="shape"/>
</filter>
<filter id="filter2_d" x="5" y="4" width="26" height="26" filterUnits="userSpaceOnUse" color-interpolation-filters="sRGB">
<feFlood flood-opacity="0" result="BackgroundImageFix"/>
<feColorMatrix in="SourceAlpha" type="matrix" values="0 0 0 0 0 0 0 0 0 0 0 0 0 0 0 0 0 0 127 0"/>
<feOffset dx="1" dy="1"/>
<feGaussianBlur stdDeviation="1"/>
<feColorMatrix type="matrix" values="0 0 0 0 0 0 0 0 0 0 0 0 0 0 0 0 0 0 0.2 0"/>
<feBlend mode="normal" in2="BackgroundImageFix" result="effect1_dropShadow"/>
<feBlend mode="normal" in="SourceGraphic" in2="effect1_dropShadow" result="shape"/>
</filter>
</defs>
</svg>
