<svg width="86" height="86" viewBox="0 0 86 86" fill="none" xmlns="http://www.w3.org/2000/svg">
<g filter="url(#filter0_d)">
<rect x="20.8474" y="20.8475" width="40.3051" height="40.3051" rx="20.1525" fill="#98003F"/>
<path d="M29.4781 39.0776H1.92177C0.861031 39.0776 0.000366211 39.9403 0.000366211 40.9997C0.000366211 42.0598 0.861031 42.9218 1.92177 42.9218H29.4781C30.5369 42.9218 31.3996 42.0604 31.3996 40.9997C31.3989 39.9403 30.5369 39.0776 29.4781 39.0776Z" fill="white"/>
<path d="M80.0776 39.0776H52.5219C51.4618 39.0776 50.6005 39.9396 50.6005 40.9997C50.6005 42.0598 51.4611 42.9218 52.5219 42.9218H80.0776C81.1377 42.9218 81.9996 42.0604 81.9996 40.9997C81.9996 39.9403 81.1383 39.0776 80.0776 39.0776Z" fill="white"/>
<path d="M40.9999 50.6002C39.9405 50.6002 39.0779 51.4615 39.0779 52.5222V80.0786C39.0779 81.138 39.9399 82 40.9999 82C42.06 82 42.922 81.1387 42.922 80.0786V52.5216C42.922 51.4615 42.06 50.6002 40.9999 50.6002Z" fill="white"/>
<path d="M40.9999 0C39.9405 0 39.0779 0.861321 39.0779 1.92206V29.4778C39.0779 30.5372 39.9399 31.3985 40.9999 31.3985C42.06 31.3985 42.922 30.5379 42.922 29.4778V1.92206C42.922 0.861321 42.06 0 40.9999 0Z" fill="white"/>
<path d="M40.9869 42.9342C42.0553 42.9342 42.9214 42.0681 42.9214 40.9997C42.9214 39.9313 42.0553 39.0652 40.9869 39.0652C39.9185 39.0652 39.0524 39.9313 39.0524 40.9997C39.0524 42.0681 39.9185 42.9342 40.9869 42.9342Z" fill="white"/>
</g>
<defs>
<filter id="filter0_d" x="0" y="0" width="86" height="86" filterUnits="userSpaceOnUse" color-interpolation-filters="sRGB">
<feFlood flood-opacity="0" result="BackgroundImageFix"/>
<feColorMatrix in="SourceAlpha" type="matrix" values="0 0 0 0 0 0 0 0 0 0 0 0 0 0 0 0 0 0 127 0"/>
<feOffset dx="2" dy="2"/>
<feGaussianBlur stdDeviation="1"/>
<feColorMatrix type="matrix" values="0 0 0 0 0 0 0 0 0 0 0 0 0 0 0 0 0 0 0.4 0"/>
<feBlend mode="normal" in2="BackgroundImageFix" result="effect1_dropShadow"/>
<feBlend mode="normal" in="SourceGraphic" in2="effect1_dropShadow" result="shape"/>
</filter>
</defs>
</svg>
