<svg width="30" height="34" viewBox="0 0 30 34" fill="none" xmlns="http://www.w3.org/2000/svg">
<path d="M9.23461 14.8778C9.07384 14.8024 8.88889 14.7924 8.72003 14.8519C8.53243 14.9177 8.38325 15.0623 8.31113 15.2473C7.63639 16.9804 7.85563 18.5574 8.87735 19.6445C8.72027 19.8512 8.56513 20.0592 8.41236 20.2696L6.36952 23.0828C6.14866 23.3871 6.21605 23.813 6.52038 24.0339C6.54002 24.0483 6.56022 24.0612 6.58072 24.073C6.87881 24.2451 7.26468 24.1678 7.4715 23.883L9.51434 21.0698C9.66283 20.8653 9.81355 20.6633 9.96562 20.4627C12.7283 22.0126 15.4129 21.2303 18.3865 18.0159C18.7173 17.6583 19.1071 17.2445 19.5454 16.7858C19.6843 16.6406 19.7519 16.4416 19.73 16.2416C19.7218 16.1674 19.7017 16.0959 19.6711 16.0297L19.9797 16.031C20.165 16.032 20.3427 15.9571 20.4716 15.8238C23.8694 12.3183 28.5249 7.73812 28.5717 7.6923C28.7284 7.53832 28.8011 7.31828 28.7669 7.10137C28.7331 6.88435 28.5961 6.69617 28.4003 6.5985C28.194 6.49447 23.2588 4.10152 15.7066 8.18881C15.6129 8.23944 15.521 8.29017 15.4293 8.34139C15.2888 8.41936 15.1805 8.54478 15.1233 8.69484L14.3689 10.6836L13.3675 10.1054C13.1311 9.96899 12.8364 9.98681 12.6182 10.1504C11.1325 11.2655 9.96781 12.4449 9.15599 13.6563C9.04801 13.8172 9.01386 14.0168 9.06205 14.2047L9.23461 14.8778ZM19.6957 14.6679L17.601 14.6586C17.3008 14.6572 17.035 14.8527 16.947 15.1398C16.859 15.4268 16.9694 15.7378 17.2186 15.9051L18.0036 16.4314C17.7807 16.6675 17.5745 16.8879 17.3866 17.0909C14.367 20.3553 12.3669 20.1892 10.8209 19.3802C14.6985 14.6623 19.6855 11.0812 25.4061 8.90972C23.7955 10.5108 21.5767 12.7319 19.6957 14.6679ZM13.0805 11.5127L14.3809 12.2635C14.5537 12.3632 14.7618 12.382 14.9501 12.315C15.1381 12.2479 15.2873 12.1018 15.3582 11.9152L16.308 9.41198C16.3234 9.40337 16.3389 9.39513 16.3545 9.38665C19.9602 7.43521 22.8791 7.11322 24.6928 7.18669C25.1223 7.20401 25.5114 7.24405 25.858 7.29548C22.4684 8.48003 19.2828 10.1524 16.3814 12.274C13.905 14.0847 11.6773 16.1919 9.73689 18.5553C9.24653 17.9214 9.22719 17.1596 9.35273 16.5155L9.95582 16.8637C10.1933 17.0008 10.4897 16.9821 10.708 16.8163C10.9261 16.6508 11.0239 16.3703 10.9558 16.1046L10.4586 14.1675C11.1072 13.2643 11.9871 12.3735 13.0805 11.5127Z" fill="#333333"/>
<path d="M21.5658 30.7635C21.5658 30.7635 20.392 31.4067 12.1178 28.0801C3.84364 24.7536 1.00018 29.2526 1.00018 29.2526" stroke="#333333" stroke-width="1.5" stroke-linecap="round"/>
</svg>
