<svg width="17" height="36" viewBox="0 0 17 36" fill="none" xmlns="http://www.w3.org/2000/svg">
<path d="M4.88086 25.3613C4.7373 24.9466 4.6097 24.4123 4.49805 23.7583C4.38639 23.0884 4.33057 22.4264 4.33057 21.7725C4.33057 20.7516 4.52995 19.8345 4.92871 19.021C5.34342 18.1916 5.85384 17.418 6.45996 16.7002C7.06608 15.9824 7.72803 15.2965 8.4458 14.6426C9.16357 13.9727 9.82552 13.3027 10.4316 12.6328C11.0378 11.9469 11.5402 11.2371 11.939 10.5034C12.3537 9.75374 12.561 8.93229 12.561 8.03906C12.561 7.27344 12.4095 6.59554 12.1064 6.00537C11.8193 5.4152 11.4206 4.92074 10.9102 4.52197C10.3997 4.12321 9.80957 3.82812 9.13965 3.63672C8.46973 3.42936 7.75993 3.32568 7.01025 3.32568C4.31462 3.32568 1.97786 4.38639 0 6.50781V2.29688C2.44043 0.765625 4.96859 0 7.58447 0C8.79671 0 9.93717 0.159505 11.0059 0.478516C12.0745 0.797526 13.0076 1.27604 13.8052 1.91406C14.6187 2.53613 15.2567 3.31771 15.7192 4.25879C16.1818 5.19987 16.4131 6.29248 16.4131 7.53662C16.4131 8.71696 16.2057 9.76969 15.791 10.6948C15.3763 11.62 14.8499 12.4733 14.2119 13.2549C13.5898 14.0205 12.9119 14.7383 12.1782 15.4082C11.4445 16.0781 10.7586 16.748 10.1206 17.418C9.49854 18.0719 8.98014 18.7578 8.56543 19.4756C8.15072 20.1934 7.94336 20.9829 7.94336 21.8442C7.94336 22.578 8.03109 23.2479 8.20654 23.854C8.382 24.4442 8.55745 24.9466 8.73291 25.3613H4.88086ZM7.03418 35.3145C6.33236 35.3145 5.71029 35.0592 5.16797 34.5488C4.6416 34.0384 4.37842 33.4163 4.37842 32.6826C4.37842 31.9329 4.6416 31.3109 5.16797 30.8164C5.69434 30.29 6.31641 30.0269 7.03418 30.0269C7.75195 30.0269 8.37402 30.29 8.90039 30.8164C9.42676 31.3109 9.68994 31.9329 9.68994 32.6826C9.68994 33.4163 9.42676 34.0384 8.90039 34.5488C8.35807 35.0592 7.736 35.3145 7.03418 35.3145Z" fill="#333"/>
</svg>
