<svg class="pokazi-rjesenje" version="1.1" xmlns="http://www.w3.org/2000/svg" xmlns:xlink="http://www.w3.org/1999/xlink" x="0px" y="0px"
	 viewBox="0 0 27.3 27.3" style="enable-background:new 0 0 27.3 27.3;" xml:space="preserve">
<g>
	<path fill="#FFFFFF" class="st0" d="M13.7,19c-0.8,0-1.4,0.6-1.4,1.4c0,0.8,0.6,1.4,1.4,1.4s1.4-0.6,1.4-1.4C15.1,19.6,14.4,19,13.7,19z"/>
	<path fill="#FFFFFF" class="st0" d="M13.7,1C6.7,1,1,6.7,1,13.7s5.7,12.7,12.7,12.7s12.7-5.7,12.7-12.7S20.7,1,13.7,1z M13.7,24
		C8,24,3.3,19.4,3.3,13.7S8,3.3,13.7,3.3S24,8,24,13.7S19.4,24,13.7,24z"/>
	<path fill="#FFFFFF" class="st0" d="M13.7,7.2c-2.3,0-4.1,1.8-4.1,4.1c0,0.6,0.5,1.2,1.2,1.2s1.2-0.5,1.2-1.2c0-1,0.8-1.8,1.8-1.8s1.8,0.8,1.8,1.8
		s-0.8,1.8-1.8,1.8c-0.6,0-1.2,0.5-1.2,1.2v2.4c0,0.6,0.5,1.2,1.2,1.2s1.2-0.5,1.2-1.2v-1.4c1.7-0.5,2.9-2.1,2.9-3.9
		C17.8,9.1,15.9,7.2,13.7,7.2z"/>
</g>
</svg>
