<svg width="22" height="24" viewBox="0 0 22 24" fill="none" xmlns="http://www.w3.org/2000/svg">
<path d="M16.8918 12.7076C16.48 12.3939 15.8917 12.4734 15.578 12.8854C15.0591 13.5667 14.4462 14.1418 13.8535 14.6979C12.9402 15.5551 12.0666 16.3754 11.7214 17.4376H7.42285C7.0777 16.3754 6.2041 15.5551 5.29096 14.6979C3.81128 13.3094 2.28143 11.8735 2.28143 9.05939C2.28143 7.15289 3.03564 5.35407 4.40509 3.99469C5.78333 2.62653 7.60339 1.87506 9.53534 1.87506C9.55365 1.87506 9.57214 1.87506 9.59046 1.87525H9.5976C10.1121 1.87525 10.5311 1.46015 10.5349 0.944704C10.5388 0.426881 10.122 0.00409091 9.60437 0.000245695C7.15094 -0.0175155 4.83283 0.928224 3.08398 2.66406C1.3573 4.37811 0.40625 6.64935 0.40625 9.05957C0.40625 12.6854 2.48779 14.6388 4.00775 16.0652C5.05896 17.0518 5.70313 17.6934 5.70313 18.4219V21.1876C5.70313 22.7385 6.96491 24.0001 8.51563 24.0001H10.625C12.1759 24.0001 13.4375 22.7385 13.4375 21.1876V18.4935C13.4393 18.4699 13.4412 18.4461 13.4412 18.4219C13.4412 17.6934 14.0853 17.0518 15.1365 16.0652C15.7549 15.4849 16.456 14.827 17.0694 14.0215C17.3832 13.6096 17.3036 13.0214 16.8918 12.7076ZM10.625 22.1251H8.51563C7.99872 22.1251 7.57813 21.7045 7.57813 21.1876V19.3126H11.5625V21.1876C11.5625 21.7045 11.1421 22.1251 10.625 22.1251ZM8.46619 5.68036C6.98193 6.14252 5.98456 7.49548 5.98456 9.04694C5.98456 9.56476 5.56488 9.98444 5.04706 9.98444C4.52924 9.98444 4.10956 9.56476 4.10956 9.04694C4.10956 6.67004 5.63647 4.59766 7.909 3.89014C8.40338 3.73633 8.92889 4.01227 9.0827 4.50665C9.23651 5.00104 8.96057 5.52655 8.46619 5.68036ZM21.2045 6.08795L20.3023 5.43775C20.3041 5.39087 20.3051 5.34381 20.3051 5.29694C20.3051 5.24017 20.3032 5.18323 20.3007 5.12647C20.2997 5.10779 20.2986 5.0893 20.2975 5.07062C20.2964 5.05286 20.2959 5.0351 20.2946 5.01752L21.2253 4.30652C21.5921 4.02655 21.7005 3.52136 21.481 3.11542L21.0591 2.33557C20.8384 1.92743 20.3525 1.74231 19.9163 1.89978L18.808 2.29968C18.6686 2.19476 18.5218 2.10101 18.3696 2.0166C18.3557 2.0091 18.3422 2.00122 18.3282 1.99371C18.2903 1.97339 18.2521 1.95398 18.2136 1.93494C18.1929 1.92468 18.1724 1.91461 18.1516 1.90473C18.134 1.89649 18.1166 1.88715 18.0988 1.87909L17.8994 0.771486C17.819 0.324892 17.4305 6.25891e-05 16.9767 6.25891e-05H16.0861C15.6187 6.25891e-05 15.2226 0.344484 15.1578 0.807558L15.0076 1.88001C14.7315 2.00507 14.472 2.16309 14.2336 2.35114L13.1458 2.01148C12.7076 1.8747 12.2349 2.0752 12.0287 2.48535L11.6156 3.30731C11.4048 3.72644 11.5365 4.23694 11.9236 4.50189L12.8096 5.10852C12.8067 5.17096 12.8049 5.23377 12.8049 5.29694C12.8049 5.35425 12.8067 5.41156 12.8093 5.46887C12.8102 5.48792 12.8115 5.50696 12.8126 5.526C12.8138 5.54596 12.8146 5.56592 12.816 5.58588L11.9179 6.29743C11.5499 6.58911 11.4543 7.10803 11.6943 7.5116L12.1338 8.25043C12.3634 8.63623 12.8344 8.80524 13.2568 8.65326L14.2867 8.28302C14.5114 8.45386 14.7542 8.59869 15.0109 8.71478L15.2103 9.82239C15.2907 10.2688 15.6793 10.5938 16.133 10.5938H16.9767C17.4374 10.5938 17.8297 10.2591 17.9025 9.80444L18.0752 8.72577C18.3887 8.58698 18.6811 8.4057 18.9457 8.18598L20.0114 8.50128C20.4464 8.63001 20.9111 8.42859 21.1149 8.02338L21.494 7.26953C21.7007 6.85791 21.578 6.35712 21.2045 6.08795ZM14.683 5.19312C14.6832 5.18872 14.6837 5.18451 14.6839 5.18012C14.6859 5.14899 14.6885 5.11786 14.6921 5.08673C14.6923 5.08399 14.6927 5.08124 14.6931 5.07849C14.6969 5.04572 14.7017 5.01294 14.7073 4.98016C14.7075 4.97833 14.7079 4.97632 14.7083 4.97449C14.7139 4.94208 14.7205 4.90967 14.7278 4.87744C14.8062 4.53577 14.9782 4.22943 15.2153 3.987C15.2217 3.98041 15.2281 3.97363 15.2347 3.96723C15.2534 3.94855 15.2724 3.93042 15.2918 3.91266C15.2962 3.90863 15.3008 3.9046 15.3054 3.90076C15.3444 3.86578 15.3846 3.83228 15.4266 3.80078C15.4301 3.79804 15.4334 3.79547 15.4368 3.79291C15.4599 3.7757 15.4833 3.75885 15.5073 3.74274V3.74255C15.5537 3.71143 15.6014 3.68231 15.6505 3.65521C15.6562 3.6521 15.6619 3.6488 15.6675 3.64569C15.691 3.63306 15.7148 3.62079 15.7388 3.60925C15.7466 3.60541 15.7547 3.60193 15.7626 3.59808C15.8007 3.58032 15.8393 3.56403 15.8785 3.54883C15.8946 3.54242 15.9107 3.5362 15.927 3.53052C15.9457 3.52393 15.9644 3.51752 15.9834 3.51148C16.0094 3.50305 16.0358 3.49536 16.0621 3.48822C16.2192 3.44537 16.3844 3.42212 16.5549 3.42212C16.7288 3.42212 16.8969 3.44629 17.0568 3.49078C17.0833 3.49811 17.1095 3.50598 17.1357 3.51459C17.1505 3.51935 17.1653 3.52429 17.1802 3.5296C17.2034 3.53784 17.2263 3.54663 17.2492 3.55579C17.2692 3.56384 17.2889 3.57208 17.3084 3.58069C17.332 3.59094 17.3552 3.60175 17.3783 3.61292C17.3944 3.62079 17.4102 3.62903 17.4259 3.63727C17.4444 3.64697 17.4625 3.65723 17.4808 3.66766C17.4953 3.6759 17.51 3.68396 17.5242 3.69257C17.5528 3.70996 17.581 3.72809 17.6086 3.74695C17.6216 3.75592 17.6343 3.76508 17.6469 3.77423C17.6663 3.78815 17.6854 3.80243 17.7042 3.81708C17.7156 3.82605 17.7271 3.83466 17.7383 3.84381C17.7659 3.86652 17.793 3.88977 17.8196 3.91412C17.8275 3.92108 17.8348 3.92859 17.8425 3.93591C17.8639 3.95606 17.8848 3.97675 17.9051 3.99817C18.1325 4.23438 18.2986 4.52973 18.3777 4.85858C18.3841 4.8855 18.3901 4.9126 18.3953 4.9397C18.3975 4.95014 18.3991 4.96076 18.4011 4.97138C18.4055 4.99683 18.4094 5.0221 18.4128 5.04755C18.4143 5.05853 18.4158 5.06952 18.4171 5.08069C18.4202 5.10687 18.4224 5.13306 18.4244 5.15942C18.4251 5.16931 18.426 5.1792 18.4266 5.18927C18.4286 5.22516 18.4299 5.26105 18.4299 5.29712C18.4299 5.36176 18.4266 5.42676 18.42 5.49121C18.4196 5.49396 18.4191 5.49671 18.4189 5.49945C18.4158 5.52838 18.4121 5.55731 18.4075 5.58606C18.4059 5.59686 18.4037 5.60767 18.4019 5.61847C18.3984 5.63861 18.3949 5.65857 18.3909 5.67853C18.3239 6.00116 18.1735 6.2934 17.9637 6.53235C17.9366 6.56329 17.9088 6.59351 17.88 6.62225C17.8738 6.62866 17.867 6.63471 17.8606 6.64093C17.8381 6.6629 17.8148 6.68414 17.7914 6.70484C17.7787 6.71582 17.7665 6.72681 17.7537 6.73743C17.7277 6.75922 17.7009 6.78027 17.6738 6.8006C17.6572 6.81305 17.64 6.82495 17.6229 6.83685C17.6077 6.84729 17.5925 6.85755 17.5773 6.86762C17.5497 6.88556 17.5215 6.90296 17.4929 6.91944C17.4753 6.92969 17.4578 6.93994 17.4398 6.94946C17.4211 6.95954 17.4021 6.96924 17.3831 6.97876C17.3622 6.98883 17.3413 6.99872 17.3201 7.00806C17.2985 7.01795 17.2765 7.02728 17.2543 7.03607C17.2272 7.04706 17.1998 7.0575 17.1721 7.0672C17.1589 7.07178 17.1456 7.07636 17.1322 7.08075C17.0939 7.09302 17.0551 7.10455 17.0157 7.11444C16.8683 7.15198 16.714 7.17194 16.5551 7.17194C16.3804 7.17194 16.2117 7.14758 16.0513 7.10272C16.0253 7.09558 15.9997 7.08789 15.9742 7.07947C15.9587 7.07434 15.9431 7.06922 15.9276 7.06372C15.9054 7.05567 15.8834 7.04724 15.8615 7.03845C15.8369 7.02857 15.8126 7.01831 15.7886 7.00751C15.7695 6.9989 15.7505 6.9903 15.7316 6.98114C15.7137 6.97235 15.6959 6.96301 15.6783 6.95368C15.6626 6.94544 15.6472 6.93665 15.6318 6.92804C15.6058 6.91321 15.5802 6.89783 15.5551 6.8819C15.537 6.87055 15.5189 6.85901 15.5013 6.84693C15.4852 6.83594 15.4692 6.82459 15.4535 6.81305C15.4379 6.8017 15.4225 6.78998 15.4072 6.77808C15.3931 6.76709 15.3786 6.7561 15.3647 6.74475C15.3391 6.72351 15.314 6.70172 15.2894 6.6792C15.2773 6.66821 15.2658 6.65668 15.2541 6.64551C15.2371 6.62903 15.2206 6.61237 15.2041 6.59534C14.976 6.35803 14.8097 6.06122 14.7311 5.73053C14.7251 5.70526 14.7194 5.67999 14.7145 5.65436C14.7123 5.64319 14.7105 5.63202 14.7084 5.62085C14.7042 5.59613 14.7004 5.57123 14.6971 5.54633C14.6956 5.53516 14.694 5.52399 14.6927 5.51264C14.6898 5.48663 14.6876 5.46063 14.6855 5.43445C14.6848 5.42456 14.6839 5.41467 14.6832 5.4046C14.6812 5.3689 14.6801 5.33283 14.6801 5.29694C14.6799 5.26233 14.681 5.22772 14.683 5.19312ZM6.73438 11.1094C7.2522 11.1094 7.67188 11.5291 7.67188 12.0469C7.67188 12.5648 7.2522 12.9844 6.73438 12.9844C6.21674 12.9844 5.79688 12.5648 5.79688 12.0469C5.79688 11.5291 6.21674 11.1094 6.73438 11.1094Z" fill="#333333"/>
</svg>
