<svg width="18" height="18" viewBox="0 0 18 18" fill="none" xmlns="http://www.w3.org/2000/svg">
<path d="M9.00002 0C4.0311 0 0 4.02602 0 8.99527C0 13.9693 4.0311 18 8.99998 18C13.9716 18 17.9993 13.9692 17.9993 8.99527C17.9993 4.02602 13.9716 0 9.00002 0ZM9.64136 14.0031C9.43233 14.1891 9.19008 14.2826 8.91566 14.2826C8.63173 14.2826 8.38406 14.1908 8.17266 14.0068C7.96092 13.8232 7.85485 13.5661 7.85485 13.2357C7.85485 12.9426 7.9575 12.696 8.16216 12.4961C8.36681 12.2962 8.61785 12.1962 8.91566 12.1962C9.20872 12.1962 9.45538 12.2962 9.65562 12.4961C9.85552 12.696 9.9558 12.9426 9.9558 13.2357C9.95543 13.5613 9.85072 13.8171 9.64136 14.0031ZM12.2478 7.54145C12.0872 7.83926 11.8965 8.09605 11.6752 8.31258C11.4546 8.52907 11.0579 8.89294 10.4853 9.40453C10.3274 9.54887 10.2004 9.67558 10.1052 9.78466C10.01 9.89411 9.93884 9.99402 9.8924 10.0848C9.84564 10.1756 9.80975 10.2664 9.78433 10.3572C9.7589 10.4477 9.72064 10.6073 9.66879 10.8353C9.58072 11.3191 9.30391 11.561 8.83872 11.561C8.5968 11.561 8.39353 11.482 8.22785 11.3238C8.06283 11.1656 7.98051 10.9308 7.98051 10.6191C7.98051 10.2285 8.04116 9.88999 8.16211 9.60372C8.2824 9.31742 8.44333 9.06638 8.64324 8.84989C8.84347 8.6334 9.11314 8.37656 9.45296 8.07875C9.75077 7.81821 9.96593 7.62172 10.0984 7.48922C10.2312 7.35643 10.3427 7.20871 10.4331 7.04607C10.5243 6.8831 10.569 6.70658 10.569 6.51585C10.569 6.14352 10.4311 5.82979 10.154 5.574C9.87719 5.3182 9.52007 5.19012 9.08267 5.19012C8.57075 5.19012 8.194 5.3192 7.95209 5.57737C7.71017 5.83554 7.50589 6.21567 7.33817 6.71813C7.17962 7.24397 6.87943 7.50685 6.43795 7.50685C6.17741 7.50685 5.95754 7.41503 5.77832 7.23139C5.59942 7.04774 5.50997 6.84888 5.50997 6.63477C5.50997 6.19295 5.65194 5.74505 5.93553 5.2914C6.21946 4.83775 6.63348 4.462 7.17791 4.16452C7.72201 3.86671 8.35731 3.71762 9.08267 3.71762C9.75723 3.71762 10.3525 3.84229 10.8689 4.09133C11.3852 4.34 11.7843 4.67849 12.0658 5.10671C12.3471 5.53461 12.488 5.99981 12.488 6.50227C12.4886 6.89702 12.4084 7.24364 12.2478 7.54145Z" fill="#FFD452"/>
</svg>
