<svg width="15" height="15" viewBox="0 0 15 15" fill="none" xmlns="http://www.w3.org/2000/svg">
<path d="M11.0502 8.8707L11.0072 8.93908L11.065 8.99551L14.4887 12.3374L14.4887 12.3374L14.4909 12.3395C14.6179 12.4563 14.7195 12.5966 14.7897 12.752C14.8599 12.9075 14.8973 13.075 14.8999 13.2446C14.9024 13.4143 14.87 13.5828 14.8045 13.7401C14.7391 13.8975 14.6418 14.0407 14.5183 14.161C14.3949 14.2814 14.2477 14.3765 14.0856 14.4406C13.9235 14.5047 13.7497 14.5365 13.5746 14.534C13.3995 14.5315 13.2268 14.4948 13.0667 14.4261C12.9068 14.3574 12.7628 14.2584 12.6431 14.1348C12.6429 14.1346 12.6428 14.1344 12.6426 14.1343L9.38567 10.6613L9.33067 10.6027L9.26158 10.6438C8.02219 11.3813 6.38273 11.7783 4.9623 11.5288C3.53756 11.2785 2.25706 10.5275 1.36311 9.41882C0.469217 8.3102 0.0238013 6.92086 0.110682 5.51406C0.197563 4.10725 0.810771 2.77988 1.83482 1.78365C2.85894 0.787364 4.2228 0.19153 5.66811 0.109703C7.11344 0.0278758 8.53902 0.465796 9.67474 1.33996C10.8104 2.21408 11.5771 3.46349 11.8305 4.85112C12.0838 6.23871 11.8064 7.66885 11.0502 8.8707ZM9.09492 8.8767L9.09497 8.87664C9.90966 8.08112 10.3677 7.00238 10.3677 5.87712C10.3677 4.75187 9.90966 3.67313 9.09497 2.8776L9.09492 2.87755C8.48676 2.28464 7.71223 1.88114 6.86939 1.71768C6.02655 1.55423 5.15291 1.63809 4.35882 1.95875C3.56472 2.27941 2.88557 2.82261 2.40756 3.52005C1.92953 4.21751 1.67421 5.03778 1.67421 5.87712C1.67421 6.71646 1.92953 7.53674 2.40756 8.2342C2.88557 8.93163 3.56472 9.47483 4.35882 9.7955C5.15291 10.1162 6.02655 10.2 6.86939 10.0366C7.71223 9.87311 8.48676 9.4696 9.09492 8.8767Z" fill="#333333" stroke="#333333" stroke-width="0.2"/>
</svg>
