<svg width="23" height="23" viewBox="0 0 23 23" fill="none" xmlns="http://www.w3.org/2000/svg">
<path d="M10.8299 11.2103V0.646471C10.8299 0.28732 11.1172 0 11.4764 0C11.8355 0 12.1228 0.28732 12.1228 0.646471V11.2103C13.6217 11.512 14.7566 12.8384 14.7566 14.4283C14.7566 16.0181 13.6217 17.3446 12.1228 17.6463V22.3487C12.1228 22.7079 11.8355 22.9952 11.4764 22.9952C11.1172 22.9952 10.8299 22.7079 10.8299 22.3487V17.6463C9.33103 17.3446 8.19611 16.0181 8.19611 14.4283C8.19611 12.8432 9.32624 11.512 10.8299 11.2103ZM11.4764 16.4156C12.573 16.4156 13.4637 15.5249 13.4637 14.4283C13.4637 13.3317 12.573 12.441 11.4764 12.441C10.3797 12.441 9.48905 13.3317 9.48905 14.4283C9.48905 15.5249 10.3797 16.4156 11.4764 16.4156Z" fill="#333333"/>
<path d="M18.7454 5.78951V0.646471C18.7454 0.28732 19.0327 0 19.3919 0C19.751 0 20.0383 0.28732 20.0383 0.646471V5.78951C21.5372 6.09119 22.6721 7.41765 22.6721 9.00749C22.6721 10.5973 21.5372 11.9238 20.0383 12.2255V22.3487C20.0383 22.7079 19.751 22.9952 19.3919 22.9952C19.0327 22.9952 18.7454 22.7079 18.7454 22.3487V12.2207C17.2466 11.919 16.1116 10.5925 16.1116 9.00271C16.1116 7.41287 17.2466 6.09119 18.7454 5.78951ZM19.3919 10.9948C20.4885 10.9948 21.3792 10.1041 21.3792 9.00749C21.3792 7.91089 20.4885 7.0202 19.3919 7.0202C18.2953 7.0202 17.4046 7.91089 17.4046 9.00749C17.4046 10.1041 18.3001 10.9948 19.3919 10.9948Z" fill="#333333"/>
<path d="M2.96196 5.78951V0.646471C2.96196 0.28732 3.24928 0 3.60843 0C3.96758 0 4.2549 0.28732 4.2549 0.646471V5.78951C5.75376 6.09119 6.88867 7.41766 6.88867 9.0075C6.88867 10.5973 5.75376 11.9238 4.2549 12.2255V22.3535C4.2549 22.7127 3.96758 23 3.60843 23C3.24928 23 2.96196 22.7127 2.96196 22.3535V12.2207C1.46311 11.919 0.328194 10.5925 0.328194 9.00271C0.328194 7.41287 1.45832 6.09119 2.96196 5.78951ZM3.60843 10.9948C4.70504 10.9948 5.59573 10.1041 5.59573 9.0075C5.59573 7.91089 4.70504 7.0202 3.60843 7.0202C2.51183 7.0202 1.62113 7.91089 1.62113 9.0075C1.62113 10.1041 2.51183 10.9948 3.60843 10.9948Z" fill="#333333"/>
</svg>
