<svg width="24" height="24" viewBox="0 0 24 24" fill="none" xmlns="http://www.w3.org/2000/svg">
<path d="M19.0166 15.4186C17.6362 15.4186 16.4054 16.0764 15.618 17.093L9.02495 13.4103C9.17944 12.9668 9.26415 12.4884 9.26415 11.995C9.26415 11.4967 9.17944 11.0233 9.01997 10.5748L15.608 6.89701C16.3904 7.9186 17.6263 8.5814 19.0117 8.5814C21.3738 8.5814 23.3024 6.65781 23.3024 4.2907C23.3024 1.92359 21.3788 0 19.0117 0C16.6446 0 14.721 1.92359 14.721 4.2907C14.721 4.78904 14.8057 5.26744 14.9652 5.71096L8.3821 9.3887C7.5997 8.36213 6.36382 7.70432 4.97844 7.70432C2.61632 7.70432 0.687744 9.62791 0.687744 11.995C0.687744 14.3621 2.61632 16.2857 4.98342 16.2857C6.36881 16.2857 7.60469 15.6229 8.39206 14.5963L14.9801 18.2791C14.8206 18.7276 14.7309 19.211 14.7309 19.7093C14.7309 22.0714 16.6545 24 19.0216 24C21.3887 24 23.3123 22.0764 23.3123 19.7093C23.3123 17.3422 21.3838 15.4186 19.0166 15.4186ZM19.0166 1.3505C20.6412 1.3505 21.9618 2.6711 21.9618 4.29568C21.9618 5.92027 20.6412 7.24086 19.0166 7.24086C17.3921 7.24086 16.0715 5.92027 16.0715 4.29568C16.0715 2.6711 17.397 1.3505 19.0166 1.3505ZM4.98342 14.9402C3.35884 14.9402 2.03824 13.6196 2.03824 11.995C2.03824 10.3704 3.35884 9.04983 4.98342 9.04983C6.60801 9.04983 7.92861 10.3704 7.92861 11.995C7.92861 13.6196 6.60303 14.9402 4.98342 14.9402ZM19.0166 22.6495C17.3921 22.6495 16.0715 21.3289 16.0715 19.7043C16.0715 18.0797 17.3921 16.7591 19.0166 16.7591C20.6412 16.7591 21.9618 18.0797 21.9618 19.7043C21.9618 21.3289 20.6412 22.6495 19.0166 22.6495Z" fill="#333333"/>
</svg>
