<svg width="24" height="24" viewBox="0 0 24 24" fill="none" xmlns="http://www.w3.org/2000/svg">
<path d="M22.1349 9.45525C22.5695 9.03164 22.7229 8.40993 22.5354 7.83276C22.3479 7.25559 21.8583 6.84285 21.2577 6.75562L16.0063 5.99254C15.9033 5.97759 15.8142 5.91286 15.768 5.81939L13.4195 1.06087C13.151 0.516651 12.6072 0.178589 12.0003 0.178589C11.3934 0.178589 10.8495 0.516651 10.581 1.06087L8.2325 5.81943C8.18633 5.91286 8.09726 5.97759 7.99414 5.99259L2.74283 6.75562C2.14226 6.84285 1.65275 7.25559 1.46515 7.83276C1.27756 8.40993 1.43103 9.03164 1.86565 9.45525L5.66558 13.1593C5.74015 13.232 5.77423 13.3368 5.75661 13.4395L4.85956 18.6696C4.757 19.2678 4.99822 19.8609 5.48919 20.2176C5.98015 20.5744 6.61897 20.6205 7.15606 20.3382L11.853 17.8688C11.9452 17.8203 12.0553 17.8203 12.1476 17.8688L16.8446 20.3382C17.0782 20.461 17.331 20.5217 17.5826 20.5216C17.9093 20.5216 18.234 20.4193 18.5113 20.2176C19.0023 19.8608 19.2436 19.2676 19.141 18.6696L18.2439 13.4394C18.2263 13.3367 18.2604 13.232 18.335 13.1592L22.1349 9.45525ZM16.9961 13.6536L17.8931 18.8838C17.9231 19.0588 17.8151 19.1586 17.7672 19.1933C17.7193 19.228 17.591 19.3001 17.4338 19.2174L12.7369 16.7481C12.5063 16.6269 12.2533 16.5662 12.0004 16.5662C11.7474 16.5662 11.4944 16.6269 11.2639 16.748L6.56694 19.2173C6.40972 19.2999 6.28142 19.228 6.23356 19.1932C6.1857 19.1585 6.07761 19.0587 6.10765 18.8837L7.0047 13.6536C7.09278 13.14 6.92267 12.6164 6.5495 12.2527L2.74958 8.54864C2.6224 8.42461 2.65119 8.28037 2.66951 8.22412C2.68775 8.16782 2.7493 8.03418 2.92503 8.00868L8.1763 7.2456C8.69187 7.1707 9.13742 6.84707 9.36805 6.37978L11.7165 1.62121C11.7951 1.46198 11.9412 1.44478 12.0004 1.44478C12.0595 1.44478 12.2056 1.46193 12.2842 1.62121V1.62126L14.6327 6.37982C14.8633 6.84712 15.3088 7.17075 15.8244 7.24565L21.0757 8.00873C21.2515 8.03423 21.313 8.16787 21.3312 8.22417C21.3495 8.28047 21.3784 8.42475 21.2511 8.54868L17.4512 12.2527C17.0781 12.6164 16.908 13.14 16.9961 13.6536Z" fill="#333333"/>
<path d="M19.3958 1.06051C19.1129 0.855014 18.717 0.917733 18.5115 1.20058L17.8395 2.12551C17.634 2.40836 17.6966 2.80431 17.9795 3.00981C18.092 3.09142 18.2221 3.13075 18.3511 3.13075C18.5469 3.13075 18.74 3.04023 18.8638 2.8698L19.5359 1.94486C19.7414 1.66197 19.6787 1.26601 19.3958 1.06051Z" fill="#333333"/>
<path d="M6.15768 2.12179L5.48563 1.19685C5.28018 0.914097 4.88427 0.851378 4.60133 1.05678C4.31849 1.26228 4.25577 1.65824 4.46127 1.94108L5.13332 2.86602C5.25721 3.0366 5.45024 3.12707 5.64609 3.12707C5.77513 3.12707 5.90535 3.08774 6.01767 3.00608C6.30051 2.80063 6.36323 2.40468 6.15768 2.12179Z" fill="#333333"/>
<path d="M2.32298 14.3826C2.21494 14.0501 1.8578 13.8681 1.52522 13.9761L0.43786 14.3294C0.105282 14.4375 -0.0766403 14.7947 0.0314065 15.1272C0.118313 15.3948 0.366516 15.5649 0.633375 15.5649C0.698203 15.5649 0.764157 15.5548 0.829172 15.5337L1.91653 15.1803C2.24906 15.0723 2.43103 14.7151 2.32298 14.3826Z" fill="#333333"/>
<path d="M12.0003 21.4119C11.6506 21.4119 11.3672 21.6953 11.3672 22.045V23.1883C11.3672 23.538 11.6506 23.8214 12.0003 23.8214C12.3499 23.8214 12.6334 23.538 12.6334 23.1883V22.045C12.6334 21.6953 12.35 21.4119 12.0003 21.4119Z" fill="#333333"/>
<path d="M23.5623 14.3304L22.4749 13.977C22.1425 13.8691 21.7852 14.051 21.6772 14.3835C21.5691 14.7161 21.751 15.0733 22.0836 15.1813L23.171 15.5347C23.236 15.5557 23.3019 15.5658 23.3667 15.5658C23.6336 15.5658 23.8818 15.3957 23.9687 15.1281C24.0768 14.7956 23.8948 14.4384 23.5623 14.3304Z" fill="#333333"/>
</svg>
