<svg width="29" height="24" viewBox="0 0 29 24" fill="none" xmlns="http://www.w3.org/2000/svg">
<path d="M29 3.20521C27.1758 3.29023 27.2156 3.28329 27.0094 3.30074L28.0898 0.180968C28.0898 0.180968 24.7174 1.43537 23.8625 1.65976C21.6172 -0.380792 18.2799 -0.470951 15.8939 1.01186C13.94 2.22644 12.8913 4.31218 13.2411 6.75005C9.43841 6.21648 6.23445 4.39384 3.70487 1.32127L2.90482 0.349653L2.307 1.45975C1.55142 2.86247 1.30052 4.46632 1.60032 5.97576C1.72334 6.59502 1.93242 7.18564 2.22204 7.73867L1.53571 7.46976L1.45429 8.6293C1.37177 9.80719 1.75962 11.1822 2.49197 12.307C2.69817 12.6238 2.96368 12.9717 3.3002 13.3149L2.94553 13.2599L3.3783 14.5885C3.94714 16.3342 5.12863 17.6848 6.66191 18.4356C5.13062 19.0927 3.8936 19.5119 1.86029 20.1882L0 20.8066L1.71825 21.7565C2.37337 22.1187 4.68834 23.3284 6.97565 23.6912C12.06 24.4975 17.7845 23.8409 21.6383 20.3314C24.8843 17.3754 25.9494 13.1706 25.7281 8.79485C25.6947 8.13242 25.8741 7.50019 26.2335 7.01494C26.9532 6.04332 28.9956 3.2117 29 3.20521ZM24.8747 5.98583C24.278 6.79144 23.9791 7.82033 24.0327 8.88255C24.2559 13.2963 23.0682 16.7192 20.5024 19.0558C17.5051 21.7854 12.6705 22.8568 7.23872 21.9952C6.25503 21.8393 5.23837 21.4901 4.39695 21.1413C6.1017 20.5482 7.41815 20.0195 9.54417 19.0021L12.512 17.5817L9.2353 17.3696C7.66573 17.268 6.3588 16.4989 5.55543 15.2501C5.982 15.225 6.39331 15.1552 6.80285 15.0398L9.92804 14.1597L6.77674 13.3793C5.24545 13.0001 4.37261 12.0737 3.90997 11.3632C3.60619 10.8963 3.40773 10.4179 3.2887 9.97699C3.60464 10.0627 3.97303 10.1237 4.56709 10.1833L7.48386 10.475L5.17288 8.65212C3.50774 7.33888 2.84044 5.3659 3.32963 3.4692C8.52641 8.91947 14.6281 8.50983 15.2423 8.65391C15.1071 7.32613 15.1036 7.323 15.0682 7.1966C14.2816 4.38511 16.0054 2.95756 16.7829 2.47432C18.4069 1.46512 20.9847 1.31299 22.7702 2.97568C23.1558 3.33452 23.6773 3.47569 24.1654 3.35309C24.6035 3.24302 24.963 3.12646 25.315 2.99961L24.5823 5.11556L25.5177 5.11623C25.3411 5.35561 25.1294 5.64219 24.8747 5.98583Z" fill="#333333"/>
</svg>
