<svg width="36" height="32" viewBox="0 0 35 32" fill="none" xmlns="http://www.w3.org/2000/svg">
<path d="M22.3061 5.00729C16.0334 3.32651 9.54908 7.12231 7.84979 13.4641L7.8396 13.5022L6.50624 9.46967C6.37614 9.07369 5.94939 8.86033 5.55643 8.99384C5.16348 9.12735 4.94978 9.55935 5.07988 9.95532L7.0156 15.8034C7.0858 16.0144 7.24335 16.1789 7.44569 16.2623C7.47649 16.2764 7.50336 16.2836 7.53562 16.2922C7.71299 16.3397 7.90247 16.3206 8.07034 16.2316L13.7204 13.3131C14.0888 13.1206 14.2395 12.6659 14.0523 12.2896C13.8636 11.9187 13.414 11.7691 13.0402 11.9601L9.28651 13.9074L9.30107 13.853C10.7849 8.31545 16.4411 5.00837 21.913 6.47455C27.3848 7.94073 30.6351 13.6343 29.1513 19.1719C27.6675 24.7094 22.0113 28.0165 16.5394 26.5503C13.8895 25.8403 11.675 24.1286 10.3127 21.7308C10.105 21.3665 9.64809 21.2441 9.28604 21.4558C8.92398 21.6674 8.80021 22.1294 9.00792 22.4937C10.5755 25.2435 13.1093 27.2039 16.1463 28.0176C22.4136 29.6969 28.9018 25.908 30.6026 19.5607C32.3033 13.2135 28.5789 6.68806 22.3061 5.00729Z" fill="#333333" stroke="#333333" stroke-width="0.9"/>
</svg>
