<svg width="29" height="32" viewBox="0 0 29 32" fill="none" xmlns="http://www.w3.org/2000/svg">
<path d="M17.5685 0.925H11.8543C5.82786 0.925 0.925 5.82669 0.925 11.852V16.9995C0.925 21.4694 3.66116 25.4883 7.78071 27.1425V30.4287C7.78071 30.6845 7.93121 30.9159 8.16508 31.0194C8.24923 31.0569 8.33851 31.075 8.42702 31.075C8.58403 31.075 8.73983 31.0175 8.86081 30.9075L12.1523 27.9265H17.5685C23.595 27.9265 28.4978 23.0248 28.4978 16.9995V11.852C28.4978 5.82669 23.595 0.925 17.5685 0.925ZM27.2052 16.9995C27.2052 22.3118 22.8826 26.6339 17.5685 26.6339H11.9029C11.7426 26.6339 11.5881 26.6934 11.4691 26.8013L9.07332 28.9713V26.6958C9.07332 26.4219 8.90089 26.1775 8.64227 26.0869C4.7999 24.728 2.21762 21.076 2.21762 16.9995V11.852C2.21762 6.53972 6.54082 2.21762 11.8543 2.21762H17.5685C22.8826 2.21762 27.2052 6.53971 27.2052 11.852V16.9995Z" fill="#333333" stroke="#333333" stroke-width="0.15"/>
<path d="M22.3025 18.3581L22.3026 18.3581C22.6018 18.5527 22.687 18.9527 22.4932 19.2529L22.4931 19.2531L21.2488 21.1693L21.2488 21.1694C20.687 22.0325 19.7453 22.5032 18.7853 22.5032C18.2395 22.5032 17.6879 22.3509 17.1975 22.0335C17.0994 21.9841 16.0301 21.4254 14.6957 20.5883C13.3397 19.7376 11.7049 18.5962 10.5375 17.4069C8.21726 15.0438 6.78114 12.4809 6.72002 12.3714L6.71987 12.3712C6.70322 12.3411 6.68898 12.3101 6.67727 12.2776C6.67726 12.2775 6.67724 12.2775 6.67723 12.2774L6.67705 12.2769C6.56064 11.9569 6.32204 11.3009 6.3051 10.5573C6.2881 9.81071 6.49467 8.97159 7.27218 8.29568L7.27219 8.29567L8.99697 6.79656L8.99708 6.79646C9.2664 6.56331 9.67478 6.59088 9.90889 6.86052L22.3025 18.3581ZM22.3025 18.3581L18.7913 16.0775L22.3025 18.3581ZM6.7855 12.3349C6.77065 12.308 6.75808 12.2806 6.74779 12.252L6.7855 12.3349ZM6.7855 12.3349C6.84549 12.4423 8.27776 14.9983 10.591 17.3544L6.7855 12.3349ZM12.6557 10.0204L9.90892 6.86056L16.3795 16.6431L16.3166 16.6022L16.3165 16.6024L16.1831 16.8074C15.4408 16.5609 14.6738 16.2782 13.9682 15.715C13.2547 15.1454 12.5991 14.2846 12.1034 12.8723L12.4804 12.5446L12.4312 12.488L12.4804 12.5446C13.2247 11.8975 13.3027 10.7658 12.6558 10.0205L12.6557 10.0204ZM17.8496 20.9192L17.8497 20.9189L17.8435 20.9157C17.8236 20.9053 16.7737 20.3586 15.455 19.5354C14.1351 18.7115 12.5511 17.6138 11.4598 16.502L11.4062 16.5546L11.4598 16.502C9.42614 14.4305 8.07123 12.1293 7.87426 11.7863C7.65128 11.1594 7.56288 10.6614 7.60424 10.256C7.64537 9.85284 7.81519 9.53663 8.12014 9.27157C8.12014 9.27157 8.12014 9.27156 8.12015 9.27156L9.35755 8.19641L11.6804 10.8684L11.6805 10.8684C11.8642 11.0795 11.8427 11.3863 11.633 11.5687L10.932 12.1777L10.932 12.1777C10.7389 12.3456 10.6625 12.6112 10.7381 12.8557C11.3396 14.8103 12.2273 15.9854 13.1832 16.7417C14.136 17.4957 15.1517 17.8291 15.9988 18.1072L16.0023 18.1083L16.0025 18.1084L16.2493 18.1899C16.2493 18.1899 16.2494 18.1899 16.2495 18.1899C16.5295 18.2842 16.8358 18.1761 16.996 17.9294L17.401 17.3055L17.4011 17.3054C17.4737 17.1931 17.5845 17.1174 17.7136 17.0901L17.7138 17.0901C17.8427 17.0624 17.9744 17.0878 18.0874 17.1613L18.0874 17.1613L21.057 19.0898L20.1643 20.4649L20.2273 20.5057L20.1643 20.4649C19.673 21.2218 18.6561 21.4393 17.8496 20.9192Z" fill="#333333" stroke="#333333" stroke-width="0.15"/>
<path d="M17.3997 13.1745L17.3997 13.1744C17.1669 12.3477 16.5083 11.688 15.6821 11.4529L17.3997 13.1745ZM17.3997 13.1745C17.4799 13.4589 17.7391 13.6456 18.0215 13.6456C18.0797 13.6456 18.1383 13.6378 18.1968 13.6218L18.1968 13.6218M17.3997 13.1745L18.1968 13.6218M18.1968 13.6218L18.1973 13.6216L18.1968 13.6218ZM16.0363 10.21C15.6923 10.1112 15.3349 10.311 15.2374 10.6547L18.5717 12.8445L18.6439 12.8241C18.6439 12.8241 18.6439 12.8241 18.6439 12.8241C18.29 11.5685 17.2907 10.5668 16.0363 10.21ZM15.2374 10.6547C15.1398 10.9979 15.3389 11.3553 15.6821 11.4529L15.2374 10.6547Z" fill="#333333" stroke="#333333" stroke-width="0.15"/>
<path d="M15.6369 9.09146C15.3335 9.00519 15.1576 8.68925 15.2439 8.38589C15.3301 8.08252 15.6461 7.90485 15.9494 7.99226L15.6369 9.09146ZM15.6369 9.09146C17.6462 9.66276 19.2464 11.2676 19.8137 13.278L15.6369 9.09146ZM20.5386 13.7451L20.5391 13.745C20.8829 13.648 21.0826 13.2906 20.9857 12.9474C20.3045 10.5326 18.3831 8.60716 15.9701 7.92015C15.6264 7.8212 15.2692 8.02257 15.1717 8.36537C15.0741 8.70857 15.2732 9.06599 15.6164 9.16359L15.6164 9.1636C17.6006 9.72778 19.1813 11.313 19.7416 13.2984L19.7416 13.2985C19.8224 13.5829 20.0809 13.7689 20.3633 13.7689C20.4215 13.7689 20.4802 13.7612 20.5386 13.7451Z" fill="#333333" stroke="#333333" stroke-width="0.15"/>
<path d="M15.3696 6.50303C18.749 7.46428 21.4414 10.163 22.3953 13.5446C22.4755 13.8291 22.7346 14.0158 23.0171 14.0158C23.0752 14.0158 23.1339 14.008 23.1923 13.9919L23.1928 13.9918L23.5672 13.2146L23.6394 13.1943C23.6394 13.1942 23.6394 13.1942 23.6394 13.1942C22.5646 9.38315 19.532 6.34365 15.7238 5.25959C15.3798 5.16071 15.0224 5.36065 14.9249 5.70489L14.997 5.72533M15.3696 6.50303L15.3901 6.4309M15.3696 6.50303L15.3901 6.4309M15.3696 6.50303C15.0263 6.40543 14.8273 6.04801 14.9249 5.70481L14.997 5.72533M15.3901 6.4309C15.0867 6.34463 14.9108 6.02869 14.997 5.72533M15.3901 6.4309C18.7945 7.39926 21.5065 10.1176 22.4675 13.5243L14.997 5.72533" fill="#333333" stroke="#333333" stroke-width="0.15"/>
</svg>
