<svg width="28" height="24" viewBox="0 0 28 24" fill="none" xmlns="http://www.w3.org/2000/svg">
<path d="M3.31852 24H2.3897C1.39558 24 0.589667 23.1941 0.589667 22.1999C0.589667 21.2058 1.39558 20.3999 2.3897 20.3999H3.72055C4.4724 20.398 5.14448 19.9305 5.4078 19.2263L6.29459 16.837L0.181679 2.60594C-0.253086 1.71194 0.119184 0.634736 1.01318 0.199915C1.87371 -0.218593 2.91121 0.109295 3.37494 0.94631L8.16421 11.8017L12.1543 1.05431C12.3623 0.600929 12.7483 0.253579 13.2211 0.0942755C13.6736 -0.0592336 14.1687 -0.0241892 14.5951 0.191477C15.4844 0.635804 15.8451 1.71695 15.4007 2.60628C15.4006 2.60656 15.4005 2.60684 15.4003 2.60712L8.34416 20.5751C7.53915 22.6467 5.54111 24.0083 3.31852 24ZM2.3897 21.5999C2.05833 21.5999 1.78967 21.8686 1.78967 22.1999C1.78967 22.5313 2.05833 22.8 2.3897 22.8H3.31852C5.04751 22.8066 6.60189 21.7474 7.22819 20.1359L14.3083 2.11633C14.3949 1.96159 14.4144 1.77821 14.3623 1.60872C14.3119 1.45774 14.2035 1.33298 14.0611 1.26193C13.919 1.18943 13.7536 1.17773 13.6027 1.22953C13.4518 1.27994 13.327 1.38833 13.2559 1.53076L8.77504 13.6054C8.6901 13.8346 8.47455 13.9894 8.23025 13.9966C7.98443 14.0069 7.75813 13.8634 7.66262 13.6366L2.29734 1.47434C2.12487 1.213 1.78219 1.12524 1.50532 1.27155C1.21445 1.43001 1.10701 1.79418 1.2653 2.08517L7.49224 16.5838C7.55282 16.7254 7.5567 16.8847 7.50304 17.029L6.53344 19.6439C6.09378 20.8173 4.97371 21.5962 3.7206 21.5999H2.3897Z" fill="#333333"/>
<path d="M25.7902 13.2C24.5745 13.2 18.7761 12.6215 18.53 12.5999C18.2002 12.5675 17.9592 12.2738 17.9917 11.944C18.0156 11.7011 18.1844 11.4969 18.4184 11.4275C20.8343 10.6621 23.2965 10.0517 25.7902 9.59985C26.7843 9.59985 27.5902 10.4058 27.5902 11.3999C27.5902 12.394 26.7843 13.2 25.7902 13.2ZM21.8169 11.7048C23.4478 11.8524 25.213 12 25.7902 12C26.1216 12 26.3903 11.7313 26.3903 11.3999C26.3903 11.0686 26.1216 10.7999 25.7902 10.7999C24.4456 11.0046 23.1176 11.307 21.8169 11.7048Z" fill="#333333"/>
<path d="M16.1899 8.39967C15.8585 8.39939 15.5901 8.13057 15.5903 7.79919C15.5904 7.63089 15.6613 7.4704 15.7855 7.35689C16.2247 6.9561 20.1055 3.42083 21.0656 2.8064C21.8159 2.24131 22.8685 2.31876 23.528 2.98759C23.7987 3.29016 23.9586 3.67554 23.9816 4.08083C24.0452 4.7757 23.739 5.45285 23.1752 5.86404C21.4952 7.23927 16.5343 8.33971 16.3243 8.38409C16.2801 8.39421 16.2351 8.39945 16.1899 8.39967ZM22.2572 3.63318C22.0613 3.64567 21.872 3.7085 21.7075 3.8156C21.2275 4.12043 19.7323 5.42725 18.4123 6.60324C19.8249 6.26089 21.1744 5.69709 22.4108 4.93281C22.593 4.78335 22.7297 4.58591 22.8056 4.36281C22.7893 4.30786 22.7808 4.25093 22.7804 4.19361C22.7824 4.04657 22.7303 3.90397 22.634 3.79282C22.5378 3.68696 22.4001 3.62862 22.2572 3.63318Z" fill="#333333"/>
<path d="M22.2536 20.3999C21.826 20.3938 21.4093 20.2642 21.0536 20.0267C20.0936 19.4123 16.2163 15.8458 15.7735 15.4402C15.5311 15.2143 15.5176 14.8347 15.7435 14.5922C15.8884 14.4366 16.1048 14.3693 16.3123 14.4154C16.5223 14.4622 21.4724 15.5962 23.1596 16.969C23.7239 17.3802 24.0303 18.0581 23.966 18.7534C23.9434 19.1584 23.7833 19.5436 23.5124 19.8454C23.1912 20.2015 22.7331 20.4032 22.2536 20.3999ZM18.4136 16.2118C19.7336 17.3975 21.2312 18.7127 21.7064 19.0175C21.8061 19.0811 22.3196 19.3775 22.6341 19.0391C22.7299 18.9278 22.7816 18.7852 22.7793 18.6383C22.7797 18.5814 22.7881 18.5248 22.8045 18.4703C22.729 18.2467 22.5922 18.0487 22.4096 17.899C21.1735 17.133 19.8258 16.5638 18.4147 16.2118H18.4136V16.2118Z" fill="#333333"/>
</svg>
