<svg width="506" height="508" viewBox="0 0 506 508" fill="none" xmlns="http://www.w3.org/2000/svg">
<mask id="mask0" mask-type="alpha" maskUnits="userSpaceOnUse" x="0" y="-198" width="1082" height="1082">
<circle cx="540.972" cy="342.867" r="490" transform="rotate(173.717 540.972 342.867)" fill="#C4C4C4"/>
</mask>
<g mask="url(#mask0)">
<path d="M-898.784 297.143C-893.756 294.216 -887.314 296.215 -884.334 301.227C-877.135 313.334 -868.007 324.158 -857.313 333.231C-832.607 353.548 -804.701 358.762 -775.191 364.051C-744.177 369.822 -712.078 375.774 -682.887 399.875C-653.696 423.977 -641.053 454.944 -628.833 484.715C-617.138 513.251 -606.171 540.028 -581.703 560.371C-557.236 580.713 -529.091 585.902 -499.581 591.191C-468.567 596.962 -436.468 602.913 -407.282 626.966C-378.097 651.019 -365.448 682.034 -353.223 711.854C-341.527 740.391 -330.56 767.168 -306.093 787.51C-281.626 807.853 -253.529 813.047 -223.971 818.33C-192.492 824.796 -160.266 830.585 -131.224 854.653C-102.182 878.721 -89.3898 909.722 -77.1644 939.541C-65.5169 968.083 -54.502 994.855 -30.0347 1015.2C-18.9752 1024.08 -6.55081 1030.94 6.68875 1035.52C11.9512 1037.34 15.2191 1042.81 13.8067 1048.18L13.0287 1051.14C11.6298 1056.46 6.16894 1059.68 0.943475 1057.91C-15.2555 1052.45 -30.4377 1044.09 -43.8891 1033.2C-73.0745 1009.14 -85.7235 978.127 -97.9489 948.307C-109.596 919.766 -120.611 892.994 -145.079 872.651C-169.546 852.309 -197.643 847.115 -227.153 841.826C-258.215 836.06 -290.266 830.104 -319.452 806.051C-348.637 781.998 -361.334 750.988 -373.559 721.168C-385.207 692.626 -396.221 665.854 -420.689 645.512C-445.156 625.169 -473.253 619.975 -502.763 614.687C-533.826 608.921 -565.876 602.964 -595.062 578.911C-624.247 554.859 -636.944 523.848 -649.164 494.077C-660.811 465.536 -671.784 438.71 -696.299 418.372C-720.814 398.035 -748.863 392.836 -778.373 387.547C-809.436 381.781 -841.487 375.824 -870.672 351.772C-884.213 340.395 -895.64 326.634 -904.423 311.17C-907.012 306.613 -905.267 300.918 -900.748 298.287L-898.784 297.143Z" fill="#A90F4F"/>
<path d="M-916.524 135.025C-912.777 130.674 -906.1 130.363 -902.283 134.675C-883.391 156.023 -873.245 180.779 -863.401 204.897C-851.706 233.434 -840.739 260.211 -816.271 280.554C-791.804 300.896 -763.659 306.085 -734.149 311.374C-703.135 317.145 -671.036 323.096 -641.851 347.149C-612.665 371.201 -600.016 402.217 -587.791 432.037C-576.096 460.573 -565.129 487.35 -540.661 507.693C-516.194 528.036 -488.049 533.224 -458.539 538.513C-427.525 544.284 -395.426 550.235 -366.241 574.288C-337.055 598.341 -324.406 629.357 -312.181 659.176C-300.486 687.713 -289.519 714.49 -265.051 734.832C-240.584 755.175 -212.439 760.364 -182.929 765.652C-151.915 771.424 -119.816 777.375 -90.6307 801.428C-61.4453 825.48 -48.7963 856.496 -36.5709 886.316C-24.8757 914.852 -13.9086 941.629 10.5587 961.972C35.026 982.315 63.1229 987.508 92.6807 992.792C117.996 997.497 144.119 1002.36 168.819 1017.16C173.319 1019.86 174.562 1025.7 171.89 1030.2L170.356 1032.78C167.391 1037.78 160.811 1039.15 155.74 1036.29C135.271 1024.74 113.038 1020.6 89.6898 1016.27C58.6274 1010.5 26.5288 1004.55 -2.6566 980.497C-31.842 956.444 -44.4909 925.429 -56.7163 895.609C-68.3638 867.067 -79.3786 840.295 -103.846 819.953C-128.313 799.61 -156.41 794.416 -185.92 789.127C-216.983 783.362 -249.034 777.405 -278.219 753.352C-307.404 729.3 -320.101 698.289 -332.326 668.469C-343.974 639.928 -354.989 613.156 -379.456 592.813C-403.923 572.471 -432.02 567.277 -461.53 561.988C-492.593 556.222 -524.644 550.265 -553.829 526.213C-583.014 502.16 -595.711 471.15 -607.931 441.379C-619.578 412.837 -630.551 386.011 -655.066 365.674C-679.581 345.336 -707.63 340.137 -737.14 334.849C-768.155 329.077 -800.254 323.126 -829.439 299.073C-858.624 275.021 -871.321 244.01 -883.541 214.239C-892.93 191.236 -901.885 169.398 -917.921 151C-921.398 147.012 -921.707 141.044 -918.264 137.046L-916.524 135.025Z" fill="#A90F4F"/>
<path d="M-954.139 -276.785C-941.908 -246.918 -929.271 -216.001 -900.087 -191.95C-870.903 -167.898 -838.71 -161.957 -807.793 -156.176C-778.166 -150.702 -750.358 -145.477 -725.674 -125.357C-700.991 -105.238 -690.04 -78.1621 -678.547 -49.7045C-666.311 -19.7877 -653.674 11.1285 -624.49 35.1802C-595.306 59.2318 -563.113 65.1725 -532.196 70.9537C-502.57 76.4282 -474.761 81.653 -450.078 101.772C-425.394 121.892 -414.443 148.968 -402.95 177.425C-390.667 207.337 -378.029 238.253 -348.845 262.305C-319.661 286.356 -287.469 292.297 -256.551 298.078C-226.925 303.553 -199.116 308.778 -174.433 328.897C-149.75 349.017 -138.798 376.092 -127.305 404.55C-115.07 434.467 -102.39 465.329 -73.2061 489.38C-44.0221 513.432 -11.8239 519.422 19.0937 525.203C48.7197 530.678 76.5287 535.902 101.164 556.027C125.799 576.152 136.847 603.217 148.291 631.68C160.527 661.597 173.207 692.459 202.391 716.51C203.252 717.22 204.112 717.913 204.973 718.589C206.956 720.145 209.797 719.655 211.356 717.684C212.451 716.3 212.704 714.413 212.004 712.789C209.275 706.449 207.353 699.777 206.289 692.938C206.249 692.579 206.209 692.221 206.169 691.863C205.931 689.724 204.997 687.726 203.575 686.108C187.461 667.772 178.426 645.762 169.086 623.012C156.808 593.15 144.17 562.233 114.986 538.182C85.8024 514.13 53.6097 508.189 22.6921 502.408C-6.93944 496.885 -34.7428 491.709 -59.426 471.59C-84.1091 451.47 -95.0607 424.394 -106.559 395.888C-118.789 366.02 -131.474 335.109 -160.658 311.057C-189.842 287.006 -222.035 281.065 -252.953 275.284C-282.579 269.809 -310.387 264.584 -335.023 244.46C-359.658 224.335 -370.705 197.27 -382.156 168.758C-394.386 138.89 -407.071 107.979 -436.255 83.9274C-465.439 59.8758 -497.632 53.935 -528.549 48.1538C-558.175 42.6794 -585.984 37.4545 -610.62 17.3299C-635.255 -2.79474 -646.302 -29.8602 -657.747 -58.3229C-669.983 -88.2397 -682.668 -119.151 -711.852 -143.203C-741.036 -167.254 -773.229 -173.195 -804.146 -178.976C-833.772 -184.451 -861.581 -189.675 -886.217 -209.8C-910.852 -229.925 -921.899 -256.99 -933.344 -285.453C-934.735 -288.877 -936.139 -292.3 -937.569 -295.713C-939.73 -300.874 -945.744 -303.17 -950.824 -300.847L-953.154 -299.781C-958.117 -297.512 -960.332 -291.677 -958.224 -286.634C-956.859 -283.37 -955.505 -280.077 -954.139 -276.785Z" fill="#A90F4F"/>
<path d="M-858.939 -244.623C-829.752 -220.569 -797.557 -214.628 -766.636 -208.846C-737.007 -203.371 -709.196 -198.146 -684.51 -178.025C-659.825 -157.903 -648.872 -130.825 -637.379 -102.365C-625.142 -72.4457 -612.503 -41.5267 -583.316 -17.473C-554.13 6.58073 -521.934 12.5219 -491.013 18.3037C-461.385 23.7786 -433.573 29.0039 -408.888 49.1251C-384.202 69.2463 -373.25 96.3245 -361.756 124.785C-349.471 154.699 -336.838 185.569 -307.651 209.622C-278.465 233.676 -246.263 239.666 -215.343 245.448C-185.714 250.923 -157.903 256.148 -133.217 276.27C-108.532 296.391 -97.5792 323.469 -86.0855 351.929C-73.8486 381.848 -61.1676 412.713 -31.9809 436.767C-2.79419 460.821 29.4069 466.811 60.3274 472.593C89.9562 478.068 117.768 483.293 142.405 503.419C150.696 510.226 158.368 515.968 164.927 522.573C167.947 525.614 175.676 522.887 177.171 518.883C177.246 518.682 177.335 518.4 177.38 518.19C177.585 517.218 177.814 516.253 178.069 515.295C178.925 512.067 178.512 508.56 176.436 505.935C170.498 498.427 163.804 491.576 156.463 485.497C127.276 461.444 95.0801 455.503 64.1596 449.721C34.5253 444.197 6.71927 439.021 -17.9184 418.894C-42.5561 398.768 -53.6098 371.651 -65.0557 343.186C-77.2871 313.315 -89.9734 282.402 -119.16 258.348C-148.347 234.294 -180.543 228.353 -211.463 222.571C-241.097 217.047 -268.903 211.871 -293.541 191.745C-318.179 171.618 -329.227 144.55 -340.678 116.036C-352.91 86.1657 -365.596 55.2519 -394.783 31.1982C-423.97 7.14442 -456.165 1.2032 -487.086 -4.57856C-516.715 -10.0535 -544.526 -15.2787 -569.164 -35.4052C-593.801 -55.5316 -604.85 -82.5993 -616.301 -111.114C-628.533 -140.984 -641.219 -171.898 -670.406 -195.952C-699.592 -220.005 -731.788 -225.947 -762.708 -231.728C-792.337 -237.203 -820.149 -242.429 -844.787 -262.555C-857.731 -273.773 -868.47 -287.382 -876.456 -302.631C-879.111 -307.703 -885.283 -310.026 -890.416 -307.518L-892.701 -306.403C-897.489 -304.063 -899.616 -298.358 -897.211 -293.592C-887.762 -274.866 -874.758 -258.207 -858.939 -244.623Z" fill="#A90F4F"/>
<path d="M-817.782 -297.347C-788.594 -273.293 -756.398 -267.351 -725.476 -261.569C-695.846 -256.094 -668.034 -250.869 -643.348 -230.747C-618.662 -210.625 -607.709 -183.546 -596.215 -155.085C-583.977 -125.165 -571.344 -94.2939 -542.156 -70.2394C-512.969 -46.185 -480.767 -40.1944 -449.845 -34.4126C-420.216 -28.9375 -392.403 -23.7121 -367.717 -3.59022C-343.031 16.5316 -332.078 43.6106 -320.584 72.0715C-308.347 101.992 -295.713 132.863 -266.526 156.917C-237.338 180.972 -205.136 186.962 -174.215 192.744C-144.585 198.219 -116.773 203.445 -92.0864 223.566C-67.4002 243.688 -56.4473 270.767 -44.9532 299.228C-32.6682 329.143 -20.0348 360.014 9.15276 384.069C35.0321 405.915 66.0348 420.375 98.9986 425.976C128.628 431.451 145.231 432.877 179.503 447.883C180.167 448.162 180.827 448.452 181.48 448.753C187.501 451.529 196.449 447.262 198.47 440.964C198.498 440.877 198.526 440.79 198.555 440.702C199.568 437.606 199.865 432.992 197.092 431.266C161.88 410.003 134.883 405.583 103.866 399.812C74.2365 394.336 48.4729 387.1 23.8126 366.777C-0.84772 346.453 -11.8798 319.532 -23.3261 291.066C-35.5579 261.194 -48.2445 230.28 -77.4321 206.225C-106.62 182.171 -138.816 176.229 -169.738 170.447C-199.373 164.923 -227.18 159.747 -251.818 139.62C-276.457 119.493 -287.511 92.3751 -298.957 63.909C-311.189 34.0377 -323.875 3.12296 -353.063 -20.9315C-382.25 -44.986 -414.447 -50.9274 -445.368 -56.7093C-474.998 -62.1844 -502.811 -67.4098 -527.449 -87.5369C-552.087 -107.664 -563.136 -134.732 -574.588 -163.248C-586.819 -193.119 -599.506 -224.034 -628.694 -248.088C-657.881 -272.143 -690.078 -278.084 -720.999 -283.866C-750.629 -289.341 -778.441 -294.567 -803.08 -314.694C-803.348 -314.915 -803.616 -315.138 -803.882 -315.363C-808.21 -319.007 -814.697 -318.984 -818.578 -314.89L-820.362 -313.007C-824.156 -309.005 -824.005 -302.642 -819.803 -299.046C-819.137 -298.476 -818.462 -297.908 -817.782 -297.347Z" fill="#A90F4F"/>
<path d="M-684.23 -314.297C-654.601 -308.822 -626.79 -303.597 -602.152 -283.471C-577.515 -263.345 -566.515 -236.272 -555.021 -207.812C-542.784 -177.893 -530.151 -147.023 -500.965 -122.97C-471.778 -98.9161 -439.577 -92.9259 -408.657 -87.1442C-379.029 -81.6693 -351.218 -76.4441 -326.532 -56.323C-301.847 -36.202 -290.649 -8.65397 -278.905 19.878C-266.668 49.7972 -254.035 80.6669 -224.849 104.72C-195.662 128.774 -163.462 134.764 -132.541 140.546C-102.913 146.021 -75.1071 151.197 -50.4164 171.367C-25.7257 191.537 -14.7786 218.566 -3.28502 247.026C9.0732 276.733 21.7281 307.799 50.9091 331.804C80.0901 355.808 112.296 361.847 143.217 367.629C161.775 371.064 179.676 374.421 196.557 381.458C200.843 383.244 205.847 381.256 207.957 377.134C210.296 372.562 208.409 366.7 203.872 364.265C199.651 361.998 195.654 359.297 191.947 356.198C190.805 355.243 189.496 354.502 188.066 354.092C174.567 350.224 160.875 347.124 147.054 344.806C117.426 339.332 89.62 334.155 64.9771 313.98C40.3341 293.805 29.286 266.737 17.8402 238.272C5.6089 208.402 -7.07741 177.489 -36.2639 153.435C-65.4503 129.382 -97.6458 123.44 -128.566 117.659C-158.2 112.135 -186.006 106.959 -210.643 86.8323C-235.281 66.7061 -246.334 39.5894 -257.78 11.1244C-270.011 -18.7457 -282.698 -49.6592 -311.884 -73.7127C-341.07 -97.7663 -373.266 -103.707 -404.186 -109.489C-433.82 -115.013 -461.626 -120.189 -486.263 -140.315C-510.901 -160.442 -521.949 -187.509 -533.4 -216.023C-545.631 -245.893 -558.27 -276.812 -587.456 -300.866C-616.643 -324.919 -648.838 -330.86 -679.806 -336.637L-683.444 -337.336C-688.901 -338.385 -694.156 -334.791 -695.148 -329.332L-695.663 -326.5C-696.663 -320.999 -692.948 -315.736 -687.423 -314.824L-684.23 -314.297Z" fill="#A90F4F"/>
<path d="M-513.602 -260.321C-501.366 -230.406 -488.735 -199.54 -459.552 -175.489C-430.37 -151.438 -398.173 -145.449 -367.257 -139.668C-337.632 -134.193 -309.776 -128.974 -285.142 -108.85C-260.508 -88.7261 -249.509 -61.6565 -238.017 -33.2C-225.787 -3.33341 -213.15 27.5817 -183.968 51.6324C-154.785 75.6832 -122.588 81.6727 -91.6718 87.4537C-62.0471 92.928 -34.2449 98.1035 -9.55742 118.271C15.1301 138.439 26.0758 165.465 37.5679 193.921C49.7976 223.788 62.4345 254.703 91.6172 278.754C108.38 293.607 128.251 304.201 149.601 309.726C153.669 310.779 164.389 310.139 163.805 305.981C163.324 302.91 162.554 300.885 161.975 298.919C160.696 294.577 158.494 290.107 154.327 288.33C134.538 279.892 121.685 274.053 105.651 260.638C80.9411 240.274 69.9641 213.401 58.5197 184.939C46.29 155.072 33.6053 124.162 4.42261 100.112C-24.7601 76.0609 -56.9514 70.1204 -87.8676 64.3394C-117.498 58.8161 -145.3 53.6405 -169.934 33.5166C-194.568 13.3927 -205.621 -13.7208 -217.065 -42.1825C-229.295 -72.049 -241.979 -102.959 -271.162 -127.01C-300.345 -151.06 -332.536 -157.001 -363.452 -162.782C-393.083 -168.305 -420.885 -173.481 -445.519 -193.605C-470.153 -213.729 -481.2 -240.793 -492.65 -269.304C-503.547 -295.891 -514.778 -323.339 -537.915 -346.066C-541.93 -350.01 -548.398 -349.366 -551.908 -344.988L-553.708 -342.742C-557.084 -338.53 -556.453 -332.419 -552.654 -328.563C-533.605 -309.231 -523.879 -285.343 -513.602 -260.321Z" fill="#A90F4F"/>
<path d="M-472.449 -313.06C-460.213 -283.143 -447.581 -252.276 -418.397 -228.225C-389.214 -204.173 -357.016 -198.184 -326.099 -192.403C-296.473 -186.928 -268.622 -181.758 -243.982 -161.584C-219.341 -141.411 -208.347 -114.389 -196.855 -85.9321C-184.625 -56.0647 -171.987 -25.1487 -142.804 -1.09731C-113.62 22.9541 -81.4223 28.9439 -50.505 34.725C-20.8794 40.1994 6.97146 45.3699 31.612 65.5435C56.2526 85.717 67.2463 112.738 78.7389 141.195C90.969 171.063 103.606 201.979 132.79 226.03C146.209 237.089 159.147 246.586 173.156 252.213C176.265 253.462 179.755 252.344 182.061 249.925C187.138 244.6 185.537 233.448 178.942 230.14C167.859 224.582 157.549 216.966 146.708 208.175C122.051 187.854 111.026 160.985 99.5809 132.523C87.3508 102.655 74.6656 71.7446 45.482 47.6932C16.2984 23.6418 -15.8939 17.7012 -46.8111 11.92C-76.4422 6.39651 -104.245 1.22084 -128.88 -18.9036C-153.516 -39.0281 -164.568 -66.1422 -176.013 -94.6047C-188.243 -124.472 -200.88 -155.388 -230.064 -179.44C-259.247 -203.491 -291.44 -209.432 -322.405 -215.207C-352.036 -220.731 -379.839 -225.907 -404.474 -246.031C-429.109 -266.156 -440.162 -293.27 -451.606 -321.732C-455.152 -330.398 -458.8 -339.27 -462.891 -348.05C-465.258 -353.131 -471.419 -355.06 -476.354 -352.422L-478.642 -351.199C-483.451 -348.628 -485.287 -342.675 -482.989 -337.718C-479.315 -329.793 -475.963 -321.588 -472.449 -313.06Z" fill="#A90F4F"/>
<path d="M-373.24 -283.943C-344.056 -259.892 -311.859 -253.902 -280.942 -248.121C-251.316 -242.646 -223.465 -237.476 -198.824 -217.302C-174.184 -197.129 -163.142 -170.113 -151.698 -141.651C-139.468 -111.783 -126.83 -80.8673 -97.6467 -56.8159C-68.4631 -32.7646 -36.2709 -26.8239 -5.3482 -20.9937C24.2775 -15.5193 51.7575 -8.47051 76.4145 11.8502C101.071 32.171 119.664 52.7532 131.157 81.2104C143.387 111.078 148.976 146.435 178.16 170.487C182.647 174.185 188.238 169.046 185.785 163.777C181.481 154.535 177.753 145.02 174.624 135.287C174.27 134.187 173.734 133.153 173.048 132.222C160.843 115.662 153.081 96.7292 145.02 77.1707C132.79 47.3033 120.153 16.3874 90.9215 -7.65877C61.6902 -31.7049 29.5401 -37.6998 -1.37707 -43.481C-31.0027 -48.9554 -58.8057 -54.131 -83.4462 -74.3045C-108.087 -94.478 -119.128 -121.494 -130.573 -149.956C-142.803 -179.824 -155.44 -210.74 -184.624 -234.791C-213.808 -258.842 -246.005 -264.832 -276.97 -270.608C-306.596 -276.082 -334.399 -281.258 -359.04 -301.432C-378.062 -317.109 -388.931 -336.816 -397.645 -356.422C-399.913 -361.526 -405.848 -363.93 -410.962 -361.706L-413.311 -360.684C-418.331 -358.501 -420.666 -352.675 -418.43 -347.668C-408.895 -326.33 -396.044 -302.737 -373.24 -283.943Z" fill="#A90F4F"/>
<path d="M-890.338 85.3231C-865.632 105.64 -854.653 132.515 -843.202 161.029C-830.971 190.898 -818.285 221.811 -789.1 245.864C-759.914 269.917 -727.72 275.858 -696.8 281.639C-667.173 287.114 -639.362 292.339 -614.726 312.465C-590.089 332.59 -579.041 359.657 -567.59 388.17C-555.359 418.04 -542.673 448.952 -513.487 473.005C-484.302 497.058 -452.107 502.999 -421.188 508.781C-391.56 514.255 -363.75 519.48 -339.113 539.606C-314.476 559.732 -303.429 586.799 -291.983 615.263C-279.135 645.462 -266.444 676.424 -237.396 700.542C-208.348 724.659 -176.016 730.536 -145.096 736.317C-115.469 741.792 -87.6583 747.017 -63.0216 767.143C-38.3848 787.268 -27.337 814.335 -15.8915 842.799C-3.65509 872.718 9.03087 903.631 38.2165 927.683C67.4021 951.736 99.5967 957.677 130.516 963.459C154.471 967.924 177.333 972.198 198.293 984.493C204.274 988.002 213.917 985.606 218.448 980.382C221.624 976.722 220.697 971.305 216.569 968.741C190.785 952.728 160.357 945.534 134.359 940.686C104.731 935.211 76.873 929.991 52.2362 909.866C27.5995 889.74 16.5995 862.668 5.10619 834.209C-7.13024 804.291 -19.7684 773.373 -48.954 749.32C-78.1396 725.267 -110.334 719.326 -141.253 713.544C-170.881 708.07 -198.692 702.845 -223.376 682.724C-248.061 662.604 -259.013 635.526 -270.506 607.067C-282.743 577.149 -295.381 546.231 -324.566 522.178C-353.752 498.125 -385.947 492.184 -416.866 486.403C-446.494 480.928 -474.304 475.703 -498.989 455.583C-523.673 435.462 -534.625 408.385 -546.119 379.926C-558.355 350.007 -570.993 319.09 -600.179 295.037C-629.364 270.984 -661.559 265.043 -692.478 259.261C-722.106 253.787 -749.916 248.561 -774.601 228.441C-799.285 208.32 -810.238 181.243 -821.731 152.784C-833.967 122.866 -846.653 91.9532 -875.839 67.9004C-887.142 58.7419 -899.703 51.3978 -913.087 46.1035C-918.262 44.0561 -923.918 47.0628 -925.525 52.3784L-926.388 55.2336C-927.986 60.522 -924.962 66.0745 -919.821 68.132C-909.259 72.3591 -899.324 78.146 -890.338 85.3231Z" fill="#A90F4F"/>
<path d="M210.763 967.635C212.317 967.544 213.873 967.832 215.277 968.509C224.909 973.154 233.981 978.954 242.301 985.789C248.748 991.101 254.696 997.012 260.072 1003.44C263.536 1007.58 262.634 1013.69 258.372 1016.99L256.374 1018.53C251.907 1021.98 245.488 1021.01 241.772 1016.74C237.7 1012.06 233.26 1007.73 228.494 1003.78C225.264 1001.13 215.966 995.123 205.771 988.853C197.351 983.675 200.907 968.207 210.763 967.635Z" fill="#A90F4F"/>
<path d="M-931.295 1.60665C-901.667 7.08131 -873.856 12.3065 -849.172 32.427C-824.487 52.5476 -813.535 79.6248 -802.036 108.133C-789.805 138.002 -777.119 168.915 -747.933 192.968C-718.748 217.021 -686.553 222.962 -655.634 228.744C-626.006 234.218 -598.195 239.444 -573.559 259.569C-548.922 279.695 -537.874 306.762 -526.428 335.226C-514.192 365.145 -501.506 396.057 -472.32 420.11C-443.135 444.163 -410.94 450.104 -380.02 455.886C-350.393 461.361 -322.582 466.586 -297.945 486.711C-273.309 506.837 -262.261 533.904 -250.815 562.368C-238.579 592.287 -225.893 623.2 -196.707 647.253C-167.521 671.305 -135.327 677.246 -104.407 683.028C-74.7795 688.503 -46.969 693.728 -22.3322 713.854C2.30459 733.979 13.3524 761.046 24.798 789.511C37.0344 819.429 49.7149 850.293 78.9006 874.346C108.086 898.399 140.286 904.389 171.206 910.17C181.885 911.801 192.462 914.066 202.885 916.953C210.135 918.962 217.366 911.564 216.186 904.141C216.154 903.949 216.123 903.758 216.092 903.567C215.414 899.331 212.547 895.642 208.391 894.561C197.332 891.683 186.16 889.298 174.905 887.413C145.278 881.938 117.467 876.713 92.7826 856.592C68.098 836.472 57.1457 809.395 45.6469 780.886C33.4159 751.017 20.7777 720.099 -8.40794 696.046C-37.5937 671.993 -69.7883 666.052 -100.708 660.271C-130.336 654.796 -158.146 649.571 -182.831 629.45C-207.515 609.33 -218.467 582.252 -229.961 553.793C-242.197 523.875 -254.835 492.957 -284.021 468.904C-313.207 444.851 -345.402 438.91 -376.321 433.128C-405.949 427.654 -433.759 422.429 -458.444 402.308C-483.128 382.187 -494.081 355.11 -505.574 326.651C-517.858 296.738 -530.496 265.82 -559.682 241.767C-588.868 217.714 -621.062 211.773 -651.982 205.991C-681.61 200.517 -709.42 195.292 -734.057 175.166C-758.694 155.04 -769.742 127.973 -781.187 99.5089C-793.424 69.5905 -806.11 38.6777 -835.295 14.6248C-864.481 -9.42815 -896.676 -15.3693 -927.595 -21.1508C-929.824 -21.5648 -931.956 -20.0802 -932.337 -17.8494L-934.812 -3.36046C-935.211 -1.02179 -933.636 1.20267 -931.295 1.60665Z" fill="#A90F4F"/>
<path d="M190.65 901.406C191.625 895.915 196.915 892.274 202.372 893.465C225.053 898.412 249.999 906.206 272.724 924.973C295.63 943.89 308.621 967.405 318.215 989.201C320.407 994.181 318.073 999.945 313.096 1002.12L310.656 1003.19C305.54 1005.43 299.591 1003.03 297.349 997.9C288.723 978.181 278.145 958.101 258.72 942.938C239.169 927.677 218.025 921.355 197.609 916.367C192.442 915.105 189.111 910.071 190.04 904.843L190.65 901.406Z" fill="#A90F4F"/>
<path d="M-890.152 -51.0987C-860.524 -45.6239 -832.713 -40.3988 -808.028 -20.2782C-783.344 -0.157592 -772.391 26.9197 -760.898 55.3789C-748.614 85.2921 -735.976 116.21 -706.79 140.263C-677.604 164.316 -645.409 170.257 -614.49 176.039C-584.862 181.513 -557.051 186.738 -532.414 206.864C-507.778 226.99 -496.73 254.057 -485.284 282.521C-473.048 312.44 -460.362 343.353 -431.176 367.406C-401.99 391.459 -369.795 397.4 -338.876 403.181C-309.248 408.656 -281.437 413.881 -256.8 434.007C-232.164 454.133 -221.116 481.2 -209.67 509.664C-197.434 539.582 -184.748 570.495 -155.562 594.548C-126.376 618.601 -94.1813 624.542 -63.2618 630.324C-33.6339 635.798 -5.82339 641.024 18.8135 661.149C43.4504 681.275 54.4982 708.342 65.9438 736.806C78.1803 766.725 90.8609 797.589 120.047 821.642C149.232 845.695 181.433 851.685 212.352 857.466C214.281 857.821 216.209 858.175 218.129 858.535C222.241 859.307 226.373 857.374 228.773 853.959C233.353 847.44 230.596 837.403 222.75 835.922C220.559 835.508 218.374 835.101 216.195 834.693C186.562 829.169 158.757 823.993 134.072 803.873C109.387 783.752 98.435 756.675 86.9362 728.167C74.7051 698.297 62.0669 667.379 32.8812 643.326C3.69537 619.273 -28.4992 613.332 -59.4188 607.551C-89.0466 602.076 -116.857 596.851 -141.542 576.73C-166.227 556.61 -177.179 529.532 -188.672 501.073C-200.957 471.16 -213.595 440.242 -242.78 416.189C-271.966 392.136 -304.161 386.195 -335.081 380.413C-364.708 374.939 -392.519 369.714 -417.204 349.593C-441.888 329.472 -452.841 302.395 -464.334 273.936C-476.57 244.018 -489.257 213.105 -518.442 189.052C-547.628 164.999 -579.823 159.058 -610.742 153.276C-640.37 147.801 -668.181 142.576 -692.818 122.45C-717.455 102.325 -728.502 75.2579 -739.948 46.7935C-752.184 16.8751 -764.871 -14.0378 -794.056 -38.0909C-823.242 -62.1438 -855.437 -68.0848 -886.356 -73.8663C-900.237 -75.9839 -913.946 -79.1669 -927.371 -83.3865C-932.603 -85.0311 -938.268 -82.3858 -940.144 -77.2447L-941.194 -74.3673C-943.096 -69.1524 -940.379 -63.3588 -935.079 -61.6677C-920.382 -56.9786 -905.363 -53.4446 -890.152 -51.0987Z" fill="#A90F4F"/>
<path d="M191.526 840.66C192.875 835.201 198.466 831.953 203.953 833.23C212.159 835.14 220.505 836.7 229.173 838.3C260.236 844.066 292.293 850.072 321.479 874.125C350.665 898.178 363.362 929.189 375.582 958.96C379.08 967.536 382.464 975.779 386.177 983.798C388.466 988.74 386.625 994.666 381.831 997.229L379.4 998.529C374.505 1001.15 368.391 999.271 366.032 994.236C361.925 985.468 358.372 976.58 354.803 967.776C343.107 939.239 332.14 912.461 307.667 892.069C283.194 871.677 255.107 866.582 225.544 861.249C216.462 859.562 207.162 857.843 197.853 855.634C192.579 854.383 189.457 849.028 190.756 843.776L191.526 840.66Z" fill="#A90F4F"/>
<path d="M-941.3 -139.569C-912.115 -115.516 -879.92 -109.575 -849.001 -103.794C-819.374 -98.3189 -791.563 -93.0939 -766.879 -72.9735C-742.195 -52.8532 -731.242 -25.7764 -719.749 2.68246C-707.513 32.6007 -694.875 63.5183 -665.69 87.571C-636.504 111.624 -604.31 117.565 -573.391 123.346C-543.763 128.821 -515.953 134.046 -491.316 154.172C-466.68 174.297 -455.632 201.364 -444.187 229.828C-431.95 259.746 -419.264 290.658 -390.079 314.711C-360.893 338.764 -328.699 344.705 -297.78 350.486C-268.153 355.961 -240.342 361.186 -215.706 381.312C-191.069 401.437 -180.021 428.504 -168.576 456.968C-156.34 486.886 -143.659 517.749 -114.468 541.851C-85.2773 565.953 -53.0886 571.845 -22.1695 577.626C7.45799 583.101 35.2683 588.326 59.9049 608.452C84.5415 628.577 95.5892 655.644 107.035 684.108C119.271 714.026 131.951 744.889 161.137 768.942C167.76 774.34 174.833 779.099 182.264 783.166C189.627 787.195 197.535 779.322 196.239 771.04C196.177 770.694 196.119 770.347 196.066 769.999C195.648 767.266 194.47 764.641 192.276 762.953C186.249 758.316 180.867 755.481 175.331 750.956C150.673 730.634 139.695 703.759 128.196 675.251C115.965 645.382 103.327 614.464 74.1417 590.412C44.9563 566.359 12.7619 560.418 -18.1572 554.636C-47.7902 549.113 -75.595 543.937 -100.279 523.816C-124.964 503.696 -135.916 476.619 -147.415 448.111C-159.693 418.247 -172.331 387.33 -201.517 363.277C-230.702 339.224 -262.897 333.283 -293.816 327.502C-323.443 322.027 -351.253 316.802 -375.89 296.676C-400.527 276.551 -411.574 249.484 -423.02 221.02C-435.256 191.102 -447.942 160.189 -477.127 136.137C-506.313 112.084 -538.507 106.143 -569.426 100.362C-599.054 94.8869 -626.864 89.6618 -651.501 69.5362C-676.137 49.4107 -687.185 22.3441 -698.63 -6.11987C-710.867 -36.038 -723.552 -66.9504 -752.738 -91.0031C-781.923 -115.056 -814.118 -120.997 -845.037 -126.778C-874.664 -132.253 -902.474 -137.478 -927.111 -157.604C-929.815 -159.838 -932.416 -162.198 -934.905 -164.677C-938.896 -168.652 -945.326 -169.185 -949.54 -165.471L-951.635 -163.625C-955.68 -160.061 -956.182 -153.895 -952.448 -149.987C-948.928 -146.303 -945.206 -142.825 -941.3 -139.569Z" fill="#A90F4F"/>
<path d="M186.426 771.494C189.857 767.134 196.173 766.459 200.817 769.523C223.093 784.219 247.669 788.798 273.38 793.608C304.443 799.374 336.499 805.38 365.685 829.432C394.87 853.485 407.567 884.496 419.787 914.267C430.007 939.256 439.744 963.028 458.684 982.122C462.511 985.98 463.163 992.119 459.773 996.347L458.023 998.53C454.506 1002.92 448.021 1003.55 444.012 999.588C421.091 976.924 409.813 949.497 398.742 922.862C387.046 894.326 376.079 867.549 351.606 847.157C327.134 826.765 299 821.675 269.484 816.337C241.777 811.172 213.174 805.857 186.481 787.429C181.966 784.313 181.27 778.048 184.652 773.749L186.426 771.494Z" fill="#A90F4F"/>
<path d="M146.583 489.391C149.619 484.727 155.809 483.576 160.159 487.073C163.358 489.644 166.547 492.284 168.332 493.756C197.518 517.808 210.215 548.819 222.434 578.59C234.082 607.131 245.049 633.908 269.57 654.295C294.09 674.681 322.128 679.782 351.644 685.12C382.658 690.891 414.757 696.842 443.942 720.895C473.128 744.948 485.777 775.963 498.044 805.729C509.692 834.27 520.659 861.048 545.179 881.434C569.7 901.82 597.786 906.916 627.301 912.254C658.321 918.074 690.42 924.026 719.605 948.078C720.628 948.921 721.64 949.781 722.64 950.657C726.714 954.226 726.772 960.429 723.057 964.348L721.085 966.428C717.2 970.527 710.706 970.541 706.347 966.923C706.093 966.712 705.838 966.502 705.582 966.294C680.918 945.923 653.017 940.757 623.508 935.468C592.493 929.697 560.389 923.697 531.203 899.644C502.018 875.592 489.321 844.581 477.102 814.81C465.454 786.269 454.487 759.492 429.972 739.154C405.457 718.817 377.408 713.618 347.898 708.329C316.883 702.558 284.779 696.558 255.594 672.505C226.408 648.452 213.712 617.442 201.492 587.671C189.844 559.13 178.877 532.353 154.362 512.015C153.002 510.894 150.593 508.322 148.096 505.703C144.19 501.606 143.135 494.689 146.214 489.958L146.583 489.391Z" fill="#A90F4F"/>
<path d="M147.487 420.92C148.684 415.6 153.943 412.2 159.206 413.668C178.819 419.135 197.256 428.518 213.44 441.312C242.626 465.365 255.275 496.381 267.495 526.152C279.142 554.693 290.157 581.465 314.63 601.857C339.103 622.249 367.189 627.345 396.704 632.682C427.767 638.448 459.871 644.449 489.056 668.501C518.242 692.554 530.891 723.57 543.11 753.341C554.758 781.882 565.773 808.654 590.24 828.997C614.708 849.339 642.805 854.533 672.315 859.822C703.77 865.645 735.876 872.092 765.039 895.948C780.854 909.481 793.864 926.089 803.327 944.767C805.74 949.53 803.62 955.239 798.835 957.585L796.509 958.725C791.375 961.242 785.195 958.921 782.537 953.846C774.583 938.665 763.903 925.108 751.036 913.913C726.33 893.597 698.43 888.431 668.914 883.093C637.894 877.273 605.795 871.322 576.61 847.269C547.424 823.216 534.775 792.2 522.555 762.43C510.908 733.888 499.893 707.116 475.426 686.773C450.958 666.431 422.861 661.237 393.304 655.953C362.107 649.854 329.955 643.859 300.722 619.812C271.489 595.764 258.888 564.743 246.668 534.972C235.02 506.431 224.005 479.659 199.538 459.316C186.038 448.781 170.75 440.99 154.509 436.328C149.11 434.779 145.581 429.392 146.811 423.923L147.487 420.92Z" fill="#A90F4F"/>
<path d="M140.762 352.453C141.967 347.116 147.249 343.732 152.633 344.756C157.361 345.656 162.259 346.558 166.07 347.315C198.538 352.867 229.074 367.116 254.583 388.618C283.769 412.67 296.417 443.686 308.637 473.456C320.285 501.998 331.299 528.769 355.766 549.112C380.234 569.454 408.33 574.648 437.84 579.937C468.902 585.703 501.006 591.703 530.191 615.756C559.376 639.808 572.025 670.824 584.245 700.594C595.892 729.136 606.907 755.907 631.374 776.25C655.841 796.592 683.938 801.786 713.448 807.075C744.51 812.841 776.566 818.846 805.751 842.899C834.936 866.951 847.633 897.962 859.853 927.732C861.208 931.058 862.561 934.371 863.941 937.674C866.05 942.72 863.837 948.558 858.869 950.825L856.498 951.907C851.418 954.225 845.411 951.928 843.262 946.765C841.849 943.37 840.462 939.965 839.074 936.547C827.379 908.011 816.412 881.234 791.939 860.843C767.467 840.451 739.381 835.356 709.818 830.023C678.798 824.203 646.7 818.251 617.514 794.199C588.329 770.147 575.68 739.131 563.461 709.36C551.813 680.819 540.799 654.047 516.326 633.656C491.853 613.264 463.955 608.546 434.311 602.924C403.249 597.158 371.145 591.157 341.96 567.105C312.775 543.052 300.126 512.037 287.906 482.266C276.259 453.725 265.244 426.953 240.777 406.611C217.844 387.426 190.44 374.742 161.328 369.837C157.477 369.105 152.648 368.194 147.954 367.296C142.419 366.237 138.877 360.802 140.116 355.314L140.762 352.453Z" fill="#A90F4F"/>
<path d="M133.292 289.947C135.771 284.759 142.109 282.774 147.38 285.109C165.007 292.917 183.719 296.341 203.367 300.091C234.402 305.611 266.508 312.058 295.719 335.91C324.93 359.761 337.553 390.978 349.773 420.749C361.421 449.29 372.435 476.062 396.903 496.405C421.37 516.747 449.515 521.936 479.142 527.411C510.205 533.177 542.309 539.177 571.494 563.23C600.679 587.283 613.328 618.298 625.548 648.069C637.196 676.611 648.211 703.383 672.678 723.725C697.145 744.068 725.242 749.262 754.752 754.551C785.815 760.316 817.919 766.317 847.104 790.37C876.289 814.422 888.938 845.438 901.158 875.209C909.055 894.462 916.566 912.835 928.185 929.048C931.333 933.441 930.948 939.564 926.936 943.166L925.055 944.854C920.859 948.621 914.34 948.177 911.011 943.608C897.338 924.842 888.875 904.11 880.809 883.977C869.162 855.436 858.147 828.664 833.674 808.272C809.201 787.88 781.115 782.785 751.552 777.452C720.538 771.681 688.439 765.73 659.254 741.677C630.068 717.624 617.419 686.608 605.199 656.838C593.552 628.296 582.537 601.524 558.064 581.132C533.591 560.741 505.506 555.645 475.99 550.307C444.922 544.492 412.824 538.541 383.638 514.488C354.453 490.436 341.804 459.42 329.584 429.649C317.936 401.108 306.922 374.335 282.454 353.993C257.987 333.65 229.89 328.456 200.38 323.168C179.209 319.202 157.426 315.149 136.415 305.269C131.622 303.015 129.799 297.256 132.077 292.489L133.292 289.947Z" fill="#A90F4F"/>
<path d="M113.382 185.009C118.351 181.776 125.012 183.608 128.513 188.41C137.633 200.924 149.882 209.623 160.809 217.292C189.237 237.155 214.963 241.911 244.543 247.391C275.558 253.162 307.663 259.163 336.848 283.216C366.034 307.268 378.683 338.285 390.903 368.056C402.551 396.597 413.566 423.37 438.033 443.712C462.501 464.055 490.598 469.249 520.156 474.533C551.384 480.479 583.514 486.278 612.77 510.522C642.025 534.766 654.605 565.591 666.825 595.362C678.472 623.904 689.487 650.676 713.955 671.019C738.422 691.362 766.519 696.556 796.03 701.845C827.092 707.611 859.197 713.611 888.383 737.664C917.568 761.717 930.217 792.733 942.437 822.504C954.085 851.046 965.1 877.818 989.567 898.161C1000.64 907.047 1013.08 913.927 1026.33 918.528C1031.58 920.349 1034.84 925.802 1033.43 931.165L1032.66 934.114C1031.27 939.432 1025.83 942.65 1020.6 940.904C1004.32 935.462 989.048 927.099 975.522 916.18C946.336 892.127 933.687 861.111 921.467 831.34C909.819 802.798 898.804 776.026 874.331 755.634C849.858 735.242 821.772 730.147 792.256 724.809C761.194 719.043 729.095 713.091 699.909 689.038C670.723 664.986 658.074 633.969 645.854 604.198C634.207 575.657 623.192 548.884 598.719 528.493C574.246 508.101 546.159 503.005 516.644 497.667C485.575 491.852 453.476 485.901 424.291 461.848C395.105 437.795 382.456 406.779 370.236 377.008C358.588 348.466 347.573 321.694 323.1 301.302C298.627 280.91 270.541 275.814 241.026 270.476C209.963 264.71 177.858 258.71 148.673 234.657C135.422 223.737 120.996 213.69 110.405 197.728C107.564 193.446 109.086 187.805 113.382 185.009Z" fill="#A90F4F"/>
<path d="M103.247 18.1556C106.997 13.8285 113.652 13.5256 117.461 17.8227C136.364 39.1498 146.518 63.9501 156.361 88.034C168.009 116.575 179.024 143.347 203.491 163.69C227.958 184.033 256.055 189.227 285.613 194.51C316.628 200.281 348.732 206.282 377.917 230.334C407.103 254.387 419.752 285.403 431.972 315.174C443.619 343.715 454.634 370.487 479.101 390.83C503.568 411.172 531.665 416.366 561.223 421.65C592.238 427.421 624.342 433.421 653.527 457.474C682.713 481.527 695.362 512.542 707.582 542.313C719.229 570.855 730.244 597.627 754.711 617.969C779.179 638.312 807.276 643.506 836.786 648.794C867.848 654.56 899.952 660.561 929.137 684.613C958.323 708.666 970.972 739.682 983.192 769.453C994.839 797.994 1005.85 824.766 1030.32 845.109C1054.79 865.451 1083.57 871.167 1113.2 876.642C1138.45 881.322 1164.46 886.161 1189.07 900.852C1193.71 903.62 1194.87 909.695 1191.94 914.209L1190.45 916.494C1187.37 921.225 1180.99 922.416 1176.07 919.618C1155.49 907.923 1133.11 903.784 1109.4 899.409C1078.39 893.638 1046.29 887.687 1017.11 863.634C987.921 839.581 975.272 808.565 963.052 778.795C951.404 750.253 940.39 723.481 915.917 703.089C891.444 682.698 863.358 677.602 833.842 672.264C802.78 666.498 770.681 660.547 741.496 636.494C712.311 612.442 699.662 581.426 687.442 551.655C675.794 523.114 664.779 496.342 640.307 475.95C615.834 455.558 587.748 450.462 558.232 445.125C527.17 439.359 495.071 433.407 465.886 409.355C436.701 385.302 424.052 354.286 411.832 324.515C400.184 295.974 389.169 269.202 364.697 248.81C340.224 228.419 312.138 223.323 282.622 217.985C251.554 212.17 219.503 206.213 190.318 182.161C161.133 158.108 148.436 127.098 136.216 97.3267C126.831 74.3331 117.88 52.5037 101.856 34.11C98.3722 30.1115 98.0717 24.1268 101.535 20.1305L103.247 18.1556Z" fill="#A90F4F"/>
<path d="M93.6787 -65.2537C95.3528 -70.4733 100.943 -73.392 106.056 -71.3826C119.51 -66.0954 132.131 -58.7229 143.47 -49.5069C172.656 -25.4542 185.305 5.56156 197.525 35.3324C209.22 63.8686 220.187 90.6458 244.654 110.988C269.122 131.331 297.219 136.525 326.777 141.809C357.791 147.58 389.895 153.58 419.081 177.633C448.266 201.685 460.915 232.701 473.135 262.472C484.782 291.013 495.797 317.786 520.265 338.128C544.732 358.471 572.829 363.665 602.339 368.953C633.401 374.719 665.505 380.72 694.691 404.772C723.876 428.825 736.525 459.841 748.745 489.612C760.393 518.153 771.407 544.925 795.875 565.268C820.342 585.61 848.439 590.804 877.949 596.093C909.011 601.859 941.11 607.81 970.301 631.912C999.492 656.014 1012.14 686.981 1024.36 716.751C1036 745.293 1047.02 772.065 1071.48 792.408C1095.95 812.75 1124.05 817.944 1153.56 823.233C1185.43 829.706 1217.57 835.652 1246.81 859.7C1258.11 869.171 1267.93 880.35 1275.93 892.831C1278.84 897.38 1277.2 903.335 1272.57 906.083L1270.3 907.423C1265.43 910.312 1259.15 908.541 1256.02 903.805C1249.55 894.023 1241.7 885.247 1232.72 877.773C1208.06 857.451 1180.15 852.237 1150.64 846.948C1119.58 841.182 1087.48 835.231 1058.3 811.178C1029.11 787.125 1016.46 756.11 1004.24 726.339C992.595 697.797 981.575 670.976 957.107 650.634C932.64 630.291 904.543 625.097 875.033 619.808C843.971 614.042 811.872 608.091 782.687 584.038C753.501 559.986 740.852 528.97 728.633 499.199C716.985 470.658 705.97 443.886 681.497 423.494C657.025 403.102 628.939 398.006 599.423 392.669C568.361 386.903 536.262 380.951 507.077 356.899C477.891 332.846 465.242 301.83 453.022 272.059C441.375 243.518 430.36 216.746 405.887 196.354C381.414 175.962 353.329 170.867 323.813 165.529C292.751 159.763 260.7 153.806 231.514 129.754C202.329 105.701 189.632 74.6905 177.412 44.9197C165.765 16.3783 154.75 -10.3938 130.277 -30.7855C120.962 -39.2661 110.495 -46.2766 99.2268 -51.6005C94.413 -53.875 91.7659 -59.2898 93.388 -64.3476L93.6787 -65.2537Z" fill="#A90F4F"/>
<path d="M87.7684 -134.7C88.0393 -136.914 90.1209 -138.438 92.3174 -138.03C123.332 -132.259 155.436 -126.259 184.622 -102.206C213.807 -78.1533 226.456 -47.1373 238.676 -17.3665C250.371 11.1697 261.338 37.9468 285.806 58.2895C310.273 78.6321 338.418 83.8208 367.928 89.1095C398.942 94.8806 431.046 100.881 460.232 124.934C489.417 148.986 502.066 180.002 514.286 209.773C525.933 238.315 536.948 265.086 561.416 285.429C585.883 305.772 613.98 310.966 643.538 316.249C674.552 322.02 706.656 328.021 735.842 352.073C765.027 376.126 777.676 407.142 789.896 436.913C801.544 465.454 812.558 492.226 837.026 512.569C861.493 532.911 889.59 538.105 919.1 543.394C950.162 549.16 982.261 555.111 1011.45 579.164C1040.63 603.217 1053.28 634.232 1065.51 664.052C1077.15 692.594 1088.17 719.366 1112.64 739.708C1137.1 760.051 1165.2 765.245 1194.71 770.534C1226.62 777.002 1258.72 782.953 1287.93 807.202C1317.14 831.451 1329.77 862.271 1341.98 892.042C1342.84 893.971 1341.95 896.222 1340.01 897.045L1326.68 902.702C1324.52 903.615 1322.04 902.584 1321.16 900.415C1309.51 871.874 1298.49 845.101 1274.03 824.759C1249.56 804.416 1221.46 799.222 1191.95 793.934C1160.89 788.168 1128.79 782.216 1099.61 758.164C1070.42 734.111 1057.77 703.095 1045.55 673.324C1033.9 644.783 1022.88 617.962 998.417 597.619C973.95 577.277 945.853 572.083 916.343 566.794C885.28 561.028 853.182 555.077 823.996 531.024C794.811 506.971 782.162 475.956 769.942 446.185C758.294 417.643 747.28 390.871 722.807 370.48C698.334 350.088 670.248 344.992 640.733 339.654C609.67 333.888 577.619 327.932 548.434 303.879C519.248 279.826 506.552 248.816 494.332 219.045C482.684 190.504 471.669 163.732 447.197 143.34C422.724 122.948 394.638 117.852 365.122 112.515C334.06 106.749 302.009 100.792 272.824 76.7395C243.638 52.6868 230.942 21.6762 218.722 -8.09462C207.074 -36.636 196.059 -63.4081 171.587 -83.7998C147.114 -104.192 119.028 -109.287 89.5123 -114.625C87.2029 -115.073 85.631 -117.232 85.9162 -119.564L87.7684 -134.7Z" fill="#A90F4F"/>
<path d="M78.4705 -190.966C79.8938 -196.85 86.202 -200.116 92.0577 -198.535C105.349 -194.944 119.758 -193.316 133.449 -190.731C164.464 -184.96 196.568 -178.96 225.754 -154.907C254.939 -130.854 267.588 -99.8385 279.808 -70.0676C291.503 -41.5314 302.47 -14.7542 326.937 5.58849C351.405 25.9311 379.55 31.1198 409.06 36.4086C440.074 42.1796 472.178 48.1802 501.364 72.2329C530.549 96.2856 543.198 127.301 555.418 157.072C567.113 185.608 578.08 212.386 602.548 232.728C627.015 253.071 655.112 258.265 684.67 263.548C715.684 269.32 747.783 275.271 776.974 299.373C806.165 323.475 818.808 354.441 831.028 384.212C842.676 412.754 853.69 439.526 878.158 459.868C902.625 480.211 930.722 485.405 960.28 490.688C991.294 496.46 1023.39 502.411 1052.58 526.464C1081.76 550.516 1094.41 581.532 1106.64 611.352C1118.29 639.893 1129.3 666.666 1153.77 687.008C1178.24 707.351 1206.33 712.545 1235.89 717.828C1266.9 723.599 1299 729.551 1328.19 753.603C1357.37 777.656 1370.02 808.672 1382.24 838.443C1387.55 852.357 1393.9 865.835 1401.22 878.755C1403.87 883.42 1402.58 889.366 1398.13 892.339L1395.97 893.782C1391.24 896.948 1384.79 895.519 1382 890.538C1374.34 876.887 1367.71 862.659 1362.17 847.976C1350.53 819.434 1339.51 792.662 1315.04 772.32C1290.58 751.977 1262.48 746.783 1232.97 741.494C1201.91 735.729 1169.81 729.777 1140.62 705.724C1111.44 681.672 1098.79 650.656 1086.57 620.885C1074.92 592.344 1063.9 565.522 1039.43 545.18C1014.97 524.837 986.869 519.643 957.359 514.355C926.296 508.589 894.198 502.637 865.012 478.585C835.827 454.532 823.178 423.516 810.958 393.745C799.31 365.204 788.29 338.383 763.823 318.04C739.355 297.697 711.258 292.503 681.748 287.215C650.686 281.449 618.635 275.492 589.45 251.439C560.264 227.387 547.568 196.376 535.348 166.605C523.7 138.064 512.685 111.292 488.213 90.9C463.74 70.5083 435.654 65.4126 406.138 60.0747C375.076 54.3088 343.025 48.3523 313.84 24.2996C284.654 0.246891 271.958 -30.7638 259.738 -60.5347C248.09 -89.076 237.123 -115.853 212.602 -136.24C188.082 -156.626 160.044 -161.727 130.528 -167.065C114.957 -169.502 99.5914 -173.192 84.5725 -178.097C79.709 -179.685 76.9748 -184.783 78.1752 -189.745L78.4705 -190.966Z" fill="#A90F4F"/>
<path d="M67.9099 -280.237C71.577 -283.645 77.2103 -283.806 81.0846 -280.613L84.9678 -277.413C109.68 -257.047 145.281 -248.743 174.813 -243.258C205.71 -237.673 237.719 -231.663 267.096 -207.63C296.472 -183.599 308.93 -152.562 321.198 -122.796C332.846 -94.2546 343.813 -67.4772 368.328 -47.1397C392.843 -26.8021 420.94 -21.6082 450.45 -16.3195C481.465 -10.5484 513.569 -4.54793 542.755 19.5048C571.94 43.5575 584.589 74.5735 596.809 104.344C608.505 132.881 619.472 159.658 643.939 180.001C668.407 200.344 696.551 205.532 726.062 210.821C757.076 216.592 789.175 222.544 818.361 246.596C847.546 270.649 860.195 301.665 872.421 331.485C884.116 360.021 895.083 386.799 919.551 407.141C944.018 427.484 972.115 432.678 1001.67 437.961C1032.69 443.733 1064.79 449.684 1093.97 473.737C1123.16 497.789 1135.81 528.805 1148.03 558.625C1159.68 587.167 1170.69 613.939 1195.16 634.282C1219.63 654.624 1247.73 659.818 1277.28 665.102C1308.3 670.873 1340.4 676.824 1369.58 700.877C1398.77 724.93 1411.42 755.946 1423.64 785.717C1435.29 814.258 1446.31 841.079 1470.77 861.422C1473.69 863.822 1476.71 866.064 1479.85 868.141C1484.24 871.056 1486.17 876.692 1483.96 881.47L1482.63 884.368C1480.2 889.63 1473.8 891.747 1468.94 888.55C1465.01 885.954 1461.2 883.15 1457.53 880.149C1428.35 856.096 1415.7 825.08 1403.47 795.26C1391.82 766.719 1380.81 739.947 1356.34 719.604C1331.87 699.261 1303.78 694.067 1274.27 688.778C1243 682.935 1210.89 676.886 1181.71 652.833C1152.52 628.78 1139.87 597.764 1127.65 567.944C1116 539.403 1104.99 512.63 1080.52 492.288C1056.05 471.945 1027.95 466.751 998.443 461.462C967.381 455.696 935.33 449.74 906.144 425.687C876.959 401.634 864.262 370.624 852.042 340.853C840.394 312.311 829.374 285.49 804.906 265.147C780.439 244.805 752.342 239.611 722.832 234.322C691.769 228.556 659.718 222.599 630.533 198.547C601.347 174.494 588.65 143.483 576.43 113.712C564.783 85.1708 553.763 58.3496 529.295 38.0068C504.828 17.6642 476.736 12.5194 447.221 7.18153C416.158 1.41557 384.107 -4.541 354.921 -28.5938C325.736 -52.6465 313.039 -83.6573 300.819 -113.428C289.172 -141.97 278.204 -168.747 253.684 -189.134C229.163 -209.52 201.125 -214.621 171.609 -219.959C140.594 -225.73 106.247 -230.593 77.0893 -254.4C72.9469 -257.208 68.9597 -260.246 65.1453 -263.5C60.8218 -267.189 60.9432 -273.762 65.0943 -277.62L67.9099 -280.237Z" fill="#A90F4F"/>
<path d="M68.6885 -417.567C73.8144 -420.241 80.1399 -418.012 82.3676 -412.666C83.7154 -409.431 85.0474 -406.183 86.3911 -402.935C98.0385 -374.394 109.006 -347.617 133.521 -327.279C158.036 -306.942 186.133 -301.748 215.643 -296.459C246.657 -290.688 278.762 -284.688 307.947 -260.635C337.132 -236.583 349.781 -205.567 362.049 -175.801C373.696 -147.26 384.663 -120.482 409.179 -100.145C433.694 -79.8075 461.791 -74.6136 491.301 -69.3248C522.315 -63.5538 554.414 -57.6024 583.599 -33.5497C612.785 -9.49709 625.434 21.5187 637.659 51.3387C649.354 79.8748 660.321 106.652 684.789 126.995C709.256 147.337 737.891 153.019 767.502 158.347C798.517 164.118 830.615 170.069 859.801 194.122C888.986 218.174 901.635 249.19 913.86 279.01C925.556 307.546 936.523 334.324 960.99 354.666C985.457 375.009 1013.55 380.203 1043.11 385.486C1074.13 391.257 1106.23 397.209 1135.41 421.261C1164.6 445.314 1177.25 476.33 1189.47 506.15C1201.12 534.691 1212.13 561.463 1236.6 581.806C1261.07 602.149 1289.16 607.342 1318.72 612.626C1349.74 618.397 1381.84 624.348 1411.02 648.401C1440.21 672.454 1452.86 703.47 1465.08 733.24C1476.72 761.782 1487.74 788.603 1512.21 808.946C1536.68 829.288 1564.77 834.482 1594.28 839.771C1597.94 840.44 1601.6 841.109 1605.25 841.81C1610.53 842.823 1613.98 847.902 1613.07 853.196L1612.44 856.853C1611.48 862.445 1606.06 866.108 1600.47 865.036C1597.28 864.422 1594.09 863.831 1590.91 863.238C1559.84 857.472 1527.74 851.521 1498.56 827.468C1469.37 803.416 1456.73 772.4 1444.5 742.58C1432.85 714.039 1421.84 687.266 1397.37 666.924C1372.9 646.581 1344.81 641.387 1315.3 636.099C1284.4 630.116 1252.11 624.185 1223.02 600.122C1193.93 576.059 1181.19 545.053 1168.96 515.234C1157.32 486.692 1146.3 459.92 1121.83 439.577C1097.37 419.235 1069.27 414.041 1039.76 408.752C1008.7 402.986 976.646 397.03 947.461 372.977C918.275 348.924 905.579 317.914 893.353 288.094C881.706 259.552 870.691 232.78 846.224 212.438C821.756 192.095 793.659 186.901 764.149 181.613C733.087 175.847 701.036 169.89 671.851 145.837C642.665 121.785 629.969 90.7741 617.749 61.0033C606.101 32.4619 595.129 5.63557 570.613 -14.7019C546.098 -35.0393 518.049 -40.2384 488.539 -45.5272C457.525 -51.2982 425.426 -57.2496 396.241 -81.3023C367.055 -105.355 354.358 -136.365 342.138 -166.136C330.491 -194.678 319.524 -221.455 295.003 -241.842C270.483 -262.228 242.445 -267.329 212.929 -272.667C181.914 -278.438 149.816 -284.389 120.63 -308.442C91.4451 -332.494 78.7484 -363.505 66.5284 -393.276C65.1145 -396.746 63.7007 -400.216 62.2577 -403.667C60.2233 -408.533 62.1865 -414.175 66.8542 -416.61L68.6885 -417.567Z" fill="#A90F4F"/>
<path d="M129.156 -423.764C134.327 -426.619 140.821 -424.364 143.592 -419.134C151.531 -404.151 162.137 -390.77 174.885 -379.709C199.544 -359.387 227.449 -354.172 256.959 -348.884C287.974 -343.112 320.078 -337.112 349.264 -313.059C378.449 -289.007 391.146 -257.996 403.366 -228.225C415.013 -199.684 425.98 -172.907 450.495 -152.569C475.01 -132.232 503.107 -127.038 532.617 -121.749C563.632 -115.978 595.731 -110.027 624.916 -85.9741C654.101 -61.9215 666.75 -30.9056 679.023 -1.09083C690.671 27.4506 701.638 54.2277 726.153 74.5652C750.668 94.9026 778.765 100.096 808.275 105.385C839.29 111.156 871.388 117.108 900.574 141.16C929.759 165.213 942.408 196.229 954.634 226.049C966.329 254.585 977.296 281.362 1001.76 301.705C1026.23 322.047 1054.38 327.236 1083.89 332.525C1114.9 338.296 1147 344.247 1176.18 368.3C1205.37 392.353 1218.02 423.369 1230.24 453.139C1241.93 481.676 1252.91 508.502 1277.37 528.844C1301.84 549.187 1329.94 554.381 1359.5 559.665C1390.51 565.436 1422.61 571.387 1451.79 595.44C1480.98 619.492 1493.63 650.508 1505.85 680.279C1517.5 708.82 1528.52 735.641 1552.98 755.984C1566.65 766.954 1582.23 775.06 1598.83 779.877C1604.2 781.433 1607.71 786.777 1606.51 792.221L1605.89 795.052C1604.72 800.384 1599.47 803.811 1594.19 802.36C1574.57 796.961 1556.12 787.637 1539.91 774.892C1510.7 750.643 1498.07 719.823 1485.83 689.856C1474.18 661.314 1463.17 634.542 1438.7 614.2C1414.23 593.857 1386.14 588.663 1356.63 583.375C1325.57 577.609 1293.51 571.652 1264.33 547.599C1235.14 523.547 1222.45 492.536 1210.22 462.716C1198.57 434.175 1187.56 407.403 1163.09 387.06C1138.62 366.718 1110.53 361.524 1081.02 356.235C1049.95 350.469 1017.9 344.512 988.719 320.46C959.533 296.407 946.836 265.396 934.611 235.577C922.964 207.035 911.997 180.258 887.481 159.921C862.966 139.583 834.917 134.384 805.407 129.095C774.393 123.324 742.294 117.373 713.109 93.3201C683.923 69.2674 671.226 38.2568 659.007 8.48603C647.359 -20.0554 636.386 -46.8817 611.871 -67.2191C587.356 -87.5565 559.307 -92.7556 529.797 -98.0444C498.783 -103.815 466.684 -109.767 437.499 -133.82C408.313 -157.872 395.616 -188.883 383.396 -218.654C371.749 -247.195 360.776 -274.021 336.261 -294.359C311.746 -314.696 283.703 -319.846 254.187 -325.184C223.172 -330.955 191.074 -336.906 161.888 -360.959C145.954 -374.606 132.868 -391.373 123.388 -410.233C121.074 -414.835 122.974 -420.351 127.475 -422.836L129.156 -423.764Z" fill="#A90F4F"/>
<path d="M200.589 -431.968C204.357 -436.399 211.043 -436.589 215.554 -432.89C215.692 -432.777 215.831 -432.664 215.97 -432.551C240.628 -412.229 268.534 -407.014 298.044 -401.726C329.059 -395.955 361.157 -390.003 390.343 -365.951C419.528 -341.898 432.225 -310.887 444.45 -281.067C456.098 -252.526 467.065 -225.749 491.58 -205.411C516.095 -185.074 544.144 -179.875 573.654 -174.586C604.669 -168.815 636.767 -162.863 665.953 -138.811C695.138 -114.758 707.787 -83.7423 720.06 -53.9276C731.708 -25.3862 742.675 1.39109 767.19 21.7285C791.705 42.066 819.802 47.2599 849.312 52.5486C880.326 58.3197 912.425 64.2711 941.61 88.3237C970.796 112.376 983.445 143.392 995.67 173.212C1007.37 201.748 1018.33 228.526 1042.8 248.868C1067.27 269.211 1095.41 274.4 1124.92 279.688C1155.94 285.459 1188.04 291.411 1217.22 315.463C1246.41 339.516 1259.05 370.532 1271.27 400.303C1282.97 428.839 1293.94 455.665 1318.41 476.008C1342.88 496.351 1371.83 502.247 1401.45 507.721C1432.4 513.35 1464.52 519.449 1493.7 543.502C1522.89 567.554 1535.54 598.57 1547.76 628.341C1559.41 656.882 1570.42 683.654 1594.89 704.046C1595.29 704.36 1595.68 704.67 1596.08 704.978C1600.43 708.36 1601.82 714.481 1598.87 719.118L1597.35 721.514C1594.34 726.253 1587.98 727.599 1583.59 724.068C1582.75 723.387 1581.91 722.695 1581.08 721.99C1551.85 697.943 1539.2 666.927 1526.98 637.156C1515.33 608.615 1504.32 581.843 1479.85 561.5C1455.38 541.157 1427.29 535.964 1397.78 530.675C1366.71 524.909 1334.66 518.952 1305.48 494.9C1276.29 470.847 1263.6 439.836 1251.37 410.016C1239.72 381.475 1228.71 354.703 1204.24 334.36C1179.77 314.018 1151.68 308.824 1122.17 303.535C1091.1 297.769 1059.05 291.813 1029.87 267.76C1000.68 243.707 987.985 212.697 975.76 182.877C964.112 154.335 953.145 127.558 928.63 107.221C904.115 86.8832 876.066 81.6841 846.556 76.3954C815.541 70.6243 783.443 64.6729 754.257 40.6203C725.072 16.5676 712.375 -14.443 700.15 -44.2629C688.502 -72.8043 677.535 -99.5815 653.02 -119.919C628.505 -140.256 600.456 -145.456 570.946 -150.744C539.931 -156.515 507.832 -162.467 478.647 -186.519C449.462 -210.572 436.765 -241.583 424.545 -271.353C412.898 -299.895 401.925 -326.721 377.41 -347.059C352.895 -367.396 324.798 -372.59 295.288 -377.879C264.273 -383.65 232.175 -389.601 202.989 -413.654C201.836 -414.604 200.696 -415.578 199.571 -416.57C195.666 -420.016 195.454 -425.93 198.818 -429.885L200.589 -431.968Z" fill="#A90F4F"/>
<path d="M325.687 -434.491C326.426 -440.187 331.809 -444.075 337.459 -442.995L340.639 -442.387C371.701 -436.621 403.752 -430.665 432.937 -406.612C462.123 -382.56 474.82 -351.549 487.045 -321.729C498.692 -293.188 509.66 -266.41 534.175 -246.073C558.69 -225.736 586.739 -220.536 616.249 -215.248C647.263 -209.477 679.362 -203.525 708.547 -179.473C737.733 -155.42 750.43 -124.409 762.655 -94.5894C774.302 -66.048 785.27 -39.2708 809.785 -18.9334C834.3 1.40407 862.397 6.59803 891.907 11.8867C922.921 17.6579 955.02 23.6091 984.205 47.6617C1013.39 71.7144 1026.04 102.73 1038.26 132.501C1049.95 161.037 1060.93 187.864 1085.39 208.206C1109.86 228.549 1138.01 233.738 1167.52 239.026C1198.53 244.797 1230.63 250.749 1259.82 274.801C1289 298.854 1301.65 329.87 1313.87 359.641C1325.56 388.177 1336.54 415.003 1361 435.346C1385.47 455.689 1413.61 460.828 1443.13 466.166C1475.04 472.634 1507.04 478.596 1536.42 502.628C1565.8 526.66 1578.05 557.619 1590.31 587.684C1590.83 588.924 1591.36 590.181 1591.89 591.448C1594 596.501 1591.68 602.322 1586.67 604.513L1584.33 605.535C1579.21 607.776 1573.24 605.37 1571.11 600.191C1570.58 598.898 1570.04 597.602 1569.5 596.303C1557.86 567.762 1546.84 540.99 1522.38 520.647C1497.91 500.304 1469.81 495.11 1440.3 489.822C1409.24 484.056 1377.19 478.099 1348 454.047C1318.82 429.994 1306.12 398.983 1293.89 369.163C1282.25 340.622 1271.28 313.845 1246.77 293.507C1222.25 273.17 1194.2 267.971 1164.69 262.682C1133.68 256.911 1101.58 250.96 1072.39 226.907C1043.21 202.854 1030.51 171.844 1018.28 142.024C1006.64 113.482 995.67 86.7051 971.155 66.3677C946.64 46.0303 918.591 40.8312 889.081 35.5424C858.066 29.7713 825.968 23.8199 796.782 -0.232711C767.597 -24.2854 754.9 -55.2961 742.675 -85.116C731.027 -113.657 720.06 -140.435 695.545 -160.772C671.03 -181.109 642.981 -186.308 613.471 -191.597C582.456 -197.368 550.358 -203.32 521.172 -227.372C491.987 -251.425 479.338 -282.441 467.07 -312.206C455.423 -340.748 444.45 -367.574 419.935 -387.912C395.42 -408.249 367.323 -413.443 337.813 -418.732L333.281 -419.59C328.063 -420.579 324.514 -425.467 325.198 -430.726L325.687 -434.491Z" fill="#A90F4F"/>
<path d="M467.981 -461.369C471.419 -466.004 478.099 -466.781 482.201 -462.699C504.926 -440.089 516.122 -412.774 527.191 -386.253C538.838 -357.711 549.806 -330.934 574.321 -310.597C598.836 -290.259 626.885 -285.06 656.395 -279.771C687.41 -274 719.508 -268.049 748.694 -243.996C777.879 -219.943 790.576 -188.933 802.796 -159.162C814.443 -130.62 825.416 -103.794 849.931 -83.4566C874.446 -63.1192 902.495 -57.9201 932.005 -52.6314C963.02 -46.8603 995.118 -40.9089 1024.3 -16.8563C1053.49 7.19644 1066.14 38.2123 1078.41 67.978C1090.05 96.5194 1101.03 123.346 1125.54 143.683C1150.06 164.021 1178.15 169.214 1207.66 174.503C1238.68 180.274 1270.78 186.226 1299.96 210.278C1329.15 234.331 1341.8 265.347 1354.02 295.118C1365.71 323.654 1376.68 350.431 1401.15 370.823C1425.62 391.215 1453.76 396.305 1483.27 401.643C1511.03 406.818 1539.69 412.142 1566.42 430.651C1570.87 433.734 1571.62 439.896 1568.35 444.2L1566.6 446.512C1563.21 450.982 1556.82 451.733 1552.11 448.666C1530.23 434.441 1505.85 429.905 1479.99 425.1C1448.93 419.334 1416.87 413.329 1387.69 389.276C1358.5 365.223 1345.8 334.213 1333.58 304.442C1321.94 275.9 1310.97 249.123 1286.45 228.786C1261.94 208.448 1233.89 203.249 1204.38 197.96C1173.37 192.189 1141.27 186.238 1112.08 162.185C1082.9 138.132 1070.2 107.122 1057.97 77.3018C1046.33 48.7605 1035.36 21.9832 1010.84 1.64578C986.329 -18.6917 958.28 -23.8908 928.77 -29.1795C897.755 -34.9506 865.656 -40.902 836.471 -64.9547C807.286 -89.0073 794.589 -120.018 782.364 -149.838C770.716 -178.379 759.749 -205.157 735.234 -225.494C710.719 -245.831 682.622 -251.025 653.112 -256.314C622.097 -262.085 589.999 -268.037 560.813 -292.089C531.628 -316.142 518.979 -347.158 506.706 -376.973C496.44 -402.073 486.662 -425.946 467.554 -445.084C463.817 -448.826 463.074 -454.752 466.216 -458.988L467.981 -461.369Z" fill="#A90F4F"/>
</g>
</svg>
