<svg width="647" height="443" viewBox="0 0 647 443" fill="none" xmlns="http://www.w3.org/2000/svg">
<mask id="mask0" mask-type="alpha" maskUnits="userSpaceOnUse" x="-436" y="0" width="1083" height="1083">
<circle cx="105.24" cy="541.24" r="490" transform="rotate(-83.6433 105.24 541.24)" fill="#C4C4C4"/>
</mask>
<g mask="url(#mask0)">
<path d="M624.794 -833.163C628.251 -828.545 627.086 -821.925 622.01 -819.15C596.988 -805.472 570.547 -801.026 544.795 -796.733C514.294 -791.604 485.675 -786.799 460.402 -767.456C435.129 -748.114 423.889 -721.879 412.252 -694.338C399.813 -665.44 386.961 -635.527 357.023 -612.408C327.084 -589.289 293.947 -583.775 262.073 -578.412C231.572 -573.283 202.953 -568.477 177.679 -549.135C152.406 -529.792 141.166 -503.558 129.529 -476.017C117.091 -447.119 104.239 -417.205 74.3003 -394.086C44.3618 -370.968 11.2241 -365.454 -20.6498 -360.09C-51.1508 -354.962 -79.7701 -350.156 -105.043 -330.814C-130.317 -311.471 -141.557 -285.236 -153.193 -257.696C-165.632 -228.797 -178.484 -198.884 -208.422 -175.765C-238.361 -152.646 -271.498 -147.132 -303.372 -141.769C-333.873 -136.64 -362.493 -131.835 -387.766 -112.492C-413.039 -93.1496 -424.274 -66.9624 -435.916 -39.3741C-446.07 -15.7697 -456.553 8.58712 -476.479 29.3764C-480.092 33.1462 -486.032 33.0797 -489.829 29.5174L-492.03 27.4531C-496.284 23.4636 -496.181 16.7063 -492.253 12.3743C-476.504 -4.99389 -467.585 -25.6849 -458.247 -47.4197C-445.803 -76.3657 -432.951 -106.279 -403.013 -129.398C-373.074 -152.517 -339.937 -158.03 -308.063 -163.394C-277.567 -168.475 -248.942 -173.328 -223.669 -192.671C-198.396 -212.013 -187.161 -238.2 -175.525 -265.741C-163.081 -294.687 -150.234 -324.553 -120.296 -347.672C-90.357 -370.79 -57.214 -376.352 -25.3401 -381.715C5.15548 -386.796 33.7801 -391.65 59.0534 -410.992C84.3268 -430.335 95.5614 -456.522 107.198 -484.063C119.642 -513.009 132.489 -542.874 162.427 -565.993C192.366 -589.112 225.509 -594.673 257.333 -600.042C287.829 -605.123 316.497 -609.923 341.776 -629.314C367.055 -648.704 378.284 -674.843 389.921 -702.384C402.359 -731.282 415.211 -761.196 445.15 -784.314C475.088 -807.433 508.231 -812.995 540.056 -818.363C564.658 -822.464 588.022 -826.398 609.564 -837.993C614.2 -840.488 620.057 -839.491 623.203 -835.288L624.794 -833.163Z" fill="#A90F4F"/>
<path d="M1037.12 -779.614C1005.2 -774.256 972.157 -768.731 942.217 -745.611C912.277 -722.491 899.414 -692.481 886.986 -663.677C875.141 -636.061 863.938 -610.159 838.834 -590.556C813.729 -570.952 784.819 -566.227 754.436 -561.277C722.463 -555.924 689.422 -550.4 659.482 -527.28C629.542 -504.16 616.679 -474.15 604.251 -445.345C592.406 -417.73 581.203 -391.827 556.099 -372.224C530.994 -352.621 502.084 -347.895 471.702 -342.946C439.722 -337.545 406.682 -332.02 376.742 -308.9C346.802 -285.781 333.939 -255.771 321.511 -226.966C309.666 -199.351 298.463 -173.448 273.359 -153.845C248.254 -134.242 219.344 -129.516 188.961 -124.567C156.988 -119.214 123.991 -113.636 94.0511 -90.5161C64.1112 -67.3961 51.1986 -37.3918 38.7705 -8.58727C26.9254 19.0282 15.7226 44.9311 -9.37626 64.4866C-34.4751 84.0421 -63.3966 88.863 -93.7734 93.7649C-125.747 99.1178 -158.744 104.695 -188.684 127.815C-189.561 128.493 -190.422 129.172 -191.266 129.857C-193.23 131.449 -193.375 134.341 -191.782 136.295C-190.674 137.654 -188.9 138.308 -187.173 137.985C-180.358 136.714 -173.394 136.303 -166.454 136.766C-166.084 136.807 -165.715 136.847 -165.346 136.888C-163.218 137.122 -161.075 136.654 -159.191 135.631C-137.704 123.964 -114.166 119.992 -89.8371 115.886C-57.9071 110.48 -24.8666 104.955 5.07325 81.8353C35.0131 58.7154 47.8765 28.7056 60.3046 -0.0989186C72.1989 -27.709 83.3524 -53.6172 108.457 -73.2203C133.561 -92.8233 162.472 -97.5491 192.903 -102.493C224.828 -107.851 257.874 -113.424 287.813 -136.544C317.753 -159.664 330.617 -189.673 343.045 -218.478C354.89 -246.093 366.093 -271.996 391.191 -291.552C416.29 -311.107 445.212 -315.928 475.638 -320.825C507.562 -326.183 540.608 -331.755 570.548 -354.875C600.488 -377.995 613.351 -408.005 625.779 -436.809C637.624 -464.425 648.827 -490.328 673.926 -509.883C699.025 -529.439 727.947 -534.26 758.323 -539.162C790.297 -544.514 823.343 -550.087 853.283 -573.207C883.223 -596.327 896.086 -626.336 908.514 -655.141C920.359 -682.756 931.562 -708.659 956.661 -728.215C981.76 -747.77 1010.68 -752.591 1041.06 -757.493C1044.71 -758.096 1048.37 -758.712 1052.02 -759.355C1057.55 -760.327 1061.11 -765.711 1059.94 -771.189L1059.42 -773.637C1058.29 -778.959 1053.1 -782.386 1047.73 -781.444C1044.21 -780.827 1040.67 -780.227 1037.12 -779.614Z" fill="#A90F4F"/>
<path d="M984.897 -694.024C954.959 -670.906 942.097 -640.899 929.67 -612.097C917.826 -584.484 906.624 -558.584 881.522 -538.983C856.421 -519.381 827.513 -514.656 797.133 -509.707C765.162 -504.355 732.124 -498.83 702.187 -475.713C672.25 -452.595 659.388 -422.588 646.961 -393.786C635.117 -366.173 623.915 -340.273 598.813 -320.671C573.711 -301.07 544.803 -296.345 514.424 -291.396C482.447 -285.996 449.459 -280.466 419.522 -257.348C389.585 -234.23 376.673 -204.229 364.246 -175.427C352.402 -147.814 341.2 -121.914 316.098 -102.312C290.996 -82.7112 262.088 -77.9859 231.709 -73.0369C199.738 -67.6845 166.744 -62.1071 136.807 -38.9893C106.87 -15.8715 93.9584 14.1299 81.5314 42.9317C69.6874 70.5447 58.4856 96.4452 33.389 115.999C24.9203 122.564 17.6273 128.76 9.73521 133.691C6.10738 135.957 7.06533 144.102 10.6453 146.423C10.8235 146.539 11.0776 146.686 11.2711 146.774C12.193 147.193 13.103 147.636 14.0003 148.101C16.9468 149.629 20.4365 149.991 23.4391 148.559C32.104 144.424 40.2907 139.407 47.8596 133.589C77.7968 110.472 90.659 80.4646 103.086 51.6628C114.979 24.0553 126.132 -1.85062 151.228 -21.4043C176.325 -40.958 205.293 -45.773 235.667 -50.6745C267.589 -56.0323 300.632 -61.604 330.569 -84.7218C360.506 -107.84 373.368 -137.847 385.795 -166.648C397.689 -194.256 408.841 -220.162 433.938 -239.716C459.034 -259.269 487.953 -264.09 518.377 -268.986C550.298 -274.344 583.341 -279.915 613.278 -303.033C643.216 -326.151 656.078 -356.158 668.505 -384.96C680.349 -412.573 691.55 -438.473 716.647 -458.027C741.744 -477.581 770.663 -482.401 801.086 -487.297C833.008 -492.655 866.051 -498.227 895.988 -521.344C925.925 -544.462 938.787 -574.469 951.214 -603.271C963.058 -630.884 974.26 -656.784 999.356 -676.338C1013.17 -686.468 1028.84 -693.931 1045.51 -698.36C1051.06 -699.834 1054.69 -705.367 1053.35 -710.937L1052.77 -713.348C1051.53 -718.514 1046.44 -721.826 1041.28 -720.539C1020.85 -715.452 1001.67 -706.446 984.897 -694.024Z" fill="#A90F4F"/>
<path d="M1027.58 -642.538C997.644 -619.421 984.782 -589.415 972.356 -560.614C960.512 -533.002 949.311 -507.102 924.209 -487.501C899.108 -467.9 870.201 -463.175 839.822 -458.226C807.852 -452.874 774.865 -447.345 744.929 -424.227C714.992 -401.11 702.081 -371.11 689.655 -342.309C677.811 -314.697 666.61 -288.797 641.509 -269.196C616.407 -249.595 587.5 -244.87 557.122 -239.921C525.152 -234.569 492.164 -229.04 462.228 -205.922C432.292 -182.805 419.381 -152.805 406.954 -124.004C395.11 -96.3916 383.909 -70.4918 358.808 -50.891C333.707 -31.2904 304.799 -26.5652 274.421 -21.6163C242.445 -16.2165 209.458 -10.687 179.522 12.4301C152.472 32.8137 131.531 59.7949 118.834 90.6215C106.991 118.234 101.962 134.065 79.7716 164.106C79.3748 164.661 78.9688 165.21 78.5538 165.751C74.5119 171.026 76.8889 180.809 82.5969 184.181C85.4095 185.842 89.8867 187.171 92.191 184.844C120.713 155.259 130.947 129.975 143.385 101.079C155.228 73.467 167.951 49.9994 193.243 30.4679C218.536 10.9365 247.306 6.09989 277.68 1.19859C309.6 -4.15906 342.642 -9.73069 372.579 -32.8478C402.515 -55.965 415.377 -85.9711 427.803 -114.772C439.696 -142.379 450.848 -168.284 475.944 -187.837C501.04 -207.39 530.007 -212.205 560.38 -217.106C592.301 -222.464 625.343 -228.036 655.279 -251.153C685.215 -274.27 698.077 -304.276 710.504 -333.077C722.348 -360.689 733.549 -386.589 758.645 -406.142C783.741 -425.695 812.659 -430.516 843.081 -435.412C875.002 -440.769 908.044 -446.341 937.98 -469.458C967.916 -492.575 980.778 -522.581 993.205 -551.382C1005.05 -578.994 1016.25 -604.894 1041.35 -624.447C1041.6 -624.647 1041.86 -624.845 1042.13 -625.042C1046.66 -628.471 1048.06 -634.841 1044.89 -639.535L1043.44 -641.67C1040.37 -646.216 1034.16 -647.454 1029.74 -644.173C1029.02 -643.637 1028.3 -643.091 1027.58 -642.538Z" fill="#A90F4F"/>
<path d="M1015.09 -509.137C1003.24 -481.524 992.04 -455.623 966.943 -436.069C941.846 -416.515 912.932 -411.743 882.553 -406.793C850.581 -401.441 817.593 -395.911 787.655 -372.793C757.718 -349.675 744.806 -319.674 732.379 -290.871C720.535 -263.258 709.333 -237.358 684.231 -217.756C659.129 -198.155 629.706 -193.293 599.201 -188.117C567.23 -182.765 534.241 -177.235 504.304 -154.117C474.366 -130.999 461.455 -100.997 449.028 -72.195C437.183 -44.5818 426.031 -18.6758 400.879 0.92025C375.728 20.5163 346.869 25.247 316.489 30.1961C284.699 35.713 251.513 41.221 221.625 64.3444C191.737 87.4678 178.776 117.464 166.349 146.266C158.936 163.536 151.741 180.184 141.183 195.044C138.479 198.85 139.331 204.207 142.919 207.176C146.868 210.444 152.978 209.882 156.352 206.005C159.498 202.389 163.022 199.088 166.874 196.157C168.06 195.253 169.076 194.138 169.793 192.831C176.532 180.554 182.561 167.921 187.854 154.992C199.698 127.379 210.851 101.473 235.997 81.9243C261.143 62.3759 290.062 57.5554 320.437 52.654C352.359 47.2961 385.402 41.7241 415.339 18.6062C445.277 -4.51183 458.139 -34.5191 470.566 -63.3212C482.46 -90.9289 493.612 -116.835 518.709 -136.389C543.806 -155.943 572.774 -160.758 603.149 -165.659C635.071 -171.017 668.114 -176.589 698.051 -199.707C727.989 -222.825 740.851 -252.832 753.278 -281.634C765.172 -309.242 776.324 -335.148 801.421 -354.702C826.518 -374.256 855.437 -379.076 885.861 -383.972C917.783 -389.33 950.821 -394.854 980.758 -417.972C1010.7 -441.09 1023.56 -471.098 1035.99 -499.947L1037.44 -503.271C1039.68 -508.376 1037.31 -514.309 1032.19 -516.468L1029.48 -517.61C1024.34 -519.774 1018.41 -517.309 1016.3 -512.133L1015.09 -509.137Z" fill="#A90F4F"/>
<path d="M925.065 -355.184C893.09 -349.831 860.097 -344.301 830.156 -321.18C800.215 -298.059 787.302 -268.053 774.873 -239.247C763.028 -211.63 751.819 -185.679 726.719 -166.122C701.62 -146.566 672.702 -141.793 642.319 -136.843C610.393 -131.484 577.352 -125.959 547.411 -102.838C517.47 -79.7173 504.557 -49.7116 492.128 -20.9058C480.282 6.71097 469.128 32.6203 443.974 52.2189C418.82 71.8174 389.957 76.5488 359.574 81.4985C327.648 86.857 294.606 92.3821 264.665 115.503C246.454 128.553 231.732 145.559 221.648 165.11C219.725 168.839 218.022 179.419 222.201 179.758C225.344 179.965 227.508 179.651 229.578 179.52C234.079 179.236 238.9 178.078 241.547 174.422C254.149 157.01 262.681 145.783 279.335 133.118C304.686 113.541 333.406 108.746 363.784 103.844C395.71 98.485 428.757 92.9123 458.698 69.7913C488.639 46.6704 501.503 16.6592 513.932 -12.1466C525.826 -39.7579 536.98 -65.6672 562.08 -85.2236C587.18 -104.78 616.152 -109.596 646.53 -114.498C678.455 -119.856 711.503 -125.429 741.444 -148.55C771.385 -171.671 784.248 -201.682 796.677 -230.488C808.572 -258.099 819.726 -284.009 844.825 -303.565C869.925 -323.121 898.848 -327.942 929.275 -332.839C957.679 -337.616 986.998 -342.529 1014.31 -360.033C1019.07 -363.084 1019.86 -369.572 1016.32 -373.964L1014.52 -376.207C1011.15 -380.392 1005.08 -381.109 1000.5 -378.271C977.386 -363.943 951.842 -359.709 925.065 -355.184Z" fill="#A90F4F"/>
<path d="M967.749 -303.724C935.775 -298.371 902.783 -292.841 872.843 -269.72C842.903 -246.6 829.99 -216.595 817.562 -187.791C805.716 -160.175 794.557 -134.219 769.409 -114.668C744.26 -95.1179 715.393 -90.3391 685.011 -85.3895C653.086 -80.0311 620.045 -74.5063 590.105 -51.3861C560.165 -28.2658 547.252 1.73894 534.824 30.5438C522.978 58.1597 511.819 84.1158 486.671 103.666C461.522 123.216 432.655 127.995 402.273 132.945C370.348 138.303 337.307 143.828 307.367 166.948C293.618 177.565 281.501 188.056 272.926 200.428C271.002 203.204 271.337 206.89 273.215 209.687C277.317 215.799 288.526 216.669 293.214 210.968C301.088 201.392 310.812 193.022 321.806 184.393C347.102 164.858 375.827 160.016 406.204 155.114C438.129 149.755 471.175 144.183 501.115 121.063C531.055 97.9425 543.919 67.9325 556.347 39.1276C568.242 11.5171 579.395 -14.3915 604.494 -33.9472C629.594 -53.503 658.565 -58.3185 688.942 -63.2205C720.867 -68.5788 753.908 -74.1037 783.848 -97.2239C813.788 -120.344 826.651 -150.354 839.085 -179.207C850.98 -206.817 862.133 -232.726 887.232 -252.282C912.331 -271.837 941.303 -276.653 971.68 -281.555C980.936 -283.106 990.416 -284.711 999.904 -286.766C1005.4 -287.957 1008.64 -293.568 1007.13 -298.973L1006.45 -301.422C1004.98 -306.657 999.597 -309.739 994.273 -308.594C985.686 -306.748 976.894 -305.28 967.749 -303.724Z" fill="#A90F4F"/>
<path d="M917.6 -213.676C887.66 -190.556 874.747 -160.551 862.319 -131.746C850.473 -104.131 839.314 -78.1743 814.166 -58.6239C789.018 -39.0736 760.145 -34.2472 729.768 -29.3452C697.843 -23.9869 664.802 -18.462 634.862 4.65828C604.922 27.7785 592.058 57.7886 579.581 86.5881C567.736 114.204 554.818 139.388 529.522 158.923C504.226 178.457 480.001 192.036 449.618 196.985C417.693 202.344 381.846 200.041 351.905 223.161C347.309 226.711 351.074 233.288 356.746 232.059C366.763 229.888 376.922 228.34 387.163 227.425C388.309 227.323 389.43 227.03 390.485 226.569C409.375 218.319 429.619 214.913 450.54 211.353C482.465 205.995 515.506 200.47 545.451 177.302C575.397 154.134 588.304 124.177 600.733 95.3719C612.578 67.756 623.731 41.8475 648.88 22.2972C674.028 2.74684 702.901 -2.07957 733.278 -6.98155C765.203 -12.3399 798.244 -17.8648 828.184 -40.985C858.124 -64.1053 871.037 -94.1101 883.471 -122.963C895.316 -150.579 906.469 -176.487 931.618 -196.037C951.131 -211.106 972.805 -217.364 993.91 -221.548C999.403 -222.637 1003.06 -227.92 1001.99 -233.408L1001.52 -235.865C1000.48 -241.225 995.321 -244.767 989.959 -243.694C966.96 -239.092 941.017 -231.759 917.6 -213.676Z" fill="#A90F4F"/>
<path d="M667.87 -796.844C642.57 -777.264 613.852 -772.469 583.427 -767.573C551.505 -762.215 518.46 -756.643 488.522 -733.524C458.584 -710.406 445.721 -680.397 433.294 -651.595C421.449 -623.981 410.247 -598.079 385.149 -578.525C360.052 -558.971 331.132 -554.15 300.707 -549.254C268.784 -543.896 235.74 -538.324 205.802 -515.205C175.864 -492.086 163.001 -462.078 150.573 -433.275C138.729 -405.661 127.527 -379.76 102.429 -360.206C77.3318 -340.651 48.4118 -335.831 18.0364 -330.929C-14.345 -325.043 -47.4385 -319.476 -77.4099 -296.506C-107.381 -273.536 -120.211 -243.379 -132.638 -214.576C-144.483 -186.963 -155.685 -161.061 -180.783 -141.507C-205.88 -121.952 -234.8 -117.132 -265.175 -112.23C-297.148 -106.878 -330.192 -101.305 -360.13 -78.1869C-390.068 -55.0682 -402.931 -25.0601 -415.359 3.74276C-424.961 26.0351 -434.139 47.3091 -450.729 64.9889C-455.485 70.0574 -455.265 80.043 -451.131 85.6063C-448.258 89.4738 -442.802 89.7472 -439.404 86.3122C-418.059 64.7367 -404.345 36.7 -393.902 12.4632C-382.057 -15.1508 -370.85 -41.0997 -345.752 -60.6541C-320.655 -80.2085 -291.74 -84.9815 -261.359 -89.9307C-229.387 -95.2833 -196.348 -100.808 -166.41 -123.926C-136.472 -147.045 -123.609 -177.053 -111.181 -205.856C-99.3371 -233.47 -88.1348 -259.371 -63.0319 -278.973C-37.929 -298.575 -9.0198 -303.301 21.3609 -308.25C53.3331 -313.603 86.3719 -319.127 116.31 -342.246C146.248 -365.364 159.111 -395.372 171.539 -424.175C183.383 -451.789 194.585 -477.691 219.688 -497.293C244.791 -516.895 273.7 -521.62 304.081 -526.569C336.053 -531.922 369.092 -537.446 399.03 -560.565C428.969 -583.683 441.831 -613.692 454.259 -642.495C466.103 -670.108 477.305 -696.01 502.408 -715.612C527.511 -735.214 556.42 -739.939 586.801 -744.888C618.773 -750.241 651.817 -755.813 681.756 -778.932C693.178 -787.905 703.104 -798.494 711.21 -810.327C714.366 -814.934 712.664 -821.137 707.805 -823.866L705.158 -825.352C700.358 -828.049 694.303 -826.319 691.17 -821.776C684.717 -812.421 676.871 -804.018 667.87 -796.844Z" fill="#A90F4F"/>
<path d="M-437.005 80.842C-437.259 82.3887 -437.887 83.8536 -438.866 85.0806C-445.518 93.4247 -453.179 100.972 -461.686 107.564C-468.318 112.685 -475.428 117.187 -482.922 121.015C-487.711 123.461 -493.448 121.255 -495.733 116.403L-496.792 114.153C-499.207 109.026 -496.842 102.944 -491.835 100.255C-486.378 97.3243 -481.176 93.962 -476.283 90.1997C-472.967 87.6307 -465.012 79.8621 -456.613 71.2879C-449.694 64.2247 -435.402 71.0976 -437.005 80.842Z" fill="#A90F4F"/>
<path d="M758.887 -818.404C747.043 -790.79 735.84 -764.888 710.737 -745.287C685.635 -725.685 656.726 -720.959 626.296 -716.015C594.373 -710.657 561.329 -705.085 531.39 -681.967C501.452 -658.848 488.59 -628.84 476.162 -600.037C464.318 -572.423 453.116 -546.522 428.018 -526.968C402.921 -507.414 374.001 -502.593 343.626 -497.691C311.653 -492.339 278.609 -486.767 248.671 -463.648C218.733 -440.529 205.87 -410.521 193.443 -381.719C181.598 -354.105 170.396 -328.204 145.299 -308.649C120.201 -289.095 91.2814 -284.274 60.9061 -279.373C28.934 -274.02 -4.11016 -268.448 -34.0484 -245.329C-63.9866 -222.211 -76.8492 -192.203 -89.2767 -163.4C-101.121 -135.786 -112.323 -109.885 -137.421 -90.3306C-162.518 -70.7762 -191.438 -65.9556 -221.813 -61.054C-253.785 -55.7014 -286.78 -50.1239 -316.718 -27.0053C-346.657 -3.88677 -359.569 26.1158 -371.996 54.9187C-375.917 64.9144 -380.433 74.6739 -385.521 84.149C-389.089 90.7938 -383.456 99.5032 -375.936 99.98C-375.727 99.9912 -375.518 100.003 -375.309 100.017C-371.038 100.286 -366.82 98.3032 -364.852 94.4985C-359.613 84.3729 -354.832 74.0291 -350.523 63.4962C-338.679 35.8824 -327.477 9.98109 -302.374 -9.62083C-277.271 -29.2228 -248.362 -33.9482 -217.932 -38.892C-186.009 -44.25 -152.97 -49.7744 -123.032 -72.893C-93.0938 -96.0116 -80.2311 -126.02 -67.8037 -154.822C-55.9593 -182.436 -44.7571 -208.338 -19.6543 -227.94C5.44859 -247.541 34.3577 -252.267 64.7383 -257.216C96.7104 -262.569 129.749 -268.093 159.687 -291.212C189.626 -314.33 202.488 -344.338 214.916 -373.141C226.76 -400.755 237.962 -426.656 263.065 -446.258C288.168 -465.86 317.077 -470.585 347.458 -475.535C379.435 -480.935 412.474 -486.459 442.412 -509.578C472.35 -532.697 485.213 -562.704 497.64 -591.507C509.485 -619.121 520.687 -645.022 545.784 -664.577C570.882 -684.131 599.802 -688.952 630.177 -693.853C662.149 -699.206 695.193 -704.778 725.131 -727.897C755.07 -751.015 767.932 -781.023 780.36 -809.826C781.252 -811.9 780.273 -814.298 778.186 -815.151L764.498 -820.746C762.305 -821.642 759.796 -820.595 758.887 -818.404Z" fill="#A90F4F"/>
<path d="M-367.678 75.7422C-362.517 77.8913 -360.114 83.8679 -362.487 88.9403C-372.291 109.898 -385.38 132.426 -408.706 150.401C-432.263 168.554 -458.155 176.039 -481.613 180.598C-486.94 181.633 -492.037 178.106 -493.079 172.79L-493.579 170.238C-494.656 164.744 -491 159.448 -485.493 158.389C-464.3 154.315 -442.327 148.422 -423.232 132.852C-404.007 117.176 -393.189 97.9936 -383.836 79.2267C-381.471 74.4798 -375.848 72.3397 -370.961 74.3751L-367.678 75.7422Z" fill="#A90F4F"/>
<path d="M801.557 -766.921C789.713 -739.308 778.511 -713.406 753.408 -693.804C728.305 -674.202 699.396 -669.477 669.016 -664.528C637.038 -659.128 604 -653.603 574.061 -630.485C544.123 -607.366 531.261 -577.358 518.833 -548.555C506.989 -520.942 495.787 -495.04 470.689 -475.486C445.592 -455.932 416.672 -451.111 386.297 -446.21C354.325 -440.857 321.281 -435.285 291.343 -412.166C261.405 -389.048 248.542 -359.04 236.115 -330.237C224.27 -302.623 213.068 -276.722 187.971 -257.168C162.873 -237.613 133.953 -232.793 103.578 -227.891C71.6063 -222.539 38.5622 -216.967 8.62414 -193.848C-21.314 -170.729 -34.1767 -140.721 -46.6041 -111.919C-58.4484 -84.3048 -69.6506 -58.4037 -94.748 -38.8494C-119.845 -19.2951 -148.765 -14.4744 -179.14 -9.57283C-211.112 -4.22028 -244.107 1.35724 -274.045 24.4758C-303.983 47.5943 -316.895 77.5969 -329.323 106.4C-330.081 108.173 -330.84 109.946 -331.602 111.71C-333.274 115.58 -332.278 120.075 -329.441 123.181C-324.066 129.064 -313.685 128.563 -310.507 121.235C-309.622 119.192 -308.743 117.153 -307.866 115.12C-295.972 87.5118 -284.819 61.605 -259.717 42.0031C-234.614 22.4012 -205.705 17.6757 -175.275 12.732C-143.352 7.37396 -110.314 1.84953 -80.3755 -21.269C-50.4373 -44.3876 -37.5747 -74.3954 -25.1473 -103.198C-13.3029 -130.812 -2.10074 -156.713 23.002 -176.315C48.1048 -195.917 77.0139 -200.643 107.394 -205.592C139.372 -210.992 172.41 -216.516 202.349 -239.635C232.287 -262.753 245.149 -292.761 257.577 -321.564C269.421 -349.178 280.623 -375.079 305.726 -394.681C330.829 -414.283 359.738 -419.008 390.118 -423.958C422.09 -429.31 455.135 -434.882 485.073 -458.001C515.011 -481.119 527.873 -511.127 540.301 -539.93C552.145 -567.544 563.347 -593.445 588.445 -612.999C613.542 -632.554 642.462 -637.374 672.837 -642.276C704.809 -647.629 737.853 -653.201 767.791 -676.319C797.729 -699.438 810.592 -729.446 823.019 -758.249C828.121 -771.26 834.226 -783.875 841.28 -795.987C844.05 -800.744 842.703 -806.878 838.071 -809.832L835.448 -811.505C830.786 -814.479 824.566 -813.102 821.754 -808.326C813.94 -795.052 807.187 -781.21 801.557 -766.921Z" fill="#A90F4F"/>
<path d="M-308.327 89.8158C-303.275 92.3237 -301.322 98.5141 -303.785 103.599C-307.439 111.142 -310.784 118.895 -314.238 126.952C-326.682 155.897 -339.577 185.757 -369.516 208.876C-399.454 231.994 -432.596 237.555 -464.421 242.924C-473.606 244.453 -482.441 245.944 -491.127 247.807C-496.435 248.946 -501.793 245.866 -503.252 240.647L-503.98 238.046C-505.479 232.684 -502.3 227.107 -496.85 225.914C-487.373 223.841 -477.9 222.332 -468.504 220.788C-438.004 215.659 -409.385 210.854 -384.063 191.517C-358.741 172.18 -347.605 145.982 -335.913 118.4C-332.272 109.932 -328.551 101.258 -324.347 92.683C-321.969 87.8319 -316.083 85.9654 -311.253 88.3632L-308.327 89.8158Z" fill="#A90F4F"/>
<path d="M899.476 -797.381C869.537 -774.262 856.674 -744.254 844.247 -715.451C832.402 -687.837 821.2 -661.935 796.097 -642.333C770.994 -622.731 742.085 -618.005 711.704 -613.056C679.731 -607.703 646.692 -602.179 616.754 -579.06C586.815 -555.941 573.953 -525.933 561.525 -497.13C549.681 -469.516 538.478 -443.614 513.381 -424.06C488.283 -404.505 459.363 -399.684 428.987 -394.783C397.015 -389.43 363.97 -383.858 334.032 -360.739C304.094 -337.62 291.231 -307.612 278.803 -278.809C266.959 -251.195 255.756 -225.293 230.659 -205.739C205.561 -186.184 176.641 -181.364 146.265 -176.462C114.293 -171.109 81.2979 -165.532 51.3101 -142.418C21.3224 -119.305 8.50889 -89.2915 -3.91864 -60.4884C-15.7631 -32.8743 -26.9655 -6.97263 -52.0632 12.5819C-77.1608 32.1364 -106.081 36.9571 -136.457 41.8587C-168.429 47.2114 -201.424 52.7889 -231.362 75.9077C-238.07 81.1454 -244.254 86.9564 -249.844 93.263C-255.426 99.5603 -249.485 109.033 -241.099 109.585C-240.734 109.601 -240.369 109.621 -240.005 109.647C-237.26 109.839 -234.454 109.271 -232.33 107.515C-226.462 102.663 -222.506 98.0451 -216.858 93.6473C-191.563 74.1145 -162.846 69.3197 -132.416 64.3759C-100.492 59.0179 -67.4534 53.4933 -37.5149 30.3745C-7.57644 7.25574 5.28638 -22.7525 17.7139 -51.5556C29.6076 -79.1643 40.7607 -105.071 65.8638 -124.673C90.9668 -144.276 119.876 -149.001 150.306 -153.945C182.235 -159.351 215.274 -164.875 245.212 -187.994C275.151 -211.113 288.014 -241.121 300.441 -269.924C312.286 -297.538 323.488 -323.44 348.586 -342.994C373.683 -362.549 402.603 -367.369 432.979 -372.271C464.951 -377.624 497.996 -383.196 527.934 -406.315C557.873 -429.433 570.736 -459.442 583.163 -488.245C595.008 -515.859 606.21 -541.76 631.308 -561.315C656.405 -580.869 685.325 -585.69 715.701 -590.592C747.673 -595.944 780.718 -601.517 810.656 -624.635C840.595 -647.754 853.457 -677.763 865.885 -706.566C877.729 -734.18 888.932 -760.081 914.029 -779.636C916.795 -781.766 919.66 -783.769 922.616 -785.639C927.397 -788.663 929.334 -794.854 926.605 -799.791L925.268 -802.211C922.672 -806.908 916.798 -808.738 912.177 -805.979C907.778 -803.352 903.537 -800.481 899.476 -797.381Z" fill="#A90F4F"/>
<path d="M-239.437 99.8918C-235.903 104.201 -236.631 110.549 -240.665 114.417C-259.897 132.856 -269.751 155.734 -280.079 179.665C-292.522 208.611 -305.418 238.471 -335.357 261.59C-365.295 284.708 -398.438 290.27 -430.263 295.639C-456.991 300.113 -482.42 304.383 -505.276 318.654C-509.864 321.518 -515.96 320.815 -519.342 316.614L-521.095 314.436C-524.637 310.036 -523.833 303.532 -519.053 300.491C-491.861 283.188 -462.557 278.226 -434.074 273.291C-403.573 268.162 -374.953 263.357 -349.631 244.02C-324.308 224.683 -313.167 198.437 -301.481 170.902C-290.352 145.071 -278.881 118.399 -254.964 96.4655C-250.94 92.7752 -244.71 93.4628 -241.258 97.6722L-239.437 99.8918Z" fill="#A90F4F"/>
<path d="M44.8885 121.434C48.8062 125.423 48.5727 131.748 44.1762 135.228C40.9749 137.762 37.7182 140.265 35.8965 141.672C5.95798 164.791 -27.1851 170.352 -59.0098 175.721C-89.5055 180.803 -118.125 185.608 -143.453 204.993C-168.781 224.378 -179.911 250.528 -191.597 278.064C-204.036 306.962 -216.888 336.875 -246.826 359.994C-276.765 383.113 -309.903 388.627 -341.733 394.043C-372.228 399.124 -400.848 403.93 -426.176 423.315C-451.504 442.699 -462.64 468.897 -474.326 496.433C-486.813 525.326 -499.665 555.239 -529.604 578.358C-530.671 579.182 -531.754 579.991 -532.85 580.785C-537.215 583.948 -543.246 582.655 -546.257 578.203L-547.855 575.842C-551.034 571.142 -549.619 564.767 -545.105 561.303C-544.859 561.114 -544.615 560.925 -544.371 560.734C-519.027 541.206 -507.863 515.204 -496.226 487.663C-483.788 458.765 -470.886 428.857 -440.948 405.738C-411.009 382.619 -377.866 377.058 -346.042 371.689C-315.546 366.608 -286.927 361.802 -261.648 342.412C-236.369 323.022 -225.14 296.882 -213.503 269.342C-201.065 240.443 -188.164 210.536 -158.225 187.417C-128.286 164.298 -95.1433 158.736 -63.3186 153.367C-32.8229 148.286 -4.20365 143.481 21.075 124.091C22.4801 123.006 25.5573 121.209 28.6898 119.34C33.5293 116.454 40.4663 116.932 44.4038 120.94L44.8885 121.434Z" fill="#A90F4F"/>
<path d="M111.847 137.248C116.796 139.577 118.969 145.473 116.365 150.294C106.722 168.148 93.5107 184.004 77.4582 196.93C47.5197 220.049 14.382 225.563 -17.4426 230.931C-47.9382 236.013 -76.5628 240.866 -101.885 260.203C-127.208 279.54 -138.344 305.738 -150.03 333.273C-162.474 362.219 -175.375 392.127 -205.313 415.246C-235.252 438.365 -268.389 443.878 -300.214 449.247C-330.71 454.328 -359.334 459.182 -384.608 478.524C-409.881 497.867 -421.115 524.054 -432.752 551.594C-445.337 580.91 -458.677 610.722 -488.418 633.862C-505.147 646.293 -524.278 655.316 -544.66 660.428C-549.825 661.724 -554.914 658.419 -556.163 653.253L-556.757 650.795C-558.105 645.222 -554.477 639.681 -548.925 638.205C-532.325 633.791 -516.718 626.374 -502.944 616.313C-477.644 596.733 -466.48 570.73 -454.794 543.195C-442.307 514.302 -429.454 484.389 -399.516 461.27C-369.577 438.151 -336.44 432.638 -304.615 427.269C-274.12 422.188 -245.495 417.334 -220.222 397.992C-194.948 378.649 -183.714 352.462 -172.072 324.874C-159.273 295.871 -146.366 265.915 -116.422 242.749C-86.478 219.582 -53.3458 214.116 -21.5212 208.748C8.97439 203.666 37.599 198.813 62.8723 179.471C76.1464 168.644 87.1235 155.477 95.2431 140.697C97.9399 135.788 103.947 133.53 109.005 135.911L111.847 137.248Z" fill="#A90F4F"/>
<path d="M180.443 145.629C185.406 147.969 187.561 153.884 185.367 158.924C183.46 163.306 181.516 167.847 179.948 171.37C167.406 201.731 146.771 228.309 120.134 248.412C90.195 271.531 57.0571 277.044 25.2321 282.413C-5.26363 287.495 -33.8884 292.348 -59.1619 311.69C-84.4354 331.033 -95.6701 357.22 -107.307 384.761C-119.751 413.707 -132.652 443.615 -162.591 466.734C-192.53 489.853 -225.667 495.367 -257.492 500.736C-287.988 505.817 -316.613 510.67 -341.887 530.013C-367.16 549.356 -378.395 575.543 -390.031 603.084C-402.475 632.03 -415.371 661.89 -445.31 685.009C-475.249 708.128 -508.392 713.69 -540.217 719.059C-543.792 719.652 -547.354 720.247 -550.912 720.871C-556.284 721.812 -561.478 718.387 -562.611 713.061L-563.14 710.57C-564.305 705.094 -560.737 699.717 -555.212 698.757C-551.582 698.127 -547.948 697.524 -544.301 696.922C-513.8 691.793 -485.18 686.988 -459.858 667.65C-434.535 648.313 -423.399 622.115 -411.707 594.532C-399.22 565.639 -386.367 535.726 -356.429 512.607C-326.49 489.488 -293.352 483.974 -261.527 478.605C-231.031 473.524 -202.406 468.67 -177.084 449.333C-151.761 429.996 -141.035 403.897 -129.043 376.299C-116.599 347.353 -103.697 317.445 -73.7587 294.326C-43.8199 271.207 -10.6821 265.693 21.1428 260.324C51.6386 255.243 80.2635 250.39 105.537 231.047C129.341 212.943 147.758 189.069 158.932 161.831C160.493 158.242 162.445 153.741 164.353 149.368C166.601 144.217 172.658 141.958 177.733 144.351L180.443 145.629Z" fill="#A90F4F"/>
<path d="M243.319 151.961C247.868 155.516 248.42 162.17 244.964 166.813C233.488 182.231 226.049 199.656 218.089 217.918C205.892 246.891 192.553 276.702 162.806 299.89C133.059 323.078 99.7294 328.523 67.9048 333.892C37.4092 338.973 8.78447 343.826 -16.4888 363.169C-41.7621 382.511 -53.0021 408.746 -64.8466 436.36C-77.2903 465.306 -90.1916 495.214 -120.13 518.333C-150.069 541.451 -183.206 546.965 -215.031 552.334C-245.527 557.415 -274.151 562.269 -299.425 581.611C-324.698 600.953 -335.932 627.141 -347.569 654.681C-360.013 683.627 -372.914 713.535 -402.853 736.654C-432.791 759.773 -465.929 765.286 -497.754 770.655C-518.36 774.126 -538.018 777.413 -556.455 785.186C-561.413 787.276 -567.272 785.57 -569.911 780.897L-571.141 778.719C-573.925 773.788 -572.055 767.492 -566.839 765.25C-545.486 756.074 -523.349 752.383 -501.886 748.947C-471.39 743.866 -442.766 739.013 -417.443 719.676C-392.121 700.339 -380.985 674.141 -369.293 646.558C-356.855 617.66 -344.003 587.746 -314.064 564.628C-284.126 541.509 -250.988 535.995 -219.163 530.626C-188.668 525.545 -160.043 520.692 -134.721 501.355C-109.398 482.018 -98.2619 455.82 -86.5759 428.284C-74.083 399.344 -61.2309 369.431 -31.2924 346.312C-1.35377 323.193 31.7838 317.679 63.6085 312.31C94.1041 307.229 122.729 302.376 148.002 283.033C173.275 263.691 184.51 237.504 196.147 209.963C204.668 190.229 213.41 169.919 227.699 151.639C230.947 147.485 236.933 146.97 241.077 150.208L243.319 151.961Z" fill="#A90F4F"/>
<path d="M350.552 155.465C352.636 161.02 349.387 167.131 343.924 169.482C329.677 175.613 318.48 185.62 308.58 194.567C282.91 217.866 272.623 241.844 260.784 269.41C248.346 298.308 235.445 328.216 205.507 351.334C175.568 374.453 142.431 379.967 110.607 385.335C80.1112 390.417 51.4869 395.27 26.2138 414.612C0.940686 433.954 -10.2938 460.141 -21.9358 487.73C-34.5925 516.796 -47.3021 546.773 -77.4428 569.918C-107.583 593.062 -140.518 598.55 -172.343 603.919C-202.838 609 -231.462 613.853 -256.736 633.196C-282.009 652.538 -293.243 678.725 -304.88 706.265C-317.323 735.211 -330.225 765.118 -360.163 788.237C-390.101 811.356 -423.238 816.869 -455.063 822.238C-485.558 827.319 -514.183 832.173 -539.456 851.515C-550.587 860.347 -560.049 870.942 -567.455 882.83C-570.383 887.53 -576.393 889.507 -581.31 886.984L-584.073 885.565C-588.979 883.047 -590.934 877.006 -588.064 872.284C-579.176 857.661 -567.659 844.663 -554.025 833.913C-524.087 810.794 -490.95 805.281 -459.125 799.912C-428.63 794.83 -400.006 789.977 -374.683 770.64C-349.361 751.304 -338.225 725.106 -326.539 697.571C-314.095 668.625 -301.243 638.712 -271.305 615.593C-241.367 592.475 -208.23 586.961 -176.405 581.592C-145.91 576.511 -117.285 571.658 -91.9632 552.321C-66.6408 532.984 -55.5048 506.786 -43.819 479.251C-31.3261 450.311 -18.4742 420.398 11.4641 397.279C41.4024 374.161 74.5398 368.647 106.364 363.278C136.86 358.197 165.484 353.344 190.806 334.007C216.128 314.67 227.264 288.472 238.95 260.937C251.394 231.992 264.295 202.084 294.233 178.965C307.847 168.453 320.859 156.603 338.849 149.801C343.626 147.995 348.762 150.695 350.552 155.465Z" fill="#A90F4F"/>
<path d="M516.324 181.941C519.756 186.557 518.588 193.153 513.529 195.924C488.525 209.618 462.039 214.062 436.321 218.361C405.825 223.442 377.2 228.295 351.927 247.638C326.654 266.98 315.419 293.167 303.777 320.756C291.339 349.654 278.438 379.562 248.499 402.681C218.56 425.8 185.423 431.313 153.598 436.682C123.103 441.763 94.4779 446.617 69.2047 465.959C43.9314 485.301 32.6968 511.489 21.0547 539.077C8.61642 567.975 -4.28492 597.883 -34.2234 621.002C-64.162 644.121 -97.2996 649.634 -129.124 655.003C-159.62 660.085 -188.244 664.938 -213.518 684.28C-238.791 703.623 -250.026 729.81 -261.662 757.351C-274.106 786.297 -287.007 816.204 -316.946 839.323C-346.884 862.442 -380.022 867.956 -411.847 873.325C-442.342 878.406 -470.967 883.259 -496.24 902.601C-521.513 921.944 -533.409 948.685 -545.253 976.299C-555.369 999.846 -565.807 1024.1 -585.604 1044.83C-589.316 1048.71 -595.464 1048.52 -599.22 1044.7L-601.138 1042.74C-605.112 1038.7 -604.877 1032.18 -601.042 1027.98C-585.12 1010.54 -576.178 989.698 -566.716 967.626C-554.278 938.728 -541.425 908.815 -511.487 885.696C-481.548 862.577 -448.411 857.063 -416.586 851.695C-386.091 846.613 -357.466 841.76 -332.143 822.423C-306.821 803.086 -295.685 776.888 -283.999 749.353C-271.555 720.407 -258.703 690.494 -228.765 667.375C-198.826 644.256 -165.688 638.742 -133.864 633.373C-103.368 628.292 -74.7436 623.439 -49.4211 604.102C-24.0985 584.765 -12.9625 558.567 -1.27644 531.031C11.1672 502.085 24.0193 472.172 53.9578 449.054C83.8963 425.935 117.034 420.421 148.859 415.052C179.354 409.971 207.979 405.118 233.301 385.781C258.624 366.444 269.76 340.246 281.446 312.71C293.939 283.77 306.786 253.904 336.724 230.785C366.663 207.667 399.806 202.105 431.63 196.736C456.223 192.637 479.578 188.705 501.112 177.121C505.76 174.621 511.631 175.631 514.771 179.854L516.324 181.941Z" fill="#A90F4F"/>
<path d="M600.212 190.85C604.962 193.624 606.593 199.743 603.488 204.299C595.374 216.202 585.406 226.843 573.919 235.839C543.98 258.958 510.843 264.472 479.018 269.841C448.517 274.969 419.898 279.775 394.625 299.117C369.351 318.46 358.117 344.647 346.475 372.236C334.036 401.134 321.135 431.042 291.196 454.16C261.258 477.279 228.12 482.793 196.296 488.162C165.8 493.243 137.175 498.096 111.902 517.439C86.6289 536.781 75.3943 562.968 63.7575 590.509C51.3139 619.455 38.4126 649.363 8.47402 672.482C-21.4645 695.6 -54.6021 701.114 -86.4268 706.483C-116.922 711.564 -145.547 716.417 -170.82 735.76C-196.094 755.102 -207.328 781.29 -218.965 808.83C-231.409 837.776 -244.261 867.689 -274.248 890.803C-304.236 913.916 -337.325 919.435 -369.149 924.804C-399.645 929.886 -428.269 934.739 -453.543 954.081C-478.816 973.424 -490.051 999.611 -501.687 1027.15C-515 1056.72 -527.857 1086.69 -557.801 1109.85C-569.568 1118.79 -582.685 1125.9 -596.681 1130.95C-601.744 1132.77 -607.174 1129.88 -608.847 1124.78L-609.65 1122.33C-611.421 1116.93 -608.307 1111.16 -602.978 1109.15C-591.992 1105 -581.69 1099.29 -572.415 1092.2C-547.12 1072.66 -535.907 1046.67 -524.27 1019.13C-511.827 990.181 -498.974 960.267 -469.036 937.149C-439.097 914.03 -405.96 908.516 -374.135 903.147C-343.64 898.066 -314.966 893.218 -289.692 873.876C-264.419 854.533 -253.184 828.346 -241.548 800.805C-229.104 771.859 -216.252 741.946 -186.313 718.827C-156.375 695.708 -123.237 690.195 -91.4126 684.826C-60.917 679.745 -32.2924 674.892 -6.96985 655.554C18.3527 636.217 29.4887 610.019 41.1748 582.484C53.6184 553.538 66.4705 523.625 96.409 500.506C126.348 477.387 159.485 471.874 191.31 466.505C221.805 461.423 250.43 456.57 275.753 437.233C301.075 417.896 312.211 391.698 323.897 364.163C336.341 335.217 349.188 305.351 379.126 282.233C409.065 259.114 442.208 253.552 474.032 248.184C504.528 243.102 533.153 238.249 558.475 218.912C568.827 211.703 577.989 203.048 585.672 193.245C588.944 189.07 594.78 187.679 599.35 190.347L600.212 190.85Z" fill="#A90F4F"/>
<path d="M669.625 200.26C671.72 201.003 672.747 203.36 671.868 205.405C659.429 234.303 646.528 264.211 616.59 287.329C586.651 310.448 553.513 315.962 521.689 321.331C491.188 326.46 462.569 331.265 437.295 350.608C412.022 369.95 400.782 396.185 389.145 423.726C376.707 452.624 363.806 482.532 333.867 505.651C303.929 528.769 270.791 534.283 238.966 539.652C208.471 544.733 179.846 549.586 154.573 568.929C129.3 588.271 118.065 614.459 106.423 642.047C93.9846 670.945 81.0833 700.853 51.1448 723.972C21.2062 747.091 -11.9314 752.604 -43.756 757.973C-74.2516 763.054 -102.876 767.908 -128.15 787.25C-153.423 806.593 -164.657 832.78 -176.294 860.321C-188.738 889.266 -201.59 919.18 -231.528 942.298C-261.467 965.417 -294.605 970.931 -326.478 976.294C-356.974 981.376 -385.599 986.229 -410.872 1005.57C-436.145 1024.91 -447.38 1051.1 -459.017 1078.64C-472.334 1108.26 -485.186 1138.18 -515.322 1161.27C-545.458 1184.37 -578.398 1189.91 -610.223 1195.27C-612.302 1195.68 -614.31 1194.32 -614.694 1192.24L-617.307 1178.08C-617.731 1175.77 -616.177 1173.57 -613.863 1173.19C-583.368 1168.11 -554.743 1163.25 -529.47 1143.91C-504.197 1124.57 -492.962 1098.38 -481.325 1070.84C-468.882 1041.89 -456.03 1011.98 -426.091 988.862C-396.153 965.743 -363.015 960.229 -331.19 954.86C-300.695 949.779 -272.021 944.931 -246.748 925.589C-221.474 906.246 -210.24 880.059 -198.603 852.518C-186.159 823.572 -173.307 793.659 -143.369 770.54C-113.43 747.422 -80.2925 741.908 -48.4678 736.539C-17.9722 731.458 10.6524 726.605 35.9749 707.267C61.2974 687.93 72.4336 661.732 84.1196 634.197C96.5632 605.251 109.41 575.386 139.348 552.267C169.287 529.148 202.43 523.587 234.255 518.218C264.75 513.137 293.375 508.283 318.697 488.946C344.02 469.609 355.156 443.411 366.842 415.876C379.286 386.93 392.132 357.064 422.071 333.946C452.009 310.827 485.152 305.266 516.977 299.897C547.473 294.815 576.097 289.962 601.42 270.625C626.742 251.288 637.878 225.09 649.564 197.555C650.509 195.405 652.955 194.347 655.164 195.13L669.625 200.26Z" fill="#A90F4F"/>
<path d="M726.776 203.454C732.23 206.127 734.043 213.026 731.2 218.407C724.795 230.528 720.055 244.156 714.538 256.88C702.1 285.778 689.199 315.686 659.26 338.805C629.322 361.924 596.184 367.437 564.36 372.806C533.859 377.935 505.239 382.741 479.966 402.083C454.693 421.426 443.453 447.66 431.816 475.201C419.378 504.099 406.476 534.007 376.538 557.126C346.599 580.245 313.462 585.758 281.637 591.127C251.136 596.256 222.517 601.062 197.244 620.404C171.971 639.747 160.736 665.934 149.094 693.522C136.656 722.42 123.803 752.333 93.8157 775.447C63.8279 798.56 30.7395 804.079 -1.08514 809.448C-31.5807 814.529 -60.2053 819.382 -85.4786 838.725C-110.752 858.067 -121.986 884.255 -133.629 911.843C-146.067 940.741 -158.919 970.654 -188.857 993.773C-218.796 1016.89 -251.934 1022.41 -283.807 1027.77C-314.303 1032.85 -342.928 1037.7 -368.201 1057.05C-393.474 1076.39 -404.709 1102.58 -416.351 1130.16C-428.789 1159.06 -441.641 1188.97 -471.58 1212.09C-501.518 1235.21 -534.656 1240.73 -566.48 1246.1C-581.291 1248.22 -595.9 1251.45 -610.175 1255.75C-615.29 1257.29 -620.785 1254.75 -622.719 1249.78L-623.644 1247.41C-625.719 1242.08 -622.901 1236.07 -617.405 1234.45C-602.374 1229.99 -587.001 1226.67 -571.422 1224.49C-540.927 1219.41 -512.302 1214.56 -487.029 1195.21C-461.756 1175.87 -450.521 1149.68 -438.884 1122.14C-426.441 1093.2 -413.589 1063.28 -383.65 1040.17C-353.712 1017.05 -320.574 1011.53 -288.749 1006.16C-258.254 1001.08 -229.58 996.236 -204.307 976.893C-179.033 957.551 -167.799 931.364 -156.162 903.823C-143.718 874.877 -130.866 844.964 -100.928 821.845C-70.9893 798.727 -37.8517 793.213 -6.02707 787.844C24.4685 782.763 53.1424 777.915 78.4157 758.573C103.689 739.23 114.924 713.043 126.56 685.502C139.004 656.556 151.851 626.691 181.789 603.572C211.728 580.453 244.871 574.892 276.695 569.523C307.191 564.442 335.815 559.589 361.138 540.252C386.46 520.915 397.597 494.717 409.283 467.181C421.726 438.235 434.573 408.37 464.511 385.251C494.45 362.132 527.593 356.571 559.418 351.202C589.913 346.121 618.532 341.316 643.86 321.931C669.188 302.546 680.319 276.396 692.005 248.86C697.802 234.244 704.781 220.101 712.876 206.562C715.493 202.187 721.042 200.642 725.61 202.882L726.776 203.454Z" fill="#A90F4F"/>
<path d="M816.575 212.607C819.124 216.945 818.042 222.509 814.048 225.593L810.11 228.634C784.76 248.209 768.839 281.014 757.005 308.533C744.775 337.357 731.884 367.17 701.925 390.479C671.965 413.788 638.849 419.111 607.019 424.528C576.523 429.609 547.904 434.415 522.626 453.805C497.347 473.195 486.112 499.382 474.476 526.922C462.038 555.821 449.136 585.728 419.198 608.847C389.259 631.966 356.122 637.479 324.298 642.848C293.797 647.977 265.177 652.783 239.904 672.125C214.631 691.468 203.391 717.702 191.755 745.243C179.316 774.141 166.464 804.054 136.526 827.173C106.587 850.292 73.4501 855.805 41.5762 861.169C11.0755 866.298 -17.5437 871.103 -42.8169 890.446C-68.0901 909.788 -79.3246 935.975 -90.9667 963.563C-103.405 992.461 -116.257 1022.37 -146.195 1045.49C-176.134 1068.61 -209.271 1074.13 -241.145 1079.49C-271.64 1084.57 -300.265 1089.42 -325.538 1108.77C-350.811 1128.11 -362.046 1154.3 -373.688 1181.88C-386.126 1210.78 -398.978 1240.69 -428.917 1263.81C-458.855 1286.93 -491.993 1292.45 -523.817 1297.81C-554.312 1302.9 -582.986 1307.74 -608.259 1327.09C-611.259 1329.4 -614.13 1331.87 -616.86 1334.47C-620.66 1338.1 -626.547 1338.74 -630.718 1335.57L-633.283 1333.62C-637.917 1330.11 -638.582 1323.35 -634.368 1319.32C-630.98 1316.08 -627.419 1313 -623.698 1310.11C-593.759 1286.99 -560.622 1281.48 -528.748 1276.12C-498.253 1271.03 -469.628 1266.18 -444.355 1246.84C-419.082 1227.5 -407.847 1201.31 -396.211 1173.77C-383.647 1144.64 -370.696 1114.74 -340.758 1091.62C-310.82 1068.5 -277.682 1062.99 -245.808 1057.63C-215.313 1052.55 -186.688 1047.69 -161.415 1028.35C-136.142 1009.01 -124.908 982.82 -113.271 955.28C-100.827 926.334 -87.9806 896.468 -58.0422 873.35C-28.1038 850.231 5.03909 844.67 36.8637 839.301C67.359 834.22 96.0328 829.372 121.306 810.029C146.579 790.687 157.814 764.5 169.45 736.959C181.894 708.013 194.741 678.148 224.679 655.029C254.617 631.91 287.76 626.349 319.585 620.98C350.08 615.899 378.754 611.051 404.027 591.709C429.3 572.367 440.486 546.174 452.172 518.639C464.615 489.693 477.462 459.828 507.4 436.709C537.339 413.59 570.482 408.029 602.306 402.66C632.802 397.579 661.421 392.773 686.748 373.389C712.076 354.004 723.207 327.854 734.893 300.319C747.331 271.42 759.609 239.083 789.301 215.937C792.974 212.507 796.841 209.279 800.884 206.27C805.422 202.891 811.774 204.44 814.633 209.304L816.575 212.607Z" fill="#A90F4F"/>
<path d="M951.062 243.262C952.567 248.861 948.996 254.566 943.274 255.562C939.816 256.165 936.349 256.748 932.88 257.343C902.385 262.425 873.765 267.23 848.487 286.62C823.208 306.01 811.973 332.198 800.337 359.738C787.898 388.637 774.997 418.545 745.059 441.663C715.12 464.782 681.982 470.296 650.152 475.712C619.657 480.794 591.037 485.599 565.759 504.989C540.48 524.379 529.245 550.567 517.609 578.107C505.17 607.006 492.318 636.919 462.38 660.038C432.441 683.157 399.304 688.67 367.43 694.034C336.929 699.163 308.309 703.968 283.036 723.311C257.763 742.653 245.933 769.257 234.236 796.887C221.798 825.786 208.945 855.699 179.007 878.818C149.068 901.937 115.931 907.45 84.0567 912.814C53.5558 917.943 24.9365 922.748 -0.336832 942.091C-25.6102 961.433 -36.8448 987.621 -48.4868 1015.21C-60.9252 1044.11 -73.7773 1074.02 -103.716 1097.14C-133.654 1120.26 -166.792 1125.77 -198.666 1131.14C-229.162 1136.22 -257.786 1141.07 -283.059 1160.41C-308.333 1179.75 -319.567 1205.94 -331.21 1233.53C-343.648 1262.43 -356.5 1292.34 -386.438 1315.46C-416.377 1338.58 -449.515 1344.09 -481.339 1349.46C-511.835 1354.54 -540.509 1359.39 -565.782 1378.73C-591.055 1398.08 -602.29 1424.26 -613.927 1451.8C-615.384 1455.22 -616.841 1458.63 -618.327 1462.03C-620.476 1466.95 -626.167 1469.19 -631.124 1467.16L-634.617 1465.73C-639.882 1463.57 -642.276 1457.45 -639.993 1452.23C-638.702 1449.28 -637.433 1446.33 -636.166 1443.38C-623.722 1414.44 -610.87 1384.52 -580.931 1361.4C-550.993 1338.29 -517.855 1332.77 -485.981 1327.41C-455.486 1322.33 -426.861 1317.47 -401.588 1298.13C-376.314 1278.79 -365.08 1252.6 -353.443 1225.06C-340.824 1196.33 -327.95 1166.22 -298.022 1143.2C-268.095 1120.18 -234.946 1114.57 -203.072 1109.2C-172.577 1104.12 -143.952 1099.27 -118.679 1079.93C-93.4054 1060.58 -82.1708 1034.4 -70.5341 1006.86C-58.0904 977.911 -45.2437 948.045 -15.3051 924.927C14.6334 901.808 47.7765 896.247 79.6504 890.883C110.146 885.802 138.771 880.949 164.044 861.606C189.317 842.264 200.552 816.076 212.189 788.536C224.632 759.59 237.479 729.724 267.418 706.605C297.356 683.486 330.499 677.925 362.324 672.556C392.819 667.475 421.488 662.675 446.767 643.285C472.045 623.895 483.274 597.755 494.911 570.214C507.349 541.316 520.202 511.403 550.14 488.284C580.079 465.165 613.222 459.604 645.046 454.235C675.542 449.154 704.161 444.348 729.489 424.963C754.817 405.579 765.948 379.428 777.634 351.893C790.072 322.994 802.924 293.081 832.863 269.963C862.801 246.844 895.944 241.282 927.769 235.913C931.498 235.294 935.227 234.675 938.943 234.023C944.122 233.114 949.179 236.252 950.541 241.32L951.062 243.262Z" fill="#A90F4F"/>
<path d="M943.966 303.361C945.639 309.044 942.007 314.909 936.278 316.461C919.875 320.904 904.458 328.288 890.842 338.261C865.548 357.794 854.334 383.791 842.698 411.332C830.259 440.23 817.358 470.138 787.42 493.257C757.481 516.375 724.338 521.937 692.514 527.305C662.018 532.387 633.399 537.192 608.12 556.582C582.841 575.972 571.607 602.16 559.97 629.7C547.532 658.599 534.68 688.512 504.741 711.631C474.803 734.749 441.665 740.263 409.786 745.674C379.29 750.755 350.671 755.561 325.392 774.951C300.114 794.341 288.879 820.528 277.242 848.069C264.804 876.968 251.952 906.881 222.013 929.999C192.075 953.118 158.937 958.632 127.063 963.995C96.5623 969.124 67.9431 973.93 42.6698 993.272C17.3966 1012.61 6.15653 1038.85 -5.48016 1066.39C-17.9184 1095.29 -30.7705 1125.2 -60.709 1148.32C-90.6476 1171.44 -123.785 1176.95 -155.61 1182.32C-186.111 1187.45 -214.779 1192.25 -240.053 1211.59C-265.326 1230.94 -276.56 1257.12 -288.203 1284.71C-300.641 1313.61 -313.493 1343.52 -343.431 1366.64C-373.37 1389.76 -406.508 1395.27 -438.332 1400.64C-468.828 1405.72 -497.502 1410.57 -522.775 1429.91C-536.511 1440.81 -547.861 1454.19 -556.211 1469.29C-558.906 1474.16 -564.869 1476.41 -569.91 1474.07L-572.595 1472.82C-577.56 1470.51 -579.763 1464.62 -577.172 1459.79C-567.594 1441.91 -554.437 1426.02 -538.427 1413.06C-508.291 1389.96 -475.351 1384.43 -443.329 1379.08C-412.833 1374 -384.209 1369.15 -358.935 1349.8C-333.662 1330.46 -322.428 1304.27 -310.791 1276.73C-298.347 1247.79 -285.5 1217.92 -255.562 1194.8C-225.623 1171.68 -192.48 1166.12 -160.606 1160.76C-130.111 1155.68 -101.486 1150.83 -76.213 1131.48C-50.9397 1112.14 -39.7051 1085.95 -28.0683 1058.41C-15.6247 1029.47 -2.77801 999.601 27.1606 976.483C57.0991 953.364 90.2421 947.802 122.116 942.439C152.612 937.358 181.231 932.552 206.509 913.162C231.788 893.772 243.017 867.632 254.654 840.092C267.092 811.193 279.944 781.28 309.883 758.161C339.821 735.043 372.964 729.481 404.789 724.112C435.285 719.031 463.953 714.231 489.232 694.841C514.511 675.451 525.74 649.311 537.377 621.77C549.815 592.872 562.667 562.959 592.605 539.84C622.544 516.721 655.687 511.16 687.512 505.791C718.007 500.71 746.676 495.91 771.954 476.52C797.233 457.13 808.413 430.985 820.099 403.449C832.537 374.551 845.389 344.638 875.328 321.519C892.194 308.997 911.498 299.935 932.062 294.845C937.046 293.612 941.994 296.659 943.441 301.576L943.966 303.361Z" fill="#A90F4F"/>
<path d="M936.433 374.562C939.964 379.218 938.679 385.82 934.052 389.416C933.929 389.513 933.805 389.609 933.682 389.706C908.387 409.239 897.174 435.236 885.537 462.776C873.099 491.675 860.247 521.588 830.308 544.707C800.369 567.826 767.226 573.387 735.352 578.75C704.857 583.832 676.238 588.637 650.959 608.027C625.68 627.417 614.451 653.557 602.814 681.098C590.376 709.996 577.524 739.909 547.585 763.028C517.647 786.147 484.509 791.66 452.63 797.071C422.135 802.153 393.515 806.958 368.236 826.348C342.958 845.738 331.723 871.926 320.087 899.466C307.648 928.365 294.796 958.278 264.858 981.397C234.919 1004.52 201.781 1010.03 169.908 1015.39C139.407 1020.52 110.787 1025.33 85.514 1044.67C60.2407 1064.01 49.0007 1090.25 37.364 1117.79C24.9257 1146.69 12.0736 1176.6 -17.8649 1199.72C-47.8034 1222.84 -80.9411 1228.35 -112.766 1233.72C-143.267 1238.85 -171.935 1243.65 -197.209 1262.99C-222.482 1282.33 -234.591 1309.2 -246.435 1336.81C-258.72 1365.68 -271.72 1395.57 -301.659 1418.69C-331.597 1441.81 -364.735 1447.32 -396.559 1452.69C-427.055 1457.77 -455.68 1462.63 -481.002 1481.96C-481.411 1482.29 -481.817 1482.62 -482.221 1482.95C-486.463 1486.43 -492.705 1486.45 -496.579 1482.59L-498.602 1480.57C-502.598 1476.59 -502.518 1470.05 -498.079 1466.55C-497.245 1465.89 -496.402 1465.24 -495.55 1464.61C-465.606 1441.44 -432.468 1435.93 -400.643 1430.56C-370.148 1425.48 -341.523 1420.62 -316.25 1401.28C-290.977 1381.94 -279.742 1355.75 -268.105 1328.21C-255.662 1299.26 -242.815 1269.4 -212.876 1246.28C-182.938 1223.16 -149.795 1217.6 -117.921 1212.24C-87.4253 1207.15 -58.8006 1202.3 -33.5274 1182.96C-8.25407 1163.62 2.98056 1137.43 14.6173 1109.89C27.061 1080.94 39.9077 1051.08 69.8462 1027.96C99.7847 1004.84 132.928 999.278 164.802 993.915C195.297 988.834 223.917 984.028 249.195 964.638C274.474 945.248 285.703 919.108 297.34 891.568C309.778 862.669 322.63 832.756 352.569 809.637C382.507 786.519 415.65 780.957 447.524 775.594C478.02 770.513 506.639 765.707 531.918 746.317C557.196 726.927 568.426 700.787 580.062 673.247C592.501 644.348 605.353 614.435 635.291 591.316C665.23 568.197 698.373 562.636 730.197 557.267C760.693 552.186 789.362 547.386 814.64 527.996C839.919 508.606 851.154 482.418 862.79 454.878C875.228 425.98 888.08 396.067 918.019 372.948C919.219 372.021 920.44 371.112 921.677 370.223C925.884 367.198 931.667 368.279 934.79 372.396L936.433 374.562Z" fill="#A90F4F"/>
<path d="M911.698 496.697C917.11 498.662 919.733 504.783 917.427 510.068L916.162 512.968C903.718 541.914 890.872 571.779 860.933 594.898C830.995 618.017 797.852 623.578 765.978 628.942C735.482 634.023 706.863 638.828 681.584 658.218C656.306 677.609 645.076 703.748 633.44 731.289C621.001 760.187 608.149 790.1 578.211 813.219C548.272 836.338 515.129 841.899 483.255 847.263C452.76 852.344 424.14 857.15 398.862 876.54C373.583 895.93 362.348 922.117 350.712 949.658C338.273 978.556 325.421 1008.47 295.483 1031.59C265.544 1054.71 232.407 1060.22 200.582 1065.59C170.081 1070.72 141.413 1075.52 116.139 1094.86C90.866 1114.2 79.626 1140.44 67.9893 1167.98C55.551 1196.88 42.699 1226.79 12.7605 1249.91C-17.1781 1273.03 -50.3157 1278.54 -82.1404 1283.91C-112.641 1289.04 -141.31 1293.84 -166.583 1313.18C-191.856 1332.52 -203.047 1358.76 -214.733 1386.3C-228.051 1415.92 -240.892 1445.74 -270.852 1469.05C-300.812 1492.36 -333.808 1497.5 -365.929 1502.84C-367.278 1503.08 -368.646 1503.32 -370.025 1503.56C-375.405 1504.51 -380.56 1500.98 -381.609 1495.63L-382.088 1493.19C-383.167 1487.68 -379.501 1482.37 -373.965 1481.43C-372.586 1481.2 -371.203 1480.96 -369.816 1480.72C-339.32 1475.64 -310.695 1470.79 -285.422 1451.45C-260.149 1432.1 -248.914 1405.92 -237.277 1378.38C-224.834 1349.43 -211.987 1319.56 -182.049 1296.45C-152.11 1273.33 -118.967 1267.76 -87.0931 1262.4C-56.5975 1257.32 -27.9783 1252.51 -2.69962 1233.12C22.579 1213.73 33.8083 1187.59 45.445 1160.05C57.8833 1131.16 70.7354 1101.24 100.674 1078.12C130.612 1055.01 163.755 1049.44 195.629 1044.08C226.125 1039 254.744 1034.19 280.023 1014.8C305.302 995.413 316.531 969.274 328.167 941.733C340.606 912.835 353.458 882.922 383.396 859.803C413.335 836.684 446.478 831.123 478.352 825.759C508.847 820.678 537.467 815.872 562.745 796.482C588.024 777.092 599.253 750.953 610.89 723.412C623.328 694.514 636.18 664.601 666.119 641.482C696.057 618.363 729.195 612.849 761.025 607.433C791.521 602.351 820.189 597.551 845.468 578.161C870.746 558.771 881.981 532.584 893.618 505.043L895.453 500.818C897.563 495.958 903.093 493.573 908.066 495.379L911.698 496.697Z" fill="#A90F4F"/>
</g>
</svg>
