<svg width="71" height="68" viewBox="0 0 71 68" fill="none" xmlns="http://www.w3.org/2000/svg">
<path d="M66.8523 0.75H3.73873C1.80314 0.752051 0.234476 2.31789 0.232422 4.25V53.25C0.234476 55.1821 1.80314 56.748 3.73873 56.75H24.7766V61.4105C24.8777 63.2459 23.469 64.8156 21.6302 64.9164C21.5104 64.9229 21.3902 64.923 21.2703 64.9166H14.2577C13.6121 64.9166 13.0889 65.4389 13.0889 66.0832C13.0889 66.7276 13.6121 67.2499 14.2577 67.2499H56.3333C56.9789 67.2499 57.5021 66.7276 57.5021 66.0832C57.5021 65.4389 56.9789 64.9166 56.3333 64.9166H49.3207C47.4827 65.0149 45.9129 63.6073 45.8144 61.7725C45.8081 61.654 45.8081 61.5352 45.8144 61.4166V56.75H66.8523C68.7878 56.748 70.3565 55.1821 70.3586 53.25V4.25C70.3565 2.31789 68.7878 0.752051 66.8523 0.75ZM26.0398 64.9166C26.7252 63.8762 27.098 62.6617 27.1142 61.4166V56.75H43.477V61.4166C43.4931 62.6617 43.8658 63.8762 44.5513 64.9166H26.0398ZM68.021 53.25C68.0203 53.8941 67.4975 54.4161 66.8523 54.4166H3.73873C3.09349 54.4159 2.57055 53.8941 2.57001 53.25V46.8333H35.2956H68.0211L68.021 53.25ZM68.021 44.5H2.57001V4.25C2.57069 3.60592 3.09349 3.08393 3.73873 3.08338H66.8523C67.4975 3.08406 68.0204 3.60592 68.021 4.25V44.5Z" fill="#333333"/>
<rect opacity="0.2" x="5.28906" y="5.99915" width="59.0632" height="35.2477" transform="rotate(0.0136316 5.28906 5.99915)" fill="#98003F"/>
<path d="M9.22358 5.75861C8.76899 5.31305 8.04061 5.31305 7.58602 5.75861L5.24844 8.09185C4.79207 8.54754 4.79221 9.28623 5.24871 9.74177C5.46786 9.96039 5.76494 10.0833 6.07475 10.0833C6.38484 10.0837 6.68219 9.96066 6.90106 9.7415L9.2385 7.40826C9.69076 6.94848 9.68405 6.20992 9.22358 5.75861Z" fill="#333333"/>
<path d="M16.2433 5.75843C15.7882 5.30985 15.0562 5.30985 14.6011 5.75843L7.58847 12.7584C7.1321 13.2138 7.13197 13.9523 7.58806 14.4078C7.5882 14.4079 7.58834 14.4081 7.58847 14.4082C8.04457 14.8638 8.78445 14.8639 9.24082 14.4086C9.24096 14.4085 9.2411 14.4083 9.24123 14.4082L16.2539 7.40821C16.7073 6.94966 16.7026 6.2111 16.2433 5.75843Z" fill="#333333"/>
<path d="M42.5703 18.6411H39.9987L39.4801 20.0143C39.385 20.2467 39.1626 20.3841 38.93 20.3841C38.8558 20.3841 38.7922 20.3735 38.7289 20.3524C38.422 20.2361 38.2738 19.8982 38.3797 19.592L40.7182 13.3703C40.8135 13.1379 41.0463 12.9899 41.2792 13.0005C41.5224 12.9899 41.7448 13.1379 41.8399 13.3703L44.1786 19.592C44.2843 19.8982 44.1363 20.2363 43.8295 20.3524C43.7765 20.3735 43.7025 20.3841 43.6283 20.3841C43.3955 20.3841 43.1733 20.2467 43.0887 20.0143L42.5703 18.6411ZM42.1363 17.4792L41.2792 15.2081L40.4221 17.4792H42.1363Z" fill="#333333"/>
<path d="M39.584 33.4038V27.1715C39.584 26.844 39.8487 26.5905 40.1662 26.5905C40.1768 26.5905 40.1768 26.5905 40.1979 26.5905C40.1979 26.5905 40.1979 26.5905 40.2085 26.5905H41.6686C42.7799 26.5905 43.6793 27.4884 43.6793 28.5976C43.6793 29.0518 43.5311 29.4638 43.2772 29.8019C43.9121 30.2032 44.3459 30.9111 44.3459 31.7138C44.3459 32.9708 43.3299 33.9849 42.0814 33.9849H40.2083C40.1976 33.9849 40.1976 33.9743 40.1976 33.9743C40.1764 33.9743 40.1764 33.9849 40.166 33.9849C39.8485 33.9847 39.584 33.7207 39.584 33.4038ZM40.7588 29.4532H41.6686C42.1343 29.4532 42.5047 29.0624 42.5047 28.5976C42.5047 28.1328 42.1343 27.763 41.6686 27.763H40.7588V29.4532ZM40.7588 32.8122H42.0816C42.6846 32.8016 43.1713 32.3264 43.1713 31.7136C43.1713 31.1115 42.6846 30.6362 42.0816 30.6256H40.7588V32.8122Z" fill="#333333"/>
<circle cx="29.5" cy="16.5" r="2.75" fill="white" stroke="#333333" stroke-width="1.5"/>
<circle cx="29.5" cy="30.5" r="2.75" fill="white" stroke="#333333" stroke-width="1.5"/>
</svg>
