<svg width="271" height="482" viewBox="0 0 271 482" fill="none" xmlns="http://www.w3.org/2000/svg">
<circle opacity="0.2" r="5.44" transform="matrix(-1 0 0 1 255.368 5.44)" fill="black"/>
<circle opacity="0.2" r="5.44" transform="matrix(-1 0 0 1 230.344 5.44)" fill="black"/>
<circle opacity="0.2" r="5.44" transform="matrix(-1 0 0 1 205.32 5.44)" fill="black"/>
<circle opacity="0.2" r="5.44" transform="matrix(-1 0 0 1 180.44 5.44)" fill="black"/>
<circle opacity="0.2" r="5.44" transform="matrix(-1 0 0 1 105.368 5.44)" fill="black"/>
<circle opacity="0.2" r="5.44" transform="matrix(-1 0 0 1 155.416 5.44)" fill="black"/>
<circle opacity="0.2" r="5.44" transform="matrix(-1 0 0 1 130.392 5.44)" fill="black"/>
<circle opacity="0.2" r="5.44" transform="matrix(-1 0 0 1 255.368 55.488)" fill="black"/>
<circle opacity="0.2" r="5.44" transform="matrix(-1 0 0 1 230.344 55.488)" fill="black"/>
<circle opacity="0.2" r="5.44" transform="matrix(-1 0 0 1 205.32 55.488)" fill="black"/>
<circle opacity="0.2" r="5.44" transform="matrix(-1 0 0 1 180.44 55.488)" fill="black"/>
<circle opacity="0.2" r="5.44" transform="matrix(-1 0 0 1 155.416 55.488)" fill="black"/>
<circle opacity="0.2" r="5.44" transform="matrix(-1 0 0 1 80.3437 55.488)" fill="black"/>
<circle opacity="0.2" r="5.44" transform="matrix(-1 0 0 1 130.392 55.488)" fill="black"/>
<circle opacity="0.2" r="5.44" transform="matrix(-1 0 0 1 255.368 30.464)" fill="black"/>
<circle opacity="0.2" r="5.44" transform="matrix(-1 0 0 1 230.344 30.464)" fill="black"/>
<circle opacity="0.2" r="5.44" transform="matrix(-1 0 0 1 205.32 30.464)" fill="black"/>
<circle opacity="0.2" r="5.44" transform="matrix(-1 0 0 1 180.44 30.464)" fill="black"/>
<circle opacity="0.2" r="5.44" transform="matrix(-1 0 0 1 105.368 30.464)" fill="black"/>
<circle opacity="0.2" r="5.44" transform="matrix(-1 0 0 1 155.416 30.464)" fill="black"/>
<circle opacity="0.2" r="5.44" transform="matrix(-1 0 0 1 80.3437 30.464)" fill="black"/>
<circle opacity="0.2" r="5.44" transform="matrix(-1 0 0 1 130.392 30.464)" fill="black"/>
<circle opacity="0.2" r="5.44" transform="matrix(-1 0 0 1 255.368 80.512)" fill="black"/>
<circle opacity="0.2" r="5.44" transform="matrix(-1 0 0 1 230.344 80.512)" fill="black"/>
<circle opacity="0.2" r="5.44" transform="matrix(-1 0 0 1 205.32 80.512)" fill="black"/>
<circle opacity="0.2" r="5.44" transform="matrix(-1 0 0 1 180.44 80.512)" fill="black"/>
<circle opacity="0.2" r="5.44" transform="matrix(-1 0 0 1 105.368 80.512)" fill="black"/>
<circle opacity="0.2" r="5.44" transform="matrix(-1 0 0 1 155.416 80.512)" fill="black"/>
<circle opacity="0.2" r="5.44" transform="matrix(-1 0 0 1 80.3437 80.512)" fill="black"/>
<circle opacity="0.2" r="5.44" transform="matrix(-1 0 0 1 130.392 80.512)" fill="black"/>
<circle opacity="0.2" r="5.44" transform="matrix(-1 0 0 1 55.32 5.44)" fill="black"/>
<circle opacity="0.2" r="5.44" transform="matrix(-1 0 0 1 55.32 30.464)" fill="black"/>
<circle opacity="0.2" r="5.44" transform="matrix(-1 0 0 1 55.32 80.512)" fill="black"/>
<circle opacity="0.2" r="5.44" transform="matrix(-1 0 0 1 30.4404 30.464)" fill="black"/>
<circle opacity="0.2" r="5.44" transform="matrix(-1 0 0 1 30.4404 80.512)" fill="black"/>
<circle opacity="0.2" r="5.44" transform="matrix(-1 0 0 1 5.44013 80.5119)" fill="black"/>
<circle opacity="0.2" r="5.44" transform="matrix(-1 0 0 1 5.44037 302.44)" fill="black"/>
<circle opacity="0.2" r="5.44" transform="matrix(-1 0 0 1 30.4399 154.488)" fill="black"/>
<circle opacity="0.2" r="5.44" transform="matrix(-1 0 0 1 30.4399 129.464)" fill="black"/>
<circle opacity="0.2" r="5.44" transform="matrix(-1 0 0 1 5.43988 154.44)" fill="black"/>
<circle opacity="0.2" r="5.44" transform="matrix(-1 0 0 1 5.44013 228.44)" fill="black"/>
<circle opacity="0.2" r="5.44" transform="matrix(-1 0 0 1 30.4399 179.512)" fill="black"/>
<circle opacity="0.2" r="5.44" transform="matrix(-1 0 0 1 30.4401 302.44)" fill="black"/>
<circle opacity="0.2" r="5.44" transform="matrix(-1 0 0 1 30.4401 352.488)" fill="black"/>
<circle opacity="0.2" r="5.44" transform="matrix(-1 0 0 1 5.44013 377.512)" fill="black"/>
<circle opacity="0.2" r="5.44" transform="matrix(-1 0 0 1 30.4401 253.488)" fill="black"/>
<circle opacity="0.2" r="5.44" transform="matrix(-1 0 0 1 30.4401 228.464)" fill="black"/>
<circle opacity="0.2" r="5.44" transform="matrix(-1 0 0 1 30.4404 401.44)" fill="black"/>
<circle opacity="0.2" r="5.44" transform="matrix(-1 0 0 1 30.4404 451.44)" fill="black"/>
<circle opacity="0.2" r="5.44" transform="matrix(-1 0 0 1 55.4401 476.512)" fill="black"/>
<circle opacity="0.2" r="5.44" transform="matrix(-1 0 0 1 5.43988 476.512)" fill="black"/>
<circle opacity="0.2" r="5.44" transform="matrix(-1 0 0 1 255.368 203.44)" fill="black"/>
<circle opacity="0.2" r="5.44" transform="matrix(-1 0 0 1 230.344 203.44)" fill="black"/>
<circle opacity="0.2" r="5.44" transform="matrix(-1 0 0 1 205.32 203.44)" fill="black"/>
<circle opacity="0.2" r="5.44" transform="matrix(-1 0 0 1 180.44 203.44)" fill="black"/>
<circle opacity="0.2" r="5.44" transform="matrix(-1 0 0 1 105.368 203.44)" fill="black"/>
<circle opacity="0.2" r="5.44" transform="matrix(-1 0 0 1 155.416 203.44)" fill="black"/>
<circle opacity="0.2" r="5.44" transform="matrix(-1 0 0 1 80.3439 203.44)" fill="black"/>
<circle opacity="0.2" r="5.44" transform="matrix(-1 0 0 1 130.392 203.44)" fill="black"/>
<circle opacity="0.2" r="5.44" transform="matrix(-1 0 0 1 55.3198 203.44)" fill="black"/>
<circle opacity="0.2" r="5.44" transform="matrix(-1 0 0 1 255.368 253.488)" fill="black"/>
<circle opacity="0.2" r="5.44" transform="matrix(-1 0 0 1 230.344 253.488)" fill="black"/>
<circle opacity="0.2" r="5.44" transform="matrix(-1 0 0 1 205.32 253.488)" fill="black"/>
<circle opacity="0.2" r="5.44" transform="matrix(-1 0 0 1 180.44 253.488)" fill="black"/>
<circle opacity="0.2" r="5.44" transform="matrix(-1 0 0 1 105.368 253.488)" fill="black"/>
<circle opacity="0.2" r="5.44" transform="matrix(-1 0 0 1 155.416 253.488)" fill="black"/>
<circle opacity="0.2" r="5.44" transform="matrix(-1 0 0 1 80.3439 253.488)" fill="black"/>
<circle opacity="0.2" r="5.44" transform="matrix(-1 0 0 1 130.392 253.488)" fill="black"/>
<circle opacity="0.2" r="5.44" transform="matrix(-1 0 0 1 55.3198 253.488)" fill="black"/>
<circle opacity="0.2" r="5.44" transform="matrix(-1 0 0 1 255.368 228.464)" fill="black"/>
<circle opacity="0.2" r="5.44" transform="matrix(-1 0 0 1 230.344 228.464)" fill="black"/>
<circle opacity="0.2" r="5.44" transform="matrix(-1 0 0 1 205.32 228.464)" fill="black"/>
<circle opacity="0.2" r="5.44" transform="matrix(-1 0 0 1 180.44 228.464)" fill="black"/>
<circle opacity="0.2" r="5.44" transform="matrix(-1 0 0 1 105.368 228.464)" fill="black"/>
<circle opacity="0.2" r="5.44" transform="matrix(-1 0 0 1 155.416 228.464)" fill="black"/>
<circle opacity="0.2" r="5.44" transform="matrix(-1 0 0 1 130.392 228.464)" fill="black"/>
<circle opacity="0.2" r="5.44" transform="matrix(-1 0 0 1 55.3198 228.464)" fill="black"/>
<circle opacity="0.2" r="5.44" transform="matrix(-1 0 0 1 255.368 278.512)" fill="black"/>
<circle opacity="0.2" r="5.44" transform="matrix(-1 0 0 1 230.344 278.512)" fill="black"/>
<circle opacity="0.2" r="5.44" transform="matrix(-1 0 0 1 205.32 278.512)" fill="black"/>
<circle opacity="0.2" r="5.44" transform="matrix(-1 0 0 1 180.44 278.512)" fill="black"/>
<circle opacity="0.2" r="5.44" transform="matrix(-1 0 0 1 105.368 278.512)" fill="black"/>
<circle opacity="0.2" r="5.44" transform="matrix(-1 0 0 1 155.416 278.512)" fill="black"/>
<circle opacity="0.2" r="5.44" transform="matrix(-1 0 0 1 80.3439 278.512)" fill="black"/>
<circle opacity="0.2" r="5.44" transform="matrix(-1 0 0 1 130.392 278.512)" fill="black"/>
<circle opacity="0.2" r="5.44" transform="matrix(-1 0 0 1 55.3198 278.512)" fill="black"/>
<circle opacity="0.2" r="5.44" transform="matrix(-1 0 0 1 255.368 104.44)" fill="black"/>
<circle opacity="0.2" r="5.44" transform="matrix(-1 0 0 1 230.344 104.44)" fill="black"/>
<circle opacity="0.2" r="5.44" transform="matrix(-1 0 0 1 205.32 104.44)" fill="black"/>
<circle opacity="0.2" r="5.44" transform="matrix(-1 0 0 1 180.44 104.44)" fill="black"/>
<circle opacity="0.2" r="5.44" transform="matrix(-1 0 0 1 105.368 104.44)" fill="black"/>
<circle opacity="0.2" r="5.44" transform="matrix(-1 0 0 1 155.416 104.44)" fill="black"/>
<circle opacity="0.2" r="5.44" transform="matrix(-1 0 0 1 80.3439 104.44)" fill="black"/>
<circle opacity="0.2" r="5.44" transform="matrix(-1 0 0 1 130.392 104.44)" fill="black"/>
<circle opacity="0.2" r="5.44" transform="matrix(-1 0 0 1 55.3198 104.44)" fill="black"/>
<circle opacity="0.2" r="5.44" transform="matrix(-1 0 0 1 255.368 154.488)" fill="black"/>
<circle opacity="0.2" r="5.44" transform="matrix(-1 0 0 1 230.344 154.488)" fill="black"/>
<circle opacity="0.2" r="5.44" transform="matrix(-1 0 0 1 205.32 154.488)" fill="black"/>
<circle opacity="0.2" r="5.44" transform="matrix(-1 0 0 1 180.44 154.488)" fill="black"/>
<circle opacity="0.2" r="5.44" transform="matrix(-1 0 0 1 105.368 154.488)" fill="black"/>
<circle opacity="0.2" r="5.44" transform="matrix(-1 0 0 1 155.416 154.488)" fill="black"/>
<circle opacity="0.2" r="5.44" transform="matrix(-1 0 0 1 80.3439 154.488)" fill="black"/>
<circle opacity="0.2" r="5.44" transform="matrix(-1 0 0 1 130.392 154.488)" fill="black"/>
<circle opacity="0.2" r="5.44" transform="matrix(-1 0 0 1 55.3198 154.488)" fill="black"/>
<circle opacity="0.2" r="5.44" transform="matrix(-1 0 0 1 255.368 129.464)" fill="black"/>
<circle opacity="0.2" r="5.44" transform="matrix(-1 0 0 1 230.344 129.464)" fill="black"/>
<circle opacity="0.2" r="5.44" transform="matrix(-1 0 0 1 205.32 129.464)" fill="black"/>
<circle opacity="0.2" r="5.44" transform="matrix(-1 0 0 1 180.44 129.464)" fill="black"/>
<circle opacity="0.2" r="5.44" transform="matrix(-1 0 0 1 105.368 129.464)" fill="black"/>
<circle opacity="0.2" r="5.44" transform="matrix(-1 0 0 1 155.416 129.464)" fill="black"/>
<circle opacity="0.2" r="5.44" transform="matrix(-1 0 0 1 80.3437 129.464)" fill="black"/>
<circle opacity="0.2" r="5.44" transform="matrix(-1 0 0 1 130.392 129.464)" fill="black"/>
<circle opacity="0.2" r="5.44" transform="matrix(-1 0 0 1 255.368 179.512)" fill="black"/>
<circle opacity="0.2" r="5.44" transform="matrix(-1 0 0 1 230.344 179.512)" fill="black"/>
<circle opacity="0.2" r="5.44" transform="matrix(-1 0 0 1 205.32 179.512)" fill="black"/>
<circle opacity="0.2" r="5.44" transform="matrix(-1 0 0 1 180.44 179.512)" fill="black"/>
<circle opacity="0.2" r="5.44" transform="matrix(-1 0 0 1 105.368 179.512)" fill="black"/>
<circle opacity="0.2" r="5.44" transform="matrix(-1 0 0 1 155.416 179.512)" fill="black"/>
<circle opacity="0.2" r="5.44" transform="matrix(-1 0 0 1 80.3439 179.512)" fill="black"/>
<circle opacity="0.2" r="5.44" transform="matrix(-1 0 0 1 55.3198 179.512)" fill="black"/>
<circle opacity="0.2" r="5.44" transform="matrix(-1 0 0 1 255.368 302.44)" fill="black"/>
<circle opacity="0.2" r="5.44" transform="matrix(-1 0 0 1 230.344 302.44)" fill="black"/>
<circle opacity="0.2" r="5.44" transform="matrix(-1 0 0 1 205.32 302.44)" fill="black"/>
<circle opacity="0.2" r="5.44" transform="matrix(-1 0 0 1 180.44 302.44)" fill="black"/>
<circle opacity="0.2" r="5.44" transform="matrix(-1 0 0 1 105.368 302.44)" fill="black"/>
<circle opacity="0.2" r="5.44" transform="matrix(-1 0 0 1 155.416 302.44)" fill="black"/>
<circle opacity="0.2" r="5.44" transform="matrix(-1 0 0 1 80.3439 302.44)" fill="black"/>
<circle opacity="0.2" r="5.44" transform="matrix(-1 0 0 1 130.392 302.44)" fill="black"/>
<circle opacity="0.2" r="5.44" transform="matrix(-1 0 0 1 55.3198 302.44)" fill="black"/>
<circle opacity="0.2" r="5.44" transform="matrix(-1 0 0 1 255.368 352.488)" fill="black"/>
<circle opacity="0.2" r="5.44" transform="matrix(-1 0 0 1 230.344 352.488)" fill="black"/>
<circle opacity="0.2" r="5.44" transform="matrix(-1 0 0 1 205.32 352.488)" fill="black"/>
<circle opacity="0.2" r="5.44" transform="matrix(-1 0 0 1 180.44 352.488)" fill="black"/>
<circle opacity="0.2" r="5.44" transform="matrix(-1 0 0 1 105.368 352.488)" fill="black"/>
<circle opacity="0.2" r="5.44" transform="matrix(-1 0 0 1 155.416 352.488)" fill="black"/>
<circle opacity="0.2" r="5.44" transform="matrix(-1 0 0 1 80.3439 352.488)" fill="black"/>
<circle opacity="0.2" r="5.44" transform="matrix(-1 0 0 1 130.392 352.488)" fill="black"/>
<circle opacity="0.2" r="5.44" transform="matrix(-1 0 0 1 55.3198 352.488)" fill="black"/>
<circle opacity="0.2" r="5.44" transform="matrix(-1 0 0 1 255.368 327.464)" fill="black"/>
<circle opacity="0.2" r="5.44" transform="matrix(-1 0 0 1 230.344 327.464)" fill="black"/>
<circle opacity="0.2" r="5.44" transform="matrix(-1 0 0 1 205.32 327.464)" fill="black"/>
<circle opacity="0.2" r="5.44" transform="matrix(-1 0 0 1 180.44 327.464)" fill="black"/>
<circle opacity="0.2" r="5.44" transform="matrix(-1 0 0 1 155.416 327.464)" fill="black"/>
<circle opacity="0.2" r="5.44" transform="matrix(-1 0 0 1 80.3439 327.464)" fill="black"/>
<circle opacity="0.2" r="5.44" transform="matrix(-1 0 0 1 130.392 327.464)" fill="black"/>
<circle opacity="0.2" r="5.44" transform="matrix(-1 0 0 1 55.3198 327.464)" fill="black"/>
<circle opacity="0.2" r="5.44" transform="matrix(-1 0 0 1 255.368 377.512)" fill="black"/>
<circle opacity="0.2" r="5.44" transform="matrix(-1 0 0 1 230.344 377.512)" fill="black"/>
<circle opacity="0.2" r="5.44" transform="matrix(-1 0 0 1 205.32 377.512)" fill="black"/>
<circle opacity="0.2" r="5.44" transform="matrix(-1 0 0 1 180.44 377.512)" fill="black"/>
<circle opacity="0.2" r="5.44" transform="matrix(-1 0 0 1 105.368 377.512)" fill="black"/>
<circle opacity="0.2" r="5.44" transform="matrix(-1 0 0 1 155.416 377.512)" fill="black"/>
<circle opacity="0.2" r="5.44" transform="matrix(-1 0 0 1 80.3439 377.512)" fill="black"/>
<circle opacity="0.2" r="5.44" transform="matrix(-1 0 0 1 130.392 377.512)" fill="black"/>
<circle opacity="0.2" r="5.44" transform="matrix(-1 0 0 1 55.3198 377.512)" fill="black"/>
<circle opacity="0.2" r="5.44" transform="matrix(-1 0 0 1 255.368 401.44)" fill="black"/>
<circle opacity="0.2" r="5.44" transform="matrix(-1 0 0 1 230.344 401.44)" fill="black"/>
<circle opacity="0.2" r="5.44" transform="matrix(-1 0 0 1 205.32 401.44)" fill="black"/>
<circle opacity="0.2" r="5.44" transform="matrix(-1 0 0 1 180.44 401.44)" fill="black"/>
<circle opacity="0.2" r="5.44" transform="matrix(-1 0 0 1 105.368 401.44)" fill="black"/>
<circle opacity="0.2" r="5.44" transform="matrix(-1 0 0 1 155.416 401.44)" fill="black"/>
<circle opacity="0.2" r="5.44" transform="matrix(-1 0 0 1 130.392 401.44)" fill="black"/>
<circle opacity="0.2" r="5.44" transform="matrix(-1 0 0 1 55.3198 401.44)" fill="black"/>
<circle opacity="0.2" r="5.44" transform="matrix(-1 0 0 1 255.368 451.488)" fill="black"/>
<circle opacity="0.2" r="5.44" transform="matrix(-1 0 0 1 230.344 451.488)" fill="black"/>
<circle opacity="0.2" r="5.44" transform="matrix(-1 0 0 1 205.32 451.488)" fill="black"/>
<circle opacity="0.2" r="5.44" transform="matrix(-1 0 0 1 180.44 451.488)" fill="black"/>
<circle opacity="0.2" r="5.44" transform="matrix(-1 0 0 1 105.368 451.488)" fill="black"/>
<circle opacity="0.2" r="5.44" transform="matrix(-1 0 0 1 155.416 451.488)" fill="black"/>
<circle opacity="0.2" r="5.44" transform="matrix(-1 0 0 1 80.3437 451.488)" fill="black"/>
<circle opacity="0.2" r="5.44" transform="matrix(-1 0 0 1 130.392 451.488)" fill="black"/>
<circle opacity="0.2" r="5.44" transform="matrix(-1 0 0 1 255.368 426.464)" fill="black"/>
<circle opacity="0.2" r="5.44" transform="matrix(-1 0 0 1 230.344 426.464)" fill="black"/>
<circle opacity="0.2" r="5.44" transform="matrix(-1 0 0 1 205.32 426.464)" fill="black"/>
<circle opacity="0.2" r="5.44" transform="matrix(-1 0 0 1 180.44 426.464)" fill="black"/>
<circle opacity="0.2" r="5.44" transform="matrix(-1 0 0 1 105.368 426.464)" fill="black"/>
<circle opacity="0.2" r="5.44" transform="matrix(-1 0 0 1 155.416 426.464)" fill="black"/>
<circle opacity="0.2" r="5.44" transform="matrix(-1 0 0 1 80.3439 426.464)" fill="black"/>
<circle opacity="0.2" r="5.44" transform="matrix(-1 0 0 1 130.392 426.464)" fill="black"/>
<circle opacity="0.2" r="5.44" transform="matrix(-1 0 0 1 55.3198 426.464)" fill="black"/>
<circle opacity="0.2" r="5.44" transform="matrix(-1 0 0 1 255.368 476.512)" fill="black"/>
<circle opacity="0.2" r="5.44" transform="matrix(-1 0 0 1 230.344 476.512)" fill="black"/>
<circle opacity="0.2" r="5.44" transform="matrix(-1 0 0 1 205.32 476.512)" fill="black"/>
<circle opacity="0.2" r="5.44" transform="matrix(-1 0 0 1 180.44 476.512)" fill="black"/>
<circle opacity="0.2" r="5.44" transform="matrix(-1 0 0 1 105.368 476.512)" fill="black"/>
<circle opacity="0.2" r="5.44" transform="matrix(-1 0 0 1 155.416 476.512)" fill="black"/>
<circle opacity="0.2" r="5.44" transform="matrix(-1 0 0 1 80.3437 476.512)" fill="black"/>
<circle opacity="0.2" r="5.44" transform="matrix(-1 0 0 1 130.392 476.512)" fill="black"/>
</svg>
