<svg width="746" height="55" viewBox="0 0 746 55" fill="none" xmlns="http://www.w3.org/2000/svg">
<circle opacity="0.2" r="3.42964" transform="matrix(1 0 0 -1 192.656 51.2671)" fill="black"/>
<circle opacity="0.2" r="3.42964" transform="matrix(1 0 0 -1 239.986 51.2671)" fill="black"/>
<circle opacity="0.2" r="3.42964" transform="matrix(1 0 0 -1 208.432 51.2671)" fill="black"/>
<circle opacity="0.2" r="3.42964" transform="matrix(1 0 0 -1 255.762 51.2671)" fill="black"/>
<circle opacity="0.2" r="3.42964" transform="matrix(1 0 0 -1 224.209 51.2671)" fill="black"/>
<circle opacity="0.2" r="3.42964" transform="matrix(1 0 0 -1 271.537 51.2671)" fill="black"/>
<circle opacity="0.2" r="3.42964" transform="matrix(1 0 0 -1 287.223 51.2671)" fill="black"/>
<circle opacity="0.2" r="3.42964" transform="matrix(1 0 0 -1 334.553 51.2671)" fill="black"/>
<circle opacity="0.2" r="3.42964" transform="matrix(1 0 0 -1 302.998 51.2671)" fill="black"/>
<circle opacity="0.2" r="3.42964" transform="matrix(1 0 0 -1 350.328 51.2671)" fill="black"/>
<circle opacity="0.2" r="3.42964" transform="matrix(1 0 0 -1 318.775 51.2671)" fill="black"/>
<circle opacity="0.2" r="3.42964" transform="matrix(1 0 0 -1 366.103 51.2671)" fill="black"/>
<circle opacity="0.2" r="3.42964" transform="matrix(1 0 0 -1 192.656 19.7146)" fill="black"/>
<circle opacity="0.2" r="3.42964" transform="matrix(1 0 0 -1 239.986 19.7146)" fill="black"/>
<circle opacity="0.2" r="3.42964" transform="matrix(1 0 0 -1 208.432 19.7146)" fill="black"/>
<circle opacity="0.2" r="3.42964" transform="matrix(1 0 0 -1 255.762 19.7146)" fill="black"/>
<circle opacity="0.2" r="3.42964" transform="matrix(1 0 0 -1 224.209 19.7146)" fill="black"/>
<circle opacity="0.2" r="3.42964" transform="matrix(1 0 0 -1 271.537 19.7146)" fill="black"/>
<circle opacity="0.2" r="3.42964" transform="matrix(1 0 0 -1 287.223 19.7146)" fill="black"/>
<circle opacity="0.2" r="3.42964" transform="matrix(1 0 0 -1 334.553 19.7146)" fill="black"/>
<circle opacity="0.2" r="3.42964" transform="matrix(1 0 0 -1 302.998 19.7146)" fill="black"/>
<circle opacity="0.2" r="3.42964" transform="matrix(1 0 0 -1 350.328 19.7146)" fill="black"/>
<circle opacity="0.2" r="3.42964" transform="matrix(1 0 0 -1 318.775 19.7146)" fill="black"/>
<circle opacity="0.2" r="3.42964" transform="matrix(1 0 0 -1 366.103 19.7146)" fill="black"/>
<circle opacity="0.2" r="3.42964" transform="matrix(1 0 0 -1 192.656 35.4905)" fill="black"/>
<circle opacity="0.2" r="3.42964" transform="matrix(1 0 0 -1 239.986 35.4908)" fill="black"/>
<circle opacity="0.2" r="3.42964" transform="matrix(1 0 0 -1 208.432 35.4905)" fill="black"/>
<circle opacity="0.2" r="3.42964" transform="matrix(1 0 0 -1 255.762 35.4908)" fill="black"/>
<circle opacity="0.2" r="3.42964" transform="matrix(1 0 0 -1 224.209 35.4908)" fill="black"/>
<circle opacity="0.2" r="3.42964" transform="matrix(1 0 0 -1 271.537 35.4908)" fill="black"/>
<circle opacity="0.2" r="3.42964" transform="matrix(1 0 0 -1 287.223 35.4908)" fill="black"/>
<circle opacity="0.2" r="3.42964" transform="matrix(1 0 0 -1 302.998 35.4908)" fill="black"/>
<circle opacity="0.2" r="3.42964" transform="matrix(1 0 0 -1 350.328 35.4908)" fill="black"/>
<circle opacity="0.2" r="3.42964" transform="matrix(1 0 0 -1 318.775 35.4908)" fill="black"/>
<circle opacity="0.2" r="3.42964" transform="matrix(1 0 0 -1 334.508 35.4908)" fill="black"/>
<circle opacity="0.2" r="3.42964" transform="matrix(1 0 0 -1 366.103 35.4908)" fill="black"/>
<circle opacity="0.2" r="3.42964" transform="matrix(1 0 0 -1 192.654 3.93804)" fill="black"/>
<circle opacity="0.2" r="3.42964" transform="matrix(1 0 0 -1 239.984 3.93804)" fill="black"/>
<circle opacity="0.2" r="3.42964" transform="matrix(1 0 0 -1 208.43 3.93804)" fill="black"/>
<circle opacity="0.2" r="3.42964" transform="matrix(1 0 0 -1 255.76 3.93804)" fill="black"/>
<circle opacity="0.2" r="3.42964" transform="matrix(1 0 0 -1 224.207 3.93804)" fill="black"/>
<circle opacity="0.2" r="3.42964" transform="matrix(1 0 0 -1 271.535 3.93804)" fill="black"/>
<circle opacity="0.2" r="3.42964" transform="matrix(1 0 0 -1 287.223 3.93804)" fill="black"/>
<circle opacity="0.2" r="3.42964" transform="matrix(1 0 0 -1 334.553 3.93804)" fill="black"/>
<circle opacity="0.2" r="3.42964" transform="matrix(1 0 0 -1 302.998 3.93804)" fill="black"/>
<circle opacity="0.2" r="3.42964" transform="matrix(1 0 0 -1 350.328 3.93804)" fill="black"/>
<circle opacity="0.2" r="3.42964" transform="matrix(1 0 0 -1 318.775 3.93804)" fill="black"/>
<circle opacity="0.2" r="3.42964" transform="matrix(1 0 0 -1 366.103 3.93804)" fill="black"/>
<circle opacity="0.2" r="3.42964" transform="matrix(1 0 0 -1 569.121 51.2671)" fill="black"/>
<circle opacity="0.2" r="3.42964" transform="matrix(1 0 0 -1 616.451 51.2671)" fill="black"/>
<circle opacity="0.2" r="3.42964" transform="matrix(1 0 0 -1 584.896 51.2671)" fill="black"/>
<circle opacity="0.2" r="3.42964" transform="matrix(1 0 0 -1 632.227 51.2671)" fill="black"/>
<circle opacity="0.2" r="3.42964" transform="matrix(1 0 0 -1 600.674 51.2671)" fill="black"/>
<circle opacity="0.2" r="3.42964" transform="matrix(1 0 0 -1 648.002 51.2671)" fill="black"/>
<circle opacity="0.2" r="3.42964" transform="matrix(1 0 0 -1 663.689 51.2671)" fill="black"/>
<circle opacity="0.2" r="3.42964" transform="matrix(1 0 0 -1 711.019 51.2671)" fill="black"/>
<circle opacity="0.2" r="3.42964" transform="matrix(1 0 0 -1 679.465 51.2671)" fill="black"/>
<circle opacity="0.2" r="3.42964" transform="matrix(1 0 0 -1 726.795 51.2671)" fill="black"/>
<circle opacity="0.2" r="3.42964" transform="matrix(1 0 0 -1 695.242 51.2671)" fill="black"/>
<circle opacity="0.2" r="3.42964" transform="matrix(1 0 0 -1 742.57 51.2671)" fill="black"/>
<circle opacity="0.2" r="3.42964" transform="matrix(1 0 0 -1 569.121 19.7146)" fill="black"/>
<circle opacity="0.2" r="3.42964" transform="matrix(1 0 0 -1 616.451 19.7146)" fill="black"/>
<circle opacity="0.2" r="3.42964" transform="matrix(1 0 0 -1 584.896 19.7146)" fill="black"/>
<circle opacity="0.2" r="3.42964" transform="matrix(1 0 0 -1 632.227 19.7146)" fill="black"/>
<circle opacity="0.2" r="3.42964" transform="matrix(1 0 0 -1 600.674 19.7146)" fill="black"/>
<circle opacity="0.2" r="3.42964" transform="matrix(1 0 0 -1 648.002 19.7146)" fill="black"/>
<circle opacity="0.2" r="3.42964" transform="matrix(1 0 0 -1 663.689 19.7146)" fill="black"/>
<circle opacity="0.2" r="3.42964" transform="matrix(1 0 0 -1 711.019 19.7146)" fill="black"/>
<circle opacity="0.2" r="3.42964" transform="matrix(1 0 0 -1 679.465 19.7146)" fill="black"/>
<circle opacity="0.2" r="3.42964" transform="matrix(1 0 0 -1 726.795 19.7146)" fill="black"/>
<circle opacity="0.2" r="3.42964" transform="matrix(1 0 0 -1 695.242 19.7146)" fill="black"/>
<circle opacity="0.2" r="3.42964" transform="matrix(1 0 0 -1 742.57 19.7146)" fill="black"/>
<circle opacity="0.2" r="3.42964" transform="matrix(1 0 0 -1 569.121 35.491)" fill="black"/>
<circle opacity="0.2" r="3.42964" transform="matrix(1 0 0 -1 616.451 35.491)" fill="black"/>
<circle opacity="0.2" r="3.42964" transform="matrix(1 0 0 -1 584.896 35.491)" fill="black"/>
<circle opacity="0.2" r="3.42964" transform="matrix(1 0 0 -1 632.227 35.491)" fill="black"/>
<circle opacity="0.2" r="3.42964" transform="matrix(1 0 0 -1 600.674 35.491)" fill="black"/>
<circle opacity="0.2" r="3.42964" transform="matrix(1 0 0 -1 648.002 35.491)" fill="black"/>
<circle opacity="0.2" r="3.42964" transform="matrix(1 0 0 -1 663.689 35.491)" fill="black"/>
<circle opacity="0.2" r="3.42964" transform="matrix(1 0 0 -1 679.465 35.491)" fill="black"/>
<circle opacity="0.2" r="3.42964" transform="matrix(1 0 0 -1 726.795 35.491)" fill="black"/>
<circle opacity="0.2" r="3.42964" transform="matrix(1 0 0 -1 695.242 35.491)" fill="black"/>
<circle opacity="0.2" r="3.42964" transform="matrix(1 0 0 -1 710.975 35.491)" fill="black"/>
<circle opacity="0.2" r="3.42964" transform="matrix(1 0 0 -1 742.57 35.491)" fill="black"/>
<circle opacity="0.2" r="3.42964" transform="matrix(1 0 0 -1 569.121 3.93828)" fill="black"/>
<circle opacity="0.2" r="3.42964" transform="matrix(1 0 0 -1 616.451 3.93828)" fill="black"/>
<circle opacity="0.2" r="3.42964" transform="matrix(1 0 0 -1 584.896 3.93828)" fill="black"/>
<circle opacity="0.2" r="3.42964" transform="matrix(1 0 0 -1 632.227 3.93828)" fill="black"/>
<circle opacity="0.2" r="3.42964" transform="matrix(1 0 0 -1 600.674 3.93828)" fill="black"/>
<circle opacity="0.2" r="3.42964" transform="matrix(1 0 0 -1 648.002 3.93828)" fill="black"/>
<circle opacity="0.2" r="3.42964" transform="matrix(1 0 0 -1 663.689 3.93828)" fill="black"/>
<circle opacity="0.2" r="3.42964" transform="matrix(1 0 0 -1 711.019 3.93828)" fill="black"/>
<circle opacity="0.2" r="3.42964" transform="matrix(1 0 0 -1 679.465 3.93828)" fill="black"/>
<circle opacity="0.2" r="3.42964" transform="matrix(1 0 0 -1 726.795 3.93828)" fill="black"/>
<circle opacity="0.2" r="3.42964" transform="matrix(1 0 0 -1 695.242 3.93828)" fill="black"/>
<circle opacity="0.2" r="3.42964" transform="matrix(1 0 0 -1 742.57 3.93828)" fill="black"/>
<circle opacity="0.2" r="3.42964" transform="matrix(1 0 0 -1 3.43159 51.2671)" fill="black"/>
<circle opacity="0.2" r="3.42964" transform="matrix(1 0 0 -1 50.7617 51.2671)" fill="black"/>
<circle opacity="0.2" r="3.42964" transform="matrix(1 0 0 -1 19.207 51.2671)" fill="black"/>
<circle opacity="0.2" r="3.42964" transform="matrix(1 0 0 -1 66.5371 51.2671)" fill="black"/>
<circle opacity="0.2" r="3.42964" transform="matrix(1 0 0 -1 34.9843 51.2671)" fill="black"/>
<circle opacity="0.2" r="3.42964" transform="matrix(1 0 0 -1 82.3125 51.2671)" fill="black"/>
<circle opacity="0.2" r="3.42964" transform="matrix(1 0 0 -1 97.998 51.2671)" fill="black"/>
<circle opacity="0.2" r="3.42964" transform="matrix(1 0 0 -1 145.328 51.2671)" fill="black"/>
<circle opacity="0.2" r="3.42964" transform="matrix(1 0 0 -1 113.773 51.2671)" fill="black"/>
<circle opacity="0.2" r="3.42964" transform="matrix(1 0 0 -1 161.103 51.2671)" fill="black"/>
<circle opacity="0.2" r="3.42964" transform="matrix(1 0 0 -1 129.551 51.2671)" fill="black"/>
<circle opacity="0.2" r="3.42964" transform="matrix(1 0 0 -1 176.879 51.2671)" fill="black"/>
<circle opacity="0.2" r="3.42964" transform="matrix(1 0 0 -1 3.43159 19.7146)" fill="black"/>
<circle opacity="0.2" r="3.42964" transform="matrix(1 0 0 -1 50.7617 19.7146)" fill="black"/>
<circle opacity="0.2" r="3.42964" transform="matrix(1 0 0 -1 19.207 19.7146)" fill="black"/>
<circle opacity="0.2" r="3.42964" transform="matrix(1 0 0 -1 66.5371 19.7146)" fill="black"/>
<circle opacity="0.2" r="3.42964" transform="matrix(1 0 0 -1 34.9843 19.7146)" fill="black"/>
<circle opacity="0.2" r="3.42964" transform="matrix(1 0 0 -1 82.3125 19.7146)" fill="black"/>
<circle opacity="0.2" r="3.42964" transform="matrix(1 0 0 -1 97.998 19.7146)" fill="black"/>
<circle opacity="0.2" r="3.42964" transform="matrix(1 0 0 -1 145.328 19.7146)" fill="black"/>
<circle opacity="0.2" r="3.42964" transform="matrix(1 0 0 -1 113.773 19.7146)" fill="black"/>
<circle opacity="0.2" r="3.42964" transform="matrix(1 0 0 -1 161.103 19.7146)" fill="black"/>
<circle opacity="0.2" r="3.42964" transform="matrix(1 0 0 -1 129.551 19.7146)" fill="black"/>
<circle opacity="0.2" r="3.42964" transform="matrix(1 0 0 -1 176.879 19.7146)" fill="black"/>
<circle opacity="0.2" r="3.42964" transform="matrix(1 0 0 -1 3.43159 35.4905)" fill="black"/>
<circle opacity="0.2" r="3.42964" transform="matrix(1 0 0 -1 50.7617 35.4905)" fill="black"/>
<circle opacity="0.2" r="3.42964" transform="matrix(1 0 0 -1 19.207 35.4905)" fill="black"/>
<circle opacity="0.2" r="3.42964" transform="matrix(1 0 0 -1 66.5371 35.4905)" fill="black"/>
<circle opacity="0.2" r="3.42964" transform="matrix(1 0 0 -1 34.9843 35.4905)" fill="black"/>
<circle opacity="0.2" r="3.42964" transform="matrix(1 0 0 -1 82.3125 35.4905)" fill="black"/>
<circle opacity="0.2" r="3.42964" transform="matrix(1 0 0 -1 97.998 35.4908)" fill="black"/>
<circle opacity="0.2" r="3.42964" transform="matrix(1 0 0 -1 113.773 35.4908)" fill="black"/>
<circle opacity="0.2" r="3.42964" transform="matrix(1 0 0 -1 161.103 35.4908)" fill="black"/>
<circle opacity="0.2" r="3.42964" transform="matrix(1 0 0 -1 129.551 35.4908)" fill="black"/>
<circle opacity="0.2" r="3.42964" transform="matrix(1 0 0 -1 145.283 35.4908)" fill="black"/>
<circle opacity="0.2" r="3.42964" transform="matrix(1 0 0 -1 176.879 35.4908)" fill="black"/>
<circle opacity="0.2" r="3.42964" transform="matrix(1 0 0 -1 3.43159 3.93804)" fill="black"/>
<circle opacity="0.2" r="3.42964" transform="matrix(1 0 0 -1 50.7617 3.93804)" fill="black"/>
<circle opacity="0.2" r="3.42964" transform="matrix(1 0 0 -1 19.207 3.93804)" fill="black"/>
<circle opacity="0.2" r="3.42964" transform="matrix(1 0 0 -1 66.5371 3.93804)" fill="black"/>
<circle opacity="0.2" r="3.42964" transform="matrix(1 0 0 -1 34.9843 3.93804)" fill="black"/>
<circle opacity="0.2" r="3.42964" transform="matrix(1 0 0 -1 82.3125 3.93804)" fill="black"/>
<circle opacity="0.2" r="3.42964" transform="matrix(1 0 0 -1 97.998 3.93804)" fill="black"/>
<circle opacity="0.2" r="3.42964" transform="matrix(1 0 0 -1 145.328 3.93804)" fill="black"/>
<circle opacity="0.2" r="3.42964" transform="matrix(1 0 0 -1 113.773 3.93804)" fill="black"/>
<circle opacity="0.2" r="3.42964" transform="matrix(1 0 0 -1 161.103 3.93804)" fill="black"/>
<circle opacity="0.2" r="3.42964" transform="matrix(1 0 0 -1 129.551 3.93804)" fill="black"/>
<circle opacity="0.2" r="3.42964" transform="matrix(1 0 0 -1 176.879 3.93804)" fill="black"/>
<circle opacity="0.2" r="3.42964" transform="matrix(1 0 0 -1 379.898 51.2671)" fill="black"/>
<circle opacity="0.2" r="3.42964" transform="matrix(1 0 0 -1 427.228 51.2671)" fill="black"/>
<circle opacity="0.2" r="3.42964" transform="matrix(1 0 0 -1 395.674 51.2671)" fill="black"/>
<circle opacity="0.2" r="3.42964" transform="matrix(1 0 0 -1 443.004 51.2671)" fill="black"/>
<circle opacity="0.2" r="3.42964" transform="matrix(1 0 0 -1 411.451 51.2671)" fill="black"/>
<circle opacity="0.2" r="3.42964" transform="matrix(1 0 0 -1 458.779 51.2671)" fill="black"/>
<circle opacity="0.2" r="3.42964" transform="matrix(1 0 0 -1 474.467 51.2671)" fill="black"/>
<circle opacity="0.2" r="3.42964" transform="matrix(1 0 0 -1 521.797 51.2671)" fill="black"/>
<circle opacity="0.2" r="3.42964" transform="matrix(1 0 0 -1 490.242 51.2671)" fill="black"/>
<circle opacity="0.2" r="3.42964" transform="matrix(1 0 0 -1 537.572 51.2671)" fill="black"/>
<circle opacity="0.2" r="3.42964" transform="matrix(1 0 0 -1 506.019 51.2671)" fill="black"/>
<circle opacity="0.2" r="3.42964" transform="matrix(1 0 0 -1 553.348 51.2671)" fill="black"/>
<circle opacity="0.2" r="3.42964" transform="matrix(1 0 0 -1 379.898 19.7146)" fill="black"/>
<circle opacity="0.2" r="3.42964" transform="matrix(1 0 0 -1 427.228 19.7146)" fill="black"/>
<circle opacity="0.2" r="3.42964" transform="matrix(1 0 0 -1 395.674 19.7146)" fill="black"/>
<circle opacity="0.2" r="3.42964" transform="matrix(1 0 0 -1 443.004 19.7146)" fill="black"/>
<circle opacity="0.2" r="3.42964" transform="matrix(1 0 0 -1 411.451 19.7146)" fill="black"/>
<circle opacity="0.2" r="3.42964" transform="matrix(1 0 0 -1 458.779 19.7146)" fill="black"/>
<circle opacity="0.2" r="3.42964" transform="matrix(1 0 0 -1 474.467 19.7146)" fill="black"/>
<circle opacity="0.2" r="3.42964" transform="matrix(1 0 0 -1 521.797 19.7146)" fill="black"/>
<circle opacity="0.2" r="3.42964" transform="matrix(1 0 0 -1 490.242 19.7146)" fill="black"/>
<circle opacity="0.2" r="3.42964" transform="matrix(1 0 0 -1 537.572 19.7146)" fill="black"/>
<circle opacity="0.2" r="3.42964" transform="matrix(1 0 0 -1 506.019 19.7146)" fill="black"/>
<circle opacity="0.2" r="3.42964" transform="matrix(1 0 0 -1 553.348 19.7146)" fill="black"/>
<circle opacity="0.2" r="3.42964" transform="matrix(1 0 0 -1 379.898 35.491)" fill="black"/>
<circle opacity="0.2" r="3.42964" transform="matrix(1 0 0 -1 427.228 35.491)" fill="black"/>
<circle opacity="0.2" r="3.42964" transform="matrix(1 0 0 -1 395.674 35.491)" fill="black"/>
<circle opacity="0.2" r="3.42964" transform="matrix(1 0 0 -1 443.004 35.491)" fill="black"/>
<circle opacity="0.2" r="3.42964" transform="matrix(1 0 0 -1 411.451 35.491)" fill="black"/>
<circle opacity="0.2" r="3.42964" transform="matrix(1 0 0 -1 458.779 35.491)" fill="black"/>
<circle opacity="0.2" r="3.42964" transform="matrix(1 0 0 -1 474.467 35.491)" fill="black"/>
<circle opacity="0.2" r="3.42964" transform="matrix(1 0 0 -1 490.242 35.491)" fill="black"/>
<circle opacity="0.2" r="3.42964" transform="matrix(1 0 0 -1 537.572 35.491)" fill="black"/>
<circle opacity="0.2" r="3.42964" transform="matrix(1 0 0 -1 506.019 35.491)" fill="black"/>
<circle opacity="0.2" r="3.42964" transform="matrix(1 0 0 -1 521.752 35.491)" fill="black"/>
<circle opacity="0.2" r="3.42964" transform="matrix(1 0 0 -1 553.348 35.491)" fill="black"/>
<circle opacity="0.2" r="3.42964" transform="matrix(1 0 0 -1 379.898 3.93828)" fill="black"/>
<circle opacity="0.2" r="3.42964" transform="matrix(1 0 0 -1 427.228 3.93828)" fill="black"/>
<circle opacity="0.2" r="3.42964" transform="matrix(1 0 0 -1 395.674 3.93828)" fill="black"/>
<circle opacity="0.2" r="3.42964" transform="matrix(1 0 0 -1 443.004 3.93828)" fill="black"/>
<circle opacity="0.2" r="3.42964" transform="matrix(1 0 0 -1 411.451 3.93828)" fill="black"/>
<circle opacity="0.2" r="3.42964" transform="matrix(1 0 0 -1 458.779 3.93828)" fill="black"/>
<circle opacity="0.2" r="3.42964" transform="matrix(1 0 0 -1 474.467 3.93828)" fill="black"/>
<circle opacity="0.2" r="3.42964" transform="matrix(1 0 0 -1 521.797 3.93828)" fill="black"/>
<circle opacity="0.2" r="3.42964" transform="matrix(1 0 0 -1 490.242 3.93828)" fill="black"/>
<circle opacity="0.2" r="3.42964" transform="matrix(1 0 0 -1 537.572 3.93828)" fill="black"/>
<circle opacity="0.2" r="3.42964" transform="matrix(1 0 0 -1 506.019 3.93828)" fill="black"/>
<circle opacity="0.2" r="3.42964" transform="matrix(1 0 0 -1 553.348 3.93828)" fill="black"/>
</svg>
