<svg width="272" height="482" viewBox="0 0 272 482" fill="none" xmlns="http://www.w3.org/2000/svg">
<circle opacity="0.2" cx="16.5124" cy="5.44" r="5.44" fill="black"/>
<circle opacity="0.2" cx="41.5363" cy="5.44" r="5.44" fill="black"/>
<circle opacity="0.2" cx="66.5604" cy="5.44" r="5.44" fill="black"/>
<circle opacity="0.2" cx="91.4404" cy="5.44" r="5.44" fill="black"/>
<circle opacity="0.2" cx="166.512" cy="5.44" r="5.44" fill="black"/>
<circle opacity="0.2" cx="116.464" cy="5.44" r="5.44" fill="black"/>
<circle opacity="0.2" cx="141.488" cy="5.44" r="5.44" fill="black"/>
<circle opacity="0.2" cx="16.5124" cy="55.488" r="5.44" fill="black"/>
<circle opacity="0.2" cx="41.5363" cy="55.488" r="5.44" fill="black"/>
<circle opacity="0.2" cx="66.5604" cy="55.488" r="5.44" fill="black"/>
<circle opacity="0.2" cx="91.4405" cy="55.488" r="5.44" fill="black"/>
<circle opacity="0.2" cx="116.464" cy="55.488" r="5.44" fill="black"/>
<circle opacity="0.2" cx="191.536" cy="55.488" r="5.44" fill="black"/>
<circle opacity="0.2" cx="141.488" cy="55.488" r="5.44" fill="black"/>
<circle opacity="0.2" cx="16.5124" cy="30.464" r="5.44" fill="black"/>
<circle opacity="0.2" cx="41.5363" cy="30.464" r="5.44" fill="black"/>
<circle opacity="0.2" cx="66.5604" cy="30.464" r="5.44" fill="black"/>
<circle opacity="0.2" cx="91.4405" cy="30.464" r="5.44" fill="black"/>
<circle opacity="0.2" cx="166.512" cy="30.464" r="5.44" fill="black"/>
<circle opacity="0.2" cx="116.464" cy="30.464" r="5.44" fill="black"/>
<circle opacity="0.2" cx="191.536" cy="30.464" r="5.44" fill="black"/>
<circle opacity="0.2" cx="141.488" cy="30.464" r="5.44" fill="black"/>
<circle opacity="0.2" cx="16.5124" cy="80.512" r="5.44" fill="black"/>
<circle opacity="0.2" cx="41.5363" cy="80.512" r="5.44" fill="black"/>
<circle opacity="0.2" cx="66.5604" cy="80.512" r="5.44" fill="black"/>
<circle opacity="0.2" cx="91.4404" cy="80.512" r="5.44" fill="black"/>
<circle opacity="0.2" cx="166.512" cy="80.512" r="5.44" fill="black"/>
<circle opacity="0.2" cx="116.464" cy="80.512" r="5.44" fill="black"/>
<circle opacity="0.2" cx="191.536" cy="80.512" r="5.44" fill="black"/>
<circle opacity="0.2" cx="141.488" cy="80.512" r="5.44" fill="black"/>
<circle opacity="0.2" cx="216.56" cy="5.44" r="5.44" fill="black"/>
<circle opacity="0.2" cx="216.56" cy="30.464" r="5.44" fill="black"/>
<circle opacity="0.2" cx="216.56" cy="80.512" r="5.44" fill="black"/>
<circle opacity="0.2" cx="241.44" cy="30.464" r="5.44" fill="black"/>
<circle opacity="0.2" cx="241.44" cy="80.512" r="5.44" fill="black"/>
<circle opacity="0.2" cx="266.44" cy="80.5119" r="5.44" fill="black"/>
<circle opacity="0.2" cx="266.44" cy="302.44" r="5.44" fill="black"/>
<circle opacity="0.2" cx="241.44" cy="154.488" r="5.44" fill="black"/>
<circle opacity="0.2" cx="241.44" cy="129.464" r="5.44" fill="black"/>
<circle opacity="0.2" cx="266.44" cy="154.44" r="5.44" fill="black"/>
<circle opacity="0.2" cx="266.44" cy="228.44" r="5.44" fill="black"/>
<circle opacity="0.2" cx="241.44" cy="179.512" r="5.44" fill="black"/>
<circle opacity="0.2" cx="241.44" cy="302.44" r="5.44" fill="black"/>
<circle opacity="0.2" cx="241.44" cy="352.488" r="5.44" fill="black"/>
<circle opacity="0.2" cx="266.44" cy="377.512" r="5.44" fill="black"/>
<circle opacity="0.2" cx="241.44" cy="253.488" r="5.44" fill="black"/>
<circle opacity="0.2" cx="241.44" cy="228.464" r="5.44" fill="black"/>
<circle opacity="0.2" cx="241.44" cy="401.44" r="5.44" fill="black"/>
<circle opacity="0.2" cx="241.44" cy="451.44" r="5.44" fill="black"/>
<circle opacity="0.2" cx="216.44" cy="476.512" r="5.44" fill="black"/>
<circle opacity="0.2" cx="266.44" cy="476.512" r="5.44" fill="black"/>
<circle opacity="0.2" cx="16.5124" cy="203.44" r="5.44" fill="black"/>
<circle opacity="0.2" cx="41.5363" cy="203.44" r="5.44" fill="black"/>
<circle opacity="0.2" cx="66.5604" cy="203.44" r="5.44" fill="black"/>
<circle opacity="0.2" cx="91.4404" cy="203.44" r="5.44" fill="black"/>
<circle opacity="0.2" cx="166.512" cy="203.44" r="5.44" fill="black"/>
<circle opacity="0.2" cx="116.464" cy="203.44" r="5.44" fill="black"/>
<circle opacity="0.2" cx="191.536" cy="203.44" r="5.44" fill="black"/>
<circle opacity="0.2" cx="141.488" cy="203.44" r="5.44" fill="black"/>
<circle opacity="0.2" cx="216.56" cy="203.44" r="5.44" fill="black"/>
<circle opacity="0.2" cx="16.5124" cy="253.488" r="5.44" fill="black"/>
<circle opacity="0.2" cx="41.5363" cy="253.488" r="5.44" fill="black"/>
<circle opacity="0.2" cx="66.5604" cy="253.488" r="5.44" fill="black"/>
<circle opacity="0.2" cx="91.4404" cy="253.488" r="5.44" fill="black"/>
<circle opacity="0.2" cx="166.512" cy="253.488" r="5.44" fill="black"/>
<circle opacity="0.2" cx="116.464" cy="253.488" r="5.44" fill="black"/>
<circle opacity="0.2" cx="191.536" cy="253.488" r="5.44" fill="black"/>
<circle opacity="0.2" cx="141.488" cy="253.488" r="5.44" fill="black"/>
<circle opacity="0.2" cx="216.56" cy="253.488" r="5.44" fill="black"/>
<circle opacity="0.2" cx="16.5124" cy="228.464" r="5.44" fill="black"/>
<circle opacity="0.2" cx="41.5363" cy="228.464" r="5.44" fill="black"/>
<circle opacity="0.2" cx="66.5604" cy="228.464" r="5.44" fill="black"/>
<circle opacity="0.2" cx="91.4404" cy="228.464" r="5.44" fill="black"/>
<circle opacity="0.2" cx="166.512" cy="228.464" r="5.44" fill="black"/>
<circle opacity="0.2" cx="116.464" cy="228.464" r="5.44" fill="black"/>
<circle opacity="0.2" cx="141.488" cy="228.464" r="5.44" fill="black"/>
<circle opacity="0.2" cx="216.56" cy="228.464" r="5.44" fill="black"/>
<circle opacity="0.2" cx="16.5124" cy="278.512" r="5.44" fill="black"/>
<circle opacity="0.2" cx="41.5363" cy="278.512" r="5.44" fill="black"/>
<circle opacity="0.2" cx="66.5604" cy="278.512" r="5.44" fill="black"/>
<circle opacity="0.2" cx="91.4404" cy="278.512" r="5.44" fill="black"/>
<circle opacity="0.2" cx="166.512" cy="278.512" r="5.44" fill="black"/>
<circle opacity="0.2" cx="116.464" cy="278.512" r="5.44" fill="black"/>
<circle opacity="0.2" cx="191.536" cy="278.512" r="5.44" fill="black"/>
<circle opacity="0.2" cx="141.488" cy="278.512" r="5.44" fill="black"/>
<circle opacity="0.2" cx="216.56" cy="278.512" r="5.44" fill="black"/>
<circle opacity="0.2" cx="16.5124" cy="104.44" r="5.44" fill="black"/>
<circle opacity="0.2" cx="41.5363" cy="104.44" r="5.44" fill="black"/>
<circle opacity="0.2" cx="66.5604" cy="104.44" r="5.44" fill="black"/>
<circle opacity="0.2" cx="91.4404" cy="104.44" r="5.44" fill="black"/>
<circle opacity="0.2" cx="166.512" cy="104.44" r="5.44" fill="black"/>
<circle opacity="0.2" cx="116.464" cy="104.44" r="5.44" fill="black"/>
<circle opacity="0.2" cx="191.536" cy="104.44" r="5.44" fill="black"/>
<circle opacity="0.2" cx="141.488" cy="104.44" r="5.44" fill="black"/>
<circle opacity="0.2" cx="216.56" cy="104.44" r="5.44" fill="black"/>
<circle opacity="0.2" cx="16.5124" cy="154.488" r="5.44" fill="black"/>
<circle opacity="0.2" cx="41.5363" cy="154.488" r="5.44" fill="black"/>
<circle opacity="0.2" cx="66.5604" cy="154.488" r="5.44" fill="black"/>
<circle opacity="0.2" cx="91.4404" cy="154.488" r="5.44" fill="black"/>
<circle opacity="0.2" cx="166.512" cy="154.488" r="5.44" fill="black"/>
<circle opacity="0.2" cx="116.464" cy="154.488" r="5.44" fill="black"/>
<circle opacity="0.2" cx="191.536" cy="154.488" r="5.44" fill="black"/>
<circle opacity="0.2" cx="141.488" cy="154.488" r="5.44" fill="black"/>
<circle opacity="0.2" cx="216.56" cy="154.488" r="5.44" fill="black"/>
<circle opacity="0.2" cx="16.5124" cy="129.464" r="5.44" fill="black"/>
<circle opacity="0.2" cx="41.5363" cy="129.464" r="5.44" fill="black"/>
<circle opacity="0.2" cx="66.5604" cy="129.464" r="5.44" fill="black"/>
<circle opacity="0.2" cx="91.4404" cy="129.464" r="5.44" fill="black"/>
<circle opacity="0.2" cx="166.512" cy="129.464" r="5.44" fill="black"/>
<circle opacity="0.2" cx="116.464" cy="129.464" r="5.44" fill="black"/>
<circle opacity="0.2" cx="191.536" cy="129.464" r="5.44" fill="black"/>
<circle opacity="0.2" cx="141.488" cy="129.464" r="5.44" fill="black"/>
<circle opacity="0.2" cx="16.5124" cy="179.512" r="5.44" fill="black"/>
<circle opacity="0.2" cx="41.5363" cy="179.512" r="5.44" fill="black"/>
<circle opacity="0.2" cx="66.5604" cy="179.512" r="5.44" fill="black"/>
<circle opacity="0.2" cx="91.4404" cy="179.512" r="5.44" fill="black"/>
<circle opacity="0.2" cx="166.512" cy="179.512" r="5.44" fill="black"/>
<circle opacity="0.2" cx="116.464" cy="179.512" r="5.44" fill="black"/>
<circle opacity="0.2" cx="191.536" cy="179.512" r="5.44" fill="black"/>
<circle opacity="0.2" cx="216.56" cy="179.512" r="5.44" fill="black"/>
<circle opacity="0.2" cx="16.5124" cy="302.44" r="5.44" fill="black"/>
<circle opacity="0.2" cx="41.5363" cy="302.44" r="5.44" fill="black"/>
<circle opacity="0.2" cx="66.5604" cy="302.44" r="5.44" fill="black"/>
<circle opacity="0.2" cx="91.4404" cy="302.44" r="5.44" fill="black"/>
<circle opacity="0.2" cx="166.512" cy="302.44" r="5.44" fill="black"/>
<circle opacity="0.2" cx="116.464" cy="302.44" r="5.44" fill="black"/>
<circle opacity="0.2" cx="191.536" cy="302.44" r="5.44" fill="black"/>
<circle opacity="0.2" cx="141.488" cy="302.44" r="5.44" fill="black"/>
<circle opacity="0.2" cx="216.56" cy="302.44" r="5.44" fill="black"/>
<circle opacity="0.2" cx="16.5124" cy="352.488" r="5.44" fill="black"/>
<circle opacity="0.2" cx="41.5363" cy="352.488" r="5.44" fill="black"/>
<circle opacity="0.2" cx="66.5604" cy="352.488" r="5.44" fill="black"/>
<circle opacity="0.2" cx="91.4404" cy="352.488" r="5.44" fill="black"/>
<circle opacity="0.2" cx="166.512" cy="352.488" r="5.44" fill="black"/>
<circle opacity="0.2" cx="116.464" cy="352.488" r="5.44" fill="black"/>
<circle opacity="0.2" cx="191.536" cy="352.488" r="5.44" fill="black"/>
<circle opacity="0.2" cx="141.488" cy="352.488" r="5.44" fill="black"/>
<circle opacity="0.2" cx="216.56" cy="352.488" r="5.44" fill="black"/>
<circle opacity="0.2" cx="16.5124" cy="327.464" r="5.44" fill="black"/>
<circle opacity="0.2" cx="41.5363" cy="327.464" r="5.44" fill="black"/>
<circle opacity="0.2" cx="66.5604" cy="327.464" r="5.44" fill="black"/>
<circle opacity="0.2" cx="91.4404" cy="327.464" r="5.44" fill="black"/>
<circle opacity="0.2" cx="116.464" cy="327.464" r="5.44" fill="black"/>
<circle opacity="0.2" cx="191.536" cy="327.464" r="5.44" fill="black"/>
<circle opacity="0.2" cx="141.488" cy="327.464" r="5.44" fill="black"/>
<circle opacity="0.2" cx="216.56" cy="327.464" r="5.44" fill="black"/>
<circle opacity="0.2" cx="16.5124" cy="377.512" r="5.44" fill="black"/>
<circle opacity="0.2" cx="41.5363" cy="377.512" r="5.44" fill="black"/>
<circle opacity="0.2" cx="66.5604" cy="377.512" r="5.44" fill="black"/>
<circle opacity="0.2" cx="91.4404" cy="377.512" r="5.44" fill="black"/>
<circle opacity="0.2" cx="166.512" cy="377.512" r="5.44" fill="black"/>
<circle opacity="0.2" cx="116.464" cy="377.512" r="5.44" fill="black"/>
<circle opacity="0.2" cx="191.536" cy="377.512" r="5.44" fill="black"/>
<circle opacity="0.2" cx="141.488" cy="377.512" r="5.44" fill="black"/>
<circle opacity="0.2" cx="216.56" cy="377.512" r="5.44" fill="black"/>
<circle opacity="0.2" cx="16.5124" cy="401.44" r="5.44" fill="black"/>
<circle opacity="0.2" cx="41.5363" cy="401.44" r="5.44" fill="black"/>
<circle opacity="0.2" cx="66.5604" cy="401.44" r="5.44" fill="black"/>
<circle opacity="0.2" cx="91.4404" cy="401.44" r="5.44" fill="black"/>
<circle opacity="0.2" cx="166.512" cy="401.44" r="5.44" fill="black"/>
<circle opacity="0.2" cx="116.464" cy="401.44" r="5.44" fill="black"/>
<circle opacity="0.2" cx="141.488" cy="401.44" r="5.44" fill="black"/>
<circle opacity="0.2" cx="216.56" cy="401.44" r="5.44" fill="black"/>
<circle opacity="0.2" cx="16.5124" cy="451.488" r="5.44" fill="black"/>
<circle opacity="0.2" cx="41.5363" cy="451.488" r="5.44" fill="black"/>
<circle opacity="0.2" cx="66.5604" cy="451.488" r="5.44" fill="black"/>
<circle opacity="0.2" cx="91.4404" cy="451.488" r="5.44" fill="black"/>
<circle opacity="0.2" cx="166.512" cy="451.488" r="5.44" fill="black"/>
<circle opacity="0.2" cx="116.464" cy="451.488" r="5.44" fill="black"/>
<circle opacity="0.2" cx="191.536" cy="451.488" r="5.44" fill="black"/>
<circle opacity="0.2" cx="141.488" cy="451.488" r="5.44" fill="black"/>
<circle opacity="0.2" cx="16.5124" cy="426.464" r="5.44" fill="black"/>
<circle opacity="0.2" cx="41.5363" cy="426.464" r="5.44" fill="black"/>
<circle opacity="0.2" cx="66.5604" cy="426.464" r="5.44" fill="black"/>
<circle opacity="0.2" cx="91.4404" cy="426.464" r="5.44" fill="black"/>
<circle opacity="0.2" cx="166.512" cy="426.464" r="5.44" fill="black"/>
<circle opacity="0.2" cx="116.464" cy="426.464" r="5.44" fill="black"/>
<circle opacity="0.2" cx="191.536" cy="426.464" r="5.44" fill="black"/>
<circle opacity="0.2" cx="141.488" cy="426.464" r="5.44" fill="black"/>
<circle opacity="0.2" cx="216.56" cy="426.464" r="5.44" fill="black"/>
<circle opacity="0.2" cx="16.5124" cy="476.512" r="5.44" fill="black"/>
<circle opacity="0.2" cx="41.5363" cy="476.512" r="5.44" fill="black"/>
<circle opacity="0.2" cx="66.5604" cy="476.512" r="5.44" fill="black"/>
<circle opacity="0.2" cx="91.4404" cy="476.512" r="5.44" fill="black"/>
<circle opacity="0.2" cx="166.512" cy="476.512" r="5.44" fill="black"/>
<circle opacity="0.2" cx="116.464" cy="476.512" r="5.44" fill="black"/>
<circle opacity="0.2" cx="191.536" cy="476.512" r="5.44" fill="black"/>
<circle opacity="0.2" cx="141.488" cy="476.512" r="5.44" fill="black"/>
</svg>
