<svg width="436" height="284" viewBox="0 0 436 284" fill="none" xmlns="http://www.w3.org/2000/svg">
<circle opacity="0.2" r="5.44" transform="matrix(-1 0 0 1 430.56 203.44)" fill="black"/>
<circle opacity="0.2" r="5.44" transform="matrix(-1 0 0 1 355.488 203.44)" fill="black"/>
<circle opacity="0.2" r="5.44" transform="matrix(-1 0 0 1 405.536 203.44)" fill="black"/>
<circle opacity="0.2" r="5.44" transform="matrix(-1 0 0 1 330.464 203.44)" fill="black"/>
<circle opacity="0.2" r="5.44" transform="matrix(-1 0 0 1 380.512 203.44)" fill="black"/>
<circle opacity="0.2" r="5.44" transform="matrix(-1 0 0 1 305.44 203.44)" fill="black"/>
<circle opacity="0.2" r="5.44" transform="matrix(-1 0 0 1 280.56 203.44)" fill="black"/>
<circle opacity="0.2" r="5.44" transform="matrix(-1 0 0 1 205.488 203.44)" fill="black"/>
<circle opacity="0.2" r="5.44" transform="matrix(-1 0 0 1 255.536 203.44)" fill="black"/>
<circle opacity="0.2" r="5.44" transform="matrix(-1 0 0 1 180.464 203.44)" fill="black"/>
<circle opacity="0.2" r="5.44" transform="matrix(-1 0 0 1 230.512 203.44)" fill="black"/>
<circle opacity="0.2" r="5.44" transform="matrix(-1 0 0 1 155.44 203.44)" fill="black"/>
<circle opacity="0.2" r="5.44" transform="matrix(-1 0 0 1 430.56 253.488)" fill="black"/>
<circle opacity="0.2" r="5.44" transform="matrix(-1 0 0 1 355.488 253.488)" fill="black"/>
<circle opacity="0.2" r="5.44" transform="matrix(-1 0 0 1 405.536 253.488)" fill="black"/>
<circle opacity="0.2" r="5.44" transform="matrix(-1 0 0 1 330.464 253.488)" fill="black"/>
<circle opacity="0.2" r="5.44" transform="matrix(-1 0 0 1 380.512 253.488)" fill="black"/>
<circle opacity="0.2" r="5.44" transform="matrix(-1 0 0 1 305.44 253.488)" fill="black"/>
<circle opacity="0.2" r="5.44" transform="matrix(-1 0 0 1 280.56 253.488)" fill="black"/>
<circle opacity="0.2" r="5.44" transform="matrix(-1 0 0 1 205.488 253.488)" fill="black"/>
<circle opacity="0.2" r="5.44" transform="matrix(-1 0 0 1 255.536 253.488)" fill="black"/>
<circle opacity="0.2" r="5.44" transform="matrix(-1 0 0 1 180.464 253.488)" fill="black"/>
<circle opacity="0.2" r="5.44" transform="matrix(-1 0 0 1 230.512 253.488)" fill="black"/>
<circle opacity="0.2" r="5.44" transform="matrix(-1 0 0 1 155.44 253.488)" fill="black"/>
<circle opacity="0.2" r="5.44" transform="matrix(-1 0 0 1 430.56 228.464)" fill="black"/>
<circle opacity="0.2" r="5.44" transform="matrix(-1 0 0 1 355.488 228.464)" fill="black"/>
<circle opacity="0.2" r="5.44" transform="matrix(-1 0 0 1 405.536 228.464)" fill="black"/>
<circle opacity="0.2" r="5.44" transform="matrix(-1 0 0 1 330.464 228.464)" fill="black"/>
<circle opacity="0.2" r="5.44" transform="matrix(-1 0 0 1 380.512 228.464)" fill="black"/>
<circle opacity="0.2" r="5.44" transform="matrix(-1 0 0 1 305.44 228.464)" fill="black"/>
<circle opacity="0.2" r="5.44" transform="matrix(-1 0 0 1 280.56 228.464)" fill="black"/>
<circle opacity="0.2" r="5.44" transform="matrix(-1 0 0 1 255.536 228.464)" fill="black"/>
<circle opacity="0.2" r="5.44" transform="matrix(-1 0 0 1 180.464 228.464)" fill="black"/>
<circle opacity="0.2" r="5.44" transform="matrix(-1 0 0 1 230.512 228.464)" fill="black"/>
<circle opacity="0.2" r="5.44" transform="matrix(-1 0 0 1 155.44 228.464)" fill="black"/>
<circle opacity="0.2" r="5.44" transform="matrix(-1 0 0 1 430.56 278.512)" fill="black"/>
<circle opacity="0.2" r="5.44" transform="matrix(-1 0 0 1 355.488 278.512)" fill="black"/>
<circle opacity="0.2" r="5.44" transform="matrix(-1 0 0 1 405.536 278.512)" fill="black"/>
<circle opacity="0.2" r="5.44" transform="matrix(-1 0 0 1 330.464 278.512)" fill="black"/>
<circle opacity="0.2" r="5.44" transform="matrix(-1 0 0 1 380.512 278.512)" fill="black"/>
<circle opacity="0.2" r="5.44" transform="matrix(-1 0 0 1 305.44 278.512)" fill="black"/>
<circle opacity="0.2" r="5.44" transform="matrix(-1 0 0 1 280.56 278.512)" fill="black"/>
<circle opacity="0.2" r="5.44" transform="matrix(-1 0 0 1 205.488 278.512)" fill="black"/>
<circle opacity="0.2" r="5.44" transform="matrix(-1 0 0 1 255.536 278.512)" fill="black"/>
<circle opacity="0.2" r="5.44" transform="matrix(-1 0 0 1 180.464 278.512)" fill="black"/>
<circle opacity="0.2" r="5.44" transform="matrix(-1 0 0 1 230.512 278.512)" fill="black"/>
<circle opacity="0.2" r="5.44" transform="matrix(-1 0 0 1 155.44 278.512)" fill="black"/>
<circle opacity="0.2" r="5.44" transform="matrix(-1 0 0 1 130.56 278.512)" fill="black"/>
<circle opacity="0.2" r="5.44" transform="matrix(-1 0 0 1 55.4877 278.512)" fill="black"/>
<circle opacity="0.2" r="5.44" transform="matrix(-1 0 0 1 105.536 278.512)" fill="black"/>
<circle opacity="0.2" r="5.44" transform="matrix(-1 0 0 1 30.4643 278.512)" fill="black"/>
<circle opacity="0.2" r="5.44" transform="matrix(-1 0 0 1 80.5121 278.512)" fill="black"/>
<circle opacity="0.2" r="5.44" transform="matrix(-1 0 0 1 5.43988 278.512)" fill="black"/>
<circle opacity="0.2" r="5.44" transform="matrix(-1 0 0 1 430.56 104.44)" fill="black"/>
<circle opacity="0.2" r="5.44" transform="matrix(-1 0 0 1 355.488 104.44)" fill="black"/>
<circle opacity="0.2" r="5.44" transform="matrix(-1 0 0 1 405.536 104.44)" fill="black"/>
<circle opacity="0.2" r="5.44" transform="matrix(-1 0 0 1 330.464 104.44)" fill="black"/>
<circle opacity="0.2" r="5.44" transform="matrix(-1 0 0 1 380.512 104.44)" fill="black"/>
<circle opacity="0.2" r="5.44" transform="matrix(-1 0 0 1 305.44 104.44)" fill="black"/>
<circle opacity="0.2" r="5.44" transform="matrix(-1 0 0 1 280.56 104.44)" fill="black"/>
<circle opacity="0.2" r="5.44" transform="matrix(-1 0 0 1 205.488 104.44)" fill="black"/>
<circle opacity="0.2" r="5.44" transform="matrix(-1 0 0 1 255.536 104.44)" fill="black"/>
<circle opacity="0.2" r="5.44" transform="matrix(-1 0 0 1 180.464 104.44)" fill="black"/>
<circle opacity="0.2" r="5.44" transform="matrix(-1 0 0 1 230.512 104.44)" fill="black"/>
<circle opacity="0.2" r="5.44" transform="matrix(-1 0 0 1 155.44 104.44)" fill="black"/>
<circle opacity="0.2" r="5.44" transform="matrix(-1 0 0 1 430.56 154.488)" fill="black"/>
<circle opacity="0.2" r="5.44" transform="matrix(-1 0 0 1 355.488 154.488)" fill="black"/>
<circle opacity="0.2" r="5.44" transform="matrix(-1 0 0 1 405.536 154.488)" fill="black"/>
<circle opacity="0.2" r="5.44" transform="matrix(-1 0 0 1 330.464 154.488)" fill="black"/>
<circle opacity="0.2" r="5.44" transform="matrix(-1 0 0 1 380.512 154.488)" fill="black"/>
<circle opacity="0.2" r="5.44" transform="matrix(-1 0 0 1 305.44 154.488)" fill="black"/>
<circle opacity="0.2" r="5.44" transform="matrix(-1 0 0 1 280.56 154.488)" fill="black"/>
<circle opacity="0.2" r="5.44" transform="matrix(-1 0 0 1 205.488 154.488)" fill="black"/>
<circle opacity="0.2" r="5.44" transform="matrix(-1 0 0 1 255.536 154.488)" fill="black"/>
<circle opacity="0.2" r="5.44" transform="matrix(-1 0 0 1 180.464 154.488)" fill="black"/>
<circle opacity="0.2" r="5.44" transform="matrix(-1 0 0 1 230.512 154.488)" fill="black"/>
<circle opacity="0.2" r="5.44" transform="matrix(-1 0 0 1 155.44 154.488)" fill="black"/>
<circle opacity="0.2" r="5.44" transform="matrix(-1 0 0 1 430.56 129.464)" fill="black"/>
<circle opacity="0.2" r="5.44" transform="matrix(-1 0 0 1 355.488 129.464)" fill="black"/>
<circle opacity="0.2" r="5.44" transform="matrix(-1 0 0 1 405.536 129.464)" fill="black"/>
<circle opacity="0.2" r="5.44" transform="matrix(-1 0 0 1 330.464 129.464)" fill="black"/>
<circle opacity="0.2" r="5.44" transform="matrix(-1 0 0 1 380.512 129.464)" fill="black"/>
<circle opacity="0.2" r="5.44" transform="matrix(-1 0 0 1 305.44 129.464)" fill="black"/>
<circle opacity="0.2" r="5.44" transform="matrix(-1 0 0 1 280.56 129.464)" fill="black"/>
<circle opacity="0.2" r="5.44" transform="matrix(-1 0 0 1 255.536 129.464)" fill="black"/>
<circle opacity="0.2" r="5.44" transform="matrix(-1 0 0 1 180.464 129.464)" fill="black"/>
<circle opacity="0.2" r="5.44" transform="matrix(-1 0 0 1 230.512 129.464)" fill="black"/>
<circle opacity="0.2" r="5.44" transform="matrix(-1 0 0 1 155.44 129.464)" fill="black"/>
<circle opacity="0.2" r="5.44" transform="matrix(-1 0 0 1 430.56 179.512)" fill="black"/>
<circle opacity="0.2" r="5.44" transform="matrix(-1 0 0 1 355.488 179.512)" fill="black"/>
<circle opacity="0.2" r="5.44" transform="matrix(-1 0 0 1 405.536 179.512)" fill="black"/>
<circle opacity="0.2" r="5.44" transform="matrix(-1 0 0 1 330.464 179.512)" fill="black"/>
<circle opacity="0.2" r="5.44" transform="matrix(-1 0 0 1 380.512 179.512)" fill="black"/>
<circle opacity="0.2" r="5.44" transform="matrix(-1 0 0 1 305.44 179.512)" fill="black"/>
<circle opacity="0.2" r="5.44" transform="matrix(-1 0 0 1 280.56 179.512)" fill="black"/>
<circle opacity="0.2" r="5.44" transform="matrix(-1 0 0 1 205.488 179.512)" fill="black"/>
<circle opacity="0.2" r="5.44" transform="matrix(-1 0 0 1 255.536 179.512)" fill="black"/>
<circle opacity="0.2" r="5.44" transform="matrix(-1 0 0 1 180.464 179.512)" fill="black"/>
<circle opacity="0.2" r="5.44" transform="matrix(-1 0 0 1 230.512 179.512)" fill="black"/>
<circle opacity="0.2" r="5.44" transform="matrix(-1 0 0 1 155.44 179.512)" fill="black"/>
<circle opacity="0.2" r="5.44" transform="matrix(-1 0 0 1 430.56 5.44)" fill="black"/>
<circle opacity="0.2" r="5.44" transform="matrix(-1 0 0 1 355.488 5.44)" fill="black"/>
<circle opacity="0.2" r="5.44" transform="matrix(-1 0 0 1 405.536 5.44)" fill="black"/>
<circle opacity="0.2" r="5.44" transform="matrix(-1 0 0 1 330.464 5.44)" fill="black"/>
<circle opacity="0.2" r="5.44" transform="matrix(-1 0 0 1 380.512 5.44)" fill="black"/>
<circle opacity="0.2" r="5.44" transform="matrix(-1 0 0 1 305.44 5.44)" fill="black"/>
<circle opacity="0.2" r="5.44" transform="matrix(-1 0 0 1 280.56 5.44)" fill="black"/>
<circle opacity="0.2" r="5.44" transform="matrix(-1 0 0 1 205.488 5.44)" fill="black"/>
<circle opacity="0.2" r="5.44" transform="matrix(-1 0 0 1 255.536 5.44)" fill="black"/>
<circle opacity="0.2" r="5.44" transform="matrix(-1 0 0 1 180.464 5.44)" fill="black"/>
<circle opacity="0.2" r="5.44" transform="matrix(-1 0 0 1 230.512 5.44)" fill="black"/>
<circle opacity="0.2" r="5.44" transform="matrix(-1 0 0 1 155.44 5.44)" fill="black"/>
<circle opacity="0.2" r="5.44" transform="matrix(-1 0 0 1 430.56 55.4879)" fill="black"/>
<circle opacity="0.2" r="5.44" transform="matrix(-1 0 0 1 355.488 55.4879)" fill="black"/>
<circle opacity="0.2" r="5.44" transform="matrix(-1 0 0 1 405.536 55.4879)" fill="black"/>
<circle opacity="0.2" r="5.44" transform="matrix(-1 0 0 1 330.464 55.4879)" fill="black"/>
<circle opacity="0.2" r="5.44" transform="matrix(-1 0 0 1 380.512 55.4879)" fill="black"/>
<circle opacity="0.2" r="5.44" transform="matrix(-1 0 0 1 305.44 55.4879)" fill="black"/>
<circle opacity="0.2" r="5.44" transform="matrix(-1 0 0 1 280.56 55.4879)" fill="black"/>
<circle opacity="0.2" r="5.44" transform="matrix(-1 0 0 1 205.488 55.4879)" fill="black"/>
<circle opacity="0.2" r="5.44" transform="matrix(-1 0 0 1 255.536 55.4879)" fill="black"/>
<circle opacity="0.2" r="5.44" transform="matrix(-1 0 0 1 180.464 55.4879)" fill="black"/>
<circle opacity="0.2" r="5.44" transform="matrix(-1 0 0 1 230.512 55.4879)" fill="black"/>
<circle opacity="0.2" r="5.44" transform="matrix(-1 0 0 1 155.44 55.4879)" fill="black"/>
<circle opacity="0.2" r="5.44" transform="matrix(-1 0 0 1 430.56 30.4639)" fill="black"/>
<circle opacity="0.2" r="5.44" transform="matrix(-1 0 0 1 355.488 30.4639)" fill="black"/>
<circle opacity="0.2" r="5.44" transform="matrix(-1 0 0 1 405.536 30.4639)" fill="black"/>
<circle opacity="0.2" r="5.44" transform="matrix(-1 0 0 1 330.464 30.4639)" fill="black"/>
<circle opacity="0.2" r="5.44" transform="matrix(-1 0 0 1 380.512 30.4639)" fill="black"/>
<circle opacity="0.2" r="5.44" transform="matrix(-1 0 0 1 305.44 30.4639)" fill="black"/>
<circle opacity="0.2" r="5.44" transform="matrix(-1 0 0 1 280.56 30.4639)" fill="black"/>
<circle opacity="0.2" r="5.44" transform="matrix(-1 0 0 1 255.536 30.4639)" fill="black"/>
<circle opacity="0.2" r="5.44" transform="matrix(-1 0 0 1 180.464 30.4639)" fill="black"/>
<circle opacity="0.2" r="5.44" transform="matrix(-1 0 0 1 230.512 30.4639)" fill="black"/>
<circle opacity="0.2" r="5.44" transform="matrix(-1 0 0 1 155.44 30.4639)" fill="black"/>
<circle opacity="0.2" r="5.44" transform="matrix(-1 0 0 1 430.56 80.512)" fill="black"/>
<circle opacity="0.2" r="5.44" transform="matrix(-1 0 0 1 355.488 80.512)" fill="black"/>
<circle opacity="0.2" r="5.44" transform="matrix(-1 0 0 1 405.536 80.512)" fill="black"/>
<circle opacity="0.2" r="5.44" transform="matrix(-1 0 0 1 330.464 80.512)" fill="black"/>
<circle opacity="0.2" r="5.44" transform="matrix(-1 0 0 1 380.512 80.512)" fill="black"/>
<circle opacity="0.2" r="5.44" transform="matrix(-1 0 0 1 305.44 80.512)" fill="black"/>
<circle opacity="0.2" r="5.44" transform="matrix(-1 0 0 1 280.56 80.512)" fill="black"/>
<circle opacity="0.2" r="5.44" transform="matrix(-1 0 0 1 205.488 80.512)" fill="black"/>
<circle opacity="0.2" r="5.44" transform="matrix(-1 0 0 1 255.536 80.512)" fill="black"/>
<circle opacity="0.2" r="5.44" transform="matrix(-1 0 0 1 180.464 80.512)" fill="black"/>
<circle opacity="0.2" r="5.44" transform="matrix(-1 0 0 1 230.512 80.512)" fill="black"/>
<circle opacity="0.2" r="5.44" transform="matrix(-1 0 0 1 155.44 80.512)" fill="black"/>
</svg>
