<svg width="16" height="15" viewBox="0 0 16 15" fill="none" xmlns="http://www.w3.org/2000/svg">
<path d="M8.83959 13.1535L8.82313 8.12555L14.1606 8.12555C14.6256 8.12555 15 7.77981 15 7.35034C15 6.921 14.6256 6.57513 14.1606 6.57513L8.83944 6.59033L8.83944 1.77521C8.83944 1.34573 8.46506 1 8 1C7.53509 1 7.16071 1.34573 7.16071 1.77521L7.16071 6.58273L1.83944 6.58273C1.37468 6.58273 1 6.92847 1 7.35794C1 7.78741 1.37468 8.13315 1.83944 8.13315L7.16056 8.13315L7.16056 13.1535C7.16056 13.5829 7.53524 13.9287 8 13.9287C8.46521 13.9287 8.83959 13.5791 8.83959 13.1535Z" fill="#98003F" stroke="#98003F" stroke-width="2"/>
</svg>
