<svg width="756" height="65" viewBox="0 0 756 65" fill="none" xmlns="http://www.w3.org/2000/svg">
<g clip-path="url(#clip0)">
<path d="M533.967 90.1013C532.633 90.5435 531.193 89.7921 530.81 88.4398C530.757 88.256 530.706 88.072 530.654 87.8876C528.817 81.4102 527.074 75.3322 522.255 70.3338C517.437 65.3354 511.463 63.5433 505.185 61.6973C498.581 59.7109 491.757 57.6489 486.004 51.7329C480.251 45.8168 478.256 38.7781 476.325 32.02C474.488 25.5426 472.745 19.4646 467.926 14.4662C463.107 9.4678 457.134 7.67572 450.856 5.82966L450.291 5.65764C448.969 5.25454 448.207 3.87225 448.573 2.53909C448.955 1.14955 450.41 0.350626 451.787 0.774452L452.147 0.885245C458.782 2.87165 465.574 4.92283 471.38 10.7957C477.186 16.6685 479.128 23.7505 481.06 30.5086C482.897 36.986 484.64 43.0639 489.458 48.0731C494.277 53.0823 500.251 54.8528 506.529 56.7097C513.132 58.6961 519.956 60.7472 525.709 66.6633C531.463 72.5793 533.457 79.6181 535.389 86.3762C535.452 86.5966 535.515 86.8165 535.578 87.0361C535.948 88.3245 535.24 89.6797 533.967 90.1013Z" fill="#A90F4F"/>
<path d="M533.928 118.069C533.054 119.19 531.418 119.38 530.419 118.369C530.325 118.274 530.233 118.179 530.141 118.083C524.387 112.167 522.393 105.128 520.461 98.37C518.624 91.8926 516.881 85.8146 512.062 80.8163C507.243 75.8179 501.27 74.0258 494.992 72.1797C488.388 70.1933 481.564 68.1313 475.811 62.2153C470.058 56.2993 468.063 49.2605 466.131 42.5024C464.294 36.025 462.551 29.9471 457.733 24.9487C452.914 19.9503 446.94 18.1582 440.662 16.3121C434.059 14.3257 427.235 12.2638 421.482 6.34773C421.35 6.2121 421.219 6.0749 421.089 5.93629C420.168 4.9507 420.328 3.40934 421.358 2.53853L421.447 2.46335C422.48 1.59031 424.024 1.76193 424.967 2.73118C429.828 7.72957 435.759 9.51086 442.037 11.3677C448.641 13.3541 455.465 15.4053 461.218 21.3213C466.971 27.2373 468.966 34.2761 470.898 41.0342C472.735 47.5116 474.478 53.5896 479.297 58.5988C484.115 63.608 490.089 65.3784 496.367 67.2353C502.971 69.2217 509.795 71.2729 515.548 77.1889C521.301 83.1049 523.296 90.1437 525.227 96.9018C527.064 103.379 528.807 109.457 533.626 114.466C534.586 115.436 534.767 116.993 533.928 118.069Z" fill="#A90F4F"/>
<path d="M533.845 134.136C533.417 135.487 531.966 136.239 530.657 135.697C526.682 134.052 523.043 131.633 519.945 128.566C514.192 122.65 512.197 115.611 510.265 108.853C508.428 102.375 506.685 96.2975 501.867 91.2991C497.048 86.3007 491.074 84.5086 484.786 82.6625C478.193 80.6761 471.369 78.6142 465.615 72.6981C459.862 66.7821 457.868 59.7433 455.936 52.9852C454.099 46.5078 452.356 40.4299 447.537 35.4315C442.718 30.4331 436.745 28.641 430.467 26.7949C423.863 24.8085 417.039 22.7573 411.286 16.8413C408.204 13.5608 405.79 9.69108 404.176 5.45962C403.707 4.23112 404.385 2.88872 405.622 2.44357C406.949 1.96609 408.397 2.70302 408.92 4.01291C410.271 7.39958 412.225 10.5064 414.687 13.1708C419.548 18.1692 425.48 19.9613 431.758 21.8073C438.361 23.7937 445.185 25.8449 450.939 31.7609C456.692 37.677 458.686 44.7157 460.618 51.4738C462.455 57.9512 464.198 64.0292 469.017 69.0384C473.836 74.0476 479.809 75.8181 486.087 77.6749C492.691 79.6613 499.515 81.7125 505.268 87.6285C511.021 93.5446 513.016 100.583 514.948 107.341C516.785 113.819 518.528 119.897 523.346 124.906C525.936 127.43 528.951 129.436 532.235 130.831C533.527 131.38 534.269 132.799 533.845 134.136Z" fill="#A90F4F"/>
<path d="M533.85 147.719C533.454 149.133 531.954 149.93 530.549 149.502C530.008 149.337 529.466 149.175 528.923 149.013C522.33 147.026 515.506 144.964 509.753 139.048C504 133.132 502.005 126.094 500.074 119.336C498.226 112.858 496.494 106.78 491.675 101.782C486.856 96.7834 480.83 95.0021 474.531 93.1021C467.938 91.1156 461.114 89.0537 455.361 83.1376C449.607 77.2216 447.613 70.1828 445.681 63.4247C443.844 56.9473 442.101 50.8694 437.282 45.871C432.464 40.8726 426.49 39.0805 420.201 37.2344C413.64 35.2049 406.763 33.1537 401.042 27.2376C395.32 21.3216 393.294 14.2828 391.362 7.51396C391.171 6.84399 390.98 6.17167 390.785 5.49919C390.412 4.21673 391.107 2.85646 392.373 2.4331C393.674 1.99827 395.079 2.71641 395.463 4.03311C395.664 4.72127 395.861 5.4105 396.055 6.09973C397.892 12.5771 399.635 18.6551 404.454 23.6535C409.272 28.6519 415.246 30.444 421.524 32.29C428.128 34.2764 434.952 36.3276 440.705 42.2436C446.458 48.1597 448.453 55.1984 450.384 61.9565C452.222 68.4339 453.964 74.5227 458.783 79.5211C463.602 84.5195 469.576 86.3008 475.854 88.1576C482.457 90.144 489.271 92.1952 495.024 98.1112C500.777 104.027 502.782 111.066 504.714 117.824C506.551 124.302 508.294 130.38 513.113 135.389C517.931 140.398 523.905 142.168 530.183 144.025C530.849 144.224 531.514 144.422 532.178 144.624C533.487 145.024 534.219 146.4 533.85 147.719Z" fill="#A90F4F"/>
<path d="M533.901 163.023C533.132 164.27 531.473 164.6 530.196 163.882C526.649 161.887 522.784 160.735 518.728 159.495C512.135 157.509 505.311 155.447 499.558 149.531C493.805 143.615 491.81 136.576 489.879 129.818C488.031 123.341 486.299 117.263 481.48 112.264C476.661 107.266 470.677 105.474 464.399 103.628C457.806 101.641 450.982 99.5901 445.229 93.674C439.476 87.758 437.481 80.7192 435.549 73.9504C433.712 67.473 431.969 61.395 427.15 56.3966C422.332 51.3982 416.358 49.6061 410.069 47.7601C403.476 45.7737 396.652 43.7225 390.899 37.8065C385.146 31.8904 383.067 24.8301 381.094 17.9964C379.878 13.7372 378.721 9.66815 376.685 5.94893C376.032 4.75458 376.306 3.22842 377.421 2.44663C378.567 1.64267 380.158 1.93354 380.843 3.15454C383.272 7.48217 384.585 12.0953 385.86 16.5822C387.697 23.0596 389.44 29.1375 394.259 34.1359C399.078 39.1343 405.051 40.9264 411.329 42.7725C417.933 44.7589 424.757 46.81 430.51 52.7261C436.263 58.6421 438.258 65.6809 440.189 72.439C442.027 78.9164 443.769 85.0051 448.588 90.0035C453.407 95.0019 459.381 96.794 465.659 98.6401C472.262 100.626 479.076 102.678 484.829 108.594C490.582 114.51 492.587 121.548 494.519 128.307C496.356 134.784 498.099 140.873 502.918 145.871C507.736 150.87 513.71 152.651 519.988 154.508C524.385 155.829 528.907 157.19 533.144 159.69C534.302 160.373 534.607 161.879 533.901 163.023Z" fill="#A90F4F"/>
<path d="M533.989 187.37C532.695 187.946 531.192 187.293 530.594 186.008C529.336 183.301 527.656 180.818 525.615 178.658C520.744 173.659 514.812 171.867 508.534 170.021C501.941 168.035 495.117 165.984 489.364 160.057C483.611 154.13 481.616 147.102 479.685 140.344C477.837 133.867 476.105 127.789 471.286 122.79C466.467 117.792 460.483 116 454.205 114.154C447.612 112.167 440.788 110.116 435.035 104.2C429.282 98.284 427.287 91.2452 425.355 84.4763C423.507 77.9989 421.775 71.921 416.956 66.9226C412.138 61.9242 406.164 60.1321 399.875 58.286C393.198 56.1377 386.343 54.1189 380.621 48.2029C374.9 42.2868 372.873 35.248 370.942 28.4792C369.104 22.0018 367.362 15.9238 362.543 10.9254C360.437 8.81494 358.012 7.08069 355.367 5.78768C354.108 5.17248 353.442 3.71626 353.945 2.40898C354.444 1.11324 355.902 0.45608 357.156 1.05408C360.421 2.61266 363.409 4.73744 365.986 7.34123C371.739 13.2573 373.734 20.296 375.666 27.0649C377.503 33.5423 379.246 39.6203 384.065 44.6187C388.883 49.6171 394.857 51.4092 401.135 53.2552C407.739 55.2416 414.552 57.2928 420.305 63.2088C426.059 69.1249 428.064 76.1637 429.995 82.9325C431.833 89.41 433.575 95.4879 438.394 100.486C443.213 105.485 449.187 107.277 455.465 109.123C462.068 111.109 468.882 113.16 474.635 119.076C480.388 124.993 482.393 132.031 484.325 138.789C486.162 145.267 487.894 151.356 492.724 156.354C497.553 161.352 503.516 163.144 509.794 164.99C516.398 166.977 523.211 169.028 528.964 174.944C531.576 177.682 533.692 180.869 535.217 184.356C535.728 185.521 535.152 186.852 533.989 187.37Z" fill="#A90F4F"/>
<path d="M533.93 222.92C532.888 223.892 531.234 223.791 530.425 222.618C526.965 217.6 525.389 212.076 523.862 206.694C522.015 200.217 520.282 194.139 515.464 189.14C510.645 184.142 504.661 182.35 498.383 180.504C491.79 178.517 484.966 176.466 479.212 170.55C473.459 164.634 471.465 157.595 469.533 150.826C467.685 144.349 465.953 138.271 461.134 133.273C456.315 128.274 450.331 126.482 444.053 124.636C437.46 122.65 430.636 120.598 424.883 114.682C419.13 108.766 417.135 101.728 415.203 94.9587C413.356 88.4813 411.623 82.4034 406.805 77.405C401.986 72.4066 396.002 70.6145 389.724 68.7684C383.131 66.782 376.307 64.7308 370.554 58.8148C364.8 52.8988 362.806 45.86 360.874 39.0911C359.026 32.6137 357.294 26.5357 352.475 21.5374C347.656 16.539 341.683 14.7469 335.394 12.9008C330.099 11.3068 324.639 9.66153 319.699 5.98974C318.643 5.20471 318.495 3.71033 319.287 2.65931C320.167 1.49189 321.849 1.32925 323.048 2.16502C327.141 5.01754 331.763 6.41266 336.612 7.87003C343.216 9.85643 350.04 11.9076 355.793 17.8236C361.546 23.7397 363.541 30.7784 365.472 37.5473C367.309 44.0247 369.052 50.1027 373.871 55.1011C378.69 60.0995 384.663 61.8916 390.942 63.7376C397.545 65.724 404.359 67.7752 410.112 73.6912C415.865 79.6073 417.87 86.6461 419.802 93.4149C421.639 99.8923 423.382 105.97 428.2 110.969C433.019 115.967 438.993 117.759 445.271 119.605C451.874 121.592 458.688 123.643 464.441 129.559C470.194 135.475 472.199 142.514 474.131 149.272C475.968 155.749 477.701 161.838 482.53 166.836C487.359 171.835 493.322 173.627 499.6 175.473C506.193 177.459 513.017 179.51 518.771 185.426C524.524 191.342 526.529 198.381 528.461 205.139C529.917 210.271 531.309 215.148 534.239 219.469C534.973 220.552 534.886 222.028 533.93 222.92Z" fill="#A90F4F"/>
<path d="M526.833 233.316C521.962 228.317 520.23 222.218 518.435 215.751C516.503 208.972 514.498 201.954 508.745 196.038C502.991 190.122 496.146 188.071 489.574 186.085C483.275 184.195 477.365 182.403 472.504 177.448C467.643 172.493 465.9 166.35 464.105 159.884C462.174 153.104 460.168 146.087 454.415 140.171C448.662 134.255 441.817 132.204 435.245 130.217C428.946 128.328 423.035 126.536 418.175 121.581C413.314 116.625 411.571 110.483 409.776 104.027C407.718 97.1608 405.713 90.1328 399.991 84.2059C394.27 78.2791 387.393 76.2387 380.821 74.2523C374.522 72.3631 368.611 70.571 363.751 65.6158C358.89 60.6606 357.147 54.5178 355.352 48.062C353.42 41.2715 351.415 34.2544 345.662 28.3383C339.909 22.4223 333.064 20.3711 326.492 18.3847C321.4 16.8491 316.541 15.3807 312.29 12.2147C311.076 11.3108 308.922 11.6037 307.812 12.6321C307.034 13.352 307.104 14.55 307.938 15.2042C313.147 19.2933 319.579 21.5753 325.106 23.2428C331.405 25.132 337.326 26.9241 342.187 31.8793C347.048 36.8345 348.78 42.9773 350.586 49.4331C352.517 56.2236 354.512 63.2407 360.265 69.1568C366.018 75.0728 372.863 77.124 379.435 79.1104C385.734 80.9996 391.645 82.7917 396.516 87.7469C401.388 92.7021 403.109 98.8449 404.915 105.301C406.847 112.091 408.841 119.108 414.595 125.024C420.348 130.94 427.193 132.992 433.765 134.978C440.064 136.867 445.974 138.659 450.846 143.615C455.717 148.57 457.439 154.712 459.244 161.168C461.176 167.959 463.171 174.976 468.924 180.892C474.677 186.808 481.522 188.859 488.094 190.846C494.393 192.735 500.304 194.527 505.175 199.482C510.046 204.437 511.768 210.58 513.574 217.036C515.506 223.826 517.511 230.844 523.264 236.76C525.418 238.938 527.867 240.776 530.531 242.22C531.758 242.885 533.255 242.287 533.803 241.003C534.349 239.727 533.748 238.262 532.532 237.593C530.451 236.449 528.533 235.01 526.833 233.316Z" fill="#A90F4F"/>
<path d="M309.173 15.5826C308.833 15.5655 308.502 15.4661 308.213 15.2857C306.235 14.049 304.406 12.5745 302.766 10.8928C301.556 9.64921 300.458 8.29854 299.483 6.85728C298.74 5.75874 299.128 4.28754 300.259 3.59534C301.446 2.86911 302.989 3.27918 303.795 4.41395C304.522 5.43946 305.326 6.40731 306.199 7.30867C306.836 7.96187 308.71 9.48726 310.772 11.0911C312.475 12.4153 311.327 15.6911 309.173 15.5826Z" fill="#A90F4F"/>
<path d="M533.709 252.478C527.41 250.589 521.5 248.797 516.628 243.842C511.757 238.887 510.035 232.744 508.23 226.277C506.298 219.498 504.293 212.48 498.539 206.564C492.786 200.648 485.941 198.597 479.369 196.611C473.07 194.722 467.16 192.929 462.299 187.974C457.438 183.019 455.695 176.876 453.9 170.42C451.968 163.63 449.963 156.613 444.21 150.697C438.457 144.781 431.612 142.73 425.04 140.743C418.741 138.854 412.83 137.062 407.969 132.107C403.109 127.151 401.366 121.009 399.571 114.553C397.639 107.762 395.634 100.745 389.881 94.8291C384.127 88.9131 377.282 86.8619 370.71 84.8755C364.411 82.9863 358.501 81.1942 353.64 76.239C348.779 71.2837 347.036 65.141 345.241 58.6852C343.309 51.8947 341.304 44.8883 335.551 38.9723C329.798 33.0562 322.953 30.9943 316.381 29.0079C314.103 28.4016 311.862 27.6598 309.67 26.7868C308.144 26.1789 306.394 27.6152 306.47 29.2562C306.527 30.2682 307.102 31.2085 308.05 31.5674C310.343 32.4351 312.67 33.202 315.027 33.8659C321.326 35.7552 327.236 37.5472 332.108 42.5025C336.979 47.4577 338.701 53.6004 340.506 60.067C342.438 66.8467 344.433 73.8639 350.186 79.7799C355.939 85.696 362.784 87.7471 369.356 89.7336C375.655 91.6228 381.566 93.4149 386.437 98.3701C391.308 103.325 393.03 109.468 394.836 115.924C396.768 122.714 398.762 129.732 404.515 135.648C410.269 141.564 417.114 143.615 423.686 145.601C429.985 147.49 435.895 149.282 440.766 154.238C445.638 159.193 447.36 165.336 449.165 171.792C451.107 178.582 453.102 185.599 458.855 191.515C464.608 197.431 471.453 199.482 478.025 201.469C484.325 203.358 490.235 205.15 495.096 210.105C499.957 215.061 501.699 221.203 503.495 227.659C505.426 234.45 507.432 241.467 513.185 247.383C518.938 253.299 525.783 255.35 532.355 257.336C532.829 257.479 533.328 257.207 533.464 256.731L534.353 253.64C534.496 253.142 534.208 252.621 533.709 252.478Z" fill="#A90F4F"/>
<path d="M312.059 30.0736C311.653 31.4524 310.195 32.2392 308.834 31.775C304.135 30.1712 299.064 27.8887 294.702 23.3942C290.269 18.8265 288.019 13.5214 286.467 8.63234C286.06 7.34966 286.793 5.99359 288.077 5.59071C289.398 5.17626 290.795 5.92746 291.211 7.24808C292.594 11.6473 294.408 16.1461 298.177 19.8208C301.948 23.4977 306.251 25.3703 310.453 26.9112C311.737 27.3822 312.446 28.7615 312.059 30.0736Z" fill="#A90F4F"/>
<path d="M523.514 262.961C517.215 261.071 511.304 259.279 506.433 254.324C501.562 249.369 499.84 243.226 498.034 236.77C496.092 229.98 494.097 222.963 488.344 217.047C482.591 211.131 475.746 209.08 469.174 207.093C462.875 205.204 456.964 203.412 452.104 198.457C447.243 193.501 445.5 187.359 443.705 180.903C441.773 174.112 439.768 167.095 434.015 161.179C428.262 155.263 421.417 153.212 414.845 151.226C408.546 149.336 402.635 147.544 397.774 142.589C392.913 137.634 391.171 131.491 389.375 125.035C387.444 118.245 385.438 111.228 379.685 105.312C373.932 99.3955 367.087 97.3444 360.515 95.358C354.216 93.4687 348.305 91.6766 343.445 86.7214C338.584 81.7662 336.841 75.6235 335.046 69.1677C333.114 62.3772 331.109 55.3708 325.356 49.4548C319.603 43.5387 312.758 41.4768 306.186 39.4904C305.776 39.368 305.367 39.2456 304.959 39.1222C304.084 38.8572 303.139 39.1799 302.535 39.866C301.383 41.1744 301.739 43.4192 303.407 43.9266C303.872 44.0682 304.337 44.2083 304.8 44.3484C311.099 46.2485 317.01 48.0297 321.881 52.985C326.752 57.9402 328.474 64.0829 330.28 70.5495C332.211 77.3292 334.206 84.3464 339.959 90.2624C345.712 96.1784 352.557 98.2296 359.129 100.216C365.428 102.105 371.339 103.897 376.21 108.853C381.082 113.808 382.803 119.95 384.609 126.406C386.551 133.197 388.546 140.214 394.299 146.13C400.052 152.046 406.897 154.097 413.469 156.084C419.768 157.973 425.679 159.765 430.55 164.72C435.422 169.675 437.143 175.818 438.949 182.274C440.881 189.064 442.886 196.082 448.639 201.998C454.392 207.914 461.237 209.965 467.809 211.951C474.108 213.84 480.019 215.633 484.88 220.588C489.741 225.543 491.483 231.686 493.279 238.141C495.21 244.932 497.215 251.949 502.969 257.865C508.722 263.781 515.567 265.832 522.139 267.819C524.993 268.578 527.789 269.549 530.505 270.723C531.774 271.271 533.268 270.762 533.881 269.524C534.503 268.269 533.985 266.743 532.702 266.182C529.722 264.877 526.651 263.801 523.514 262.961Z" fill="#A90F4F"/>
<path d="M310.425 43.2946C309.931 44.6348 308.429 45.3014 307.079 44.8362C305.453 44.276 303.792 43.7742 302.07 43.2581C295.466 41.2717 288.653 39.2097 282.9 33.2937C277.146 27.3777 275.141 20.3389 273.21 13.5808C272.686 11.7337 272.177 9.95399 271.604 8.21289C271.18 6.9275 271.799 5.51193 273.054 5.00673C274.337 4.49064 275.797 5.11887 276.234 6.43047C276.87 8.33728 277.399 10.2546 277.934 12.1558C279.782 18.6332 281.514 24.7112 286.333 29.7203C291.151 34.7295 297.125 36.5 303.414 38.3569C305.239 38.9062 307.106 39.4663 308.967 40.1172C310.263 40.5706 310.899 42.006 310.425 43.2946Z" fill="#A90F4F"/>
<path d="M532.492 283.397C526.739 277.481 519.894 275.43 513.322 273.444C507.023 271.554 501.112 269.762 496.241 264.807C491.37 259.852 489.648 253.709 487.842 247.253C485.91 240.463 483.916 233.446 478.163 227.53C472.409 221.614 465.564 219.563 458.992 217.576C452.693 215.687 446.783 213.895 441.922 208.94C437.061 203.984 435.318 197.842 433.523 191.386C431.591 184.595 429.586 177.578 423.833 171.662C418.08 165.746 411.235 163.695 404.663 161.709C398.364 159.819 392.453 158.027 387.592 153.072C382.732 148.117 380.989 141.974 379.194 135.518C377.262 128.728 375.257 121.721 369.504 115.795C363.75 109.868 356.906 107.827 350.334 105.841C344.034 103.952 338.124 102.16 333.263 97.2044C328.402 92.2492 326.659 86.1064 324.864 79.6506C322.933 72.8602 320.927 65.8538 315.174 59.9377C313.868 58.6088 312.448 57.4082 310.934 56.3493C309.433 55.2993 307.524 56.8228 307.605 58.6531C307.655 59.4027 307.889 60.1491 308.437 60.6631C309.568 61.7244 310.616 62.4494 311.657 63.5111C316.518 68.5095 318.25 74.609 320.056 81.0757C321.988 87.8553 323.982 94.8725 329.736 100.789C335.489 106.705 342.334 108.756 348.906 110.742C355.205 112.642 361.115 114.423 365.987 119.379C370.858 124.334 372.58 130.477 374.385 136.943C376.328 143.723 378.322 150.74 384.076 156.656C389.829 162.572 396.674 164.623 403.246 166.61C409.545 168.499 415.455 170.291 420.316 175.246C425.177 180.202 426.92 186.344 428.715 192.8C430.647 199.591 432.652 206.608 438.405 212.524C444.158 218.44 451.003 220.491 457.575 222.477C463.874 224.367 469.785 226.159 474.646 231.114C479.506 236.069 481.249 242.212 483.044 248.668C484.976 255.458 486.981 262.475 492.734 268.391C498.488 274.307 505.333 276.359 511.905 278.345C518.204 280.234 524.114 282.026 528.975 286.981C529.435 287.455 529.876 287.948 530.297 288.458C531.189 289.539 532.766 289.846 533.912 289.039C535.011 288.265 535.306 286.751 534.48 285.691C533.857 284.892 533.193 284.126 532.492 283.397Z" fill="#A90F4F"/>
<path d="M309.969 58.5585C308.996 59.5501 307.409 59.5462 306.328 58.673C301.903 55.0975 296.771 53.5495 291.405 51.9273C284.802 49.9409 277.988 47.879 272.235 41.9629C266.482 36.0469 264.477 29.0081 262.545 22.25C260.959 16.6738 259.445 11.3641 255.927 6.81869C255.1 5.75042 255.107 4.21493 256.062 3.25933C257.054 2.26671 258.679 2.28396 259.551 3.38392C263.833 8.79033 265.59 14.9205 267.322 20.879C269.17 27.3564 270.902 33.4344 275.721 38.4436C280.539 43.4527 286.523 45.2232 292.802 47.0801C298.605 48.8308 304.594 50.6335 309.885 55.1203C310.929 56.0054 310.928 57.5817 309.969 58.5585Z" fill="#A90F4F"/>
<path d="M312.444 89.8507C311.08 90.6331 309.363 89.9286 308.943 88.4135C308.84 88.0435 308.745 87.7049 308.666 87.4344C306.829 80.957 303.112 76.466 298.252 71.4568C293.391 66.4476 287.459 64.6771 281.181 62.8203C274.578 60.8231 267.764 58.7719 262.011 52.8559C256.258 46.9398 254.253 39.9011 252.321 33.143C250.484 26.6656 248.751 20.5876 243.922 15.5784C239.093 10.5692 233.067 8.76633 226.768 6.87709C226.575 6.81817 226.383 6.75967 226.192 6.70134C224.877 6.30093 224.141 4.91655 224.533 3.59871C224.936 2.24436 226.371 1.48487 227.726 1.88338C227.869 1.92524 228.011 1.96685 228.153 2.00824C234.747 3.99464 241.571 6.05662 247.324 11.9726C253.077 17.8887 255.072 24.9275 257.003 31.6855C258.851 38.163 260.583 44.2409 265.402 49.2393C270.221 54.2377 276.205 56.0298 282.483 57.8759C289.076 59.8623 297.737 63.0902 303.48 69.0062C309.222 74.9222 309.39 80.7735 311.322 87.5532C311.442 87.9738 311.909 88.1021 312.429 88.1847C313.544 88.3619 313.423 89.289 312.444 89.8507Z" fill="#A90F4F"/>
<path d="M311.691 120.772C310.893 121.746 309.475 121.852 308.587 120.96C307.973 120.343 307.37 119.72 307.028 119.368C301.275 113.452 299.27 106.413 297.338 99.655C295.501 93.1776 293.768 87.0996 288.939 82.0904C284.11 77.0813 278.147 75.3108 271.869 73.4539C265.276 71.4675 258.452 69.4163 252.698 63.5003C246.945 57.5843 244.951 50.5455 243.008 43.7874C241.171 37.31 239.439 31.232 234.61 26.2228C229.78 21.2137 223.807 19.4432 217.529 17.5863C210.936 15.5891 204.112 13.5379 198.358 7.6219C198.227 7.48648 198.096 7.3495 197.967 7.21111C197.045 6.22481 197.204 4.68248 198.233 3.80963L198.316 3.73928C199.349 2.8639 200.894 3.02958 201.844 3.99455C206.705 9.00374 212.636 10.785 218.914 12.6311C225.507 14.6175 232.331 16.6795 238.085 22.5955C243.838 28.5115 245.843 35.5503 247.775 42.3084C249.612 48.7858 251.344 54.8638 256.173 59.8622C261.003 64.8606 266.966 66.6526 273.244 68.4987C279.837 70.4851 286.661 72.5471 292.414 78.4631C298.167 84.3791 300.172 91.4179 302.104 98.176C303.941 104.653 305.674 110.731 310.503 115.73C310.763 115.997 311.203 116.584 311.666 117.191C312.439 118.206 312.5 119.786 311.691 120.772Z" fill="#A90F4F"/>
<path d="M309.913 135.375C309.465 136.676 308.051 137.387 306.778 136.862C302.773 135.212 299.106 132.783 295.982 129.699C290.229 123.783 288.234 116.744 286.302 109.986C284.465 103.509 282.722 97.431 277.904 92.4218C273.085 87.4126 267.111 85.6421 260.833 83.7852C254.23 81.7988 247.406 79.7368 241.653 73.8208C235.899 67.9048 233.905 60.866 231.973 54.1079C230.136 47.6305 228.393 41.5525 223.574 36.5542C218.755 31.5558 212.782 29.7637 206.504 27.9176C199.816 25.9096 193.003 23.7505 187.25 17.8776C184.205 14.6279 181.817 10.7993 180.215 6.61428C179.745 5.38567 180.421 4.04194 181.658 3.59402C182.986 3.11317 184.437 3.84796 184.963 5.15874C186.318 8.53836 188.269 11.6401 190.725 14.3043C195.596 19.3027 201.527 21.084 207.806 22.9408C214.399 24.938 221.223 26.9892 226.976 32.9052C232.729 38.8212 234.724 45.86 236.655 52.6181C238.493 59.0955 240.235 65.1735 245.054 70.1719C249.873 75.1703 255.846 76.9624 262.135 78.8084C268.76 80.8704 275.594 82.9324 281.358 88.8484C287.121 94.7644 289.106 101.803 291.037 108.561C292.875 115.039 294.617 121.117 299.436 126.115C302.029 128.642 305.048 130.649 308.337 132.042C309.64 132.593 310.374 134.038 309.913 135.375Z" fill="#A90F4F"/>
<path d="M309.725 150.43C309.277 151.727 307.867 152.428 306.555 152.028C305.647 151.752 304.731 151.476 304.003 151.247C297.089 149.274 290.805 145.457 285.788 140.182C280.035 134.266 278.041 127.227 276.109 120.469C274.272 113.992 272.529 107.914 267.71 102.915C262.891 97.9167 256.918 96.1247 250.64 94.2786C244.036 92.2922 237.212 90.2302 231.459 84.3142C225.706 78.3982 223.711 71.3594 221.779 64.6013C219.942 58.1239 218.199 52.0459 213.381 47.0475C208.562 42.0491 202.588 40.2571 196.31 38.411C189.707 36.4246 182.893 34.3626 177.14 28.4466C171.387 22.5306 169.382 15.4918 167.45 8.73369C167.262 8.06844 167.073 7.40547 166.881 6.74374C166.504 5.4484 167.208 4.07493 168.488 3.65073C169.798 3.2167 171.21 3.94118 171.593 5.26707C171.79 5.94602 171.982 6.62621 172.174 7.30866C174.022 13.7861 175.754 19.864 180.573 24.8732C185.392 29.8824 191.365 31.6529 197.654 33.5098C204.247 35.507 211.071 37.5581 216.824 43.4742C222.577 49.3902 224.572 56.429 226.504 63.1871C228.341 69.6645 230.084 75.7424 234.902 80.7516C239.721 85.7608 245.663 87.4449 251.962 89.3666C258.566 91.353 265.39 93.415 271.143 99.331C276.896 105.247 278.891 112.286 280.823 119.044C282.66 125.521 284.403 131.599 289.221 136.598C293.735 141.308 299.377 144.712 305.578 146.465C306.311 146.689 307.21 146.962 308.107 147.237C309.455 147.65 310.185 149.098 309.725 150.43Z" fill="#A90F4F"/>
<path d="M309.916 164.209C309.159 165.429 307.532 165.75 306.282 165.043C302.722 163.032 298.842 161.875 294.776 160.629C288.173 158.697 281.359 156.538 275.596 150.665C269.832 144.792 267.848 137.71 265.916 130.952C264.079 124.475 262.336 118.397 257.517 113.398C252.699 108.4 246.715 106.608 240.415 104.719C233.812 102.732 226.988 100.67 221.235 94.7542C215.482 88.8381 213.487 81.7994 211.555 75.0413C209.718 68.5639 207.975 62.4859 203.156 57.4875C198.338 52.4891 192.364 50.697 186.086 48.851C179.483 46.8646 172.659 44.8026 166.905 38.8866C161.152 32.9705 159.158 25.9317 157.226 19.1737C156.003 14.8921 154.841 10.8028 152.791 7.06775C152.153 5.90337 152.413 4.4165 153.492 3.64196C154.621 2.83113 156.205 3.11322 156.884 4.32642C159.308 8.6554 160.616 13.2692 161.856 17.7486C163.693 24.226 165.436 30.304 170.254 35.3132C175.073 40.3224 181.047 42.0929 187.335 43.9497C193.928 45.9361 200.752 47.9873 206.505 53.9033C212.259 59.8194 214.253 66.8581 216.185 73.6162C218.022 80.0936 219.765 86.1716 224.584 91.1808C229.403 96.19 235.376 97.9605 241.654 99.8173C248.258 101.815 255.082 103.866 260.835 109.782C266.588 115.698 268.583 122.737 270.515 129.495C272.352 135.972 274.094 142.05 278.913 147.048C283.732 152.047 289.706 153.839 295.984 155.685C300.398 157.021 304.938 158.388 309.189 160.935C310.32 161.613 310.612 163.09 309.916 164.209Z" fill="#A90F4F"/>
<path d="M311.543 187.764C310.385 188.349 308.983 187.794 308.339 186.668C306.663 183.733 304.214 181.553 302.028 179.629C296.338 174.641 290.868 173 284.58 171.111C277.987 169.125 271.163 167.063 265.41 161.147C259.656 155.231 257.662 148.192 255.73 141.434C253.893 134.956 252.15 128.878 247.331 123.88C242.512 118.882 236.539 117.09 230.25 115.244C223.615 113.214 216.781 111.195 211.017 105.236C205.253 99.2767 203.269 92.2811 201.338 85.523C199.5 79.0456 197.758 72.9677 192.939 67.9693C188.12 62.9709 182.146 61.1788 175.868 59.3327C169.265 57.3463 162.441 55.2843 156.688 49.3683C150.934 43.4523 148.94 36.4135 147.008 29.6554C145.171 23.178 143.428 17.1001 138.609 12.1017C136.5 9.98902 134.071 8.25139 131.423 6.95337C130.169 6.33832 129.505 4.88622 130.006 3.58167C130.502 2.28726 131.957 1.62823 133.21 2.22153C136.495 3.77726 139.502 5.90528 142.095 8.51749C147.848 14.4335 149.843 21.4723 151.774 28.2304C153.612 34.7078 155.354 40.7858 160.173 45.7949C164.992 50.8041 170.965 52.5746 177.244 54.4315C183.847 56.4179 190.671 58.4691 196.424 64.3851C202.177 70.3011 204.172 77.3399 206.104 84.098C207.941 90.5754 209.684 96.6534 214.503 101.663C219.321 106.672 225.295 108.442 231.573 110.299C238.177 112.296 245.001 114.347 250.754 120.263C256.507 126.18 258.502 133.218 260.433 139.976C262.271 146.454 264.013 152.532 268.832 157.541C273.651 162.55 279.624 164.321 285.903 166.177C292.506 168.164 299.33 170.226 305.083 176.142C307.696 178.828 310.584 181.352 312.497 185.072C313.009 186.069 312.543 187.258 311.543 187.764Z" fill="#A90F4F"/>
<path d="M309.96 224.061C308.92 225.024 307.275 224.922 306.47 223.756C303.004 218.74 301.427 213.205 299.899 207.828C298.062 201.35 296.319 195.272 291.5 190.274C286.681 185.276 280.708 183.483 274.419 181.637C267.826 179.651 261.002 177.589 255.249 171.673C249.496 165.757 247.501 158.718 245.569 151.96C243.732 145.483 241.989 139.405 237.171 134.406C232.352 129.408 226.378 127.616 220.09 125.77C213.497 123.783 206.673 121.721 200.919 115.805C195.166 109.889 193.172 102.851 191.24 96.0925C189.403 89.6151 187.66 83.5371 182.841 78.5387C178.022 73.5403 172.049 71.7483 165.771 69.9022C159.167 67.9158 152.343 65.8538 146.59 59.9378C140.837 54.0218 138.842 46.983 136.91 40.2249C135.073 33.7475 133.33 27.6695 128.512 22.6711C123.693 17.6727 117.583 15.7511 111.284 13.8619C105.998 12.2734 100.556 10.634 95.6291 6.98136C94.5538 6.18415 94.4345 4.65264 95.2829 3.61733C96.1732 2.53101 97.7812 2.40972 98.9294 3.21868C103.051 6.12287 107.72 7.52371 112.659 9.00381C119.252 10.9902 126.076 13.0414 131.829 18.9574C137.582 24.8734 139.577 31.9122 141.509 38.6703C143.346 45.1477 145.089 51.2257 149.907 56.2349C154.726 61.2441 160.7 63.0146 166.978 64.8714C173.581 66.8578 180.405 68.909 186.159 74.825C191.912 80.741 193.906 87.7798 195.838 94.5379C197.675 101.015 199.418 107.093 204.237 112.102C209.056 117.112 215.029 118.882 221.307 120.739C227.911 122.725 234.735 124.777 240.488 130.693C246.241 136.609 248.236 143.647 250.168 150.406C252.005 156.883 253.748 162.961 258.566 167.97C263.385 172.979 269.359 174.75 275.637 176.607C282.24 178.604 289.054 180.655 294.807 186.571C300.56 192.487 302.565 199.526 304.497 206.284C305.953 211.415 307.345 216.291 310.274 220.612C311.008 221.695 310.919 223.172 309.96 224.061Z" fill="#A90F4F"/>
<path d="M309.858 242.523C309.343 243.672 307.994 244.199 306.882 243.61C304.127 242.15 301.599 240.268 299.386 238.023C293.633 232.107 291.638 225.069 289.706 218.311C287.859 211.833 286.126 205.755 281.308 200.757C276.489 195.758 270.515 193.966 264.227 192.12C257.634 190.134 250.81 188.072 245.056 182.156C239.303 176.24 237.309 169.201 235.377 162.443C233.54 155.966 231.797 149.888 226.978 144.889C222.159 139.891 216.186 138.099 209.908 136.253C203.304 134.266 196.48 132.204 190.727 126.288C184.974 120.372 182.979 113.333 181.047 106.575C179.21 100.098 177.467 94.0199 172.649 89.0215C167.83 84.0231 161.856 82.2311 155.578 80.385C148.975 78.3986 142.151 76.3474 136.398 70.4206C130.644 64.4938 128.65 57.4658 126.718 50.7077C124.881 44.2303 123.138 38.1523 118.319 33.1539C113.5 28.1555 107.527 26.3635 101.249 24.5174C94.4878 22.3583 87.6533 20.3071 81.8896 14.3911C79.7271 12.1317 77.9091 9.55528 76.4929 6.74963C75.8923 5.55987 76.4588 4.14037 77.6722 3.58905C78.9487 3.00902 80.442 3.61285 81.0956 4.85332C82.2423 7.02957 83.6859 9.03127 85.3856 10.7961C90.2464 15.7945 96.178 17.5866 102.456 19.4326C109.06 21.419 115.884 23.4702 121.637 29.3862C127.39 35.3023 129.385 42.3411 131.316 49.0991C133.154 55.5765 134.896 61.6653 139.715 66.6637C144.534 71.6621 150.507 73.4542 156.786 75.3002C163.389 77.2867 170.213 79.3378 175.966 85.2539C181.719 91.1699 183.714 98.2087 185.646 104.967C187.483 111.444 189.226 117.522 194.045 122.531C198.863 127.541 204.837 129.311 211.115 131.168C217.719 133.154 224.543 135.205 230.296 141.121C236.049 147.037 238.044 154.076 239.975 160.834C241.812 167.312 243.555 173.39 248.374 178.399C253.193 183.408 259.166 185.179 265.444 187.035C272.048 189.022 278.861 191.073 284.615 196.989C290.368 202.905 292.373 209.944 294.305 216.702C296.142 223.179 297.885 229.257 302.703 234.267C304.498 236.304 306.57 238.056 308.854 239.47C309.89 240.111 310.355 241.41 309.858 242.523Z" fill="#A90F4F"/>
<path d="M309.427 257.854C309.315 258.329 308.826 258.61 308.359 258.47C301.766 256.483 294.942 254.421 289.189 248.505C283.436 242.589 281.441 235.551 279.509 228.792C277.662 222.315 275.929 216.237 271.11 211.239C266.292 206.24 260.308 204.448 254.03 202.602C247.437 200.616 240.613 198.554 234.859 192.638C229.106 186.722 227.112 179.683 225.18 172.925C223.343 166.447 221.6 160.37 216.781 155.371C211.962 150.373 205.989 148.581 199.7 146.735C193.107 144.748 186.283 142.686 180.53 136.77C174.777 130.854 172.782 123.815 170.85 117.057C169.013 110.58 167.27 104.502 162.452 99.5035C157.633 94.5051 151.659 92.7131 145.381 90.867C138.778 88.8806 131.954 86.8294 126.2 80.9134C120.447 74.9974 118.453 67.9586 116.521 61.1897C114.684 54.7123 112.941 48.6343 108.122 43.6359C103.303 38.6375 97.3297 36.8455 91.0517 34.9994C84.2802 32.8403 77.4562 30.7891 71.703 24.8299C65.9499 18.8707 63.9552 11.8751 62.0234 5.11697C61.8848 4.6774 62.1322 4.20929 62.5735 4.07619L65.6046 3.16187C66.0941 3.01424 66.6094 3.29699 66.7477 3.78911C68.585 10.2665 70.3277 16.3445 75.1465 21.3429C79.9653 26.3413 85.9389 28.1333 92.217 29.9794C98.8205 31.9658 105.644 34.017 111.398 39.933C117.151 45.849 119.145 52.8878 121.077 59.6459C122.914 66.1233 124.657 72.2121 129.476 77.2105C134.295 82.2089 140.268 84.0009 146.546 85.847C153.15 87.8334 159.974 89.8846 165.727 95.8006C171.48 101.717 173.475 108.755 175.407 115.514C177.244 121.991 178.987 128.069 183.805 133.078C188.624 138.087 194.598 139.858 200.876 141.715C207.479 143.701 214.293 145.752 220.046 151.668C225.799 157.584 227.804 164.623 229.736 171.381C231.573 177.859 233.316 183.936 238.135 188.946C242.954 193.955 248.927 195.725 255.205 197.582C261.809 199.569 268.622 201.62 274.376 207.536C280.129 213.452 282.134 220.491 284.066 227.249C285.903 233.726 287.646 239.804 292.464 244.813C297.283 249.822 303.257 251.593 309.535 253.45C310.025 253.602 310.314 254.108 310.196 254.607L309.427 257.854Z" fill="#A90F4F"/>
<path d="M310.15 270.156C309.67 271.478 308.131 272.074 306.818 271.569C304.059 270.507 301.027 269.822 298.167 268.952C291.574 266.966 284.75 264.904 278.997 258.988C273.244 253.072 271.249 246.033 269.318 239.275C267.47 232.798 265.738 226.72 260.919 221.721C256.1 216.723 250.116 214.931 243.838 213.085C237.245 211.098 230.421 209.036 224.668 203.12C218.915 197.204 216.92 190.166 214.988 183.408C213.141 176.93 211.408 170.852 206.589 165.854C201.771 160.855 195.797 159.063 189.509 157.217C182.915 155.231 176.092 153.18 170.338 147.253C164.585 141.326 162.591 134.298 160.659 127.54C158.822 121.062 157.079 114.985 152.26 109.986C147.441 104.988 141.468 103.196 135.179 101.35C128.586 99.3632 121.762 97.312 116.009 91.396C110.256 85.4799 108.261 78.4412 106.329 71.6723C104.492 65.1949 102.749 59.1169 97.9306 54.1185C93.1118 49.1201 87.1382 47.328 80.8496 45.482C74.2566 43.4956 67.4326 41.4444 61.6795 35.5284C55.9263 29.6123 53.9316 22.5735 51.9999 15.8155C51.2065 12.7533 50.1906 9.75788 48.9612 6.85439C48.446 5.63769 48.9236 4.21421 50.0951 3.60322C51.3438 2.95198 52.8876 3.47469 53.4304 4.77419C54.7093 7.83578 55.7649 10.9923 56.5877 14.2177C58.425 20.6951 60.1677 26.7731 64.9865 31.7715C69.8053 36.7699 75.7789 38.5619 82.057 40.408C88.6605 42.3944 95.4845 44.4456 101.238 50.3616C106.991 56.2776 108.985 63.3164 110.917 70.0745C112.754 76.5519 114.497 82.6407 119.316 87.6391C124.135 92.6375 130.108 94.4296 136.386 96.2756C142.99 98.262 149.814 100.313 155.567 106.229C161.32 112.145 163.315 119.184 165.247 125.942C167.084 132.42 168.827 138.508 173.645 143.507C178.464 148.505 184.438 150.297 190.716 152.143C197.319 154.13 204.133 156.181 209.886 162.097C215.639 168.013 217.644 175.052 219.576 181.81C221.413 188.287 223.156 194.365 227.975 199.374C232.794 204.383 238.767 206.154 245.045 208.011C251.649 209.997 258.462 212.048 264.215 217.964C269.969 223.88 271.974 230.919 273.906 237.677C275.743 244.155 277.475 250.233 282.304 255.242C287.134 260.251 293.097 262.022 299.375 263.878C302.657 264.765 305.867 265.913 308.974 267.311C310.055 267.798 310.554 269.041 310.15 270.156Z" fill="#A90F4F"/>
<path d="M310.551 289.722C309.495 290.508 308.021 290.39 307.103 289.446L306.607 288.936C301.735 283.927 294.208 281.282 287.93 279.392C281.358 277.449 274.555 275.387 268.76 269.471C262.965 263.555 261.012 256.516 259.07 249.758C257.232 243.281 255.5 237.203 250.671 232.204C245.842 227.206 239.868 225.414 233.59 223.568C226.997 221.582 220.173 219.52 214.42 213.604C208.667 207.688 206.672 200.649 204.74 193.891C202.892 187.413 201.16 181.335 196.341 176.337C191.523 171.338 185.538 169.546 179.26 167.7C172.667 165.714 165.843 163.663 160.09 157.747C154.337 151.831 152.342 144.792 150.411 138.023C148.563 131.546 146.831 125.468 142.012 120.469C137.193 115.471 131.219 113.679 124.931 111.833C118.338 109.846 111.514 107.795 105.761 101.879C100.008 95.9631 98.0129 88.9243 96.0812 82.1554C94.2439 75.678 92.5012 69.6001 87.6824 64.6017C82.8636 59.6033 76.89 57.8112 70.6014 55.9651C64.0084 53.9787 57.1844 51.9275 51.4313 46.0115C45.6781 40.0955 43.6834 33.0567 41.7517 26.2986C39.9144 19.8212 38.1717 13.7324 33.3529 8.73405C32.8544 8.22159 32.3339 7.73278 31.7932 7.26902C30.781 6.40087 30.4542 4.93133 31.1418 3.78873C31.8998 2.52919 33.5748 2.17063 34.6943 3.1234C35.3832 3.7097 36.0461 4.32822 36.6809 4.97715C42.4341 10.8932 44.4288 17.932 46.3605 24.7008C48.1977 31.1783 49.9405 37.2562 54.7593 42.2546C59.5781 47.253 65.5517 49.0451 71.8297 50.8912C78.4753 52.8991 85.2993 54.9719 91.0524 60.8879C96.8056 66.804 98.8003 73.8428 100.732 80.6116C102.569 87.089 104.312 93.167 109.131 98.1654C113.95 103.164 119.923 104.956 126.201 106.802C132.805 108.788 139.618 110.84 145.371 116.756C151.125 122.672 153.13 129.71 155.061 136.468C156.899 142.946 158.641 149.035 163.46 154.033C168.279 159.031 174.253 160.823 180.531 162.67C187.134 164.656 193.948 166.707 199.701 172.623C205.454 178.539 207.459 185.578 209.391 192.336C211.228 198.813 212.971 204.902 217.79 209.901C222.609 214.899 228.582 216.68 234.86 218.537C241.464 220.524 248.277 222.575 254.03 228.491C259.784 234.407 261.789 241.446 263.72 248.204C265.558 254.681 267.29 260.759 272.119 265.768C276.949 270.777 282.912 272.548 289.19 274.405C295.783 276.391 303.121 278.259 308.874 284.121C309.59 284.731 310.277 285.375 310.933 286.052C311.969 287.121 311.745 288.833 310.551 289.722Z" fill="#A90F4F"/>
<path d="M307.004 319.693C305.704 320.201 304.249 319.501 303.86 318.162C303.669 317.503 303.48 316.843 303.289 316.183C301.452 309.706 299.72 303.628 294.891 298.63C290.061 293.631 284.088 291.839 277.81 289.993C271.217 288.007 264.393 285.945 258.64 280.029C252.886 274.113 250.892 267.074 248.949 260.316C247.112 253.838 245.38 247.76 240.551 242.762C235.721 237.764 229.748 235.972 223.47 234.126C216.877 232.139 210.053 230.088 204.3 224.172C198.546 218.256 196.552 211.217 194.62 204.448C192.772 197.971 191.04 191.893 186.221 186.894C181.402 181.896 175.324 179.985 169.025 178.128C162.432 176.142 155.608 174.091 149.855 168.175C144.101 162.259 142.107 155.22 140.175 148.451C138.327 141.974 136.595 135.896 131.776 130.897C126.957 125.899 120.984 124.107 114.695 122.261C108.102 120.274 101.278 118.223 95.5251 112.307C89.772 106.391 87.7772 99.3523 85.8455 92.5834C84.0083 86.106 82.2656 80.028 77.4468 75.0296C72.628 70.0312 66.6544 68.2392 60.3658 66.3931C53.7728 64.4067 46.9488 62.3555 41.1956 56.4395C35.4425 50.5235 33.4478 43.4847 31.516 36.7266C29.6788 30.2492 27.9361 24.1604 23.1173 19.162C18.2985 14.1636 12.3249 12.3715 6.0468 10.5255C5.39382 10.3309 4.74084 10.1362 4.08882 9.93765C2.75686 9.53198 2.01609 8.12864 2.40188 6.7908C2.80968 5.37668 4.31292 4.58366 5.7206 5.01314C6.26403 5.17893 6.80711 5.34222 7.34861 5.5055C13.9521 7.4919 20.7761 9.54308 26.5293 15.4591C32.2824 21.3751 34.2771 28.4139 36.2089 35.1828C38.0461 41.6602 39.7888 47.7382 44.6076 52.7366C49.4264 57.735 55.4 59.5271 61.6781 61.3731C68.2396 63.4027 75.1056 65.4539 80.8378 71.3699C86.5699 77.2859 88.5856 84.3247 90.5173 91.0936C92.3546 97.571 94.0973 103.649 98.9161 108.647C103.735 113.646 109.709 115.438 115.987 117.284C122.59 119.27 129.404 121.322 135.157 127.238C140.91 133.154 142.915 140.192 144.847 146.961C146.684 153.439 148.427 159.517 153.246 164.515C158.064 169.513 164.038 171.305 170.316 173.152C176.92 175.138 183.733 177.189 189.486 183.105C195.239 189.021 197.245 196.06 199.176 202.818C201.014 209.295 202.746 215.384 207.575 220.383C212.404 225.381 218.367 227.173 224.646 229.019C231.239 231.006 238.063 233.057 243.816 238.973C249.569 244.889 251.574 251.928 253.506 258.686C255.343 265.163 257.075 271.241 261.905 276.25C266.734 281.259 272.697 283.03 278.975 284.887C285.568 286.873 292.392 288.924 298.145 294.84C303.898 300.756 305.904 307.795 307.835 314.553C308.039 315.274 308.243 315.994 308.452 316.712C308.807 317.931 308.186 319.231 307.004 319.693Z" fill="#A90F4F"/>
<path d="M293.728 319.612C292.422 320.158 290.938 319.453 290.408 318.141C289.05 314.78 287.102 311.697 284.655 309.048C279.794 304.05 273.862 302.257 267.584 300.411C260.991 298.425 254.167 296.363 248.414 290.447C242.661 284.531 240.656 277.492 238.724 270.734C236.887 264.257 235.154 258.179 230.325 253.18C225.496 248.182 219.522 246.39 213.244 244.544C206.651 242.557 199.827 240.506 194.074 234.59C188.321 228.674 186.326 221.635 184.384 214.867C182.547 208.389 180.814 202.311 175.985 197.313C171.156 192.314 165.182 190.522 158.904 188.676C152.311 186.69 145.487 184.639 139.734 178.723C133.981 172.807 131.986 165.768 130.054 158.999C128.207 152.522 126.474 146.444 121.656 141.445C116.837 136.447 110.853 134.655 104.575 132.809C97.9817 130.822 91.1577 128.771 85.4045 122.855C79.6514 116.939 77.6567 109.9 75.725 103.142C73.8773 96.6647 72.145 90.576 67.3262 85.5776C62.5074 80.5792 56.5338 78.7871 50.2453 76.941C43.6522 74.9546 36.8282 72.9034 31.0751 66.9874C25.3219 61.0714 23.3272 54.0326 21.3955 47.2745C19.5583 40.7971 17.8156 34.7084 12.9968 29.71C10.3726 27.0804 7.29016 24.9955 3.91911 23.5597C2.63494 23.0127 1.90949 21.5897 2.35753 20.2678C2.79664 18.9722 4.19915 18.2602 5.46601 18.7764C9.48095 20.4122 13.159 22.8319 16.2933 25.9099C22.0464 31.8691 24.0411 38.8647 25.9729 45.666C27.8101 52.1434 29.5528 58.2213 34.3716 63.2197C39.1904 68.2181 45.164 70.0102 51.4421 71.8563C58.0456 73.8427 64.8591 75.8938 70.6122 81.8099C76.3654 87.7259 78.3706 94.7647 80.3023 101.534C82.1395 108.011 83.8823 114.089 88.7011 119.087C93.5198 124.086 99.4935 125.878 105.772 127.724C112.375 129.71 119.189 131.761 124.942 137.677C130.695 143.594 132.7 150.632 134.632 157.401C136.469 163.879 138.201 169.957 143.031 174.955C147.86 179.953 153.823 181.745 160.101 183.591C166.694 185.578 173.518 187.629 179.271 193.545C185.024 199.461 187.029 206.5 188.961 213.258C190.798 219.735 192.531 225.824 197.36 230.823C202.189 235.821 208.152 237.613 214.43 239.459C221.023 241.445 227.847 243.497 233.601 249.413C239.354 255.329 241.359 262.367 243.291 269.126C245.128 275.603 246.86 281.692 251.689 286.69C256.519 291.689 262.482 293.47 268.76 295.327C275.353 297.313 282.177 299.364 287.93 305.28C291.016 308.577 293.427 312.468 295.029 316.722C295.463 317.874 294.864 319.137 293.728 319.612Z" fill="#A90F4F"/>
<path d="M277.911 319.719C276.94 320.636 275.412 320.512 274.472 319.563C269.612 314.565 263.68 312.772 257.402 310.926C250.809 308.94 243.985 306.889 238.232 300.973C232.479 295.057 230.473 288.018 228.542 281.249C226.704 274.772 224.972 268.694 220.143 263.695C215.314 258.697 209.35 256.905 203.072 255.059C196.479 253.072 189.655 251.021 183.902 245.105C178.149 239.189 176.154 232.15 174.212 225.381C172.375 218.904 170.643 212.826 165.813 207.828C160.984 202.829 155.011 201.037 148.732 199.191C142.139 197.205 135.315 195.154 129.562 189.238C123.809 183.322 121.814 176.283 119.883 169.514C118.035 163.036 116.303 156.958 111.484 151.96C106.665 146.962 100.681 145.17 94.403 143.324C87.8099 141.337 80.986 139.286 75.2328 133.37C69.4797 127.454 67.485 120.415 65.5532 113.657C63.7055 107.18 61.9733 101.091 57.1545 96.0925C52.3357 91.0941 46.1941 89.1293 39.895 87.24C33.3125 85.286 26.4885 83.2024 20.7354 77.2864C14.9822 71.3704 12.9875 64.3316 11.0558 57.5735C9.21858 51.0961 7.47584 45.0182 2.65705 40.009C1.68668 39.0409 1.49097 37.4721 2.34821 36.4025C3.22512 35.3084 4.84122 35.1452 5.818 36.1512C5.90937 36.2453 6.00005 36.3401 6.09004 36.4356C11.8537 42.3516 13.8484 49.3904 15.7801 56.1485C17.6173 62.6259 19.3601 68.7038 24.1789 73.7022C28.9977 78.7006 34.9713 80.4927 41.2493 82.3388C47.8529 84.3252 54.6664 86.3764 60.4195 92.2924C66.1727 98.2084 68.1778 105.247 70.1096 112.016C71.9468 118.493 73.6895 124.571 78.5083 129.57C83.3271 134.568 89.3007 136.36 95.5788 138.206C102.182 140.193 108.996 142.244 114.749 148.16C120.502 154.076 122.507 161.115 124.439 167.884C126.276 174.361 128.008 180.439 132.838 185.437C137.667 190.436 143.63 192.228 149.908 194.074C156.501 196.06 163.325 198.112 169.078 204.028C174.832 209.944 176.837 216.982 178.768 223.751C180.606 230.229 182.338 236.307 187.167 241.305C191.997 246.303 197.96 248.096 204.238 249.942C210.831 251.928 217.655 253.979 223.408 259.895C229.161 265.811 231.166 272.85 233.098 279.608C234.935 286.086 236.667 292.174 241.497 297.173C246.326 302.171 252.3 303.963 258.578 305.809C265.171 307.796 271.995 309.847 277.748 315.763C277.912 315.932 278.074 316.103 278.235 316.276C279.112 317.223 279 318.69 278.062 319.576L277.911 319.719Z" fill="#A90F4F"/>
<path d="M250.738 316.968C250.383 318.419 248.879 319.274 247.45 318.835L247.196 318.758C240.593 316.771 233.779 314.72 228.026 308.804C222.273 302.888 220.268 295.849 218.336 289.08C216.499 282.603 214.767 276.525 209.937 271.526C205.108 266.528 199.145 264.736 192.867 262.89C186.274 260.903 179.45 258.852 173.697 252.936C167.944 247.02 165.938 239.981 164.007 233.213C162.169 226.735 160.437 220.657 155.608 215.659C150.779 210.66 144.805 208.868 138.527 207.022C131.934 205.036 125.11 202.985 119.357 197.069C113.604 191.153 111.609 184.114 109.677 177.356C107.83 170.878 106.097 164.79 101.279 159.791C96.4597 154.793 90.4756 153.001 84.1975 151.155C77.6045 149.168 70.7805 147.117 65.0274 141.201C59.2742 135.285 57.2795 128.246 55.3478 121.488C53.5001 115.011 51.7678 108.922 46.949 103.924C42.1303 98.9252 36.1461 97.1439 29.8681 95.2871C23.0966 93.1279 16.2936 91.0768 10.4984 85.1607C4.7033 79.2447 2.79259 72.2275 0.860873 65.4046C0.802287 65.2083 0.743702 65.0101 0.685024 64.8105C0.304971 63.518 1.03312 62.1549 2.3186 61.7515C3.63393 61.3388 5.02818 62.0872 5.40903 63.4121C5.46743 63.6153 5.52609 63.8188 5.58517 64.0228C7.4224 70.5002 9.16514 76.5782 13.9839 81.5766C18.8027 86.575 24.7763 88.367 31.0544 90.2131C37.6579 92.1995 44.4714 94.2507 50.2246 100.167C55.9777 106.083 57.9829 113.122 59.9146 119.89C61.7519 126.368 63.4841 132.446 68.3134 137.444C73.1427 142.443 79.1058 144.235 85.3839 146.081C91.9769 148.067 98.8009 150.118 104.554 156.034C110.307 161.95 112.312 168.989 114.244 175.758C116.081 182.235 117.814 188.313 122.643 193.312C127.472 198.31 133.435 200.102 139.713 201.948C146.306 203.935 153.13 205.986 158.883 211.902C164.637 217.818 166.642 224.857 168.574 231.626C170.411 238.103 172.143 244.181 176.972 249.179C181.802 254.178 187.765 255.97 194.043 257.816C200.636 259.802 207.46 261.854 213.213 267.77C218.966 273.686 220.961 280.724 222.903 287.482C224.74 293.96 226.472 300.049 231.302 305.047C236.131 310.045 242.105 311.838 248.383 313.684L248.971 313.863C250.29 314.265 251.066 315.628 250.738 316.968Z" fill="#A90F4F"/>
</g>
<g clip-path="url(#clip1)">
<path d="M984.375 252.478C978.076 250.589 972.166 248.797 967.294 243.842C962.423 238.887 960.701 232.744 958.896 226.277C956.964 219.498 954.959 212.48 949.205 206.564C943.452 200.648 936.607 198.597 930.035 196.611C923.736 194.722 917.826 192.929 912.965 187.974C908.104 183.019 906.361 176.876 904.566 170.42C902.634 163.63 900.629 156.613 894.876 150.697C889.123 144.781 882.278 142.73 875.706 140.743C869.407 138.854 863.496 137.062 858.635 132.107C853.775 127.151 852.032 121.009 850.237 114.553C848.305 107.762 846.3 100.745 840.547 94.8291C834.793 88.9131 827.948 86.8619 821.376 84.8755C815.077 82.9863 809.167 81.1942 804.306 76.239C799.445 71.2837 797.702 65.141 795.907 58.6852C793.975 51.8947 791.97 44.8883 786.217 38.9723C780.464 33.0562 773.619 30.9943 767.047 29.0079C764.769 28.4016 762.528 27.6598 760.337 26.7868C758.81 26.1789 757.06 27.6152 757.136 29.2562C757.193 30.2682 757.768 31.2085 758.716 31.5674C761.009 32.4351 763.336 33.202 765.693 33.8659C771.992 35.7552 777.902 37.5472 782.774 42.5025C787.645 47.4577 789.367 53.6004 791.172 60.067C793.104 66.8467 795.099 73.8639 800.852 79.7799C806.605 85.696 813.45 87.7471 820.022 89.7336C826.321 91.6228 832.232 93.4149 837.103 98.3701C841.974 103.325 843.696 109.468 845.502 115.924C847.434 122.714 849.428 129.732 855.181 135.648C860.935 141.564 867.78 143.615 874.352 145.601C880.651 147.49 886.561 149.282 891.433 154.238C896.304 159.193 898.026 165.336 899.831 171.792C901.773 178.582 903.768 185.599 909.521 191.515C915.274 197.431 922.119 199.482 928.691 201.469C934.991 203.358 940.901 205.15 945.762 210.105C950.623 215.061 952.366 221.203 954.161 227.659C956.092 234.45 958.098 241.467 963.851 247.383C969.604 253.299 976.449 255.35 983.021 257.336C983.495 257.479 983.994 257.207 984.13 256.731L985.019 253.64C985.162 253.142 984.874 252.621 984.375 252.478Z" fill="#A90F4F"/>
<path d="M762.725 30.0736C762.319 31.4524 760.861 32.2392 759.5 31.775C754.801 30.1712 749.73 27.8887 745.368 23.3942C740.935 18.8265 738.685 13.5214 737.133 8.63234C736.726 7.34966 737.459 5.99359 738.743 5.59071C740.064 5.17626 741.461 5.92746 741.877 7.24808C743.26 11.6473 745.074 16.1461 748.843 19.8208C752.614 23.4977 756.917 25.3703 761.119 26.9112C762.403 27.3822 763.112 28.7615 762.725 30.0736Z" fill="#A90F4F"/>
<path d="M974.18 262.961C967.881 261.071 961.97 259.279 957.099 254.324C952.228 249.369 950.506 243.226 948.7 236.77C946.758 229.98 944.763 222.963 939.01 217.047C933.257 211.131 926.412 209.08 919.84 207.093C913.541 205.204 907.63 203.412 902.77 198.457C897.909 193.501 896.166 187.359 894.371 180.903C892.439 174.112 890.434 167.095 884.681 161.179C878.928 155.263 872.083 153.212 865.511 151.226C859.212 149.336 853.301 147.544 848.44 142.589C843.579 137.634 841.837 131.491 840.041 125.035C838.11 118.245 836.104 111.228 830.351 105.312C824.598 99.3955 817.753 97.3444 811.181 95.358C804.882 93.4687 798.971 91.6766 794.111 86.7214C789.25 81.7662 787.507 75.6235 785.712 69.1677C783.78 62.3772 781.775 55.3708 776.022 49.4548C770.269 43.5387 763.424 41.4768 756.852 39.4904C756.442 39.368 756.033 39.2456 755.625 39.1222C754.75 38.8572 753.805 39.1799 753.201 39.866C752.049 41.1744 752.405 43.4192 754.073 43.9266C754.538 44.0682 755.003 44.2083 755.466 44.3484C761.765 46.2485 767.676 48.0297 772.547 52.985C777.418 57.9402 779.14 64.0829 780.946 70.5495C782.877 77.3292 784.872 84.3464 790.625 90.2624C796.378 96.1784 803.223 98.2296 809.795 100.216C816.094 102.105 822.005 103.897 826.876 108.853C831.748 113.808 833.469 119.95 835.275 126.406C837.217 133.197 839.212 140.214 844.965 146.13C850.718 152.046 857.563 154.097 864.135 156.084C870.434 157.973 876.345 159.765 881.216 164.72C886.088 169.675 887.809 175.818 889.615 182.274C891.547 189.064 893.552 196.082 899.305 201.998C905.058 207.914 911.903 209.965 918.475 211.951C924.774 213.84 930.685 215.633 935.546 220.588C940.407 225.543 942.149 231.686 943.945 238.141C945.876 244.932 947.881 251.949 953.635 257.865C959.388 263.781 966.233 265.832 972.805 267.819C975.659 268.578 978.455 269.549 981.171 270.723C982.44 271.271 983.934 270.762 984.547 269.524C985.169 268.269 984.651 266.743 983.368 266.182C980.388 264.877 977.317 263.801 974.18 262.961Z" fill="#A90F4F"/>
<path d="M761.091 43.2946C760.597 44.6348 759.095 45.3014 757.745 44.8362C756.119 44.276 754.458 43.7742 752.736 43.2581C746.132 41.2717 739.319 39.2097 733.566 33.2937C727.813 27.3777 725.807 20.3389 723.876 13.5808C723.352 11.7337 722.843 9.95399 722.27 8.21289C721.846 6.9275 722.465 5.51193 723.72 5.00673C725.003 4.49064 726.463 5.11887 726.9 6.43047C727.536 8.33728 728.065 10.2546 728.6 12.1558C730.448 18.6332 732.18 24.7112 736.999 29.7203C741.817 34.7295 747.791 36.5 754.08 38.3569C755.905 38.9062 757.772 39.4663 759.633 40.1172C760.929 40.5706 761.565 42.006 761.091 43.2946Z" fill="#A90F4F"/>
<path d="M983.158 283.397C977.405 277.481 970.56 275.43 963.988 273.444C957.689 271.554 951.778 269.762 946.907 264.807C942.036 259.852 940.314 253.709 938.508 247.253C936.576 240.463 934.582 233.446 928.829 227.53C923.075 221.614 916.23 219.563 909.658 217.576C903.359 215.687 897.449 213.895 892.588 208.94C887.727 203.984 885.984 197.842 884.189 191.386C882.257 184.595 880.252 177.578 874.499 171.662C868.746 165.746 861.901 163.695 855.329 161.709C849.03 159.819 843.119 158.027 838.258 153.072C833.398 148.117 831.655 141.974 829.86 135.518C827.928 128.728 825.923 121.721 820.17 115.795C814.416 109.868 807.572 107.827 801 105.841C794.7 103.952 788.79 102.16 783.929 97.2044C779.068 92.2492 777.325 86.1064 775.53 79.6506C773.599 72.8602 771.593 65.8538 765.84 59.9377C764.534 58.6088 763.114 57.4082 761.6 56.3493C760.099 55.2993 758.19 56.8228 758.271 58.6531C758.321 59.4027 758.555 60.1491 759.103 60.6631C760.234 61.7244 761.282 62.4494 762.323 63.5111C767.184 68.5095 768.916 74.609 770.722 81.0757C772.654 87.8553 774.648 94.8725 780.402 100.789C786.155 106.705 793 108.756 799.572 110.742C805.871 112.642 811.781 114.423 816.653 119.379C821.524 124.334 823.246 130.477 825.051 136.943C826.994 143.723 828.988 150.74 834.742 156.656C840.495 162.572 847.34 164.623 853.912 166.61C860.211 168.499 866.121 170.291 870.982 175.246C875.843 180.202 877.586 186.344 879.381 192.8C881.313 199.591 883.318 206.608 889.071 212.524C894.824 218.44 901.669 220.491 908.241 222.477C914.54 224.367 920.451 226.159 925.312 231.114C930.172 236.069 931.915 242.212 933.71 248.668C935.642 255.458 937.647 262.475 943.4 268.391C949.154 274.307 955.999 276.359 962.571 278.345C968.87 280.234 974.78 282.026 979.641 286.981C980.101 287.455 980.542 287.948 980.963 288.458C981.855 289.539 983.432 289.846 984.578 289.039C985.677 288.265 985.972 286.751 985.146 285.691C984.523 284.892 983.859 284.126 983.158 283.397Z" fill="#A90F4F"/>
<path d="M760.635 58.5585C759.662 59.5501 758.075 59.5462 756.994 58.673C752.569 55.0975 747.437 53.5495 742.071 51.9273C735.468 49.9409 728.654 47.879 722.901 41.9629C717.148 36.0469 715.143 29.0081 713.211 22.25C711.625 16.6738 710.111 11.3641 706.593 6.81869C705.766 5.75042 705.773 4.21493 706.728 3.25933C707.72 2.26671 709.345 2.28396 710.217 3.38392C714.499 8.79033 716.256 14.9205 717.988 20.879C719.836 27.3564 721.568 33.4344 726.387 38.4436C731.205 43.4527 737.189 45.2232 743.468 47.0801C749.271 48.8308 755.26 50.6335 760.551 55.1203C761.595 56.0054 761.594 57.5817 760.635 58.5585Z" fill="#A90F4F"/>
<path d="M763.11 89.8507C761.746 90.6331 760.029 89.9286 759.609 88.4135C759.506 88.0435 759.411 87.7049 759.332 87.4344C757.495 80.957 753.778 76.466 748.918 71.4568C744.057 66.4476 738.125 64.6771 731.847 62.8203C725.244 60.8231 718.43 58.7719 712.677 52.8559C706.924 46.9398 704.919 39.9011 702.987 33.143C701.15 26.6656 699.417 20.5876 694.588 15.5784C689.759 10.5692 683.733 8.76633 677.434 6.87709C677.241 6.81817 677.049 6.75967 676.858 6.70134C675.543 6.30093 674.807 4.91655 675.199 3.59871C675.602 2.24436 677.037 1.48487 678.392 1.88338C678.535 1.92524 678.677 1.96685 678.82 2.00824C685.413 3.99464 692.237 6.05662 697.99 11.9726C703.743 17.8887 705.738 24.9275 707.669 31.6855C709.517 38.163 711.249 44.2409 716.068 49.2393C720.887 54.2377 726.871 56.0298 733.149 57.8759C739.742 59.8623 748.403 63.0902 754.146 69.0062C759.889 74.9222 760.056 80.7735 761.988 87.5532C762.108 87.9738 762.575 88.1021 763.095 88.1847C764.21 88.3619 764.089 89.289 763.11 89.8507Z" fill="#A90F4F"/>
<path d="M762.355 120.772C761.557 121.746 760.139 121.852 759.252 120.96C758.638 120.343 758.034 119.72 757.692 119.368C751.939 113.452 749.934 106.413 748.002 99.655C746.165 93.1776 744.433 87.0996 739.603 82.0904C734.774 77.0813 728.811 75.3108 722.533 73.4539C715.94 71.4675 709.116 69.4163 703.363 63.5003C697.609 57.5843 695.615 50.5455 693.672 43.7874C691.835 37.31 690.103 31.232 685.274 26.2228C680.444 21.2137 674.471 19.4432 668.193 17.5863C661.6 15.5891 654.776 13.5379 649.023 7.6219C648.891 7.48648 648.76 7.3495 648.631 7.21111C647.709 6.22481 647.868 4.68248 648.897 3.80963L648.981 3.73928C650.013 2.8639 651.558 3.02958 652.508 3.99455C657.369 9.00374 663.3 10.785 669.579 12.6311C676.172 14.6175 682.996 16.6795 688.749 22.5955C694.502 28.5115 696.507 35.5503 698.439 42.3084C700.276 48.7858 702.008 54.8638 706.838 59.8622C711.667 64.8606 717.63 66.6526 723.908 68.4987C730.501 70.4851 737.325 72.5471 743.078 78.4631C748.831 84.3791 750.837 91.4179 752.768 98.176C754.606 104.653 756.338 110.731 761.167 115.73C761.427 115.997 761.868 116.584 762.33 117.191C763.103 118.206 763.164 119.786 762.355 120.772Z" fill="#A90F4F"/>
<path d="M760.579 135.375C760.131 136.676 758.717 137.387 757.444 136.862C753.439 135.212 749.772 132.783 746.648 129.699C740.895 123.783 738.9 116.744 736.968 109.986C735.131 103.509 733.389 97.431 728.57 92.4218C723.751 87.4126 717.777 85.6421 711.499 83.7852C704.896 81.7988 698.072 79.7368 692.319 73.8208C686.565 67.9048 684.571 60.866 682.639 54.1079C680.802 47.6305 679.059 41.5525 674.24 36.5542C669.421 31.5558 663.448 29.7637 657.17 27.9176C650.482 25.9096 643.669 23.7505 637.916 17.8776C634.871 14.6279 632.483 10.7993 630.881 6.61428C630.411 5.38567 631.087 4.04194 632.324 3.59402C633.652 3.11317 635.103 3.84796 635.629 5.15874C636.984 8.53836 638.935 11.6401 641.391 14.3043C646.262 19.3027 652.193 21.084 658.472 22.9408C665.065 24.938 671.889 26.9892 677.642 32.9052C683.395 38.8212 685.39 45.86 687.321 52.6181C689.159 59.0955 690.901 65.1735 695.72 70.1719C700.539 75.1703 706.512 76.9624 712.801 78.8084C719.426 80.8704 726.26 82.9324 732.024 88.8484C737.787 94.7644 739.772 101.803 741.703 108.561C743.541 115.039 745.283 121.117 750.102 126.115C752.695 128.642 755.714 130.649 759.003 132.042C760.306 132.593 761.04 134.038 760.579 135.375Z" fill="#A90F4F"/>
<path d="M760.391 150.43C759.943 151.727 758.533 152.428 757.221 152.028C756.313 151.752 755.397 151.476 754.669 151.247C747.755 149.274 741.471 145.457 736.454 140.182C730.701 134.266 728.707 127.227 726.775 120.469C724.938 113.992 723.195 107.914 718.376 102.915C713.557 97.9167 707.584 96.1247 701.306 94.2786C694.702 92.2922 687.878 90.2302 682.125 84.3142C676.372 78.3982 674.377 71.3594 672.445 64.6013C670.608 58.1239 668.865 52.0459 664.047 47.0475C659.228 42.0491 653.254 40.2571 646.976 38.411C640.373 36.4246 633.559 34.3626 627.806 28.4466C622.053 22.5306 620.048 15.4918 618.116 8.73369C617.928 8.06844 617.739 7.40547 617.547 6.74373C617.171 5.4484 617.874 4.07493 619.154 3.65073C620.464 3.2167 621.876 3.94118 622.259 5.26707C622.456 5.94602 622.648 6.62621 622.84 7.30866C624.688 13.7861 626.42 19.864 631.239 24.8732C636.058 29.8824 642.031 31.6529 648.32 33.5098C654.913 35.507 661.737 37.5581 667.49 43.4742C673.243 49.3902 675.238 56.429 677.17 63.1871C679.007 69.6645 680.75 75.7424 685.568 80.7516C690.387 85.7608 696.329 87.4449 702.628 89.3666C709.232 91.353 716.056 93.415 721.809 99.331C727.562 105.247 729.557 112.286 731.489 119.044C733.326 125.521 735.069 131.599 739.887 136.598C744.401 141.308 750.043 144.712 756.244 146.465C756.977 146.689 757.876 146.962 758.773 147.237C760.12 147.65 760.851 149.098 760.391 150.43Z" fill="#A90F4F"/>
<path d="M760.58 164.209C759.823 165.429 758.196 165.75 756.946 165.043C753.386 163.032 749.506 161.875 745.441 160.629C738.837 158.697 732.024 156.538 726.26 150.665C720.496 144.792 718.512 137.71 716.58 130.952C714.743 124.475 713 118.397 708.182 113.398C703.363 108.4 697.379 106.608 691.08 104.719C684.476 102.732 677.652 100.67 671.899 94.7542C666.146 88.8381 664.151 81.7994 662.219 75.0413C660.382 68.5639 658.639 62.4859 653.821 57.4875C649.002 52.4891 643.028 50.697 636.75 48.851C630.147 46.8646 623.323 44.8026 617.569 38.8866C611.816 32.9705 609.822 25.9317 607.89 19.1737C606.667 14.8921 605.505 10.8028 603.456 7.06775C602.817 5.90337 603.077 4.4165 604.156 3.64196C605.285 2.83113 606.869 3.11322 607.549 4.32642C609.972 8.6554 611.28 13.2692 612.52 17.7486C614.357 24.226 616.1 30.304 620.918 35.3132C625.737 40.3224 631.711 42.0929 637.999 43.9497C644.592 45.9361 651.416 47.9873 657.17 53.9033C662.923 59.8194 664.917 66.8581 666.849 73.6162C668.686 80.0936 670.429 86.1716 675.248 91.1808C680.067 96.19 686.04 97.9605 692.318 99.8173C698.922 101.815 705.746 103.866 711.499 109.782C717.252 115.698 719.247 122.737 721.179 129.495C723.016 135.972 724.759 142.05 729.577 147.048C734.396 152.047 740.37 153.839 746.648 155.685C751.062 157.021 755.602 158.388 759.853 160.935C760.984 161.613 761.276 163.09 760.58 164.209Z" fill="#A90F4F"/>
<path d="M762.209 187.764C761.051 188.349 759.649 187.794 759.005 186.668C757.329 183.733 754.88 181.553 752.694 179.629C747.004 174.641 741.534 173 735.246 171.111C728.653 169.125 721.829 167.063 716.076 161.147C710.322 155.231 708.328 148.192 706.396 141.434C704.559 134.956 702.816 128.878 697.997 123.88C693.178 118.882 687.205 117.09 680.916 115.244C674.281 113.214 667.447 111.195 661.683 105.236C655.919 99.2767 653.935 92.2811 652.004 85.523C650.166 79.0456 648.424 72.9677 643.605 67.9693C638.786 62.9709 632.812 61.1788 626.534 59.3327C619.931 57.3463 613.107 55.2843 607.354 49.3683C601.6 43.4523 599.606 36.4135 597.674 29.6554C595.837 23.178 594.094 17.1001 589.275 12.1017C587.166 9.98902 584.737 8.25139 582.089 6.95337C580.835 6.33832 580.171 4.88623 580.672 3.58167C581.168 2.28726 582.623 1.62823 583.876 2.22153C587.161 3.77726 590.168 5.90528 592.761 8.51749C598.514 14.4335 600.509 21.4723 602.44 28.2304C604.278 34.7078 606.02 40.7858 610.839 45.7949C615.658 50.8041 621.631 52.5746 627.91 54.4315C634.513 56.4179 641.337 58.4691 647.09 64.3851C652.843 70.3011 654.838 77.3399 656.77 84.098C658.607 90.5754 660.35 96.6534 665.169 101.663C669.987 106.672 675.961 108.442 682.239 110.299C688.843 112.296 695.667 114.347 701.42 120.263C707.173 126.18 709.168 133.218 711.099 139.976C712.937 146.454 714.679 152.532 719.498 157.541C724.317 162.55 730.29 164.321 736.569 166.177C743.172 168.164 749.996 170.226 755.749 176.142C758.362 178.828 761.25 181.352 763.163 185.072C763.675 186.069 763.209 187.258 762.209 187.764Z" fill="#A90F4F"/>
<path d="M760.626 224.061C759.586 225.024 757.942 224.922 757.136 223.756C753.67 218.74 752.093 213.205 750.565 207.828C748.728 201.35 746.985 195.272 742.166 190.274C737.347 185.276 731.374 183.483 725.085 181.637C718.492 179.651 711.668 177.589 705.915 171.673C700.162 165.757 698.167 158.718 696.235 151.96C694.398 145.483 692.655 139.405 687.837 134.406C683.018 129.408 677.044 127.616 670.756 125.77C664.163 123.783 657.339 121.721 651.585 115.805C645.832 109.889 643.838 102.851 641.906 96.0925C640.069 89.6151 638.326 83.5371 633.507 78.5387C628.688 73.5403 622.715 71.7483 616.437 69.9022C609.833 67.9158 603.009 65.8538 597.256 59.9378C591.503 54.0218 589.508 46.983 587.576 40.2249C585.739 33.7475 583.996 27.6695 579.178 22.6711C574.359 17.6727 568.249 15.7511 561.95 13.8619C556.664 12.2734 551.222 10.634 546.295 6.98136C545.22 6.18415 545.101 4.65264 545.949 3.61733C546.839 2.53101 548.447 2.40972 549.595 3.21868C553.717 6.12287 558.386 7.52371 563.325 9.00381C569.918 10.9902 576.742 13.0414 582.495 18.9574C588.248 24.8734 590.243 31.9122 592.175 38.6703C594.012 45.1477 595.755 51.2257 600.573 56.2349C605.392 61.2441 611.366 63.0146 617.644 64.8714C624.247 66.8578 631.071 68.909 636.825 74.825C642.578 80.741 644.572 87.7798 646.504 94.5379C648.341 101.015 650.084 107.093 654.903 112.102C659.722 117.112 665.695 118.882 671.973 120.739C678.577 122.725 685.401 124.777 691.154 130.693C696.907 136.609 698.902 143.647 700.834 150.406C702.671 156.883 704.414 162.961 709.232 167.97C714.051 172.979 720.025 174.75 726.303 176.607C732.906 178.604 739.72 180.655 745.473 186.571C751.226 192.487 753.231 199.526 755.163 206.284C756.619 211.415 758.011 216.291 760.94 220.612C761.674 221.695 761.585 223.172 760.626 224.061Z" fill="#A90F4F"/>
<path d="M760.522 242.523C760.008 243.672 758.658 244.199 757.546 243.61C754.791 242.15 752.263 240.268 750.05 238.023C744.297 232.107 742.302 225.069 740.37 218.311C738.523 211.833 736.79 205.755 731.972 200.757C727.153 195.758 721.179 193.966 714.891 192.12C708.298 190.134 701.474 188.072 695.721 182.156C689.967 176.24 687.973 169.201 686.041 162.443C684.204 155.966 682.461 149.888 677.642 144.889C672.823 139.891 666.85 138.099 660.572 136.253C653.968 134.266 647.144 132.204 641.391 126.288C635.638 120.372 633.643 113.333 631.712 106.575C629.874 100.098 628.132 94.0199 623.313 89.0215C618.494 84.0231 612.52 82.2311 606.242 80.385C599.639 78.3986 592.815 76.3474 587.062 70.4206C581.308 64.4938 579.314 57.4658 577.382 50.7077C575.545 44.2303 573.802 38.1523 568.983 33.1539C564.165 28.1555 558.191 26.3635 551.913 24.5174C545.152 22.3583 538.317 20.3071 532.554 14.3911C530.391 12.1317 528.573 9.55528 527.157 6.74963C526.556 5.55987 527.123 4.14037 528.336 3.58905C529.613 3.00902 531.106 3.61285 531.76 4.85332C532.906 7.02957 534.35 9.03127 536.05 10.7961C540.91 15.7945 546.842 17.5866 553.12 19.4326C559.724 21.419 566.548 23.4702 572.301 29.3862C578.054 35.3023 580.049 42.3411 581.98 49.0991C583.818 55.5765 585.56 61.6653 590.379 66.6637C595.198 71.6621 601.172 73.4542 607.45 75.3002C614.053 77.2867 620.877 79.3378 626.63 85.2539C632.383 91.1699 634.378 98.2087 636.31 104.967C638.147 111.444 639.89 117.522 644.709 122.531C649.527 127.541 655.501 129.311 661.779 131.168C668.383 133.154 675.207 135.205 680.96 141.121C686.713 147.037 688.708 154.076 690.639 160.834C692.477 167.312 694.219 173.39 699.038 178.399C703.857 183.408 709.83 185.179 716.109 187.035C722.712 189.022 729.526 191.073 735.279 196.989C741.032 202.905 743.037 209.944 744.969 216.702C746.806 223.179 748.549 229.257 753.368 234.267C755.162 236.304 757.235 238.056 759.518 239.47C760.554 240.111 761.019 241.41 760.522 242.523Z" fill="#A90F4F"/>
<path d="M760.093 257.854C759.981 258.329 759.492 258.61 759.025 258.47C752.432 256.483 745.608 254.421 739.855 248.505C734.102 242.589 732.107 235.551 730.175 228.792C728.328 222.315 726.595 216.237 721.777 211.239C716.958 206.24 710.974 204.448 704.696 202.602C698.103 200.616 691.279 198.554 685.525 192.638C679.772 186.722 677.778 179.683 675.846 172.925C674.009 166.447 672.266 160.37 667.447 155.371C662.628 150.373 656.655 148.581 650.366 146.735C643.773 144.748 636.949 142.686 631.196 136.77C625.443 130.854 623.448 123.815 621.516 117.057C619.679 110.58 617.936 104.502 613.118 99.5035C608.299 94.5051 602.325 92.7131 596.047 90.867C589.444 88.8806 582.62 86.8294 576.866 80.9134C571.113 74.9974 569.119 67.9586 567.187 61.1897C565.35 54.7123 563.607 48.6343 558.788 43.6359C553.969 38.6375 547.996 36.8455 541.718 34.9994C534.946 32.8403 528.122 30.7891 522.369 24.8299C516.616 18.8707 514.621 11.8751 512.689 5.11697C512.551 4.6774 512.798 4.20929 513.239 4.07619L516.271 3.16187C516.76 3.01424 517.275 3.29699 517.414 3.78911C519.251 10.2665 520.994 16.3445 525.813 21.3429C530.631 26.3413 536.605 28.1333 542.883 29.9794C549.487 31.9658 556.311 34.017 562.064 39.933C567.817 45.849 569.812 52.8878 571.743 59.6459C573.58 66.1233 575.323 72.2121 580.142 77.2105C584.961 82.2089 590.934 84.0009 597.212 85.847C603.816 87.8334 610.64 89.8846 616.393 95.8006C622.146 101.717 624.141 108.755 626.073 115.514C627.91 121.991 629.653 128.069 634.471 133.078C639.29 138.087 645.264 139.858 651.542 141.715C658.145 143.701 664.959 145.752 670.712 151.668C676.465 157.584 678.47 164.623 680.402 171.381C682.239 177.859 683.982 183.936 688.801 188.946C693.62 193.955 699.593 195.725 705.871 197.582C712.475 199.569 719.288 201.62 725.042 207.536C730.795 213.452 732.8 220.491 734.732 227.249C736.569 233.726 738.312 239.804 743.13 244.813C747.949 249.822 753.923 251.593 760.201 253.45C760.691 253.602 760.98 254.108 760.862 254.607L760.093 257.854Z" fill="#A90F4F"/>
<path d="M760.814 270.156C760.334 271.478 758.795 272.074 757.482 271.569C754.723 270.507 751.691 269.822 748.831 268.952C742.238 266.966 735.414 264.904 729.661 258.988C723.908 253.072 721.913 246.033 719.982 239.275C718.134 232.798 716.402 226.72 711.583 221.721C706.764 216.723 700.78 214.931 694.502 213.085C687.909 211.098 681.085 209.036 675.332 203.12C669.579 197.204 667.584 190.166 665.652 183.408C663.805 176.93 662.072 170.852 657.254 165.854C652.435 160.855 646.461 159.063 640.173 157.217C633.58 155.231 626.756 153.18 621.002 147.253C615.249 141.326 613.255 134.298 611.323 127.54C609.486 121.062 607.743 114.985 602.924 109.986C598.105 104.988 592.132 103.196 585.843 101.35C579.25 99.3632 572.426 97.312 566.673 91.396C560.92 85.4799 558.925 78.4412 556.993 71.6723C555.156 65.1949 553.413 59.1169 548.595 54.1185C543.776 49.1201 537.802 47.328 531.514 45.482C524.921 43.4956 518.097 41.4444 512.344 35.5284C506.59 29.6123 504.596 22.5735 502.664 15.8155C501.871 12.7533 500.855 9.75788 499.625 6.85439C499.11 5.63769 499.588 4.21421 500.759 3.60322C502.008 2.95198 503.552 3.47469 504.094 4.77419C505.373 7.83578 506.429 10.9923 507.252 14.2177C509.089 20.6951 510.832 26.7731 515.651 31.7715C520.469 36.7699 526.443 38.5619 532.721 40.408C539.325 42.3944 546.149 44.4456 551.902 50.3616C557.655 56.2776 559.65 63.3164 561.581 70.0745C563.418 76.5519 565.161 82.6407 569.98 87.6391C574.799 92.6375 580.772 94.4296 587.05 96.2756C593.654 98.262 600.478 100.313 606.231 106.229C611.984 112.145 613.979 119.184 615.911 125.942C617.748 132.42 619.491 138.508 624.309 143.507C629.128 148.505 635.102 150.297 641.38 152.143C647.983 154.13 654.797 156.181 660.55 162.097C666.303 168.013 668.308 175.052 670.24 181.81C672.077 188.287 673.82 194.365 678.639 199.374C683.458 204.383 689.431 206.154 695.709 208.011C702.313 209.997 709.126 212.048 714.88 217.964C720.633 223.88 722.638 230.919 724.57 237.677C726.407 244.155 728.139 250.233 732.968 255.242C737.798 260.251 743.761 262.022 750.039 263.878C753.321 264.765 756.531 265.913 759.638 267.311C760.719 267.798 761.218 269.041 760.814 270.156Z" fill="#A90F4F"/>
<path d="M761.217 289.722C760.161 290.508 758.687 290.39 757.769 289.446L757.273 288.936C752.401 283.927 744.874 281.282 738.596 279.392C732.024 277.449 725.221 275.387 719.426 269.471C713.631 263.555 711.678 256.516 709.736 249.758C707.898 243.281 706.166 237.203 701.337 232.204C696.508 227.206 690.534 225.414 684.256 223.568C677.663 221.582 670.839 219.52 665.086 213.604C659.333 207.688 657.338 200.649 655.406 193.891C653.558 187.413 651.826 181.335 647.007 176.337C642.189 171.338 636.205 169.546 629.926 167.7C623.333 165.714 616.509 163.663 610.756 157.747C605.003 151.831 603.008 144.792 601.077 138.023C599.229 131.546 597.497 125.468 592.678 120.469C587.859 115.471 581.886 113.679 575.597 111.833C569.004 109.846 562.18 107.795 556.427 101.879C550.674 95.9631 548.679 88.9243 546.747 82.1554C544.91 75.678 543.167 69.6001 538.348 64.6017C533.53 59.6033 527.556 57.8112 521.267 55.9651C514.674 53.9787 507.85 51.9275 502.097 46.0115C496.344 40.0955 494.349 33.0567 492.418 26.2986C490.58 19.8212 488.838 13.7324 484.019 8.73405C483.52 8.22159 483 7.73278 482.459 7.26902C481.447 6.40087 481.12 4.93133 481.808 3.78873C482.566 2.52919 484.241 2.17063 485.36 3.1234C486.049 3.7097 486.712 4.32822 487.347 4.97715C493.1 10.8932 495.095 17.932 497.027 24.7008C498.864 31.1783 500.606 37.2562 505.425 42.2546C510.244 47.253 516.218 49.0451 522.496 50.8912C529.141 52.8991 535.965 54.9719 541.718 60.8879C547.472 66.804 549.466 73.8428 551.398 80.6116C553.235 87.089 554.978 93.167 559.797 98.1654C564.616 103.164 570.589 104.956 576.867 106.802C583.471 108.788 590.284 110.84 596.037 116.756C601.791 122.672 603.796 129.71 605.728 136.468C607.565 142.946 609.307 149.035 614.126 154.033C618.945 159.031 624.919 160.823 631.197 162.67C637.8 164.656 644.614 166.707 650.367 172.623C656.12 178.539 658.125 185.578 660.057 192.336C661.894 198.813 663.637 204.902 668.456 209.901C673.275 214.899 679.248 216.68 685.526 218.537C692.13 220.524 698.943 222.575 704.696 228.491C710.45 234.407 712.455 241.446 714.387 248.204C716.224 254.681 717.956 260.759 722.785 265.768C727.615 270.777 733.578 272.548 739.856 274.405C746.449 276.391 753.787 278.259 759.54 284.121C760.257 284.731 760.944 285.375 761.599 286.052C762.635 287.121 762.411 288.833 761.217 289.722Z" fill="#A90F4F"/>
</g>
<defs>
<clipPath id="clip0">
<rect width="536.25" height="65" fill="white"/>
</clipPath>
<clipPath id="clip1">
<rect x="450.666" width="536.25" height="65" fill="white"/>
</clipPath>
</defs>
</svg>
